<?xml version="1.0" encoding="utf-8"?>
<!-- Generator: Adobe Illustrator 18.1.1, SVG Export Plug-In . SVG Version: 6.00 Build 0)  -->
<svg version="1.1" xmlns="http://www.w3.org/2000/svg" xmlns:xlink="http://www.w3.org/1999/xlink" x="0px" y="0px"
	 viewBox="0 0 510.2 283.5" enable-background="new 0 0 510.2 283.5" xml:space="preserve">
<g id="Calque_2">
	<rect fill="#FFFFFF" width="510.2" height="283.5"/>
</g>
<g id="Calque_1">
	<g>
		<path fill="#F9B200" d="M299.1,66c-8.2,1.2-14.2,8.1-14.5,16.1c-4.9-1.2-10-1.8-15.2-1.8l0,0h0c-2.8,0-5.5,0.2-8.1,0.5
			c0.9-18.9,15.1-35.1,34.6-37.9c16.6-2.4,32.3,5.8,40.4,19.3c-7,3.6-13.5,8-19.4,13.2C313.6,69,306.6,64.9,299.1,66z"/>
		<path fill="#39A9DC" d="M210.4,117.4c-4,8.4-6.3,17.9-6.4,27.8H43.3v-27.8H210.4z"/>
		<g>
			<path fill="#707173" d="M43.7,161.8h13.6c2,0,3.2,0.5,4.3,1.5c1,1,1.6,2.3,1.6,3.9v6.7c0,1.7-0.5,3-1.6,4c-1,0.9-2.1,1.3-3.8,1.3
				h-8.2v9.8h-5.9V161.8z M55.3,173.3c1.7,0,2-0.3,2-1.5v-2.4c0-0.1,0-0.2,0-0.3c-0.1-0.9-0.4-1.3-1.5-1.4c-0.1,0-0.2,0-0.3,0h-5.9
				v5.6H55.3z"/>
			<path fill="#707173" d="M79.7,161.8c3.3,0,5.1,1.5,5.6,4.5c0.1,0.4,0.1,0.7,0.1,1.1v5.5c0,0.4,0,0.8-0.1,1.1
				c-0.5,2.5-2.1,4-4.4,4.3c-0.3,0-0.7,0.1-1,0.1l-0.9,0l6.7,10.8h-6.9l-6.2-10.1c-0.3-0.5-0.5-1.2-0.5-2.1c0.2-2.3,1.5-3.4,3.5-3.4
				h2.4c1.1,0,1.6-0.5,1.6-1.6v-2.5c0-0.9-0.4-1.4-1.4-1.6c-0.1,0-0.3,0-0.4,0h-5.8v21.4H66v-27.3H79.7z"/>
			<path fill="#707173" d="M88.6,161.8h5.9v27.3h-5.9V161.8z"/>
			<path fill="#707173" d="M102,161.8l5.8,19.4l6-19.4h6.2l-8,24.2c-0.8,2.3-2.1,3.4-4,3.4c-2,0-3.3-1.1-4.1-3.4l-8-24.2H102z"/>
			<path fill="#707173" d="M123.1,165.2c0.8-2.4,2.4-3.6,4.6-3.6c2.2,0,3.9,1.3,4.6,3.6l7.5,23.9h-6.1l-1.9-5.9h-8.3l-1.9,5.9h-6.1
				L123.1,165.2z M130.1,177.7l-2.8-8.8l-2,8.8H130.1z"/>
			<path fill="#707173" d="M141.4,165.8c0.7-2.8,2.3-4,5.4-4h11.9v5.9h-9.5h-0.4l-0.5,0c-0.6,0.1-0.9,0.3-1.2,0.8
				c-0.1,0.2-0.1,0.4-0.1,0.6v1.8c0,0.1,0,0.3,0,0.4c0.2,0.8,0.5,1.1,1.5,1.2c0.1,0,0.3,0,0.4,0h4.2c3,0,4.8,1.4,5.4,4.2
				c0.1,0.4,0.1,0.8,0.1,1.1v5.5c0,3.2-1.7,5.3-4.9,5.7c-0.3,0-0.6,0.1-1,0.1h-11.6v-5.9h9.5h0.5h0.2c0.1,0,0.2-0.1,0.3-0.1
				c0.8-0.3,1-0.7,1-1.5v-2c0-0.8-0.4-1.2-1.3-1.3h-0.7h-4.2c-1.9,0-3.5-0.8-4.6-2.4c-0.6-0.9-0.9-1.9-0.9-2.9v-5.8
				C141.2,166.7,141.3,166.3,141.4,165.8z"/>
			<path fill="#707173" d="M173,168c0-4.7,1.6-6.2,6.4-6.2h11.4v5.9H181h-0.5h-0.3c-0.8,0.1-1.2,0.5-1.4,1.2v0.7v11.2
				c0,1.8,0.3,2.3,1.7,2.4c0.2,0,0.3,0,0.5,0h9.7v5.9h-12.3c-0.6,0-1.3-0.1-2-0.4c-2.3-0.9-3.5-2.7-3.5-5.6V168z"/>
			<path fill="#707173" d="M193.8,167.7c0-0.4,0-0.8,0.1-1.2c0.5-3.1,2.4-4.7,5.6-4.7h12.1v5.9H202h-0.9H201c-0.2,0-0.3,0-0.4,0.1
				c-0.6,0.2-1,0.8-1,1.6v3h11.9v5.9h-11.9v3c0,1.3,0.4,1.7,1.5,1.9h0.9h9.5v5.9h-11.3c-4.4,0-6.5-2-6.5-5.7V167.7z"/>
			<path fill="#707173" d="M214.9,167.2c0-4.2,3.1-6.7,6.8-5.4c1.6,0.6,2.7,1.9,3.3,4.1l4.1,15.8v-20h5.6v22.6c0,2.8-2.1,5-4.8,5.1
				c-2.5,0-4.3-1.4-5.2-4.6l-4.2-15.6v19.9h-5.6V167.2z"/>
			<path fill="#707173" d="M236.8,161.8h17.6v5.9h-5.9v21.4h-5.9v-21.4h-5.8V161.8z"/>
			<path fill="#707173" d="M270.3,161.8c3.3,0,5.1,1.5,5.6,4.5c0.1,0.4,0.1,0.7,0.1,1.1v5.5c0,0.4,0,0.8-0.1,1.1
				c-0.5,2.5-2.1,4-4.4,4.3c-0.3,0-0.7,0.1-1,0.1l-0.9,0l6.7,10.8h-6.9l-6.2-10.1c-0.3-0.5-0.5-1.2-0.5-2.1c0.2-2.3,1.5-3.4,3.5-3.4
				h2.4c1.1,0,1.6-0.5,1.6-1.6v-2.5c0-0.9-0.4-1.4-1.4-1.6c-0.1,0-0.3,0-0.4,0h-5.8v21.4h-5.9v-27.3H270.3z"/>
			<path fill="#707173" d="M279.2,167.7c0-0.4,0-0.8,0.1-1.2c0.5-3.1,2.4-4.7,5.6-4.7H297v5.9h-9.6h-0.9h-0.1c-0.2,0-0.3,0-0.4,0.1
				c-0.6,0.2-1,0.8-1,1.6v3H297v5.9H285v3c0,1.3,0.4,1.7,1.5,1.9h0.9h9.5v5.9h-11.3c-4.4,0-6.5-2-6.5-5.7V167.7z"/>
			<path fill="#707173" d="M316.8,165.2c0.8-2.4,2.4-3.6,4.6-3.6c2.2,0,3.9,1.3,4.6,3.6l7.5,23.9h-6.1l-1.9-5.9h-8.3l-1.9,5.9h-6.1
				L316.8,165.2z M323.8,177.7l-2.8-8.8l-2,8.8H323.8z"/>
			<path fill="#707173" d="M348.9,161.8c3.3,0,5.1,1.5,5.6,4.5c0.1,0.4,0.1,0.7,0.1,1.1v5.5c0,0.4,0,0.8-0.1,1.1
				c-0.5,2.5-2.1,4-4.4,4.3c-0.3,0-0.7,0.1-1,0.1l-0.9,0l6.7,10.8h-6.9l-6.2-10.1c-0.3-0.5-0.5-1.2-0.5-2.1c0.2-2.3,1.5-3.4,3.5-3.4
				h2.4c1.1,0,1.6-0.5,1.6-1.6v-2.5c0-0.9-0.4-1.4-1.4-1.6c-0.1,0-0.3,0-0.4,0h-5.8v21.4h-5.9v-27.3H348.9z"/>
			<path fill="#707173" d="M357.8,161.8h13.9c4,0,5.9,1.9,5.9,6v15.3c0,0.3,0,0.6-0.1,1c-0.4,3.3-2.3,5-5.6,5h-14.2V161.8z
				 M369.7,183.2c1.6,0,1.9-0.3,2-2c0-0.1,0-0.3,0-0.4v-11.1v-0.8c-0.2-0.8-0.5-1.1-1.6-1.2c-0.2,0-0.3,0-0.5,0h-6v15.5H369.7z"/>
			<path fill="#707173" d="M381.1,167.7c0-0.4,0-0.8,0.1-1.2c0.5-3.1,2.4-4.7,5.6-4.7h12.1v5.9h-9.6h-0.9h-0.1c-0.2,0-0.3,0-0.4,0.1
				c-0.6,0.2-1,0.8-1,1.6v3h11.9v5.9H387v3c0,1.3,0.4,1.7,1.5,1.9h0.9h9.5v5.9h-11.3c-4.4,0-6.5-2-6.5-5.7V167.7z M390,156l2.2,4.1
				l-4,0l-2.8-4.2L390,156z"/>
			<path fill="#707173" d="M402.2,168c0-4.7,1.6-6.2,6.4-6.2h11.4v5.9h-9.8h-0.5h-0.3c-0.8,0.1-1.2,0.5-1.4,1.2v0.7v11.2
				c0,1.8,0.3,2.3,1.7,2.4c0.2,0,0.3,0,0.5,0h9.7v5.9h-12.3c-0.6,0-1.3-0.1-2-0.4c-2.3-0.9-3.5-2.7-3.5-5.6V168z"/>
			<path fill="#707173" d="M423,161.8h5.9v10.6h8.3v-10.6h5.9v27.3h-5.9v-10.8h-8.3v10.8H423V161.8z"/>
			<path fill="#707173" d="M446.6,167.7c0-0.4,0-0.8,0.1-1.2c0.5-3.1,2.4-4.7,5.6-4.7h12.1v5.9h-9.6h-0.9h-0.1c-0.2,0-0.3,0-0.4,0.1
				c-0.6,0.2-1,0.8-1,1.6v3h11.9v5.9h-11.9v3c0,1.3,0.4,1.7,1.5,1.9h0.9h9.5v5.9h-11.3c-4.4,0-6.5-2-6.5-5.7V167.7z"/>
		</g>
		<g>
			<path fill="#97BF0D" d="M42.5,205.8c0-1.2,0.4-2.2,1-2.8c0.7-0.7,1.6-1.1,2.6-1.1h6.7v2.3h-6.4c-1.1,0-1.7,0.6-1.7,1.7v7.9
				c0,0.1,0,0.2,0,0.3c0.2,0.9,0.8,1.4,1.6,1.4h6.3v2.3H46c-0.6,0-1.3-0.2-2-0.7c-0.8-0.5-1.3-1.3-1.5-2.5c0-0.2,0-0.4,0-0.7V205.8z
				"/>
			<path fill="#97BF0D" d="M58.9,206.4c0-3.1,1.5-4.5,4.8-4.5h1.7c3.4,0,4.8,1.3,4.8,4.5v7c0,3.1-1.5,4.5-4.8,4.5h-1.7
				c-3.4,0-4.8-1.3-4.8-4.5V206.4z M63.1,215.5c0.1,0,0.2,0,0.3,0h2.5c0.1,0,0.2,0,0.3,0c1.4-0.1,1.8-0.5,1.8-2v-7.2
				c0-1.5-0.4-1.9-1.8-2c-0.1,0-0.2,0-0.3,0h-2.5c-0.1,0-0.2,0-0.3,0c-1.4,0.1-1.9,0.6-1.9,2v7.2C61.2,214.9,61.7,215.4,63.1,215.5z
				"/>
			<path fill="#97BF0D" d="M76.7,204.2c0-1.3,0.4-2,1.1-2.3c1.7-0.8,2.9-0.1,3.4,1.7l3.4,11.7l3.5-11.7c0.5-1.8,1.7-2.5,3.4-1.7
				c0.7,0.3,1.1,1,1.1,2.3v13.6h-2.3v-13.6L86.8,216c-0.4,1.4-1,1.9-2.1,1.9s-1.7-0.5-2.1-1.9L79,204.2v13.6h-2.3V204.2z"/>
			<path fill="#97BF0D" d="M99.1,204.2c0-1.3,0.4-2,1.1-2.3c1.7-0.8,2.9-0.1,3.4,1.7l3.4,11.7l3.5-11.7c0.5-1.8,1.7-2.5,3.4-1.7
				c0.7,0.3,1.1,1,1.1,2.3v13.6h-2.3v-13.6l-3.6,11.9c-0.4,1.4-1,1.9-2.1,1.9s-1.7-0.5-2.1-1.9l-3.6-11.9v13.6h-2.3V204.2z"/>
			<path fill="#97BF0D" d="M121.5,201.9h2.3v11.7c0,1.4,0.5,1.9,1.7,1.9h3.2c1.2,0,1.7-0.5,1.7-1.8v-11.8h2.3v12
				c0,1.7-0.8,3-2.3,3.6c-0.5,0.2-0.9,0.3-1.4,0.3h-4c-0.4,0-0.9-0.1-1.4-0.3c-1.5-0.6-2.3-1.9-2.3-3.6V201.9z"/>
			<path fill="#97BF0D" d="M139.4,204.1c0-1.8,1-2.7,2.6-2.3c0.6,0.2,1,0.6,1.4,1.5l4.8,11.7v-13.1h2.3v14c0,1.1-0.8,2-1.8,2.1
				c-1,0.1-1.7-0.4-2.3-1.6l-4.8-11.5v12.9h-2.3V204.1z"/>
			<path fill="#97BF0D" d="M160.8,203.4c0.5-1.4,1.4-2,2.6-1.5c0.5,0.2,0.8,0.5,1.1,1.5l5.3,14.4h-2.5l-1.2-3.3h-6.9l-1.2,3.3h-2.5
				L160.8,203.4z M165.2,212.2l-2.6-7.2l-2.6,7.2H165.2z"/>
			<path fill="#97BF0D" d="M174.7,201.9h2.3v11.7c0,1.4,0.5,1.9,1.7,1.9h3.2c1.2,0,1.7-0.5,1.7-1.8v-11.8h2.3v12
				c0,1.7-0.8,3-2.3,3.6c-0.5,0.2-0.9,0.3-1.4,0.3h-4c-0.4,0-0.9-0.1-1.4-0.3c-1.5-0.6-2.3-1.9-2.3-3.6V201.9z"/>
			<path fill="#97BF0D" d="M191.2,201.9h9.2v2.3H197v13.6h-2.3v-13.6h-3.4V201.9z"/>
			<path fill="#97BF0D" d="M205.7,205.9c0-2.7,1.4-4,4.6-4h5.8v2.3h-5.8h-1c-0.2,0-0.5,0.1-0.8,0.3c-0.3,0.2-0.5,0.6-0.6,1.1
				c0,0.1,0,0.3,0,0.4v2.7h8.1v2.3H208v2.1v1c0,0.2,0,0.3,0.1,0.5c0.4,0.8,0.8,1,2.4,1h5.5v2.3h-6.2c-2.7,0-4.2-1.5-4.2-4.3V205.9z
				 M210.8,198.4h2.2l-1.7,2.5h-1.3L210.8,198.4z"/>
			<path fill="#97BF0D" d="M232.5,201.9h8.1c1.9,0,3.3,1.4,3.3,3.7v8.2c0,0.2,0,0.4,0,0.6c-0.2,1.5-0.9,2.4-2.1,3
				c-0.6,0.3-1.1,0.4-1.6,0.4h-7.7V201.9z M240,215.5c1,0,1.6-0.6,1.6-1.9V206c0-0.1,0-0.2,0-0.3c-0.1-1.1-0.5-1.5-1.6-1.5h-5.2
				v11.3H240z"/>
			<path fill="#97BF0D" d="M251.1,206.9h-1.3l1-2.2c-0.6-0.1-1.1-0.7-1.1-1.3c0-0.4,0.1-0.8,0.4-1c0.5-0.6,1.5-0.6,2,0
				c0.4,0.5,0.5,1.1,0.1,2L251.1,206.9z"/>
			<path fill="#97BF0D" d="M259.3,203.4c0.5-1.4,1.4-2,2.6-1.5c0.5,0.2,0.8,0.5,1.1,1.5l5.3,14.4h-2.5l-1.2-3.3h-6.9l-1.2,3.3H254
				L259.3,203.4z M263.7,212.2l-2.6-7.2l-2.6,7.2H263.7z"/>
			<path fill="#97BF0D" d="M272.8,206.1c0-2.7,1.4-4.2,4.2-4.2h6.1v2.3h-6.3c-0.1,0-0.2,0-0.3,0c-1.1,0.1-1.5,0.5-1.5,1.7v7.9
				c0,0.1,0,0.2,0,0.3c0.1,0.9,0.5,1.2,1.2,1.3h0.6h3.2c1,0,1.5-0.4,1.7-1.4c0-0.1,0-0.2,0-0.2v-5.1h2.3v4.9c0,1-0.1,1.5-0.4,2
				c-0.8,1.5-1.8,2.1-3.6,2.1H277c-0.9,0-1.5-0.1-2-0.4c-1.6-0.8-2.2-1.9-2.2-3.7V206.1z"/>
			<path fill="#97BF0D" d="M290.7,206.1c0-2.7,1.4-4.2,4.2-4.2h6.1v2.3h-6.3c-0.1,0-0.2,0-0.3,0c-1.1,0.1-1.5,0.5-1.5,1.7v7.9
				c0,0.1,0,0.2,0,0.3c0.1,0.9,0.5,1.2,1.2,1.3h0.6h3.2c1,0,1.5-0.4,1.7-1.4c0-0.1,0-0.2,0-0.2v-5.1h2.3v4.9c0,1-0.1,1.5-0.4,2
				c-0.8,1.5-1.8,2.1-3.6,2.1h-3.2c-0.9,0-1.5-0.1-2-0.4c-1.6-0.8-2.2-1.9-2.2-3.7V206.1z"/>
			<path fill="#97BF0D" d="M308.6,201.9h2.3v11.9c0,1.2,0.5,1.7,1.9,1.7h6v2.3h-6c-0.2,0-0.4,0-0.7,0c-2.4-0.3-3.5-1.6-3.5-4V201.9z
				"/>
			<path fill="#97BF0D" d="M323.2,206.4c0-3.1,1.5-4.5,4.8-4.5h1.7c3.4,0,4.8,1.3,4.8,4.5v7c0,3.1-1.5,4.5-4.8,4.5H328
				c-3.4,0-4.8-1.3-4.8-4.5V206.4z M327.3,215.5c0.1,0,0.2,0,0.3,0h2.5c0.1,0,0.2,0,0.3,0c1.4-0.1,1.8-0.5,1.8-2v-7.2
				c0-1.5-0.4-1.9-1.8-2c-0.1,0-0.2,0-0.3,0h-2.5c-0.1,0-0.2,0-0.3,0c-1.4,0.1-1.9,0.6-1.9,2v7.2
				C325.5,214.9,325.9,215.4,327.3,215.5z"/>
			<path fill="#97BF0D" d="M341,204.2c0-1.3,0.4-2,1.1-2.3c1.7-0.8,2.9-0.1,3.4,1.7l3.4,11.7l3.5-11.7c0.5-1.8,1.7-2.5,3.4-1.7
				c0.7,0.3,1.1,1,1.1,2.3v13.6h-2.3v-13.6l-3.6,11.9c-0.4,1.4-1,1.9-2.1,1.9s-1.7-0.5-2.1-1.9l-3.6-11.9v13.6H341V204.2z"/>
			<path fill="#97BF0D" d="M363.4,205.9c0-2.7,1.4-4,4.6-4h5.8v2.3h-5.8h-1c-0.2,0-0.5,0.1-0.8,0.3c-0.3,0.2-0.5,0.6-0.6,1.1
				c0,0.1,0,0.3,0,0.4v2.7h8.1v2.3h-8.1v2.1v1c0,0.2,0,0.3,0.1,0.5c0.4,0.8,0.8,1,2.4,1h5.5v2.3h-6.2c-2.7,0-4.2-1.5-4.2-4.3V205.9z
				 M368.5,198.4h2.2l-1.7,2.5h-1.3L368.5,198.4z"/>
			<path fill="#97BF0D" d="M380.1,201.9h8c0.8,0,1.5,0.2,2,0.6c1,0.8,1.3,1.5,1.3,2.7v2.7c0,0.6-0.2,1.1-0.5,1.6
				c-0.6,0.9-1.6,1.5-2.5,1.5h-2.7l5.9,6.8h-3l-5.9-6.8c-0.2-0.2-0.3-0.6-0.1-1.2c0.1-0.5,0.6-1,1.3-1.1c0.1,0,0.3,0,0.4,0h3.5
				c0.1,0,0.2,0,0.2,0c0.9-0.2,1.3-0.6,1.3-1.3v-1.8c0-0.1,0-0.2,0-0.3c-0.1-0.7-0.5-1.1-1.1-1.2c-0.1,0-0.2,0-0.2,0h-5.4v13.6h-2.3
				V201.9z"/>
			<path fill="#97BF0D" d="M401.2,203.4c0.5-1.4,1.4-2,2.6-1.5c0.5,0.2,0.8,0.5,1.1,1.5l5.3,14.4h-2.5l-1.2-3.3h-6.9l-1.2,3.3H396
				L401.2,203.4z M405.7,212.2l-2.6-7.2l-2.6,7.2H405.7z"/>
			<path fill="#97BF0D" d="M411.7,201.9h9.2v2.3h-3.4v13.6h-2.3v-13.6h-3.4V201.9z"/>
			<path fill="#97BF0D" d="M426.2,201.9h2.3v15.9h-2.3V201.9z"/>
			<path fill="#97BF0D" d="M435,206.4c0-3.1,1.5-4.5,4.8-4.5h1.7c3.4,0,4.8,1.3,4.8,4.5v7c0,3.1-1.5,4.5-4.8,4.5h-1.7
				c-3.4,0-4.8-1.3-4.8-4.5V206.4z M439.1,215.5c0.1,0,0.2,0,0.3,0h2.5c0.1,0,0.2,0,0.3,0c1.4-0.1,1.8-0.5,1.8-2v-7.2
				c0-1.5-0.4-1.9-1.8-2c-0.1,0-0.2,0-0.3,0h-2.5c-0.1,0-0.2,0-0.3,0c-1.4,0.1-1.9,0.6-1.9,2v7.2
				C437.3,214.9,437.7,215.4,439.1,215.5z"/>
			<path fill="#97BF0D" d="M452.9,204.1c0-1.8,1-2.7,2.6-2.3c0.6,0.2,1,0.6,1.4,1.5l4.8,11.7v-13.1h2.3v14c0,1.1-0.8,2-1.8,2.1
				c-1,0.1-1.7-0.4-2.3-1.6l-4.8-11.5v12.9h-2.3V204.1z"/>
		</g>
		<path fill="#376828" d="M432.1,145.5c0-29.5-23.9-53.4-53.4-53.4c-29.5,0-53.4,23.9-53.4,53.4c0,0.1,0,0.2,0,0.3h-31.9
			c0-47,38.3-85.3,85.3-85.3c47,0,85.3,38.3,85.3,85.3h-31.9C432.1,145.7,432.1,145.6,432.1,145.5z"/>
		<g>
			<path fill="#97BF0D" d="M212.6,145.5c0-31.3,25.4-56.7,56.7-56.7c10.7,0,20.8,3,29.3,8.2c-5.9,9.6-10.1,20.4-12.2,31.8
				c-4.3-4.4-10.4-7.2-17.1-7.2c-13.2,0-23.9,10.7-23.9,23.9c0,0,0,0,0,0H212.6z"/>
		</g>
	</g>
</g>
</svg>
