<?xml version="1.0" encoding="UTF-8" standalone="no"?>
<!-- Created with Inkscape (http://www.inkscape.org/) -->

<svg
   xmlns:dc="http://purl.org/dc/elements/1.1/"
   xmlns:cc="http://creativecommons.org/ns#"
   xmlns:rdf="http://www.w3.org/1999/02/22-rdf-syntax-ns#"
   xmlns:svg="http://www.w3.org/2000/svg"
   xmlns="http://www.w3.org/2000/svg"
   xmlns:sodipodi="http://sodipodi.sourceforge.net/DTD/sodipodi-0.dtd"
   xmlns:inkscape="http://www.inkscape.org/namespaces/inkscape"
   width="210mm"
   height="297mm"
   id="svg4095"
   version="1.1"
   inkscape:version="0.48.4 r9939"
   sodipodi:docname="ardechesiteproximitecanton2.0.svg">
  <defs
     id="defs4097" />
  <sodipodi:namedview
     id="base"
     pagecolor="#ffffff"
     bordercolor="#666666"
     borderopacity="1.0"
     inkscape:pageopacity="0.0"
     inkscape:pageshadow="2"
     inkscape:zoom="0.7"
     inkscape:cx="176.12541"
     inkscape:cy="415.51845"
     inkscape:document-units="px"
     inkscape:current-layer="layer1"
     showgrid="false"
     inkscape:window-width="1600"
     inkscape:window-height="876"
     inkscape:window-x="0"
     inkscape:window-y="24"
     inkscape:window-maximized="1" />
  <metadata
     id="metadata4100">
    <rdf:RDF>
      <cc:Work
         rdf:about="">
        <dc:format>image/svg+xml</dc:format>
        <dc:type
           rdf:resource="http://purl.org/dc/dcmitype/StillImage" />
        <dc:title></dc:title>
      </cc:Work>
    </rdf:RDF>
  </metadata>
  <g
     inkscape:label="Calque 1"
     inkscape:groupmode="layer"
     id="layer1">
    <path
       inkscape:connector-curvature="0"
       id="path3863"
       d="m 572.86205,86.841303 6.10046,11.18415 -3.30442,7.879737 -1.01674,10.16742 8.64229,13.72601 18.30135,13.98019 0.50837,26.18108 -5.59208,15.50532 1.52511,12.2009 3.5586,15.75947 -1.01674,11.43834 3.05021,9.91324 0,12.20089 8.64232,5.84626 -1.01674,7.62555 -11.69253,17.03043 2.03348,6.60881 11.69253,18.04717 2.54184,7.87974 -2.28766,7.62556 2.54184,5.59207 13.21764,5.3379 4.32116,6.35463 -2.28767,6.10045 -7.11718,8.38811 -2.28768,5.84627 0.50837,4.57533 3.55861,4.82953 -4.06698,6.10043 -0.76255,3.81279 8.89648,8.6423 3.5586,20.33484 12.2009,15.75948 5.33788,11.69252 -8.38812,8.6423 -2.28766,11.18416 -7.37137,5.08371 -1.27093,10.92996 3.81278,11.69252 -7.37138,12.45508 0.25419,10.16742 -15.75948,8.89649 -3.30442,9.40486 0.50837,6.863 -8.64229,5.33789 1.52511,6.60881 -7.37138,9.40486 -8.38811,5.59208 -4.57534,5.84627 -4.82952,2.54184 0.76255,5.84627 -1.01674,5.59207 2.28767,4.82953 -4.32115,4.57534 c 0,0 2.54185,21.35157 3.55861,21.60575 1.01672,0.25419 5.59206,8.38811 5.59206,8.38811 l 3.81278,19.0639 -1.52511,17.53879 0.76256,7.11718 -10.92997,25.67272 -9.15068,11.94672 -2.03348,13.47182 -15.25112,6.10045 -11.94671,23.13086 3.81279,20.84319 -5.84627,26.43527 6.10046,8.89649 -2.0335,27.19783 -9.15066,15.5053 -8.64231,2.03349 -1.27092,27.45201 -8.38812,27.7062 1.52511,27.45202 -2.03348,8.38812 3.81279,11.69253 -2.28768,32.02731 -2.54185,-0.7625 -2.79604,-10.93 -4.82952,-4.067 -11.18415,6.1005 -2.54185,-2.0335 c 0,0 1.52511,-6.863 1.52511,-7.8797 0,-1.0168 -3.05024,-3.8128 -3.05024,-3.8128 l -6.86299,0.7625 -3.05023,-1.5251 -3.81278,0.2542 c 0,0 -2.79604,-4.8295 -4.32114,-4.8295 -1.52512,0 -8.38813,2.5418 -8.38813,2.5418 l -4.82951,-4.57529 -4.82952,-12.96345 2.03348,-4.57534 -2.28767,0.50837 -4.82952,4.06697 -4.06697,-3.05023 -3.55859,-6.863 -6.863,1.52511 -2.54186,-12.70927 -1.52511,1.27093 -1.01674,3.81277 -10.67579,1.77931 -5.0837,-4.82953 -7.87975,-2.03348 -5.08369,6.60883 -1.01675,32.0273 1.27093,2.7961 -6.86301,8.3881 -3.81279,-2.0335 -1.52509,-4.3211 -5.59209,1.5251 -11.94671,-1.0168 -3.30442,-3.3044 -0.50837,-2.796 -3.05021,-2.54186 5.84626,-22.36832 -2.79605,-2.54185 -0.25418,-10.67578 -1.7793,0.25418 -12.96344,5.84627 -22.6225,-2.03349 -0.25418,5.59208 -6.10045,10.4216 -8.13393,5.33789 -4.57533,-0.50838 -3.30442,-1.01673 -3.3044,1.52511 3.3044,15.50528 -5.33789,8.134 -5.08371,5.8462 1.01675,4.8296 -8.38812,5.0837 -22.62249,-18.0472 -2.54186,-0.7626 -18.30134,-10.42156 -3.3044,-12.45508 -4.06698,-0.25419 -8.38811,5.59207 -7.87975,-0.50837 0.25419,-11.69252 -3.81278,-1.52512 c 0,0 -4.57533,-6.35462 -6.60882,-6.35462 -2.03348,0 -4.57533,5.0837 -4.57533,5.0837 l -1.77931,3.05022 c 0,0 -6.35464,-4.82952 -7.37138,-5.59207 -1.01674,-0.76256 -4.06695,0.76255 -4.06695,0.76255 l -10.16742,1.01674 -4.82952,4.82952 -8.89648,4.06697 -4.32116,-4.57534 -4.57533,-3.55859 8.6423,-4.32115 1.27093,-4.06697 0.25418,-2.79604 -1.01674,-2.28766 1.52511,-2.79604 0.50837,-7.11719 2.28767,-5.08371 -3.05022,-3.3044 -1.01674,-7.37137 -6.86301,-10.67579 3.55859,-3.05022 6.35463,2.79604 4.57534,0.25418 0.25419,-6.60882 1.77929,-1.7793 -9.91322,-10.16741 -5.84627,-2.54185 -4.06696,0 5.33789,-10.42161 -3.05022,-8.3881 -7.11719,-0.76256 -1.27093,-4.57534 -3.5586,-1.52511 -10.4216,-8.38812 c 0,0 -0.25418,-5.33788 -0.76255,-6.60882 -0.50837,-1.27092 -2.79603,-4.06696 -2.79603,-5.0837 0,-1.01675 0.76256,-4.57534 0.76256,-4.57534 0,0 -4.06697,-2.79604 -3.81279,-4.06696 0.25419,-1.27093 0.25419,-8.38811 0.25419,-8.38811 0,0 0.25418,-3.55861 0.25418,-4.57535 0,-1.01674 -5.3379,-13.726 -5.3379,-13.726 l -4.8295,-4.57535 -4.82953,-13.47181 -1.52511,-12.20089 -6.60882,-11.94671 -9.40486,-1.52512 -2.033475,3.55859 -6.60882,-7.11718 2.79604,-3.81279 -3.30441,-6.35462 -6.60881,-0.25419 1.77929,-12.45508 -2.03348,-4.57533 -4.57534,-0.2542 -3.3044,-13.98019 7.37137,-12.70926 -4.82953,-9.91323 -4.32114,-2.03347 -6.35464,-14.23439 6.86301,-14.74275 -8.38813,0.76256 -1.52509,-8.13392 c 0,0 -3.81279,-3.81279 -3.81279,-4.82953 0,-1.01674 2.28767,-10.16741 2.28767,-10.16741 l 6.35463,-9.40486 c 0,0 -0.76255,-1.52511 -1.27093,-2.54185 -0.50837,-1.01674 -7.37137,-7.11719 -7.37137,-7.11719 l 6.863,-6.863 14.48857,0.76255 1.01674,-6.35464 12.96345,-6.10044 -5.59208,-5.59208 4.82953,-1.5251 1.77929,-8.38813 8.388105,-7.11719 2.54186,-13.726 3.05023,-6.863 7.11718,-2.54185 2.03349,5.33787 9.91322,7.11721 4.06697,-1.77931 c 0,0 -4.06697,-5.59208 -3.81278,-6.60882 0.25418,-1.01673 0,-7.37137 0,-7.37137 l 6.86299,1.7793 c 0,0 0,4.32115 1.01674,4.82951 1.01674,0.50837 4.57535,-1.77928 4.57535,-1.77928 l 4.32114,-6.35464 1.01674,5.08371 4.06697,-3.30442 -3.81278,-7.62555 4.06696,-1.7793 5.3379,-16.01368 3.30441,-6.35463 10.92997,-0.50837 12.45507,3.81278 c 0,0 7.62557,-1.27092 9.40487,-1.27092 1.77929,0 9.40485,-6.35464 9.40485,-6.35464 l 17.28461,3.05023 8.38812,-0.76256 9.15067,-8.38811 2.03349,-18.30135 6.60881,-2.54186 7.62556,-14.74274 6.35463,-1.52511 -0.50837,-4.06697 5.08371,-7.87974 -2.79603,-7.87975 c 0,0 6.10043,-9.40486 7.11718,-9.40486 1.01674,0 8.13394,0 8.13394,0 l 5.59207,5.59208 12.2009,-5.08371 15.25111,-3.05022 5.08371,-5.84626 -2.79604,-5.59208 -8.89649,-7.37137 0.50837,-11.18416 2.54185,-1.77929 0.50838,-7.37137 0.25419,-5.08372 4.82952,0.76256 0.25418,-3.81278 c 0,0 1.52511,-2.54186 2.54185,-2.54186 1.01674,0 3.05022,3.05023 4.06696,2.79605 1.01675,-0.25419 6.863,-1.01675 6.863,-1.01675 l 5.59209,3.30441 5.08371,-3.05023 3.81277,0.2542 6.35464,-7.1172 10.67578,-0.25418 0.76257,-5.33789 -3.81279,-7.37138 -4.57535,1.27094 -5.0837,1.52511 -4.06696,-6.35464 -3.30441,-1.01674 -3.81277,-4.57533 2.79603,-6.35464 -1.01674,-1.27093 4.32115,0.25419 2.03348,-5.33789 c 0,0 -1.01674,-1.7793 -0.25418,-3.05022 0.76255,-1.27094 6.86301,-2.54186 6.86301,-2.54186 l -4.06698,-8.13393 3.05023,-0.76255 6.35463,-4.32116 6.60883,4.32116 1.01674,-3.30442 6.10044,-1.01674 -0.76256,-6.60881 -5.0837,-1.7793 c 0,0 0,-2.03348 -1.01674,-2.28768 -1.01674,-0.25418 -3.05023,0 -3.05023,0 l -7.1172,-5.33787 2.0335,-5.59209 1.52511,-2.28767 0,-5.59207 5.59208,1.52511 6.35463,4.06696 9.15066,-2.54184 9.91325,7.37136 -1.77931,8.64231 4.06696,6.86301 4.57534,-0.50837 -4.06697,-2.79605 2.03348,-5.08371 10.16742,3.81279 1.01674,-7.87974 -7.87974,-7.62558 1.01674,-12.45507 2.79605,-9.91323 4.57532,-3.81279 4.32116,-6.60881 4.82951,-15.50531 1.27093,-11.43834 5.59208,-7.87974 0.50837,-5.59208 -5.08371,-10.1674 17.28461,6.60882 -1.77931,-10.67579 17.03043,9.15067 3.55859,-2.03348 -1.77931,-6.10044 8.8965,-1.7793 c 0,0 4.06696,-2.28768 5.0837,-2.28768 1.01675,0 12.70926,1.77931 12.70926,1.77931 l 9.65905,-9.40487 -4.06696,-8.89648 -3.81278,0.50837 -0.76256,-3.81278 7.37137,-12.70927 c 0,0 9.40486,0.50837 9.65905,-0.50837 0.25418,-1.01673 2.79603,-6.35463 2.79603,-6.35463 l -7.11718,-8.38811 c 0,0 3.55859,-1.27092 5.59207,-1.27092 2.03348,0 5.33789,0 5.33789,0 l 6.86301,-8.89648 -2.28767,-5.84628 8.89648,-7.37137 14.74276,-8.89649 c 0,0 6.10044,0.50837 7.11719,0.76255 1.01674,0.25419 15.25111,-7.117177 15.25111,-7.117177 l 10.92998,-8.64229 z"
       style="fill:#d9f8fe;fill-opacity:1;stroke:#000000;stroke-width:4.93588208999999978;stroke-linecap:butt;stroke-linejoin:miter;stroke-miterlimit:4;stroke-opacity:1;stroke-dasharray:none" />
    <path
       style="fill:none;stroke:#000000;stroke-width:1px;stroke-linecap:butt;stroke-linejoin:miter;stroke-opacity:1"
       d="M 92.015495,354.11834 367.42385,377.1892"
       id="path3902"
       inkscape:connector-curvature="0"
       sodipodi:nodetypes="cc" />
    <path
       style="fill:none;stroke:#000000;stroke-width:1px;stroke-linecap:butt;stroke-linejoin:miter;stroke-opacity:1"
       d="M 367.42385,377.1892 323.13604,330.6355"
       id="path3904"
       inkscape:connector-curvature="0"
       sodipodi:nodetypes="cc" />
    <path
       style="fill:none;stroke:#000000;stroke-width:1px;stroke-linecap:butt;stroke-linejoin:miter;stroke-opacity:1"
       d="M 323.13604,330.6355 316.2495,211.40571"
       id="path3906"
       inkscape:connector-curvature="0"
       sodipodi:nodetypes="cc" />
    <path
       style="fill:none;stroke:#000000;stroke-width:1px;stroke-linecap:butt;stroke-linejoin:miter;stroke-opacity:1"
       d="m 367.42385,377.1892 282.27063,66.86993"
       id="path3908"
       inkscape:connector-curvature="0"
       sodipodi:nodetypes="cc" />
    <path
       style="fill:none;stroke:#000000;stroke-width:1px;stroke-linecap:butt;stroke-linejoin:miter;stroke-opacity:1"
       d="m 367.42385,377.1892 -14.41929,53.96932"
       id="path3910"
       inkscape:connector-curvature="0"
       sodipodi:nodetypes="cc" />
    <path
       style="fill:none;stroke:#000000;stroke-width:1px;stroke-linecap:butt;stroke-linejoin:miter;stroke-opacity:1"
       d="m 476.39245,401.08401 -94.34332,54.3813"
       id="path3912"
       inkscape:connector-curvature="0"
       sodipodi:nodetypes="cc" />
    <path
       style="fill:none;stroke:#000000;stroke-width:1px;stroke-linecap:butt;stroke-linejoin:miter;stroke-opacity:1"
       d="M 353.00456,431.15852 482.77813,535.38935"
       id="path3914"
       inkscape:connector-curvature="0"
       sodipodi:nodetypes="cc" />
    <path
       style="fill:none;stroke:#000000;stroke-width:1px;stroke-linecap:butt;stroke-linejoin:miter;stroke-opacity:1"
       d="m 574.2376,553.51645 -91.45947,-18.1271"
       id="path3916"
       inkscape:connector-curvature="0"
       sodipodi:nodetypes="cc" />
    <path
       style="fill:none;stroke:#000000;stroke-width:1px;stroke-linecap:butt;stroke-linejoin:miter;stroke-opacity:1"
       d="m 566.71897,580.7586 37.38714,3.65632"
       id="path3920"
       inkscape:connector-curvature="0"
       sodipodi:nodetypes="cc" />
    <path
       style="fill:none;stroke:#000000;stroke-width:1px;stroke-linecap:butt;stroke-linejoin:miter;stroke-opacity:1"
       d="m 482.77813,535.38935 3.60179,65.96317"
       id="path3922"
       inkscape:connector-curvature="0"
       sodipodi:nodetypes="cc" />
    <path
       style="fill:none;stroke:#000000;stroke-width:1px;stroke-linecap:butt;stroke-linejoin:miter;stroke-opacity:1"
       d="M 382.04913,455.46531 365.15796,682.05408"
       id="path3924"
       inkscape:connector-curvature="0"
       sodipodi:nodetypes="cc" />
    <path
       style="fill:none;stroke:#000000;stroke-width:1px;stroke-linecap:butt;stroke-linejoin:miter;stroke-opacity:1"
       d="m 566.71897,580.7586 7.51863,-27.24215"
       id="path4001"
       inkscape:connector-curvature="0"
       sodipodi:nodetypes="cc" />
    <path
       style="fill:none;stroke:#ff0000;stroke-width:1.158;stroke-linecap:butt;stroke-linejoin:miter;stroke-miterlimit:4;stroke-opacity:1;stroke-dasharray:none;display:inline"
       d="m 355.2099,269.8655 c 1.54231,-0.25713 6.68399,0.25709 6.68399,0.25709 l 4.62742,2.82793 4.62743,-1.02838 5.65596,0.25714 3.34226,2.82792 3.08461,-0.51417 0.51427,3.3421 3.59939,2.57082 -1.79943,4.88461 -0.77141,4.11334 6.68399,7.19831 2.57085,-2.31371 -3.34175,-3.59917 0.25716,-2.5708 1.02802,-1.79966 9.76911,4.11336 4.3708,10.54049 7.96917,3.34203 1.79996,-11.56874 1.5423,1.02827 0.25713,-2.3137 2.05657,5.14163 3.5994,-3.8562 7.96967,2.3137 -0.51427,2.31377 5.14169,1.54256 -0.51427,5.14168 13.92234,-1.83872 3.95855,4.22729 -8.74264,17.55354 -0.0823,7.06126 -9.4771,-1.18715 -1.73595,7.55529 25.29415,-0.0824 6.64235,7.24991 7.61001,-6.2394 8.52298,10.17574 11.1235,-6.92093 5.99067,10.26391 -0.43568,6.41858 8.78897,10.50038 7.82549,-7.18749 7.3435,7.9862 1.52772,10.85527 20.49234,9.28764 8.53081,15.36594 -13.74797,9.39856 -4.30054,14.13477 -10.29901,-1.08142 -5.5784,-10.40515 -16.94292,14.09734 -17.9064,-3.2446 -26.96657,9.09988 -2.76135,15.2721 -9.52967,2.9183 -4.76431,8.32133 7.91085,15.74062 3.52653,-11.42964 24.49408,10.36852 -1.81089,9.34708 17.06057,20.49816 13.19985,-4.37731 6.17129,3.81578 11.23437,-4.52545 3.47291,23.04164 -12.84539,3.80082 7.73025,27.20477 -43.74137,20.89345 -14.15084,9.58897 -14.36636,-18.36539 5.3624,-15.79211 -3.03513,-1.45604 c 0,0 -18.32178,11.54153 -19.18482,11.88664 l -0.36332,2.36325 -3.99966,-0.36352 -1.09049,1.45418 -4.54466,-0.72711 -1.45433,-0.9089 0.18167,-2.3632 -1.99932,-0.36369 -1.27268,-0.72702 -1.09049,1.27248 -0.1822,0.90886 -0.90881,1.27257 -1.99932,-1.09075 -8.72599,3.27219 -3.8175,-1.63609 0.36385,-1.81792 -1.09101,-0.36353 -1.81766,-2.72679 -2.90866,0.36354 0,-5.63524 -3.27198,-0.36365 -1.63651,1.99964 -1.63599,-0.72718 -2.54482,-0.5453 -1.09102,1.0907 -1.09049,-0.90887 -0.90884,-0.36365 -1.27266,0.90893 -1.636,-0.72711 -1.09049,0.18183 -1.45434,0.72715 -1.45432,-0.72715 -3.99917,0.1817 -3.99965,-0.54535 2.18149,-2.54498 1.99984,-0.72715 0.36332,-3.45387 3.81748,0 0.36385,-2.54508 1.09048,-1.0907 0.54551,-1.63609 1.09049,-0.90892 1.09102,-0.54535 0.5455,-2.54498 -1.81817,-1.63611 0.18165,-1.45433 0.36386,-2.90845 -1.27269,-1.09079 0.5455,-1.09065 1.27269,-1.45428 -2.36369,-0.36365 0,-0.90882 0.36384,-1.4544 -1.27267,-0.1817 -1.27266,-0.54546 0.18218,-1.63605 -1.27267,-0.7271 -3.09033,-0.1818 -0.90883,1.09073 -1.27266,-1.6361 -2.36316,-0.18178 -0.5455,-1.45432 -1.45381,-0.90898 0.72665,-3.63556 -1.09049,-1.09081 -2.1815,-0.72716 -2.54483,1.45433 -5.45348,-4.36294 -3.63585,0 -0.5455,2.36332 1.63599,1.8178 -0.18166,3.2722 -4.54466,3.09044 -3.81748,-0.3637 -1.99985,-1.81792 0,-2.36311 -5.99898,-1.0908 -4.90799,-3.45391 -1.63598,0.909 -2.18151,3.4539 -0.54548,2.36321 -4.72634,3.27216 -4.36299,3.81753 -3.27199,1.09069 -2.90866,-1.45433 0.36384,3.45395 -1.45433,1.81793 -1.09102,1.81775 -2.1815,-2.18139 -7.9983,0.90894 -3.81749,-2.54509 -3.27198,0.90899 -2.727,-1.8178 -3.09034,-0.18184 -3.27199,0.36365 -1.81816,-1.45434 -0.90883,-2.36321 -3.272,0.36352 -2.727,-2.18133 -0.90881,-3.27225 -0.36385,-4.54471 -1.27216,-1.63593 0,-4.72643 -5.09015,0.18175 -2.727,-2.1815 -2.54483,-0.72705 -1.99932,0 -0.54551,-2.54508 0,-2.18138 -2.54533,-1.27242 -0.18166,-2.54509 -1.81765,-0.5453 -0.90885,-5.99904 -1.27266,-2.72669 -3.27199,-1.63614 1.27216,-2.54498 0,-3.63574 -7.81665,-7.08963 1.99984,-3.27223 0.90883,-5.63526 0,-7.27146 5.99898,-4.18107 7.63498,-13.63398 6.54399,-3.09033 -0.54498,-4.90829 5.45348,-7.4532 -2.18148,-6.90783 5.27181,-8.90745 6.90781,0.18177 5.63514,5.27176 12.18015,-5.27176 15.99715,-1.09074 6.18065,-7.63499 -1.99985,-3.27209 0,-3.99941 -4.72631,-2.36322 -5.09014,-4.54461 0.9088,-9.99826 2.36317,-2.72673 -0.18166,-5.81717 2.54534,-0.18171 -1.63652,-5.99905 4.18134,2.18149 0,-2.90859 -0.72716,-2.54503 1.81765,-1.99963 3.2725,1.99963 7.08949,0 7.63498,3.454 3.63582,-2.54508 4.18083,-0.18171 3.99914,-5.27182 6.36283,-1.45429 4.54467,1.09076 3.45364,-1.63612 0.36385,-7.08963 -3.63584,-7.63501 -3.63583,0 -5.99899,2.72672 -4.36247,-5.99888 -3.45416,-0.90893 -1.45433,-2.18151 -2.1815,-0.7271 2.90865,-5.99888 -1.09049,-2.7268 3.63584,0 2.36315,-2.72684 -0.18217,-6.18072 6.54448,-0.54536 0.18167,-1.63608 -4.90798,-5.99895 0.36333,-1.63603 4.54465,0 0.5455,-2.90862 4.54467,-1.63603 6.36232,3.63568 1.45432,-0.36355 -0.18165,-2.90856 4.72632,0.54536 1.63598,-2.36322 0.18217,-6.36246 -3.09031,0.18175 -2.36315,-1.2725 0,-2.54504 -4.72685,0 -3.63583,-3.27213 -4.36247,-2.18142 1.9993,-5.27182 1.99985,-0.90887 z"
       id="path3006-2-7"
       inkscape:connector-curvature="0"
       sodipodi:nodetypes="ccccccccccccccccccccccccccccccccccccccccccccccccccccccccccccccccccccccccccccccccccccccccccccccccccccccccccccccccccccccccccccccccccccccccccccccccccccccccccccccccccccccccccccccccccccccccccccccccccccccccccccccccccccccccccccccccccccccccccccccccccccccccccccccccccccccc" />
    <path
       sodipodi:type="arc"
       style="fill:#2b0000;fill-opacity:1;fill-rule:evenodd;stroke:none"
       id="path3927"
       sodipodi:cx="-851.56177"
       sodipodi:cy="322.51569"
       sodipodi:rx="7.0036526"
       sodipodi:ry="7.0036526"
       d="m -844.55812,322.51569 a 7.0036526,7.0036526 0 1 1 -14.0073,0 7.0036526,7.0036526 0 1 1 14.0073,0 z"
       transform="translate(936.98561,30.366733)" />
    <path
       transform="translate(1216.921,54.896373)"
       d="m -844.55812,322.51569 a 7.0036526,7.0036526 0 1 1 -14.0073,0 7.0036526,7.0036526 0 1 1 14.0073,0 z"
       sodipodi:ry="7.0036526"
       sodipodi:rx="7.0036526"
       sodipodi:cy="322.51569"
       sodipodi:cx="-851.56177"
       id="path3929"
       style="fill:#2b0000;fill-opacity:1;fill-rule:evenodd;stroke:none"
       sodipodi:type="arc" />
    <path
       sodipodi:type="arc"
       style="fill:#2b0000;fill-opacity:1;fill-rule:evenodd;stroke:none"
       id="path3931"
       sodipodi:cx="-851.56177"
       sodipodi:cy="322.51569"
       sodipodi:rx="7.0036526"
       sodipodi:ry="7.0036526"
       d="m -844.55812,322.51569 a 7.0036526,7.0036526 0 1 1 -14.0073,0 7.0036526,7.0036526 0 1 1 14.0073,0 z"
       transform="translate(1325.8943,78.980323)" />
    <path
       transform="translate(1234.4348,131.7137)"
       d="m -844.55812,322.51569 a 7.0036526,7.0036526 0 1 1 -14.0073,0 7.0036526,7.0036526 0 1 1 14.0073,0 z"
       sodipodi:ry="7.0036526"
       sodipodi:rx="7.0036526"
       sodipodi:cy="322.51569"
       sodipodi:cx="-851.56177"
       id="path3933"
       style="fill:#2b0000;fill-opacity:1;fill-rule:evenodd;stroke:none"
       sodipodi:type="arc" />
    <path
       sodipodi:type="arc"
       style="fill:#2b0000;fill-opacity:1;fill-rule:evenodd;stroke:none"
       id="path3935"
       sodipodi:cx="-851.56177"
       sodipodi:cy="322.51569"
       sodipodi:rx="7.0036526"
       sodipodi:ry="7.0036526"
       d="m -844.55812,322.51569 a 7.0036526,7.0036526 0 1 1 -14.0073,0 7.0036526,7.0036526 0 1 1 14.0073,0 z"
       transform="translate(1203.1244,108.64285)" />
    <path
       transform="translate(1337.4297,279.20239)"
       d="m -844.55812,322.51569 a 7.0036526,7.0036526 0 1 1 -14.0073,0 7.0036526,7.0036526 0 1 1 14.0073,0 z"
       sodipodi:ry="7.0036526"
       sodipodi:rx="7.0036526"
       sodipodi:cy="322.51569"
       sodipodi:cx="-851.56177"
       id="path3937"
       style="fill:#2b0000;fill-opacity:1;fill-rule:evenodd;stroke:none"
       sodipodi:type="arc" />
    <path
       sodipodi:type="arc"
       style="fill:#2b0000;fill-opacity:1;fill-rule:evenodd;stroke:none"
       id="path3939"
       sodipodi:cx="-851.56177"
       sodipodi:cy="322.51569"
       sodipodi:rx="7.0036526"
       sodipodi:ry="7.0036526"
       d="m -844.55812,322.51569 a 7.0036526,7.0036526 0 1 1 -14.0073,0 7.0036526,7.0036526 0 1 1 14.0073,0 z"
       transform="translate(1503.0455,121.82619)" />
    <path
       transform="translate(1376.9798,-134.4251)"
       d="m -844.55812,322.51569 a 7.0036526,7.0036526 0 1 1 -14.0073,0 7.0036526,7.0036526 0 1 1 14.0073,0 z"
       sodipodi:ry="7.0036526"
       sodipodi:rx="7.0036526"
       sodipodi:cy="322.51569"
       sodipodi:cx="-851.56177"
       id="path3941"
       style="fill:#2b0000;fill-opacity:1;fill-rule:evenodd;stroke:none"
       sodipodi:type="arc" />
    <path
       sodipodi:type="arc"
       style="fill:#2b0000;fill-opacity:1;fill-rule:evenodd;stroke:none"
       id="path3943"
       sodipodi:cx="-851.56177"
       sodipodi:cy="322.51569"
       sodipodi:rx="7.0036526"
       sodipodi:ry="7.0036526"
       d="m -844.55812,322.51569 a 7.0036526,7.0036526 0 1 1 -14.0073,0 7.0036526,7.0036526 0 1 1 14.0073,0 z"
       transform="translate(1217.9556,371.48582)" />
    <text
       xml:space="preserve"
       style="font-size:16px;font-style:normal;font-variant:normal;font-weight:normal;font-stretch:normal;line-height:125%;letter-spacing:0px;word-spacing:0px;fill:#000000;fill-opacity:1;stroke:none;font-family:Raleway;-inkscape-font-specification:Raleway"
       x="127.46542"
       y="323.73892"
       id="text3945"
       sodipodi:linespacing="125%"><tspan
         sodipodi:role="line"
         id="tspan3947"
         x="127.46542"
         y="323.73892"
         style="text-align:center;text-anchor:middle">Le Puy</tspan><tspan
         sodipodi:role="line"
         x="127.46542"
         y="343.73892"
         id="tspan4029"
         style="text-align:center;text-anchor:middle">en-Velay</tspan></text>
    <text
       xml:space="preserve"
       style="font-size:16px;font-style:normal;font-variant:normal;font-weight:normal;font-stretch:normal;line-height:125%;letter-spacing:0px;word-spacing:0px;fill:#000000;fill-opacity:1;stroke:none;font-family:Raleway;-inkscape-font-specification:Raleway"
       x="528.30188"
       y="177.79111"
       id="text3953"
       sodipodi:linespacing="125%"><tspan
         sodipodi:role="line"
         id="tspan3955"
         x="528.30188"
         y="177.79111">Annonay</tspan></text>
    <text
       xml:space="preserve"
       style="font-size:16px;font-style:normal;font-variant:normal;font-weight:normal;font-stretch:normal;line-height:125%;letter-spacing:0px;word-spacing:0px;fill:#000000;fill-opacity:1;stroke:none;font-family:Raleway;-inkscape-font-specification:Raleway"
       x="311.57401"
       y="178.80077"
       id="text3957"
       sodipodi:linespacing="125%"><tspan
         sodipodi:role="line"
         id="tspan3959"
         x="311.57401"
         y="178.80077"
         style="text-align:center;text-anchor:middle">Vers</tspan><tspan
         sodipodi:role="line"
         x="311.57401"
         y="198.80077"
         id="tspan3961"
         style="text-align:center;text-anchor:middle">St Etienne</tspan></text>
    <text
       xml:space="preserve"
       style="font-size:16px;font-style:normal;font-variant:normal;font-weight:normal;font-stretch:normal;line-height:125%;letter-spacing:0px;word-spacing:0px;fill:#000000;fill-opacity:1;stroke:none;font-family:Raleway;-inkscape-font-specification:Raleway"
       x="376.69342"
       y="688.64575"
       id="text3963"
       sodipodi:linespacing="125%"><tspan
         sodipodi:role="line"
         id="tspan3965"
         x="376.69342"
         y="688.64575">Aubenas</tspan></text>
    <text
       xml:space="preserve"
       style="font-size:16px;font-style:normal;font-variant:normal;font-weight:normal;font-stretch:normal;line-height:125%;letter-spacing:0px;word-spacing:0px;fill:#000000;fill-opacity:1;stroke:none;font-family:Raleway;-inkscape-font-specification:Raleway"
       x="658.48743"
       y="437.33823"
       id="text3967"
       sodipodi:linespacing="125%"><tspan
         sodipodi:role="line"
         id="tspan3969"
         x="658.48743"
         y="437.33823">Valence</tspan></text>
    <text
       xml:space="preserve"
       style="font-size:16px;font-style:normal;font-variant:normal;font-weight:normal;font-stretch:normal;line-height:125%;letter-spacing:0px;word-spacing:0px;fill:#000000;fill-opacity:1;stroke:none;font-family:Raleway;-inkscape-font-specification:Raleway"
       x="623.8288"
       y="576.38733"
       id="text3971"
       sodipodi:linespacing="125%"><tspan
         sodipodi:role="line"
         id="tspan3973"
         x="623.8288"
         y="576.38733"
         style="text-align:center;text-anchor:middle">Vers</tspan><tspan
         sodipodi:role="line"
         x="623.8288"
         y="596.38733"
         id="tspan3975"
         style="text-align:center;text-anchor:middle">A7</tspan></text>
    <text
       xml:space="preserve"
       style="font-size:16px;font-style:normal;font-variant:normal;font-weight:normal;font-stretch:normal;line-height:125%;letter-spacing:0px;word-spacing:0px;fill:#000000;fill-opacity:1;stroke:none;font-family:Raleway;-inkscape-font-specification:Raleway"
       x="494.51959"
       y="595.53833"
       id="text3977"
       sodipodi:linespacing="125%"><tspan
         sodipodi:role="line"
         id="tspan3979"
         x="494.51959"
         y="595.53833">Privas</tspan></text>
    <text
       xml:space="preserve"
       style="font-size:16px;font-style:normal;font-variant:normal;font-weight:normal;font-stretch:normal;line-height:125%;letter-spacing:0px;word-spacing:0px;fill:#000000;fill-opacity:1;stroke:none;font-family:Raleway;-inkscape-font-specification:Raleway"
       x="378.68256"
       y="370.25626"
       id="text3981"
       sodipodi:linespacing="125%"><tspan
         sodipodi:role="line"
         id="tspan3983"
         x="378.68256"
         y="370.25626">St Agreve</tspan></text>
    <text
       xml:space="preserve"
       style="font-size:16px;font-style:normal;font-variant:normal;font-weight:normal;font-stretch:normal;line-height:125%;letter-spacing:0px;word-spacing:0px;fill:#000000;fill-opacity:1;stroke:none;font-family:Raleway;-inkscape-font-specification:Raleway"
       x="488.26923"
       y="393.46848"
       id="text3985"
       sodipodi:linespacing="125%"><tspan
         sodipodi:role="line"
         id="tspan3987"
         x="488.26923"
         y="393.46848">Lamastre</tspan></text>
    <text
       xml:space="preserve"
       style="font-size:16px;font-style:normal;font-variant:normal;font-weight:normal;font-stretch:normal;line-height:125%;letter-spacing:0px;word-spacing:0px;fill:#000000;fill-opacity:1;stroke:none;font-family:Raleway;-inkscape-font-specification:Raleway"
       x="396.54404"
       y="461.77789"
       id="text3989"
       sodipodi:linespacing="125%"><tspan
         sodipodi:role="line"
         id="tspan3991"
         x="396.54404"
         y="461.77789">Le Cheylard</tspan></text>
    <text
       xml:space="preserve"
       style="font-size:16px;font-style:normal;font-variant:normal;font-weight:normal;font-stretch:normal;text-align:center;line-height:125%;letter-spacing:0px;word-spacing:0px;text-anchor:middle;fill:#000000;fill-opacity:1;stroke:none;font-family:Raleway;-inkscape-font-specification:Raleway"
       x="303.39975"
       y="428.61597"
       id="text3993"
       sodipodi:linespacing="125%"><tspan
         sodipodi:role="line"
         id="tspan3995"
         x="303.39975"
         y="428.61597">St Martin</tspan><tspan
         sodipodi:role="line"
         x="303.39975"
         y="448.61597"
         id="tspan3997">de valamas</tspan></text>
    <path
       sodipodi:type="arc"
       style="fill:#2b0000;fill-opacity:1;fill-rule:evenodd;stroke:none"
       id="path3031"
       sodipodi:cx="-851.56177"
       sodipodi:cy="322.51569"
       sodipodi:rx="7.0036526"
       sodipodi:ry="7.0036526"
       d="m -844.55812,322.51569 a 7.0036526,7.0036526 0 1 1 -14.0073,0 7.0036526,7.0036526 0 1 1 14.0073,0 z"
       transform="translate(1334.4399,213.03098)" />
    <text
       xml:space="preserve"
       style="font-size:16px;font-style:normal;font-variant:normal;font-weight:normal;font-stretch:normal;line-height:125%;letter-spacing:0px;word-spacing:0px;fill:#000000;fill-opacity:1;stroke:none;font-family:Raleway;-inkscape-font-specification:Raleway"
       x="490.93414"
       y="530.11334"
       id="text3033"
       sodipodi:linespacing="125%"><tspan
         sodipodi:role="line"
         id="tspan3035"
         x="490.93414"
         y="530.11334">Les Oliieres</tspan></text>
  </g>
</svg>
