<?xml version="1.0" encoding="UTF-8" standalone="no"?>
<!-- Created with Inkscape (http://www.inkscape.org/) -->

<svg
   xmlns:dc="http://purl.org/dc/elements/1.1/"
   xmlns:cc="http://creativecommons.org/ns#"
   xmlns:rdf="http://www.w3.org/1999/02/22-rdf-syntax-ns#"
   xmlns:svg="http://www.w3.org/2000/svg"
   xmlns="http://www.w3.org/2000/svg"
   xmlns:sodipodi="http://sodipodi.sourceforge.net/DTD/sodipodi-0.dtd"
   xmlns:inkscape="http://www.inkscape.org/namespaces/inkscape"
   width="744"
   height="744"
   id="svg2"
   version="1.1"
   inkscape:version="0.48.4 r9939"
   sodipodi:docname="associationgrisplein.svg">
  <defs
     id="defs4" />
  <sodipodi:namedview
     id="base"
     pagecolor="#ffffff"
     bordercolor="#666666"
     borderopacity="1.0"
     inkscape:pageopacity="0.0"
     inkscape:pageshadow="2"
     inkscape:zoom="0.64000003"
     inkscape:cx="51.905154"
     inkscape:cy="354.2008"
     inkscape:document-units="px"
     inkscape:current-layer="layer1"
     showgrid="false"
     showguides="true"
     inkscape:guide-bbox="true"
     inkscape:window-width="1600"
     inkscape:window-height="876"
     inkscape:window-x="0"
     inkscape:window-y="24"
     inkscape:window-maximized="1">
    <sodipodi:guide
       orientation="1,0"
       position="-1795,-2815"
       id="guide3855" />
    <sodipodi:guide
       orientation="1,0"
       position="-1986.4286,-2900"
       id="guide3857" />
  </sodipodi:namedview>
  <metadata
     id="metadata7">
    <rdf:RDF>
      <cc:Work
         rdf:about="">
        <dc:format>image/svg+xml</dc:format>
        <dc:type
           rdf:resource="http://purl.org/dc/dcmitype/StillImage" />
        <dc:title></dc:title>
      </cc:Work>
    </rdf:RDF>
  </metadata>
  <g
     inkscape:label="Calque 1"
     inkscape:groupmode="layer"
     id="layer1"
     transform="translate(0,-308.36217)">
    <path
       style="fill:#25b5c2;fill-opacity:1;stroke:none"
       d="M 371.625 2.875 C 168.76729 2.875 4.3125 167.32979 4.3125 370.1875 C 4.3125 573.04521 168.76729 737.5 371.625 737.5 C 574.48271 737.5 738.9375 573.04521 738.9375 370.1875 C 738.9375 167.32979 574.48271 2.875 371.625 2.875 z M 321.6875 99.75 C 340.31239 99.75 355.40625 114.87511 355.40625 133.5 C 355.40625 152.12489 340.31239 167.21875 321.6875 167.21875 C 303.06261 167.21875 287.9375 152.12489 287.9375 133.5 C 287.9375 114.87511 303.06261 99.75 321.6875 99.75 z M 320.65625 100.375 C 303.50545 101.17932 290.15625 119.18268 290.15625 131.15625 C 289.47895 144.36263 296.58775 162.34555 320.96875 165.5625 C 325.70945 166.49372 307.5544 160.39122 306.875 131.15625 C 306.1956 101.92128 325.1908 100.375 322.3125 100.375 C 321.75165 100.36442 321.2095 100.34905 320.65625 100.375 z M 526.0625 122.96875 C 544.68739 122.96875 559.78125 138.06261 559.78125 156.6875 C 559.78125 175.31239 544.68739 190.40625 526.0625 190.40625 C 507.43761 190.40625 492.34375 175.31239 492.34375 156.6875 C 492.34375 138.06261 507.43761 122.96875 526.0625 122.96875 z M 526.71875 123.5625 C 508.77165 123.22388 494.5625 141.98394 494.5625 154.34375 C 493.8852 167.55013 500.994 185.53305 525.375 188.75 C 530.1158 189.68122 510.85575 185.236 511.28125 154.34375 C 511.70665 123.4515 529.59715 123.5625 526.71875 123.5625 z M 287.15625 168.78125 C 314.81996 186.69679 333.59209 185.116 356.25 168.78125 C 378.38095 179.84674 390.81643 226.81564 356.25 248.15625 C 321.68354 269.49683 321.67001 269.76892 287.15625 248.15625 C 252.64251 226.54355 266.86956 178.26594 287.15625 168.78125 z M 287.28125 173 C 278.81565 178.07937 266.7885 198.28647 271.875 221.09375 C 277.1237 244.62819 315.8842 261.38012 320.625 261.71875 C 316.1162 253.97186 282.34695 240.05041 311.46875 183.5 C 306.94755 182.45135 292.78265 177.57369 287.28125 173 z M 491.5625 192 C 519.22621 209.91554 537.96709 208.33475 560.625 192 C 582.75595 203.06549 595.19143 250.00314 560.625 271.34375 C 526.05854 292.68433 526.07626 292.95642 491.5625 271.34375 C 457.04876 249.73105 471.27581 201.48469 491.5625 192 z M 491.65625 196.1875 C 483.19065 201.26687 471.1635 221.47397 476.25 244.28125 C 481.4987 267.81569 520.29055 284.56762 525.03125 284.90625 C 520.52245 277.15936 486.7533 263.23791 515.875 206.6875 C 511.3538 205.63885 497.15765 200.76119 491.65625 196.1875 z M 164.125 245.59375 C 184.7515 245.59375 201.46875 262.311 201.46875 282.9375 C 201.46875 303.564 184.7515 320.3125 164.125 320.3125 C 143.4985 320.3125 126.75 303.564 126.75 282.9375 C 126.75 262.311 143.4985 245.59375 164.125 245.59375 z M 164.71875 246.34375 C 144.84285 245.96873 129.09375 266.74938 129.09375 280.4375 C 128.61996 299.48258 143.49787 315.1288 163.21875 318.53125 C 176.03429 321.10506 146.1083 312.00127 147.625 280.4375 C 149.1417 248.87373 167.90635 246.34375 164.71875 246.34375 z M 125.875 322.0625 C 156.5117 341.90341 177.31331 340.15273 202.40625 322.0625 C 226.9156 334.31719 240.68751 386.30344 202.40625 409.9375 C 164.12497 433.57154 164.09794 433.87288 125.875 409.9375 C 87.652091 386.0021 103.40811 332.5665 125.875 322.0625 z M 125.90625 326.78125 C 116.53085 332.4065 103.21065 354.77289 108.84375 380.03125 C 114.65655 406.09493 157.59345 424.65624 162.84375 425.03125 C 157.85035 416.45181 120.46725 401.0341 152.71875 338.40625 C 147.71165 337.24491 131.99885 331.84646 125.90625 326.78125 z M 543.84375 340.625 C 565.47105 340.625 583 358.15395 583 379.78125 C 583 401.40855 565.47105 418.9375 543.84375 418.9375 C 522.21645 418.9375 504.6875 401.40855 504.6875 379.78125 C 504.6875 358.15395 522.21645 340.625 543.84375 340.625 z M 544.71875 341.375 C 544.58696 341.3745 544.30981 341.39082 544 341.4375 C 544.14662 341.43808 544.29044 341.43473 544.4375 341.4375 C 544.85529 341.4375 544.94249 341.37585 544.71875 341.375 z M 544 341.4375 C 523.36807 341.3564 507.09375 362.90526 507.09375 377.15625 C 506.30735 392.49155 514.5637 413.38948 542.875 417.125 C 548.38 418.20634 524.9902 415.68491 526.5 377.15625 C 527.70991 346.28046 540.62797 341.94562 544 341.4375 z M 322.40625 392.5625 C 352.79057 392.5625 377.40625 417.17818 377.40625 447.5625 C 377.40625 477.94682 352.79057 502.59375 322.40625 502.59375 C 292.02193 502.59375 267.375 477.94682 267.375 447.5625 C 267.375 417.17818 292.02193 392.5625 322.40625 392.5625 z M 322.90625 393.9375 C 293.62765 393.38507 270.4375 423.99266 270.4375 444.15625 C 269.3327 465.70091 280.94405 495.0332 320.71875 500.28125 C 328.45275 501.80043 296.19315 491.56188 297.71875 444.15625 C 299.08375 401.74439 327.60195 393.9375 322.90625 393.9375 z M 503.75 420.78125 C 535.8732 441.58485 557.6583 439.74923 583.96875 420.78125 C 609.6673 433.63054 624.10743 488.15671 583.96875 512.9375 C 543.83005 537.71827 543.82752 538.03423 503.75 512.9375 C 463.6725 487.84075 480.19301 431.79491 503.75 420.78125 z M 503.75 425.78125 C 493.9197 431.67944 479.9685 455.10985 485.875 481.59375 C 491.9698 508.92204 536.995 528.38804 542.5 528.78125 C 537.2643 519.78553 498.0587 503.63532 531.875 437.96875 C 526.625 436.75106 510.1383 431.09223 503.75 425.78125 z M 266.09375 505.15625 C 311.22382 534.38334 341.81754 531.80446 378.78125 505.15625 C 414.88528 523.20828 435.1723 599.81033 378.78125 634.625 C 322.39016 669.43965 322.39891 669.88355 266.09375 634.625 C 209.78865 599.36643 232.9984 520.62939 266.09375 505.15625 z M 265.75 512.4375 C 251.9393 520.72391 232.29565 553.66761 240.59375 590.875 C 249.15635 629.26868 312.42225 656.60383 320.15625 657.15625 C 312.80065 644.51812 257.7412 621.81784 305.25 529.5625 C 297.8741 527.85175 274.7249 519.89893 265.75 512.4375 z "
       transform="translate(0,308.36217)"
       id="path2985" />
    <path
       style="fill:none;stroke:#000000;stroke-width:1px;stroke-linecap:butt;stroke-linejoin:miter;stroke-opacity:1"
       d="m -1794.9692,3816.1185 -167.2183,113.1371 0,214.1523 348.2194,0 0,-184.4605 z"
       id="path3847"
       inkscape:connector-curvature="0"
       sodipodi:nodetypes="cccccc" />
    <path
       style="fill:none;stroke:#000000;stroke-width:1px;stroke-linecap:butt;stroke-linejoin:miter;stroke-opacity:1"
       d="m -1596.174,3858.4337 0,-179.2364 130.8575,-122.6433 0,133.2567 z"
       id="path3849"
       inkscape:connector-curvature="0"
       transform="translate(0,282.36217)"
       sodipodi:nodetypes="ccccc" />
    <path
       style="fill:none;stroke:#000000;stroke-width:1px;stroke-linecap:butt;stroke-linejoin:miter;stroke-opacity:1"
       d="m -1988.2857,3651.4286 193.6428,-132.8572 194.6429,148.5715 144.2857,-128.5715 -104.2857,-102.8571 -234.6429,67.1428 c 0.6938,-0.09 -193.6428,148.5715 -193.6428,148.5715 z"
       id="path3851"
       inkscape:connector-curvature="0"
       transform="translate(0,282.36217)"
       sodipodi:nodetypes="ccccccc" />
    <rect
       style="fill:none;stroke:#000000;stroke-opacity:1"
       id="rect3871"
       width="74.751289"
       height="66.670067"
       x="-1913.2289"
       y="3975.7434" />
    <rect
       y="3975.7434"
       x="-1735.442"
       height="66.670067"
       width="74.751289"
       id="rect3873"
       style="fill:none;stroke:#000000;stroke-opacity:1" />
  </g>
  <g
     inkscape:groupmode="layer"
     id="layer2"
     inkscape:label="reflet" />
</svg>
