<?xml version="1.0" encoding="UTF-8" standalone="no"?>
<!-- Created with Inkscape (http://www.inkscape.org/) -->

<svg
   xmlns:dc="http://purl.org/dc/elements/1.1/"
   xmlns:cc="http://creativecommons.org/ns#"
   xmlns:rdf="http://www.w3.org/1999/02/22-rdf-syntax-ns#"
   xmlns:svg="http://www.w3.org/2000/svg"
   xmlns="http://www.w3.org/2000/svg"
   xmlns:sodipodi="http://sodipodi.sourceforge.net/DTD/sodipodi-0.dtd"
   xmlns:inkscape="http://www.inkscape.org/namespaces/inkscape"
   width="744"
   height="744"
   id="svg2"
   version="1.1"
   inkscape:version="0.48.4 r9939"
   sodipodi:docname="maud1.svg">
  <defs
     id="defs4" />
  <sodipodi:namedview
     id="base"
     pagecolor="#ffffff"
     bordercolor="#666666"
     borderopacity="1.0"
     inkscape:pageopacity="0.0"
     inkscape:pageshadow="2"
     inkscape:zoom="0.11313709"
     inkscape:cx="622.93904"
     inkscape:cy="397.93379"
     inkscape:document-units="px"
     inkscape:current-layer="layer1"
     showgrid="false"
     showguides="true"
     inkscape:guide-bbox="true"
     inkscape:window-width="1508"
     inkscape:window-height="794"
     inkscape:window-x="0"
     inkscape:window-y="24"
     inkscape:window-maximized="0">
    <sodipodi:guide
       orientation="1,0"
       position="-1795,-2815"
       id="guide3855" />
    <sodipodi:guide
       orientation="1,0"
       position="-1986.4286,-2900"
       id="guide3857" />
  </sodipodi:namedview>
  <metadata
     id="metadata7">
    <rdf:RDF>
      <cc:Work
         rdf:about="">
        <dc:format>image/svg+xml</dc:format>
        <dc:type
           rdf:resource="http://purl.org/dc/dcmitype/StillImage" />
        <dc:title />
      </cc:Work>
    </rdf:RDF>
  </metadata>
  <g
     inkscape:label="Calque 1"
     inkscape:groupmode="layer"
     id="layer1"
     transform="translate(0,-308.36217)">
    <path
       sodipodi:type="arc"
       style="fill:#25b5c2;fill-opacity:1;stroke:none"
       id="path2985"
       sodipodi:cx="-761.42859"
       sodipodi:cy="419.50504"
       sodipodi:rx="281.42856"
       sodipodi:ry="281.42856"
       d="m -480.00003,419.50504 c 0,155.4287 -125.99986,281.42855 -281.42856,281.42855 -155.4287,0 -281.42851,-125.99985 -281.42851,-281.42855 0,-155.42871 125.99981,-281.42856 281.42851,-281.42856 155.4287,0 281.42856,125.99985 281.42856,281.42856 z"
       transform="matrix(1.3051496,0,0,1.3051496,1365.3954,131.02352)" />
    <path
       transform="matrix(0.48748073,0,0,0.48748073,391.34601,570.92513)"
       sodipodi:type="arc"
       style="fill:#ea807e;fill-opacity:1;stroke:none"
       id="path3007"
       sodipodi:cx="-141.42857"
       sodipodi:cy="379.50504"
       sodipodi:rx="112.85714"
       sodipodi:ry="112.85714"
       d="m -28.571434,379.50504 c 0,62.32927 -50.527863,112.85713 -112.857136,112.85713 -62.32928,0 -112.85714,-50.52786 -112.85714,-112.85713 0,-62.32928 50.52786,-112.85714 112.85714,-112.85714 62.329273,0 112.857136,50.52786 112.857136,112.85714 z" />
    <path
       style="fill:#dbdbdb;fill-opacity:1;stroke:none"
       d="m 266.09717,813.52106 c 45.13007,29.22709 75.73254,26.64821 112.69625,0 36.10403,18.05203 56.39105,94.6441 0,129.45877 -56.39109,34.81465 -56.39109,35.25855 -112.69625,0 -56.3051,-35.25857 -33.09535,-113.98563 0,-129.45877 z"
       id="path3009"
       inkscape:connector-curvature="0"
       sodipodi:nodetypes="cczzc" />
    <path
       d="m -28.571434,379.50504 c 0,62.32927 -50.527863,112.85713 -112.857136,112.85713 -62.32928,0 -112.85714,-50.52786 -112.85714,-112.85713 0,-62.32928 50.52786,-112.85714 112.85714,-112.85714 62.329273,0 112.857136,50.52786 112.857136,112.85714 z"
       sodipodi:ry="112.85714"
       sodipodi:rx="112.85714"
       sodipodi:cy="379.50504"
       sodipodi:cx="-141.42857"
       id="path3785"
       style="fill:#ea807e;fill-opacity:1;stroke:none"
       sodipodi:type="arc"
       transform="matrix(0.33125993,0,0,0.33125993,576.7082,582.97825)" />
    <path
       sodipodi:nodetypes="cczzc"
       inkscape:connector-curvature="0"
       id="path3787"
       d="m 491.59726,747.83052 c 30.66744,19.86082 51.46287,18.10838 76.581,0 24.53395,12.26697 38.31965,64.31393 0,87.97169 -38.31965,23.65775 -38.31965,23.95941 -76.581,0 -38.26123,-23.95941 -22.48939,-77.45716 0,-87.97169 z"
       style="fill:#dbdbdb;fill-opacity:1;stroke:none" />
    <path
       transform="matrix(0.33125993,0,0,0.33125993,231.0018,438.8596)"
       sodipodi:type="arc"
       style="fill:#ea807e;fill-opacity:1;stroke:none"
       id="path3789"
       sodipodi:cx="-141.42857"
       sodipodi:cy="379.50504"
       sodipodi:rx="112.85714"
       sodipodi:ry="112.85714"
       d="m -28.571434,379.50504 c 0,62.32927 -50.527863,112.85713 -112.857136,112.85713 -62.32928,0 -112.85714,-50.52786 -112.85714,-112.85713 0,-62.32928 50.52786,-112.85714 112.85714,-112.85714 62.329273,0 112.857136,50.52786 112.857136,112.85714 z" />
    <path
       style="fill:#dbdbdb;fill-opacity:1;stroke:none"
       d="m 145.89085,603.71187 c 30.66745,19.86083 51.46287,18.10838 76.58101,0 24.53395,12.26697 38.31964,64.31393 0,87.97169 -38.31966,23.65778 -38.31966,23.95943 -76.58101,0 -38.26125,-23.95941 -22.48941,-77.45716 0,-87.97169 z"
       id="path3791"
       inkscape:connector-curvature="0"
       sodipodi:nodetypes="cczzc" />
    <path
       d="m -28.571434,379.50504 c 0,62.32927 -50.527863,112.85713 -112.857136,112.85713 -62.32928,0 -112.85714,-50.52786 -112.85714,-112.85713 0,-62.32928 50.52786,-112.85714 112.85714,-112.85714 62.329273,0 112.857136,50.52786 112.857136,112.85714 z"
       sodipodi:ry="112.85714"
       sodipodi:rx="112.85714"
       sodipodi:cy="379.50504"
       sodipodi:cx="-141.42857"
       id="path3793"
       style="fill:#ea807e;fill-opacity:1;stroke:none"
       sodipodi:type="arc"
       transform="matrix(0.27903237,0,0,0.27903237,589.37944,381.51266)" />
    <path
       sodipodi:nodetypes="cczzc"
       inkscape:connector-curvature="0"
       id="path3795"
       d="m 517.68737,520.37378 c 25.83232,16.72947 43.34906,15.25333 64.50699,0 20.66585,10.33293 32.27805,54.17397 0,74.10177 -32.27805,19.92779 -32.27805,20.1819 -64.50699,0 -32.22885,-20.18189 -18.94365,-65.24502 0,-74.10177 z"
       style="fill:#dbdbdb;fill-opacity:1;stroke:none" />
    <path
       transform="matrix(0.27903237,0,0,0.27903237,392.191,316.28272)"
       sodipodi:type="arc"
       style="fill:#ea807e;fill-opacity:1;stroke:none"
       id="path3797"
       sodipodi:cx="-141.42857"
       sodipodi:cy="379.50504"
       sodipodi:rx="112.85714"
       sodipodi:ry="112.85714"
       d="m -28.571434,379.50504 c 0,62.32927 -50.527863,112.85713 -112.857136,112.85713 -62.32928,0 -112.85714,-50.52786 -112.85714,-112.85713 0,-62.32928 50.52786,-112.85714 112.85714,-112.85714 62.329273,0 112.857136,50.52786 112.857136,112.85714 z" />
    <path
       style="fill:#dbdbdb;fill-opacity:1;stroke:none"
       d="m 320.49895,455.14383 c 25.83231,16.72948 43.34906,15.25333 64.50698,0 20.66585,10.33292 32.27804,54.17398 0,74.10177 -32.27804,19.9278 -32.27804,20.1819 -64.50698,0 -32.22885,-20.1819 -18.94365,-65.24503 0,-74.10177 z"
       id="path3799"
       inkscape:connector-curvature="0"
       sodipodi:nodetypes="cczzc" />
    <path
       style="fill:none;stroke:#000000;stroke-width:1px;stroke-linecap:butt;stroke-linejoin:miter;stroke-opacity:1"
       d="m -1794.9692,3816.1185 -167.2183,113.1371 0,214.1523 348.2194,0 0,-184.4605 z"
       id="path3847"
       inkscape:connector-curvature="0"
       sodipodi:nodetypes="cccccc" />
    <path
       style="fill:none;stroke:#000000;stroke-width:1px;stroke-linecap:butt;stroke-linejoin:miter;stroke-opacity:1"
       d="m -1596.174,3858.4337 0,-179.2364 130.8575,-122.6433 0,133.2567 z"
       id="path3849"
       inkscape:connector-curvature="0"
       transform="translate(0,282.36217)"
       sodipodi:nodetypes="ccccc" />
    <path
       style="fill:none;stroke:#000000;stroke-width:1px;stroke-linecap:butt;stroke-linejoin:miter;stroke-opacity:1"
       d="m -1988.2857,3651.4286 193.6428,-132.8572 194.6429,148.5715 144.2857,-128.5715 -104.2857,-102.8571 -234.6429,67.1428 c 0.6938,-0.09 -193.6428,148.5715 -193.6428,148.5715 z"
       id="path3851"
       inkscape:connector-curvature="0"
       transform="translate(0,282.36217)"
       sodipodi:nodetypes="ccccccc" />
    <rect
       style="fill:none;stroke:#000000;stroke-opacity:1"
       id="rect3871"
       width="74.751289"
       height="66.670067"
       x="-1913.2289"
       y="3975.7434" />
    <rect
       y="3975.7434"
       x="-1735.442"
       height="66.670067"
       width="74.751289"
       id="rect3873"
       style="fill:none;stroke:#000000;stroke-opacity:1" />
    <path
       d="m -28.571434,379.50504 c 0,62.32927 -50.527863,112.85713 -112.857136,112.85713 -62.32928,0 -112.85714,-50.52786 -112.85714,-112.85713 0,-62.32928 50.52786,-112.85714 112.85714,-112.85714 62.329273,0 112.857136,50.52786 112.857136,112.85714 z"
       sodipodi:ry="112.85714"
       sodipodi:rx="112.85714"
       sodipodi:cy="379.50504"
       sodipodi:cx="-141.42857"
       id="path3800"
       style="fill:#ea807e;fill-opacity:1;stroke:none"
       sodipodi:type="arc"
       transform="matrix(0.27903237,0,0,0.27903237,392.191,316.28272)" />
    <path
       sodipodi:nodetypes="cczzc"
       inkscape:connector-curvature="0"
       id="path3802"
       d="m 320.49895,455.14383 c 25.83231,16.72948 43.34906,15.25333 64.50698,0 20.66585,10.33292 32.27804,54.17398 0,74.10177 -32.27804,19.9278 -32.27804,20.1819 -64.50698,0 -32.22885,-20.1819 -18.94365,-65.24503 0,-74.10177 z"
       style="fill:#dbdbdb;fill-opacity:1;stroke:none" />
  </g>
</svg>
