<?xml version="1.0" encoding="UTF-8" standalone="no"?>
<!-- Created with Inkscape (http://www.inkscape.org/) -->

<svg
   xmlns:dc="http://purl.org/dc/elements/1.1/"
   xmlns:cc="http://creativecommons.org/ns#"
   xmlns:rdf="http://www.w3.org/1999/02/22-rdf-syntax-ns#"
   xmlns:svg="http://www.w3.org/2000/svg"
   xmlns="http://www.w3.org/2000/svg"
   xmlns:sodipodi="http://sodipodi.sourceforge.net/DTD/sodipodi-0.dtd"
   xmlns:inkscape="http://www.inkscape.org/namespaces/inkscape"
   width="650"
   height="650"
   id="svg4031"
   version="1.1"
   inkscape:version="0.48.4 r9939"
   sodipodi:docname="cartefrance2.0.svg">
  <defs
     id="defs4033" />
  <sodipodi:namedview
     id="base"
     pagecolor="#ffffff"
     bordercolor="#666666"
     borderopacity="1.0"
     inkscape:pageopacity="0.0"
     inkscape:pageshadow="2"
     inkscape:zoom="0.7"
     inkscape:cx="72.857143"
     inkscape:cy="356.4846"
     inkscape:document-units="px"
     inkscape:current-layer="layer1"
     showgrid="false"
     inkscape:window-width="1600"
     inkscape:window-height="876"
     inkscape:window-x="0"
     inkscape:window-y="24"
     inkscape:window-maximized="1" />
  <metadata
     id="metadata4036">
    <rdf:RDF>
      <cc:Work
         rdf:about="">
        <dc:format>image/svg+xml</dc:format>
        <dc:type
           rdf:resource="http://purl.org/dc/dcmitype/StillImage" />
        <dc:title></dc:title>
      </cc:Work>
    </rdf:RDF>
  </metadata>
  <g
     inkscape:label="Calque 1"
     inkscape:groupmode="layer"
     id="layer1"
     transform="translate(0,-402.36218)">
    <path
       style="fill:#d9fffe;fill-opacity:1;stroke:#000000;stroke-width:3.53398561px;stroke-linecap:butt;stroke-linejoin:miter;stroke-opacity:1"
       d="m 358.40015,415.5428 4.3676,10.19152 -1.4556,7.64362 13.1033,8.00763 6.5516,-6.91566 9.8277,8.73559 4.3677,13.46735 9.0996,-2.1839 6.5517,4.73176 2.1836,10.91948 4.368,-4.36779 17.471,4.36779 -2.9117,7.64363 2.5477,14.19531 16.7433,2.5479 11.6473,-15.65125 7.2797,24.3868 22.5669,10.91949 c 0,0 1.82,8.73558 4.3681,9.82751 2.5476,1.09197 14.1953,-2.54786 14.1953,-2.54786 l 10.1913,6.18769 14.9233,-5.82372 11.6473,6.18772 10.5557,18.19911 5.8236,-4.00379 8.0077,3.27582 7.2796,2.5479 11.6473,-5.45976 9.4637,7.64362 27.2986,5.82373 -7.2796,13.46735 -10.5553,15.65124 -7.6437,40.03808 3.6397,30.21056 c 0,0 -6.9157,14.92328 -8.3717,15.28724 -1.4557,0.364 -10.5553,0.72797 -11.2833,-0.72796 -0.728,-1.45594 -1.456,-7.27963 -1.456,-7.27963 l -10.5553,2.1839 -3.64,10.55549 10.5556,1.45593 -21.1109,28.39062 -10.5557,4.3678 3.64,5.45972 c 0,0 -19.2913,24.7508 -19.2913,26.20673 0,1.45593 6.552,16.37921 6.552,16.37921 l -0.728,5.45976 7.6436,-1.81993 0.7277,-8.00762 26.207,-8.73555 1.456,20.383 13.4673,16.01525 -14.5593,11.64741 19.2909,21.11101 -8.0076,24.02283 -17.107,3.27583 12.3753,16.37921 7.2797,1.45593 4.0036,8.73559 -4.3676,5.45972 -1.092,16.37921 6.5516,13.83135 21.475,5.45972 10.9197,-4.73175 4.3676,8.00762 c 0,0 -15.6513,3.27583 -13.1033,10.91945 2.5477,7.64366 5.0957,8.73559 5.0957,8.73559 l -23.659,12.73938 -2.9117,7.64366 -20.7469,21.11096 4.0036,4.73176 -4.7316,-0.36396 -24.387,10.19152 c 0,0 -14.9233,1.09193 -17.107,0 -2.184,-1.09197 -25.1149,-9.09959 -25.1149,-9.09959 l -0.728,-10.19148 -15.6514,2.18389 10.5557,-6.18772 0.728,-6.55169 -11.2837,-4.73176 -3.6396,8.37158 2.184,4.7318 -7.6437,0 -0.364,3.27583 c 0,0 -12.3756,2.91186 -12.7393,-0.72797 -0.364,-3.63983 3.6397,-10.55548 3.6397,-10.55548 l -9.8277,-5.45973 -4.0036,7.64362 4.3676,3.63983 -21.475,-5.09576 -4.3676,-6.55169 c 0,0 -49.8656,35.30632 -48.0456,34.94232 1.8196,-0.36397 -4.004,-0.36397 -4.004,-0.36397 l 2.184,6.18769 0.728,5.09576 -0.364,29.48255 7.6437,9.0996 -1.092,3.6398 -8.3717,-8.0076 -12.7393,8.3716 -4.7317,-2.1839 -2.184,7.6436 -34.9423,-2.1839 2.5477,-6.5516 -16.379,-3.6399 1.456,-5.0957 -14.1955,-9.4636 -4.0038,2.5479 -6.1877,-4.0038 -10.5555,-0.364 -3.2758,-4.0038 -12.0114,-4.0038 -7.6437,-4.3678 1.456,8.3716 0.7279,6.9157 -38.2181,-2.5479 -10.5555,-9.8275 -18.9271,-0.364 -13.1034,-12.01144 -22.2029,-7.27963 -7.6436,-0.364 1.0919,-12.01141 -21.8389,-10.91949 17.1071,-6.55169 6.1878,-20.74697 11.6474,-44.40587 8.3716,-78.98419 14.9233,13.46735 6.5517,22.5669 7.2796,9.46355 1.8199,-6.55169 2.5479,-2.91186 -12.0114,-10.55548 0,-17.10718 -24.0229,-25.1148 0.364,-2.91186 c 0,0 8.3716,-5.45973 8.7356,-8.00762 0.3639,-2.54787 0,-14.92328 -1.8199,-14.92328 -1.8199,0 -3.2759,-14.92328 -3.2759,-14.92328 l -31.3025,-17.10718 -14.9232,-23.29487 6.9156,-14.55927 -8.7355,-9.46356 1.0919,-8.00762 21.475,6.18769 -15.6513,-10.91945 -12.7394,4.36779 -8.7356,-1.81993 -1.4559,-8.73559 6.9157,-5.45972 -5.0958,-2.91186 -17.107196,2.54789 -0.7279,-3.27586 -53.869419,-30.21056 -12.37542,5.09576 -7.64362,-14.55928 -12.73938,-3.27586 4.00379,-4.73176 16.74321,1.45593 -0.72796,-10.19152 -13.46735,1.45593 1.8199,-8.00762 15.28728,2.5479 -2.5479,-8.37159 -21.8389399,2.91186 2.1838999,-12.73941 19.29107,-8.73556 14.55928,-4.36779 9.827559,6.55169 4.00379,-2.5479 8.37159,1.45594 2.18389,-4.3678 c 0,0 19.65508,-8.00762 19.65508,-6.55169 0,1.45593 20.019046,26.93473 20.019046,26.93473 l 17.4711,-9.82755 c 0,0 17.8352,11.64745 17.8352,10.19152 0,-1.45594 -2.1839,-9.82752 -2.1839,-9.82752 l 5.8237,-1.09197 5.0958,4.36779 21.1109,-0.36396 -9.8275,-7.64362 -0.364,-29.8466 -5.8237,-14.92328 -7.2796,-25.47876 17.1071,4.73176 c 0,0 7.2797,-5.09572 9.0996,-4.36776 1.8199,0.72797 5.4597,4.0038 5.4597,4.0038 l -6.5516,8.37158 10.1914,13.10339 44.4059,6.55169 15.2873,-6.18773 c 0,0 14.5593,-3.63983 13.1033,-4.00379 -1.4559,-0.364 -16.0152,-4.3678 -16.0152,-4.3678 l 6.5517,-12.73938 20.383,-12.73938 31.6665,-10.19152 10.1915,-17.83514 4.0038,-43.31391 16.7433,-10.19152 z"
       id="path3854"
       inkscape:connector-curvature="0" />
    <path
       sodipodi:type="arc"
       style="fill:#ff0000;fill-opacity:1;fill-rule:evenodd;stroke:none"
       id="path2983"
       sodipodi:cx="474.28571"
       sodipodi:cy="652.36218"
       sodipodi:rx="17.142857"
       sodipodi:ry="17.142857"
       d="m 491.42856,652.36218 c 0,9.46774 -7.67512,17.14286 -17.14285,17.14286 -9.46774,0 -17.14286,-7.67512 -17.14286,-17.14286 0,-9.46774 7.67512,-17.14285 17.14286,-17.14285 9.46773,0 17.14285,7.67511 17.14285,17.14285 z"
       transform="translate(-17.142862,224.28571)" />
  </g>
</svg>
