<?xml version="1.0" encoding="UTF-8" standalone="no"?>
<!-- Created with Inkscape (http://www.inkscape.org/) -->

<svg
   xmlns:dc="http://purl.org/dc/elements/1.1/"
   xmlns:cc="http://creativecommons.org/ns#"
   xmlns:rdf="http://www.w3.org/1999/02/22-rdf-syntax-ns#"
   xmlns:svg="http://www.w3.org/2000/svg"
   xmlns="http://www.w3.org/2000/svg"
   xmlns:sodipodi="http://sodipodi.sourceforge.net/DTD/sodipodi-0.dtd"
   xmlns:inkscape="http://www.inkscape.org/namespaces/inkscape"
   width="744"
   height="744"
   id="svg2"
   version="1.1"
   inkscape:version="0.48.4 r9939"
   sodipodi:docname="collectivitegrisplein.svg">
  <defs
     id="defs4" />
  <sodipodi:namedview
     id="base"
     pagecolor="#ffffff"
     bordercolor="#666666"
     borderopacity="1.0"
     inkscape:pageopacity="0.0"
     inkscape:pageshadow="2"
     inkscape:zoom="0.45254834"
     inkscape:cx="-794.4925"
     inkscape:cy="228.83568"
     inkscape:document-units="px"
     inkscape:current-layer="layer1"
     showgrid="false"
     showguides="true"
     inkscape:guide-bbox="true"
     inkscape:window-width="1508"
     inkscape:window-height="794"
     inkscape:window-x="10"
     inkscape:window-y="34"
     inkscape:window-maximized="0">
    <sodipodi:guide
       orientation="1,0"
       position="-1795,-2815"
       id="guide3855" />
    <sodipodi:guide
       orientation="1,0"
       position="-1986.4286,-2900"
       id="guide3857" />
  </sodipodi:namedview>
  <metadata
     id="metadata7">
    <rdf:RDF>
      <cc:Work
         rdf:about="">
        <dc:format>image/svg+xml</dc:format>
        <dc:type
           rdf:resource="http://purl.org/dc/dcmitype/StillImage" />
        <dc:title></dc:title>
      </cc:Work>
    </rdf:RDF>
  </metadata>
  <g
     inkscape:label="cercle"
     inkscape:groupmode="layer"
     id="layer1"
     transform="translate(0,-308.36217)"
     style="display:inline">
    <path
       style="fill:none;stroke:#000000;stroke-width:1px;stroke-linecap:butt;stroke-linejoin:miter;stroke-opacity:1"
       d="m -1794.9692,3816.1185 -167.2183,113.1371 0,214.1523 348.2194,0 0,-184.4605 z"
       id="path3847"
       inkscape:connector-curvature="0"
       sodipodi:nodetypes="cccccc" />
    <path
       style="fill:none;stroke:#000000;stroke-width:1px;stroke-linecap:butt;stroke-linejoin:miter;stroke-opacity:1"
       d="m -1596.174,3858.4337 0,-179.2364 130.8575,-122.6433 0,133.2567 z"
       id="path3849"
       inkscape:connector-curvature="0"
       transform="translate(0,282.36217)"
       sodipodi:nodetypes="ccccc" />
    <path
       style="fill:none;stroke:#000000;stroke-width:1px;stroke-linecap:butt;stroke-linejoin:miter;stroke-opacity:1"
       d="m -1988.2857,3651.4286 193.6428,-132.8572 194.6429,148.5715 144.2857,-128.5715 -104.2857,-102.8571 -234.6429,67.1428 c 0.6938,-0.09 -193.6428,148.5715 -193.6428,148.5715 z"
       id="path3851"
       inkscape:connector-curvature="0"
       transform="translate(0,282.36217)"
       sodipodi:nodetypes="ccccccc" />
    <rect
       style="fill:none;stroke:#000000;stroke-opacity:1"
       id="rect3871"
       width="74.751289"
       height="66.670067"
       x="-1913.2289"
       y="3975.7434" />
    <rect
       y="3975.7434"
       x="-1735.442"
       height="66.670067"
       width="74.751289"
       id="rect3873"
       style="fill:none;stroke:#000000;stroke-opacity:1" />
    <path
       style="fill:#25b5c2;fill-opacity:1;stroke:none"
       d="M 370.90625 5.8125 C 168.92783 5.8125 5.1875 169.55283 5.1875 371.53125 C 5.1875 573.50967 168.92783 737.25 370.90625 737.25 C 572.88467 737.25 736.625 573.50967 736.625 371.53125 C 736.625 169.55283 572.88467 5.8125 370.90625 5.8125 z M 373.3125 144.40625 C 373.3125 144.40625 656.05109 297.55171 673.1875 304.40625 C 690.3239 311.2608 685.67525 330.44262 673.1875 330.3125 C 660.79425 330.18334 650.9375 330.3125 650.9375 330.3125 L 650.9375 556.9375 L 569.09375 556.9375 C 569.09375 556.9375 569.71441 472.57151 569.09375 456.28125 C 566.77418 395.40406 488.59691 398.69173 487.28125 456.28125 C 486.69413 481.97907 487.28125 556.9375 487.28125 556.9375 L 428.15625 556.9375 L 428.15625 416 C 426.17857 343.8299 317.625 346.59765 317.625 416 L 317.625 556.9375 L 258.9375 556.9375 C 258.9375 556.9375 259.27343 481.14148 258.9375 456.28125 C 258.08068 392.87663 175.82563 401.44488 174.96875 456.28125 C 174.28489 500.04918 174.96875 556.9375 174.96875 556.9375 L 97.40625 556.9375 L 97.40625 330.3125 L 73.4375 330.3125 C 58.04822 330.3125 59.7284 310.40399 73.4375 304.40625 C 87.1466 298.40858 373.3125 144.40625 373.3125 144.40625 z M 371.4375 208.5625 C 340.31891 208.5625 315.09375 233.78766 315.09375 264.90625 C 315.09375 296.02484 340.31891 321.25 371.4375 321.25 C 402.55609 321.25 427.78125 296.02484 427.78125 264.90625 C 427.78125 233.78766 402.55609 208.5625 371.4375 208.5625 z "
       transform="translate(0,308.36217)"
       id="path3987" />
  </g>
  <g
     inkscape:groupmode="layer"
     id="layer2"
     inkscape:label="batiment"
     style="display:inline" />
  <g
     inkscape:groupmode="layer"
     id="layer3"
     inkscape:label="horloge"
     style="display:inline" />
</svg>
