<?xml version="1.0" encoding="UTF-8" standalone="no"?>
<!-- Created with Inkscape (http://www.inkscape.org/) -->

<svg
   xmlns:dc="http://purl.org/dc/elements/1.1/"
   xmlns:cc="http://creativecommons.org/ns#"
   xmlns:rdf="http://www.w3.org/1999/02/22-rdf-syntax-ns#"
   xmlns:svg="http://www.w3.org/2000/svg"
   xmlns="http://www.w3.org/2000/svg"
   xmlns:sodipodi="http://sodipodi.sourceforge.net/DTD/sodipodi-0.dtd"
   xmlns:inkscape="http://www.inkscape.org/namespaces/inkscape"
   width="744"
   height="744"
   id="svg3911"
   version="1.1"
   inkscape:version="0.48.4 r9939"
   sodipodi:docname="entreprisegrisplein.svg">
  <defs
     id="defs3913" />
  <sodipodi:namedview
     id="base"
     pagecolor="#ffffff"
     bordercolor="#666666"
     borderopacity="1.0"
     inkscape:pageopacity="0.0"
     inkscape:pageshadow="2"
     inkscape:zoom="0.5"
     inkscape:cx="-736.49467"
     inkscape:cy="430.85055"
     inkscape:document-units="px"
     inkscape:current-layer="layer1"
     showgrid="false"
     inkscape:window-width="1600"
     inkscape:window-height="876"
     inkscape:window-x="0"
     inkscape:window-y="24"
     inkscape:window-maximized="1"
     showguides="true"
     inkscape:guide-bbox="true" />
  <metadata
     id="metadata3916">
    <rdf:RDF>
      <cc:Work
         rdf:about="">
        <dc:format>image/svg+xml</dc:format>
        <dc:type
           rdf:resource="http://purl.org/dc/dcmitype/StillImage" />
        <dc:title></dc:title>
      </cc:Work>
    </rdf:RDF>
  </metadata>
  <g
     inkscape:label="cercle"
     inkscape:groupmode="layer"
     id="layer1"
     transform="translate(0,-308.36218)"
     style="display:inline">
    <path
       style="fill:none;stroke:#000000;stroke-width:1px;stroke-linecap:butt;stroke-linejoin:miter;stroke-opacity:1"
       d="m -1792.8952,3815.1954 -167.2183,113.1371 0,214.1523 348.2194,0 0,-184.4605 z"
       id="path3847-3"
       inkscape:connector-curvature="0"
       sodipodi:nodetypes="cccccc" />
    <path
       style="fill:none;stroke:#000000;stroke-width:1px;stroke-linecap:butt;stroke-linejoin:miter;stroke-opacity:1"
       d="m -1594.1,4139.8728 0,-179.2364 130.8575,-122.6433 0,133.2567 z"
       id="path3849-1"
       inkscape:connector-curvature="0"
       sodipodi:nodetypes="ccccc" />
    <path
       style="fill:none;stroke:#000000;stroke-width:1px;stroke-linecap:butt;stroke-linejoin:miter;stroke-opacity:1"
       d="m -1986.2117,3932.8677 193.6428,-132.8572 194.6429,148.5715 144.2857,-128.5715 -104.2857,-102.8571 -234.6429,67.1428 c 0.6938,-0.09 -193.6428,148.5715 -193.6428,148.5715 z"
       id="path3851-6"
       inkscape:connector-curvature="0"
       sodipodi:nodetypes="ccccccc" />
    <rect
       style="fill:none;stroke:#000000;stroke-opacity:1"
       id="rect3871-6"
       width="74.751289"
       height="66.670067"
       x="-1911.155"
       y="3974.8203" />
    <rect
       y="3974.8203"
       x="-1733.3682"
       height="66.670067"
       width="74.751289"
       id="rect3873-8"
       style="fill:none;stroke:#000000;stroke-opacity:1" />
    <path
       style="fill:#25b5c2;fill-opacity:1;stroke:none"
       d="M 371.4375 3.84375 C 168.57979 3.84375 4.125 168.29854 4.125 371.15625 C 4.125 574.01396 168.57979 738.4375 371.4375 738.4375 C 574.29521 738.4375 738.75 574.01396 738.75 371.15625 C 738.75 168.29854 574.29521 3.84375 371.4375 3.84375 z M 163.8125 133.875 L 280.15625 133.875 L 280.15625 318.03125 L 378.65625 222.75 L 378.65625 318.03125 L 478.84375 222.75 L 478.84375 318.03125 L 577.3125 222.75 C 577.3125 239.5182 577.03182 535.48132 577.3125 546 L 163.8125 546 C 163.8125 531.68081 163.50306 142.88516 163.8125 133.875 z "
       transform="translate(0,308.36218)"
       id="path2985" />
  </g>
  <g
     inkscape:groupmode="layer"
     id="layer3"
     inkscape:label="personnage" />
  <g
     inkscape:groupmode="layer"
     id="layer4"
     inkscape:label="reflets" />
</svg>
