<?xml version="1.0" encoding="UTF-8" standalone="no"?>
<!-- Created with Inkscape (http://www.inkscape.org/) -->

<svg
   xmlns:dc="http://purl.org/dc/elements/1.1/"
   xmlns:cc="http://creativecommons.org/ns#"
   xmlns:rdf="http://www.w3.org/1999/02/22-rdf-syntax-ns#"
   xmlns:svg="http://www.w3.org/2000/svg"
   xmlns="http://www.w3.org/2000/svg"
   xmlns:sodipodi="http://sodipodi.sourceforge.net/DTD/sodipodi-0.dtd"
   xmlns:inkscape="http://www.inkscape.org/namespaces/inkscape"
   width="744"
   height="744"
   id="svg3911"
   version="1.1"
   inkscape:version="0.48.4 r9939"
   sodipodi:docname="entreprise1.2gris.svg">
  <defs
     id="defs3913" />
  <sodipodi:namedview
     id="base"
     pagecolor="#ffffff"
     bordercolor="#666666"
     borderopacity="1.0"
     inkscape:pageopacity="0.0"
     inkscape:pageshadow="2"
     inkscape:zoom="0.5"
     inkscape:cx="427.50533"
     inkscape:cy="430.85055"
     inkscape:document-units="px"
     inkscape:current-layer="layer3"
     showgrid="false"
     inkscape:window-width="1600"
     inkscape:window-height="876"
     inkscape:window-x="0"
     inkscape:window-y="24"
     inkscape:window-maximized="1"
     showguides="true"
     inkscape:guide-bbox="true" />
  <metadata
     id="metadata3916">
    <rdf:RDF>
      <cc:Work
         rdf:about="">
        <dc:format>image/svg+xml</dc:format>
        <dc:type
           rdf:resource="http://purl.org/dc/dcmitype/StillImage" />
        <dc:title></dc:title>
      </cc:Work>
    </rdf:RDF>
  </metadata>
  <g
     inkscape:label="cercle"
     inkscape:groupmode="layer"
     id="layer1"
     transform="translate(0,-308.36218)"
     style="display:inline">
    <path
       style="fill:none;stroke:#000000;stroke-width:1px;stroke-linecap:butt;stroke-linejoin:miter;stroke-opacity:1"
       d="m -1792.8952,3815.1954 -167.2183,113.1371 0,214.1523 348.2194,0 0,-184.4605 z"
       id="path3847-3"
       inkscape:connector-curvature="0"
       sodipodi:nodetypes="cccccc" />
    <path
       style="fill:none;stroke:#000000;stroke-width:1px;stroke-linecap:butt;stroke-linejoin:miter;stroke-opacity:1"
       d="m -1594.1,4139.8728 0,-179.2364 130.8575,-122.6433 0,133.2567 z"
       id="path3849-1"
       inkscape:connector-curvature="0"
       sodipodi:nodetypes="ccccc" />
    <path
       style="fill:none;stroke:#000000;stroke-width:1px;stroke-linecap:butt;stroke-linejoin:miter;stroke-opacity:1"
       d="m -1986.2117,3932.8677 193.6428,-132.8572 194.6429,148.5715 144.2857,-128.5715 -104.2857,-102.8571 -234.6429,67.1428 c 0.6938,-0.09 -193.6428,148.5715 -193.6428,148.5715 z"
       id="path3851-6"
       inkscape:connector-curvature="0"
       sodipodi:nodetypes="ccccccc" />
    <rect
       style="fill:none;stroke:#000000;stroke-opacity:1"
       id="rect3871-6"
       width="74.751289"
       height="66.670067"
       x="-1911.155"
       y="3974.8203" />
    <rect
       y="3974.8203"
       x="-1733.3682"
       height="66.670067"
       width="74.751289"
       id="rect3873-8"
       style="fill:none;stroke:#000000;stroke-opacity:1" />
    <path
       sodipodi:type="arc"
       style="fill:none;fill-opacity:1;stroke:#dbdbdb;stroke-opacity:1;stroke-width:2.29858707;stroke-miterlimit:4;stroke-dasharray:none"
       id="path2985"
       sodipodi:cx="-761.42859"
       sodipodi:cy="419.50504"
       sodipodi:rx="281.42856"
       sodipodi:ry="281.42856"
       d="m -480.00003,419.50504 c 0,155.4287 -125.99986,281.42855 -281.42856,281.42855 -155.4287,0 -281.42851,-125.99985 -281.42851,-281.42855 0,-155.42871 125.99981,-281.42856 281.42851,-281.42856 155.4287,0 281.42856,125.99985 281.42856,281.42856 z"
       transform="matrix(1.3051496,0,0,1.3051496,1365.2068,131.98819)" />
  </g>
  <g
     inkscape:groupmode="layer"
     id="layer3"
     inkscape:label="personnage">
    <path
       d="m -28.571434,379.50504 a 112.85714,112.85714 0 1 1 -225.714276,0 112.85714,112.85714 0 1 1 225.714276,0 z"
       sodipodi:ry="112.85714"
       sodipodi:rx="112.85714"
       sodipodi:cy="379.50504"
       sodipodi:cx="-141.42857"
       id="path3774"
       style="fill:#ea4e7e;fill-opacity:1;stroke:none"
       sodipodi:type="arc"
       transform="matrix(0.33092794,0,0,0.33092794,-1001.4146,129.15626)" />
    <path
       sodipodi:nodetypes="cczzc"
       inkscape:connector-curvature="0"
       id="path3776"
       d="m -1086.4401,293.84326 c 30.6367,19.841 51.4112,18.0903 76.5042,0 24.50933,12.2547 38.28124,64.2495 0,87.8836 -38.2813,23.634 -38.2813,23.9354 -76.5042,0 -38.2229,-23.9354 -22.4669,-77.3796 0,-87.8836 z"
       style="fill:#dbdbdb;fill-opacity:1;stroke:none" />
    <path
       transform="matrix(0.34698464,0,0,0.34698464,-619.41148,219.89226)"
       sodipodi:type="arc"
       style="fill:#ea4e7e;fill-opacity:1;stroke:none"
       id="path3782"
       sodipodi:cx="-141.42857"
       sodipodi:cy="379.50504"
       sodipodi:rx="112.85714"
       sodipodi:ry="112.85714"
       d="m -28.571434,379.50504 a 112.85714,112.85714 0 1 1 -225.714276,0 112.85714,112.85714 0 1 1 225.714276,0 z" />
    <path
       style="fill:#dbdbdb;fill-opacity:1;stroke:none"
       d="m -708.56253,392.56996 c 32.1232,20.8036 53.90577,18.968 80.21622,0 25.69855,12.8493 40.13867,67.36685 0,92.14764 -40.1387,24.78077 -40.1387,25.09673 -80.21622,0 -40.0775,-25.09675 -23.55699,-81.13404 0,-92.14764 z"
       id="path3784"
       inkscape:connector-curvature="0"
       sodipodi:nodetypes="cczzc" />
    <path
       d="m -28.571434,379.50504 a 112.85714,112.85714 0 1 1 -225.714276,0 112.85714,112.85714 0 1 1 225.714276,0 z"
       sodipodi:ry="112.85714"
       sodipodi:rx="112.85714"
       sodipodi:cy="379.50504"
       sodipodi:cx="-141.42857"
       id="path3790"
       style="fill:#ea4e7e;fill-opacity:1;stroke:none"
       sodipodi:type="arc"
       transform="matrix(0.29881455,0,0,0.29881455,-643.99353,15.080364)" />
    <path
       sodipodi:nodetypes="cczzc"
       inkscape:connector-curvature="0"
       id="path3792"
       d="m -720.7682,163.78616 c 27.66371,17.9155 46.42231,16.3347 69.08022,0 22.13095,11.0655 34.56643,58.0147 0,79.3553 -34.56646,21.3405 -34.56646,21.6126 -69.08022,0 -34.51374,-21.6127 -20.28669,-69.8706 0,-79.3553 z"
       style="fill:#dbdbdb;fill-opacity:1;stroke:none" />
    <path
       transform="matrix(0.29881455,0,0,0.29881455,-848.39158,-8.1215363)"
       sodipodi:type="arc"
       style="fill:#ea4e7e;fill-opacity:1;stroke:none"
       id="path3798"
       sodipodi:cx="-141.42857"
       sodipodi:cy="379.50504"
       sodipodi:rx="112.85714"
       sodipodi:ry="112.85714"
       d="m -28.571434,379.50504 a 112.85714,112.85714 0 1 1 -225.714276,0 112.85714,112.85714 0 1 1 225.714276,0 z" />
    <path
       style="fill:#dbdbdb;fill-opacity:1;stroke:none"
       d="m -925.16625,140.58416 c 27.66371,17.9156 46.42231,16.3348 69.08022,0 22.13095,11.0655 34.56643,58.0147 0,79.3553 -34.56646,21.3406 -34.56646,21.6127 -69.08022,0 -34.51374,-21.6127 -20.28669,-69.8706 0,-79.3553 z"
       id="path3801"
       inkscape:connector-curvature="0"
       sodipodi:nodetypes="cczzc" />
    <path
       style="fill:none;fill-opacity:1;stroke:#dbdbdb;stroke-opacity:1;stroke-width:3;stroke-miterlimit:4;stroke-dasharray:none"
       d="m 163.80459,546.01011 413.50773,0 c -0.28068,-10.51868 0,-306.48061 0,-323.24881 l -98.48227,95.27001 0,-95.27001 -100.17642,95.27001 0,-95.27001 -98.49431,95.27001 0,-184.16343 -116.35473,0 c -0.30944,9.01016 0,397.82304 0,412.14223 z"
       id="path3089"
       inkscape:connector-curvature="0"
       sodipodi:nodetypes="ccccccccccc" />
  </g>
  <g
     inkscape:groupmode="layer"
     id="layer4"
     inkscape:label="reflets">
    <path
       sodipodi:nodetypes="ccscc"
       inkscape:connector-curvature="0"
       id="path3778-3"
       d="m -1059.3379,310.33492 c -32.2515,62.62785 5.1321,78.0495 10.1255,86.62894 -5.2503,-0.37501 -48.1897,-18.93836 -54.0025,-45.00204 -5.6331,-25.25836 7.6879,-47.62717 17.0633,-53.25242 6.0926,5.06521 21.8066,10.46418 26.8137,11.62552 z"
       style="fill:#c8b7b7;fill-opacity:1;stroke:none" />
    <path
       sodipodi:nodetypes="ccczc"
       inkscape:connector-curvature="0"
       id="path3780-4"
       d="m -1047.3373,218.26824 c -19.8759,-0.37502 -35.6267,20.40328 -35.6267,34.0914 -0.4738,19.04508 14.4057,34.69693 34.1266,38.09938 12.8155,2.57381 -17.1268,-6.53561 -15.6101,-38.09938 1.5167,-31.56377 20.2978,-34.0914 17.1102,-34.0914 z"
       style="fill:#c14e7e;fill-opacity:1;stroke:none" />
    <path
       style="fill:#c8b7b7;fill-opacity:1;stroke:none"
       d="m -680.19913,409.88672 c -33.8163,65.66657 5.3811,81.83648 10.6168,90.8322 -5.505,-0.39321 -50.5279,-19.85726 -56.6227,-47.18555 -5.9065,-26.4839 8.0609,-49.93805 17.8912,-55.83624 6.3883,5.31098 22.8647,10.9719 28.1147,12.18959 z"
       id="path3786-9"
       inkscape:connector-curvature="0"
       sodipodi:nodetypes="ccscc" />
    <path
       style="fill:#c14e7e;fill-opacity:1;stroke:none"
       d="m -667.61633,313.35295 c -20.8402,-0.39322 -37.3552,21.39325 -37.3552,35.74552 -0.7864,15.3353 7.4711,36.21245 35.7824,39.94797 5.505,1.08134 -17.8773,-1.41931 -16.3675,-39.94797 1.5098,-38.52866 21.2826,-35.74552 17.9403,-35.74552 z"
       id="path3788-9"
       inkscape:connector-curvature="0"
       sodipodi:nodetypes="ccczc" />
    <path
       sodipodi:nodetypes="ccscc"
       inkscape:connector-curvature="0"
       id="path3794-2"
       d="m -696.18843,178.62745 c -29.1217,56.55041 4.6341,70.47554 9.1429,78.22243 -4.7407,-0.33863 -43.5133,-17.10059 -48.762,-40.63503 -5.0865,-22.80728 6.9418,-43.00541 15.4074,-48.08478 5.5014,4.57369 19.6905,9.44873 24.2117,10.49738 z"
       style="fill:#c8b7b7;fill-opacity:1;stroke:none" />
    <path
       sodipodi:nodetypes="ccczc"
       inkscape:connector-curvature="0"
       id="path3796-6"
       d="m -685.35243,95.49495 c -17.9471,-0.33862 -32.1693,18.42335 -32.1693,30.78316 -0.6773,13.20638 6.4338,31.18526 30.8148,34.40221 4.7408,0.93122 -14.5207,-3.50996 -14.0952,-34.40221 0.4254,-30.89225 18.3281,-30.78316 15.4497,-30.78316 z"
       style="fill:#c14e7e;fill-opacity:1;stroke:none" />
    <path
       style="fill:#c8b7b7;fill-opacity:1;stroke:none"
       d="m -900.58643,155.42551 c -29.1218,56.55041 4.6341,70.47554 9.1429,78.22243 -4.7408,-0.33863 -43.5134,-17.10059 -48.7621,-40.63503 -5.0865,-22.80728 6.9419,-43.00541 15.4075,-48.08478 5.5014,4.57369 19.6905,9.44873 24.2117,10.49738 z"
       id="path3803-0"
       inkscape:connector-curvature="0"
       sodipodi:nodetypes="ccscc" />
    <path
       style="fill:#c14e7e;fill-opacity:1;stroke:none"
       d="m -889.75043,72.293011 c -17.9471,-0.33862 -32.1694,18.423349 -32.1694,30.783159 -0.6773,13.20638 6.4339,31.18526 30.8149,34.40221 4.7407,0.93122 -13.4159,-5.16724 -14.0953,-34.40221 -0.6794,-29.234969 18.3281,-30.783159 15.4498,-30.783159 z"
       id="path3805-5"
       inkscape:connector-curvature="0"
       sodipodi:nodetypes="ccczc" />
    <path
       style="fill:#c8b7b7;fill-opacity:1;stroke:none"
       d="m -1059.3379,310.33492 c -32.2515,62.62785 5.1321,78.0495 10.1255,86.62894 -5.2503,-0.37501 -48.1897,-18.93836 -54.0025,-45.00204 -5.6331,-25.25836 7.6879,-47.62717 17.0633,-53.25242 6.0926,5.06521 21.8066,10.46418 26.8137,11.62552 z"
       id="path3014"
       inkscape:connector-curvature="0"
       sodipodi:nodetypes="ccscc" />
    <path
       style="fill:#c14e7e;fill-opacity:1;stroke:none"
       d="m -1047.3373,218.26824 c -19.8759,-0.37502 -35.6267,20.40328 -35.6267,34.0914 -0.4738,19.04508 14.4057,34.69693 34.1266,38.09938 12.8155,2.57381 -17.1268,-6.53561 -15.6101,-38.09938 1.5167,-31.56377 20.2978,-34.0914 17.1102,-34.0914 z"
       id="path3016"
       inkscape:connector-curvature="0"
       sodipodi:nodetypes="ccczc" />
    <path
       sodipodi:nodetypes="ccscc"
       inkscape:connector-curvature="0"
       id="path3018"
       d="m -680.19913,409.88672 c -33.8163,65.66657 5.3811,81.83648 10.6168,90.8322 -5.505,-0.39321 -50.5279,-19.85726 -56.6227,-47.18555 -5.9065,-26.4839 8.0609,-49.93805 17.8912,-55.83624 6.3883,5.31098 22.8647,10.9719 28.1147,12.18959 z"
       style="fill:#c8b7b7;fill-opacity:1;stroke:none" />
    <path
       sodipodi:nodetypes="ccczc"
       inkscape:connector-curvature="0"
       id="path3020"
       d="m -667.61633,313.35295 c -20.8402,-0.39322 -37.3552,21.39325 -37.3552,35.74552 -0.7864,15.3353 7.4711,36.21245 35.7824,39.94797 5.505,1.08134 -17.8773,-1.41931 -16.3675,-39.94797 1.5098,-38.52866 21.2826,-35.74552 17.9403,-35.74552 z"
       style="fill:#c14e7e;fill-opacity:1;stroke:none" />
    <path
       style="fill:#c8b7b7;fill-opacity:1;stroke:none"
       d="m -696.18843,178.62745 c -29.1217,56.55041 4.6341,70.47554 9.1429,78.22243 -4.7407,-0.33863 -43.5133,-17.10059 -48.762,-40.63503 -5.0865,-22.80728 6.9418,-43.00541 15.4074,-48.08478 5.5014,4.57369 19.6905,9.44873 24.2117,10.49738 z"
       id="path3022"
       inkscape:connector-curvature="0"
       sodipodi:nodetypes="ccscc" />
    <path
       style="fill:#c14e7e;fill-opacity:1;stroke:none"
       d="m -685.35243,95.49495 c -17.9471,-0.33862 -32.1693,18.42335 -32.1693,30.78316 -0.6773,13.20638 6.4338,31.18526 30.8148,34.40221 4.7408,0.93122 -14.5207,-3.50996 -14.0952,-34.40221 0.4254,-30.89225 18.3281,-30.78316 15.4497,-30.78316 z"
       id="path3024"
       inkscape:connector-curvature="0"
       sodipodi:nodetypes="ccczc" />
    <path
       sodipodi:nodetypes="ccscc"
       inkscape:connector-curvature="0"
       id="path3026"
       d="m -900.58643,155.42551 c -29.1218,56.55041 4.6341,70.47554 9.1429,78.22243 -4.7408,-0.33863 -43.5134,-17.10059 -48.7621,-40.63503 -5.0865,-22.80728 6.9419,-43.00541 15.4075,-48.08478 5.5014,4.57369 19.6905,9.44873 24.2117,10.49738 z"
       style="fill:#c8b7b7;fill-opacity:1;stroke:none" />
    <path
       sodipodi:nodetypes="ccczc"
       inkscape:connector-curvature="0"
       id="path3028"
       d="m -889.75043,72.293011 c -17.9471,-0.33862 -32.1694,18.423349 -32.1694,30.783159 -0.6773,13.20638 6.4339,31.18526 30.8149,34.40221 4.7407,0.93122 -13.4159,-5.16724 -14.0953,-34.40221 -0.6794,-29.234969 18.3281,-30.783159 15.4498,-30.783159 z"
       style="fill:#c14e7e;fill-opacity:1;stroke:none" />
  </g>
</svg>
