<?xml version="1.0" encoding="UTF-8" standalone="no"?>
<!-- Created with Inkscape (http://www.inkscape.org/) -->

<svg
   xmlns:dc="http://purl.org/dc/elements/1.1/"
   xmlns:cc="http://creativecommons.org/ns#"
   xmlns:rdf="http://www.w3.org/1999/02/22-rdf-syntax-ns#"
   xmlns:svg="http://www.w3.org/2000/svg"
   xmlns="http://www.w3.org/2000/svg"
   xmlns:sodipodi="http://sodipodi.sourceforge.net/DTD/sodipodi-0.dtd"
   xmlns:inkscape="http://www.inkscape.org/namespaces/inkscape"
   id="svg2"
   version="1.1"
   inkscape:version="0.48.4 r9939"
   width="320"
   height="90"
   xml:space="preserve"
   sodipodi:docname="Nouveau document 1"><metadata
     id="metadata8"><rdf:RDF><cc:Work
         rdf:about=""><dc:format>image/svg+xml</dc:format><dc:type
           rdf:resource="http://purl.org/dc/dcmitype/StillImage" /><dc:title></dc:title></cc:Work></rdf:RDF></metadata><defs
     id="defs6"><clipPath
       clipPathUnits="userSpaceOnUse"
       id="clipPath16"><path
         d="m 54.003,0 338.998,0 0,265.46 -338.998,0 0,-265.46 z"
         id="path18"
         inkscape:connector-curvature="0" /></clipPath></defs><sodipodi:namedview
     pagecolor="#ffffff"
     bordercolor="#666666"
     borderopacity="1"
     objecttolerance="10"
     gridtolerance="10"
     guidetolerance="10"
     inkscape:pageopacity="0"
     inkscape:pageshadow="2"
     inkscape:window-width="1215"
     inkscape:window-height="776"
     id="namedview4"
     showgrid="false"
     inkscape:zoom="0.66605515"
     inkscape:cx="265.75"
     inkscape:cy="177.16251"
     inkscape:window-x="65"
     inkscape:window-y="24"
     inkscape:window-maximized="1"
     inkscape:current-layer="g10" /><g
     id="g10"
     inkscape:groupmode="layer"
     inkscape:label="Logo_SM_CA"
     transform="matrix(1.25,0,0,-1.25,0,89.99999)"><g
       id="g12"
       transform="translate(-79.272715,-142.9311)"><g
         id="g14"
         clip-path="url(#clipPath16)"><g
           id="g20"
           transform="translate(218.6934,151.2295)"><path
             d="m 0,0 c 0,-0.948 -0.382,-1.717 -1.152,-2.316 -0.797,-0.61 -1.894,-0.915 -3.282,-0.915 -1.826,0 -2.899,0.311 -3.217,0.934 -0.191,0.395 -0.383,0.88 -0.577,1.455 -0.078,0.258 -0.018,0.438 0.177,0.515 0.249,0.112 0.446,0.056 0.586,-0.137 0.528,-0.719 1.057,-1.232 1.591,-1.538 0.514,-0.295 1.116,-0.437 1.804,-0.437 1.723,0 2.585,0.639 2.585,1.916 0,0.5 -0.191,0.919 -0.568,1.271 -0.366,0.315 -1.121,0.772 -2.27,1.343 -1.45,0.709 -2.403,1.278 -2.864,1.7 -0.563,0.502 -0.844,1.126 -0.844,1.886 0,0.783 0.361,1.465 1.082,2.022 0.722,0.573 1.643,0.847 2.766,0.847 0.792,0 1.565,-0.093 2.315,-0.266 C -1.293,8.138 -0.966,7.949 -0.89,7.71 -0.736,7.246 -0.635,6.686 -0.585,6.002 -0.573,5.76 -0.66,5.625 -0.854,5.59 c -0.242,-0.041 -0.413,0.054 -0.51,0.242 -0.387,0.709 -0.823,1.223 -1.313,1.51 -0.452,0.26 -1.044,0.387 -1.774,0.387 -0.652,0 -1.165,-0.134 -1.544,-0.409 -0.378,-0.273 -0.567,-0.691 -0.567,-1.184 0,-0.48 0.187,-0.91 0.556,-1.242 C -5.652,4.562 -5,4.163 -4.051,3.727 -2.588,3.06 -1.585,2.476 -1.03,2.007 -0.344,1.438 0,0.767 0,0"
             style="fill:#ec6628;fill-opacity:1;fill-rule:nonzero;stroke:none"
             id="path22"
             inkscape:connector-curvature="0" /></g><g
           id="g24"
           transform="translate(229.8145,154.6685)"><path
             d="M 0,0 C 0,-0.155 -0.137,-0.285 -0.409,-0.388 -0.674,-0.522 -0.882,-0.726 -1.021,-1.049 -1.657,-2.446 -2.474,-4.055 -3.476,-5.848 -3.705,-6.23 -4.027,-6.799 -4.43,-7.54 c -0.409,-0.741 -1.027,-1.729 -1.854,-2.93 -0.276,-0.384 -0.645,-0.55 -1.115,-0.495 -0.41,0.073 -0.753,0.167 -1.03,0.326 -0.276,0.159 -0.398,0.306 -0.365,0.446 0.056,0.26 0.239,0.392 0.556,0.42 0.547,0.027 0.903,0.084 1.07,0.141 0.203,0.04 0.38,0.168 0.531,0.333 0.314,0.384 0.703,0.937 1.161,1.692 0.425,0.704 0.639,1.087 0.639,1.186 0,0.044 -0.387,0.74 -1.159,2.054 -1.048,1.796 -1.686,2.88 -1.906,3.244 -0.204,0.378 -0.426,0.59 -0.66,0.639 -0.399,0.105 -0.596,0.236 -0.596,0.383 0,0.204 0.13,0.321 0.38,0.299 1.31,-0.103 2.507,-0.072 3.6,0.09 0.19,0.034 0.289,-0.031 0.289,-0.176 0,-0.184 -0.155,-0.329 -0.459,-0.388 -0.458,-0.103 -0.686,-0.285 -0.686,-0.562 0,-0.045 0.013,-0.114 0.038,-0.157 0.3,-0.658 0.711,-1.454 1.227,-2.381 0.485,-0.862 0.744,-1.313 0.79,-1.313 0.058,0 0.262,0.352 0.616,1.078 0.404,0.824 0.788,1.703 1.14,2.622 0.007,0.016 0.011,0.049 0.011,0.083 0,0.268 -0.152,0.469 -0.445,0.565 -0.348,0.124 -0.525,0.24 -0.525,0.308 0,0.206 0.109,0.283 0.323,0.267 0.892,-0.139 1.717,-0.148 2.475,-0.036 0.185,0.028 0.292,0.028 0.324,0 C -0.021,0.168 0,0.101 0,0"
             style="fill:#ec6628;fill-opacity:1;fill-rule:nonzero;stroke:none"
             id="path26"
             inkscape:connector-curvature="0" /></g><g
           id="g28"
           transform="translate(240.9609,148.4238)"><path
             d="m 0,0 c 0,-0.185 -0.138,-0.275 -0.42,-0.264 -1.332,0.079 -2.343,0.096 -3.029,0.044 -0.354,-0.029 -0.543,0.023 -0.576,0.113 -0.015,0.041 -0.02,0.103 -0.02,0.144 0,0.131 0.184,0.231 0.54,0.309 0.331,0.106 0.491,0.396 0.491,0.9 l 0,2.285 c 0,1.287 -0.612,1.952 -1.85,1.952 -0.549,0 -1.064,-0.111 -1.534,-0.365 C -6.842,4.894 -7.065,4.642 -7.065,4.392 l 0,-3.14 c 0,-0.532 0.382,-0.83 1.14,-0.906 0.295,-0.016 0.436,-0.099 0.436,-0.246 0,-0.141 -0.035,-0.234 -0.117,-0.246 -0.037,-0.013 -0.14,-0.016 -0.319,-0.01 -0.967,0.021 -1.975,-0.012 -3.01,-0.141 -0.221,-0.027 -0.363,-0.039 -0.415,-0.023 -0.124,0.023 -0.191,0.1 -0.191,0.254 0,0.133 0.182,0.252 0.536,0.363 0.326,0.076 0.484,0.475 0.484,1.123 l 0,2.602 c 0,0.454 -0.056,0.731 -0.182,0.842 -0.084,0.084 -0.375,0.221 -0.866,0.375 -0.124,0.023 -0.183,0.11 -0.183,0.223 0,0.114 0.127,0.229 0.383,0.298 0.346,0.122 0.726,0.312 1.141,0.577 0.348,0.22 0.571,0.319 0.667,0.319 0.173,0 0.283,-0.169 0.334,-0.508 0.06,-0.362 0.134,-0.543 0.232,-0.543 -0.044,0 0.269,0.171 0.95,0.511 0.68,0.341 1.359,0.512 2.02,0.512 1.602,0 2.413,-0.861 2.424,-2.544 l 0.02,-2.76 c 0,-0.364 0.099,-0.607 0.296,-0.761 C -1.137,0.457 -0.844,0.342 -0.42,0.274 -0.138,0.211 0,0.13 0,0"
             style="fill:#ec6628;fill-opacity:1;fill-rule:nonzero;stroke:none"
             id="path30"
             inkscape:connector-curvature="0" /></g><g
           id="g32"
           transform="translate(247.7363,149.957)"><path
             d="m 0,0 0,3.066 c 0,0.237 -0.237,0.501 -0.721,0.784 -0.518,0.279 -1.072,0.419 -1.675,0.419 -1.296,0 -1.941,-0.728 -1.941,-2.224 0,-0.783 0.251,-1.445 0.769,-2.017 0.518,-0.561 1.117,-0.833 1.814,-0.833 0.317,0 0.691,0.084 1.114,0.287 C -0.214,-0.314 0,-0.141 0,0 m 2.877,-0.869 c 0.025,-0.037 0.039,-0.073 0.039,-0.101 0,-0.112 -0.322,-0.32 -0.949,-0.585 -0.734,-0.317 -1.162,-0.476 -1.293,-0.476 -0.112,0 -0.241,0.178 -0.39,0.512 -0.146,0.338 -0.246,0.517 -0.299,0.517 0.009,0 -0.342,-0.149 -1.053,-0.448 -0.712,-0.298 -1.254,-0.447 -1.619,-0.447 -0.817,0 -1.523,0.263 -2.124,0.825 -0.727,0.634 -1.09,1.551 -1.09,2.706 0,0.99 0.424,1.814 1.282,2.541 0.761,0.618 1.53,0.927 2.314,0.927 0.555,0 1.229,-0.069 2.002,-0.193 0.241,-0.05 0.361,0.03 0.361,0.193 l 0,2.926 c 0,0.328 -0.084,0.576 -0.263,0.709 -0.109,0.082 -0.376,0.21 -0.787,0.331 -0.196,0.058 -0.297,0.184 -0.297,0.339 0,0.143 0.129,0.235 0.397,0.312 0.369,0.099 0.803,0.275 1.312,0.499 0.42,0.219 0.682,0.309 0.779,0.309 0.232,0 0.344,-0.145 0.344,-0.432 0,0.007 -0.011,-0.271 -0.026,-0.84 C 1.502,8.664 1.493,8.113 1.493,7.567 l 0,-7.796 c 0,-0.333 0.151,-0.495 0.474,-0.495 0.118,0 0.271,0.019 0.474,0.063 0.216,0.042 0.359,-0.041 0.436,-0.208"
             style="fill:#ec6628;fill-opacity:1;fill-rule:nonzero;stroke:none"
             id="path34"
             inkscape:connector-curvature="0" /></g><g
           id="g36"
           transform="translate(255.0986,158.1675)"><path
             d="m 0,0 c 0,-0.252 -0.107,-0.491 -0.318,-0.724 -0.213,-0.226 -0.447,-0.348 -0.703,-0.348 -0.288,0 -0.526,0.101 -0.716,0.262 -0.183,0.161 -0.276,0.347 -0.276,0.623 0,0.243 0.115,0.473 0.339,0.693 0.228,0.23 0.471,0.329 0.73,0.329 C -0.314,0.835 0,0.571 0,0 m 1.038,-9.707 c -0.032,-0.16 -0.108,-0.25 -0.226,-0.278 -0.029,-0.007 -0.18,0 -0.45,0.022 -0.922,0.072 -1.828,0.057 -2.717,-0.044 -0.243,-0.016 -0.397,-0.012 -0.458,0.033 -0.062,0.051 -0.096,0.124 -0.096,0.267 0,0.139 0.167,0.261 0.494,0.327 0.36,0.112 0.54,0.422 0.54,0.961 l 0,2.242 c 0,0.454 -0.051,0.77 -0.146,0.947 -0.138,0.271 -0.424,0.445 -0.848,0.583 -0.191,0.06 -0.29,0.156 -0.29,0.296 0,0.162 0.139,0.284 0.422,0.347 0.514,0.149 0.977,0.354 1.382,0.597 0.322,0.206 0.525,0.308 0.597,0.308 0.249,0 0.369,-0.148 0.362,-0.45 -0.026,-1.491 -0.039,-3.013 -0.039,-4.572 0,-0.373 0.064,-0.643 0.182,-0.806 0.128,-0.171 0.371,-0.3 0.738,-0.355 0.407,-0.107 0.585,-0.236 0.553,-0.425"
             style="fill:#ec6628;fill-opacity:1;fill-rule:nonzero;stroke:none"
             id="path38"
             inkscape:connector-curvature="0" /></g><g
           id="g40"
           transform="translate(263.9443,149.3633)"><path
             d="m 0,0 c 0,-0.208 -0.324,-0.463 -0.959,-0.771 -0.693,-0.314 -1.377,-0.48 -2.057,-0.48 -1.051,0 -1.911,0.268 -2.578,0.808 -0.702,0.594 -1.052,1.373 -1.052,2.372 0,1.065 0.399,1.948 1.205,2.678 0.791,0.673 1.753,1.028 2.9,1.028 0.694,0 1.298,-0.092 1.815,-0.265 0.47,-0.177 0.706,-0.367 0.706,-0.57 0,-0.127 -0.116,-0.326 -0.347,-0.598 -0.234,-0.258 -0.427,-0.388 -0.572,-0.388 -0.092,0 -0.311,0.117 -0.645,0.357 -0.62,0.457 -1.112,0.694 -1.464,0.694 -0.558,0 -1.019,-0.206 -1.375,-0.575 -0.38,-0.437 -0.572,-1.026 -0.572,-1.765 0,-0.89 0.273,-1.605 0.818,-2.15 0.495,-0.492 1.096,-0.719 1.795,-0.719 0.693,0 1.351,0.183 1.96,0.516 0.059,0.038 0.131,0.059 0.224,0.059 C -0.068,0.231 0,0.153 0,0"
             style="fill:#ec6628;fill-opacity:1;fill-rule:nonzero;stroke:none"
             id="path42"
             inkscape:connector-curvature="0" /></g><g
           id="g44"
           transform="translate(270.0059,151.0464)"><path
             d="m 0,0 c 0.007,0.143 -0.03,0.222 -0.104,0.278 -0.083,0.041 -0.207,0.045 -0.37,0.033 -1.493,-0.269 -2.242,-0.716 -2.242,-1.364 0,-0.64 0.389,-0.974 1.162,-0.974 0.309,0 0.632,0.04 0.959,0.165 0.386,0.118 0.575,0.269 0.575,0.451 L 0,0 z m 2.86,-1.972 c 0,-0.12 -0.238,-0.305 -0.713,-0.535 -0.471,-0.25 -0.846,-0.379 -1.135,-0.379 -0.242,0 -0.454,0.123 -0.639,0.331 -0.189,0.233 -0.32,0.331 -0.393,0.331 -0.059,0 -0.349,-0.11 -0.882,-0.361 -0.535,-0.217 -1.07,-0.334 -1.611,-0.334 -0.505,0 -0.933,0.141 -1.274,0.406 -0.371,0.302 -0.555,0.702 -0.555,1.235 0,0.984 1.226,1.7 3.68,2.12 0.424,0.088 0.636,0.243 0.642,0.474 L 0,1.864 C 0.034,2.8 -0.415,3.262 -1.35,3.262 -1.612,3.262 -1.866,3.062 -2.106,2.624 -2.345,2.17 -2.686,1.933 -3.132,1.89 -3.643,1.857 -3.898,2.042 -3.898,2.488 c 0,0.289 0.38,0.601 1.134,0.958 0.797,0.402 1.555,0.576 2.29,0.576 1.256,0 1.881,-0.547 1.869,-1.657 l -0.041,-3.53 c -0.005,-0.365 0.168,-0.543 0.514,-0.543 0.067,0 0.196,0.016 0.39,0.029 0.194,0.022 0.305,0.04 0.338,0.04 0.176,0 0.264,-0.102 0.264,-0.333"
             style="fill:#ec6628;fill-opacity:1;fill-rule:nonzero;stroke:none"
             id="path46"
             inkscape:connector-curvature="0" /></g><g
           id="g48"
           transform="translate(279.0986,149.0586)"><path
             d="m 0,0 c 0,-0.28 -0.275,-0.495 -0.82,-0.701 -0.483,-0.175 -0.975,-0.245 -1.468,-0.245 -1.346,0 -2.018,0.646 -2.018,1.976 l 0,3.111 c 0,0.378 -0.036,0.628 -0.099,0.712 -0.073,0.084 -0.298,0.183 -0.684,0.252 -0.098,0.027 -0.145,0.126 -0.145,0.28 0,0.159 0.036,0.268 0.112,0.305 0.667,0.306 1.249,0.831 1.745,1.619 0.066,0.099 0.201,0.14 0.398,0.098 0.138,-0.023 0.212,-0.112 0.219,-0.21 l 0.032,-1.07 c 0,-0.099 0.018,-0.133 0.051,-0.176 0.041,-0.065 0.144,-0.087 0.292,-0.087 l 2.078,0 c 0.119,0 0.119,-0.14 0,-0.398 -0.141,-0.33 -0.351,-0.494 -0.632,-0.494 l -1.404,0 c -0.244,0 -0.392,-0.037 -0.445,-0.102 -0.046,-0.065 -0.07,-0.201 -0.07,-0.412 l 0,-2.811 c 0,-0.718 0.071,-1.17 0.209,-1.345 0.177,-0.252 0.594,-0.364 1.254,-0.364 0.217,0 0.481,0.041 0.79,0.085 0.308,0.082 0.474,0.121 0.494,0.121 C -0.04,0.144 0,0.093 0,0"
             style="fill:#ec6628;fill-opacity:1;fill-rule:nonzero;stroke:none"
             id="path50"
             inkscape:connector-curvature="0" /></g><g
           id="g52"
           transform="translate(301.6426,148.5444)"><path
             d="m 0,0 c 0,-0.141 -0.035,-0.241 -0.097,-0.262 -0.069,-0.035 -0.231,-0.05 -0.498,-0.035 -1.616,0.049 -2.871,0.049 -3.766,0 -0.276,-0.021 -0.415,0.065 -0.415,0.297 0,0.112 0.139,0.203 0.415,0.246 0.552,0.116 0.886,0.22 0.999,0.284 0.133,0.114 0.193,0.309 0.181,0.653 l -0.324,7.334 c -0.007,0.151 -0.053,0.211 -0.131,0.211 -0.061,0 -0.12,-0.05 -0.177,-0.154 C -4.914,6.526 -5.687,5.081 -6.138,4.21 -7.036,2.505 -7.67,1.183 -8.039,0.299 c -0.17,-0.41 -0.258,-0.635 -0.264,-0.65 -0.062,-0.089 -0.154,-0.176 -0.272,-0.206 -0.059,-0.011 -0.113,-0.013 -0.153,-0.013 -0.124,0 -0.236,0.157 -0.338,0.487 -0.386,1.305 -1.738,4.159 -4.034,8.606 -0.066,0.145 -0.144,0.193 -0.223,0.193 -0.099,0 -0.155,-0.07 -0.159,-0.255 -0.085,-1.698 -0.186,-3.952 -0.306,-6.786 -0.039,-0.749 0.378,-1.194 1.234,-1.334 0.344,-0.07 0.514,-0.174 0.514,-0.341 0,-0.141 -0.035,-0.241 -0.096,-0.262 -0.068,-0.035 -0.227,-0.05 -0.49,-0.035 -1.427,0.042 -2.53,0.042 -3.319,0 -0.278,-0.021 -0.417,0.065 -0.417,0.297 0,0.112 0.139,0.203 0.417,0.246 0.496,0.109 0.82,0.261 0.977,0.45 0.124,0.163 0.193,0.45 0.2,0.887 l 0.329,7.57 c 0.01,0.332 -0.06,0.596 -0.214,0.767 -0.136,0.155 -0.411,0.315 -0.828,0.495 -0.297,0.125 -0.438,0.263 -0.418,0.411 0.013,0.154 0.148,0.207 0.404,0.174 0.943,-0.129 1.772,-0.151 2.486,-0.055 0.276,0.031 0.46,0.028 0.558,-0.023 0.105,-0.051 0.19,-0.137 0.261,-0.298 l 3.887,-8.218 c 0.052,-0.104 0.094,-0.173 0.13,-0.173 0.038,0 0.093,0.094 0.166,0.25 0.247,0.488 1.636,3.126 4.159,7.932 0.153,0.29 0.35,0.434 0.585,0.434 0.578,0 1.381,0.096 2.414,0.249 0.237,0.034 0.386,0.038 0.438,0.034 0.105,-0.027 0.16,-0.145 0.16,-0.313 0,-0.147 -0.166,-0.275 -0.494,-0.36 C -1.519,10.228 -1.901,9.96 -1.888,9.645 L -1.545,1.299 C -1.532,0.974 -1.441,0.741 -1.271,0.607 -1.134,0.496 -0.888,0.383 -0.524,0.341 -0.177,0.263 0,0.16 0,0"
             style="fill:#ec6628;fill-opacity:1;fill-rule:nonzero;stroke:none"
             id="path54"
             inkscape:connector-curvature="0" /></g><g
           id="g56"
           transform="translate(306.8477,158.1675)"><path
             d="m 0,0 c 0,-0.252 -0.107,-0.491 -0.319,-0.724 -0.214,-0.226 -0.448,-0.348 -0.703,-0.348 -0.29,0 -0.527,0.101 -0.717,0.262 -0.182,0.161 -0.276,0.347 -0.276,0.623 0,0.243 0.114,0.473 0.341,0.693 0.225,0.23 0.468,0.329 0.726,0.329 C -0.314,0.835 0,0.571 0,0 m 1.031,-9.707 c -0.026,-0.16 -0.105,-0.25 -0.222,-0.278 -0.027,-0.007 -0.178,0 -0.446,0.022 -0.925,0.072 -1.829,0.057 -2.722,-0.044 -0.242,-0.016 -0.394,-0.012 -0.457,0.033 -0.062,0.051 -0.094,0.124 -0.094,0.267 0,0.139 0.168,0.261 0.493,0.327 0.361,0.112 0.538,0.422 0.538,0.961 l 0,2.242 c 0,0.454 -0.046,0.77 -0.144,0.947 -0.138,0.271 -0.424,0.445 -0.848,0.583 -0.192,0.06 -0.29,0.156 -0.29,0.296 0,0.162 0.139,0.284 0.421,0.347 0.518,0.149 0.979,0.354 1.384,0.597 0.32,0.206 0.519,0.308 0.595,0.308 0.251,0 0.372,-0.148 0.364,-0.45 -0.027,-1.491 -0.04,-3.013 -0.04,-4.572 0,-0.373 0.059,-0.643 0.177,-0.806 0.129,-0.171 0.376,-0.3 0.742,-0.355 0.408,-0.107 0.586,-0.236 0.549,-0.425"
             style="fill:#ec6628;fill-opacity:1;fill-rule:nonzero;stroke:none"
             id="path58"
             inkscape:connector-curvature="0" /></g><g
           id="g60"
           transform="translate(317.9678,148.5234)"><path
             d="m 0,0 c 0,-0.134 -0.041,-0.229 -0.12,-0.245 -0.045,-0.02 -0.163,-0.031 -0.354,-0.031 -1.387,0 -2.233,-0.03 -2.528,-0.087 -0.07,-0.012 -0.13,-0.012 -0.188,-0.012 -0.241,0 -0.363,0.087 -0.363,0.241 0,0.049 0.024,0.113 0.076,0.198 0.166,0.201 0.18,0.435 0.039,0.634 -0.645,0.943 -1.04,1.42 -1.179,1.42 -0.193,0 -0.673,-0.513 -1.453,-1.582 -0.039,-0.019 -0.057,-0.069 -0.057,-0.127 0,-0.165 0.164,-0.276 0.492,-0.34 0.249,-0.048 0.35,-0.154 0.31,-0.31 -0.033,-0.134 -0.105,-0.176 -0.223,-0.191 -0.118,-0.014 -0.409,0.021 -0.867,0.069 -0.313,0.057 -0.978,0.087 -1.978,0.087 -0.192,0 -0.31,0.011 -0.354,0.031 -0.078,0.016 -0.122,0.111 -0.122,0.245 0,0.111 0.041,0.212 0.115,0.235 0.077,0.038 0.272,0.064 0.573,0.064 0.345,0 0.767,0.226 1.254,0.648 0.365,0.339 0.745,0.692 1.139,1.123 0.404,0.455 0.609,0.71 0.609,0.788 0,0.14 -0.598,0.885 -1.802,2.196 -0.353,0.401 -0.691,0.586 -1.014,0.607 -0.258,0.021 -0.426,0.051 -0.491,0.091 -0.073,0.015 -0.106,0.096 -0.111,0.206 -0.014,0.155 0.012,0.268 0.067,0.292 0.063,0.046 0.194,0.049 0.408,0.007 0.516,-0.078 1.239,-0.041 2.161,0.107 0.413,0.089 0.623,0.042 0.636,-0.133 0,-0.029 -0.018,-0.218 -0.05,-0.549 C -5.405,5.455 -5.384,5.279 -5.307,5.15 -5.186,4.928 -5.006,4.686 -4.774,4.39 -4.54,4.101 -4.4,3.961 -4.361,3.961 c 0.063,0 0.225,0.143 0.487,0.432 0.265,0.294 0.463,0.542 0.601,0.757 0.111,0.161 0.17,0.319 0.17,0.465 0,0.152 -0.079,0.233 -0.225,0.233 -0.179,0 -0.268,0.08 -0.268,0.247 0,0.155 0.158,0.225 0.485,0.182 0.257,-0.027 0.513,-0.04 0.769,-0.04 0.221,0 0.522,0.013 0.891,0.052 0.319,0.036 0.547,0.046 0.691,0.031 0.308,-0.027 0.465,-0.106 0.465,-0.274 0,-0.125 -0.03,-0.197 -0.092,-0.238 C -0.443,5.781 -0.603,5.762 -0.854,5.724 -1.361,5.646 -1.815,5.422 -2.223,4.997 -3.275,3.92 -3.8,3.331 -3.8,3.276 -3.8,3.159 -3.265,2.529 -2.183,1.322 -1.628,0.704 -1.102,0.375 -0.605,0.299 -0.474,0.27 -0.341,0.246 -0.203,0.235 -0.065,0.217 0,0.118 0,0"
             style="fill:#ec6628;fill-opacity:1;fill-rule:nonzero;stroke:none"
             id="path62"
             inkscape:connector-curvature="0" /></g><g
           id="g64"
           transform="translate(324.4668,149.0586)"><path
             d="m 0,0 c 0,-0.28 -0.271,-0.495 -0.817,-0.701 -0.484,-0.175 -0.973,-0.245 -1.468,-0.245 -1.347,0 -2.023,0.646 -2.023,1.976 l 0,3.111 c 0,0.378 -0.03,0.628 -0.099,0.712 -0.066,0.084 -0.291,0.183 -0.678,0.252 -0.099,0.027 -0.151,0.126 -0.151,0.28 0,0.159 0.04,0.268 0.112,0.305 0.671,0.306 1.254,0.831 1.748,1.619 0.071,0.099 0.206,0.14 0.402,0.098 0.138,-0.023 0.205,-0.112 0.212,-0.21 l 0.041,-1.07 c 0,-0.099 0.014,-0.133 0.042,-0.176 0.046,-0.065 0.144,-0.087 0.301,-0.087 l 2.07,0 c 0.118,0 0.118,-0.14 0,-0.398 C -0.45,5.136 -0.66,4.972 -0.94,4.972 l -1.405,0 C -2.585,4.972 -2.731,4.935 -2.79,4.87 -2.83,4.805 -2.854,4.669 -2.854,4.458 l 0,-2.811 c 0,-0.718 0.065,-1.17 0.203,-1.345 0.181,-0.252 0.599,-0.364 1.255,-0.364 0.218,0 0.48,0.041 0.794,0.085 0.307,0.082 0.473,0.121 0.491,0.121 C -0.034,0.144 0,0.093 0,0"
             style="fill:#ec6628;fill-opacity:1;fill-rule:nonzero;stroke:none"
             id="path66"
             inkscape:connector-curvature="0" /></g><g
           id="g68"
           transform="translate(330.4834,153.1343)"><path
             d="m 0,0 c 0,0.317 -0.141,0.583 -0.416,0.84 -0.273,0.223 -0.611,0.335 -1.019,0.335 -1.138,0 -1.709,-0.758 -1.709,-2.266 l 0,-0.205 2.53,0.709 C -0.204,-0.488 0,-0.279 0,0 m 2.199,-3.445 c 0,-0.236 -0.358,-0.542 -1.079,-0.92 -0.817,-0.394 -1.654,-0.609 -2.515,-0.609 -0.935,0 -1.724,0.29 -2.365,0.87 -0.678,0.596 -1.02,1.401 -1.02,2.383 0,1.146 0.381,2.052 1.143,2.731 0.712,0.634 1.584,0.954 2.624,0.954 0.612,0 1.182,-0.175 1.718,-0.52 C 1.184,1.121 1.498,0.741 1.653,0.341 1.708,0.202 1.794,0.103 1.904,0.091 c 0.16,-0.016 0.241,-0.133 0.241,-0.302 0,-0.223 -0.304,-0.435 -0.911,-0.603 l -4.286,-1.161 c 0.282,-1.353 1.034,-2.05 2.271,-2.05 0.71,0 1.523,0.251 2.434,0.721 0.138,0.08 0.269,0.127 0.398,0.127 0.098,0 0.148,-0.105 0.148,-0.268"
             style="fill:#ec6628;fill-opacity:1;fill-rule:nonzero;stroke:none"
             id="path70"
             inkscape:connector-curvature="0" /></g><g
           id="g72"
           transform="translate(105.7017,169.4512)"><path
             d="m 0,0 c -0.149,-1.433 -0.397,-2.566 -0.742,-3.455 -0.229,-0.571 -1.113,-1.076 -2.653,-1.527 -1.676,-0.479 -3.606,-0.722 -5.788,-0.722 -3.606,0 -6.609,1.01 -9.01,3.014 -2.433,2.023 -3.652,4.63 -3.652,7.824 0,3.247 1.258,5.927 3.773,8.077 2.424,2.098 5.352,3.126 8.786,3.126 2.434,0 4.479,-0.263 6.133,-0.827 1.469,-0.479 2.233,-0.927 2.291,-1.345 0.126,-0.814 0.19,-2.131 0.19,-3.958 0,-0.297 -0.293,-0.48 -0.88,-0.546 -0.448,-0.032 -0.722,0.106 -0.826,0.404 -0.609,1.827 -1.421,3.101 -2.437,3.795 -1.017,0.705 -2.541,1.057 -4.575,1.057 -2.548,0 -4.627,-0.789 -6.236,-2.358 -1.746,-1.702 -2.618,-4.049 -2.618,-7.039 0,-2.952 0.918,-5.333 2.756,-7.145 1.791,-1.81 4.083,-2.699 6.873,-2.699 1.815,0 3.246,0.378 4.291,1.095 0.999,0.695 1.815,1.834 2.446,3.43 0.183,0.461 0.598,0.629 1.24,0.497 C -0.178,0.588 0.033,0.377 0,0"
             style="fill:#4f4f50;fill-opacity:1;fill-rule:nonzero;stroke:none"
             id="path74"
             inkscape:connector-curvature="0" /></g><g
           id="g76"
           transform="translate(118.2256,173.3662)"><path
             d="m 0,0 c 0,0.582 -0.256,1.095 -0.767,1.551 -0.511,0.442 -1.14,0.648 -1.886,0.648 -2.114,0 -3.17,-1.413 -3.17,-4.248 l 0,-0.39 4.686,1.324 C -0.378,-0.91 0,-0.554 0,0 m 4.083,-6.449 c 0,-0.463 -0.666,-1.044 -1.999,-1.71 -1.516,-0.761 -3.071,-1.157 -4.669,-1.157 -1.733,0 -3.193,0.548 -4.376,1.605 -1.263,1.112 -1.893,2.623 -1.893,4.494 0,2.122 0.706,3.827 2.118,5.097 1.32,1.213 2.94,1.814 4.859,1.814 1.136,0 2.198,-0.344 3.187,-1.031 C 2.193,2.065 2.779,1.397 3.067,0.625 3.17,0.343 3.325,0.194 3.532,0.17 3.83,0.116 3.979,-0.081 3.979,-0.405 c 0,-0.433 -0.562,-0.808 -1.688,-1.116 l -7.942,-2.193 c 0.517,-2.559 1.919,-3.82 4.204,-3.82 1.32,0 2.824,0.451 4.514,1.344 0.251,0.135 0.499,0.204 0.741,0.204 0.183,0 0.275,-0.155 0.275,-0.463"
             style="fill:#4f4f50;fill-opacity:1;fill-rule:nonzero;stroke:none"
             id="path78"
             inkscape:connector-curvature="0" /></g><g
           id="g80"
           transform="translate(142.9629,164.499)"><path
             d="m 0,0 c 0,-0.333 -0.257,-0.483 -0.774,-0.447 -2.47,0.114 -4.342,0.135 -5.617,0.079 -0.654,-0.052 -1.01,0.018 -1.067,0.207 -0.023,0.078 -0.035,0.153 -0.035,0.277 0,0.214 0.333,0.415 0.999,0.592 0.609,0.161 0.913,0.698 0.913,1.645 l 0,4.262 c 0,2.452 -1.143,3.681 -3.428,3.681 -1.023,0 -1.971,-0.21 -2.843,-0.657 -0.826,-0.447 -1.239,-0.907 -1.239,-1.373 l 0,-5.87 c 0,-1.027 0.706,-1.577 2.118,-1.688 0.54,-0.053 0.81,-0.215 0.81,-0.485 0,-0.271 -0.075,-0.427 -0.226,-0.488 -0.067,-0.027 -0.263,-0.033 -0.584,-0.02 -1.803,0.078 -3.663,-0.027 -5.582,-0.243 -0.413,-0.067 -0.672,-0.089 -0.775,-0.061 -0.23,0.053 -0.344,0.221 -0.344,0.506 0,0.245 0.327,0.481 0.982,0.653 0.609,0.165 0.914,0.891 0.914,2.148 l 0,4.852 c 0,0.838 -0.116,1.343 -0.345,1.582 -0.163,0.162 -0.696,0.371 -1.602,0.664 -0.231,0.08 -0.345,0.228 -0.345,0.455 0,0.207 0.235,0.404 0.705,0.565 0.644,0.216 1.351,0.577 2.121,1.076 0.642,0.395 1.055,0.609 1.239,0.609 0.311,0 0.516,-0.334 0.622,-0.995 0.102,-0.645 0.244,-0.972 0.429,-0.972 -0.092,0 0.495,0.314 1.757,0.94 1.264,0.622 2.51,0.932 3.739,0.932 2.973,0 4.473,-1.575 4.496,-4.751 l 0.035,-5.16 c 0,-0.676 0.183,-1.152 0.551,-1.441 0.274,-0.2 0.809,-0.378 1.602,-0.527 C -0.257,0.437 0,0.262 0,0"
             style="fill:#4f4f50;fill-opacity:1;fill-rule:nonzero;stroke:none"
             id="path82"
             inkscape:connector-curvature="0" /></g><g
           id="g84"
           transform="translate(154.0415,165.7168)"><path
             d="m 0,0 c 0,-0.498 -0.506,-0.947 -1.516,-1.301 -0.896,-0.324 -1.803,-0.486 -2.723,-0.486 -2.491,0 -3.739,1.237 -3.739,3.713 l 0,5.805 c 0,0.734 -0.064,1.19 -0.188,1.353 C -8.293,9.25 -8.711,9.415 -9.424,9.58 -9.608,9.633 -9.7,9.802 -9.7,10.085 c 0,0.311 0.07,0.502 0.207,0.55 1.24,0.573 2.321,1.594 3.24,3.056 0.127,0.204 0.371,0.281 0.739,0.189 0.254,-0.059 0.386,-0.209 0.396,-0.405 l 0.07,-2.01 c 0,-0.148 0.028,-0.257 0.087,-0.325 0.078,-0.089 0.263,-0.141 0.55,-0.141 l 3.841,0 c 0.219,0 0.219,-0.253 0,-0.751 C -0.833,9.639 -1.223,9.336 -1.741,9.336 l -2.601,0 C -4.79,9.336 -5.066,9.247 -5.169,9.112 -5.249,9.03 -5.291,8.755 -5.291,8.321 l 0,-5.251 c 0,-1.318 0.128,-2.166 0.381,-2.503 0.333,-0.452 1.108,-0.691 2.326,-0.691 0.402,0 0.89,0.079 1.464,0.193 0.575,0.117 0.879,0.193 0.912,0.193 C -0.068,0.262 0,0.162 0,0"
             style="fill:#4f4f50;fill-opacity:1;fill-rule:nonzero;stroke:none"
             id="path86"
             inkscape:connector-curvature="0" /></g><g
           id="g88"
           transform="translate(167.3423,175.6006)"><path
             d="m 0,0 c 0,-1.294 -0.402,-1.928 -1.208,-1.928 -0.126,0 -0.544,0.054 -1.257,0.205 -0.713,0.15 -1.235,0.24 -1.568,0.24 -1.286,0 -1.929,-0.818 -1.929,-2.428 l 0,-4.75 c 0,-0.547 0.205,-0.947 0.619,-1.183 0.241,-0.136 0.845,-0.332 1.808,-0.549 0.519,-0.133 0.778,-0.3 0.778,-0.566 0,-0.286 -0.042,-0.463 -0.13,-0.503 -0.085,-0.069 -0.302,-0.087 -0.648,-0.047 -2.525,0.234 -4.523,0.246 -5.993,0.04 -0.459,-0.094 -0.752,-0.094 -0.879,0 -0.103,0.044 -0.155,0.238 -0.155,0.55 0,0.284 0.319,0.531 0.955,0.695 0.638,0.163 0.957,0.678 0.957,1.541 l 0,5.151 c 0,0.689 -0.094,1.142 -0.283,1.36 -0.191,0.254 -0.711,0.567 -1.56,0.953 l -0.105,0.061 c -0.229,0.096 -0.344,0.244 -0.344,0.445 0,0.204 0.235,0.381 0.707,0.532 0.793,0.271 1.516,0.62 2.171,1.094 0.54,0.408 0.885,0.593 1.033,0.593 0.413,0 0.661,-0.33 0.742,-0.98 0.104,-0.863 0.224,-1.277 0.36,-1.277 0.012,0 0.656,0.397 1.929,1.197 0.841,0.54 1.758,0.792 2.758,0.792 C -0.414,1.238 0,0.838 0,0"
             style="fill:#4f4f50;fill-opacity:1;fill-rule:nonzero;stroke:none"
             id="path90"
             inkscape:connector-curvature="0" /></g><g
           id="g92"
           transform="translate(178.3838,173.3662)"><path
             d="m 0,0 c 0,0.582 -0.257,1.095 -0.766,1.551 -0.512,0.442 -1.143,0.648 -1.888,0.648 -2.115,0 -3.17,-1.413 -3.17,-4.248 l 0,-0.39 4.686,1.324 C -0.38,-0.91 0,-0.554 0,0 m 4.083,-6.449 c 0,-0.463 -0.666,-1.044 -1.999,-1.71 -1.515,-0.761 -3.071,-1.157 -4.668,-1.157 -1.734,0 -3.193,0.548 -4.375,1.605 -1.264,1.112 -1.897,2.623 -1.897,4.494 0,2.122 0.707,3.827 2.119,5.097 1.321,1.213 2.942,1.814 4.86,1.814 1.135,0 2.197,-0.344 3.185,-1.031 C 2.193,2.065 2.779,1.397 3.065,0.625 3.169,0.343 3.326,0.194 3.531,0.17 3.829,0.116 3.979,-0.081 3.979,-0.405 3.979,-0.838 3.417,-1.213 2.291,-1.521 L -5.65,-3.714 c 0.516,-2.559 1.918,-3.82 4.203,-3.82 1.322,0 2.824,0.451 4.512,1.344 0.253,0.135 0.501,0.204 0.743,0.204 0.181,0 0.275,-0.155 0.275,-0.463"
             style="fill:#4f4f50;fill-opacity:1;fill-rule:nonzero;stroke:none"
             id="path94"
             inkscape:connector-curvature="0" /></g><g
           id="g96"
           transform="translate(225.9062,173.0015)"><path
             d="m 0,0 c -0.755,1.613 -1.939,4.092 -3.545,7.467 -0.095,0.178 -0.197,0.286 -0.31,0.286 -0.116,0 -0.215,-0.108 -0.292,-0.286 L -7.44,0.07 c 1.229,-0.096 2.608,-0.137 4.132,-0.137 0.944,0 2.044,0.016 3.308,0.067 M 9.354,-8.462 C 9.29,-8.749 9.215,-8.922 9.13,-8.986 9.065,-9.014 8.901,-9.011 8.647,-8.95 7.004,-8.676 4.608,-8.639 1.449,-8.853 0.851,-8.881 0.525,-8.788 0.465,-8.532 c -0.053,0.3 0.132,0.536 0.573,0.697 1.239,0.475 1.861,0.907 1.861,1.31 0,0.156 -0.073,0.402 -0.212,0.699 -0.844,1.895 -1.552,3.429 -2.114,4.569 -0.816,-0.042 -2.252,-0.055 -4.308,-0.055 -1.702,0 -3.148,0.029 -4.343,0.135 -0.401,-0.921 -0.963,-2.219 -1.688,-3.856 -0.16,-0.392 -0.241,-0.725 -0.241,-1.029 0,-0.602 0.35,-1.034 1.05,-1.307 1.082,-0.418 1.609,-0.749 1.586,-0.991 -0.025,-0.346 -0.385,-0.496 -1.085,-0.428 -2.158,0.23 -4.156,0.149 -5.996,-0.198 -0.48,-0.085 -0.753,0.076 -0.81,0.482 -0.046,0.283 0.33,0.583 1.121,0.9 0.848,0.333 1.568,1.096 2.153,2.301 2.241,4.532 3.688,7.523 4.342,8.929 1.586,3.413 2.702,6.204 3.358,8.369 0.094,0.338 0.546,0.649 1.361,0.934 0.197,0.074 0.442,-0.234 0.74,-0.934 C 0.296,6.423 3.075,0.48 6.155,-5.865 6.646,-6.859 7.477,-7.537 8.647,-7.874 9.181,-8.01 9.416,-8.217 9.354,-8.462"
             style="fill:#4f4f50;fill-opacity:1;fill-rule:nonzero;stroke:none"
             id="path98"
             inkscape:connector-curvature="0" /></g><g
           id="g100"
           transform="translate(248.7178,175.6006)"><path
             d="m 0,0 c 0,-1.294 -0.402,-1.928 -1.208,-1.928 -0.125,0 -0.544,0.054 -1.257,0.205 -0.712,0.15 -1.23,0.24 -1.564,0.24 -1.285,0 -1.931,-0.818 -1.931,-2.428 l 0,-4.75 c 0,-0.547 0.203,-0.947 0.621,-1.183 0.241,-0.136 0.845,-0.332 1.807,-0.549 0.518,-0.133 0.779,-0.3 0.779,-0.566 0,-0.286 -0.047,-0.463 -0.131,-0.503 -0.086,-0.069 -0.306,-0.087 -0.648,-0.047 -2.525,0.234 -4.526,0.246 -5.993,0.04 -0.458,-0.094 -0.754,-0.094 -0.883,0 -0.102,0.044 -0.153,0.238 -0.153,0.55 0,0.284 0.322,0.531 0.954,0.695 0.641,0.163 0.958,0.678 0.958,1.541 l 0,5.151 c 0,0.689 -0.093,1.142 -0.279,1.36 -0.195,0.254 -0.711,0.567 -1.562,0.953 l -0.104,0.061 c -0.229,0.096 -0.344,0.244 -0.344,0.445 0,0.204 0.235,0.381 0.707,0.532 0.79,0.271 1.516,0.62 2.168,1.094 0.541,0.408 0.889,0.593 1.032,0.593 0.417,0 0.666,-0.33 0.742,-0.98 0.103,-0.863 0.225,-1.277 0.362,-1.277 0.014,0 0.655,0.397 1.926,1.197 0.842,0.54 1.759,0.792 2.762,0.792 C -0.411,1.238 0,0.838 0,0"
             style="fill:#4f4f50;fill-opacity:1;fill-rule:nonzero;stroke:none"
             id="path102"
             inkscape:connector-curvature="0" /></g><g
           id="g104"
           transform="translate(261.9824,167.3799)"><path
             d="m 0,0 0,5.744 c 0,0.473 -0.451,0.966 -1.342,1.48 -0.955,0.515 -1.989,0.79 -3.1,0.79 -2.403,0 -3.604,-1.384 -3.604,-4.147 0,-1.473 0.474,-2.745 1.428,-3.786 0.956,-1.043 2.074,-1.581 3.359,-1.581 0.586,0 1.277,0.188 2.072,0.565 C -0.396,-0.592 0,-0.276 0,0 M 5.324,-1.584 C 5.371,-1.69 5.391,-1.752 5.391,-1.807 5.391,-2.013 4.805,-2.395 3.634,-2.911 2.281,-3.506 1.483,-3.795 1.24,-3.795 c -0.204,0 -0.443,0.328 -0.714,0.984 -0.273,0.65 -0.457,0.963 -0.559,0.963 0.013,0 -0.645,-0.286 -1.954,-0.841 -1.316,-0.552 -2.316,-0.847 -2.992,-0.847 -1.515,0 -2.833,0.505 -3.943,1.533 -1.347,1.217 -2.017,2.916 -2.017,5.083 0,1.842 0.789,3.41 2.379,4.753 1.401,1.152 2.832,1.735 4.288,1.735 1.033,0 2.27,-0.123 3.702,-0.354 0.452,-0.093 0.676,0.034 0.676,0.354 l 0,5.509 c 0,0.62 -0.164,1.059 -0.483,1.301 -0.209,0.177 -0.694,0.392 -1.468,0.61 -0.367,0.129 -0.549,0.346 -0.549,0.629 0,0.268 0.248,0.466 0.744,0.59 0.674,0.201 1.483,0.526 2.424,0.972 0.781,0.381 1.265,0.57 1.446,0.57 0.428,0 0.64,-0.265 0.64,-0.81 0,0.006 -0.018,-0.522 -0.052,-1.597 C 2.777,16.267 2.757,15.227 2.757,14.191 l 0,-14.596 c 0,-0.611 0.289,-0.913 0.877,-0.913 0.219,0 0.513,0.039 0.88,0.094 0.4,0.068 0.672,-0.047 0.81,-0.36"
             style="fill:#4f4f50;fill-opacity:1;fill-rule:nonzero;stroke:none"
             id="path106"
             inkscape:connector-curvature="0" /></g><g
           id="g108"
           transform="translate(278.1787,173.3662)"><path
             d="m 0,0 c 0,0.582 -0.258,1.095 -0.771,1.551 -0.507,0.442 -1.139,0.648 -1.882,0.648 -2.114,0 -3.171,-1.413 -3.171,-4.248 l 0,-0.39 4.685,1.324 C -0.38,-0.91 0,-0.554 0,0 M -1.174,6.15 C -1.044,6 -1.119,5.852 -1.377,5.703 -1.757,5.475 -2.069,5.461 -2.308,5.662 c -1.577,1.28 -3.044,2.68 -4.417,4.234 -0.249,0.368 -0.373,0.645 -0.373,0.861 0,0.186 0.247,0.396 0.745,0.671 0.503,0.287 0.984,0.425 1.443,0.425 0.254,0 0.529,-0.155 0.846,-0.465 0.132,-0.14 0.474,-0.826 1.013,-2.03 C -2.479,8.05 -1.849,6.979 -1.174,6.15 M 4.082,-6.449 c 0,-0.463 -0.667,-1.044 -2,-1.71 -1.514,-0.761 -3.074,-1.157 -4.668,-1.157 -1.731,0 -3.194,0.548 -4.379,1.605 -1.263,1.112 -1.889,2.623 -1.889,4.494 0,2.122 0.705,3.827 2.117,5.097 1.317,1.213 2.937,1.814 4.858,1.814 1.136,0 2.197,-0.344 3.19,-1.031 C 2.191,2.065 2.777,1.397 3.065,0.625 3.17,0.343 3.318,0.194 3.53,0.17 3.828,0.116 3.979,-0.081 3.979,-0.405 c 0,-0.433 -0.564,-0.808 -1.692,-1.116 l -7.943,-2.193 c 0.52,-2.559 1.924,-3.82 4.205,-3.82 1.324,0 2.827,0.451 4.516,1.344 0.249,0.135 0.497,0.204 0.739,0.204 0.188,0 0.278,-0.155 0.278,-0.463"
             style="fill:#4f4f50;fill-opacity:1;fill-rule:nonzero;stroke:none"
             id="path110"
             inkscape:connector-curvature="0" /></g><g
           id="g112"
           transform="translate(297.0566,166.2959)"><path
             d="m 0,0 c 0,-0.41 -0.593,-0.895 -1.774,-1.453 -1.288,-0.609 -2.557,-0.913 -3.805,-0.913 -1.951,0 -3.553,0.519 -4.79,1.541 -1.298,1.096 -1.944,2.56 -1.944,4.427 0,2.001 0.742,3.665 2.234,5.01 1.463,1.277 3.254,1.93 5.376,1.93 1.284,0 2.408,-0.177 3.362,-0.516 0.87,-0.318 1.306,-0.649 1.306,-1.027 0,-0.229 -0.215,-0.624 -0.643,-1.124 -0.428,-0.488 -0.782,-0.759 -1.06,-0.759 -0.173,0 -0.568,0.246 -1.191,0.705 -1.16,0.841 -2.064,1.277 -2.719,1.277 C -6.685,9.098 -7.53,8.742 -8.202,8.01 -8.9,7.225 -9.253,6.129 -9.253,4.736 c 0,-1.676 0.508,-3.032 1.517,-4.038 0.923,-0.906 2.028,-1.361 3.328,-1.361 1.287,0 2.497,0.339 3.637,0.988 0.102,0.069 0.24,0.109 0.408,0.109 C -0.121,0.434 0,0.291 0,0"
             style="fill:#4f4f50;fill-opacity:1;fill-rule:nonzero;stroke:none"
             id="path114"
             inkscape:connector-curvature="0" /></g><g
           id="g116"
           transform="translate(317.4697,164.5981)"><path
             d="m 0,0 c 0,-0.364 -0.258,-0.533 -0.771,-0.507 -2.882,0.085 -4.755,0.11 -5.619,0.058 -0.422,-0.017 -0.674,-0.023 -0.756,-0.007 -0.22,0.038 -0.332,0.214 -0.332,0.499 0,0.213 0.332,0.416 0.986,0.585 0.435,0.141 0.713,0.324 0.828,0.606 0.055,0.151 0.085,0.478 0.085,1.021 l 0,4.341 c 0,2.497 -1.136,3.747 -3.412,3.747 -1.011,0 -1.956,-0.215 -2.839,-0.66 -0.84,-0.436 -1.261,-0.87 -1.261,-1.28 l 0,-6.11 c 0,-1.041 0.705,-1.628 2.116,-1.764 0.545,-0.042 0.812,-0.203 0.812,-0.486 0,-0.195 -0.037,-0.343 -0.12,-0.407 -0.081,-0.069 -0.309,-0.089 -0.692,-0.085 -1.821,0.064 -3.683,0.017 -5.578,-0.134 -0.41,-0.025 -0.671,-0.025 -0.773,-0.011 -0.23,0.04 -0.343,0.209 -0.343,0.495 0,0.253 0.325,0.436 0.977,0.592 0.609,0.16 0.914,0.751 0.914,1.762 l 0,14.538 c 0,0.838 -0.093,1.454 -0.275,1.847 -0.265,0.502 -0.791,0.899 -1.586,1.131 -0.31,0.103 -0.467,0.274 -0.467,0.546 0,0.172 0.236,0.353 0.708,0.548 0.631,0.265 1.435,0.671 2.415,1.171 0.627,0.329 1.062,0.495 1.291,0.495 0.424,0 0.636,-0.264 0.636,-0.81 0,0.006 -0.019,-0.523 -0.05,-1.597 -0.036,-1.076 -0.053,-2.114 -0.053,-3.151 l 0,-5.484 c 0,-0.583 0.09,-0.874 0.277,-0.874 -0.104,0 0.475,0.308 1.731,0.924 1.256,0.617 2.447,0.923 3.571,0.923 3.057,0 4.598,-1.589 4.621,-4.752 L -2.926,2.293 C -2.917,1.212 -2.198,0.609 -0.771,0.471 -0.258,0.432 0,0.271 0,0"
             style="fill:#4f4f50;fill-opacity:1;fill-rule:nonzero;stroke:none"
             id="path118"
             inkscape:connector-curvature="0" /></g><g
           id="g120"
           transform="translate(327.9492,173.3662)"><path
             d="m 0,0 c 0,0.582 -0.257,1.095 -0.771,1.551 -0.508,0.442 -1.138,0.648 -1.885,0.648 -2.114,0 -3.171,-1.413 -3.171,-4.248 l 0,-0.39 4.686,1.324 C -0.382,-0.91 0,-0.554 0,0 m 4.083,-6.449 c 0,-0.463 -0.672,-1.044 -2,-1.71 -1.514,-0.761 -3.075,-1.157 -4.668,-1.157 -1.734,0 -3.194,0.548 -4.379,1.605 -1.263,1.112 -1.894,2.623 -1.894,4.494 0,2.122 0.707,3.827 2.12,5.097 1.321,1.213 2.938,1.814 4.859,1.814 1.137,0 2.198,-0.344 3.185,-1.031 C 2.192,2.065 2.777,1.397 3.064,0.625 3.165,0.343 3.322,0.194 3.527,0.17 3.829,0.116 3.978,-0.081 3.978,-0.405 c 0,-0.433 -0.567,-0.808 -1.689,-1.116 l -7.943,-2.193 c 0.519,-2.559 1.92,-3.82 4.204,-3.82 1.322,0 2.827,0.451 4.514,1.344 0.251,0.135 0.499,0.204 0.741,0.204 0.181,0 0.278,-0.155 0.278,-0.463"
             style="fill:#4f4f50;fill-opacity:1;fill-rule:nonzero;stroke:none"
             id="path122"
             inkscape:connector-curvature="0" /></g><g
           id="g124"
           transform="translate(232.3057,143.6831)"><path
             d="M 0,0 86.785,0"
             style="fill:#ec6628;fill-opacity:1;fill-rule:nonzero;stroke:none"
             id="path126"
             inkscape:connector-curvature="0" /></g><g
           id="g128"
           transform="translate(232.3057,143.7485)"><path
             d="m 0,0 c 0,0 0.339,0.021 0.97,0.062 0.637,0.012 1.571,0.071 2.758,0.119 1.188,0.044 2.625,0.084 4.276,0.164 1.656,0.051 3.52,0.129 5.555,0.176 2.032,0.028 4.234,0.082 6.564,0.148 2.332,0.035 4.79,0.112 7.333,0.117 5.085,0.047 10.511,0.071 15.935,0.11 C 48.816,0.855 54.237,0.833 59.326,0.786 61.868,0.781 64.327,0.7 66.658,0.666 68.987,0.6 71.19,0.548 73.227,0.517 75.259,0.472 77.123,0.393 78.777,0.34 80.431,0.263 81.869,0.223 83.056,0.179 84.241,0.133 85.173,0.073 85.813,0.062 86.445,0.021 86.785,0 86.785,0 l 0,-0.094 c 0,0 -21.698,-0.035 -43.394,-0.066 L 0,-0.094 0,0 z"
             style="fill:#ed6b25;fill-opacity:1;fill-rule:nonzero;stroke:none"
             id="path130"
             inkscape:connector-curvature="0" /></g><g
           id="g132"
           transform="translate(201.8228,189.5479)"><path
             d="m 0,0 c 0.34,0.213 0.221,4.37 -1.18,8.191 -0.599,1.647 -1.386,3.782 -3.249,5.17 -0.588,0.432 -2.9,2.078 -6.045,0.807 -4.074,-1.659 -6.412,-6.934 -6.954,-8.162 -2.67,-6.029 -2.036,-11.845 -1.716,-14.781 0.562,-5.13 2.2,-8.29 3.661,-11.091 2.022,-3.895 4.17,-6.133 6.386,-8.436 2.157,-2.222 4.717,-4.416 4.917,-4.075 0.177,0.296 -1.68,2.354 -4.677,6.837 -2.512,3.769 -3.768,5.66 -4.699,8.166 -0.691,1.869 -2.037,5.662 -1.878,11.213 0.092,3.24 0.219,7.655 2.622,11.151 2.086,3.047 4.643,3.603 4.859,3.637 2.022,0.39 3.388,-0.69 4.053,-1.232 C -0.771,4.817 -0.379,-0.267 0,0"
             style="fill:#96c22c;fill-opacity:1;fill-rule:evenodd;stroke:none"
             id="path134"
             inkscape:connector-curvature="0" /></g><g
           id="g136"
           transform="translate(204.9141,181.0425)"><path
             d="m 0,0 c 0,-3.193 -2.773,-5.788 -6.195,-5.788 -3.42,0 -6.192,2.595 -6.192,5.788 0,3.177 2.772,5.764 6.192,5.764 C -2.773,5.764 0,3.177 0,0"
             style="fill:#fae100;fill-opacity:1;fill-rule:evenodd;stroke:none"
             id="path138"
             inkscape:connector-curvature="0" /></g><g
           id="g140"
           transform="translate(180.564,189.6982)"><path
             d="m 0,0 c 0.287,0.022 -1.014,3.3 0.428,7.767 0.486,1.504 1.233,3.712 3.627,5.761 0.77,0.648 2.872,2.449 6.183,3.036 4.299,0.77 7.563,-1.027 7.892,-0.509 0.319,0.515 -2.375,2.81 -5.972,3.216 C 8.241,19.716 5.096,17.71 3.841,16.908 0.566,14.812 -0.626,12.172 -1.064,11.149 -3.563,5.387 -0.373,-0.051 0,0"
             style="fill:#5b6a8c;fill-opacity:1;fill-rule:evenodd;stroke:none"
             id="path142"
             inkscape:connector-curvature="0" /></g><g
           id="g144"
           transform="translate(177.123,195.6606)"><path
             d="m 0,0 c 0.289,0.038 -1.025,2.992 0.431,7.031 0.49,1.364 1.245,3.36 3.66,5.207 0.778,0.595 2.901,2.221 6.244,2.757 4.342,0.695 7.637,-0.934 7.969,-0.46 0.321,0.461 -2.399,2.541 -6.03,2.911 C 8.321,17.844 5.144,16.029 3.876,15.3 0.57,13.412 -0.632,11.015 -1.076,10.093 -3.597,4.865 -0.375,-0.051 0,0"
             style="fill:#8a7860;fill-opacity:1;fill-rule:evenodd;stroke:none"
             id="path146"
             inkscape:connector-curvature="0" /></g><g
           id="g148"
           transform="translate(203.7041,198.8257)"><path
             d="m 0,0 c -0.108,0.496 2.948,5.239 6.78,8.73 1.645,1.488 3.79,3.434 6.261,3.78 0.775,0.109 3.791,0.45 5.381,-3.165 2.053,-4.692 0.145,-12.426 -0.296,-14.21 -2.18,-8.829 -6.818,-15.134 -9.171,-18.328 -4.099,-5.583 -7.647,-8.114 -10.814,-10.404 -4.375,-3.131 -7.671,-4.272 -11.068,-5.417 -3.309,-1.146 -6.898,-1.95 -6.819,-1.413 0.073,0.47 3.016,1.589 8.593,4.772 4.675,2.664 7.013,3.989 9.552,6.286 1.881,1.707 5.638,5.165 9.47,11.733 2.242,3.829 5.284,9.028 5.874,14.737 0.511,4.957 -1.132,7.331 -1.272,7.518 C 11.141,6.451 9.287,6.127 8.373,5.953 4.056,5.084 0.123,-0.542 0,0"
             style="fill:#96c22c;fill-opacity:1;fill-rule:evenodd;stroke:none"
             id="path150"
             inkscape:connector-curvature="0" /></g></g></g></g></svg>