<?xml version="1.0" encoding="UTF-8" standalone="no"?>
<!-- Created with Inkscape (http://www.inkscape.org/) -->

<svg
   xmlns:dc="http://purl.org/dc/elements/1.1/"
   xmlns:cc="http://creativecommons.org/ns#"
   xmlns:rdf="http://www.w3.org/1999/02/22-rdf-syntax-ns#"
   xmlns:svg="http://www.w3.org/2000/svg"
   xmlns="http://www.w3.org/2000/svg"
   xmlns:sodipodi="http://sodipodi.sourceforge.net/DTD/sodipodi-0.dtd"
   xmlns:inkscape="http://www.inkscape.org/namespaces/inkscape"
   id="svg2"
   version="1.1"
   inkscape:version="0.48.4 r9939"
   width="890"
   height="500"
   xml:space="preserve"
   sodipodi:docname="CAPCA-logotype.svg"><metadata
     id="metadata8"><rdf:RDF><cc:Work
         rdf:about=""><dc:format>image/svg+xml</dc:format><dc:type
           rdf:resource="http://purl.org/dc/dcmitype/StillImage" /><dc:title /></cc:Work></rdf:RDF></metadata><defs
     id="defs6"><clipPath
       clipPathUnits="userSpaceOnUse"
       id="clipPath18"><path
         d="m 0,311.806 538.583,0 L 538.583,0 0,0 0,311.806 z"
         id="path20"
         inkscape:connector-curvature="0" /></clipPath></defs><sodipodi:namedview
     pagecolor="#ffffff"
     bordercolor="#666666"
     borderopacity="1"
     objecttolerance="10"
     gridtolerance="10"
     guidetolerance="10"
     inkscape:pageopacity="0"
     inkscape:pageshadow="2"
     inkscape:window-width="1600"
     inkscape:window-height="876"
     id="namedview4"
     showgrid="false"
     inkscape:zoom="0.76673485"
     inkscape:cx="336.61438"
     inkscape:cy="194.87875"
     inkscape:window-x="0"
     inkscape:window-y="24"
     inkscape:window-maximized="1"
     inkscape:current-layer="g10" /><g
     id="g10"
     inkscape:groupmode="layer"
     inkscape:label="CAPCA-logotype"
     transform="matrix(1.25,0,0,-1.25,0,499.99999)"><path
       d="m 705.77031,6.0136797 -701.8434012,0 0,389.9068903 701.8434012,0 0,-389.9068903 z"
       style="fill:#ffffff;fill-opacity:1;fill-rule:nonzero;stroke:#2d2c2e;stroke-width:1.37552702;stroke-linecap:butt;stroke-linejoin:miter;stroke-miterlimit:10;stroke-opacity:1;stroke-dasharray:none"
       id="path12"
       inkscape:connector-curvature="0" /><g
       id="g14"
       transform="matrix(1.375527,0,0,1.375527,-15.568436,-13.481665)"><g
         id="g16"
         clip-path="url(#clipPath18)"><g
           id="g22"
           transform="translate(314.1532,231.6166)"><path
             d="m 0,0 c -8.221,-1.173 -14.207,-8.057 -14.543,-16.065 -4.89,1.173 -9.985,1.814 -15.23,1.814 l -0.001,0 c -2.752,0 -5.46,-0.192 -8.123,-0.524 0.944,18.895 15.143,35.09 34.574,37.863 C 13.294,25.459 28.987,17.333 37.055,3.746 30.043,0.164 23.542,-4.277 17.683,-9.432 14.56,-2.946 7.505,1.072 0,0"
             style="fill:#f9b301;fill-opacity:1;fill-rule:nonzero;stroke:none"
             id="path24"
             inkscape:connector-curvature="0" /></g><g
           id="g26"
           transform="translate(225.535,180.2387)"><path
             d="m 0,0 c -4.042,-8.434 -6.32,-17.865 -6.361,-27.816 l -160.739,0 L -167.1,0 0,0 z"
             style="fill:#44abdd;fill-opacity:1;fill-rule:nonzero;stroke:none"
             id="path28"
             inkscape:connector-curvature="0" /></g><g
           id="g30"
           transform="translate(70.412,124.3734)"><path
             d="m 0,0 c 1.666,0 2.045,0.341 2.045,1.477 l 0,2.422 0,0.265 C 1.931,5.11 1.628,5.414 0.53,5.566 l -0.341,0 -5.905,0 L -5.716,0 0,0 z m -11.584,11.433 13.629,0 c 1.968,0 3.218,-0.492 4.277,-1.514 1.023,-0.984 1.59,-2.271 1.59,-3.899 l 0,-6.702 c 0,-1.741 -0.529,-2.99 -1.628,-4.012 C 5.263,-5.602 4.202,-6.02 2.499,-6.02 l -8.215,0 0,-9.804 -5.868,0 0,27.257 z"
             style="fill:#747577;fill-opacity:1;fill-rule:nonzero;stroke:none"
             id="path32"
             inkscape:connector-curvature="0" /></g><g
           id="g34"
           transform="translate(94.7528,135.8061)"><path
             d="m 0,0 c 3.256,0 5.111,-1.514 5.565,-4.467 0.076,-0.379 0.076,-0.72 0.076,-1.06 l 0,-5.452 c 0,-0.378 0,-0.756 -0.076,-1.135 -0.492,-2.461 -2.082,-3.975 -4.391,-4.316 -0.341,-0.038 -0.682,-0.076 -1.023,-0.076 l -0.908,0.038 6.663,-10.789 -6.929,0 -6.169,10.146 c -0.341,0.53 -0.531,1.249 -0.456,2.12 0.19,2.271 1.515,3.445 3.522,3.445 l 2.385,0 c 1.097,0 1.551,0.454 1.551,1.552 l 0,2.499 c 0,0.946 -0.416,1.438 -1.438,1.59 -0.113,0.038 -0.265,0.038 -0.378,0.038 l -5.83,0 0,-21.39 -5.868,0 0,27.257 L 0,0 z"
             style="fill:#747577;fill-opacity:1;fill-rule:nonzero;stroke:none"
             id="path36"
             inkscape:connector-curvature="0" /></g><path
           d="m 103.647,135.806 5.868,0 0,-27.257 -5.868,0 0,27.257 z"
           style="fill:#747577;fill-opacity:1;fill-rule:nonzero;stroke:none"
           id="path38"
           inkscape:connector-curvature="0" /><g
           id="g40"
           transform="translate(117.0858,135.8061)"><path
             d="M 0,0 5.83,-19.383 11.811,0 17.982,0 9.956,-24.229 c -0.757,-2.308 -2.119,-3.369 -4.05,-3.369 -1.968,0 -3.332,1.098 -4.089,3.369 L -6.208,0 0,0 z"
             style="fill:#747577;fill-opacity:1;fill-rule:nonzero;stroke:none"
             id="path42"
             inkscape:connector-curvature="0" /></g><g
           id="g44"
           transform="translate(145.2186,119.9818)"><path
             d="M 0,0 -2.764,8.821 -4.808,0 0,0 z m -7.004,12.455 c 0.758,2.385 2.386,3.635 4.619,3.635 2.196,0 3.862,-1.25 4.58,-3.635 l 7.534,-23.888 -6.132,0 -1.856,5.869 -8.291,0 -1.854,-5.869 -6.133,0 7.533,23.888 z"
             style="fill:#747577;fill-opacity:1;fill-rule:nonzero;stroke:none"
             id="path46"
             inkscape:connector-curvature="0" /></g><g
           id="g48"
           transform="translate(156.4608,131.7934)"><path
             d="m 0,0 c 0.719,2.802 2.347,4.013 5.413,4.013 l 11.925,0 0,-5.867 -9.502,0 -0.378,0 -0.455,-0.039 C 6.435,-1.969 6.057,-2.195 5.83,-2.649 5.754,-2.839 5.716,-3.028 5.716,-3.218 l 0,-1.817 c 0,-0.113 0,-0.265 0.038,-0.378 0.151,-0.795 0.492,-1.061 1.476,-1.174 0.114,-0.038 0.265,-0.038 0.379,-0.038 l 4.24,0 c 2.991,0 4.808,-1.4 5.376,-4.24 0.076,-0.378 0.113,-0.757 0.113,-1.136 l 0,-5.489 c 0,-3.218 -1.741,-5.262 -4.883,-5.678 -0.341,-0.038 -0.644,-0.076 -0.984,-0.076 l -11.585,0 0,5.868 9.503,0 0.529,0 0.189,0 c 0.114,0.037 0.228,0.075 0.341,0.113 0.757,0.303 1.023,0.682 1.023,1.477 l 0,1.969 c 0,0.756 -0.379,1.211 -1.25,1.324 l -0.681,0 -4.202,0 c -1.931,0 -3.484,0.833 -4.581,2.423 -0.568,0.871 -0.908,1.893 -0.908,2.915 l 0,5.793 c 0,0.454 0.037,0.908 0.151,1.362"
             style="fill:#747577;fill-opacity:1;fill-rule:nonzero;stroke:none"
             id="path50"
             inkscape:connector-curvature="0" /></g><g
           id="g52"
           transform="translate(188.0682,129.598)"><path
             d="m 0,0 c 0,4.731 1.552,6.208 6.398,6.208 l 11.433,0 0,-5.867 -9.767,0 -0.531,0 -0.303,0 C 6.474,0.265 6.02,-0.151 5.868,-0.871 l 0,-0.682 0,-11.243 c 0,-1.817 0.341,-2.271 1.741,-2.385 l 0.493,0 9.729,0 0,-5.868 -12.304,0 c -0.605,0 -1.287,0.113 -2.045,0.416 C 1.174,-19.724 0,-17.906 0,-14.991 L 0,0 z"
             style="fill:#747577;fill-opacity:1;fill-rule:nonzero;stroke:none"
             id="path54"
             inkscape:connector-curvature="0" /></g><g
           id="g56"
           transform="translate(208.8876,129.9008)"><path
             d="m 0,0 c 0,0.416 0.038,0.833 0.113,1.211 0.492,3.104 2.386,4.694 5.566,4.694 l 12.114,0 0,-5.867 -9.578,0 -0.87,0 -0.115,0 C 7.079,0 6.966,0 6.853,-0.076 6.246,-0.303 5.868,-0.871 5.868,-1.704 l 0,-3.028 11.925,0 0,-5.869 -11.925,0 0,-3.028 c 0,-1.287 0.416,-1.741 1.514,-1.854 l 0.871,0 9.54,0 0,-5.869 -11.281,0 C 2.12,-21.352 0,-19.308 0,-15.673 L 0,0 z"
             style="fill:#747577;fill-opacity:1;fill-rule:nonzero;stroke:none"
             id="path58"
             inkscape:connector-curvature="0" /></g><g
           id="g60"
           transform="translate(229.9725,130.393)"><path
             d="M 0,0 C 0,4.24 3.143,6.7 6.776,5.375 8.328,4.808 9.464,3.482 10.032,1.249 l 4.126,-15.786 0,19.95 5.566,0 0,-22.562 c 0,-2.839 -2.082,-4.959 -4.771,-5.074 -2.536,-0.037 -4.315,1.402 -5.185,4.619 l -4.165,15.635 0,-19.875 -5.603,0 L 0,0 z"
             style="fill:#747577;fill-opacity:1;fill-rule:nonzero;stroke:none"
             id="path62"
             inkscape:connector-curvature="0" /></g><g
           id="g64"
           transform="translate(251.8895,135.8061)"><path
             d="m 0,0 17.566,0 0,-5.867 -5.868,0 0,-21.39 -5.868,0 0,21.39 -5.83,0 L 0,0 z"
             style="fill:#747577;fill-opacity:1;fill-rule:nonzero;stroke:none"
             id="path66"
             inkscape:connector-curvature="0" /></g><g
           id="g68"
           transform="translate(285.3543,135.8061)"><path
             d="m 0,0 c 3.256,0 5.111,-1.514 5.566,-4.467 0.075,-0.379 0.075,-0.72 0.075,-1.06 l 0,-5.452 c 0,-0.378 0,-0.756 -0.075,-1.135 -0.493,-2.461 -2.083,-3.975 -4.392,-4.316 -0.341,-0.038 -0.682,-0.076 -1.023,-0.076 l -0.908,0.038 6.663,-10.789 -6.928,0 -6.17,10.146 c -0.341,0.53 -0.531,1.249 -0.455,2.12 0.189,2.271 1.514,3.445 3.521,3.445 l 2.385,0 c 1.098,0 1.552,0.454 1.552,1.552 l 0,2.499 c 0,0.946 -0.416,1.438 -1.439,1.59 -0.113,0.038 -0.264,0.038 -0.378,0.038 l -5.83,0 0,-21.39 -5.868,0 0,27.257 L 0,0 z"
             style="fill:#747577;fill-opacity:1;fill-rule:nonzero;stroke:none"
             id="path70"
             inkscape:connector-curvature="0" /></g><g
           id="g72"
           transform="translate(294.2489,129.9008)"><path
             d="m 0,0 c 0,0.416 0.038,0.833 0.113,1.211 0.492,3.104 2.386,4.694 5.566,4.694 l 12.114,0 0,-5.867 -9.578,0 -0.87,0 -0.115,0 C 7.079,0 6.966,0 6.852,-0.076 6.246,-0.303 5.868,-0.871 5.868,-1.704 l 0,-3.028 11.925,0 0,-5.869 -11.925,0 0,-3.028 c 0,-1.287 0.416,-1.741 1.514,-1.854 l 0.871,0 9.54,0 0,-5.869 -11.281,0 C 2.12,-21.352 0,-19.308 0,-15.673 L 0,0 z"
             style="fill:#747577;fill-opacity:1;fill-rule:nonzero;stroke:none"
             id="path74"
             inkscape:connector-curvature="0" /></g><g
           id="g76"
           transform="translate(338.9178,119.9818)"><path
             d="M 0,0 -2.764,8.821 -4.808,0 0,0 z m -7.004,12.455 c 0.758,2.385 2.386,3.635 4.619,3.635 2.196,0 3.862,-1.25 4.58,-3.635 l 7.534,-23.888 -6.132,0 -1.856,5.869 -8.291,0 -1.854,-5.869 -6.133,0 7.533,23.888 z"
             style="fill:#747577;fill-opacity:1;fill-rule:nonzero;stroke:none"
             id="path78"
             inkscape:connector-curvature="0" /></g><g
           id="g80"
           transform="translate(363.9774,135.8061)"><path
             d="m 0,0 c 3.256,0 5.111,-1.514 5.565,-4.467 0.076,-0.379 0.076,-0.72 0.076,-1.06 l 0,-5.452 c 0,-0.378 0,-0.756 -0.076,-1.135 -0.492,-2.461 -2.082,-3.975 -4.391,-4.316 -0.341,-0.038 -0.682,-0.076 -1.023,-0.076 l -0.908,0.038 6.663,-10.789 -6.928,0 -6.17,10.146 c -0.341,0.53 -0.531,1.249 -0.455,2.12 0.189,2.271 1.514,3.445 3.521,3.445 l 2.385,0 c 1.097,0 1.551,0.454 1.551,1.552 l 0,2.499 c 0,0.946 -0.415,1.438 -1.438,1.59 -0.113,0.038 -0.265,0.038 -0.378,0.038 l -5.83,0 0,-21.39 -5.868,0 0,27.257 L 0,0 z"
             style="fill:#747577;fill-opacity:1;fill-rule:nonzero;stroke:none"
             id="path82"
             inkscape:connector-curvature="0" /></g><g
           id="g84"
           transform="translate(384.7586,114.4174)"><path
             d="m 0,0 c 1.553,0 1.894,0.341 2.007,1.968 0.038,0.114 0.038,0.265 0.038,0.379 l 0,11.13 0,0.794 c -0.151,0.758 -0.492,1.061 -1.628,1.212 -0.151,0.038 -0.303,0.038 -0.454,0.038 l -5.981,0 L -6.018,0 0,0 z m -11.887,21.389 13.932,0 c 3.975,0 5.867,-1.893 5.867,-6.019 l 0,-15.257 C 7.912,-0.189 7.875,-0.53 7.837,-0.871 7.42,-4.165 5.566,-5.868 2.272,-5.868 l -14.159,0 0,27.257 z"
             style="fill:#747577;fill-opacity:1;fill-rule:nonzero;stroke:none"
             id="path86"
             inkscape:connector-curvature="0" /></g><g
           id="g88"
           transform="translate(405.0477,141.598)"><path
             d="M 0,0 2.196,-4.088 -1.779,-4.051 -4.618,0.114 0,0 z m -8.82,-11.697 c 0,0.416 0.038,0.833 0.113,1.211 0.492,3.104 2.386,4.694 5.565,4.694 l 12.115,0 0,-5.867 -9.578,0 -0.871,0 -0.114,0 c -0.151,-0.038 -0.265,-0.038 -0.378,-0.114 -0.606,-0.227 -0.984,-0.795 -0.984,-1.628 l 0,-3.029 11.925,0 0,-5.868 -11.925,0 0,-3.028 c 0,-1.287 0.416,-1.741 1.513,-1.855 l 0.872,0 9.54,0 0,-5.868 -11.282,0 c -4.391,0 -6.511,2.044 -6.511,5.679 l 0,15.673 z"
             style="fill:#747577;fill-opacity:1;fill-rule:nonzero;stroke:none"
             id="path90"
             inkscape:connector-curvature="0" /></g><g
           id="g92"
           transform="translate(417.3124,129.598)"><path
             d="m 0,0 c 0,4.731 1.552,6.208 6.397,6.208 l 11.434,0 0,-5.867 -9.768,0 -0.53,0 -0.303,0 C 6.474,0.265 6.02,-0.151 5.868,-0.871 l 0,-0.682 0,-11.243 c 0,-1.817 0.341,-2.271 1.741,-2.385 l 0.493,0 9.729,0 0,-5.868 -12.304,0 c -0.605,0 -1.287,0.113 -2.045,0.416 C 1.174,-19.724 0,-17.906 0,-14.991 L 0,0 z"
             style="fill:#747577;fill-opacity:1;fill-rule:nonzero;stroke:none"
             id="path94"
             inkscape:connector-curvature="0" /></g><g
           id="g96"
           transform="translate(438.1317,135.8061)"><path
             d="m 0,0 5.868,0 0,-10.638 8.253,0 0,10.638 5.867,0 0,-27.257 -5.867,0 0,10.751 -8.253,0 0,-10.751 -5.868,0 L 0,0 z"
             style="fill:#747577;fill-opacity:1;fill-rule:nonzero;stroke:none"
             id="path98"
             inkscape:connector-curvature="0" /></g><g
           id="g100"
           transform="translate(461.6766,129.9008)"><path
             d="m 0,0 c 0,0.416 0.038,0.833 0.113,1.211 0.492,3.104 2.386,4.694 5.566,4.694 l 12.114,0 0,-5.867 -9.578,0 -0.87,0 -0.115,0 C 7.079,0 6.966,0 6.853,-0.076 6.246,-0.303 5.868,-0.871 5.868,-1.704 l 0,-3.028 11.925,0 0,-5.869 -11.925,0 0,-3.028 c 0,-1.287 0.416,-1.741 1.514,-1.854 l 0.871,0 9.54,0 0,-5.869 -11.281,0 C 2.12,-21.352 0,-19.308 0,-15.673 L 0,0 z"
             style="fill:#747577;fill-opacity:1;fill-rule:nonzero;stroke:none"
             id="path102"
             inkscape:connector-curvature="0" /></g><g
           id="g104"
           transform="translate(57.6092,91.8324)"><path
             d="M 0,0 C 0,1.236 0.354,2.164 1.038,2.849 1.7,3.511 2.628,3.908 3.666,3.908 l 6.69,0 0,-2.297 -6.381,0 c -1.082,0 -1.678,-0.573 -1.678,-1.677 l 0,-7.927 c 0,-0.111 0.021,-0.221 0.044,-0.331 0.198,-0.862 0.817,-1.369 1.634,-1.369 l 6.337,0 0,-2.296 -6.823,0 c -0.574,0 -1.347,0.243 -1.987,0.684 -0.751,0.508 -1.259,1.347 -1.457,2.473 C 0.023,-8.611 0,-8.391 0,-8.17 L 0,0 z"
             style="fill:#99c027;fill-opacity:1;fill-rule:nonzero;stroke:none"
             id="path106"
             inkscape:connector-curvature="0" /></g><g
           id="g108"
           transform="translate(78.1668,82.1615)"><path
             d="m 0,0 c 0.11,0 0.221,-0.022 0.331,-0.022 l 2.473,0 C 2.914,-0.022 3.025,0 3.113,0 4.526,0.088 4.945,0.53 4.945,1.987 l 0,7.243 c 0,1.479 -0.419,1.942 -1.81,2.031 -0.11,0 -0.221,0.021 -0.331,0.021 l -2.473,0 C 0.221,11.282 0.11,11.261 0,11.261 -1.413,11.172 -1.854,10.709 -1.854,9.23 l 0,-7.199 C -1.854,0.552 -1.413,0.088 0,0 m -4.151,9.119 c 0,3.113 1.458,4.46 4.836,4.46 l 1.744,0 c 3.378,0 4.835,-1.347 4.835,-4.46 l 0,-6.977 c 0,-3.114 -1.457,-4.46 -4.835,-4.46 l -1.744,0 c -3.378,0 -4.836,1.346 -4.836,4.46 l 0,6.977 z"
             style="fill:#99c027;fill-opacity:1;fill-rule:nonzero;stroke:none"
             id="path110"
             inkscape:connector-curvature="0" /></g><g
           id="g112"
           transform="translate(91.828,93.4223)"><path
             d="M 0,0 C 0,1.324 0.354,1.965 1.082,2.296 2.826,3.113 4.018,2.406 4.526,0.64 L 7.905,-11.063 11.393,0.64 c 0.53,1.766 1.701,2.473 3.445,1.656 C 15.566,1.965 15.92,1.324 15.92,0 l 0,-13.579 -2.297,0 0,13.6 -3.555,-11.856 c -0.419,-1.435 -0.971,-1.942 -2.097,-1.942 -1.126,0 -1.701,0.507 -2.119,1.942 l -3.555,11.856 0,-13.6 -2.297,0 L 0,0 z"
             style="fill:#99c027;fill-opacity:1;fill-rule:nonzero;stroke:none"
             id="path114"
             inkscape:connector-curvature="0" /></g><g
           id="g116"
           transform="translate(114.203,93.4223)"><path
             d="M 0,0 C 0,1.324 0.354,1.965 1.082,2.296 2.826,3.113 4.018,2.406 4.526,0.64 L 7.905,-11.063 11.393,0.64 c 0.53,1.766 1.701,2.473 3.445,1.656 C 15.566,1.965 15.92,1.324 15.92,0 l 0,-13.579 -2.297,0 0,13.6 -3.555,-11.856 c -0.419,-1.435 -0.971,-1.942 -2.097,-1.942 -1.126,0 -1.701,0.507 -2.119,1.942 l -3.555,11.856 0,-13.6 -2.297,0 L 0,0 z"
             style="fill:#99c027;fill-opacity:1;fill-rule:nonzero;stroke:none"
             id="path118"
             inkscape:connector-curvature="0" /></g><g
           id="g120"
           transform="translate(136.6385,95.7406)"><path
             d="m 0,0 2.297,0 0,-11.702 c 0,-1.369 0.508,-1.9 1.744,-1.9 l 3.245,0 c 1.237,0 1.723,0.508 1.723,1.767 l 0,11.835 2.318,0 0,-11.989 c 0,-1.744 -0.839,-3.003 -2.318,-3.621 -0.464,-0.199 -0.928,-0.287 -1.369,-0.287 l -3.952,0 c -0.442,0 -0.906,0.088 -1.391,0.287 C 0.84,-15.015 0,-13.733 0,-11.989 L 0,0 z"
             style="fill:#99c027;fill-opacity:1;fill-rule:nonzero;stroke:none"
             id="path122"
             inkscape:connector-curvature="0" /></g><g
           id="g124"
           transform="translate(154.4803,93.5102)"><path
             d="M 0,0 C 0,1.767 0.95,2.672 2.628,2.274 3.269,2.12 3.666,1.723 4.064,0.773 l 4.791,-11.658 0,13.115 2.318,0 0,-13.999 c 0,-1.126 -0.751,-1.986 -1.811,-2.096 -1.015,-0.133 -1.744,0.352 -2.274,1.589 l -4.791,11.46 0,-12.851 -2.297,0 L 0,0 z"
             style="fill:#99c027;fill-opacity:1;fill-rule:nonzero;stroke:none"
             id="path126"
             inkscape:connector-curvature="0" /></g><g
           id="g128"
           transform="translate(180.3143,85.4516)"><path
             d="M 0,0 -2.649,7.242 -5.232,0 0,0 z m -4.46,8.81 c 0.53,1.435 1.369,1.964 2.562,1.501 0.485,-0.177 0.772,-0.53 1.148,-1.501 l 5.255,-14.418 -2.451,0 -1.215,3.311 -6.91,0 -1.215,-3.311 -2.45,0 5.276,14.418 z"
             style="fill:#99c027;fill-opacity:1;fill-rule:nonzero;stroke:none"
             id="path130"
             inkscape:connector-curvature="0" /></g><g
           id="g132"
           transform="translate(189.745,95.7406)"><path
             d="m 0,0 2.297,0 0,-11.702 c 0,-1.369 0.508,-1.9 1.744,-1.9 l 3.245,0 c 1.237,0 1.723,0.508 1.723,1.767 l 0,11.835 2.318,0 0,-11.989 c 0,-1.744 -0.839,-3.003 -2.318,-3.621 -0.464,-0.199 -0.928,-0.287 -1.369,-0.287 l -3.952,0 c -0.442,0 -0.906,0.088 -1.391,0.287 C 0.84,-15.015 0,-13.733 0,-11.989 L 0,0 z"
             style="fill:#99c027;fill-opacity:1;fill-rule:nonzero;stroke:none"
             id="path134"
             inkscape:connector-curvature="0" /></g><g
           id="g136"
           transform="translate(206.329,95.7406)"><path
             d="m 0,0 9.184,0 0,-2.297 -3.444,0 0,-13.6 -2.318,0 0,13.6 L 0,-2.297 0,0 z"
             style="fill:#99c027;fill-opacity:1;fill-rule:nonzero;stroke:none"
             id="path138"
             inkscape:connector-curvature="0" /></g><g
           id="g140"
           transform="translate(225.871,99.2514)"><path
             d="m 0,0 2.164,0 -1.744,-2.539 -1.347,0 L 0,0 z m -5.101,-7.485 c 0,2.693 1.413,3.974 4.637,3.974 l 5.808,0 0,-2.297 -5.763,0 -0.95,0 c -0.242,0 -0.508,-0.087 -0.75,-0.264 -0.31,-0.198 -0.53,-0.552 -0.641,-1.06 -0.022,-0.133 -0.044,-0.264 -0.044,-0.42 l 0,-2.693 8.125,0 0,-2.319 -8.125,0 0,-2.12 0,-0.993 c 0,-0.177 0.044,-0.309 0.111,-0.464 0.397,-0.816 0.795,-0.971 2.428,-0.971 l 5.542,0 0,-2.296 -6.16,0 c -2.716,0 -4.218,1.501 -4.218,4.262 l 0,7.661 z"
             style="fill:#99c027;fill-opacity:1;fill-rule:nonzero;stroke:none"
             id="path142"
             inkscape:connector-curvature="0" /></g><g
           id="g144"
           transform="translate(255.1063,82.1391)"><path
             d="m 0,0 c 1.016,0 1.59,0.597 1.59,1.921 l 0,7.573 c 0,0.111 -0.023,0.222 -0.023,0.332 -0.11,1.104 -0.464,1.479 -1.633,1.479 l -5.189,0 L -5.255,0 0,0 z m -7.552,13.602 8.104,0 c 1.854,0 3.334,-1.436 3.334,-3.688 l 0,-8.169 C 3.886,1.523 3.863,1.325 3.842,1.105 3.621,-0.375 2.914,-1.324 1.7,-1.898 1.103,-2.186 0.574,-2.296 0.11,-2.296 l -7.662,0 0,15.898 z"
             style="fill:#99c027;fill-opacity:1;fill-rule:nonzero;stroke:none"
             id="path146"
             inkscape:connector-curvature="0" /></g><g
           id="g148"
           transform="translate(266.1922,90.7064)"><path
             d="m 0,0 -1.347,0 0.994,2.229 C -0.993,2.362 -1.457,2.914 -1.479,3.577 -1.501,3.952 -1.347,4.35 -1.06,4.614 -0.529,5.188 0.42,5.166 0.972,4.57 1.413,4.106 1.479,3.511 1.061,2.539 L 0,0 z"
             style="fill:#99c027;fill-opacity:1;fill-rule:nonzero;stroke:none"
             id="path150"
             inkscape:connector-curvature="0" /></g><g
           id="g152"
           transform="translate(278.828,85.4516)"><path
             d="M 0,0 -2.649,7.242 -5.232,0 0,0 z m -4.46,8.81 c 0.53,1.435 1.369,1.964 2.562,1.501 0.485,-0.177 0.772,-0.53 1.148,-1.501 l 5.255,-14.418 -2.451,0 -1.215,3.311 -6.91,0 -1.215,-3.311 -2.45,0 5.276,14.418 z"
             style="fill:#99c027;fill-opacity:1;fill-rule:nonzero;stroke:none"
             id="path154"
             inkscape:connector-curvature="0" /></g><g
           id="g156"
           transform="translate(287.8817,91.5678)"><path
             d="m 0,0 c 0,2.737 1.436,4.173 4.239,4.173 l 6.095,0 0,-2.297 -6.293,0 C 3.931,1.876 3.842,1.854 3.754,1.854 2.672,1.722 2.297,1.324 2.297,0.154 l 0,-7.904 c 0,-0.11 0.021,-0.221 0.044,-0.331 0.133,-0.861 0.485,-1.215 1.214,-1.348 l 0.619,0 3.201,0 c 0.993,0 1.546,0.443 1.678,1.392 0.022,0.066 0.022,0.154 0.022,0.242 l 0,5.123 2.296,0 0,-4.88 c 0,-0.972 -0.088,-1.501 -0.353,-2.031 -0.75,-1.546 -1.789,-2.142 -3.643,-2.142 l -3.18,0 c -0.949,0 -1.457,0.111 -2.009,0.375 C 0.597,-10.555 0,-9.494 0,-7.618 L 0,0 z"
             style="fill:#99c027;fill-opacity:1;fill-rule:nonzero;stroke:none"
             id="path158"
             inkscape:connector-curvature="0" /></g><g
           id="g160"
           transform="translate(305.7674,91.5678)"><path
             d="m 0,0 c 0,2.737 1.436,4.173 4.239,4.173 l 6.095,0 0,-2.297 -6.293,0 C 3.931,1.876 3.842,1.854 3.754,1.854 2.672,1.722 2.297,1.324 2.297,0.154 l 0,-7.904 c 0,-0.11 0.021,-0.221 0.044,-0.331 0.133,-0.861 0.485,-1.215 1.215,-1.348 l 0.618,0 3.201,0 c 0.993,0 1.546,0.443 1.678,1.392 0.022,0.066 0.022,0.154 0.022,0.242 l 0,5.123 2.296,0 0,-4.88 c 0,-0.972 -0.088,-1.501 -0.353,-2.031 -0.75,-1.546 -1.789,-2.142 -3.643,-2.142 l -3.18,0 c -0.949,0 -1.457,0.111 -2.008,0.375 C 0.597,-10.555 0,-9.494 0,-7.618 L 0,0 z"
             style="fill:#99c027;fill-opacity:1;fill-rule:nonzero;stroke:none"
             id="path162"
             inkscape:connector-curvature="0" /></g><g
           id="g164"
           transform="translate(323.6532,95.7406)"><path
             d="m 0,0 2.297,0 0,-11.879 c 0,-1.215 0.508,-1.723 1.854,-1.723 l 6.028,0 0,-2.295 -5.984,0 c -0.22,0 -0.441,0.022 -0.662,0.043 C 1.171,-15.588 0,-14.264 0,-11.901 L 0,0 z"
             style="fill:#99c027;fill-opacity:1;fill-rule:nonzero;stroke:none"
             id="path166"
             inkscape:connector-curvature="0" /></g><g
           id="g168"
           transform="translate(342.4256,82.1615)"><path
             d="m 0,0 c 0.11,0 0.221,-0.022 0.331,-0.022 l 2.473,0 C 2.914,-0.022 3.024,0 3.113,0 4.526,0.088 4.945,0.53 4.945,1.987 l 0,7.243 c 0,1.479 -0.419,1.942 -1.81,2.031 -0.111,0 -0.221,0.021 -0.331,0.021 l -2.473,0 C 0.221,11.282 0.11,11.261 0,11.261 -1.413,11.172 -1.855,10.709 -1.855,9.23 l 0,-7.199 C -1.855,0.552 -1.413,0.088 0,0 m -4.151,9.119 c 0,3.113 1.458,4.46 4.836,4.46 l 1.744,0 c 3.378,0 4.835,-1.347 4.835,-4.46 l 0,-6.977 c 0,-3.114 -1.457,-4.46 -4.835,-4.46 l -1.744,0 c -3.378,0 -4.836,1.346 -4.836,4.46 l 0,6.977 z"
             style="fill:#99c027;fill-opacity:1;fill-rule:nonzero;stroke:none"
             id="path170"
             inkscape:connector-curvature="0" /></g><g
           id="g172"
           transform="translate(356.0858,93.4223)"><path
             d="M 0,0 C 0,1.324 0.354,1.965 1.082,2.296 2.826,3.113 4.018,2.406 4.526,0.64 L 7.905,-11.063 11.393,0.64 c 0.53,1.766 1.701,2.473 3.445,1.656 C 15.566,1.965 15.92,1.324 15.92,0 l 0,-13.579 -2.297,0 0,13.6 -3.555,-11.856 c -0.419,-1.435 -0.971,-1.942 -2.097,-1.942 -1.126,0 -1.7,0.507 -2.119,1.942 l -3.555,11.856 0,-13.6 -2.297,0 L 0,0 z"
             style="fill:#99c027;fill-opacity:1;fill-rule:nonzero;stroke:none"
             id="path174"
             inkscape:connector-curvature="0" /></g><g
           id="g176"
           transform="translate(383.621,99.2514)"><path
             d="m 0,0 2.164,0 -1.744,-2.539 -1.347,0 L 0,0 z m -5.101,-7.485 c 0,2.693 1.413,3.974 4.637,3.974 l 5.808,0 0,-2.297 -5.763,0 -0.95,0 c -0.242,0 -0.508,-0.087 -0.75,-0.264 -0.31,-0.198 -0.531,-0.552 -0.641,-1.06 -0.022,-0.133 -0.044,-0.264 -0.044,-0.42 l 0,-2.693 8.125,0 0,-2.319 -8.125,0 0,-2.12 0,-0.993 c 0,-0.177 0.044,-0.309 0.111,-0.464 0.397,-0.816 0.794,-0.971 2.428,-0.971 l 5.542,0 0,-2.296 -6.16,0 c -2.716,0 -4.218,1.501 -4.218,4.262 l 0,7.661 z"
             style="fill:#99c027;fill-opacity:1;fill-rule:nonzero;stroke:none"
             id="path178"
             inkscape:connector-curvature="0" /></g><g
           id="g180"
           transform="translate(395.1708,95.7406)"><path
             d="m 0,0 8.037,0 c 0.795,0 1.457,-0.221 2.01,-0.618 1.016,-0.774 1.347,-1.502 1.347,-2.695 l 0,-2.737 c 0,-0.574 -0.177,-1.126 -0.508,-1.634 -0.618,-0.927 -1.59,-1.458 -2.518,-1.458 l -2.716,0 5.852,-6.755 -3.047,0 -5.852,6.778 c -0.176,0.177 -0.287,0.618 -0.131,1.17 0.131,0.53 0.595,0.95 1.257,1.082 0.133,0.022 0.266,0.022 0.398,0.022 l 3.467,0 c 0.066,0 0.154,0.022 0.22,0.022 0.862,0.155 1.259,0.619 1.259,1.281 l 0,1.767 c 0,0.087 0,0.198 -0.022,0.286 -0.111,0.684 -0.464,1.06 -1.148,1.171 -0.066,0 -0.155,0.021 -0.243,0.021 l -5.365,0 0,-13.6 -2.297,0 L 0,0 z"
             style="fill:#99c027;fill-opacity:1;fill-rule:nonzero;stroke:none"
             id="path182"
             inkscape:connector-curvature="0" /></g><g
           id="g184"
           transform="translate(420.784,85.4516)"><path
             d="M 0,0 -2.649,7.242 -5.232,0 0,0 z m -4.46,8.81 c 0.53,1.435 1.369,1.964 2.562,1.501 0.485,-0.177 0.772,-0.53 1.148,-1.501 l 5.255,-14.418 -2.451,0 -1.215,3.311 -6.91,0 -1.215,-3.311 -2.45,0 5.276,14.418 z"
             style="fill:#99c027;fill-opacity:1;fill-rule:nonzero;stroke:none"
             id="path186"
             inkscape:connector-curvature="0" /></g><g
           id="g188"
           transform="translate(426.8319,95.7406)"><path
             d="m 0,0 9.185,0 0,-2.297 -3.445,0 0,-13.6 -2.318,0 0,13.6 L 0,-2.297 0,0 z"
             style="fill:#99c027;fill-opacity:1;fill-rule:nonzero;stroke:none"
             id="path190"
             inkscape:connector-curvature="0" /></g><path
           d="m 441.272,95.741 2.297,0 0,-15.897 -2.297,0 0,15.897 z"
           style="fill:#99c027;fill-opacity:1;fill-rule:nonzero;stroke:none"
           id="path192"
           inkscape:connector-curvature="0" /><g
           id="g194"
           transform="translate(454.2342,82.1615)"><path
             d="m 0,0 c 0.11,0 0.221,-0.022 0.331,-0.022 l 2.473,0 C 2.914,-0.022 3.024,0 3.113,0 4.526,0.088 4.945,0.53 4.945,1.987 l 0,7.243 c 0,1.479 -0.419,1.942 -1.81,2.031 -0.111,0 -0.221,0.021 -0.331,0.021 l -2.473,0 C 0.221,11.282 0.11,11.261 0,11.261 -1.413,11.172 -1.854,10.709 -1.854,9.23 l 0,-7.199 C -1.854,0.552 -1.413,0.088 0,0 m -4.151,9.119 c 0,3.113 1.458,4.46 4.836,4.46 l 1.744,0 c 3.378,0 4.835,-1.347 4.835,-4.46 l 0,-6.977 c 0,-3.114 -1.457,-4.46 -4.835,-4.46 l -1.744,0 c -3.378,0 -4.836,1.346 -4.836,4.46 l 0,6.977 z"
             style="fill:#99c027;fill-opacity:1;fill-rule:nonzero;stroke:none"
             id="path196"
             inkscape:connector-curvature="0" /></g><g
           id="g198"
           transform="translate(468.0135,93.5102)"><path
             d="M 0,0 C 0,1.767 0.95,2.672 2.628,2.274 3.269,2.12 3.666,1.723 4.064,0.773 l 4.79,-11.658 0,13.115 2.319,0 0,-13.999 c 0,-1.126 -0.751,-1.986 -1.811,-2.096 -1.015,-0.133 -1.744,0.352 -2.274,1.589 l -4.791,11.46 0,-12.851 -2.297,0 L 0,0 z"
             style="fill:#99c027;fill-opacity:1;fill-rule:nonzero;stroke:none"
             id="path200"
             inkscape:connector-curvature="0" /></g><g
           id="g202"
           transform="translate(447.1483,152.1264)"><path
             d="m 0,0 c 0,29.508 -23.919,53.429 -53.426,53.429 -29.509,0 -53.431,-23.921 -53.431,-53.429 0,-0.115 0.01,-0.23 0.01,-0.343 l -31.857,0 c 0,47.023 38.256,85.277 85.278,85.277 47.02,0 85.276,-38.254 85.276,-85.277 l -31.858,0 C -0.006,-0.23 0,-0.115 0,0"
             style="fill:#426d36;fill-opacity:1;fill-rule:nonzero;stroke:none"
             id="path204"
             inkscape:connector-curvature="0" /></g><g
           id="g206"
           transform="translate(227.6727,152.1537)"><path
             d="m 0,0 c 0,31.316 25.391,56.706 56.707,56.706 10.742,0 20.785,-2.988 29.347,-8.178 C 80.159,38.921 75.946,28.172 73.828,16.699 69.494,21.144 63.446,23.906 56.752,23.906 43.571,23.906 32.89,13.222 32.89,0.043 32.89,0.028 32.892,0.018 32.892,0 L 0,0 z"
             style="fill:#99c027;fill-opacity:1;fill-rule:nonzero;stroke:none"
             id="path208"
             inkscape:connector-curvature="0" /></g></g></g></g></svg>