<?xml version="1.0" encoding="UTF-8" standalone="no"?>
<!-- Created with Inkscape (http://www.inkscape.org/) -->

<svg
   xmlns:dc="http://purl.org/dc/elements/1.1/"
   xmlns:cc="http://creativecommons.org/ns#"
   xmlns:rdf="http://www.w3.org/1999/02/22-rdf-syntax-ns#"
   xmlns:svg="http://www.w3.org/2000/svg"
   xmlns="http://www.w3.org/2000/svg"
   xmlns:sodipodi="http://sodipodi.sourceforge.net/DTD/sodipodi-0.dtd"
   xmlns:inkscape="http://www.inkscape.org/namespaces/inkscape"
   width="744"
   height="744"
   id="svg3911"
   version="1.1"
   inkscape:version="0.48.4 r9939"
   sodipodi:docname="particuliergrisplein.svg">
  <defs
     id="defs3913" />
  <sodipodi:namedview
     id="base"
     pagecolor="#ffffff"
     bordercolor="#666666"
     borderopacity="1.0"
     inkscape:pageopacity="0.0"
     inkscape:pageshadow="2"
     inkscape:zoom="0.49497476"
     inkscape:cx="-220.34286"
     inkscape:cy="337.91652"
     inkscape:document-units="px"
     inkscape:current-layer="layer4"
     showgrid="false"
     inkscape:window-width="1600"
     inkscape:window-height="876"
     inkscape:window-x="0"
     inkscape:window-y="24"
     inkscape:window-maximized="1"
     showguides="true"
     inkscape:guide-bbox="true" />
  <metadata
     id="metadata3916">
    <rdf:RDF>
      <cc:Work
         rdf:about="">
        <dc:format>image/svg+xml</dc:format>
        <dc:type
           rdf:resource="http://purl.org/dc/dcmitype/StillImage" />
        <dc:title></dc:title>
      </cc:Work>
    </rdf:RDF>
  </metadata>
  <g
     inkscape:label="cercle"
     inkscape:groupmode="layer"
     id="layer1"
     transform="translate(0,-308.36218)"
     style="display:inline">
    <path
       style="fill:none;stroke:#000000;stroke-width:1px;stroke-linecap:butt;stroke-linejoin:miter;stroke-opacity:1"
       d="m -1792.8952,3815.1954 -167.2183,113.1371 0,214.1523 348.2194,0 0,-184.4605 z"
       id="path3847-3"
       inkscape:connector-curvature="0"
       sodipodi:nodetypes="cccccc" />
    <path
       style="fill:none;stroke:#000000;stroke-width:1px;stroke-linecap:butt;stroke-linejoin:miter;stroke-opacity:1"
       d="m -1594.1,4139.8728 0,-179.2364 130.8575,-122.6433 0,133.2567 z"
       id="path3849-1"
       inkscape:connector-curvature="0"
       sodipodi:nodetypes="ccccc" />
    <path
       style="fill:none;stroke:#000000;stroke-width:1px;stroke-linecap:butt;stroke-linejoin:miter;stroke-opacity:1"
       d="m -1986.2117,3932.8677 193.6428,-132.8572 194.6429,148.5715 144.2857,-128.5715 -104.2857,-102.8571 -234.6429,67.1428 c 0.6938,-0.09 -193.6428,148.5715 -193.6428,148.5715 z"
       id="path3851-6"
       inkscape:connector-curvature="0"
       sodipodi:nodetypes="ccccccc" />
    <rect
       style="fill:none;stroke:#000000;stroke-opacity:1"
       id="rect3871-6"
       width="74.751289"
       height="66.670067"
       x="-1911.155"
       y="3974.8203" />
    <rect
       y="3974.8203"
       x="-1733.3682"
       height="66.670067"
       width="74.751289"
       id="rect3873-8"
       style="fill:none;stroke:#000000;stroke-opacity:1" />
    <path
       style="fill:#25b5c2;fill-opacity:1;stroke:none"
       d="M 371.4375 3.84375 C 168.57979 3.84375 4.125 168.29854 4.125 371.15625 C 4.125 574.01396 168.57979 738.4375 371.4375 738.4375 C 574.29521 738.4375 738.75 574.01396 738.75 371.15625 C 738.75 168.29854 574.29521 3.84375 371.4375 3.84375 z M 371.21875 107.125 C 431.6441 107.125 480.625 156.1059 480.625 216.53125 C 480.625 276.9566 431.6441 325.9375 371.21875 325.9375 C 310.7934 325.9375 261.8125 276.9566 261.8125 216.53125 C 261.8125 156.1059 310.7934 107.125 371.21875 107.125 z M 370.03125 110.125 C 313.09456 110.92992 268.375 170.52719 268.375 210 C 266.17788 252.8459 289.24374 311.18819 368.34375 321.625 C 383.72437 324.64619 319.59104 304.27566 322.625 210 C 325.33958 125.65547 382.08835 110.15625 372.75 110.15625 C 371.84021 110.13908 370.93501 110.11222 370.03125 110.125 z M 259.21875 331.0625 C 348.96899 389.18646 409.83395 384.05784 483.34375 331.0625 C 555.14389 366.9626 595.48874 519.26401 483.34375 588.5 C 371.19869 657.73595 371.19291 658.61874 259.21875 588.5 C 147.24464 518.38122 193.40197 361.83396 259.21875 331.0625 z M 259.03125 345.8125 C 231.56589 362.2917 192.56005 427.8181 209.0625 501.8125 C 226.09096 578.16607 351.86938 632.52641 367.25 633.625 C 352.62191 608.49153 243.11292 563.3121 337.59375 379.84375 C 322.92529 376.44158 276.87965 360.65106 259.03125 345.8125 z "
       transform="translate(0,308.36218)"
       id="path2985" />
  </g>
  <g
     inkscape:groupmode="layer"
     id="layer3"
     inkscape:label="personnage">
    <path
       d="m -28.571434,379.50504 a 112.85714,112.85714 0 1 1 -225.714276,0 112.85714,112.85714 0 1 1 225.714276,0 z"
       sodipodi:ry="112.85714"
       sodipodi:rx="112.85714"
       sodipodi:cy="379.50504"
       sodipodi:cx="-141.42857"
       id="path3774"
       style="fill:#ea4e7e;fill-opacity:1;stroke:none"
       sodipodi:type="arc"
       transform="matrix(0.33092794,0,0,0.33092794,-1001.4146,129.15626)" />
    <path
       sodipodi:nodetypes="cczzc"
       inkscape:connector-curvature="0"
       id="path3776"
       d="m -1086.4401,293.84326 c 30.6367,19.841 51.4112,18.0903 76.5042,0 24.50933,12.2547 38.28124,64.2495 0,87.8836 -38.2813,23.634 -38.2813,23.9354 -76.5042,0 -38.2229,-23.9354 -22.4669,-77.3796 0,-87.8836 z"
       style="fill:#dbdbdb;fill-opacity:1;stroke:none" />
    <path
       transform="matrix(0.34698464,0,0,0.34698464,-619.41148,219.89226)"
       sodipodi:type="arc"
       style="fill:#ea4e7e;fill-opacity:1;stroke:none"
       id="path3782"
       sodipodi:cx="-141.42857"
       sodipodi:cy="379.50504"
       sodipodi:rx="112.85714"
       sodipodi:ry="112.85714"
       d="m -28.571434,379.50504 a 112.85714,112.85714 0 1 1 -225.714276,0 112.85714,112.85714 0 1 1 225.714276,0 z" />
    <path
       style="fill:#dbdbdb;fill-opacity:1;stroke:none"
       d="m -708.56253,392.56996 c 32.1232,20.8036 53.90577,18.968 80.21622,0 25.69855,12.8493 40.13867,67.36685 0,92.14764 -40.1387,24.78077 -40.1387,25.09673 -80.21622,0 -40.0775,-25.09675 -23.55699,-81.13404 0,-92.14764 z"
       id="path3784"
       inkscape:connector-curvature="0"
       sodipodi:nodetypes="cczzc" />
    <path
       d="m -28.571434,379.50504 a 112.85714,112.85714 0 1 1 -225.714276,0 112.85714,112.85714 0 1 1 225.714276,0 z"
       sodipodi:ry="112.85714"
       sodipodi:rx="112.85714"
       sodipodi:cy="379.50504"
       sodipodi:cx="-141.42857"
       id="path3790"
       style="fill:#ea4e7e;fill-opacity:1;stroke:none"
       sodipodi:type="arc"
       transform="matrix(0.29881455,0,0,0.29881455,-643.99353,15.080364)" />
    <path
       sodipodi:nodetypes="cczzc"
       inkscape:connector-curvature="0"
       id="path3792"
       d="m -720.7682,163.78616 c 27.66371,17.9155 46.42231,16.3347 69.08022,0 22.13095,11.0655 34.56643,58.0147 0,79.3553 -34.56646,21.3405 -34.56646,21.6126 -69.08022,0 -34.51374,-21.6127 -20.28669,-69.8706 0,-79.3553 z"
       style="fill:#dbdbdb;fill-opacity:1;stroke:none" />
    <path
       transform="matrix(0.29881455,0,0,0.29881455,-848.39158,-8.1215363)"
       sodipodi:type="arc"
       style="fill:#ea4e7e;fill-opacity:1;stroke:none"
       id="path3798"
       sodipodi:cx="-141.42857"
       sodipodi:cy="379.50504"
       sodipodi:rx="112.85714"
       sodipodi:ry="112.85714"
       d="m -28.571434,379.50504 a 112.85714,112.85714 0 1 1 -225.714276,0 112.85714,112.85714 0 1 1 225.714276,0 z" />
    <path
       style="fill:#dbdbdb;fill-opacity:1;stroke:none"
       d="m -925.16625,140.58416 c 27.66371,17.9156 46.42231,16.3348 69.08022,0 22.13095,11.0655 34.56643,58.0147 0,79.3553 -34.56646,21.3406 -34.56646,21.6127 -69.08022,0 -34.51374,-21.6127 -20.28669,-69.8706 0,-79.3553 z"
       id="path3801"
       inkscape:connector-curvature="0"
       sodipodi:nodetypes="cczzc" />
  </g>
  <g
     inkscape:groupmode="layer"
     id="layer4"
     inkscape:label="reflets">
    <path
       style="fill:#25b5c2;fill-opacity:1;stroke:none"
       d="M 337.58728,379.85424 C 243.10645,563.32259 352.62167,608.50032 367.24976,633.63379 351.86914,632.5352 226.078,578.15385 209.04954,501.80028 c -16.50245,-73.9944 22.52145,-139.52383 49.98681,-156.00303 17.8484,14.83856 63.88247,30.65482 78.55093,34.05699 z"
       id="path3002-1"
       inkscape:connector-curvature="0"
       sodipodi:nodetypes="ccscc" />
    <path
       style="fill:#25b5c2;fill-opacity:1;stroke:none"
       d="m 372.74275,110.14482 c -58.2264,-1.09862 -104.36825,59.7714 -104.36825,99.87076 -2.19712,42.8459 20.87381,101.17538 99.97382,111.61219 15.38062,3.02119 -48.76376,-17.33653 -45.7298,-111.61219 2.71458,-84.34453 59.46258,-99.87076 50.12423,-99.87076 z"
       id="path3004-8"
       inkscape:connector-curvature="0"
       sodipodi:nodetypes="cccsc" />
    <path
       sodipodi:nodetypes="ccscc"
       inkscape:connector-curvature="0"
       id="path3778-3"
       d="m -1059.3379,310.33492 c -32.2515,62.62785 5.1321,78.0495 10.1255,86.62894 -5.2503,-0.37501 -48.1897,-18.93836 -54.0025,-45.00204 -5.6331,-25.25836 7.6879,-47.62717 17.0633,-53.25242 6.0926,5.06521 21.8066,10.46418 26.8137,11.62552 z"
       style="fill:#c8b7b7;fill-opacity:1;stroke:none" />
    <path
       sodipodi:nodetypes="ccczc"
       inkscape:connector-curvature="0"
       id="path3780-4"
       d="m -1047.3373,218.26824 c -19.8759,-0.37502 -35.6267,20.40328 -35.6267,34.0914 -0.4738,19.04508 14.4057,34.69693 34.1266,38.09938 12.8155,2.57381 -17.1268,-6.53561 -15.6101,-38.09938 1.5167,-31.56377 20.2978,-34.0914 17.1102,-34.0914 z"
       style="fill:#c14e7e;fill-opacity:1;stroke:none" />
    <path
       style="fill:#c8b7b7;fill-opacity:1;stroke:none"
       d="m -680.19913,409.88672 c -33.8163,65.66657 5.3811,81.83648 10.6168,90.8322 -5.505,-0.39321 -50.5279,-19.85726 -56.6227,-47.18555 -5.9065,-26.4839 8.0609,-49.93805 17.8912,-55.83624 6.3883,5.31098 22.8647,10.9719 28.1147,12.18959 z"
       id="path3786-9"
       inkscape:connector-curvature="0"
       sodipodi:nodetypes="ccscc" />
    <path
       style="fill:#c14e7e;fill-opacity:1;stroke:none"
       d="m -667.61633,313.35295 c -20.8402,-0.39322 -37.3552,21.39325 -37.3552,35.74552 -0.7864,15.3353 7.4711,36.21245 35.7824,39.94797 5.505,1.08134 -17.8773,-1.41931 -16.3675,-39.94797 1.5098,-38.52866 21.2826,-35.74552 17.9403,-35.74552 z"
       id="path3788-9"
       inkscape:connector-curvature="0"
       sodipodi:nodetypes="ccczc" />
    <path
       sodipodi:nodetypes="ccscc"
       inkscape:connector-curvature="0"
       id="path3794-2"
       d="m -696.18843,178.62745 c -29.1217,56.55041 4.6341,70.47554 9.1429,78.22243 -4.7407,-0.33863 -43.5133,-17.10059 -48.762,-40.63503 -5.0865,-22.80728 6.9418,-43.00541 15.4074,-48.08478 5.5014,4.57369 19.6905,9.44873 24.2117,10.49738 z"
       style="fill:#c8b7b7;fill-opacity:1;stroke:none" />
    <path
       sodipodi:nodetypes="ccczc"
       inkscape:connector-curvature="0"
       id="path3796-6"
       d="m -685.35243,95.49495 c -17.9471,-0.33862 -32.1693,18.42335 -32.1693,30.78316 -0.6773,13.20638 6.4338,31.18526 30.8148,34.40221 4.7408,0.93122 -14.5207,-3.50996 -14.0952,-34.40221 0.4254,-30.89225 18.3281,-30.78316 15.4497,-30.78316 z"
       style="fill:#c14e7e;fill-opacity:1;stroke:none" />
    <path
       style="fill:#c8b7b7;fill-opacity:1;stroke:none"
       d="m -900.58643,155.42551 c -29.1218,56.55041 4.6341,70.47554 9.1429,78.22243 -4.7408,-0.33863 -43.5134,-17.10059 -48.7621,-40.63503 -5.0865,-22.80728 6.9419,-43.00541 15.4075,-48.08478 5.5014,4.57369 19.6905,9.44873 24.2117,10.49738 z"
       id="path3803-0"
       inkscape:connector-curvature="0"
       sodipodi:nodetypes="ccscc" />
    <path
       style="fill:#c14e7e;fill-opacity:1;stroke:none"
       d="m -889.75043,72.293011 c -17.9471,-0.33862 -32.1694,18.423349 -32.1694,30.783159 -0.6773,13.20638 6.4339,31.18526 30.8149,34.40221 4.7407,0.93122 -13.4159,-5.16724 -14.0953,-34.40221 -0.6794,-29.234969 18.3281,-30.783159 15.4498,-30.783159 z"
       id="path3805-5"
       inkscape:connector-curvature="0"
       sodipodi:nodetypes="ccczc" />
    <path
       style="fill:#c8b7b7;fill-opacity:1;stroke:none"
       d="m -1059.3379,310.33492 c -32.2515,62.62785 5.1321,78.0495 10.1255,86.62894 -5.2503,-0.37501 -48.1897,-18.93836 -54.0025,-45.00204 -5.6331,-25.25836 7.6879,-47.62717 17.0633,-53.25242 6.0926,5.06521 21.8066,10.46418 26.8137,11.62552 z"
       id="path3014"
       inkscape:connector-curvature="0"
       sodipodi:nodetypes="ccscc" />
    <path
       style="fill:#c14e7e;fill-opacity:1;stroke:none"
       d="m -1047.3373,218.26824 c -19.8759,-0.37502 -35.6267,20.40328 -35.6267,34.0914 -0.4738,19.04508 14.4057,34.69693 34.1266,38.09938 12.8155,2.57381 -17.1268,-6.53561 -15.6101,-38.09938 1.5167,-31.56377 20.2978,-34.0914 17.1102,-34.0914 z"
       id="path3016"
       inkscape:connector-curvature="0"
       sodipodi:nodetypes="ccczc" />
    <path
       sodipodi:nodetypes="ccscc"
       inkscape:connector-curvature="0"
       id="path3018"
       d="m -680.19913,409.88672 c -33.8163,65.66657 5.3811,81.83648 10.6168,90.8322 -5.505,-0.39321 -50.5279,-19.85726 -56.6227,-47.18555 -5.9065,-26.4839 8.0609,-49.93805 17.8912,-55.83624 6.3883,5.31098 22.8647,10.9719 28.1147,12.18959 z"
       style="fill:#c8b7b7;fill-opacity:1;stroke:none" />
    <path
       sodipodi:nodetypes="ccczc"
       inkscape:connector-curvature="0"
       id="path3020"
       d="m -667.61633,313.35295 c -20.8402,-0.39322 -37.3552,21.39325 -37.3552,35.74552 -0.7864,15.3353 7.4711,36.21245 35.7824,39.94797 5.505,1.08134 -17.8773,-1.41931 -16.3675,-39.94797 1.5098,-38.52866 21.2826,-35.74552 17.9403,-35.74552 z"
       style="fill:#c14e7e;fill-opacity:1;stroke:none" />
    <path
       style="fill:#c8b7b7;fill-opacity:1;stroke:none"
       d="m -696.18843,178.62745 c -29.1217,56.55041 4.6341,70.47554 9.1429,78.22243 -4.7407,-0.33863 -43.5133,-17.10059 -48.762,-40.63503 -5.0865,-22.80728 6.9418,-43.00541 15.4074,-48.08478 5.5014,4.57369 19.6905,9.44873 24.2117,10.49738 z"
       id="path3022"
       inkscape:connector-curvature="0"
       sodipodi:nodetypes="ccscc" />
    <path
       style="fill:#c14e7e;fill-opacity:1;stroke:none"
       d="m -685.35243,95.49495 c -17.9471,-0.33862 -32.1693,18.42335 -32.1693,30.78316 -0.6773,13.20638 6.4338,31.18526 30.8148,34.40221 4.7408,0.93122 -14.5207,-3.50996 -14.0952,-34.40221 0.4254,-30.89225 18.3281,-30.78316 15.4497,-30.78316 z"
       id="path3024"
       inkscape:connector-curvature="0"
       sodipodi:nodetypes="ccczc" />
    <path
       sodipodi:nodetypes="ccscc"
       inkscape:connector-curvature="0"
       id="path3026"
       d="m -900.58643,155.42551 c -29.1218,56.55041 4.6341,70.47554 9.1429,78.22243 -4.7408,-0.33863 -43.5134,-17.10059 -48.7621,-40.63503 -5.0865,-22.80728 6.9419,-43.00541 15.4075,-48.08478 5.5014,4.57369 19.6905,9.44873 24.2117,10.49738 z"
       style="fill:#c8b7b7;fill-opacity:1;stroke:none" />
    <path
       sodipodi:nodetypes="ccczc"
       inkscape:connector-curvature="0"
       id="path3028"
       d="m -889.75043,72.293011 c -17.9471,-0.33862 -32.1694,18.423349 -32.1694,30.783159 -0.6773,13.20638 6.4339,31.18526 30.8149,34.40221 4.7407,0.93122 -13.4159,-5.16724 -14.0953,-34.40221 -0.6794,-29.234969 18.3281,-30.783159 15.4498,-30.783159 z"
       style="fill:#c14e7e;fill-opacity:1;stroke:none" />
  </g>
</svg>
