<?xml version="1.0" encoding="UTF-8" standalone="no"?>
<!-- Created with Inkscape (http://www.inkscape.org/) -->

<svg
   xmlns:dc="http://purl.org/dc/elements/1.1/"
   xmlns:cc="http://creativecommons.org/ns#"
   xmlns:rdf="http://www.w3.org/1999/02/22-rdf-syntax-ns#"
   xmlns:svg="http://www.w3.org/2000/svg"
   xmlns="http://www.w3.org/2000/svg"
   xmlns:sodipodi="http://sodipodi.sourceforge.net/DTD/sodipodi-0.dtd"
   xmlns:inkscape="http://www.inkscape.org/namespaces/inkscape"
   width="744"
   height="744"
   id="svg3067"
   version="1.1"
   inkscape:version="0.48.4 r9939"
   sodipodi:docname="maud3.svg">
  <defs
     id="defs3069" />
  <sodipodi:namedview
     id="base"
     pagecolor="#ffffff"
     bordercolor="#666666"
     borderopacity="1.0"
     inkscape:pageopacity="0.0"
     inkscape:pageshadow="2"
     inkscape:zoom="0.7"
     inkscape:cx="-67.042075"
     inkscape:cy="351.96229"
     inkscape:document-units="px"
     inkscape:current-layer="layer1"
     showgrid="false"
     inkscape:window-width="1600"
     inkscape:window-height="876"
     inkscape:window-x="0"
     inkscape:window-y="24"
     inkscape:window-maximized="1" />
  <metadata
     id="metadata3072">
    <rdf:RDF>
      <cc:Work
         rdf:about="">
        <dc:format>image/svg+xml</dc:format>
        <dc:type
           rdf:resource="http://purl.org/dc/dcmitype/StillImage" />
        <dc:title></dc:title>
      </cc:Work>
    </rdf:RDF>
  </metadata>
  <g
     inkscape:label="cercle"
     inkscape:groupmode="layer"
     id="layer1"
     transform="translate(0,-308.36218)">
    <path
       sodipodi:type="arc"
       style="fill:none;fill-opacity:1;stroke:#dbdbdb;stroke-opacity:1;stroke-width:2.30859372;stroke-miterlimit:4;stroke-dasharray:none"
       id="path3987"
       sodipodi:cx="-761.42859"
       sodipodi:cy="419.50504"
       sodipodi:rx="281.42856"
       sodipodi:ry="281.42856"
       d="m -480.00003,419.50504 c 0,155.4287 -125.99986,281.42855 -281.42856,281.42855 -155.4287,0 -281.42851,-125.99985 -281.42851,-281.42855 0,-155.42871 125.99981,-281.42856 281.42851,-281.42856 155.4287,0 281.42856,125.99985 281.42856,281.42856 z"
       transform="matrix(1.2994924,0,0,1.2994924,1361.2068,138.00783)" />
  </g>
  <g
     inkscape:groupmode="layer"
     id="layer3"
     inkscape:label="blanc">
    <path
       style="fill:none;stroke:#dbdbdb;stroke-width:3;stroke-linecap:butt;stroke-linejoin:miter;stroke-miterlimit:4;stroke-opacity:1;stroke-dasharray:none;display:inline"
       d="m 347.8425,41.159828 c 3.34186,-0.55699 14.48135,0.55696 14.48135,0.55696 l 10.02551,6.12671 10.02555,-2.22789 12.25341,0.557 7.24068,6.126701 6.68368,-1.11396 1.11396,7.24065 7.79763,5.56977 -3.89881,10.5825 -1.67093,8.91157 14.48133,15.595271 5.56974,-5.01276 -7.24066,-7.797631 0.55696,-5.56974 2.2279,-3.89883 21.16502,8.91159 9.46856,22.835941 17.26619,7.24065 3.89882,-25.06381 3.34183,2.22788 0.55699,-5.012761 4.45578,11.139471 7.79763,-8.35459 17.26622,5.01276 -1.11396,5.01277 11.13947,3.34184 -1.11394,11.13949 -3.34187,5.56972 -0.55695,8.91159 -10.02552,8.35462 0,6.12671 -7.79765,7.24066 -6.6837,0 -1.11394,5.56975 6.12673,3.89881 -0.55697,6.68368 4.45577,6.68369 -2.78488,6.68367 6.12674,4.45582 1.11394,7.79763 -2.78488,3.34182 -6.68368,5.01278 1.11396,4.45578 -15.59529,1.11398 -1.67091,5.56973 3.34184,4.4558 -6.1267,6.68366 -0.557,8.35462 -1.11395,3.89882 -7.24065,7.24066 -8.91159,-1.67092 -9.46856,-12.25343 -5.56974,0 5.01277,11.13947 -1.11395,8.91158 -5.56974,5.01276 4.059,6.13661 -7.0891,0.7877 -7.48298,24.41808 11.8152,-1.57537 7.08911,1.9692 0,3.15072 -3.54454,2.75689 -13.39056,11.02751 -11.42138,6.30146 -6.69527,0.78767 7.87677,13.39056 -5.51373,5.11992 -3.93839,9.45216 9.45212,6.69527 7.87684,11.42139 5.9076,10.63368 18.90433,7.483 5.51375,-6.69531 7.08911,14.17818 18.90434,1.96931 13.39056,15.35966 -0.39384,7.48299 5.11991,8.27069 20.47968,-0.39392 3.54457,2.36312 8.27064,-4.33232 21.66122,-1.96918 2.36305,5.90756 -2.7569,5.90773 1.57538,3.15068 -0.39385,14.5721 -10.63369,-3.1507 -5.51377,5.11988 -4.33226,0.39378 -0.39383,6.69529 -10.63366,9.45218 4.72608,7.87679 0.78767,3.54461 4.72606,0.39379 1.57538,6.30149 -2.36306,4.3322 6.30146,5.90757 -0.39384,7.483 -3.15071,0.78771 -7.48296,-3.5446 -5.51376,3.1508 -7.87683,-4.72609 -4.33223,5.90759 -6.30142,-4.7261 -5.51377,1.1815 -1.96918,1.96919 -5.5138,0.39391 -3.54453,-4.72609 -2.7569,5.90759 -6.30142,0.78769 0.39382,5.51369 -3.54455,0.3939 -5.11993,7.48287 -3.54457,-1.57528 3.15072,12.2091 -3.9384,8.66434 -6.69526,1.96934 -1.18153,6.30136 5.90759,0.78771 6.69528,-0.39392 1.96922,5.9077 9.05832,10.23977 0,14.57206 5.11991,1.57542 3.15072,4.72609 -1.96919,2.36298 1.57535,3.54462 -1.57535,3.5446 3.1507,6.30136 9.05833,-0.78769 7.87681,-3.54449 9.05831,-1.18161 3.93843,0.39392 4.72605,0.39377 2.7569,3.15069 -2.7569,5.12001 -1.57535,6.69531 -1.9692,3.54445 1.9692,1.96921 -3.54457,4.3323 0.7877,4.33218 2.75687,5.12 4.72608,3.54451 -3.54456,2.3631 -5.51377,0 -7.48295,2.7569 -3.9384,1.18148 -1.57535,1.18149 -5.11992,-0.39378 -3.93841,1.18149 -6.6953,-2.36312 -3.54453,-4.33217 -5.11992,1.57541 -5.51377,3.54445 -5.90761,7.08921 5.11993,5.1199 3.54455,-1.1815 5.11992,6.30138 4.33225,5.12001 3.15072,0 6.30144,6.69513 -0.39383,7.48307 1.96918,1.18148 4.33226,-1.57538 3.93839,9.45233 -3.93839,1.57517 -0.78769,5.11995 -8.66448,-0.78765 -2.36304,3.1507 -9.846,-1.5753 -3.15073,-1.96916 0.39385,-5.11995 -4.33224,-0.78773 -2.75689,-1.57537 -2.36305,2.75685 -0.39383,1.96914 -1.9692,2.75706 -4.33225,-2.36309 -18.90433,7.08915 -8.27063,-3.54465 0.78767,-3.93847 -2.36302,-0.78751 -3.93841,-5.90762 -6.30144,0.78772 0,-12.20911 -7.08915,-0.78766 -3.54453,4.33216 -3.54455,-1.5753 -5.51376,-1.18149 -2.36305,2.36297 -2.36306,-1.96914 -1.96917,-0.78771 -2.75691,1.96919 -3.54455,-1.57531 -2.36303,0.39383 -3.15073,1.57538 -3.15073,-1.57538 -8.66448,0.39377 -8.66446,-1.18148 4.72606,-5.51383 4.33225,-1.57526 0.78767,-7.48302 8.27066,0 0.78767,-5.51376 2.36304,-2.36301 1.18155,-3.54461 2.363,-1.96917 2.36304,-1.1815 1.18152,-5.51381 -3.93838,-3.54447 0.39382,-3.15082 0.78768,-6.30138 -2.75685,-2.3631 1.1815,-2.36296 2.75687,-3.1507 -5.11991,-0.78772 0,-1.96918 0.78771,-3.15082 -2.7569,-0.39378 -2.7569,-1.1815 0.39384,-3.54459 -2.75687,-1.5753 -6.69529,-0.39391 -1.96919,2.3631 -2.75689,-3.54458 -5.11991,-0.39381 -1.18152,-3.1508 -3.15072,-1.96921 1.57537,-7.87679 -2.36306,-2.36297 -4.72608,-1.57541 -5.51377,3.15069 -11.8152,-9.45218 -7.87681,0 -1.18152,5.12001 3.54458,3.93837 -0.39385,7.0891 -9.84599,6.69528 -8.27064,-0.78769 -4.33225,-3.93841 0,-5.11986 -12.99672,-2.36311 -10.63369,-7.48289 -3.54455,1.96921 -4.72612,7.48288 -1.18153,5.12 -10.23983,7.08907 -9.45216,8.27071 -7.08911,2.36296 -6.30143,-3.15068 0.78767,7.48301 -3.15072,3.93839 -2.36303,3.93838 -4.72608,-4.7261 -17.32897,1.9692 -8.27064,-5.51381 -7.08913,1.9692 -5.90761,-3.93838 -6.69528,-0.3938 -7.08911,0.78772 -3.93841,-3.15082 -1.9692,-5.11989 -7.08913,0.78771 -5.9076,-4.72611 -1.96921,-7.08907 -0.78767,-9.8461 -2.75685,-3.54447 0,-10.2399 -11.02753,0.39392 -5.90761,-4.7261 -5.51376,-1.57541 -4.33224,0 -1.18152,-5.51377 0,-4.7261 -5.51376,-2.75679 -0.39384,-5.51378 -3.93841,-1.18148 -1.96921,-12.9968 -2.75688,-5.90758 -7.0891,-3.54462 2.75688,-5.51366 0,-7.87679 -16.935143,-15.35977 4.332243,-7.0892 1.96921,-12.20896 0,-15.7537 12.99671,-9.05827 16.5413,-29.53807 14.17825,-6.69529 -1.18154,-10.63368 11.81523,-16.14735 -4.72609,-14.96601 11.42133,-19.29814 14.96594,0.39393 12.20905,11.42124 26.38728,-11.42124 34.65792,-2.36313 13.39057,-16.54126 -4.33225,-7.08913 0,-8.66449 -10.23982,-5.11991 -11.02755,-9.846 1.96923,-21.6612 5.11992,-5.90761 -0.39384,-12.60289 5.51374,-0.39383 -3.54455,-12.99672 9.05832,4.72606 0,-6.30142 -1.57535,-5.51376 3.93838,-4.33225 7.08913,4.33225 15.35978,0 16.54129,7.48296 7.87679,-5.51376 9.05834,-0.39383 8.66448,-11.42138 13.7844,-3.15071 9.84601,2.36303 7.48296,-3.54458 0.78767,-15.35974 -7.8768,-16.54127 -7.87679,0 -12.99674,5.90758 -9.45217,-12.99671 -7.48295,-1.9692 -3.15073,-4.72609 -4.72608,-1.57537 6.30143,-12.9967 -2.36303,-5.9076 7.87682,0 5.11992,-5.90761 -0.39383,-13.39054 14.17822,-1.18154 0.39385,-3.54457 -10.63368,-12.99671 0.78767,-3.54456 9.84601,0 1.18151,-6.30145 9.84601,-3.54456 13.78441,7.87681 3.15071,-0.78768 -0.39385,-6.30146 10.23985,1.18153 3.54457,-5.11993 0.39383,-13.784391 -6.69528,0.39385 -5.11991,-2.75689 0,-5.51377 -10.23985,0 -7.87679,-7.08911 -9.45218,-4.72608 4.33226,-11.42137 4.33223,-1.96922 z"
       id="path3006-2-6"
       inkscape:connector-curvature="0" />
  </g>
  <g
     inkscape:groupmode="layer"
     id="layer2"
     inkscape:label="rouge"
     transform="translate(0,-308.36218)"
     style="display:inline">
    <g
       id="g3151"
       transform="translate(1293.5409,-288.39855)"
       style="fill:none;fill-opacity:1;stroke:#dbdbdb;stroke-opacity:1;stroke-width:3;stroke-miterlimit:4;stroke-dasharray:none">
      <g
         transform="matrix(0.67034451,0,0,0.67034451,-1207.0528,609.48529)"
         style="stroke:#dbdbdb;stroke-opacity:1;fill:none;fill-opacity:1;stroke-width:4.47531076;stroke-miterlimit:4;stroke-dasharray:none"
         id="g3036">
        <path
           style="fill:none;stroke:#dbdbdb;stroke-width:4.47531076;stroke-linecap:butt;stroke-linejoin:miter;stroke-opacity:1;display:inline;fill-opacity:1;stroke-miterlimit:4;stroke-dasharray:none"
           d="m 48.666749,644.80224 24.510876,-43.2056 22.018253,-9.55511 -0.830903,-4.56981 13.709515,-11.21686 17.44838,-1.24631 4.1544,4.1544 10.80142,1.24631 9.13965,9.55511 13.29402,0 7.06246,-3.32353 14.95579,-5.40071 0.83087,7.4779 4.98528,4.1544 0.41543,6.23158 -3.73896,4.98525 -2.90806,5.81615 -0.41544,8.7242 2.49263,1.66175 0.41543,6.64703 -4.98524,4.1544 -3.32353,0.41543 -0.41543,7.47787 -17.03298,14.12492 -9.97052,-0.41544 -4.56981,2.49265 -12.4632,-1.66175 -2.90806,3.3235 -16.2021,-4.56981 -12.46315,-2.07721 -8.724204,-4.56984 -8.308799,0 -4.154371,4.56984 -6.647022,-0.83087 0,-2.90809 -12.878608,2.07718 z"
           id="path3833"
           inkscape:connector-curvature="0" />
        <path
           style="fill:none;stroke:#dbdbdb;stroke-width:4.47531076;stroke-linecap:butt;stroke-linejoin:miter;stroke-opacity:1;display:inline;fill-opacity:1;stroke-miterlimit:4;stroke-dasharray:none"
           d="m 53.651995,766.94121 9.97052,-7.06246 1.246311,-4.98528 11.216859,-11.21683 0.415437,-9.13964 6.647023,6.64702 12.047733,3.73893 12.047702,-2.49262 15.37123,-4.56983 8.30877,-10.38596 2.49263,-14.12492 8.72423,-0.83087 3.3235,-2.07722 8.30877,1.66178 2.07719,-5.81612 3.73896,-4.9853 -3.32353,-2.49263 3.73897,-4.98527 2.49262,-4.56981 19.52563,-2.07718 9.55508,-0.41544 6.64702,8.30877 2.07719,5.81615 4.98525,-0.8309 2.07721,-4.56981 7.89333,9.13961 5.81612,2.90809 11.21689,-2.90809 2.49259,7.47793 7.06246,4.15437 13.29404,1.24634 3.73896,4.56981 -0.8309,13.29401 0.41543,16.20214 0.41547,6.64702 -3.73896,4.98527 -0.41544,10.38596 -18.27928,7.06243 -5.81615,-4.15437 -15.78666,8.3088 -2.49263,12.04762 -17.86388,10.38593 -9.97052,10.80148 0,10.38595 -1.24631,9.97063 -10.38596,6.23156 -11.63229,-1.66186 -7.06246,4.98539 -2.90806,8.72409 -4.98528,10.38596 -3.73896,10.80145 -9.97052,0.41552 -9.97052,-8.30877 -2.90806,-11.21697 0,-11.6323 -5.40071,-7.47773 0,-14.54052 -14.955791,1.24637 -9.970519,-7.47793 -7.893334,-2.49251 -6.231585,0.83085 -2.492623,-10.80145 1.246311,-4.1544 -10.385984,-5.40074 1.246311,-8.30871 -7.062431,-1.66175 z"
           id="path3835"
           inkscape:connector-curvature="0" />
        <path
           style="fill:none;stroke:#dbdbdb;stroke-width:4.47531076;stroke-linecap:butt;stroke-linejoin:miter;stroke-opacity:1;display:inline;fill-opacity:1;stroke-miterlimit:4;stroke-dasharray:none"
           d="m 191.99307,891.57277 -0.83088,-6.64708 12.46315,-10.38593 0.8309,-8.72409 1.24631,-7.47793 10.80139,-7.89341 2.49263,-8.30877 5.81617,-3.73886 7.06243,0.41533 9.13965,-7.0624 10.80138,-2.90804 12.04774,-3.32355 9.55511,-0.41552 9.13964,2.49271 7.89333,-4.15437 0,-3.73888 2.07719,-2.49268 -0.41546,-9.13962 8.30882,-0.83104 3.73894,4.98541 6.64702,3.73888 -1.24631,9.55511 3.73896,7.0624 1.24631,10.80145 -7.06246,-4.56986 -5.40071,3.32353 -6.23161,9.55511 -2.49263,7.89344 -17.44841,12.46314 -9.97052,9.13959 -13.29405,4.98522 -9.13963,-5.81606 -0.8309,12.46314 -6.23156,11.63229 -7.06246,-6.64707 -27.41896,1.66186 z"
           id="path3837"
           inkscape:connector-curvature="0" />
        <path
           style="fill:none;stroke:#dbdbdb;stroke-width:4.47531076;stroke-linecap:butt;stroke-linejoin:miter;stroke-opacity:1;display:inline;fill-opacity:1;stroke-miterlimit:4;stroke-dasharray:none"
           d="m 255.13973,498.9833 0.41543,7.47787 -4.98527,7.89336 3.73899,0.83087 -0.83093,8.30877 9.13965,5.81615 -6.64697,1.24628 0.41541,7.47793 3.73896,5.40068 1.24631,6.23159 -4.98527,4.98527 0.41544,13.29405 5.40071,2.07715 1.66175,4.56984 6.23158,0.8309 5.81615,-5.40074 7.06243,0 9.55511,-6.23155 2.07719,3.32349 4.9853,-5.81615 4.15437,4.1544 5.40071,-4.56983 8.72421,0 4.98527,-8.30877 2.07719,-8.72421 8.72421,-9.97049 -9.97052,-1.24634 -2.49263,-5.40071 -8.72423,-0.83088 -2.07716,-4.98524 1.24628,-9.13968 -3.73896,-8.30877 -1.66175,-8.72421 -2.49262,-2.90806 -27.41896,-0.83087 -9.97052,2.49262 z"
           id="path3839"
           inkscape:connector-curvature="0" />
        <path
           style="fill:none;stroke:#dbdbdb;stroke-width:4.47531076;stroke-linecap:butt;stroke-linejoin:miter;stroke-opacity:1;display:inline;fill-opacity:1;stroke-miterlimit:4;stroke-dasharray:none"
           d="m 185.76148,580.40926 4.56984,-1.24631 1.24631,-4.56984 5.81612,-2.49262 7.4779,4.15437 8.72423,1.24634 4.56981,3.73893 17.86386,0 4.98527,-2.90806 -7.89333,-13.70948 0,-3.32353 6.23158,-1.24631 7.89332,1.66178 9.13965,-7.06246 0.41544,13.70948 6.64702,2.07719 2.49265,5.81612 4.15437,-0.41541 5.40068,-4.98527 8.3088,-0.41544 8.30875,-7.06246 2.49265,4.56984 6.23161,-6.64706 2.90806,4.1544 5.81615,-3.73893 7.47789,-0.8309 6.64703,-10.38596 0.41543,-5.40071 10.8014,-10.38596 8.72421,-1.24631 2.90808,-4.98527 7.4779,3.73899 5.40068,12.46314 -2.07718,9.97052 -4.56984,10.38599 -7.89331,5.40068 -4.15442,-2.49262 -1.66175,-8.3088 -7.47787,0.8309 -0.41544,9.97052 -2.49265,6.23158 -5.81612,0 0.83088,7.06243 -6.64703,2.90809 -6.64699,0.41544 -10.38599,9.55508 -9.55511,12.87861 -6.64702,6.64699 0,4.1544 -7.47789,6.23159 -3.32353,6.64702 0,5.81612 -5.81615,2.49268 2.49265,4.56981 -0.83087,4.15437 -6.23161,3.32352 -7.89331,0.41544 -4.56984,-3.32352 -5.81611,-1.66175 -7.06245,2.90809 -2.90809,-3.73899 -2.07716,-9.97052 4.56981,-7.89331 -1.66175,-4.56984 -7.89336,-0.8309 -5.81612,1.24634 -7.06246,6.64702 -4.56984,-4.1544 -8.72418,0.41544 -6.64705,-8.72421 -8.30877,0.41547 -3.3235,-2.90809 0,-7.06246 8.72421,-12.46317 -1.24631,-5.81615 -4.56984,-4.15434 z"
           id="path3841"
           inkscape:connector-curvature="0" />
        <path
           style="fill:none;stroke:#dbdbdb;stroke-width:4.47531076;stroke-linecap:butt;stroke-linejoin:miter;stroke-opacity:1;display:inline;fill-opacity:1;stroke-miterlimit:4;stroke-dasharray:none"
           d="m 228.13624,624.44576 -1.24634,7.4779 -2.49262,2.90806 -2.07719,3.3235 -4.98527,3.32355 4.98527,4.56981 -0.83087,3.7389 -5.81615,5.40074 2.49262,2.07719 0.41544,7.4779 0.83087,7.47789 4.1544,2.07722 2.49265,5.40068 0,6.64702 -7.47792,0 -2.49262,5.40068 -9.13965,3.32353 7.89334,9.13964 5.40071,3.73897 12.04773,-2.90809 2.90806,7.4779 5.81612,4.1544 11.63228,-0.41547 6.64703,4.56984 -0.83091,14.12492 0.83091,20.3565 13.29401,-0.41547 3.73897,3.73897 14.54032,-7.4779 0.41547,-4.56984 -5.81615,-7.47787 -0.41544,-10.80142 -7.89333,0 -2.07721,-15.78666 9.97054,-7.89337 27.8344,-1.24628 19.52566,-24.51088 -2.07721,-13.70948 20.35647,-22.43369 -2.07718,-14.54035 -7.4779,-5.81612 -1.24631,-9.97055 -2.07721,-4.15437 -6.647,5.40071 -7.89336,-2.90809 -9.13964,0 -2.07716,4.56981 -4.9853,0.83087 -3.73894,-3.32349 -2.49262,3.32349 -4.1544,-1.66174 -0.8309,-4.98525 -5.40069,-1.24631 -7.06248,8.72418 0.8309,2.90809 -7.89333,5.81614 -3.73897,6.647 0,7.06246 -5.40071,2.07724 2.90809,6.64697 -2.49262,2.90808 -5.81615,2.07719 -6.64702,1.66178 -5.81615,-4.1544 -3.73892,-1.66175 -8.30877,2.07718 -4.98525,-3.32349 -0.41547,-9.55511 4.56984,-8.72421 -1.66178,-4.15437 z"
           id="path3843"
           inkscape:connector-curvature="0" />
        <path
           style="fill:none;stroke:#dbdbdb;stroke-width:4.47531076;stroke-linecap:butt;stroke-linejoin:miter;stroke-opacity:1;display:inline;fill-opacity:1;stroke-miterlimit:4;stroke-dasharray:none"
           d="m 309.14678,764.03315 -1.24634,3.32349 -7.89331,0 -3.32352,4.98528 3.32352,3.3235 4.56984,2.90808 2.07716,3.3235 -4.15437,0.41544 -8.72427,-0.83088 -1.66174,7.06244 0.8309,5.40068 5.81617,1.24637 3.3235,1.66166 0,5.40074 -2.07719,4.98519 3.73894,4.15459 6.64705,4.5697 -0.41547,9.97063 3.73897,7.4779 0.83087,11.2168 9.55508,5.40055 18.69476,2.90822 0.41544,6.23156 7.47786,7.47792 9.55509,0.41533 16.61757,-11.2168 -0.41547,-8.72427 -5.81612,-6.23155 2.49262,-7.89325 12.04774,0 2.49262,-7.06241 1.66175,-6.64708 14.12492,-7.47792 14.12492,-19.5256 -3.73897,-17.86386 14.1249,-11.63226 0,-13.29405 -15.37121,2.07719 -6.23155,-2.07719 -6.64705,0 -2.07716,-6.64702 -6.64705,0 0,5.81612 -6.64702,0 -4.98525,1.66178 -4.15437,-1.66178 -0.83088,8.3088 -3.32352,1.24631 -4.1544,2.49262 -9.13965,-1.66177 -3.73893,-4.56981 -3.73896,-1.66175 -5.40069,3.3235 -4.98527,0 -2.90806,-3.3235 -4.1544,0 -8.72421,6.23156 c 0,0 -13.82389,5.07767 -14.95579,4.9853 z"
           id="path3845"
           inkscape:connector-curvature="0"
           sodipodi:nodetypes="cccccccccccccccccccccccccccccccccccccccccccccccccccccccccc" />
        <path
           style="fill:none;stroke:#dbdbdb;stroke-width:4.47531076;stroke-linecap:butt;stroke-linejoin:miter;stroke-opacity:1;display:inline;fill-opacity:1;stroke-miterlimit:4;stroke-dasharray:none"
           d="m 290.72443,746.38762 -5.28769,-7.34398 -0.88125,-11.16286 -7.34401,0.88125 -2.35007,-15.56923 10.28161,-8.81279 27.31962,-1.17504 20.56318,-24.6758 -2.9376,-13.80668 20.2694,-22.03196 12.04417,-1.46879 13.51292,-1.46881 3.5251,6.46273 5.87519,0.29375 4.11263,10.28157 10.28158,7.34398 5.87519,-0.29375 4.70016,8.51901 3.52513,4.11266 -1.46881,9.40029 4.99391,10.28158 -2.64385,7.34397 -4.11263,0.29378 0,4.70014 -7.34397,0 -5.8752,5.28769 -8.51901,0.88128 4.70013,4.70016 1.17504,4.1126 -1.17504,4.40641 -1.76253,2.9376 4.70016,4.11263 -4.70016,3.81885 0,3.52513 -1.46879,0.88128 0.29376,5.28766 -6.16895,-0.88128 -5.87522,2.93762 -3.81885,-2.05634 -0.58753,8.22529 -7.0502,4.70013 -9.10657,-1.76256 -3.5251,-4.99389 -4.70016,-1.76256 -4.40641,2.9376 -5.28766,0.29375 -3.5251,-3.23135 -3.23138,0 -9.98782,7.0502 -14.39421,4.70016 -4.40638,-5.28766 -1.46878,-8.22526 -4.99394,-1.76254 -1.46881,-5.87522 z"
           id="path3847"
           inkscape:connector-curvature="0" />
        <path
           style="fill:none;stroke:#dbdbdb;stroke-width:4.47531076;stroke-linecap:butt;stroke-linejoin:miter;stroke-opacity:1;display:inline;fill-opacity:1;stroke-miterlimit:4;stroke-dasharray:none"
           d="m 271.34183,472.81064 -5.81615,-11.63229 -2.07718,-12.04771 -0.41544,-20.35647 4.56984,-10.38599 10.38595,-2.49262 14.9558,-12.04771 9.13967,1.24629 -0.41544,4.1544 5.81615,5.40071 -0.8309,4.56981 -2.90806,4.1544 0.8309,9.13964 13.29402,3.3235 12.87861,-10.38596 9.97049,0.41547 9.55511,22.43369 6.64702,-1.24634 12.04771,-9.13965 10.38598,-1.66175 4.15437,5.81612 24.09547,0 1.66175,6.23162 -16.61757,14.54033 -0.83085,4.15437 -4.98527,5.40071 -12.46315,-0.83088 -4.56983,2.90806 -10.8014,0 -7.06246,3.73897 -7.47789,0 -5.81615,4.98524 -7.89333,0.41547 -5.40072,-5.81612 -7.06245,0 -9.55509,-9.55511 -7.47789,0 -2.07719,3.32349 -4.15443,-2.49262 -6.64699,4.56981 -4.9853,-3.3235 0.8309,-2.90806 -9.55511,-1.66177 z"
           id="path3849"
           inkscape:connector-curvature="0" />
        <path
           style="fill:none;stroke:#dbdbdb;stroke-width:4.47531076;stroke-linecap:butt;stroke-linejoin:miter;stroke-opacity:1;display:inline;fill-opacity:1;stroke-miterlimit:4;stroke-dasharray:none"
           d="m 345.28992,530.5566 -5.40068,-4.15437 11.63227,-9.55508 4.98527,-0.41544 3.3235,-12.46317 5.81615,-7.47789 5.40071,-6.647 4.56984,2.90806 4.98524,4.56981 0,7.06249 7.89336,1.24631 0.83085,4.98525 -4.98527,4.15439 5.40071,0.41544 5.40071,-3.3235 14.95579,0.83085 2.49262,2.49265 7.89334,0.83088 7.89336,9.97052 3.3235,7.06245 -4.98528,4.56981 -1.66177,11.6323 7.47789,3.3235 29.49615,14.12494 -6.23156,8.72421 -4.15439,3.73894 -7.06244,-0.83088 -5.40071,4.98525 -10.80139,0.83087 -21.18738,6.64702 -12.04773,26.17263 2.07718,9.55511 -21.60278,14.12492 -23.68001,1.66175 -3.73896,-14.54036 -6.64699,-5.81615 -2.07724,-8.30874 -1.66175,-6.23159 -6.23156,5.40069 -7.89333,-0.41544 -8.30877,-2.07719 -4.1544,4.56984 -4.1544,1.24628 -3.73894,-3.32349 -4.15437,3.32349 -2.90812,-2.49259 0,-4.1544 -5.81612,-0.83087 6.64703,-10.38599 14.54035,-11.63227 5.40071,0.83088 7.89334,-4.1544 -2.49263,-6.85473 5.19298,0.20759 4.1544,-7.06246 -0.41546,-9.76281 8.10104,-0.41544 1.24631,8.30877 4.36213,2.70036 7.47792,-5.60842 4.56981,-10.59369 2.07716,-9.34735 -4.98522,-13.08636 -8.10106,-3.11577 z"
           id="path3851"
           inkscape:connector-curvature="0" />
        <path
           style="fill:none;stroke:#dbdbdb;stroke-width:4.47531076;stroke-linecap:butt;stroke-linejoin:miter;stroke-opacity:1;display:inline;fill-opacity:1;stroke-miterlimit:4;stroke-dasharray:none"
           d="m 437.51731,583.73275 2.07721,9.13968 -2.49262,6.23158 5.81612,12.04771 1.66177,5.40071 1.66175,5.81615 5.81615,-1.24631 4.15437,1.66174 0.41544,6.647 -4.98527,2.07721 -1.66175,5.40071 -9.13965,0.41541 -5.40071,-3.73893 -3.3235,5.40068 -7.47789,-2.90806 -2.90809,3.73896 -12.46314,-4.1544 -12.87861,-8.7242 -2.07719,-9.13965 12.46317,-27.00353 22.43367,-7.89333 z"
           id="path3853"
           inkscape:connector-curvature="0" />
        <path
           style="fill:none;stroke:#dbdbdb;stroke-width:4.47531076;stroke-linecap:butt;stroke-linejoin:miter;stroke-opacity:1;display:inline;fill-opacity:1;stroke-miterlimit:4;stroke-dasharray:none"
           d="m 421.73064,640.23243 5.40071,6.64699 0.41544,10.80143 3.32349,7.89333 6.23162,6.64702 0.83084,8.72418 2.07722,5.81618 0.41543,6.64699 17.03296,8.30877 6.23161,7.89337 2.49262,5.81612 -2.07718,7.06246 0.83087,6.64702 8.30877,-12.46314 0.41544,-7.4779 7.47787,-2.49262 7.06248,-7.4779 10.8014,-14.95579 11.63227,-7.06246 c 0,0 4.56983,-7.4779 6.23161,-7.89337 1.66175,-0.41543 -2.49265,-11.21683 -2.49265,-11.21683 l 0,-8.3088 4.56983,-5.40065 -5.40071,-4.56984 0,-5.81614 8.72421,0.41543 4.56984,-0.83087 -2.90809,-10.38599 -4.98525,-1.24631 -0.41543,-5.40068 -4.56984,-0.41547 -2.49262,-2.49259 0.83087,-6.64705 -2.90806,-4.15437 -7.06246,-0.41544 -6.64702,-3.73893 -4.1544,-4.56984 -9.97052,0.41544 0.83088,9.55508 -6.23159,6.23158 -9.55508,-7.89333 4.15437,-6.64702 -5.40068,-4.56981 -17.03301,11.21683 0.41544,5.40071 -6.23156,2.90806 4.15437,11.6323 5.40074,-1.66175 3.73893,2.07718 1.66173,7.4779 -4.98522,1.24631 -1.66175,5.40071 -9.55511,0.83085 -7.06246,-4.15437 -2.07719,5.40068 -7.89333,-2.90806 z"
           id="path3855"
           inkscape:connector-curvature="0" />
        <path
           style="fill:none;stroke:#dbdbdb;stroke-width:4.47531076;stroke-linecap:butt;stroke-linejoin:miter;stroke-opacity:1;display:inline;fill-opacity:1;stroke-miterlimit:4;stroke-dasharray:none"
           d="m 428.37769,749.07735 20.35645,-6.64702 9.55511,-9.13964 5.81615,-2.07722 9.55508,-13.70945 0,-8.30877 7.89333,-3.32353 0,4.56981 4.56984,0 2.49262,-3.3235 2.49262,1.24634 1.24632,3.73894 14.12494,-1.24631 9.55508,0 8.72418,-0.83088 3.32353,3.73894 5.81612,0.41543 2.07721,-3.32349 12.46317,0.41543 3.3235,6.23159 6.64702,2.49262 1.66178,9.13965 -1.24634,3.73896 -12.04773,7.89333 1.24634,2.90806 7.47789,1.24631 7.4779,-1.24631 13.70945,3.3235 5.81615,14.54038 -2.07718,6.23156 -6.64703,-0.83087 -5.81614,3.73893 -7.06246,2.90809 -1.66175,6.23156 -4.98528,2.90809 -6.23155,0 -4.56984,6.64702 -6.23159,-1.24631 -2.90808,-6.64703 -12.04771,-0.41546 -6.23156,4.56984 -7.89333,0 -3.32352,-2.90806 -5.40069,0.41546 -1.66175,-2.49268 -8.72423,0.41544 -6.64702,-8.72418 -9.97052,-0.83088 -8.30877,-6.64705 -21.18738,0 -4.98528,-5.81614 -10.38595,1.66177 z"
           id="path3857"
           inkscape:connector-curvature="0" />
        <path
           style="fill:none;stroke:#dbdbdb;stroke-width:4.47531076;stroke-linecap:butt;stroke-linejoin:miter;stroke-opacity:1;display:inline;fill-opacity:1;stroke-miterlimit:4;stroke-dasharray:none"
           d="m 406.77487,844.62826 2.49263,-5.40071 7.47789,-8.30877 7.06246,8.72426 2.90806,7.89325 8.72421,2.07719 4.98527,6.64708 6.23156,2.07718 7.47793,0.83085 7.06246,8.72429 17.03295,-2.90825 5.40074,6.23158 9.97051,-0.83084 -1.24633,-12.04763 5.81614,0.83085 4.1544,3.73888 9.97052,-5.40055 7.06246,7.06241 -2.49262,9.55511 1.24628,13.70948 -0.83084,13.70948 6.23155,2.49254 2.49265,5.40071 1.24634,5.81607 4.56981,0 0.41541,4.15456 -4.15437,4.15437 -6.23159,0.41533 -2.07718,7.0624 -9.55508,2.49271 -12.87861,6.23159 -10.38599,-1.24637 -7.8933,1.66186 -4.56984,-4.98541 -12.46317,-2.49252 7.06246,-5.81623 1.66175,-6.64691 -5.81612,-5.81623 2.07719,-12.46314 -4.56981,-4.5697 5.81614,-8.72426 -8.30879,0 0.8309,-8.72429 -7.06246,-2.90804 0.83085,-4.15437 -4.56981,-2.4927 -10.38596,-1.24634 -2.07721,4.15437 -4.56981,-5.81604 -7.89336,0.41552 -1.24629,-4.98541 -4.98527,-2.49251 2.07721,-12.46317 -4.56986,-4.5699 -4.56981,-1.24633 z"
           id="path3859"
           inkscape:connector-curvature="0" />
        <path
           style="fill:none;stroke:#dbdbdb;stroke-width:4.47531076;stroke-linecap:butt;stroke-linejoin:miter;stroke-opacity:1;display:inline;fill-opacity:1;stroke-miterlimit:4;stroke-dasharray:none"
           d="m 533.06821,920.2381 -0.8309,-5.81623 -5.40068,0.83085 -2.90809,-12.04762 -6.23156,-2.07719 0.41541,-15.37118 -1.24628,-11.21697 2.07718,-10.38595 7.89334,-1.24634 6.23158,-0.83085 -6.64702,-9.13959 10.38596,-2.07721 3.73896,-4.56987 6.23156,-12.46314 6.23158,11.6323 8.3088,-3.32355 4.15437,-6.23156 -3.32352,-8.72427 -3.3235,-11.2168 15.78667,-4.5697 -0.41544,-9.55511 c 0,0 -1.24631,-3.73904 -3.3235,-3.73904 -2.07721,0 3.73894,-7.06243 3.73894,-7.06243 l 0.83087,-2.49265 9.55511,-1.24632 1.24631,8.72421 14.54033,16.61752 -0.83087,21.60289 7.89333,2.49252 4.15437,6.64707 -1.66175,4.1544 2.90809,5.81626 -3.73896,4.56967 4.56984,9.55514 13.29401,-2.07721 13.29405,-6.23156 11.63227,-1.24637 14.54035,2.49274 2.90809,4.15437 -2.90809,7.0624 -2.07718,7.06241 -3.73894,7.89344 2.49263,4.15434 -4.98525,6.23162 2.07718,8.30871 3.73894,5.40077 6.23158,4.98519 -5.40071,4.98522 -8.30877,-1.24615 -17.44841,5.81607 -2.49263,3.32352 -6.64702,-1.66186 -7.06246,1.66186 -9.13964,-4.15437 -4.98528,-5.81623 -7.47789,1.66183 -9.55509,5.40074 -6.64702,11.6321 -2.07716,2.07722 -15.37125,0 -2.49263,-4.98525 -13.70948,-0.4153 -5.81615,4.15437 -4.15437,0 -0.41544,-4.98538 -6.23158,-2.90806 z"
           id="path3861"
           inkscape:connector-curvature="0" />
        <path
           style="fill:none;stroke:#dbdbdb;stroke-width:4.47531076;stroke-linecap:butt;stroke-linejoin:miter;stroke-opacity:1;display:inline;fill-opacity:1;stroke-miterlimit:4;stroke-dasharray:none"
           d="m 523.5131,634.41628 3.73899,-0.41543 -2.90808,-11.21684 -6.23162,-0.8309 0,-5.40068 -4.15437,-0.8309 -3.32352,-2.49263 1.24634,-6.23158 -2.90809,-4.56981 -8.30875,-1.24634 -9.13967,-6.64699 1.66178,-7.89334 7.06243,-0.8309 6.23161,-9.13962 7.89331,3.3235 2.90809,-4.98527 10.80139,-4.56981 5.81612,2.49262 5.81618,3.3235 18.69472,2.07721 3.73894,5.40068 0,4.98528 0.41546,6.23158 -4.1544,9.55509 -1.24631,6.23158 4.98525,2.90809 -4.56984,8.72421 2.49268,5.40068 -1.66178,7.4779 -3.32352,9.97052 -13.70946,0.41543 -8.30877,-7.89333 -9.13967,0.8309 z"
           id="path3863"
           inkscape:connector-curvature="0" />
        <path
           style="fill:none;stroke:#dbdbdb;stroke-width:4.47531076;stroke-linecap:butt;stroke-linejoin:miter;stroke-opacity:1;display:inline;fill-opacity:1;stroke-miterlimit:4;stroke-dasharray:none"
           d="m 535.97627,710.857 3.73897,-5.81615 12.87858,-20.35648 10.38598,2.49263 11.21683,-3.73897 12.87858,3.32353 6.23159,5.40068 9.97054,-2.07718 8.30877,9.55508 16.61755,-2.07716 8.7242,2.90806 2.07719,6.64699 1.24631,8.72421 1.24631,8.3088 -8.72421,-6.64702 -7.47786,2.49262 -2.49268,2.49263 -7.89331,0.83087 -6.23158,-5.40068 -3.3235,6.23158 -9.97052,2.90806 0.41544,6.23159 -4.56981,2.49262 -7.89334,9.55508 -5.81617,-2.49262 -1.24631,4.56981 -11.21686,-3.73894 -9.97052,1.24631 -7.06243,-1.24631 -1.66178,-3.32349 12.04773,-8.30877 1.24634,-3.73897 -2.07724,-7.89333 -4.98524,-2.90806 -4.98528,-5.81615 z"
           id="path3865"
           inkscape:connector-curvature="0" />
        <path
           style="fill:none;stroke:#dbdbdb;stroke-width:4.47531076;stroke-linecap:butt;stroke-linejoin:miter;stroke-opacity:1;display:inline;fill-opacity:1;stroke-miterlimit:4;stroke-dasharray:none"
           d="m 602.031,690.91593 -1.66175,-6.23156 -2.90806,-5.81615 -4.15439,-4.15439 -5.40069,-0.41541 -1.66175,-9.13968 -1.66177,-4.56983 4.56983,-5.81612 2.90806,-5.81615 3.32353,-2.07722 0.83085,-7.89333 7.47792,-7.47787 7.89333,0.41544 10.38596,-12.04773 3.32353,-13.70949 3.73893,-3.32349 29.49615,0.83087 6.23156,4.1544 10.80139,-6.64705 31.9888,-2.90806 4.56984,7.89333 -5.40071,8.72424 3.32349,5.81615 -0.83087,19.5256 -15.78667,-3.3235 -8.72423,8.30875 -6.23156,0.41543 -0.41544,7.89336 -14.95579,15.78664 7.06246,13.70949 0,4.98527 7.89333,-0.41544 2.49265,7.89334 -3.32355,7.89333 8.72423,9.13965 -0.41543,10.80139 -5.40071,1.24631 -10.38596,-5.81612 -8.72421,4.98525 -11.21683,-7.06243 -7.89336,8.30874 -1.66175,-13.70946 -2.49262,-10.80139 -9.55508,-3.32352 -17.03298,2.49262 z"
           id="path3867"
           inkscape:connector-curvature="0" />
        <path
           style="fill:none;stroke:#dbdbdb;stroke-width:4.47531076;stroke-linecap:butt;stroke-linejoin:miter;stroke-opacity:1;display:inline;fill-opacity:1;stroke-miterlimit:4;stroke-dasharray:none"
           d="m 555.08644,644.38683 8.30877,9.13964 4.98527,2.07719 6.64703,4.98525 c 0,0 7.89333,0.41543 9.55508,0.41543 1.66177,0 5.81612,-7.06243 5.81612,-7.06243 l -0.41541,-4.56983 5.40071,-2.07719 0.41544,-7.89336 7.47789,-8.72421 8.30877,1.24634 10.8014,-13.70948 2.90809,-12.04774 2.07715,-2.07718 -7.47789,-11.6323 0,-11.63227 -19.52561,-24.51087 -26.58806,-0.83088 -11.63229,-22.43369 -8.30875,10.38596 -27.8344,-10.38596 -9.97052,-14.54035 -3.73896,4.56984 4.56984,4.15437 -1.66178,7.89336 6.64702,6.23156 9.13965,7.47789 7.4779,1.24631 0.8309,7.06246 5.40068,3.32353 -0.41544,9.55505 -2.07718,7.06249 15.78667,0.41544 3.73893,7.06243 0.8309,7.89333 -0.8309,2.90806 -4.1544,14.95582 4.1544,3.32353 -3.73893,8.72421 1.24631,6.23155 z"
           id="path3869"
           inkscape:connector-curvature="0" />
        <path
           style="fill:none;stroke:#dbdbdb;stroke-width:4.47531076;stroke-linecap:butt;stroke-linejoin:miter;stroke-opacity:1;display:inline;fill-opacity:1;stroke-miterlimit:4;stroke-dasharray:none"
           d="m 371.04714,490.25909 3.32352,-3.32353 6.647,0 4.56983,2.49265 4.15438,-1.66177 -0.83088,-11.21683 -1.66175,-1.24634 0,-3.73894 4.98525,-5.81614 -0.83085,-3.3235 18.69473,-14.54036 2.90806,6.23159 9.55511,0.83084 4.98525,9.55511 7.89333,0.41544 8.72421,-2.07718 6.23158,2.90806 3.32353,4.98527 7.06246,1.24631 5.81612,-1.24631 10.38598,0 1.66175,-3.3235 6.23159,-0.41546 0.41543,5.40071 11.63227,-7.4779 6.23156,0 2.49265,4.1544 -8.30877,5.81615 -5.81615,14.54035 14.12492,10.8014 10.80139,17.44841 -4.15437,5.40072 4.98528,4.5698 -2.07722,7.47793 16.20211,13.70945 7.06246,1.24631 1.0386,7.06246 5.19298,4.36211 -0.20759,7.89333 -1.45405,7.27019 -15.16349,-5.81614 -10.59369,3.94666 -2.70036,5.40071 -7.89333,-3.53123 -6.43932,9.34735 -7.27016,0.62317 -1.24632,7.27017 -10.38598,0.62317 1.03861,10.17822 -6.647,5.60844 -8.72423,-7.6856 3.32349,-7.06248 -5.19297,-4.15438 -17.03298,11.21686 0.41543,4.77754 -5.60841,2.49263 -6.23159,-10.38599 3.11582,-6.85472 -2.49267,-8.72421 7.06248,-5.81615 6.85473,1.45404 4.98527,-5.19298 5.40071,-7.89333 -36.3509,-17.44842 1.45404,-11.63229 4.77754,-4.77754 -3.32349,-6.64702 -7.89334,-9.97052 -7.89336,-1.03861 -2.07716,-2.07719 -15.16352,-0.83087 -6.02385,3.11579 -4.98528,-0.62317 4.1544,-4.3621 0,-4.77754 -7.68563,-1.45405 -0.20759,-7.06246 z"
           id="path3871"
           inkscape:connector-curvature="0" />
        <path
           style="fill:none;stroke:#dbdbdb;stroke-width:4.47531076;stroke-linecap:butt;stroke-linejoin:miter;stroke-opacity:1;display:inline;fill-opacity:1;stroke-miterlimit:4;stroke-dasharray:none"
           d="m 345.95124,337.76819 2.64385,7.63775 9.10651,-0.29378 5.28769,-2.05631 2.9376,7.93151 1.76256,8.51901 4.11263,2.93762 0.88126,9.10654 2.64384,8.81277 -1.76253,10.57535 -8.22529,-1.46878 0.58753,4.40638 3.81888,2.9376 0.5875,4.40638 -3.81888,0.88128 -3.81888,6.46269 -11.45661,0.29378 -4.11263,2.05629 1.76257,2.93763 4.70016,3.81887 2.05631,3.23135 0,6.46273 -0.88128,4.99388 1.17503,7.93151 -2.64381,7.63773 4.40635,-1.17503 11.45664,-9.10655 9.98782,-1.17503 4.40638,5.28769 23.79453,0 3.23134,7.34398 3.81888,5.28766 8.51901,0.58751 4.99392,9.69407 8.81279,-0.58751 8.51904,-1.17503 4.99391,2.93757 4.40638,5.28769 6.75647,0.88128 5.58142,-1.76253 9.98785,0.29375 2.64382,-3.81888 4.99391,0.5875 0.29378,5.58145 11.75036,-8.51902 5.58144,0.88126 -9.98782,-17.91933 10.86907,-0.29376 17.62561,-10.57535 24.96953,-19.97562 0,-4.40641 -10.28157,-2.93759 -17.62558,1.76253 10.8691,-36.42617 9.69405,-0.88125 -4.70013,-8.51901 7.63773,-8.22529 1.46884,-12.63164 -6.75651,-17.03808 -12.63164,3.81888 -7.93151,1.76259 -19.38811,-9.98785 -14.98177,-1.46878 -14.98173,-12.04417 -15.56924,-2.9376 -18.50686,2.64385 0.88131,15.56926 -4.99394,-0.58753 -3.81888,-3.23134 -14.68796,0.58753 -5.87516,-6.46273 -7.93154,4.70016 -14.98174,-2.64382 -20.26939,4.70014 z"
           id="path3873"
           inkscape:connector-curvature="0" />
        <path
           style="fill:none;stroke:#dbdbdb;stroke-width:4.47531076;stroke-linecap:butt;stroke-linejoin:miter;stroke-opacity:1;display:inline;fill-opacity:1;stroke-miterlimit:4;stroke-dasharray:none"
           d="m 531.60723,242.88386 -1.46878,9.10654 4.99391,3.81891 -1.46881,6.75645 -13.21918,11.75038 -4.70016,13.80671 -7.63773,0 -8.81279,16.45052 -1.17506,19.09433 17.62558,9.1066 19.6819,-5.58147 8.81279,0.29378 13.80667,18.80061 13.80671,1.17504 11.16285,-11.75039 2.05632,-16.74427 9.10657,-10.2816 -5.58147,-6.16895 2.35009,-8.22529 23.50078,-2.05628 -1.76257,-6.16895 13.51293,-12.33789 -0.88126,-12.04414 -8.81279,-7.344 3.23135,-9.10654 -4.70016,-1.17504 -6.4627,5.28767 -1.76256,3.23134 -4.99391,-4.40638 -5.8752,3.23135 -8.22526,-3.23135 -3.81887,-4.40638 -7.05023,-0.58753 -3.81888,3.23135 -6.16895,-0.29375 -10.28157,-2.9376 -4.70016,0 -4.11263,-4.11263 -5.28766,0 -3.52513,-1.76256 z"
           id="path3875"
           inkscape:connector-curvature="0" />
        <path
           style="fill:none;stroke:#dbdbdb;stroke-width:4.47531076;stroke-linecap:butt;stroke-linejoin:miter;stroke-opacity:1;display:inline;fill-opacity:1;stroke-miterlimit:4;stroke-dasharray:none"
           d="m 409.99081,151.81847 5.87517,7.93148 9.10657,6.16895 0.58753,6.46272 -2.05634,6.46273 -5.8752,5.28766 0.88131,4.70016 2.05629,5.28766 4.11263,2.93757 3.23135,-4.40635 8.51904,2.05628 1.46878,3.5251 0,3.23138 5.87519,2.35009 9.10655,-4.70018 1.46881,-4.11261 -0.58753,-9.69407 -2.64385,-7.93151 3.52513,-6.16894 12.04414,0.29378 9.10654,-5.8752 10.57535,-13.2192 13.21918,-5.87519 12.92539,-5.58141 9.40035,-4.40641 7.34397,6.16897 10.57533,3.52507 9.69407,4.40644 7.34398,-2.05634 -2.9376,-2.64382 -13.51292,-32.90107 -31.43228,-13.512951 -3.23132,5.875221 -0.58756,8.81276 9.40032,10.57536 -7.93151,7.93148 -21.15068,-22.61947 2.35007,-13.219168 5.58144,-15.863017 -11.45664,-8.812791 -2.05631,-10.281575 -10.28158,1.762564 -9.40029,-9.694072 -18.50683,-1.175034 -15.56927,4.11263 -13.8067,-9.106541 -22.61947,-1.468785 1.76254,19.094338 -7.34398,3.818906 -6.16894,17.625553 13.8067,6.462696 12.63164,11.162856 13.21917,0 1.76257,7.63776 7.05022,4.11263 9.10654,0 1.17504,19.97565 -6.16895,7.63773 -15.56924,-2.05629 0.58751,9.69404 z"
           id="path3877"
           inkscape:connector-curvature="0" />
        <path
           style="fill:none;stroke:#dbdbdb;stroke-width:4.47531076;stroke-linecap:butt;stroke-linejoin:miter;stroke-opacity:1;display:inline;fill-opacity:1;stroke-miterlimit:4;stroke-dasharray:none"
           d="m 441.12932,202.93259 -3.81888,7.93154 0,13.8067 2.35006,6.46267 7.05023,0 6.75648,9.4003 1.17503,4.11263 10.28157,1.76256 6.16898,-3.81888 5.28769,0.29375 9.98779,4.70016 8.22526,0.88128 3.5251,2.05632 11.45664,0 4.40638,-3.81885 13.2192,-4.99394 4.70013,1.76256 7.05023,-5.87519 8.81279,1.17503 4.40638,4.99394 4.70016,-1.17506 7.63776,2.35009 3.23135,1.46879 5.28766,-0.29375 3.5251,-2.64385 7.34401,0.58753 5.28766,4.11263 7.63776,3.52513 4.40638,-3.52513 5.58144,4.11263 2.64382,-2.93759 5.28766,-4.99389 5.28769,1.76254 -6.75647,-11.16286 0.58753,-9.40029 -7.63776,-6.16895 0.88125,-8.81279 8.22532,0 13.51292,-10.28157 0,-8.22529 c 0,0 16.15677,-13.80667 16.45052,-15.56924 0.29378,-1.76256 -1.46881,-10.86908 -1.46881,-10.86908 l 6.16894,-8.22528 0.29378,-16.45052 -15.86301,-6.4627 1.76256,-6.7565 -25.55709,-7.34398 -12.04414,12.04414 -6.46269,-14.39424 -0.88129,5.2877 -5.58144,-2.9376 -5.87514,36.42619 -20.85693,-8.51904 -9.40032,2.3501 -20.56315,-8.22529 -7.05022,-5.87519 -35.83867,15.56926 -9.98785,13.51295 -9.98782,6.4627 -12.33789,-1.46881 -2.35007,7.344 2.35007,7.0502 1.17506,10.28161 -1.76257,4.40638 -9.10654,4.40638 z"
           id="path3879"
           inkscape:connector-curvature="0" />
        <path
           style="fill:none;stroke:#dbdbdb;stroke-width:4.47531076;stroke-linecap:butt;stroke-linejoin:miter;stroke-opacity:1;display:inline;fill-opacity:1;stroke-miterlimit:4;stroke-dasharray:none"
           d="m 384.72747,833.04668 3.08448,-7.34401 1.46884,-6.46278 14.54108,-7.78455 13.21914,-19.09433 -3.37819,-18.21311 13.95355,-11.60352 0.29375,-1.90941 10.2816,-1.61569 5.14079,5.72832 21.15068,-0.14685 7.93151,7.0502 10.13469,0.58753 6.75645,8.95967 8.51904,-0.88128 1.76257,2.9376 5.28766,-0.44066 3.23137,2.79075 8.22524,0.14685 5.87519,-4.55329 12.48479,0.44063 2.64385,6.75647 5.87516,0.88129 4.99392,-6.75648 5.87522,0.29378 5.14076,-2.9376 1.32191,-6.31584 7.19713,-3.08448 6.16894,-3.67197 6.31582,0.73438 -2.93759,7.49088 -10.1347,2.79069 -1.76254,9.84098 9.40029,1.61566 -4.40641,7.93148 2.79075,2.20327 1.17504,3.37817 0,8.07847 -15.42237,5.14067 6.3158,19.97568 -4.11263,6.16889 -8.22526,2.79075 -6.31582,-10.72215 -5.87523,12.04406 -3.67197,4.4064 -10.42845,2.35013 6.6096,9.25336 -13.95361,2.0564 -6.90332,-6.90335 -10.28157,5.43456 -3.67201,-3.96581 -6.31582,-0.44057 1.61569,11.60349 -10.42851,1.46881 -4.99388,-6.60969 -17.33183,2.9376 -6.75645,-8.51904 -7.49088,-1.02802 -6.31582,-2.2033 -4.84704,-6.46261 -9.25341,-2.497 -2.49695,-7.78474 -7.05025,-8.372 -7.49085,8.07827 -2.9376,6.02204 -3.672,1.76271 z"
           id="path3881"
           inkscape:connector-curvature="0" />
        <path
           style="fill:none;stroke:#dbdbdb;stroke-width:4.47531076;stroke-linecap:butt;stroke-linejoin:miter;stroke-opacity:1;display:inline;fill-opacity:1;stroke-miterlimit:4;stroke-dasharray:none"
           d="m 192.02127,891.79859 -11.30976,2.79075 -8.22526,-5.8752 -10.42845,-1.32191 -10.72223,1.61564 -6.4627,-4.70011 -2.35007,-7.05022 3.67198,-10.5755 5.14079,-9.84078 2.93759,-8.9598 7.0502,-4.84696 11.16289,1.46879 10.72223,-6.60966 1.61569,-9.69393 -0.14685,-10.42859 9.69404,-10.28158 18.06621,-10.72211 2.49694,-12.0442 15.56927,-8.07838 6.02207,3.96575 18.21307,-7.1971 0.58753,-10.1347 3.67197,-5.28766 -0.14684,-2.64385 13.8067,-0.58753 3.81888,4.11266 14.2473,-7.63776 0.73443,-5.58141 5.14079,-2.05635 1.76256,6.02207 4.40644,1.17506 1.76254,8.66589 4.84703,4.99391 -1.76256,2.9376 -8.07841,-0.14685 -2.64382,4.99391 3.81885,3.96576 4.40641,2.49697 1.32194,2.64382 -3.96576,1.02815 -8.66591,-0.7344 -1.46884,6.6096 0.58753,6.02201 5.72834,1.17509 3.81888,1.32194 -0.14685,5.28755 -2.64384,4.99402 -7.19713,1.17503 0.14685,8.51907 -2.35007,3.08445 0,3.81874 -7.78463,3.81893 -8.81279,-2.20308 -9.4003,0.2937 -23.0601,6.16891 -9.69408,7.05026 -6.6096,-0.58748 -5.87519,4.11249 -2.64382,8.07847 -11.01598,7.78455 -1.90944,16.59751 -12.04414,10.57527 z"
           id="path3883"
           inkscape:connector-curvature="0" />
        <path
           style="fill:none;stroke:#dbdbdb;stroke-width:4.47531076;stroke-linecap:butt;stroke-linejoin:miter;stroke-opacity:1;display:inline;fill-opacity:1;stroke-miterlimit:4;stroke-dasharray:none"
           d="m 54.067432,766.31807 -2.492623,-6.64705 -10.593661,-6.02383 3.531202,-8.93197 0.415437,-11.42453 -24.926313,-22.64143 5.816148,-9.76278 3.115765,-19.1102 -0.207593,-23.05683 19.941067,-13.91721 13.086312,3.94667 13.086312,-2.07719 0.207593,3.11576 6.231585,0.41547 3.946639,-4.77754 8.724236,0.41544 9.555082,4.5698 12.25544,2.07722 15.1635,4.15437 3.53123,-2.90806 12.25546,1.66178 4.77752,-2.90809 10.17825,0.41544 16.40983,-13.70949 0.62315,-7.47789 3.32352,-0.41544 4.77751,-4.56984 -0.20759,-6.02382 7.89334,0 7.27019,8.30874 7.6856,-0.62317 4.56983,3.94667 7.06244,-6.43926 6.64705,-0.62317 -0.62317,6.64702 -2.28489,2.07719 -2.70039,3.94666 -4.98524,3.94667 5.40071,4.1544 -0.83088,4.15437 -5.81617,4.77754 2.07721,2.28492 1.66175,15.37123 4.3621,2.28492 2.07722,4.1544 0.20759,7.8933 -7.4779,0 -3.11579,5.19298 -7.89333,3.53126 -1.66175,4.56981 -5.81615,0.83087 -1.66175,-6.02388 -6.85472,-8.30874 -29.08074,2.49262 -3.11577,5.81612 -3.5312,3.73896 3.5312,2.70036 -3.32352,4.36208 -2.28492,6.43931 -8.72418,-1.66175 -3.53126,2.07719 -8.72421,1.03861 -1.66175,13.50175 -8.30877,10.17825 -14.95576,4.98527 -13.086343,2.49262 -11.424563,-3.73893 -7.270164,-6.43932 -0.415465,9.13968 -11.216831,11.42456 -1.038607,4.56981 z"
           id="path3885"
           inkscape:connector-curvature="0" />
        <path
           style="fill:none;stroke:#dbdbdb;stroke-width:4.47531076;stroke-linecap:butt;stroke-linejoin:miter;stroke-opacity:1;display:inline;fill-opacity:1;stroke-miterlimit:4;stroke-dasharray:none"
           d="m 255.34746,498.98327 -3.53126,-2.70033 -51.51436,4.1544 -39.67437,16.20211 -17.86389,-15.9944 -21.60281,-0.62317 -18.69473,28.87298 8.10104,22.01825 -18.6947,24.51087 2.908061,12.25547 13.294049,-11.00913 17.65612,-1.86948 5.40071,5.19298 9.76278,0.62317 9.13968,9.76279 13.29401,-0.2076 22.01826,-8.5165 4.98527,-2.28492 1.24631,-4.77754 6.43929,-2.70035 7.68563,4.77756 8.30877,0.83088 4.15437,3.73893 18.07159,-0.20759 4.98524,-3.11576 -7.8933,-13.50178 -0.41544,-2.49262 6.23156,-1.86946 7.89332,1.66175 8.72424,-6.43929 5.60841,-5.40074 -1.86948,-6.23156 -3.73893,-5.81614 0.41541,-7.06246 6.64702,-1.24631 -9.34738,-6.02386 0.6232,-8.51647 -3.53126,-0.2076 5.19301,-8.30879 z"
           id="path3887"
           inkscape:connector-curvature="0" />
        <path
           style="fill:none;stroke:#dbdbdb;stroke-width:4.47531076;stroke-linecap:butt;stroke-linejoin:miter;stroke-opacity:1;display:inline;fill-opacity:1;stroke-miterlimit:4;stroke-dasharray:none"
           d="m 270.92639,472.60294 -18.90246,23.68 3.53123,2.49262 10.59369,-4.77754 10.17826,-2.49262 27.41896,0.83087 2.49262,2.90806 1.86948,9.76282 4.1544,7.06246 -1.66175,9.97052 2.28489,4.3621 8.72421,1.24631 2.07722,4.77755 10.17825,2.28491 9.76279,-1.24631 1.45404,-3.11579 -4.77754,-4.15437 11.00912,-9.97055 5.19298,0.20759 3.3235,-11.63229 11.21686,-14.54033 3.53123,-3.32353 6.23158,-0.20787 4.36211,2.70039 4.56981,-1.45408 -0.83088,-11.21683 -2.07718,-1.45404 0,-3.3235 -12.46315,-0.83087 -5.193,3.94664 -10.59369,-0.62315 -6.85473,3.73897 -7.4779,-0.41541 -5.193,4.98522 -8.30874,0.41543 -5.60845,-5.40065 -6.85472,-0.2076 -9.55509,-9.34735 -8.10104,0 -1.24631,3.3235 -4.56986,-2.28492 -6.64702,4.98528 -4.77757,-3.94667 1.0386,-2.90806 -9.76281,-1.66178 z"
           id="path3889"
           inkscape:connector-curvature="0" />
        <path
           style="fill:none;stroke:#dbdbdb;stroke-width:4.47531076;stroke-linecap:butt;stroke-linejoin:miter;stroke-opacity:1;display:inline;fill-opacity:1;stroke-miterlimit:4;stroke-dasharray:none"
           d="m 345.65749,337.76819 -12.92542,0.29375 -11.75039,8.51904 -24.38205,-11.16286 -23.207,0.5875 -9.98785,-6.75645 -5.28766,7.34398 1.76256,7.34398 -0.88126,8.51904 -11.16288,-4.40641 3.23138,18.21311 -5.87519,0.29373 -1.17503,18.80064 -7.05023,7.93151 -3.52512,33.19479 17.91932,15.27551 11.45661,6.4627 -0.29376,-19.68187 5.58142,-9.98785 8.81279,-2.35007 15.86299,-12.63167 9.10662,1.17506 0.29376,4.70014 5.87516,6.16894 -1.17503,4.11266 -3.23135,4.40638 1.46878,8.81276 12.63167,2.93763 12.04411,-10.2816 11.16289,0.29377 9.40029,22.91325 3.23138,-0.88131 2.64382,-7.93148 -2.35007,-8.22529 1.76256,-11.16283 -3.23135,-3.23137 -3.81887,-3.23133 -2.35007,-4.11265 6.16894,-1.46882 9.98783,-0.29375 3.5251,-6.16894 4.11263,-0.5875 -0.29375,-4.70016 -3.81888,-2.9376 0,-4.40638 7.34398,0.5875 2.05631,-9.98782 -2.35007,-8.22526 -1.17503,-9.10655 -3.81888,-3.52512 -1.46881,-7.93148 -4.70013,-8.22529 c 0,0 -2.64385,1.76256 -4.11266,2.05631 -1.46878,0.29378 -9.9878,-0.29375 -9.9878,-0.29375 z"
           id="path3891"
           inkscape:connector-curvature="0" />
        <path
           style="fill:none;stroke:#dbdbdb;stroke-width:4.47531076;stroke-linecap:butt;stroke-linejoin:miter;stroke-opacity:1;display:inline;fill-opacity:1;stroke-miterlimit:4;stroke-dasharray:none"
           d="m 404.40937,315.73622 3.23138,-24.38203 -11.75039,-23.79452 -11.45661,-0.29375 -20.85693,9.10654 -12.63167,-19.09439 -11.45661,-4.40636 -3.23137,-6.46272 -9.10654,-2.64382 9.98782,-19.38812 -2.93757,-8.22528 10.28155,-0.88126 8.51904,-8.22529 0.58753,-19.38808 19.68187,-2.05635 0.5875,-4.99391 -15.27549,-19.68187 0.88131,-3.81888 12.92542,-2.05634 2.93757,-8.81279 14.68798,-3.81885 20.2694,9.40032 6.4627,8.51901 7.93151,4.70016 0.88131,6.75648 -1.17506,6.75645 -6.4627,5.58144 2.35007,10.28157 4.40638,3.23135 3.52513,-4.99388 8.22526,2.35006 1.76256,4.11261 0.29375,2.35009 3.81888,1.76256 -4.40641,6.75645 -0.88125,14.10048 3.23134,7.0502 7.05023,-0.5875 6.16895,9.40026 1.46881,4.99394 10.86908,1.17504 4.99391,-3.23138 5.28766,0 10.86911,4.70016 7.93153,-0.5875 3.5251,3.81888 11.75036,-0.29378 3.81888,-3.5251 13.51295,-5.58144 4.11263,2.64384 -1.46878,6.75648 4.99391,5.28763 -1.17506,7.05026 -12.63164,11.16285 -5.8752,13.80671 -7.34398,0.58753 -8.81279,16.15674 -1.17506,19.09436 -17.03805,-2.93759 -14.3942,-11.16286 -15.27549,-3.23135 -19.09436,2.93763 0.29375,15.27546 -4.99391,-0.88129 -3.23135,-3.23134 -14.68799,0 z"
           id="path3893"
           inkscape:connector-curvature="0" />
        <path
           style="fill:none;stroke:#dbdbdb;stroke-width:4.47531076;stroke-linecap:butt;stroke-linejoin:miter;stroke-opacity:1;display:inline;fill-opacity:1;stroke-miterlimit:4;stroke-dasharray:none"
           d="m 583.3363,938.93283 2.07716,-1.86954 6.85476,7.47793 5.19297,-1.45402 14.33263,16.82516 4.98527,0 8.72424,10.5938 -0.62317,10.38604 3.53123,1.86946 5.60839,-1.86946 6.43931,13.70951 -6.02385,2.70039 -1.24634,6.6469 -12.67087,-0.6234 -3.53123,4.7778 -14.54033,-2.4926 -5.60844,-3.1158 1.24631,-7.27023 -6.23156,-0.83093 -5.19298,-2.07732 -2.90809,3.32372 -0.41541,3.53103 -3.53125,2.70043 -6.23159,-2.07709 -28.0421,9.97059 -12.25544,-5.8162 1.03858,-4.56986 -3.73891,-2.70038 -5.81618,-8.51661 -8.93191,1.24639 -0.41544,-17.44836 -10.17822,-1.45402 -5.60847,6.23159 -4.77751,-2.28486 -9.13968,-1.66186 -3.11576,2.90803 -3.32353,-2.49251 -3.5312,-0.83102 -3.53123,2.28503 -5.193,-2.07718 -3.53121,1.24634 -4.98527,1.86934 -4.77754,-2.28484 -12.67088,0.4155 -11.84002,-1.86954 5.60841,-7.89342 6.23161,-2.90803 2.28489,-10.80145 11.84,0 1.03861,-8.72409 3.94667,-3.32356 1.24631,-5.40071 13.29404,2.49271 4.98525,4.98522 7.27016,-1.6617 10.17828,1.24617 13.29402,-6.85472 9.34738,-2.70019 2.07718,-6.85476 5.81615,0.2076 4.98525,-5.40074 2.70038,11.83997 5.81615,3.11588 0.41541,5.19289 4.3621,-0.41532 5.60845,-4.36225 14.33262,0.83105 2.70033,4.98521 z"
           id="path3895"
           inkscape:connector-curvature="0" />
        <path
           style="fill:none;stroke:#dbdbdb;stroke-width:4.47531076;stroke-linecap:butt;stroke-linejoin:miter;stroke-opacity:1;display:inline;fill-opacity:1;stroke-miterlimit:4;stroke-dasharray:none"
           d="m 555.40176,644.89372 -13.80671,0.73438 -9.25344,-7.93148 -8.37214,1.17506 -0.5875,-4.99394 -9.69407,0.44063 -0.14685,5.28769 5.28766,5.28766 -3.96575,4.55328 -0.29375,8.51902 2.9376,11.16285 -2.35007,1.46881 -4.55329,6.60958 -12.04413,7.19713 -9.69408,14.54108 -7.49085,7.344 0,4.40636 4.55328,-0.44063 2.2032,-2.79069 2.93756,1.17503 1.46882,3.672 14.39423,-1.76259 8.95964,0.44066 8.66591,-1.32194 3.96576,4.40641 5.28766,0 2.79072,-3.52513 16.30364,-25.70394 10.1347,1.90944 11.01599,-3.23135 13.65982,3.67198 5.43454,5.43457 9.10654,-2.35007 -1.32191,-5.58144 -3.672,-6.16897 -3.96575,-3.67201 -5.58142,-0.5875 -1.61569,-9.10654 -1.76256,-4.70016 -9.54717,0 -6.31582,-4.84701 -5.14081,-2.05632 z"
           id="path3897"
           inkscape:connector-curvature="0" />
        <path
           style="fill:none;stroke:#dbdbdb;stroke-width:4.47531076;stroke-linecap:butt;stroke-linejoin:miter;stroke-opacity:1;display:inline;fill-opacity:1;stroke-miterlimit:4;stroke-dasharray:none"
           d="m 376.44782,640.44014 20.1488,-13.70949 13.08631,8.93194 12.04771,3.94667 6.02388,7.4779 0.20759,10.80139 3.32353,8.5165 6.43929,5.81615 0.41543,8.51651 2.28492,6.23155 0.2076,6.64703 16.40983,8.10103 6.43932,7.47793 2.28489,6.64699 -1.86948,6.85476 0.62317,8.30877 -6.23159,2.49262 -9.13964,8.93194 -21.18738,7.27017 -15.57896,2.28491 -6.23156,-2.90806 -6.64699,0.41541 -2.49265,-6.8547 -4.98528,-0.20759 -0.41544,-3.53123 4.36214,-3.94667 -4.1544,-4.15439 2.07715,-3.53123 0.62317,-3.73894 -1.24631,-3.73896 -4.77751,-5.40068 8.51648,-0.83091 6.43929,-4.77754 6.43931,-0.41541 0.41544,-4.56983 4.98525,-0.2076 2.07721,-7.06246 -5.60844,-10.17822 1.45404,-9.55508 -3.94667,-4.77757 -3.53123,-8.10104 -6.64702,0.41544 -9.76281,-7.27017 -4.56981,-10.59371 -5.81615,-0.41541 z"
           id="path3899"
           inkscape:connector-curvature="0" />
      </g>
    </g>
  </g>
</svg>
