<?xml version="1.0" encoding="UTF-8" standalone="no"?>
<!-- Created with Inkscape (http://www.inkscape.org/) -->

<svg
   xmlns:dc="http://purl.org/dc/elements/1.1/"
   xmlns:cc="http://creativecommons.org/ns#"
   xmlns:rdf="http://www.w3.org/1999/02/22-rdf-syntax-ns#"
   xmlns:svg="http://www.w3.org/2000/svg"
   xmlns="http://www.w3.org/2000/svg"
   xmlns:sodipodi="http://sodipodi.sourceforge.net/DTD/sodipodi-0.dtd"
   xmlns:inkscape="http://www.inkscape.org/namespaces/inkscape"
   id="svg2"
   version="1.1"
   inkscape:version="0.48.4 r9939"
   width="400"
   height="330"
   xml:space="preserve"
   sodipodi:docname="FR.ai"><metadata
     id="metadata8"><rdf:RDF><cc:Work
         rdf:about=""><dc:format>image/svg+xml</dc:format><dc:type
           rdf:resource="http://purl.org/dc/dcmitype/StillImage" /><dc:title></dc:title></cc:Work></rdf:RDF></metadata><defs
     id="defs6"><clipPath
       clipPathUnits="userSpaceOnUse"
       id="clipPath24"><path
         d="m 0,898.583 651.973,0 L 651.973,0 0,0 0,898.583 z"
         id="path26"
         inkscape:connector-curvature="0" /></clipPath><clipPath
       clipPathUnits="userSpaceOnUse"
       id="clipPath36"><path
         d="m 0,898.583 651.973,0 L 651.973,0 0,0 0,898.583 z"
         id="path38"
         inkscape:connector-curvature="0" /></clipPath><clipPath
       clipPathUnits="userSpaceOnUse"
       id="clipPath96"><path
         d="m 0,898.583 651.973,0 L 651.973,0 0,0 0,898.583 z"
         id="path98"
         inkscape:connector-curvature="0" /></clipPath><clipPath
       clipPathUnits="userSpaceOnUse"
       id="clipPath108"><path
         d="m 0,898.583 651.973,0 L 651.973,0 0,0 0,898.583 z"
         id="path110"
         inkscape:connector-curvature="0" /></clipPath></defs><sodipodi:namedview
     pagecolor="#ffffff"
     bordercolor="#666666"
     borderopacity="1"
     objecttolerance="10"
     gridtolerance="10"
     guidetolerance="10"
     inkscape:pageopacity="0"
     inkscape:pageshadow="2"
     inkscape:window-width="1535"
     inkscape:window-height="876"
     id="namedview4"
     showgrid="false"
     inkscape:zoom="0.21010858"
     inkscape:cx="407.48312"
     inkscape:cy="561.61438"
     inkscape:window-x="65"
     inkscape:window-y="24"
     inkscape:window-maximized="1"
     inkscape:current-layer="g10" /><g
     id="g10"
     inkscape:groupmode="layer"
     inkscape:label="FR"
     transform="matrix(1.25,0,0,-1.25,0,330.00002)"><g
       id="g20"><g
         id="g22"
         clip-path="url(#clipPath24)"><g
           id="g28"
           transform="translate(350.8027,708.2056)" /></g></g><g
       id="g32"><g
         id="g34"
         clip-path="url(#clipPath36)"><g
           id="g40"
           transform="translate(350.8027,710.2056)" /></g></g><g
       id="g92"><g
         id="g94"
         clip-path="url(#clipPath96)"><g
           id="g100"
           transform="translate(346.3027,279.2055)" /></g></g><g
       id="g104"><g
         id="g106"
         clip-path="url(#clipPath108)"><g
           id="g112"
           transform="translate(346.3027,281.2055)" /></g></g><g
       id="g3149"
       transform="translate(-190.37778,-552.09549)"><text
         id="text14"
         transform="matrix(1,0,0,-1,207.3301,583.0098)"><tspan
           id="tspan16"
           sodipodi:role="line"
           y="0"
           x="0 19.379999 39.18 48 68.370003 88.169998 96.690002 113.13 132.50999 150.21001 170.58 187.28999 203.73 220.17 239.97 259.76999"
           style="font-size:30px;font-variant:normal;font-weight:bold;font-stretch:normal;writing-mode:lr-tb;fill:#373535;fill-opacity:1;fill-rule:nonzero;stroke:none;font-family:EC Square Sans Pro;-inkscape-font-specification:ECSquareSansPro-Bold">UNION EUROPÉENNE</tspan></text>
<path
         id="path18"
         style="fill:#ffffff;fill-opacity:1;fill-rule:nonzero;stroke:none"
         d="m 203.33,810.237 294.945,0 0,-200.344 -294.945,0 0,200.344 z"
         inkscape:connector-curvature="0" /><path
         id="path30"
         style="fill:#2a57a5;fill-opacity:1;fill-rule:nonzero;stroke:none"
         d="m 209.002,804.745 283.602,0 0,-189.07 -283.602,0 0,189.07 z"
         inkscape:connector-curvature="0" /><g
         transform="translate(344.7598,763.5493)"
         id="g42"><path
           id="path44"
           style="fill:#fff215;fill-opacity:1;fill-rule:nonzero;stroke:none"
           d="M 0,0 5.984,4.367 11.969,0 9.691,7.062 15.77,11.43 8.277,11.43 5.984,18.578 3.691,11.422 -3.797,11.43 2.277,7.062 0,0 z"
           inkscape:connector-curvature="0" /></g><g
         transform="translate(313.791,755.229)"
         id="g46"><path
           id="path48"
           style="fill:#fff215;fill-opacity:1;fill-rule:nonzero;stroke:none"
           d="M 0,0 5.984,4.367 11.965,0 9.691,7.063 15.766,11.43 8.273,11.43 5.981,18.586 3.688,11.422 -3.801,11.43 2.273,7.063 0,0 z"
           inkscape:connector-curvature="0" /></g><g
         transform="translate(297.1152,751.104)"
         id="g50"><path
           id="path52"
           style="fill:#fff215;fill-opacity:1;fill-rule:nonzero;stroke:none"
           d="m 0,0 -2.293,-7.164 -7.488,0.008 6.074,-4.367 -2.277,-7.063 5.984,4.367 5.984,-4.367 -2.277,7.063 6.074,4.367 -7.488,0 L 0,0 z"
           inkscape:connector-curvature="0" /></g><g
         transform="translate(288.8027,705.9556)"
         id="g54"><path
           id="path56"
           style="fill:#fff215;fill-opacity:1;fill-rule:nonzero;stroke:none"
           d="M 0,0 5.98,-4.367 3.707,2.695 9.781,7.062 2.293,7.062 0,14.219 -2.293,7.047 -9.785,7.062 -3.707,2.695 -5.984,-4.367 0,0 z"
           inkscape:connector-curvature="0" /></g><g
         transform="translate(299.4082,681.9946)"
         id="g58"><path
           id="path60"
           style="fill:#fff215;fill-opacity:1;fill-rule:nonzero;stroke:none"
           d="M 0,0 -2.293,7.156 -4.586,-0.008 -12.074,0 -6,-4.367 -8.277,-11.43 -2.293,-7.055 3.691,-11.43 1.414,-4.367 7.488,0 0,0 z"
           inkscape:connector-curvature="0" /></g><g
         transform="translate(322.1113,659.2916)"
         id="g62"><path
           id="path64"
           style="fill:#fff215;fill-opacity:1;fill-rule:nonzero;stroke:none"
           d="M 0,0 -2.293,7.148 -4.582,-0.008 -12.074,0 -6,-4.367 -8.273,-11.43 -2.289,-7.062 3.691,-11.43 1.418,-4.367 7.492,0 0,0 z"
           inkscape:connector-curvature="0" /></g><g
         transform="translate(353.041,651.0649)"
         id="g66"><path
           id="path68"
           style="fill:#fff215;fill-opacity:1;fill-rule:nonzero;stroke:none"
           d="M 0,0 -2.293,7.156 -4.582,-0.008 -12.074,0 -6,-4.367 -8.273,-11.43 -2.289,-7.062 3.691,-11.43 1.414,-4.367 7.492,0 0,0 z"
           inkscape:connector-curvature="0" /></g><g
         transform="translate(383.9707,659.2916)"
         id="g70"><path
           id="path72"
           style="fill:#fff215;fill-opacity:1;fill-rule:nonzero;stroke:none"
           d="M 0,0 -2.289,7.148 -4.586,-0.008 -12.07,0 -6,-4.367 -8.273,-11.43 -2.289,-7.062 3.695,-11.43 1.414,-4.367 7.492,0 0,0 z"
           inkscape:connector-curvature="0" /></g><g
         transform="translate(406.6816,681.9946)"
         id="g74"><path
           id="path76"
           style="fill:#fff215;fill-opacity:1;fill-rule:nonzero;stroke:none"
           d="M 0,0 -2.297,7.156 -4.594,-0.008 -12.078,0 -6,-4.367 -8.281,-11.43 -2.297,-7.055 3.687,-11.43 1.406,-4.367 7.484,0 0,0 z"
           inkscape:connector-curvature="0" /></g><g
         transform="translate(422.3926,713.1041)"
         id="g78"><path
           id="path80"
           style="fill:#fff215;fill-opacity:1;fill-rule:nonzero;stroke:none"
           d="M 0,0 -7.492,0 -9.789,7.156 -12.078,-0.008 -19.57,0 l 6.078,-4.367 -2.274,-7.063 5.977,4.375 5.984,-4.375 -2.273,7.063 L 0,0 z"
           inkscape:connector-curvature="0" /></g><g
         transform="translate(398.4004,732.6118)"
         id="g82"><path
           id="path84"
           style="fill:#fff215;fill-opacity:1;fill-rule:nonzero;stroke:none"
           d="M 0,0 5.984,4.367 11.969,0 9.688,7.062 l 6.078,4.36 -7.485,0 L 5.984,18.578 3.688,11.414 -3.797,11.422 2.281,7.062 0,0 z"
           inkscape:connector-curvature="0" /></g><g
         transform="translate(381.7676,773.8071)"
         id="g86"><path
           id="path88"
           style="fill:#fff215;fill-opacity:1;fill-rule:nonzero;stroke:none"
           d="m 0,0 -2.289,-7.164 -7.492,0.016 6.07,-4.375 -2.273,-7.063 5.992,4.375 5.976,-4.375 -2.273,7.063 6.078,4.375 -7.5,0 L 0,0 z"
           inkscape:connector-curvature="0" /></g><text
         id="text162"
         transform="matrix(1,0,0,-1,208.3301,562.6616)"><tspan
           id="tspan164"
           sodipodi:role="line"
           y="0"
           x="0 7.1849999 14.73 22.305 29.955 36.494999 40.544998 47.880001 55.560001 60.48 68.025002 75.495003 82.830002 90.165001 97.739998 101.79 109.44 116.775 120.825 128.47501 135.81 142.755 150.09 153.645 161.19 168.66 176.13 183.465 195.61501 202.95 210.52499 215.37 219.42 224.34 231.675 239.34 242.685 250.23 257.80499 265.51501"
           style="font-size:15px;font-variant:normal;font-weight:normal;font-stretch:normal;writing-mode:lr-tb;fill:#373535;fill-opacity:1;fill-rule:nonzero;stroke:none;font-family:EC Square Sans Pro;-inkscape-font-specification:ECSquareSansPro">Fonds européen de développement régional</tspan></text>
</g></g></svg>