<?xml version="1.0" encoding="UTF-8" standalone="no"?>
<!-- Created with Inkscape (http://www.inkscape.org/) -->

<svg
   xmlns:dc="http://purl.org/dc/elements/1.1/"
   xmlns:cc="http://creativecommons.org/ns#"
   xmlns:rdf="http://www.w3.org/1999/02/22-rdf-syntax-ns#"
   xmlns:svg="http://www.w3.org/2000/svg"
   xmlns="http://www.w3.org/2000/svg"
   xmlns:sodipodi="http://sodipodi.sourceforge.net/DTD/sodipodi-0.dtd"
   xmlns:inkscape="http://www.inkscape.org/namespaces/inkscape"
   id="svg2"
   version="1.1"
   inkscape:version="0.48.4 r9939"
   width="1560"
   height="500"
   xml:space="preserve"
   sodipodi:docname="L-VAL EYRIEUX cartouche-RVB.svg"><metadata
     id="metadata8"><rdf:RDF><cc:Work
         rdf:about=""><dc:format>image/svg+xml</dc:format><dc:type
           rdf:resource="http://purl.org/dc/dcmitype/StillImage" /><dc:title></dc:title></cc:Work></rdf:RDF></metadata><defs
     id="defs6"><clipPath
       clipPathUnits="userSpaceOnUse"
       id="clipPath36"><path
         d="m 0,82.774 258.838,0 L 258.838,0 0,0 0,82.774 z"
         id="path38"
         inkscape:connector-curvature="0" /></clipPath></defs><sodipodi:namedview
     pagecolor="#ffffff"
     bordercolor="#666666"
     borderopacity="1"
     objecttolerance="10"
     gridtolerance="10"
     guidetolerance="10"
     inkscape:pageopacity="0"
     inkscape:pageshadow="2"
     inkscape:window-width="1419"
     inkscape:window-height="645"
     id="namedview4"
     showgrid="false"
     inkscape:zoom="0.4818985"
     inkscape:cx="891.52941"
     inkscape:cy="198.46724"
     inkscape:window-x="0"
     inkscape:window-y="24"
     inkscape:window-maximized="0"
     inkscape:current-layer="g10" /><g
     id="g10"
     inkscape:groupmode="layer"
     inkscape:label="L-VAL EYRIEUX cartouche-RVB"
     transform="matrix(1.25,0,0,-1.25,0,500)"><path
       inkscape:connector-curvature="0"
       id="path16"
       style="fill:#648c1a;fill-opacity:1;fill-rule:nonzero;stroke:none"
       d="m 310.97134,259.10713 16.60353,0 0,-97.41733 67.96855,0 0,-14.40498 -84.57208,0 0,111.82231 z" /><path
       inkscape:connector-curvature="0"
       id="path20"
       style="fill:#276092;fill-opacity:1;fill-rule:nonzero;stroke:none"
       d="m 422.73562,259.10713 89.90075,0 0,-14.41031 -73.29722,0 0,-32.41921 71.104,0 0,-14.41031 -71.104,0 0,-36.1775 74.85697,0 0,-14.40498 -91.4605,0 0,111.82231 z" /><path
       inkscape:connector-curvature="0"
       id="path24"
       style="fill:#276092;fill-opacity:1;fill-rule:nonzero;stroke:none"
       d="m 614.7638,259.10713 20.20212,0 -49.3315,-64.99279 0,-46.82952 -16.59821,0 0,46.04166 -49.02274,65.78065 21.14435,0 36.49158,-50.90188 37.1144,50.90188 z" /><path
       d="m 766.40212,259.10713 16.59821,0 0,-111.82231 -16.59821,0 0,111.82231 z"
       style="fill:#276092;fill-opacity:1;fill-rule:nonzero;stroke:none"
       id="path26"
       inkscape:connector-curvature="0" /><path
       inkscape:connector-curvature="0"
       id="path30"
       style="fill:#276092;fill-opacity:1;fill-rule:nonzero;stroke:none"
       d="m 808.54124,259.10713 89.89543,0 0,-14.41031 -73.29722,0 0,-32.41921 71.104,0 0,-14.41031 -71.104,0 0,-36.1775 74.86229,0 0,-14.40498 -91.4605,0 0,111.82231 z" /><path
       inkscape:connector-curvature="0"
       id="path42"
       style="fill:#276092;fill-opacity:1;fill-rule:nonzero;stroke:none"
       d="m 918.50091,259.10713 16.59821,0 0,-71.57246 c 0,-20.20744 13.4734,-28.66092 33.9896,-28.66092 20.51619,0 33.98958,8.45348 33.98958,28.66092 l 0,71.57246 16.5982,0 0,-69.53894 c 0,-29.91191 -16.5982,-45.10475 -50.58778,-45.10475 -33.9896,0 -50.58781,15.19284 -50.58781,45.10475 l 0,69.53894 z" /><path
       inkscape:connector-curvature="0"
       id="path46"
       style="fill:#276092;fill-opacity:1;fill-rule:nonzero;stroke:none"
       d="m 1119.7704,259.10713 20.5162,0 -43.0659,-54.50047 44.3222,-57.32184 -21.7725,0 -33.8299,45.25913 -33.6702,-45.25913 -20.6706,0 44.1626,57.32184 -41.9747,54.50047 21.1444,0 31.9507,-43.07123 32.8877,43.07123 z" /><path
       inkscape:connector-curvature="0"
       id="path50"
       style="fill:#648c1a;fill-opacity:1;fill-rule:nonzero;stroke:none"
       d="M 194.10036,265.42382 150.385,166.51596 110.98156,259.105 l -18.796757,0 49.757367,-111.7052 16.71,-0.0426 49.4486,111.88087 c 0,0 19.86675,52.38177 51.34372,52.38177 -49.51248,0 -65.34413,-46.19604 -65.34413,-46.19604" /><path
       inkscape:connector-curvature="0"
       id="path54"
       style="fill:#648c1a;fill-opacity:1;fill-rule:nonzero;stroke:none"
       d="m 298.7239,147.09211 -49.75204,111.71052 -16.71532,0.0426 -49.44329,-111.88087 c 0,0 -19.87207,-52.387099 -51.34372,-52.387099 49.50717,0 65.33881,46.196039 65.33881,46.196039 l 43.71536,98.91319 19.25456,-45.24849 -31.07772,0 -6.5424,-14.5008 43.78989,0 13.97912,-32.84508 18.79675,0 z" /><path
       inkscape:connector-curvature="0"
       id="path58"
       style="fill:#276092;fill-opacity:1;fill-rule:nonzero;stroke:none"
       d="m 663.18288,244.98907 43.09785,0 c 12.7441,0 19.0363,-7.39413 19.0363,-18.08875 0,-11.32809 -5.50966,-20.29261 -22.0227,-20.29261 l -40.11145,0 0,38.38136 z m 83.47547,-97.70479 -34.97442,45.23784 c 19.63252,2.2784 30.31116,15.54419 30.31116,34.69228 0,20.92077 -12.9038,32.24886 -37.60415,32.24886 l -57.88612,0 0,-112.31738 16.67806,0 0,44.98764 28.43734,0 33.26562,-44.84924 21.77251,0 z" /><path
       inkscape:connector-curvature="0"
       id="path62"
       style="fill:#648c1a;fill-opacity:1;fill-rule:nonzero;stroke:none"
       d="m 449.20918,99.481655 c -2.01223,-7.527218 -6.56369,-10.066457 -13.0848,-10.066457 -9.97063,0 -13.65439,6.760656 -13.65439,13.276442 0,7.42607 4.55146,13.55857 13.60648,13.55857 6.70743,0 12.03078,-3.01302 13.03689,-9.24666 l -5.07848,0 c -0.58024,3.25789 -3.16207,5.22753 -7.62304,5.22753 -6.1325,0 -8.86338,-4.02445 -8.86338,-9.39571 0,-5.365942 2.73088,-9.395718 8.86338,-9.395718 4.31192,0 6.66484,1.873819 7.71354,6.042003 l 5.0838,0 z" /><path
       inkscape:connector-curvature="0"
       id="path66"
       style="fill:#648c1a;fill-opacity:1;fill-rule:nonzero;stroke:none"
       d="m 467.60189,112.22895 c -6.9523,0 -9.49154,-4.83893 -9.49154,-9.39571 0,-4.55147 2.53924,-9.390396 9.49154,-9.390396 6.94697,0 9.48621,4.838926 9.48621,9.390396 0,4.55678 -2.53924,9.39571 -9.48621,9.39571 m 0,4.02445 c 9.77367,0 14.57001,-6.18041 14.57001,-13.42016 0,-7.234439 -4.79634,-13.414849 -14.57001,-13.414849 -9.779,0 -14.57001,6.18041 -14.57001,13.414849 0,7.23975 4.79101,13.42016 14.57001,13.42016" /><path
       inkscape:connector-curvature="0"
       id="path70"
       style="fill:#648c1a;fill-opacity:1;fill-rule:nonzero;stroke:none"
       d="m 525.43584,106.24018 c 0,4.59938 -2.92252,5.98877 -6.03668,5.98877 -4.36515,0 -8.24587,-2.06014 -8.24587,-6.76066 l 0,-15.187517 -4.79102,0 0,15.959407 c 0,4.59938 -2.92252,5.98877 -6.03668,5.98877 -4.36515,0 -8.24587,-2.54456 -8.24587,-7.47398 l 0,-14.474197 -4.79101,0 0,25.110247 4.79101,0 0,-3.7849 0.0958,0 c 2.25178,3.49744 6.22832,4.64728 9.82691,4.64728 3.25789,0 6.51578,-1.34148 8.52801,-4.64728 2.29968,2.87461 5.36593,4.64728 10.16227,4.64728 2.53924,0 9.53413,-1.19775 9.53413,-8.86338 l 0,-17.109247 -4.79102,0 0,15.959407 z" /><path
       inkscape:connector-curvature="0"
       id="path74"
       style="fill:#648c1a;fill-opacity:1;fill-rule:nonzero;stroke:none"
       d="m 574.59113,106.24018 c 0,4.59938 -2.92252,5.98877 -6.03668,5.98877 -4.36515,0 -8.24587,-2.06014 -8.24587,-6.76066 l 0,-15.187517 -4.79102,0 0,15.959407 c 0,4.59938 -2.92252,5.98877 -6.03668,5.98877 -4.36515,0 -8.24587,-2.54456 -8.24587,-7.47398 l 0,-14.474197 -4.79101,0 0,25.110247 4.79101,0 0,-3.7849 0.0958,0 c 2.25178,3.49744 6.22832,4.64728 9.82691,4.64728 3.25789,0 6.51578,-1.34148 8.52801,-4.64728 2.29968,2.87461 5.36593,4.64728 10.16227,4.64728 2.53924,0 9.53413,-1.19775 9.53413,-8.86338 l 0,-17.109247 -4.79102,0 0,15.959407 z" /><path
       inkscape:connector-curvature="0"
       id="path78"
       style="fill:#648c1a;fill-opacity:1;fill-rule:nonzero;stroke:none"
       d="m 610.8538,90.280242 -4.79102,0 0,3.784903 -0.0958,0 c -2.25177,-3.497442 -6.22832,-4.647286 -9.8269,-4.647286 -6.03668,0 -10.54024,2.587149 -10.54024,8.86338 l 0,17.109251 4.79102,0 0,-16.145725 c 0,-3.694405 2.29969,-5.802452 7.42607,-5.802452 4.36515,0 8.24587,2.539238 8.24587,7.473987 l 0,14.47419 4.79102,0 0,-25.110248 z" /><path
       inkscape:connector-curvature="0"
       id="path82"
       style="fill:#648c1a;fill-opacity:1;fill-rule:nonzero;stroke:none"
       d="m 617.0768,115.38942 4.79102,0 0,-3.7849 0.0958,0 c 2.25177,3.49744 6.22832,4.64728 9.8269,4.64728 6.03136,0 10.54024,-2.58715 10.54024,-8.86338 l 0,-17.109247 -4.79102,0 0,16.145727 c 0,3.6944 -2.29969,5.80245 -7.42607,5.80245 -4.36515,0 -8.24587,-2.53924 -8.24587,-7.47399 l 0,-14.474187 -4.79102,0 0,25.110247 z" /><path
       inkscape:connector-curvature="0"
       id="path86"
       style="fill:#648c1a;fill-opacity:1;fill-rule:nonzero;stroke:none"
       d="m 668.00743,103.41188 c -0.71865,-0.81447 -2.01223,-1.15517 -4.70052,-1.48521 l -5.40852,-0.67075 c -3.74232,-0.4791 -5.70664,-1.490536 -5.70664,-4.125594 0,-2.347598 2.3476,-3.976544 5.84504,-3.976544 5.41917,0 9.97064,2.87461 9.97064,7.042798 l 0,3.2153 z m -19.50476,4.11495 c 0.62283,6.28155 4.93475,8.72497 12.46197,8.72497 5.12638,0 11.54635,-1.29357 11.54635,-7.13861 l 0,-13.515989 c 0,-1.485215 0.67606,-2.155958 2.15595,-2.155958 0.53234,0 1.20308,0.101144 1.67686,0.191641 l 0,-3.353711 c -1.14452,-0.191641 -2.58715,-0.287461 -3.73699,-0.287461 -2.39551,0 -3.97655,0.665419 -4.31192,3.497442 -1.92173,-2.587149 -6.6116,-4.072364 -10.68929,-4.072364 -8.34169,0 -10.20486,4.311914 -10.20486,7.569805 0,4.599375 2.73088,6.952295 10.77978,7.814675 l 5.46709,0.57493 c 2.68296,0.28746 4.35982,0.76656 4.35982,3.01834 0,3.44953 -3.35371,4.12027 -7.23443,4.12027 -4.1256,0 -7.62304,-1.10193 -7.76677,-4.98798 l -4.50356,0 z" /><path
       inkscape:connector-curvature="0"
       id="path90"
       style="fill:#648c1a;fill-opacity:1;fill-rule:nonzero;stroke:none"
       d="m 705.23416,90.280242 -4.79102,0 0,3.784903 -0.0958,0 c -2.25177,-3.497442 -6.22832,-4.647286 -9.8269,-4.647286 -6.03136,0 -10.54024,2.587149 -10.54024,8.86338 l 0,17.109251 4.79102,0 0,-16.145725 c 0,-3.694405 2.29969,-5.802452 7.4314,-5.802452 4.35982,0 8.24054,2.539238 8.24054,7.473987 l 0,14.47419 4.79102,0 0,-25.110248 z" /><path
       inkscape:connector-curvature="0"
       id="path94"
       style="fill:#648c1a;fill-opacity:1;fill-rule:nonzero;stroke:none"
       d="m 713.56254,123.10935 4.79102,0 0,-7.71886 7.19184,0 0,-3.73699 -7.19184,0 0,-15.480307 c 0,-2.012226 1.44262,-2.730879 3.88604,-2.730879 1.10194,0 2.20387,0.143731 3.3058,0.335371 l 0,-4.029776 c -1.63427,-0.282138 -3.40694,-0.330048 -5.37126,-0.330048 -4.69519,0 -6.6116,2.299688 -6.6116,5.94086 l 0,16.294779 -5.1743,0 0,3.73699 5.1743,0 0,7.71886 z" /><path
       inkscape:connector-curvature="0"
       id="path98"
       style="fill:#648c1a;fill-opacity:1;fill-rule:nonzero;stroke:none"
       d="m 743.89606,125.31375 5.98877,0 -6.27623,-6.71275 -3.83281,0 4.12027,6.71275 z m 7.66563,-20.1755 c -0.71333,4.54614 -4.25869,7.0907 -8.76756,7.0907 -4.40774,0 -8.38428,-2.58715 -9.10826,-7.0907 l 17.87582,0 z m -18.01422,-3.74232 c 0.37795,-5.174294 4.97733,-7.953083 9.24666,-7.953083 2.73088,0 6.46787,0.910293 8.09681,4.460968 l 5.0838,0 c -2.40083,-6.042003 -8.00099,-8.485421 -12.94106,-8.485421 -9.779,0 -14.56469,6.18041 -14.56469,13.414846 0,7.23976 4.78569,13.42017 14.56469,13.42017 6.6116,0 13.61181,-3.83282 13.61181,-14.23464 l 0,-0.62284 -23.09802,0 z" /><path
       inkscape:connector-curvature="0"
       id="path102"
       style="fill:#648c1a;fill-opacity:1;fill-rule:nonzero;stroke:none"
       d="m 791.46819,93.441248 c 6.52111,0 9.29989,4.508878 9.29989,9.246662 0,5.75454 -3.68908,9.25731 -9.29989,9.25731 -5.55758,0 -9.20407,-3.50277 -9.20407,-9.25731 0,-4.737784 2.7362,-9.246662 9.20407,-9.246662 m 9.00711,0.04791 -0.0905,0 c -1.87382,-2.635059 -5.85036,-4.072363 -9.53944,-4.072363 -7.56981,0 -13.65972,4.838926 -13.65972,13.271115 0,8.43751 6.08991,13.27644 13.65972,13.27644 3.73699,0 7.61771,-1.34149 9.53944,-4.07237 l 0.0905,0 0,12.89316 4.79634,0 0,-34.505963 -4.79634,0 0,3.209981 z" /><path
       inkscape:connector-curvature="0"
       id="path106"
       style="fill:#648c1a;fill-opacity:1;fill-rule:nonzero;stroke:none"
       d="m 833.48859,105.13772 c -0.71865,4.54614 -4.264,7.0907 -8.76756,7.0907 -4.41306,0 -8.3896,-2.58714 -9.10825,-7.0907 l 17.87581,0 z m -18.01954,-3.74232 c 0.38328,-5.174293 4.98265,-7.953082 9.25198,-7.953082 2.72556,0 6.46255,0.910293 8.09682,4.460968 l 5.07847,0 c -2.3955,-6.042004 -8.00099,-8.485422 -12.94106,-8.485422 -9.77367,0 -14.56469,6.180411 -14.56469,13.414846 0,7.23976 4.79102,13.42017 14.56469,13.42017 6.61692,0 13.61181,-3.83282 13.61181,-14.23464 l 0,-0.62284 -23.09802,0 z" /><path
       inkscape:connector-curvature="0"
       id="path110"
       style="fill:#648c1a;fill-opacity:1;fill-rule:nonzero;stroke:none"
       d="m 885.85386,99.481655 c -2.01223,-7.527218 -6.56369,-10.066457 -13.0848,-10.066457 -9.96531,0 -13.65439,6.760656 -13.65439,13.276442 0,7.42607 4.55146,13.55857 13.60648,13.55857 6.71275,0 12.03078,-3.01302 13.03689,-9.24666 l -5.0838,0 c -0.5696,3.25789 -3.15675,5.22753 -7.61239,5.22753 -6.13783,0 -8.86871,-4.02445 -8.86871,-9.39571 0,-5.365942 2.73088,-9.395718 8.86871,-9.395718 4.30659,0 6.65951,1.873819 7.71353,6.042003 l 5.07848,0 z" /><path
       inkscape:connector-curvature="0"
       id="path114"
       style="fill:#648c1a;fill-opacity:1;fill-rule:nonzero;stroke:none"
       d="m 904.2519,112.22895 c -6.9523,0 -9.49154,-4.83893 -9.49154,-9.39571 0,-4.55147 2.53924,-9.390396 9.49154,-9.390396 6.94697,0 9.48621,4.838926 9.48621,9.390396 0,4.55678 -2.53924,9.39571 -9.48621,9.39571 m 0,4.02445 c 9.77367,0 14.56469,-6.18041 14.56469,-13.42016 0,-7.234439 -4.79102,-13.414849 -14.56469,-13.414849 -9.779,0 -14.57001,6.18041 -14.57001,13.414849 0,7.23975 4.79101,13.42016 14.57001,13.42016" /><path
       inkscape:connector-curvature="0"
       id="path118"
       style="fill:#648c1a;fill-opacity:1;fill-rule:nonzero;stroke:none"
       d="m 962.08052,106.24018 c 0,4.59938 -2.92252,5.98877 -6.03668,5.98877 -4.35982,0 -8.24587,-2.06014 -8.24587,-6.76066 l 0,-15.187517 -4.79102,0 0,15.959407 c 0,4.59938 -2.92252,5.98877 -6.03668,5.98877 -4.35982,0 -8.24587,-2.54456 -8.24587,-7.47398 l 0,-14.474197 -4.79101,0 0,25.110247 4.79101,0 0,-3.7849 0.0958,0 c 2.2571,3.49744 6.23365,4.64728 9.82691,4.64728 3.25789,0 6.51578,-1.34148 8.52801,-4.64728 2.30501,2.87461 5.37126,4.64728 10.16227,4.64728 2.53924,0 9.53413,-1.19775 9.53413,-8.86338 l 0,-17.109247 -4.79102,0 0,15.959407 z" /><path
       inkscape:connector-curvature="0"
       id="path122"
       style="fill:#648c1a;fill-opacity:1;fill-rule:nonzero;stroke:none"
       d="m 1011.2385,106.24018 c 0,4.59938 -2.9278,5.98877 -6.042,5.98877 -4.3598,0 -8.24055,-2.06014 -8.24055,-6.76066 l 0,-15.187517 -4.79102,0 0,15.959407 c 0,4.59938 -2.92784,5.98877 -6.042,5.98877 -4.35983,0 -8.24587,-2.54456 -8.24587,-7.47398 l 0,-14.474197 -4.78569,0 0,25.110247 4.78569,0 0,-3.7849 0.10114,0 c 2.25178,3.49744 6.22832,4.64728 9.82691,4.64728 3.25789,0 6.51046,-1.34148 8.52801,-4.64728 2.29968,2.87461 5.36598,4.64728 10.15698,4.64728 2.5445,0 9.5394,-1.19775 9.5394,-8.86338 l 0,-17.109247 -4.791,0 0,15.959407 z" /><path
       inkscape:connector-curvature="0"
       id="path126"
       style="fill:#648c1a;fill-opacity:1;fill-rule:nonzero;stroke:none"
       d="m 1047.5038,90.280242 -4.791,0 0,3.784903 -0.096,0 c -2.2571,-3.497442 -6.2337,-4.647286 -9.8269,-4.647286 -6.0367,0 -10.5403,2.587149 -10.5403,8.86338 l 0,17.109251 4.7857,0 0,-16.145725 c 0,-3.694405 2.305,-5.802452 7.4314,-5.802452 4.3598,0 8.2459,2.539238 8.2459,7.473987 l 0,14.47419 4.791,0 0,-25.110248 z" /><path
       inkscape:connector-curvature="0"
       id="path130"
       style="fill:#648c1a;fill-opacity:1;fill-rule:nonzero;stroke:none"
       d="m 1053.7215,115.38942 4.791,0 0,-3.7849 0.096,0 c 2.2571,3.49744 6.2337,4.64728 9.8269,4.64728 6.0367,0 10.5403,-2.58715 10.5403,-8.86338 l 0,-17.109247 -4.791,0 0,16.145727 c 0,3.6944 -2.2997,5.80245 -7.4261,5.80245 -4.3598,0 -8.2459,-2.53924 -8.2459,-7.47399 l 0,-14.474187 -4.791,0 0,25.110247 z" /><path
       inkscape:connector-curvature="0"
       id="path134"
       style="fill:#648c1a;fill-opacity:1;fill-rule:nonzero;stroke:none"
       d="m 1107.194,105.13772 c -0.7187,4.54614 -4.264,7.0907 -8.7676,7.0907 -4.413,0 -8.3896,-2.58714 -9.1029,-7.0907 l 17.8705,0 z m -18.0195,-3.74232 c 0.3832,-5.174293 4.9879,-7.953082 9.2519,-7.953082 2.7309,0 6.4679,0.910293 8.0969,4.460968 l 5.0838,0 c -2.3955,-6.042004 -8.0064,-8.485422 -12.9411,-8.485422 -9.7737,0 -14.57,6.180411 -14.57,13.414846 0,7.23976 4.7963,13.42017 14.57,13.42017 6.6169,0 13.6118,-3.83282 13.6118,-14.23464 l 0,-0.62284 -23.1033,0 z" /><path
       inkscape:connector-curvature="0"
       id="path138"
       style="fill:#648c1a;fill-opacity:1;fill-rule:nonzero;stroke:none"
       d="m 1120.8921,98.187548 c 0,-2.251778 1.8206,-5.030567 7.9052,-5.030567 6.1804,0 7.6709,2.155957 7.6709,3.928633 0,1.772676 -0.9103,2.8267 -4.7484,3.353716 l -7.9052,1.05402 c -3.5932,0.4791 -6.8032,2.78411 -6.8032,6.65951 0,5.0838 4.4077,8.10214 11.4505,8.10214 8.2459,0 11.8391,-3.54535 12.2703,-8.43219 l -4.791,0 c -0.1437,2.53392 -2.5392,4.68988 -7.5272,4.68988 -3.0663,0 -6.6116,-0.86239 -6.6116,-3.82749 0,-1.68218 0.7666,-2.63506 4.1682,-3.11416 l 6.8032,-0.91562 c 6.3295,-0.86238 8.7729,-3.11416 8.7729,-6.659513 0,-5.850362 -4.9347,-8.575918 -12.6004,-8.575918 -5.7545,0 -12.3235,1.485215 -12.8452,8.767559 l 4.791,0 z" /><path
       inkscape:connector-curvature="0"
       id="path142"
       style="fill:#f5c400;fill-opacity:1;fill-rule:nonzero;stroke:none"
       d="m 378.88399,259.14599 -0.0106,-42.14497 16.7313,0 0.0106,42.14497 -16.73129,0 z" /></g></svg>