<?xml version="1.0" encoding="UTF-8" standalone="no"?>
<!-- Created with Inkscape (http://www.inkscape.org/) -->

<svg
   xmlns:dc="http://purl.org/dc/elements/1.1/"
   xmlns:cc="http://creativecommons.org/ns#"
   xmlns:rdf="http://www.w3.org/1999/02/22-rdf-syntax-ns#"
   xmlns:svg="http://www.w3.org/2000/svg"
   xmlns="http://www.w3.org/2000/svg"
   xmlns:sodipodi="http://sodipodi.sourceforge.net/DTD/sodipodi-0.dtd"
   xmlns:inkscape="http://www.inkscape.org/namespaces/inkscape"
   width="500"
   height="500"
   id="svg4341"
   version="1.1"
   inkscape:version="0.48.4 r9939"
   sodipodi:docname="leader1.svg">
  <defs
     id="defs4343" />
  <sodipodi:namedview
     id="base"
     pagecolor="#ffffff"
     bordercolor="#666666"
     borderopacity="1.0"
     inkscape:pageopacity="0.0"
     inkscape:pageshadow="2"
     inkscape:zoom="0.98994949"
     inkscape:cx="375"
     inkscape:cy="267.75922"
     inkscape:document-units="px"
     inkscape:current-layer="layer1"
     showgrid="false"
     inkscape:window-width="1600"
     inkscape:window-height="876"
     inkscape:window-x="0"
     inkscape:window-y="24"
     inkscape:window-maximized="1" />
  <metadata
     id="metadata4346">
    <rdf:RDF>
      <cc:Work
         rdf:about="">
        <dc:format>image/svg+xml</dc:format>
        <dc:type
           rdf:resource="http://purl.org/dc/dcmitype/StillImage" />
        <dc:title />
      </cc:Work>
    </rdf:RDF>
  </metadata>
  <g
     inkscape:label="Calque 1"
     inkscape:groupmode="layer"
     id="layer1"
     transform="translate(0,-552.36218)">
    <g
       transform="matrix(2.0309459,0,0,-2.0309459,-343.08233,2161.0648)"
       id="g4598">
      <g
         transform="translate(186.0498,656.5283)"
         id="g3811">
        <path
           inkscape:connector-curvature="0"
           id="path3813"
           style="fill:#006260;fill-opacity:1;fill-rule:nonzero;stroke:none"
           d="m 0,0 4.827,0 0,0.001 C 3.533,0.313 1.807,0.194 0,0" />
      </g>
      <g
         transform="translate(178.4937,626.2578)"
         id="g3815">
        <path
           inkscape:connector-curvature="0"
           id="path3817"
           style="fill:#006260;fill-opacity:1;fill-rule:nonzero;stroke:none"
           d="m 0,0 0,-0.07 7.372,-2.825 0,5.686 L 0,0 z" />
      </g>
      <g
         transform="translate(182.1563,718.9492)"
         id="g3819">
        <path
           inkscape:connector-curvature="0"
           id="path3821"
           style="fill:#006260;fill-opacity:1;fill-rule:nonzero;stroke:none"
           d="m 0,0 c 0,1.214 -0.127,2.508 -0.701,3.438 -0.48,0.781 -1.273,1.306 -2.578,1.306 -2.86,0 -3.279,-2.512 -3.279,-4.744 l 0,-0.663 6.558,0 0,0.357 L 0,0 z" />
      </g>
      <g
         transform="translate(190.877,656.5298)"
         id="g3823">
        <path
           inkscape:connector-curvature="0"
           id="path3825"
           style="fill:#006260;fill-opacity:1;fill-rule:nonzero;stroke:none"
           d="m 0,0 0,1.534 c 0,0.931 -0.123,1.828 -0.363,2.663 -0.79,2.744 -2.921,4.778 -6.672,4.892 -0.11,0.003 -0.213,0.014 -0.325,0.014 -0.718,0 -1.382,-0.08 -2.002,-0.218 C -12.81,8.119 -14.72,5.329 -14.72,1.603 l 0,-1.604 2.088,0 7.805,0 C -3.021,0.192 -1.294,0.312 0,0" />
      </g>
      <g
         transform="translate(357.2422,736.0029)"
         id="g3827">
        <path
           inkscape:connector-curvature="0"
           id="path3829"
           style="fill:#006260;fill-opacity:1;fill-rule:nonzero;stroke:none"
           d="M 0,0 C 0.025,0.088 0.056,0.171 0.099,0.241 0.058,0.169 0.022,0.091 0,0" />
      </g>
      <g
         transform="translate(367.2773,728.7959)"
         id="g3831">
        <path
           inkscape:connector-curvature="0"
           id="path3833"
           style="fill:#006260;fill-opacity:1;fill-rule:nonzero;stroke:none"
           d="M 0,0 C 0.031,0.284 0.08,0.56 0.146,0.828 0.109,0.687 0.07,0.547 0.044,0.401 0.021,0.271 0.012,0.135 0,0" />
      </g>
      <g
         transform="translate(368.0586,737.5532)"
         id="g3835">
        <path
           inkscape:connector-curvature="0"
           id="path3837"
           style="fill:#006260;fill-opacity:1;fill-rule:nonzero;stroke:none"
           d="M 0,0 C -0.453,0.364 -1.035,0.564 -1.703,0.655 -1.34,0.594 -0.997,0.507 -0.689,0.384 -0.441,0.285 -0.213,0.152 0,0" />
      </g>
      <g
         transform="translate(357.874,736.7954)"
         id="g3839">
        <path
           inkscape:connector-curvature="0"
           id="path3841"
           style="fill:#006260;fill-opacity:1;fill-rule:nonzero;stroke:none"
           d="m 0,0 c -0.188,-0.164 -0.38,-0.309 -0.511,-0.514 0.058,0.085 0.123,0.161 0.196,0.231 C -0.216,-0.187 -0.106,-0.097 0,0" />
      </g>
      <g
         transform="translate(355.8623,724.4092)"
         id="g3843">
        <path
           inkscape:connector-curvature="0"
           id="path3845"
           style="fill:#006260;fill-opacity:1;fill-rule:nonzero;stroke:none"
           d="M 0,0 C 0.892,0.246 1.754,0.497 2.61,0.74 2.067,0.604 1.522,0.473 0.976,0.316 0.655,0.224 0.329,0.111 0,0" />
      </g>
      <g
         transform="translate(366.0576,738.25)"
         id="g3847">
        <path
           inkscape:connector-curvature="0"
           id="path3849"
           style="fill:#006260;fill-opacity:1;fill-rule:nonzero;stroke:none"
           d="M 0,0 C 0.009,-0.001 0.018,-0.001 0.026,-0.002 0.018,-0.002 0.009,-0.001 0,0" />
      </g>
      <g
         transform="translate(368.8799,733.9453)"
         id="g3851">
        <path
           inkscape:connector-curvature="0"
           id="path3853"
           style="fill:#006260;fill-opacity:1;fill-rule:nonzero;stroke:none"
           d="M 0,0 C -0.043,-0.229 -0.101,-0.45 -0.159,-0.669 -0.097,-0.452 -0.044,-0.229 0,0" />
      </g>
      <g
         transform="translate(367.4902,729.8862)"
         id="g3855">
        <path
           inkscape:connector-curvature="0"
           id="path3857"
           style="fill:#006260;fill-opacity:1;fill-rule:nonzero;stroke:none"
           d="M 0,0 C -0.006,-0.023 -0.014,-0.046 -0.021,-0.069 -0.014,-0.046 -0.006,-0.023 0,0" />
      </g>
      <g
         transform="translate(358.6895,703.9141)"
         id="g3859">
        <path
           inkscape:connector-curvature="0"
           id="path3861"
           style="fill:#006260;fill-opacity:1;fill-rule:nonzero;stroke:none"
           d="M 0,0 C 0,-0.005 0.001,-0.009 0.002,-0.015 0.001,-0.01 0,-0.005 0,0" />
      </g>
      <g
         transform="translate(358.6113,704.2427)"
         id="g3863">
        <path
           inkscape:connector-curvature="0"
           id="path3865"
           style="fill:#006260;fill-opacity:1;fill-rule:nonzero;stroke:none"
           d="M 0,0 C 0.005,-0.015 0.008,-0.029 0.012,-0.044 0.008,-0.029 0.005,-0.015 0,0" />
      </g>
      <g
         transform="translate(356.9473,710.6992)"
         id="g3867">
        <path
           inkscape:connector-curvature="0"
           id="path3869"
           style="fill:#006260;fill-opacity:1;fill-rule:nonzero;stroke:none"
           d="M 0,0 C -0.043,0.04 -0.086,0.078 -0.127,0.12 -0.086,0.079 -0.043,0.039 0,0" />
      </g>
      <g
         transform="translate(339.7363,697.147)"
         id="g3871">
        <path
           inkscape:connector-curvature="0"
           id="path3873"
           style="fill:#006260;fill-opacity:1;fill-rule:nonzero;stroke:none"
           d="M 0,0 C 0.017,-0.007 0.032,-0.013 0.049,-0.02 0.033,-0.013 0.016,-0.007 0,0" />
      </g>
      <g
         transform="translate(330.0234,698.1284)"
         id="g3875">
        <path
           inkscape:connector-curvature="0"
           id="path3877"
           style="fill:#006260;fill-opacity:1;fill-rule:nonzero;stroke:none"
           d="M 0,0 C 0.06,0.18 0.141,0.331 0.238,0.461 0.141,0.328 0.054,0.18 -0.006,0 0.619,-1.147 1.216,-2.444 1.868,-3.726 1.633,-3.201 1.41,-2.672 1.162,-2.166 0.789,-1.405 0.375,-0.688 0,0" />
      </g>
      <g
         transform="translate(342.9678,689.9917)"
         id="g3879">
        <path
           inkscape:connector-curvature="0"
           id="path3881"
           style="fill:#006260;fill-opacity:1;fill-rule:nonzero;stroke:none"
           d="m 0,0 c -0.099,-0.933 -0.495,-1.489 -1.79,-1.201 -1.44,-0.361 -0.35,-1.792 -2.15,-1.071 -0.329,0.047 -0.647,0.103 -0.956,0.174 0.303,-0.088 0.616,-0.158 0.946,-0.205 1.8,-0.721 0.721,0.719 2.16,1.079 1.908,-0.424 1.942,1.027 1.796,2.731 C 0.036,0.962 0.046,0.44 0,0" />
      </g>
      <g
         transform="translate(342.9736,691.4985)"
         id="g3883">
        <path
           inkscape:connector-curvature="0"
           id="path3885"
           style="fill:#006260;fill-opacity:1;fill-rule:nonzero;stroke:none"
           d="M 0,0 C -0.019,0.336 -0.044,0.678 -0.073,1.021 -0.104,1.376 -0.135,1.723 -0.15,2.056 -0.142,1.397 -0.058,0.681 0,0" />
      </g>
      <g
         transform="translate(331.8916,694.4028)"
         id="g3887">
        <path
           inkscape:connector-curvature="0"
           id="path3889"
           style="fill:#006260;fill-opacity:1;fill-rule:nonzero;stroke:none"
           d="m 0,0 c 0.118,-0.262 0.23,-0.526 0.366,-0.779 0.408,-0.766 0.842,-1.52 1.324,-2.215 0.44,-0.631 0.949,-1.197 1.479,-1.713 0.59,-0.573 1.23,-1.095 1.972,-1.452 0.323,-0.156 0.674,-0.265 1.04,-0.35 C 3.192,-5.639 1.454,-2.858 0,0" />
      </g>
      <g
         transform="translate(330.2617,698.5894)"
         id="g3891">
        <path
           inkscape:connector-curvature="0"
           id="path3893"
           style="fill:#006260;fill-opacity:1;fill-rule:nonzero;stroke:none"
           d="M 0,0 C 0.008,0.009 0.016,0.018 0.022,0.027 0.016,0.018 0.008,0.009 0,0" />
      </g>
      <g
         transform="translate(339.4424,697.2534)"
         id="g3895">
        <path
           inkscape:connector-curvature="0"
           id="path3897"
           style="fill:#006260;fill-opacity:1;fill-rule:nonzero;stroke:none"
           d="M 0,0 C 0.097,-0.036 0.202,-0.071 0.294,-0.106 0.2,-0.071 0.099,-0.036 0,0" />
      </g>
      <g
         transform="translate(341.1777,688.7905)"
         id="g3899">
        <path
           inkscape:connector-curvature="0"
           id="path3901"
           style="fill:#006260;fill-opacity:1;fill-rule:nonzero;stroke:none"
           d="M 0,0 C 1.295,-0.288 1.691,0.268 1.79,1.201 1.836,1.641 1.826,2.163 1.796,2.708 1.738,3.389 1.654,4.105 1.646,4.764 1.623,5.25 0.609,7.146 0.297,7.436 c -0.57,0.489 -0.687,0.501 -1.69,0.901 -0.016,0.006 -0.032,0.013 -0.048,0.019 -0.092,0.036 -0.198,0.071 -0.294,0.107 -0.142,0.05 -0.036,0.141 -0.191,0.192 -0.143,0.358 -0.472,0.475 -0.789,0.502 -0.412,0.031 -0.814,0.227 -1.219,0.43 -0.074,0.075 -0.48,0.305 -0.573,0.358 -0.367,0.197 -1.366,0.711 -2.222,0.789 -0.877,0.079 -2.111,-0.153 -2.838,-0.261 -0.557,-0.082 -1.021,-0.261 -1.327,-0.647 -0.006,-0.009 -0.014,-0.018 -0.022,-0.027 -0.098,-0.13 -0.179,-0.281 -0.238,-0.461 0.375,-0.689 0.789,-1.405 1.162,-2.166 0.248,-0.506 0.471,-1.035 0.706,-1.56 1.454,-2.858 3.192,-5.639 6.181,-6.508 0.308,-0.072 0.626,-0.128 0.955,-0.175 C -0.35,-1.792 -1.44,-0.36 0,0" />
      </g>
      <g
         transform="translate(356.8203,710.8188)"
         id="g3903">
        <path
           inkscape:connector-curvature="0"
           id="path3905"
           style="fill:#006260;fill-opacity:1;fill-rule:nonzero;stroke:none"
           d="M 0,0 C -0.061,0.061 -0.117,0.128 -0.174,0.193 -0.117,0.127 -0.061,0.062 0,0" />
      </g>
      <g
         transform="translate(354.8008,712.959)"
         id="g3907">
        <path
           inkscape:connector-curvature="0"
           id="path3909"
           style="fill:#006260;fill-opacity:1;fill-rule:nonzero;stroke:none"
           d="m 0,0 c -0.54,0.181 -1.17,0.198 -2.092,-0.079 -0.722,-0.425 -1.027,-0.937 -2.012,-0.999 -0.408,-0.025 -0.942,-0.399 -1.375,-0.357 -1.404,0.046 -2.782,0.101 -3.132,-1.128 -0.655,-1.741 -1.081,-5.759 1.439,-6.48 0.415,-0.038 0.812,-0.082 1.204,-0.128 0.526,-0.044 1.038,-0.093 1.526,-0.173 0.455,-0.075 0.891,-0.179 1.317,-0.292 0.612,-0.135 1.303,-0.515 2.462,-0.905 0.796,-0.268 2.038,-0.586 2.725,-0.646 1.691,-0.145 2.6,0.743 2.519,1.436 -0.001,0.005 -0.001,0.01 -0.001,0.015 -0.012,0.088 -0.074,0.313 -0.078,0.328 -0.039,0.114 -0.224,0.361 -0.238,0.388 -0.338,0.63 -0.715,1.103 -0.769,1.132 -0.03,0.017 -0.38,1.046 -0.241,2.497 0.009,0.118 0.015,0.232 0.024,0.35 0.05,0.604 0.016,0.705 -0.069,1.239 -0.002,0.007 -0.071,0.423 -0.072,0.43 C 2.979,-3.277 2.971,-3.074 2.838,-2.951 2.795,-2.912 2.752,-2.873 2.711,-2.832 2.65,-2.77 2.593,-2.705 2.536,-2.639 2.199,-2.256 1.91,-1.815 1.614,-1.386 1.191,-0.773 0.729,-0.245 0,0" />
      </g>
      <g
         transform="translate(368.1846,731.6714)"
         id="g3911">
        <path
           inkscape:connector-curvature="0"
           id="path3913"
           style="fill:#006260;fill-opacity:1;fill-rule:nonzero;stroke:none"
           d="M 0,0 C 0.21,0.516 0.386,1.052 0.536,1.604 0.196,0.424 -0.366,-0.626 -0.694,-1.785 -0.507,-1.171 -0.241,-0.592 0,0" />
      </g>
      <g
         transform="translate(357.3408,736.2441)"
         id="g3915">
        <path
           inkscape:connector-curvature="0"
           id="path3917"
           style="fill:#006260;fill-opacity:1;fill-rule:nonzero;stroke:none"
           d="M 0,0 C 0.007,0.013 0.015,0.025 0.022,0.038 0.015,0.025 0.008,0.012 0,0" />
      </g>
      <g
         transform="translate(366.084,738.2476)"
         id="g3919">
        <path
           inkscape:connector-curvature="0"
           id="path3921"
           style="fill:#006260;fill-opacity:1;fill-rule:nonzero;stroke:none"
           d="M 0,0 C 0.094,-0.009 0.18,-0.027 0.271,-0.039 0.182,-0.024 0.092,-0.012 0,0" />
      </g>
      <g
         transform="translate(368.8984,736.2881)"
         id="g3923">
        <path
           inkscape:connector-curvature="0"
           id="path3925"
           style="fill:#006260;fill-opacity:1;fill-rule:nonzero;stroke:none"
           d="m 0,0 c 0.158,-0.871 0.119,-1.634 -0.019,-2.343 0.015,0.075 0.04,0.143 0.052,0.218 0.104,0.646 0.18,1.362 0.039,2.143 C -0.1,0.59 -0.434,0.978 -0.84,1.265 -0.465,0.966 -0.17,0.565 0,0" />
      </g>
      <g
         transform="translate(366.0576,738.25)"
         id="g3927">
        <path
           inkscape:connector-curvature="0"
           id="path3929"
           style="fill:#006260;fill-opacity:1;fill-rule:nonzero;stroke:none"
           d="M 0,0 C -0.359,0.043 -0.735,0.065 -1.132,0.055 -1.433,0.047 -1.745,0.013 -2.059,-0.021 -1.333,0.031 -0.634,0.056 0,0" />
      </g>
      <g
         transform="translate(367.4697,729.8169)"
         id="g3931">
        <path
           inkscape:connector-curvature="0"
           id="path3933"
           style="fill:#006260;fill-opacity:1;fill-rule:nonzero;stroke:none"
           d="M 0,0 C -0.017,-0.063 -0.03,-0.129 -0.046,-0.193 -0.03,-0.129 -0.019,-0.063 0,0" />
      </g>
      <g
         transform="translate(354.498,724.0469)"
         id="g3935">
        <path
           inkscape:connector-curvature="0"
           id="path3937"
           style="fill:#006260;fill-opacity:1;fill-rule:nonzero;stroke:none"
           d="m 0,0 c 0.525,-0.362 0.701,0.18 1.364,0.362 0.329,0.112 0.656,0.224 0.976,0.316 0.547,0.157 1.092,0.288 1.635,0.424 1.48,0.42 1.076,-0.079 2.716,0.185 0.09,0.017 1.559,0.488 1.65,0.502 0.054,0.008 1.45,0.566 1.505,0.573 0.567,0.082 1.975,0.448 2.724,0.932 0.84,0.543 0.169,1.098 0.209,1.455 0.012,0.135 0.022,0.272 0.044,0.401 0.027,0.146 0.066,0.286 0.103,0.427 0.015,0.064 0.029,0.13 0.046,0.193 0.007,0.023 0.014,0.046 0.02,0.069 0.328,1.16 0.891,2.21 1.231,3.39 0.058,0.22 0.116,0.44 0.159,0.669 0.138,0.709 0.177,1.472 0.018,2.343 -0.17,0.565 -0.464,0.966 -0.839,1.265 -0.213,0.153 -0.442,0.286 -0.69,0.384 -0.308,0.123 -0.65,0.21 -1.014,0.272 -0.091,0.012 -0.177,0.03 -0.271,0.039 -0.009,10e-4 -0.018,10e-4 -0.026,0.002 -0.634,0.056 -1.333,0.031 -2.059,-0.021 C 9.059,14.133 8.609,14.076 8.154,14.033 7.369,13.959 7.018,14.134 6.262,14.121 5.871,14.113 5.047,13.893 4.676,13.941 3.824,13.833 3.674,13.007 3.376,12.749 3.27,12.651 3.16,12.562 3.061,12.466 2.988,12.396 2.923,12.32 2.865,12.235 2.857,12.223 2.85,12.21 2.843,12.197 2.8,12.127 2.77,12.044 2.744,11.956 2.679,11.692 2.605,10.822 2.396,10.381 2.162,10.199 1.387,9.962 1.458,9.317 0.952,8.573 0.741,7.668 0.383,6.879 -0.247,3.448 -1.313,1.643 0,0" />
      </g>
      <g
         transform="translate(335.2656,732.2461)"
         id="g3939">
        <path
           inkscape:connector-curvature="0"
           id="path3941"
           style="fill:#006260;fill-opacity:1;fill-rule:nonzero;stroke:none"
           d="M 0,0 C -0.193,0.578 -0.894,0.629 -1.677,0.618 -2.014,0.612 -2.889,0.961 -3.757,0.544 -4.641,0.121 -5.518,-1.071 -5.864,-1.465 -6.05,-1.676 -7.197,-3.758 -7.342,-4.833 -7.51,-6.099 -7.68,-7.458 -7.693,-7.635 c -0.033,-0.461 0.015,-0.834 0.275,-0.994 0.287,-0.149 0.975,-0.309 1.726,-0.434 0.358,-0.554 0.721,-0.793 0.721,-1.355 0.278,-0.832 0.772,-1.264 1.479,-1.513 0.664,-0.234 1.46,-0.267 2.328,-0.268 0.282,0 1.299,-0.167 1.996,0.053 0.809,0.255 1.307,0.919 1.635,1.185 0.121,0.099 0.233,0.216 0.328,0.351 0.228,0.355 0.311,0.854 0.092,1.621 -0.526,1.837 0.717,4.293 1.027,5.733 0.116,0.534 -0.427,1.217 -0.473,1.262 -0.418,0.39 -0.83,0.728 -1.347,1.049 C 1.561,-0.615 0.908,-0.304 0,0" />
      </g>
      <g
         transform="translate(309.043,720.2896)"
         id="g3943">
        <path
           inkscape:connector-curvature="0"
           id="path3945"
           style="fill:#006260;fill-opacity:1;fill-rule:nonzero;stroke:none"
           d="m 0,0 c -0.239,-0.887 -0.126,-1.896 0.143,-2.249 0.296,-0.388 0.671,-0.733 1.068,-1.065 0.435,-0.346 1.393,-1.806 2.947,-2.708 1.99,-1.156 4.145,-1.675 4.875,-2.582 0.116,-0.124 0.973,-1.015 1.506,-1.218 0.756,-0.287 1.777,0.003 1.963,0.391 0.207,0.436 0.269,1.042 0.256,1.731 -0.02,0.454 -0.067,0.943 -0.122,1.447 -0.088,0.632 -0.202,1.279 -0.24,1.905 -0.027,0.447 0.014,0.499 0.079,0.907 0.016,0.185 0.279,1.051 0.144,1.433 -0.135,0.383 -0.681,0.666 -0.847,0.779 -0.482,0.293 -0.991,0.548 -1.352,0.898 -0.272,0.264 0.142,1.791 -0.239,2.769 C 9.801,3.415 8.626,3.84 8.267,3.99 7.857,4.161 7.426,4.259 6.98,4.292 5.611,4.361 4.113,3.802 2.778,3.008 2.688,2.956 2.599,2.904 2.51,2.849 2.306,2.72 2.104,2.588 1.91,2.451 1.892,2.438 1.874,2.425 1.855,2.412 1.566,2.206 1.297,1.992 1.037,1.776 0.792,1.563 0.227,0.841 0,0" />
      </g>
      <g
         transform="translate(407.5313,553.7817)"
         id="g3947">
        <path
           inkscape:connector-curvature="0"
           id="path3949"
           style="fill:#006260;fill-opacity:1;fill-rule:nonzero;stroke:none"
           d="m 0,0 -102.66,0 0,22.849 c 42.535,0.444 78.301,29.125 89.421,68.198 l -12.992,3.626 C -35.771,61.277 -66.308,36.753 -102.66,36.31 l 0,95.706 0,3.04 c 0.283,0.343 0.642,0.868 1.192,1.199 0.571,0.344 1.114,0.953 1.836,1.387 0.708,0.424 1.546,0.746 2.312,1.204 0.699,0.418 1.389,0.867 2.069,1.27 0.835,0.496 1.864,0.57 2.562,0.979 1.155,0.677 1.898,1.42 2.232,1.588 0.543,0.271 1.189,0.73 1.85,1.064 1.08,0.546 1.125,0.338 2.093,0.96 0.498,0.448 0.935,0.955 1.457,1.32 0.614,0.429 1.371,0.603 2.006,0.957 0.717,0.4 1.462,0.712 2.188,1.075 0.658,0.329 1.109,1.053 1.761,1.401 0.725,0.386 1.622,0.481 2.323,0.951 0.627,0.421 3.152,1.782 3.734,2.058 0.678,0.323 1.14,0.993 1.738,1.369 0.684,0.43 1.27,0.933 1.88,1.432 0.618,0.505 1.236,0.99 1.81,1.566 0.516,0.52 0.942,0.969 1.447,1.546 0.902,1.054 2.121,1.197 3.199,2.043 0.508,0.127 1.442,0.54 2.148,0.803 0.659,0.245 0.927,0.469 1.497,0.911 0.555,0.432 1.02,0.955 1.251,1.647 0.335,1.027 0.914,2.439 0.693,3.25 -0.215,0.788 -1.003,1.577 -1.541,1.53 -0.836,-0.065 -1.381,-0.223 -2.092,-0.528 -0.755,-0.325 -1.436,-0.677 -2.079,-1.193 -0.707,-0.568 -1.236,-1.293 -1.844,-1.985 -0.608,-0.693 -1.414,-1.272 -2.158,-1.767 -1.614,-1.075 -2.498,-1.782 -2.976,-2.008 -1.217,-0.574 -2.074,-1.113 -2.58,-1.721 -0.486,-0.581 -0.534,-0.536 -1.067,-1.065 -0.293,-0.291 -1.357,-0.501 -2.232,-0.942 -0.733,-0.37 -1.291,-0.986 -1.563,-1.133 -0.651,-0.353 -1.542,-0.233 -2.299,-0.472 -0.74,-0.233 -1.146,-0.699 -1.873,-0.976 -0.723,-0.275 -1.769,-1.041 -2.366,-1.506 -0.59,-0.459 -2.838,-2.038 -3.489,-2.491 -0.736,-0.512 -1.574,-0.895 -2.295,-1.471 -0.709,-0.567 -1.377,-1.348 -2.365,-1.594 -0.862,-0.267 -0.469,-0.245 -1.422,-0.96 -0.333,-0.249 -1,-0.352 -1.52,-0.647 -0.966,-0.548 -1.001,-0.501 -2.009,-0.983 -0.869,-0.416 -0.856,-0.445 -1.728,-0.853 -0.913,-0.426 -0.708,-0.599 -1.589,-1.087 -0.752,-0.417 -0.865,-0.37 -1.58,-0.846 -0.356,-0.238 -0.292,-0.191 -0.549,-0.534 -0.021,-0.028 -0.041,-0.047 -0.062,-0.072 l 0,53.473 c -0.106,0.003 -0.21,0.007 -0.317,0.007 -36.792,0 -67.801,-24.682 -77.427,-58.384 l -12.992,3.626 c 11.207,39.38 47.445,68.219 90.419,68.219 0.106,0 0.211,-0.002 0.317,-0.004 l 0,20.651 L 0,229.32 0,0 z m -235.993,235.994 0,-62.767 c 1.24,2.327 3.492,3.801 6.92,3.801 3.628,0 6.768,-2.024 7.43,-5.756 l 10.779,8.267 0,-8.511 -10.116,-6.453 0,-0.071 10.116,0 0,-6.837 -25.129,0 0,-13.888 4.618,0 0,-8.128 4.396,0 0,7.71 5.79,0 0,-7.71 4.535,0 0,8.128 5.79,0 0,-14.965 -25.129,0 0,-17.692 c 2.042,4.606 6.566,7.845 11.979,7.845 7.394,0 13.15,-6.07 13.15,-13.36 l 0,-9.697 -25.129,0 0,-19.223 23.129,9.428 2.801,-7.29 -5.371,-1.709 0,-9.419 5.371,-1.814 -2.801,-7.255 -23.129,9.628 0,-20.145 4.618,0 0,-8.128 4.396,0 0,7.709 5.79,0 0,-7.709 4.535,0 0,8.128 5.79,0 0,-14.965 -25.129,0 0,-20.1 19.339,0 0,8.198 5.79,0 0,-15.035 -25.129,0 0,-12.882 242.667,0 0,242.667 -242.667,0 z" />
      </g>
      <g
         transform="translate(274.2065,644.2715)"
         id="g3951">
        <path
           inkscape:connector-curvature="0"
           id="path3953"
           style="fill:#fde258;fill-opacity:1;fill-rule:nonzero;stroke:none"
           d="m 0,0 c 0,-0.509 0.236,-0.913 0.376,-1.314 0.14,-0.401 0.396,-0.723 0.597,-1.084 0.205,-0.371 0.336,-0.79 0.521,-1.169 0.186,-0.379 0.534,-0.581 0.82,-0.888 0.288,-0.308 0.599,-0.576 0.893,-0.869 0.293,-0.293 0.441,-0.749 0.676,-1.086 0.192,-0.274 0.422,-0.636 0.488,-1.004 0.067,-0.367 0.936,-1.53 1.358,-1.815 0.42,-0.285 0.653,-0.722 0.731,-1.176 0.071,-0.408 0.123,-0.865 0.04,-1.318 -0.082,-0.453 -0.376,-0.905 -0.336,-1.325 0.028,-0.293 0.385,-0.599 0.723,-1.03 0.338,-0.429 0.607,-1.08 1.069,-1.803 0.273,-0.428 0.579,-1.023 0.841,-1.619 0.263,-0.596 0.561,-1.194 0.826,-1.418 0.412,-0.349 0.659,-0.669 0.713,-1.109 0.055,-0.439 0.042,-0.903 0.223,-1.263 -0.463,-0.216 -0.803,-0.665 -1.172,-0.84 -0.369,-0.175 -0.8,-0.19 -1.057,-0.189 -0.473,10e-4 -0.892,0.304 -1.16,0.628 -0.269,0.324 -0.217,0.864 -0.362,1.239 -0.138,0.356 -0.436,0.791 -0.717,1.191 -0.28,0.399 -0.729,0.682 -0.982,0.974 -0.185,0.213 -0.703,0.71 -1.202,1.266 -0.499,0.557 -1.116,1.1 -1.321,1.461 -0.204,0.363 -0.451,0.603 -0.706,0.89 -0.255,0.285 -0.56,0.499 -0.858,0.785 -0.297,0.285 -0.456,0.675 -0.743,0.933 -0.288,0.258 -0.439,0.722 -0.809,0.911 -0.32,0.164 -0.758,-0.065 -1.121,-0.027 -0.364,0.039 -0.527,0.55 -0.889,0.63 -0.397,0.198 -0.625,0.481 -0.833,1 -0.209,0.519 -0.412,1.006 -0.577,1.44 -0.161,0.426 -0.673,0.689 -0.84,1.052 -0.166,0.363 -0.282,0.55 -0.611,0.727 -0.249,0.134 -1.052,0.48 -1.847,0.908 -0.795,0.428 -1.613,1.012 -1.912,1.326 -0.326,0.342 -0.747,0.501 -1.187,0.729 -0.44,0.229 -0.824,0.615 -1.07,0.978 -0.231,0.342 -0.197,0.827 -0.119,1.294 0.079,0.467 -0.023,0.951 -0.044,1.451 -0.014,0.334 0.201,0.644 0.169,0.974 -0.032,0.33 -0.207,0.886 -0.077,1.341 0.468,0.134 1.116,0.148 1.452,0.499 0.336,0.352 0.352,1.001 0.661,1.402 0.276,0.358 0.822,0.446 1.13,0.721 0.308,0.274 0.656,0.454 1.015,0.675 0.319,0.196 0.484,0.642 0.82,0.749 0.335,0.107 0.876,0.123 1.409,-0.036 0.127,-0.448 0.266,-0.927 0.584,-1.237 0.317,-0.31 0.888,-0.378 1.229,-0.701 0.309,-0.292 0.467,-0.826 0.686,-1.229 0.219,-0.404 0.36,-0.819 0.68,-1.097 C -1.501,1.25 -1.053,1.162 -0.68,0.956 -0.308,0.75 -0.174,0.348 0,0 m -31.974,3.187 c 0.558,-0.625 1.122,-1.182 1.52,-1.934 0.171,-0.323 0.719,-1.196 1.414,-1.691 0.855,-0.608 1.892,-0.838 2.223,-1.131 0.64,-0.568 1.544,-0.963 2.149,-1.632 0.303,-0.336 2.13,-0.658 3.461,-1.404 1.143,-0.641 1.814,-1.713 2.05,-2.001 0.503,-0.614 1.279,-1.025 1.786,-1.647 0.501,-0.614 1.235,-0.947 1.847,-1.429 0.591,-0.466 1.164,-0.746 1.955,-0.962 0.631,-0.171 1.99,-1.964 2.055,-2.714 0.049,-0.566 0.121,-0.958 0.74,-1.268 0.92,0.131 1.313,-0.605 1.842,-1.187 0.51,-0.562 1.362,-0.754 2.019,-1.179 0.528,-0.341 0.92,-0.965 1.836,-0.76 0.371,-0.742 0.348,-1.645 0.697,-2.514 0.173,-0.431 0.858,-1.334 1.591,-2.187 0.732,-0.853 1.514,-1.657 1.884,-1.89 0.667,-0.42 1.209,-1.079 2.208,-1.079 0.198,-0.794 0.424,-1.482 0.86,-2.196 0.39,-0.639 1.141,-1.073 1.585,-1.695 0.446,-0.626 1.018,-1.181 1.386,-1.833 0.341,-0.603 0.543,-1.289 0.708,-1.95 0.263,-0.791 0.676,-1.764 1.173,-2.677 0.49,-0.899 0.712,-1.715 0.58,-2.597 -0.101,-0.669 -0.785,-3.233 -1.176,-3.435 -0.445,-0.231 -1.063,-0.089 -1.932,0.055 -0.731,0.12 -2.875,0.203 -3.86,0.312 -0.873,0.097 -2.289,0.474 -3.27,0.433 -0.909,-0.037 -1.726,0.497 -2.524,0.67 -0.77,0.167 -1.324,0.291 -1.813,0.942 -0.562,0.421 -1.739,0.036 -2.701,0.233 -0.754,0.154 -1.32,1.132 -2.04,1.382 -0.717,0.249 -1.356,0.37 -1.795,0.918 -0.525,0.131 -1.299,0.304 -2.026,0.618 -0.614,0.266 -1.423,0.189 -2.065,0.447 -0.677,0.272 -1.196,1.043 -1.782,1.16 -0.809,0.081 -1.547,0.164 -2.247,0.326 -0.822,0.19 -1.722,-0.003 -2.394,0.324 -0.692,0.336 -1.379,0.769 -1.911,1.277 -0.468,0.448 -0.85,0.756 -1.195,1.358 -0.948,-0.118 -1.643,0.241 -2.12,0.621 -0.558,0.444 -0.695,1.372 -1.297,1.656 -0.445,0.21 -2.136,1.65 -2.544,2.373 -0.409,0.725 -1.436,0.94 -2.031,1.512 -0.593,0.569 -0.897,1.482 -1.637,1.863 -0.641,0.329 -1.278,0.566 -2.004,0.727 -0.272,1.088 -0.88,1.865 -1.697,2.3 -0.725,0.385 -1.638,0.657 -2.532,0.933 -0.764,0.236 -1.406,0.539 -2.128,0.952 -0.646,0.582 -1.308,0.993 -1.808,1.646 -0.502,0.656 -0.683,1.491 -1.117,2.176 -0.432,0.682 -1.408,1.009 -1.852,1.68 -0.439,0.662 -0.519,1.603 -1.046,2.214 -0.461,0.536 -0.918,1.19 -1.501,1.658 -0.489,0.393 -1.577,0.197 -2.185,0.524 -0.361,0.843 -0.255,2 -0.616,2.842 -0.361,0.842 -0.702,1.694 -1.063,2.536 -0.358,0.835 -1.166,1.503 -1.524,2.338 -0.162,0.754 -0.353,1.602 -0.443,2.442 -0.081,0.747 0.036,1.55 -0.002,2.349 -0.039,0.789 0.08,1.607 0.07,2.431 -0.011,0.819 0.309,1.651 0.312,2.491 0.004,0.754 -0.186,1.515 -0.181,2.276 0.005,0.764 0.012,1.529 0.009,2.288 -10e-4,0.537 0.088,1.074 0.135,1.606 0.021,0.227 0.036,0.454 0.029,0.678 -0.008,0.319 -0.175,1.741 0.202,2.133 0.378,0.391 1.3,-0.249 1.67,-0.245 0.815,0.008 1.657,0.149 1.846,-0.417 0.521,-0.074 0.918,-0.265 1.253,-0.506 0.501,-0.363 0.857,-0.841 1.244,-1.235 0.604,-0.615 1.204,-1.204 2.074,-1.725 0.687,-0.393 1.552,-0.425 2.285,-0.779 0.722,-0.348 1.118,-1.422 1.87,-1.761 0.669,-0.3 1.634,0.032 2.316,-0.282 0.632,-0.29 1.224,-0.872 1.859,-1.19 -0.126,-1.268 0.363,-1.939 1.219,-2.224 0.775,-0.258 1.852,-0.007 2.598,-0.293 0.4,-0.153 0.808,-1.181 1.6,-1.676 l 3.899,-2.375 z M -45.54,23.062 c 0.394,0.014 0.919,-0.136 1.319,-0.059 0.399,0.078 0.853,-0.104 1.254,-0.09 0.411,0.015 0.791,0.31 1.206,0.394 0.415,0.084 0.883,0.143 1.27,0.112 0.403,-0.033 0.743,-0.501 1.138,-0.629 0.396,-0.129 0.896,0.054 1.239,-0.079 0.152,-0.059 0.147,-0.395 0.262,-0.523 0.117,-0.128 0.539,-0.065 0.637,-0.225 0.092,-0.151 0.339,-0.672 0.449,-0.782 0.382,-0.16 0.627,-0.614 1.02,-0.809 0.392,-0.196 2.019,-0.771 2.473,-0.744 0.453,0.029 0.736,-0.082 1.114,-0.246 0.522,-0.39 4.393,-1.002 4.812,-1.088 0.403,-0.083 3.144,-0.877 3.538,-0.789 0.395,0.088 0.821,0.076 1.239,0.112 0.328,0.029 0.665,-0.031 1.012,-0.052 0.347,-0.021 1,-0.74 1.351,-0.67 0.208,-0.348 0.59,-0.431 0.834,-0.833 0.244,-0.402 1.386,-0.604 1.666,-1 0.246,-0.346 4.301,-0.952 4.688,-1.102 0.388,-0.149 1.097,-0.657 1.146,-1.065 0.038,-0.314 0.243,-1.09 0.166,-1.5 -0.076,-0.409 -1.285,-1.732 -1.328,-2.123 -0.043,-0.391 -0.643,-1.594 -1.103,-1.831 -0.461,-0.236 -0.988,-0.313 -1.29,-0.728 -0.249,-0.344 -0.542,-0.708 -0.692,-1.13 -0.149,-0.423 -0.302,-0.806 -0.527,-1.148 -0.291,-0.443 -0.237,-1.135 -0.518,-1.518 -0.28,-0.383 -0.757,-0.609 -1.116,-0.719 -0.3,-0.091 -0.625,0.188 -0.992,0.466 -0.368,0.277 -0.707,0.981 -1.223,1.229 -1.044,0.502 -1.596,0.749 -1.596,1.108 -0.082,0.219 -0.319,0.749 -0.613,1.225 -0.294,0.474 -0.706,0.999 -1.056,1.299 -0.35,0.301 -0.809,0.234 -1.111,0.284 -0.302,0.05 -0.582,0.028 -0.781,0.105 -0.4,0.153 -0.782,0.391 -1.16,0.61 -0.378,0.219 -0.784,0.26 -1.206,0.361 -0.427,0.103 -0.834,0.604 -1.287,0.613 -0.454,0.009 -1.894,0.405 -2.146,0.766 -0.253,0.359 -0.642,0.613 -0.917,0.903 -0.226,0.237 -0.368,0.603 -0.533,0.935 -0.165,0.333 -1.276,0.989 -1.66,1.087 -0.382,0.098 -0.529,0.673 -0.819,0.871 -0.325,0.221 -0.83,0.192 -1.077,0.474 -0.247,0.283 -0.566,0.506 -0.819,0.799 -0.247,0.284 -0.352,0.771 -0.723,0.914 -0.372,0.143 -0.654,0.322 -0.95,0.547 -0.276,0.21 -0.707,0.112 -0.991,0.232 -0.284,0.12 -0.595,0.163 -1.01,0.214 -0.277,0.034 -0.621,0.076 -0.892,0.218 -0.27,0.143 -0.385,0.556 -0.76,0.481 0,0.361 -0.212,0.896 -0.581,1.233 -0.368,0.337 -0.966,0.302 -1.127,0.309 -0.412,0.019 -0.644,0.381 -0.915,0.611 -0.27,0.229 -0.649,0.356 -0.826,0.612 -0.21,0.303 -0.522,0.867 -0.948,1.244 -0.426,0.377 -0.064,0.949 0.361,0.909 0.426,-0.039 0.661,0.189 1.099,0.205 m 76.18,28.08 C 30.536,51.09 29.827,50.46 29.625,50.417 29.35,50.335 29.385,50.202 29.118,50.098 28.858,49.963 28.576,49.269 28.393,48.904 27.846,48.447 27.461,48.508 27.059,48.392 26.18,48.138 26.036,48.113 25.088,47.562 24.25,47.074 23.519,46.285 23.277,46.059 22.686,45.507 22.273,44.845 21.632,44.35 21.159,43.984 20.442,43.858 19.797,43.467 19.56,43.143 19.437,42.62 19.096,42.454 18.893,42.354 18.478,42.333 18.135,42.062 17.792,41.79 17.521,41.267 17.201,40.889 16.782,40.396 16.318,39.969 16.217,39.792 16.181,39.728 16.207,39.628 16.16,39.572 16.088,39.486 15.961,39.458 15.87,39.386 15.681,39.235 15.722,38.87 15.501,38.744 15.088,38.128 14.5,37.699 14.033,37.15 13.899,36.705 13.48,36.499 13.189,36.187 12.906,35.883 12.723,35.464 12.301,35.287 11.852,34.832 11.392,34.59 10.923,34.124 10.748,33.758 10.491,33.272 10.215,32.992 9.754,32.521 9.488,32.269 8.847,31.996 7.754,31.531 7.101,31.055 6.616,30.543 6.171,30.073 5.734,29.35 5.163,28.779 4.646,28.262 3.734,27.455 3.255,27.423 2.746,27.205 2.452,26.607 1.991,26.322 1.638,25.869 1.398,25.245 0.968,24.898 0.574,24.58 -0.06,24.524 -0.556,24.321 -1.153,23.75 -1.826,23.295 -2.384,22.673 -2.831,22.174 -3.52,21.845 -3.96,21.34 c -0.094,-0.248 0.197,-0.796 0.034,-0.981 -0.505,-0.57 -0.909,-1.267 -1.437,-1.798 -0.242,-0.244 -0.583,-0.437 -0.963,-0.463 -0.252,-0.233 -0.54,-0.502 -0.804,-0.718 -0.694,0 -1.456,0.276 -2.474,0.276 -0.038,-10e-4 -0.229,0.268 -0.269,0.268 -0.36,0.361 -0.392,0.392 -1.079,0.784 -0.801,0.459 -1.512,-0.019 -2.342,0.364 -0.756,0.348 -1.306,1.181 -2.035,1.582 -0.345,0.19 -0.627,0.46 -0.86,0.843 -0.747,0.434 -1.458,0.992 -2.193,1.448 -0.381,0.016 -0.834,-0.265 -1.14,-0.073 -0.856,-0.096 -1.485,0.66 -2.207,0.904 -0.778,0.264 -1.822,0.012 -2.604,0.398 -0.306,0.151 -0.265,0.936 -0.529,1.239 -0.328,0.14 -0.819,0.116 -1.176,0.226 -0.614,0.19 -1.302,0.481 -2.044,0.513 -0.129,-0.014 -0.363,-0.328 -0.491,-0.328 -0.098,0.442 -0.21,0.833 -0.443,1.142 -0.54,0.589 -1.319,1.014 -2.252,1.201 -0.734,0.148 -1.569,0.027 -2.321,0.18 -0.727,0.147 -1.325,0.559 -1.889,0.916 -0.307,0.195 -0.647,0.325 -0.864,0.63 -0.504,0.151 -1.056,0.272 -1.637,0.359 -0.521,0.078 -1.042,-0.149 -1.609,-0.108 -0.464,-0.154 -0.974,-0.158 -1.448,-0.143 -0.802,0.024 -1.616,0.184 -2.458,0.18 -0.645,-0.003 -1.278,0.526 -1.931,0.604 -0.407,-0.004 -0.832,-0.311 -1.237,-0.311 -0.559,-0.07 -1.122,-0.393 -1.669,-0.381 -0.705,0.015 -1.197,0.146 -1.867,0.198 -0.175,-0.349 -0.684,-0.272 -1.005,-0.435 -0.412,-0.524 -0.791,-1.022 -1.348,-1.344 -0.55,-0.319 -1.072,-0.732 -1.73,-0.836 -0.544,-0.085 -1.103,0.189 -1.699,0.262 -0.047,0.001 -0.235,0.018 -0.283,0.024 -0.779,-0.389 -1.052,-1.509 -1.704,-2.146 -0.323,-0.315 -0.75,-0.564 -1.17,-0.812 -0.422,-0.554 -0.949,-1.038 -1.246,-1.68 -0.007,-0.433 0.363,-0.881 0.241,-1.309 0.192,-0.479 -1.15,-0.515 -1.443,-0.722 -0.013,-0.009 -0.444,-0.217 -1.449,-0.743 -0.767,-0.402 -1.452,-1.968 -1.574,-2.271 -0.213,-0.522 -0.447,-0.93 -0.421,-1.557 0.009,-0.207 -0.474,-1.424 -0.545,-1.6 -0.399,-1.337 -0.353,-1.354 -0.721,-2.7 -0.376,-1.376 -0.058,-1.605 -0.064,-2.861 -0.006,-1.123 -0.035,-1.973 0.027,-2.267 0.157,-0.752 0.353,-1.558 0.385,-2.414 0.012,-0.322 -0.071,-0.632 -0.172,-0.963 0.003,-0.575 0.291,-1.177 0.279,-1.763 -0.011,-0.53 -0.063,-1.047 -0.071,-1.572 0.063,-0.251 -0.145,-0.51 -0.145,-0.755 -0.001,-0.827 0.404,-1.589 0.481,-2.341 0.032,-0.303 0.082,-0.643 0.001,-0.966 0.078,-0.421 -0.103,-0.84 0.032,-1.211 0.383,-0.96 0.911,-1.505 1.404,-2.069 0.432,-0.493 0.766,-1.053 1.437,-1.556 0,-0.72 0.236,-1.247 0.405,-1.765 0.065,-0.163 -0.078,-0.405 -0.013,-0.562 0.072,-0.174 0.071,-0.38 0.142,-0.549 0.313,-0.654 1.047,-1.101 1.269,-1.865 0.258,-0.395 0.315,-0.918 0.315,-1.547 0.718,-0.43 1.141,-1.167 1.534,-1.89 0.735,-0.994 1.425,-1.774 2.29,-1.989 0.352,-0.353 0.651,-0.945 1.106,-1.258 0.285,-0.154 0.513,-0.383 0.778,-0.578 0.209,-0.154 0.551,-0.139 0.717,-0.329 0.231,-0.205 0.302,-1.099 0.64,-1.928 0.199,-0.486 0.544,-0.934 0.836,-1.344 0.306,-0.428 1.01,-0.858 1.896,-1.165 0.553,-0.192 1.147,-0.365 1.698,-0.623 0.647,-0.302 0.99,-0.745 1.329,-1.15 0.413,-0.494 0.7,-1.018 0.937,-1.257 0.464,-0.22 2.472,-0.784 2.812,-1.13 0.419,-0.428 -0.287,-0.466 0.024,-0.995 0.654,-0.677 1.532,-1.163 2.154,-1.831 0.299,-0.321 0.995,-1.402 2.173,-2.075 0.64,-0.367 1.535,-0.37 2.211,-0.661 0.849,-0.367 1.676,-0.559 2.122,-0.768 0.101,-0.039 0.197,-0.103 0.294,-0.15 0.778,-0.379 1.488,-0.924 2.171,-1.412 0.693,-0.493 1.529,-0.905 2.074,-1.529 0.374,-0.428 1.406,-2.456 1.673,-2.566 0.603,-0.151 1.176,-0.226 1.684,-0.49 0.339,-0.176 0.796,-0.161 1.081,-0.443 0.658,-0.345 1.24,-0.814 1.971,-1.088 0.619,-0.232 1.276,-0.496 2.022,-0.617 0.56,-0.09 1.156,-0.193 1.822,-0.193 0.362,-0.181 1.161,-0.268 1.943,-0.617 0.535,-0.239 1.039,-0.613 1.548,-0.768 1.251,-0.379 2.166,-0.41 2.294,-0.436 0.382,0.095 0.838,0.22 1.29,0.037 0.625,-0.03 1.677,-1.822 2.343,-1.989 0.587,-0.257 1.219,-0.785 1.973,-0.872 0.685,-0.079 1.402,0.238 2.02,0.232 0.639,-0.005 1.157,-0.096 1.512,-0.093 0.488,0.196 2.35,0.04 2.779,-0.182 0.854,-0.02 1.695,-0.125 2.523,-0.21 0.721,-0.075 1.401,-0.297 2.094,-0.438 0.244,-0.024 0.471,0.08 0.706,0.021 0.907,-0.635 1.624,-0.221 2.309,-0.127 0.408,0.056 0.819,0.024 1.244,0.083 0.237,0.115 1.077,0.217 2.097,0.367 0.609,0.089 1.285,0.143 1.953,0.3 0.52,0.121 0.956,0.409 1.424,0.594 0.587,0.232 1.142,0.334 1.532,0.667 0.678,0.579 1.168,0.861 1.337,0.871 0.245,0.088 0.45,0.22 0.717,0.239 0.857,0.06 1.415,0.363 1.735,0.942 0.224,0.405 0.139,0.917 -0.209,1.89 0.146,0.727 0.118,1.422 -0.107,1.948 -0.331,0.775 -0.98,1.251 -0.917,1.543 -0.011,0.672 0.198,1.324 0.331,1.926 -0.022,0.527 -0.154,0.902 0.172,1.229 0.697,0.244 1.402,0.318 1.937,0.521 0.668,0.501 1.109,1.237 1.334,1.901 0.22,0.645 0.419,1.432 0.353,2.192 -0.057,0.655 -0.553,1.303 -0.733,2.016 -0.173,0.694 -0.461,1.385 -0.673,2.112 -0.188,0.641 0.016,1.393 -0.145,2.042 -0.138,0.554 -0.71,0.964 -0.794,1.513 -0.292,0.387 -0.57,0.843 -0.588,1.254 -0.031,0.713 0.513,1.454 0.681,2.129 0,0.402 -0.227,0.844 -0.072,1.227 -0.04,0.757 -0.195,1.415 -0.306,2.111 -0.115,0.713 0.189,1.488 0.006,2.146 -0.208,0.752 -0.819,1.346 -1.107,2.039 -0.257,0.623 -0.232,1.37 -0.545,1.956 -0.299,0.56 -0.908,0.932 -1.25,1.467 -0.397,0.602 -0.967,1.067 -1.402,1.655 -0.224,0.303 -0.364,0.689 -0.452,1.103 -0.633,0.811 -1.39,1.618 -2.08,2.434 0.225,0.823 0.344,1.55 0.14,2.149 -0.208,0.608 -0.685,1.028 -1.127,1.518 C 8.851,-0.938 8.333,-0.508 7.874,-0.027 7.415,0.452 7.35,1.193 7.068,1.78 6.846,2.243 6.473,2.643 6.473,3.234 6.126,3.465 5.82,3.71 5.51,3.971 5.116,4.088 4.863,4.349 4.631,4.581 4.041,5.167 3.649,5.937 3.138,6.588 2.678,7.174 2.104,7.673 1.653,8.269 1.399,8.604 1.332,9.081 1.107,9.439 c -0.621,0.772 -1.212,1.551 -1.975,2.218 -0.619,1.393 -0.579,2.054 -0.063,2.586 0.554,0.568 1.368,0.845 1.19,1.85 -0.122,0.258 1.363,1.355 2.083,1.715 0.068,0.335 0.059,0.627 0.251,0.801 0.411,0.783 1.241,1.085 1.861,1.475 0.294,0.186 1.089,0.67 1.643,1.275 0.607,0.663 0.968,1.448 1.107,1.61 0.199,0.233 0.577,0.478 0.917,0.777 0.339,0.299 0.642,0.651 0.934,0.83 0.665,0.408 1.054,0.701 1.681,1.143 0.285,0.202 0.477,0.412 0.758,0.621 0.339,0.253 1.464,1.449 1.62,1.798 0.155,0.349 0.289,0.709 0.458,1.043 0.144,0.287 0.703,0.772 1.242,1.31 0.312,0.311 1.013,1.153 1.297,1.349 0.551,0.38 1.314,0.711 1.798,1.169 0.376,0.354 0.427,0.996 0.78,1.374 0.16,0.418 0.582,0.635 0.859,0.94 0.509,0.564 0.9,1.255 1.431,1.782 0.469,0.465 0.889,0.467 1.411,0.858 0.358,0.12 0.735,0.711 1.141,0.778 0.329,0.174 0.596,0.276 0.882,0.415 0.314,0.153 0.646,0.566 0.882,0.779 0.185,0.164 0.457,0.31 0.618,0.473 0.226,0.231 0.435,0.496 0.638,0.897 0.109,0.329 0.996,0.676 1.104,0.999 0.064,0.13 0.486,0.329 0.678,0.423 0.137,0.066 0.34,0.436 0.515,0.492 0.537,0.23 0.738,0.4 1.221,0.762 0.208,0.156 0.558,0.303 0.567,0.712 0.004,0.171 0.052,6.474 0.004,6.449" />
      </g>
    </g>
  </g>
</svg>
