<?xml version="1.0" encoding="UTF-8" standalone="no"?>
<!-- Created with Inkscape (http://www.inkscape.org/) -->

<svg
   xmlns:dc="http://purl.org/dc/elements/1.1/"
   xmlns:cc="http://creativecommons.org/ns#"
   xmlns:rdf="http://www.w3.org/1999/02/22-rdf-syntax-ns#"
   xmlns:svg="http://www.w3.org/2000/svg"
   xmlns="http://www.w3.org/2000/svg"
   xmlns:sodipodi="http://sodipodi.sourceforge.net/DTD/sodipodi-0.dtd"
   xmlns:inkscape="http://www.inkscape.org/namespaces/inkscape"
   id="svg4059"
   version="1.1"
   inkscape:version="0.48.4 r9939"
   width="370"
   height="500"
   xml:space="preserve"
   sodipodi:docname="logo_pnrma.svg"><metadata
     id="metadata4065"><rdf:RDF><cc:Work
         rdf:about=""><dc:format>image/svg+xml</dc:format><dc:type
           rdf:resource="http://purl.org/dc/dcmitype/StillImage" /><dc:title /></cc:Work></rdf:RDF></metadata><defs
     id="defs4063" /><sodipodi:namedview
     pagecolor="#ffffff"
     bordercolor="#666666"
     borderopacity="1"
     objecttolerance="10"
     gridtolerance="10"
     guidetolerance="10"
     inkscape:pageopacity="0"
     inkscape:pageshadow="2"
     inkscape:window-width="1325"
     inkscape:window-height="753"
     id="namedview4061"
     showgrid="false"
     inkscape:zoom="0.89691211"
     inkscape:cx="371.875"
     inkscape:cy="214.0678"
     inkscape:window-x="0"
     inkscape:window-y="24"
     inkscape:window-maximized="0"
     inkscape:current-layer="g4067" /><g
     id="g4067"
     inkscape:groupmode="layer"
     inkscape:label="logo_pnrma"
     transform="matrix(1.25,0,0,-1.25,0,500)"><g
       id="g4069"
       transform="matrix(0.66104273,0,0,-0.66104273,-57.953197,-120.46856)"><path
         d="m 386.07617,-528.30811 c 0,136.85938 -65.15869,247.80616 -145.53564,247.80616 -80.37647,0 -145.53467,-110.94678 -145.53467,-247.80616 0,-136.85986 65.1582,-247.80615 145.53467,-247.80615 80.37695,0 145.53564,110.94629 145.53564,247.80615 z"
         style="fill:#ffffff;fill-opacity:1;fill-rule:nonzero;stroke:none"
         id="path4071"
         inkscape:connector-curvature="0" /><path
         d="m 240.54053,-776.11426 c -80.36865,0 -145.53467,110.94336 -145.53467,247.80518 0,28.95361 2.92676,56.74072 8.2876,82.57031 12.16943,0.8916 32.64013,19.53516 42.28174,25.78955 45.2998,29.38965 93.87011,26.88086 132.83007,15.0625 21.39356,-10.17383 49.87598,-20.05566 61.09473,-46.60889 -78.28174,-20.88427 -133.55029,-3.28759 -149.42725,2.97754 8.64405,13.45557 30.48487,22.16065 71.44825,21.06397 19.67822,-0.53662 41.10791,0.11719 41.10791,0.11719 0,0 -89.93897,21.50878 -121.7334,-6.14698 -13.11963,-11.42285 -28.96631,-71.64111 76.16992,-118.07324 0,0 6.39551,-1.78906 6.39551,-1.78906 -45.26123,20.78955 -90.39356,72.26806 -74.68115,102.59863 8.42431,-6.14502 30.92822,-18.37109 78.95654,-17.15625 40.63672,1.02149 62.67969,9.27637 72.55469,14.39111 2.1416,-5.66992 3.53418,-12.05615 3.92773,-19.34228 1.27148,-23.57617 -14.16992,-44.29932 -65.90918,-84.77881 -13.6792,-10.70215 11.06006,-37.43359 12.44629,-28.32568 8.09277,53.17334 58.43359,60.30078 75.80664,95.39502 8.31152,16.78906 -0.58984,35.18261 -16.1543,52.04101 -1.84961,2.49658 -4.18945,5.25781 -6.94922,7.88916 -22.65234,21.59912 -60.49023,57.9292 -108.47509,60.12549 -21.20557,0.9707 -71.71826,-28.30371 -117.66504,-25.91992 25.76416,69.6416 71.31885,115.92676 123.22168,115.92676 80.37939,0 145.53564,-110.9541 145.53564,-247.80713 0,-136.86182 -65.15625,-247.80518 -145.53564,-247.80518 z"
         style="fill:#009270;fill-opacity:1;fill-rule:nonzero;stroke:none"
         id="path4073"
         inkscape:connector-curvature="0" /><path
         d="m 407.729,-451.31055 c 0,0 14.54639,0 14.54639,0 1.0957,0 6.45166,-3.29687 5.96436,-13.38672 -0.48682,-9.89062 -5.23389,-11.98877 -7.7295,-11.98877 0,0 -12.78125,0 -12.78125,0 0,0 0,25.37549 0,25.37549 z m -5.72119,-33.66748 c 0,0 18.56348,0 18.56348,0 3.65185,-0.69922 12.17236,1.79834 13.3291,17.68311 1.27783,17.68262 -6.81689,24.47607 -11.50342,24.27637 0,0 -14.66797,0 -14.66797,0 0,0 0,30.87011 0,30.87011 0,0 -5.72119,0 -5.72119,0 0,0 0,-72.82959 0,-72.82959 z"
         style="fill:#be2032;fill-opacity:1;fill-rule:nonzero;stroke:none"
         id="path4075"
         inkscape:connector-curvature="0" /><path
         d="m 462.56592,-437.82373 c -4.13867,2.69775 -9.85987,2.49756 -12.84229,4.6958 -0.91259,0.69922 -2.98193,3.19678 -3.04297,7.09277 -0.12158,6.49366 2.79981,8.89161 5.59961,8.99121 6.93848,0.29981 10.28565,-8.5913 10.28565,-10.28955 0,0 0,-10.49023 0,-10.49023 z m 5.29541,17.6831 c 0,1.49854 1.15625,3.09668 2.43457,3.09668 0.36523,0 0.79101,0 1.15625,-0.29931 0,0 0,6.59326 0,6.59326 -1.21729,0.59961 -2.25195,0.89941 -3.95606,0.89941 -2.31298,0 -4.56494,-4.09619 -4.74755,-7.59277 -2.49512,3.09717 -5.96436,7.59277 -10.16407,7.59277 -7.12109,0 -11.56396,-6.09423 -11.13818,-16.38427 0.36523,-8.69141 3.40869,-12.08838 6.69531,-13.68653 5.78174,-2.79736 8.76416,-1.89843 11.80713,-3.09716 0.66992,-0.19971 2.55664,-1.19874 2.55664,-3.9961 0,0 0,-6.19385 0,-6.19385 -0.42627,-3.69677 -4.86914,-5.39502 -8.27783,-5.39502 -6.02539,0 -6.39063,7.29297 -6.51221,9.69092 0,0 -4.8081,0 -4.8081,0 0,0 0.18261,-4.5957 0.18261,-4.5957 0.42579,-2.99707 1.94776,-7.69238 5.29493,-10.29004 1.64355,-1.29883 3.65185,-2.29785 6.57324,-2.29785 1.7041,0 3.46924,0.1001 5.47803,0.89941 4.0166,1.49854 7.30322,4.89502 7.42529,10.08985 0,0 0,34.9663 0,34.9663 z"
         style="fill:#be2032;fill-opacity:1;fill-rule:nonzero;stroke:none"
         id="path4077"
         inkscape:connector-curvature="0" /><path
         d="m 478.75537,-464.59766 c 0,0 5.11279,0 5.11279,0 0,0 0,8.19239 0,8.19239 0,0 0.12159,0 0.12159,0 1.88671,-5.99463 4.92968,-9.39112 7.24267,-9.69092 0,0 2.86035,0 2.86035,0 0,0 0,8.7915 0,8.7915 -1.88672,0 -3.46875,0.39942 -4.86865,1.19873 -3.59131,2.69776 -5.35596,7.59278 -5.35596,16.68408 0,0 0,27.27344 0,27.27344 0,0 -5.11279,0 -5.11279,0 0,0 0,-52.44922 0,-52.44922 z"
         style="fill:#be2032;fill-opacity:1;fill-rule:nonzero;stroke:none"
         id="path4079"
         inkscape:connector-curvature="0" /><path
         d="m 525.68066,-430.23096 c -0.12207,4.396 -0.85205,8.1919 -1.7041,10.58985 -2.4956,6.89306 -7.36474,10.09033 -12.05127,9.79052 -4.68652,-0.3999 -9.19043,-4.1958 -11.19873,-11.08935 -1.27832,-4.2959 -2.31299,-10.78955 -2.1914,-17.78272 0.12207,-6.89355 1.33935,-14.28613 4.56494,-20.28027 2.55615,-4.79541 6.14746,-6.89355 9.6167,-7.09326 3.46875,-0.0996 6.8164,1.59863 9.00781,4.69531 2.49512,2.59766 3.59082,8.39209 3.95605,14.48633 0,0 -5.05175,0 -5.05175,0 -0.54786,-5.49463 -1.27832,-8.09229 -3.40821,-9.79053 -0.91308,-0.79931 -2.4956,-1.79834 -4.38232,-1.69873 -1.94775,0.2002 -4.13867,1.49854 -6.26904,5.49512 -1.39991,2.59717 -2.25196,7.69238 -2.49561,12.9873 -0.24316,5.29493 0.12207,10.68946 1.15674,14.08643 1.94775,6.29346 5.1123,8.29199 7.91211,8.0918 2.86084,-0.29981 5.35596,-2.89698 6.08642,-5.69434 0.73047,-2.19775 1.33887,-4.79541 1.52149,-6.79346 0,0 4.93017,0 4.93017,0 z"
         style="fill:#be2032;fill-opacity:1;fill-rule:nonzero;stroke:none"
         id="path4081"
         inkscape:connector-curvature="0" /><path
         d="m 384.9458,-383.33838 c 0,0 0,4.39551 0,4.39551 0,0 0.0811,0 0.0811,0 0.64941,-1.66504 1.54199,-3.13037 2.35351,-3.79639 1.01416,-1.26513 2.67774,-1.66504 4.21973,-1.59814 1.54199,0.0664 2.96191,0.53271 3.48974,0.93213 1.05469,0.93261 2.92139,2.66406 3.36768,7.85937 0,0 0,27.17383 0,27.17383 0,0 -3.40869,0 -3.40869,0 0,0 0,-24.31006 0,-24.31006 0.041,-4.3291 -1.90674,-6.59375 -4.26026,-6.59375 -2.84033,0 -5.92382,2.93067 -5.84277,12.32178 0,0 0,18.58203 0,18.58203 0,0 -3.4082,0 -3.4082,0 0,0 0,-34.96631 0,-34.96631 0,0 3.4082,0 3.4082,0 z"
         style="fill:#be2032;fill-opacity:1;fill-rule:nonzero;stroke:none"
         id="path4083"
         inkscape:connector-curvature="0" /><path
         d="m 421.09814,-365.48926 c -2.75878,1.79834 -6.57275,1.66504 -8.56103,3.13037 -0.60889,0.46631 -1.98828,2.13135 -2.02881,4.72901 -0.0811,4.3291 1.86621,5.92773 3.73291,5.99414 4.62549,0.1997 6.85693,-5.72754 6.85693,-6.85987 0,0 0,-6.99365 0,-6.99365 z m 3.53028,11.78906 c 0,0.99903 0.77099,2.06446 1.62304,2.06446 0.24317,0 0.52735,0 0.771,-0.19971 0,0 0,4.39551 0,4.39551 -0.81152,0.3999 -1.50146,0.59961 -2.63769,0.59961 -1.54151,0 -3.04297,-2.73047 -3.16456,-5.06201 -1.66357,2.06494 -3.97656,5.06201 -6.77636,5.06201 -4.74707,0 -7.70899,-4.0625 -7.42481,-10.92285 0.24317,-5.79444 2.27198,-8.05909 4.46289,-9.12452 3.85498,-1.86474 5.84278,-1.26562 7.87159,-2.06445 0.44628,-0.1333 1.7041,-0.79931 1.7041,-2.66455 0,0 0,-4.12939 0,-4.12939 -0.28369,-2.46387 -3.24561,-3.5962 -5.51807,-3.5962 -4.01709,0 -4.26025,4.86182 -4.34131,6.46045 0,0 -3.20556,0 -3.20556,0 0,0 0.12158,-3.06396 0.12158,-3.06396 0.28418,-1.99805 1.29834,-5.12842 3.53027,-6.85986 1.09522,-0.86573 2.43457,-1.53174 4.38184,-1.53174 1.13623,0 2.31299,0.0664 3.65185,0.59912 2.67774,0.99902 4.86914,3.26367 4.9502,6.72705 0,0 0,23.31103 0,23.31103 z"
         style="fill:#be2032;fill-opacity:1;fill-rule:nonzero;stroke:none"
         id="path4085"
         inkscape:connector-curvature="0" /><path
         d="m 438.87012,-383.33838 c 0,0 3.36816,0 3.36816,0 0,0 0,5.12842 0,5.12842 0,0 -3.36816,0 -3.36816,0 0,0 0,24.24316 0,24.24316 0,2.19776 1.46093,2.33106 3.36816,1.79834 0,0 0,4.92871 0,4.92871 -1.42041,0.39942 -2.35351,0.59912 -3.69238,0.39942 -2.35352,-0.39942 -3.08399,-3.59668 -3.08399,-4.92871 0,0 0,-26.44092 0,-26.44092 0,0 -2.96191,0 -2.96191,0 0,0 0,-5.12842 0,-5.12842 0,0 2.96191,0 2.96191,0 0,0 0,-9.45801 0,-9.45801 0,0 3.40821,0 3.40821,0 0,0 0,9.45801 0,9.45801 z"
         style="fill:#be2032;fill-opacity:1;fill-rule:nonzero;stroke:none"
         id="path4087"
         inkscape:connector-curvature="0" /><path
         d="m 463.41846,-348.37207 c 0,0 0,-3.72998 0,-3.72998 0,0 -0.0811,0 -0.0811,0 -0.64941,1.66504 -1.54199,3.13037 -2.35351,3.79639 -1.09571,1.06591 -2.75928,1.46533 -4.30078,1.46533 -1.50147,0 -2.88086,-0.39942 -3.4087,-0.79932 -1.58203,-1.39844 -2.96191,-4.0625 -3.36767,-7.85889 0,0 0,-27.83984 0,-27.83984 0,0 3.4082,0 3.4082,0 0,0 0,24.70947 0,24.70947 -0.0405,2.59766 0.56836,4.52881 1.62305,5.59473 0.52783,0.53272 1.17676,0.86572 1.90722,0.93213 0.73047,0.1333 1.542,0 2.39405,-0.39941 3.69238,-2.13135 4.1792,-7.32618 4.1792,-11.85547 0,0 0,-18.98145 0,-18.98145 0,0 3.4082,0 3.4082,0 0,0 0,34.96631 0,34.96631 0,0 -3.4082,0 -3.4082,0 z"
         style="fill:#be2032;fill-opacity:1;fill-rule:nonzero;stroke:none"
         id="path4089"
         inkscape:connector-curvature="0" /><path
         d="m 476.68652,-383.33838 c 0,0 3.40821,0 3.40821,0 0,0 0,5.46143 0,5.46143 0,0 0.081,0 0.081,0 1.25781,-3.99659 3.28662,-6.26075 4.82861,-6.46045 0,0 1.90723,0 1.90723,0 0,0 0,5.86084 0,5.86084 -1.25781,0 -2.31299,0.2666 -3.24609,0.79931 -2.39405,1.79834 -3.5708,5.06153 -3.5708,11.12256 0,0 0,18.18262 0,18.18262 0,0 -3.40821,0 -3.40821,0 0,0 0,-34.96631 0,-34.96631 z"
         style="fill:#be2032;fill-opacity:1;fill-rule:nonzero;stroke:none"
         id="path4091"
         inkscape:connector-curvature="0" /><path
         d="m 508.57813,-368.55273 c 0.12207,-3.26368 -1.01417,-7.19336 -1.54151,-8.12549 -0.44629,-1.53174 -1.98828,-2.79737 -3.69238,-3.06397 -1.66358,-0.26611 -3.53028,0.53321 -4.66651,3.06397 -0.52734,0.79931 -1.74462,4.5957 -1.82568,8.12549 0,0 11.72608,0 11.72608,0 z m -11.84766,4.92871 c -0.12207,2.46435 -0.0405,4.4624 1.17676,7.59277 0.9331,2.06445 2.3125,4.3291 4.78759,4.3291 4.21973,0 5.19385,-5.32812 5.68067,-7.32666 0,0 3.44873,0 3.44873,0 -0.28418,2.13135 -0.6084,4.5293 -1.90674,6.99365 -1.58252,3.46338 -4.3418,5.19483 -7.18213,5.19483 -2.79931,0 -5.68017,-1.79834 -7.50635,-5.59473 -1.41992,-2.99707 -2.19091,-8.05859 -2.15039,-13.18701 0.0405,-5.12842 0.89258,-10.25684 2.63721,-13.4541 2.31299,-4.26221 5.19385,-5.59424 7.83106,-5.26123 2.63769,0.33301 5.03125,2.33105 6.32958,4.99511 2.31299,5.12842 2.35352,9.25782 2.39405,15.71827 0,0 -15.54004,0 -15.54004,0 z"
         style="fill:#be2032;fill-opacity:1;fill-rule:nonzero;stroke:none"
         id="path4093"
         inkscape:connector-curvature="0" /><path
         d="m 520.83203,-396.92529 c 0,0 3.4082,0 3.4082,0 0,0 0,48.55322 0,48.55322 0,0 -3.4082,0 -3.4082,0 0,0 0,-48.55322 0,-48.55322 z"
         style="fill:#be2032;fill-opacity:1;fill-rule:nonzero;stroke:none"
         id="path4095"
         inkscape:connector-curvature="0" /><path
         d="m 351.47168,-319.55908 c 0,0 3.40869,0 3.40869,0 0,0 0,5.46142 0,5.46142 0,0 0.0811,0 0.0811,0 1.25781,-3.99609 3.28662,-6.26074 4.82861,-6.46045 0,0 1.90674,0 1.90674,0 0,0 0,5.86084 0,5.86084 -1.25782,0 -2.3125,0.26661 -3.2461,0.79932 -2.39404,1.79834 -3.57031,5.06201 -3.57031,11.12256 0,0 0,18.18262 0,18.18262 0,0 -3.40869,0 -3.40869,0 0,0 0,-34.96631 0,-34.96631 z"
         style="fill:#be2032;fill-opacity:1;fill-rule:nonzero;stroke:none"
         id="path4097"
         inkscape:connector-curvature="0" /><path
         d="m 384.05371,-333.87842 c 0,0 -6.00537,9.85694 -6.00537,9.85694 0,0 -2.4751,0 -2.4751,0 0,0 3.93604,-9.85694 3.93604,-9.85694 0,0 4.54443,0 4.54443,0 z m 0.12158,29.10498 c 0.12159,-3.26318 -1.01465,-7.19287 -1.54199,-8.12549 -0.44629,-1.53173 -1.98828,-2.79736 -3.69238,-3.06347 -1.66358,-0.2666 -3.52979,0.53271 -4.66602,3.06347 -0.52734,0.79932 -1.74463,4.59571 -1.82568,8.12549 0,0 11.72607,0 11.72607,0 z m -11.84814,4.92871 c -0.12158,2.46436 -0.0405,4.46241 1.17676,7.59278 0.9331,2.06445 2.31298,4.3291 4.78808,4.3291 4.21973,0 5.19336,-5.32813 5.68018,-7.32617 0,0 3.44922,0 3.44922,0 -0.28418,2.13134 -0.60889,4.52881 -1.90723,6.99316 -1.58252,3.46338 -4.34131,5.19531 -7.18164,5.19531 -2.79981,0 -5.68066,-1.79834 -7.50635,-5.59472 -1.42041,-2.99707 -2.1914,-8.05909 -2.15039,-13.1875 0.0405,-5.12842 0.89258,-10.25684 2.63721,-13.45362 2.3125,-4.26269 5.19336,-5.59472 7.83105,-5.26172 2.63721,0.33301 5.03125,2.33106 6.32959,4.99512 2.3125,5.12842 2.35352,9.25781 2.39405,15.71826 0,0 -15.54053,0 -15.54053,0 z"
         style="fill:#be2032;fill-opacity:1;fill-rule:nonzero;stroke:none"
         id="path4099"
         inkscape:connector-curvature="0" /><path
         d="m 408.9668,-312.09961 c -0.40576,-0.93262 -2.02881,-2.26465 -3.77344,-2.33105 -1.78565,-0.0664 -3.73291,1.06543 -4.86914,5.06201 -0.44629,1.53174 -0.93311,4.59521 -1.01465,7.85888 -0.0811,3.26368 0.24365,6.79346 1.33936,9.39112 1.01416,2.33105 2.51562,3.66308 4.09814,3.79638 1.5415,0.26612 3.12402,-0.66601 4.30078,-2.73095 2.71875,-4.86182 2.31299,-16.9834 -0.0811,-21.04639 z m 5.35595,-7.45947 c 0,0 0,29.03857 0,29.03857 -0.12207,8.39209 -0.60888,16.78418 -5.07226,19.11524 -0.72998,0.39941 -2.06934,1.06543 -3.57031,1.39843 -1.542,0.2002 -3.2461,0.0669 -4.78809,-0.99902 -3.89502,-2.46435 -4.38184,-6.85986 -4.50391,-9.59082 0,0 3.44922,0 3.44922,0 0.16211,1.26563 0.0811,3.26367 2.35303,4.8623 0.771,0.53272 1.66357,0.79932 2.6377,0.79932 1.01416,0 2.06933,-0.2666 3.08349,-0.93262 2.02881,-1.73193 2.19092,-3.13037 2.55615,-5.59472 0.40577,-3.06348 0.44629,-4.1294 0.44629,-7.32617 -1.25781,2.39746 -3.69189,5.79443 -6.93799,5.72802 -1.33886,-0.20019 -2.84033,-0.93261 -4.5039,-3.13037 -2.51563,-2.66406 -3.69238,-8.05908 -3.81397,-13.65381 -0.16259,-5.66113 0.72998,-11.58886 2.3125,-15.25195 0.44629,-0.93262 3.2461,-5.66113 6.85743,-5.46143 2.3125,0.13331 4.3413,1.66504 6.00488,5.26172 0,0 0.0811,0 0.0811,0 0,0 0,-4.26269 0,-4.26269 0,0 3.40869,0 3.40869,0 z"
         style="fill:#be2032;fill-opacity:1;fill-rule:nonzero;stroke:none"
         id="path4101"
         inkscape:connector-curvature="0" /><path
         d="m 427.99658,-284.59277 c 0,0 -3.4082,0 -3.4082,0 0,0 0,-34.96631 0,-34.96631 0,0 3.4082,0 3.4082,0 0,0 0,34.96631 0,34.96631 z m 0,-41.62647 c 0,0 -3.4082,0 -3.4082,0 0,0 0,-6.92676 0,-6.92676 0,0 3.4082,0 3.4082,0 0,0 0,6.92676 0,6.92676 z"
         style="fill:#be2032;fill-opacity:1;fill-rule:nonzero;stroke:none"
         id="path4103"
         inkscape:connector-curvature="0" /><path
         d="m 446.86328,-314.96338 c -4.46338,0 -6.12695,7.39258 -6.12695,13.12061 0,5.72802 1.66357,13.1875 6.12695,13.1875 4.50391,0 6.12695,-7.45948 6.12695,-13.1875 0,-5.72803 -1.62304,-13.12061 -6.12695,-13.12061 z m 0,31.90283 c -3.89502,0 -9.61621,-3.19726 -9.61621,-18.78222 0,-15.58496 5.72119,-18.71534 9.61621,-18.71534 3.89551,0 9.61621,3.13038 9.61621,18.71534 0,15.58496 -5.7207,18.78222 -9.61621,18.78222 z"
         style="fill:#be2032;fill-opacity:1;fill-rule:nonzero;stroke:none"
         id="path4105"
         inkscape:connector-curvature="0" /><path
         d="m 469.46387,-319.55908 c 0,0 0,4.39599 0,4.39599 0,0 0.0811,0 0.0811,0 0.64942,-1.66504 1.54199,-3.13037 2.35352,-3.79638 1.01416,-1.26563 2.67773,-1.66504 4.21972,-1.59864 1.542,0.0664 2.96192,0.53272 3.48926,0.93262 1.05518,0.93213 2.92139,2.66406 3.36768,7.85889 0,0 0,27.17383 0,27.17383 0,0 -3.40821,0 -3.40821,0 0,0 0,-24.31006 0,-24.31006 0.0405,-4.3291 -1.90673,-6.59326 -4.26025,-6.59326 -2.84033,0 -5.92383,2.93017 -5.84277,12.32129 0,0 0,18.58203 0,18.58203 0,0 -3.40821,0 -3.40821,0 0,0 0,-34.96631 0,-34.96631 0,0 3.40821,0 3.40821,0 z"
         style="fill:#be2032;fill-opacity:1;fill-rule:nonzero;stroke:none"
         id="path4107"
         inkscape:connector-curvature="0" /><path
         d="m 506.42773,-301.70947 c -2.75878,1.79834 -6.57324,1.66504 -8.56103,3.13037 -0.60889,0.46631 -1.98828,2.13135 -2.02881,4.72851 -0.0815,4.32911 1.86621,5.92774 3.73291,5.99463 4.62549,0.19971 6.85693,-5.72802 6.85693,-6.86035 0,0 0,-6.99316 0,-6.99316 z m 3.53028,11.78857 c 0,0.99902 0.77051,2.06494 1.62304,2.06494 0.24317,0 0.52735,0 0.77051,-0.20019 0,0 0,4.39599 0,4.39599 -0.81152,0.39942 -1.50097,0.59961 -2.6372,0.59961 -1.542,0 -3.04297,-2.73095 -3.16504,-5.06201 -1.66358,2.06445 -3.97608,5.06201 -6.77588,5.06201 -4.74707,0 -7.70899,-4.06299 -7.4253,-10.92285 0.24366,-5.79443 2.27247,-8.05908 4.46338,-9.125 3.8545,-1.86474 5.84278,-1.26514 7.87159,-2.06445 0.44628,-0.1333 1.7041,-0.79932 1.7041,-2.66406 0,0 0,-4.1294 0,-4.1294 -0.28418,-2.46435 -3.2461,-3.59668 -5.51807,-3.59668 -4.01709,0 -4.26074,4.86231 -4.3418,6.46045 0,0 -3.20507,0 -3.20507,0 0,0 0.12158,-3.06348 0.12158,-3.06348 0.28418,-1.99804 1.29834,-5.12841 3.52978,-6.86035 1.09571,-0.86572 2.43457,-1.53174 4.38233,-1.53174 1.13623,0 2.31299,0.0664 3.65185,0.59961 2.67774,0.99903 4.86865,3.26319 4.9502,6.72657 0,0 0,23.31103 0,23.31103 z"
         style="fill:#be2032;fill-opacity:1;fill-rule:nonzero;stroke:none"
         id="path4109"
         inkscape:connector-curvature="0" /><path
         d="m 520.83203,-333.146 c 0,0 3.4082,0 3.4082,0 0,0 0,48.55323 0,48.55323 0,0 -3.4082,0 -3.4082,0 0,0 0,-48.55323 0,-48.55323 z"
         style="fill:#be2032;fill-opacity:1;fill-rule:nonzero;stroke:none"
         id="path4111"
         inkscape:connector-curvature="0" /><path
         d="m 104.95215,-198.40479 c 2.01611,-0.24218 3.9834,-1.85693 4.96728,-4.60156 3.34424,-9.20361 1.13135,-20.4248 -0.24609,-23.49267 -1.08203,-2.50293 -3.09814,-3.95606 -5.11475,-4.03662 -2.0166,-0.16163 -4.08203,1.13037 -5.41015,4.11718 -2.16406,4.92481 -2.80371,16.95362 0.39355,24.13867 1.32764,2.90625 3.39356,4.11719 5.41016,3.875 z m 10.81982,-54.33154 c 0,0 0,58.93311 0,58.93311 0,0 -3.59033,0 -3.59033,0 0,0 0,-4.92481 0,-4.92481 -0.78662,1.53418 -2.06543,3.63282 -3.54101,5.08643 -0.9834,1.04931 -2.65577,1.61426 -4.42627,1.61426 -1.77051,0 -3.68897,-0.56495 -5.16456,-1.69532 -3.83593,-3.14843 -5.85253,-10.57568 -6.24609,-18.32568 -0.44238,-7.66943 0.73779,-15.66162 3.29541,-19.94043 2.45899,-4.19824 5.16406,-5.57031 7.57422,-5.48975 2.40967,0 4.47559,1.37256 5.60693,2.5835 1.18018,1.21094 1.96729,2.66406 2.26221,3.79443 0,0 0.0982,0 0.0982,0 0,0 0,-21.63574 0,-21.63574 0,0 4.13134,0 4.13134,0 z"
         style="fill:#be2032;fill-opacity:1;fill-rule:nonzero;stroke:none"
         id="path4113"
         inkscape:connector-curvature="0" /><path
         d="m 138.1499,-218.34521 c 0.14746,-3.95606 -1.22949,-8.71924 -1.86865,-9.84913 -0.54102,-1.85693 -2.41016,-3.39062 -4.47607,-3.71386 -2.01612,-0.32276 -4.27881,0.64599 -5.65577,3.71386 -0.63964,0.96875 -2.11474,5.57032 -2.21337,9.84913 0,0 14.21386,0 14.21386,0 z m -14.36133,5.97412 c -0.14746,2.98681 -0.0493,5.40869 1.42627,9.20312 1.13135,2.50244 2.80371,5.24756 5.80371,5.24756 5.11475,0 6.29541,-6.4585 6.88575,-8.88037 0,0 4.18017,0 4.18017,0 -0.34424,2.58301 -0.73779,5.48974 -2.31152,8.47656 -1.91797,4.19776 -5.2627,6.29688 -8.70557,6.29688 -3.39355,0 -6.88525,-2.17969 -9.09863,-6.78125 -1.72119,-3.63282 -2.65576,-9.76856 -2.60645,-15.98487 0.0488,-6.21582 1.08204,-12.43213 3.19678,-16.30713 2.80322,-5.16699 6.29541,-6.78173 9.49219,-6.37793 3.19678,0.40381 6.09863,2.82569 7.67236,6.05469 2.80371,6.21631 2.85303,11.22168 2.90186,19.05274 0,0 -18.83692,0 -18.83692,0 z"
         style="fill:#be2032;fill-opacity:1;fill-rule:nonzero;stroke:none"
         id="path4115"
         inkscape:connector-curvature="0" /><path
         d="m 148.92041,-206.39746 c 0.14795,4.11767 1.57422,6.78174 4.47607,8.23486 0.9834,0.48438 2.31153,0.48438 3.63916,0.48438 1.27881,-0.56543 2.55762,-1.13037 3.2461,-1.9375 0.88525,-1.04981 1.62305,-3.06787 1.62305,-5.16699 0,-2.17969 -0.7378,-4.27881 -2.80323,-5.4087 -3.24609,-1.29199 -7.37744,-2.58349 -9.59082,-4.2788 -2.0166,-1.21094 -3.78711,-4.11719 -3.78711,-10.3335 0,-8.07324 4.42676,-12.67481 9.49219,-12.67481 8.50879,0 9.5415,8.31543 9.59082,13.07813 0,0 -4.0332,0 -4.0332,0 0,-2.17969 -0.14746,-6.78125 -5.90186,-6.78125 -2.5083,0 -4.37695,2.26074 -5.0166,4.521 -0.59033,2.17968 -0.19678,4.60156 1.22949,5.8125 1.42627,1.29199 3.49219,2.09912 6.04981,3.14843 2.06543,0.56543 4.13135,1.37256 5.95117,3.2295 2.26221,2.17968 3.14746,6.37744 2.80322,10.49462 -0.34424,4.11768 -1.91797,8.15381 -4.62304,10.17237 -1.32813,0.96875 -3.00049,1.53369 -4.72168,1.77588 -1.72168,0 -3.49219,0 -4.96729,-0.56495 -6.00049,-2.26074 -6.5415,-9.84912 -6.5415,-13.80517 0,0 3.88525,0 3.88525,0 z"
         style="fill:#be2032;fill-opacity:1;fill-rule:nonzero;stroke:none"
         id="path4117"
         inkscape:connector-curvature="0" /><path
         d="m 197.06982,-193.88379 c 0,0 -9.78711,-47.79248 -9.78711,-47.79248 0,0 0,47.79248 0,47.79248 0,0 -4.72167,0 -4.72167,0 0,0 0,-58.85254 0,-58.85254 0,0 6.5415,0 6.5415,0 0,0 10.32812,50.05274 10.32812,50.05274 0,0 10.32862,-50.05274 10.32862,-50.05274 0,0 6.5415,0 6.5415,0 0,0 0,58.85254 0,58.85254 0,0 -4.72168,0 -4.72168,0 0,0 0,-47.79248 0,-47.79248 0,0 -9.7876,47.79248 -9.7876,47.79248 0,0 -4.72168,0 -4.72168,0 z"
         style="fill:#be2032;fill-opacity:1;fill-rule:nonzero;stroke:none"
         id="path4119"
         inkscape:connector-curvature="0" /><path
         d="m 231.89063,-230.69727 c -5.41016,0 -7.42676,8.96143 -7.42676,15.90381 0,6.94287 2.0166,15.98487 7.42676,15.98487 5.45898,0 7.42675,-9.042 7.42675,-15.98487 0,-6.94238 -1.96777,-15.90381 -7.42675,-15.90381 z m 0,38.66993 c -4.72168,0 -11.65625,-3.875 -11.65625,-22.76612 0,-18.89062 6.93457,-22.68506 11.65625,-22.68506 4.72167,0 11.65625,3.79444 11.65625,22.68506 0,18.89112 -6.93458,22.76612 -11.65625,22.76612 z"
         style="fill:#be2032;fill-opacity:1;fill-rule:nonzero;stroke:none"
         id="path4121"
         inkscape:connector-curvature="0" /><path
         d="m 252.00586,-236.26758 c 0,0 0,5.32813 0,5.32813 0,0 0.0986,0 0.0986,0 0.78662,-2.01807 1.86865,-3.79395 2.85254,-4.60157 1.22949,-1.53369 3.2461,-2.01806 5.11475,-1.9375 1.86914,0.0806 3.59033,0.646 4.22998,1.13038 1.27881,1.13037 3.54101,3.229 4.08203,9.52587 0,0 0,32.93848 0,32.93848 0,0 -4.13135,0 -4.13135,0 0,0 0,-29.4668 0,-29.4668 0.0493,-5.24755 -2.31152,-7.99218 -5.16406,-7.99218 -3.44287,0 -7.18067,3.55175 -7.08252,14.93506 0,0 0,22.52392 0,22.52392 0,0 -4.13135,0 -4.13135,0 0,0 0,-42.38379 0,-42.38379 0,0 4.13135,0 4.13135,0 z"
         style="fill:#be2032;fill-opacity:1;fill-rule:nonzero;stroke:none"
         id="path4123"
         inkscape:connector-curvature="0" /><path
         d="m 278.81006,-236.26758 c 0,0 4.08203,0 4.08203,0 0,0 0,6.21631 0,6.21631 0,0 -4.08203,0 -4.08203,0 0,0 0,29.38574 0,29.38574 0,2.66407 1.77051,2.82569 4.08203,2.17969 0,0 0,5.97412 0,5.97412 -1.72119,0.48438 -2.85254,0.72656 -4.47559,0.48438 -2.85254,-0.48438 -3.73779,-4.35938 -3.73779,-5.97412 0,0 0,-32.04981 0,-32.04981 0,0 -3.59033,0 -3.59033,0 0,0 0,-6.21631 0,-6.21631 0,0 3.59033,0 3.59033,0 0,0 0,-11.46387 0,-11.46387 0,0 4.13135,0 4.13135,0 0,0 0,11.46387 0,11.46387 z"
         style="fill:#be2032;fill-opacity:1;fill-rule:nonzero;stroke:none"
         id="path4125"
         inkscape:connector-curvature="0" /><path
         d="m 288.25293,-206.39746 c 0.14746,4.11767 1.57373,6.78174 4.47559,8.23486 0.98388,0.48438 2.31152,0.48438 3.63964,0.48438 1.27881,-0.56543 2.55762,-1.13037 3.2461,-1.9375 0.88525,-1.04981 1.62304,-3.06787 1.62304,-5.16699 0,-2.17969 -0.73779,-4.27881 -2.80322,-5.4087 -3.24609,-1.29199 -7.37744,-2.58349 -9.59082,-4.2788 -2.0166,-1.21094 -3.78711,-4.11719 -3.78711,-10.3335 0,-8.07324 4.42627,-12.67481 9.49219,-12.67481 8.50879,0 9.5415,8.31543 9.59082,13.07813 0,0 -4.0332,0 -4.0332,0 0,-2.17969 -0.14746,-6.78125 -5.90186,-6.78125 -2.5083,0 -4.37744,2.26074 -5.0166,4.521 -0.59033,2.17968 -0.19678,4.60156 1.22949,5.8125 1.42627,1.29199 3.49219,2.09912 6.04981,3.14843 2.06543,0.56543 4.13134,1.37256 5.95068,3.2295 2.2627,2.17968 3.14795,6.37744 2.80371,10.49462 -0.34424,4.11768 -1.91797,8.15381 -4.62305,10.17237 -1.32812,0.96875 -3.00048,1.53369 -4.72168,1.77588 -1.72167,0 -3.49218,0 -4.96777,-0.56495 -6,-2.26074 -6.54101,-9.84912 -6.54101,-13.80517 0,0 3.88525,0 3.88525,0 z"
         style="fill:#be2032;fill-opacity:1;fill-rule:nonzero;stroke:none"
         id="path4127"
         inkscape:connector-curvature="0" /><path
         d="m 331.72998,-198.40479 c 2.0166,-0.24218 3.98389,-1.85693 4.96777,-4.60156 3.34424,-9.20361 1.13086,-20.4248 -0.24609,-23.49267 -1.08203,-2.50293 -3.09863,-3.95606 -5.11523,-4.03662 -2.01612,-0.16163 -4.08204,1.13037 -5.40967,4.11718 -2.16406,4.92481 -2.80371,16.95362 0.39306,24.13867 1.32813,2.90625 3.39405,4.11719 5.41016,3.875 z m 10.82031,-54.33154 c 0,0 0,58.93311 0,58.93311 0,0 -3.59033,0 -3.59033,0 0,0 0,-4.92481 0,-4.92481 -0.78711,1.53418 -2.06543,3.63282 -3.54101,5.08643 -0.98389,1.04931 -2.65577,1.61426 -4.42676,1.61426 -1.77051,0 -3.68848,-0.56495 -5.16406,-1.69532 -3.83643,-3.14843 -5.85254,-10.57568 -6.2461,-18.32568 -0.44287,-7.66943 0.73779,-15.66162 3.29492,-19.94043 2.45948,-4.19824 5.16455,-5.57031 7.57422,-5.48975 2.41016,0 4.47608,1.37256 5.60694,2.5835 1.18066,1.21094 1.96728,2.66406 2.26269,3.79443 0,0 0.0981,0 0.0981,0 0,0 0,-21.63574 0,-21.63574 0,0 4.13134,0 4.13134,0 z"
         style="fill:#be2032;fill-opacity:1;fill-rule:nonzero;stroke:none"
         id="path4129"
         inkscape:connector-curvature="0" /><path
         d="m 351.15674,-251.04102 c 0,0 0,8.96094 0,8.96094 0,0 -1.32764,10.89844 -1.32764,10.89844 0,0 -1.96728,0 -1.96728,0 0,0 -1.32813,-10.89844 -1.32813,-10.89844 0,0 0,-8.96094 0,-8.96094 0,0 4.62305,0 4.62305,0 z"
         style="fill:#be2032;fill-opacity:1;fill-rule:nonzero;stroke:none"
         id="path4131"
         inkscape:connector-curvature="0" /><path
         d="m 363.00977,-217.78027 c 0,0 11.11523,0 11.11523,0 0,0 -5.2627,-25.75293 -5.2627,-25.75293 0,0 -5.85253,25.75293 -5.85253,25.75293 z m -5.06592,23.89648 c 0,0 -4.91846,0 -4.91846,0 0,0 13.03369,-58.85254 13.03369,-58.85254 0,0 5.65576,0 5.65576,0 0,0 12.59082,58.85254 12.59082,58.85254 0,0 -5.16406,0 -5.16406,0 0,0 -3.63965,-17.59961 -3.63965,-17.59961 0,0 -13.72216,0 -13.72216,0 0,0 -3.83594,17.59961 -3.83594,17.59961 z"
         style="fill:#be2032;fill-opacity:1;fill-rule:nonzero;stroke:none"
         id="path4133"
         inkscape:connector-curvature="0" /><path
         d="m 387.00977,-236.26758 c 0,0 4.13134,0 4.13134,0 0,0 0,6.62012 0,6.62012 0,0 0.0986,0 0.0986,0 1.52441,-4.84375 3.98388,-7.58887 5.85254,-7.83106 0,0 2.31152,0 2.31152,0 0,0 0,7.1045 0,7.1045 -1.52442,0 -2.80322,0.32275 -3.93457,0.96875 -2.90186,2.17968 -4.32813,6.13525 -4.32813,13.48193 0,0 0,22.03955 0,22.03955 0,0 -4.13134,0 -4.13134,0 0,0 0,-42.38379 0,-42.38379 z"
         style="fill:#be2032;fill-opacity:1;fill-rule:nonzero;stroke:none"
         id="path4135"
         inkscape:connector-curvature="0" /><path
         d="m 412.1416,-198.40479 c 2.0166,-0.24218 3.98389,-1.85693 4.96778,-4.60156 3.34423,-9.20361 1.13085,-20.4248 -0.2461,-23.49267 -1.08203,-2.50293 -3.09863,-3.95606 -5.11523,-4.03662 -2.01612,-0.16163 -4.08203,1.13037 -5.40967,4.11718 -2.16406,4.92481 -2.80371,16.95362 0.39307,24.13867 1.32812,2.90625 3.39355,4.11719 5.41015,3.875 z m 10.82031,-54.33154 c 0,0 0,58.93311 0,58.93311 0,0 -3.59033,0 -3.59033,0 0,0 0,-4.92481 0,-4.92481 -0.78711,1.53418 -2.06543,3.63282 -3.54101,5.08643 -0.98389,1.04931 -2.65577,1.61426 -4.42676,1.61426 -1.77051,0 -3.68848,-0.56495 -5.16406,-1.69532 -3.83643,-3.14843 -5.85254,-10.57568 -6.2461,-18.32568 -0.44287,-7.66943 0.7378,-15.66162 3.29541,-19.94043 2.45899,-4.19824 5.16407,-5.57031 7.57373,-5.48975 2.41016,0 4.47608,1.37256 5.60694,2.5835 1.18066,1.21094 1.96728,2.66406 2.26269,3.79443 0,0 0.0982,0 0.0982,0 0,0 0,-21.63574 0,-21.63574 0,0 4.13134,0 4.13134,0 z"
         style="fill:#be2032;fill-opacity:1;fill-rule:nonzero;stroke:none"
         id="path4137"
         inkscape:connector-curvature="0" /><path
         d="m 441.74951,-241.67627 c 0,0 -3,0 -3,0 0,0 -7.2793,-11.94824 -7.2793,-11.94824 0,0 5.50831,0 5.50831,0 0,0 4.77099,11.94824 4.77099,11.94824 z m 3.59033,23.33106 c 0.14746,-3.95606 -1.22949,-8.71924 -1.86914,-9.84913 -0.54101,-1.85693 -2.40966,-3.39062 -4.47558,-3.71386 -2.0166,-0.32276 -4.27881,0.64599 -5.65576,3.71386 -0.63965,0.96875 -2.11524,5.57032 -2.21338,9.84913 0,0 14.21386,0 14.21386,0 z m -14.36132,5.97412 c -0.14747,2.98681 -0.0493,5.40869 1.42627,9.20312 1.13134,2.50244 2.80322,5.24756 5.80371,5.24756 5.11474,0 6.29541,-6.4585 6.88525,-8.88037 0,0 4.18066,0 4.18066,0 -0.34423,2.58301 -0.73779,5.48974 -2.31152,8.47656 -1.91797,4.19776 -5.26269,6.29688 -8.70557,6.29688 -3.39355,0 -6.88525,-2.17969 -9.09863,-6.78125 -1.72168,-3.63282 -2.65576,-9.76856 -2.60693,-15.98487 0.0493,-6.21582 1.08203,-12.43213 3.19726,-16.30713 2.80323,-5.16699 6.29541,-6.78173 9.49219,-6.37793 3.19678,0.40381 6.09863,2.82569 7.67236,6.05469 2.80372,6.21631 2.85254,11.22168 2.90186,19.05274 0,0 -18.83691,0 -18.83691,0 z"
         style="fill:#be2032;fill-opacity:1;fill-rule:nonzero;stroke:none"
         id="path4139"
         inkscape:connector-curvature="0" /><path
         d="m 474.01318,-208.49609 c -0.0986,3.55175 -0.68896,6.61963 -1.37744,8.55713 -2.0166,5.57031 -5.95117,8.1538 -9.73828,7.91162 -3.78711,-0.32276 -7.42627,-3.39063 -9.04932,-8.96094 -1.0332,-3.47168 -1.86914,-8.71875 -1.7705,-14.37012 0.0981,-5.57031 1.08203,-11.54443 3.68847,-16.38818 2.06592,-3.875 4.96729,-5.57031 7.771,-5.73194 2.80322,-0.0806 5.5083,1.29151 7.27881,3.79444 2.0166,2.09912 2.90185,6.78125 3.19726,11.70605 0,0 -4.08252,0 -4.08252,0 -0.44238,-4.44043 -1.03271,-6.53955 -2.7539,-7.91162 -0.7378,-0.64599 -2.0166,-1.45312 -3.54151,-1.37256 -1.57373,0.16162 -3.34423,1.21094 -5.06591,4.43994 -1.13086,2.09913 -1.81934,6.21631 -2.01612,10.49512 -0.19677,4.27881 0.0981,8.63819 0.93408,11.38281 1.57422,5.08643 4.13184,6.70069 6.39405,6.53955 2.31152,-0.24218 4.32812,-2.3413 4.91845,-4.60156 0.58985,-1.77636 1.08204,-3.87549 1.2295,-5.48974 0,0 3.98388,0 3.98388,0 z"
         style="fill:#be2032;fill-opacity:1;fill-rule:nonzero;stroke:none"
         id="path4141"
         inkscape:connector-curvature="0" /><path
         d="m 477.20947,-252.73633 c 0,0 4.13135,0 4.13135,0 0,0 0,21.55469 0,21.55469 0.83594,-1.61426 2.36084,-3.79395 4.42627,-5.1665 1.0332,-0.646 2.21338,-1.13038 3.49219,-1.13038 1.27881,0 2.70508,0.40381 4.18066,1.45313 3.78711,2.17969 4.32813,8.63818 4.22949,9.92969 0,0 0,32.21191 0,32.21191 0,0 -4.13134,0 -4.13134,0 0,0 0,-28.90185 0,-28.90185 0.19677,-5.4087 -1.37696,-6.86182 -2.16407,-7.42725 -1.67187,-1.21094 -3.04931,-1.53369 -4.37695,-1.12988 -1.27881,0.40332 -2.55762,1.61425 -4.08252,3.63281 -0.88525,1.45312 -1.57373,2.58301 -1.57373,6.29687 0,0 0,27.5293 0,27.5293 0,0 -4.13135,0 -4.13135,0 0,0 0,-58.85254 0,-58.85254 z"
         style="fill:#be2032;fill-opacity:1;fill-rule:nonzero;stroke:none"
         id="path4143"
         inkscape:connector-curvature="0" /><path
         d="m 520.49023,-218.34521 c 0.14747,-3.95606 -1.22998,-8.71924 -1.86914,-9.84913 -0.54101,-1.85693 -2.41015,-3.39062 -4.47558,-3.71386 -2.0166,-0.32276 -4.27881,0.64599 -5.65625,3.71386 -0.63916,0.96875 -2.11475,5.57032 -2.21289,9.84913 0,0 14.21386,0 14.21386,0 z m -14.36181,5.97412 c -0.14746,2.98681 -0.0488,5.40869 1.42627,9.20312 1.13135,2.50244 2.80371,5.24756 5.80371,5.24756 5.11523,0 6.29541,-6.4585 6.88574,-8.88037 0,0 4.18066,0 4.18066,0 -0.34423,2.58301 -0.73779,5.48974 -2.31152,8.47656 -1.91846,4.19776 -5.26269,6.29688 -8.70557,6.29688 -3.39355,0 -6.88574,-2.17969 -9.09912,-6.78125 -1.72119,-3.63282 -2.65576,-9.76856 -2.60644,-15.98487 0.0493,-6.21582 1.08203,-12.43213 3.19678,-16.30713 2.80371,-5.16699 6.29541,-6.78173 9.49218,-6.37793 3.19727,0.40381 6.09912,2.82569 7.67285,6.05469 2.80323,6.21631 2.85254,11.22168 2.90186,19.05274 0,0 -18.8374,0 -18.8374,0 z"
         style="fill:#be2032;fill-opacity:1;fill-rule:nonzero;stroke:none"
         id="path4145"
         inkscape:connector-curvature="0" /><path
         d="m 206.40723,-735.89551 c 0.46972,0.12598 0.92968,0.48487 1.45459,0.48487 0.67675,-0.41944 1.37451,0.16162 2.10156,0.16162 0.11133,-0.13135 0.16162,-0.11573 0.16162,-0.32325 0.48486,0.26758 0.96973,0.53516 1.4502,0.80323 0.47949,0.0859 0.95947,0.17187 1.43945,0.25244 0.27783,0.0811 0.55566,0.16211 0.82861,0.2373 -0.0557,0.32325 -0.10596,0.64649 -0.16211,0.97022 0.0562,0 0.11133,0 0.16211,0 0.22217,0.13623 0.64697,0.15674 0.64697,0.48486 0.0547,0.21729 0.11036,0.43457 0.16114,0.64649 -0.32324,0 -0.64649,0 -0.97022,0 -0.10595,0.79296 -0.55566,1.30371 -0.55566,2.09619 0,0.81884 0.72217,1.09619 0.84863,1.81396 0.0962,0.55078 -0.29297,0.89942 -0.29297,1.42481 -0.55566,0.0854 -2.10107,0.54541 -2.10107,1.29297 0.0552,0 0.11133,0 0.16162,0 0,0.0552 0,0.11084 0,0.16113 0.25244,0 0.8081,-0.12598 0.8081,0.16211 0.0562,0 0.11133,0 0.16163,0 0,0.16113 0,0.32324 0,0.48486 -0.88868,0.88428 0.48486,1.60156 0.48486,2.58643 -0.82324,-0.0557 -1.5,-0.32325 -2.2627,-0.32325 -0.27343,0.39356 -0.80859,0.94483 -0.80859,1.45459 -0.32275,-0.10546 -0.64648,-0.21142 -0.96973,-0.32324 -0.0552,0.26807 -0.10547,0.54053 -0.16162,0.80811 -0.3789,0 -0.75244,0 -1.13183,0 -0.0649,0.64697 -0.40918,1.55664 -0.23194,2.16699 0.18701,0.66211 1.52539,1.01562 1.52539,1.71289 -0.3081,0.19189 -1.77783,1.21777 -1.77783,1.45459 -0.16162,0 -0.32373,0 -0.48486,0 -0.23291,-0.32275 -0.53076,-0.646 -0.97022,-0.646 -0.0205,0.58594 0.005,2.26319 -0.80859,2.26319 -0.36328,-0.95557 -0.96973,-1.77881 -2.10156,-1.77881 -0.74707,2.69775 1.94043,1.94531 1.94043,3.87988 -0.51563,0.0454 -1.94043,0.3086 -1.94043,0.97022 0.56054,0.27734 1.80908,0.5249 1.354,1.47509 -0.20654,0.42383 -0.65137,0.58106 -0.71728,1.12647 -0.0859,0.68213 0.49511,0.98486 0.49511,1.60107 0.16211,0 0.32325,0 0.48535,0 0,-0.0557 0,-0.10547 0,-0.16162 0.18165,-0.0957 1.13135,-0.7373 1.13135,-0.32324 0.18164,0.22754 1.84375,1.6167 2.10108,1.6167 0,-0.0557 0,-0.10645 0,-0.16211 0.354,-0.40918 0.32861,-1.08105 0.4956,-1.56592 0.10059,-0.3081 0.46973,-0.37353 0.60059,-0.6416 0.0962,-0.20166 0.0811,-1.03516 0.29345,-1.09082 0.47461,-0.13623 0.87354,0.24756 1.3584,0.26709 0.22217,0.006 0.48487,0.0513 0.48487,-0.20117 2.14746,0.4292 2.15234,-1.03613 4.0415,-1.12207 0.2124,-0.0146 0.32324,0.0762 0.32324,-0.17188 0.42432,-0.57031 0.9502,-0.71191 1.51074,-1.11133 1.01514,-0.72705 1.60645,-1.79785 3.01563,-1.79785 0.0903,-0.30859 0.23242,-0.66699 0.55566,-0.82373 0.5,-0.13623 1.00538,-0.27295 1.50538,-0.41406 0.354,-0.16699 0.7124,-0.3335 1.06591,-0.50488 0.25733,0.0249 0.52051,0.0503 0.77832,0.0703 0.32813,-0.11084 0.2168,-0.98975 0.3628,-1.2583 0.31884,-0.13574 0.64209,-0.27246 0.95996,-0.41358 0.13672,-0.32373 0.27295,-0.64697 0.40478,-0.97021 0.27735,-0.0703 0.55518,-0.1416 0.83301,-0.21191 0.32373,0 0.64648,0 0.96973,0 0.40918,-0.75782 1.77832,-0.81836 1.77832,-0.96973 0.60644,-0.91455 1.05078,-1.13672 2.04638,-1.56641 0.36866,-0.1665 0.51514,-0.41406 0.99512,-0.3584 0.97461,0.11133 4.63184,3.52588 5.10205,4.46582 0.26221,0.5254 0.26221,1.5 0.26221,2.14698 0.32373,0 0.64697,0 0.97021,0 0,0.16162 0,0.32275 0,0.48486 -0.0557,0 -0.10595,0 -0.16211,0 -0.25244,0.16113 -0.64599,0.27246 -0.64599,0.64649 0.31299,0.17626 1.2373,1.61621 0.64599,1.61621 0,0.0557 0,0.11132 0,0.16162 -0.59082,-0.10596 -1.18164,-0.21241 -1.77783,-0.32276 -0.37353,0.76758 -0.16113,1.67676 -0.16113,2.58594 -0.54102,0 -1.07666,0 -1.61719,0 -0.0351,0.51074 0,1.08154 -0.20166,1.50537 -0.51025,1.0459 -2.04101,1.29883 -1.93017,-0.3789 0.0102,-0.2168 0.13671,-0.4795 -0.13135,-0.4795 0,-0.0557 0,-0.10595 0,-0.16211 -1.21729,0.37452 -0.646,1.5459 -0.646,2.58643 -0.62158,-0.14063 -1.09668,-0.16113 -1.77832,-0.16113 -0.56592,-0.45996 -2.42529,-0.0859 -2.42529,0.64648 0.77832,0.3584 0.64697,1.4043 0.64697,2.2627 -0.10596,0 -0.2124,0 -0.32275,0 -0.22266,-0.0654 -0.64746,-0.14649 -0.64746,0.16211 -0.11035,0.34326 -0.22217,0.69189 -0.33838,1.03515 -0.0708,0.13672 -1.65137,1.62696 -1.80322,1.65723 -0.30811,-0.0352 -0.6167,-0.0703 -0.9292,-0.10645 -0.17676,0.17237 -0.97071,0.7378 -0.97071,0.32325 -0.19092,-0.20118 -0.32275,-0.48438 -0.64599,-0.48438 -0.14649,0.61084 -0.61133,1.61621 -0.23243,2.24805 0.43946,0.73242 1.41944,0.42383 2.12647,0.63135 0.51074,0.30322 1.021,0.61084 1.53076,0.91455 1.05078,0.24218 2.10156,0.48437 3.14697,0.72754 0.69239,0.20117 1.32911,0.48974 2.15723,0.48974 0.39893,0 0.54102,0.34815 0.86914,0.48975 0.81787,0.21728 1.63672,0.43457 2.45459,0.65185 0.30859,0.21729 0.61621,0.43946 0.92481,0.65674 0.39892,0.0811 0.80322,0.16651 1.20214,0.24756 0.44971,0.15674 0.89893,0.31299 1.34913,0.46436 0.6665,0.11621 1.43408,0.0352 2,0.36425 0.38427,0.22217 0.41406,0.51514 0.41406,1.00489 0.21728,0 0.43506,0 0.64697,0 0.24756,-0.26758 0.53027,-0.38379 0.9292,-0.30811 0.57617,0.29785 1.15234,0.60107 1.72217,0.89893 0.26855,0.23779 0.54101,0.47509 0.80908,0.70752 0.67187,0.29834 1.54053,0.5913 2.24219,0.77783 0.44482,0.11621 1.0459,-0.0503 1.43506,0.20703 0.22705,0.15185 0.29834,0.50488 0.29834,0.78857 0.21679,0 0.43408,0 0.64599,0 0.23291,-0.29834 0.53565,-0.38916 0.95508,-0.35888 1.52588,0.10547 1.42432,1.23242 1.7832,2.39941 0.21241,0.70215 0.57617,1.2832 0.55078,2.15723 -0.0859,0.32812 -0.16699,0.66162 -0.25244,0.98974 -0.0762,0.59619 -0.0811,1.21729 -0.13183,1.77832 -0.0503,0.54053 0.17187,0.96973 -0.0303,1.51026 -0.0859,0.21728 -0.29297,0.46972 -0.51953,0.55078 -0.72803,0.2373 -1.3042,-0.26221 -2.01074,-0.15625 -0.66699,0.0957 -0.87402,0.87305 -1.62158,0.80273 -0.53076,-0.0557 -0.58106,-0.62109 -0.9751,-0.89404 -0.73779,-0.51025 -1.78809,-0.26758 -1.78809,-1.50537 -0.43017,-0.0557 -0.85937,-0.10645 -1.29345,-0.16162 -0.59131,0.96484 -0.32324,1.03564 -0.32324,2.10156 -0.10645,0 -0.21241,0 -0.32374,0 -1.29296,0.18213 -3.04101,0.5708 -4.04638,-0.3335 -0.29785,-0.33349 -0.59571,-0.66211 -0.89893,-0.99511 -0.60156,-0.37354 -1.20215,-0.74756 -1.80322,-1.12647 -0.52051,-0.54053 -0.43457,-1.37939 -1.021,-1.87939 -0.21191,-0.11621 -0.42382,-0.23242 -0.64111,-0.34864 -0.25732,-0.1665 -0.45459,-0.32812 -0.80273,-0.32812 0,0.10596 0,0.2168 0,0.32324 -0.53565,0.53028 -1.12207,0.64649 -1.94043,0.64649 -0.75782,-1.51026 -2.26319,-0.84864 -2.26319,-3.39453 -0.48437,0.1416 -0.96924,0.28808 -1.45459,0.42968 -0.55566,0 -0.9956,-0.42968 -1.61621,-0.42968 0.0249,0.84375 -0.29834,1.77783 -1.29346,1.77783 0,-0.0552 0,-0.10596 0,-0.16162 -0.0557,0 -0.10644,0 -0.16113,0 -0.0259,-0.67676 -0.29346,-1.93946 0.646,-1.93946 -0.1211,-0.46972 -0.34326,-1.29345 -0.96973,-1.29345 -0.83838,1.87939 -1.60644,0.22754 -2.73291,0.33349 -0.52539,0.0454 -0.77295,0.43457 -1.21728,0.56592 -0.81836,0.23242 -2.19287,-0.67187 -2.19287,-1.54541 -0.70704,0.18652 -1.11622,0.646 -1.93897,0.646 0,-0.0557 0,-0.10596 0,-0.16114 -0.0562,0 -0.10645,0 -0.16211,0 0.0606,-0.24267 0.45947,-1.13183 0.16211,-1.13183 0,-0.0562 0,-0.10596 0,-0.16211 -0.69287,0.13135 -1.26367,0.55615 -2.05127,0.32373 -0.29297,-0.0913 -0.37402,-0.48486 -0.69726,-0.48486 -0.43409,-0.14649 -0.77784,0.13623 -1.15235,0.19677 -0.42383,0.005 -0.84814,0.01 -1.27246,0.0156 -0.70215,0.0854 -1.4043,0.17138 -2.10644,0.25732 -0.21241,0.005 -0.31836,-0.0762 -0.31836,0.17676 -0.38379,0.40869 -0.80811,1.01514 -0.80811,1.6167 -0.86377,-0.2627 -0.98535,-0.16211 -1.93994,-0.16211 0.0254,0.44482 0.12646,0.95019 -0.0303,1.37402 -0.16211,0.42969 -0.62159,0.66699 -0.61133,1.20752 0.0103,0.67725 0.44433,1.2378 0.58154,1.84375 -0.0205,0.67725 -0.0405,1.35889 -0.0664,2.03565 0.0459,0.78808 0.50049,1.4248 0.57129,2.12207 -0.0962,0.42431 -0.18701,0.85351 -0.28271,1.27832 0.32324,-0.0562 0.64599,-0.10645 0.96924,-0.16211 0,0.3789 0,0.75781 0,1.13183 0.27343,0.0249 0.80859,-0.005 0.80859,0.32325 0.86377,1.09619 1.44971,1.93994 3.07129,1.93994 0.46973,-0.50537 0.67676,-1.59131 1.30322,-1.63135 0.23291,-0.0205 0.31348,-0.0562 0.31348,0.17627 0.63623,1.18701 1.61133,2.56592 1.66162,4.0415 -0.0703,0.4292 -0.13623,0.86377 -0.20703,1.29297 0.71191,0.0654 0.95459,0.37891 1.53027,0.62598 0.2627,0.0762 0.52588,0.15185 0.78369,0.22265 0.37354,0.18653 0.40381,0.92969 0.91895,0.92969 0.15137,-0.22265 0.32861,-0.48535 0.64648,-0.48535 0,0.0557 0,0.11133 0,0.16211 0.0562,0 0.11133,0 0.16211,0 0.0708,0.54004 0.1416,1.08105 0.20703,1.61621 -0.0654,0.42969 -0.12646,0.86426 -0.19189,1.29297 -0.0205,0.20264 -0.0708,0.16211 0.146,0.16211 0,0.0557 0,0.11084 0,0.16113 0.41943,-0.21142 0.69775,-0.57568 1.15722,-0.72168 1.28272,-0.41943 0.6211,2.08594 0.6211,2.66162 0.42919,0 0.86376,0 1.29345,0 0,0.37891 0,0.7583 0,1.13184 0.32276,0 0.64649,0 0.96973,0 0,0.23193 0.10596,0.64697 -0.16162,0.64697 0,0.0552 0,0.11133 0,0.16113 -0.48535,0.0557 -0.96973,0.11133 -1.45459,0.16163 -0.73291,-1.02051 -0.67725,-0.80811 -1.77783,-0.80811 0.0449,0.43457 0.25732,1.13184 0.80761,1.13184 -0.41894,3.22265 2.21289,1.75781 4.2085,1.72754 0.58545,-0.0103 0.79785,0.53564 1.28711,0.53564 0.29346,-0.37939 0.6167,-0.64697 1.13183,-0.64697 0.10645,0.3789 0.21729,0.75781 0.32325,1.13135 -1.41944,0.65185 0,2.05126 0,3.07177 -0.2168,0.0557 -0.4292,0.11084 -0.646,0.16162 0,0.26807 0,0.54053 0,0.80811 0.16162,0 0.32275,0 0.48438,0 0,-0.0552 0,-0.10596 0,-0.16113 0.32373,-0.19239 0.97021,-0.50049 0.97021,-0.97071 0.54053,0 1.08057,0 1.6167,0 -0.12647,0.97071 -0.59668,1.77832 -1.07129,2.56641 -0.12109,0.34863 -0.2373,0.70215 -0.35889,1.05078 -0.82812,1.30859 -2.86914,2.36475 -4.38916,2.36475 -0.4497,2.31787 -1.55127,0.64599 -2.74853,0.64599 0,0.32324 0,0.64698 0,0.97022 -0.16162,0 -0.32324,0 -0.48486,0 0,-0.0562 0,-0.10596 0,-0.16211 -0.0557,0 -0.10596,0 -0.16114,0 -0.15722,-0.81787 -1.13183,-1.75244 -1.13183,-2.26319 -0.84375,0.16211 -1.43994,0.55079 -2.18262,-0.0957 -0.13672,-0.12109 -0.28272,-0.29297 -0.24756,-0.49512 0.25293,-0.35839 0.50537,-0.7124 0.75293,-1.07128 0.2124,-1.2627 -1.22266,-0.43897 -1.71777,-0.43897 -0.18164,-0.49561 -0.36328,-0.98486 -0.5503,-1.47998 -0.25293,-1.10645 -0.19677,-2.19287 -0.86377,-3.08154 -1.08642,-1.44483 -2.02587,-0.28321 -2.93554,-1.2627 -0.60547,-0.65185 -0.30274,-1.87451 -0.85352,-2.59717 -0.26758,-0.34863 -1.10058,-0.49511 -1.10058,-0.9541 0.28759,-0.12109 0.64648,-0.24316 0.64648,-0.64697 -1.80371,-0.28272 -1.95557,-1 -2.90478,-2.30859 -0.85889,-1.18213 -1.78321,-0.61622 -1.78321,-2.70264 -0.59131,0.10644 -1.18213,0.21728 -1.77832,0.32324 0,-0.32324 0,-0.64648 0,-0.96973 -0.0552,-0.0103 -0.10596,-0.0205 -0.16162,-0.0303 -0.10107,-0.0205 -0.19726,-0.0405 -0.29834,-0.0659 -0.10547,-0.0405 -0.20703,-0.0806 -0.3125,-0.12646 -0.67187,-0.44434 -1.33887,-0.88867 -2.01074,-1.33301 -0.41895,-0.20215 -2.87451,-0.3335 -2.87451,0.26221 0.82861,0.39892 0.64648,1.72217 0.64648,2.58642 0.87891,1.10157 -0.44971,2.42481 -1.61621,2.42481 -0.31836,-0.83789 -1.29346,-0.70215 -1.29346,0.16211 0.40918,0.30761 0.81836,0.61621 1.22754,0.91894 0.22217,0.48047 -0.0151,0.95996 0.0156,1.49512 0.15136,0.85937 0.30273,1.71777 0.44873,2.57617 0.14209,0.45996 0.28369,0.91992 0.41992,1.3794 0.19678,0.36865 0.39404,0.74267 0.59033,1.11132 0.0713,0.39405 -0.0703,0.71241 -0.15088,1.07618 -0.0708,0.28271 -0.22265,0.81884 -0.61133,0.81884 0.14161,1.1211 0.50489,2.33838 0.95997,3.31836 0.11084,0.23731 1.30322,1.85401 1.30322,1.85401 0,0.81836 -0.73242,1.70215 -1.63184,1.20263 -0.50488,-0.2832 -0.57568,-1.04052 -1.27783,-1.04052 -0.0659,0.37353 -0.10107,0.92431 -0.39404,1.1914 0,0 -3.96582,0.90967 -4.13233,0.90967 0,-0.0557 0,-0.10596 0,-0.16211 -0.45996,-0.32812 -0.82324,-0.48486 -1.45459,-0.48486 0.12061,-1.99024 -0.23242,-3.97022 -0.76806,-5.78369 -0.23242,-0.78321 -0.72217,-1.41455 -0.76319,-2.30371 -0.0703,-1.35889 0.8794,-2.35938 0.74317,-3.69776 -0.12158,-0.33838 -0.24268,-0.67676 -0.36865,-1.02051 -0.167,-0.24755 -0.62159,-0.12646 -0.62159,-0.4497 -0.0557,0 -0.10644,0 -0.16211,0 0,-0.16162 0,-0.32325 0,-0.48438 0.34375,-0.26318 0.59668,-1.29345 0.97022,-1.29345 -0.14111,-0.32325 -0.48486,-0.60108 -0.48486,-0.97022 1.02001,-0.27246 1.63183,-1.03027 2.74804,-1.13135 0,-0.0557 0,-0.10595 0,-0.16162 0.0557,0 0.11084,0 0.16162,0 0,-0.16211 0,-0.32324 0,-0.48535 -0.60107,-0.31299 -0.84375,-0.48438 -1.6167,-0.48438 0.0254,-0.85888 0.39893,-1.87451 0.167,-2.708 -0.31348,-1.10645 -1.15723,-1.21192 -2.08594,-1.55567 -1.10156,-0.40966 -2.13721,-0.97998 -3.26367,-0.0811 -0.11084,0.22265 -0.22266,0.44433 -0.33301,0.66699 -0.27295,1.02051 0.29736,1.98535 -0.10156,2.97559 -0.27246,0.66162 -1.12159,0.97949 -1.62207,1.38916 -0.60059,0.47949 -1.00489,2.15673 -1.00489,3.03076 -0.64599,0 -1.29297,0 -1.93994,0 0.0508,0.31836 0.63184,2.58642 0.16211,2.58642 0,0.0557 0,0.11133 0,0.16163 -1.45996,-0.50489 -1.99072,-1.71778 -2.08105,-3.23829 -0.0156,-0.24218 0.0903,-0.47998 -0.18213,-0.47998 0,-0.0552 0,-0.10595 0,-0.16113 -1.41406,0.65186 -0.38916,2.33838 -0.32324,3.40967 -0.0557,0.58594 -0.10645,1.17676 -0.16211,1.76269 -0.16114,0 -0.32325,0 -0.48438,0 -0.14697,-0.15625 -0.80859,-0.73242 -0.80859,-0.32275 -0.0552,0 -0.10596,0 -0.16162,0 -0.10547,0.80811 -0.21192,1.61621 -0.32325,2.42432 -0.833,0 -2.58642,-0.0606 -2.39941,1.10156 0.0708,0.46973 0.45996,0.74219 0.45996,1.32324 -1.38916,-0.17676 -2.64746,-0.67139 -3.86963,-1.1665 -0.34375,-0.21241 -0.68213,-0.42432 -1.02539,-0.6416 -0.46484,-0.0659 -0.92969,-0.13135 -1.39941,-0.19727 -0.44483,-0.16162 -0.88916,-0.32324 -1.3335,-0.48975 -0.34863,-0.0811 -0.69726,-0.15673 -1.0459,-0.23779 -1.2373,-0.48975 -2.34863,-1.67676 -3.45508,-2.43457 -0.66162,-0.41455 -1.32373,-0.82861 -1.99072,-1.24268 -0.25732,-0.27294 -0.42871,-0.63183 -0.42871,-1.02587 0.96973,-1.07569 1.94434,-2.14698 2.91455,-3.22266 0.9292,-0.93506 2.02051,-1.59668 2.85889,-2.63184 0.16699,-0.33838 0.33838,-0.67187 0.50537,-1.01025 0.30273,-0.31836 0.60596,-0.63672 0.9043,-0.95996 0.15674,-0.2832 0.31787,-0.56055 0.47461,-0.84375 0.56054,-0.56055 1.12646,-1.11621 1.6875,-1.67676 0.36328,-0.23779 0.72705,-0.4751 1.08593,-0.71289 1.9043,-1.97461 3.50049,-4.22754 5.46045,-6.18262 0.6875,-0.69238 1.62647,-1.21728 2.37403,-1.8291 0.53564,-0.43945 1.07129,-0.87402 1.60693,-1.31347 0.39893,-0.38868 0.49512,-0.92432 1.01025,-1.20215 0.6919,-0.0811 1.38428,-0.15625 2.07129,-0.23731 0.16651,-0.56054 0.33301,-1.12109 0.49512,-1.68701 0.36865,-0.76807 1.10059,-1.14209 0.95459,-2.1626 -0.18164,-0.40381 -0.36426,-0.80322 -0.54541,-1.20703 -0.23291,-0.53076 -0.38428,-0.91406 -0.93994,-1.18213 -0.7832,-0.38379 -2.44971,0.11133 -2.90479,-0.48974 -0.22216,-0.29297 -1.42382,-1.95996 -1.42382,-1.67774 -0.92969,0.61719 -1.63721,0.97022 -2.91016,0.97022 0,-0.37842 0,-0.75244 0,-1.13135 -0.16162,0 -0.32373,0 -0.48486,0 -0.14698,0.31348 -0.38916,0.8081 -0.8086,0.8081 -0.63135,-0.79785 -1.38379,-0.96972 -2.42431,-0.96972 -0.0962,0.33301 -0.18702,0.8081 -0.64649,0.8081 0,-0.25781 0.12109,-0.8081 -0.16211,-0.8081 0,-0.0562 0,-0.10596 0,-0.16211 -0.45947,0.12158 -0.86865,0.4292 -1.39941,0.28857 -0.39356,-0.10644 -0.58057,-0.61133 -1.0249,-0.61133 -0.31348,0.42872 -1.05079,0.96973 -1.6167,0.96973 -0.0859,-0.52051 -0.38916,-1.39941 -1.10596,-0.9043 -0.21826,0.14161 -0.0259,0.82325 -0.0259,1.06641 -0.0557,0 -0.10596,0 -0.16113,0 0,0.0547 0,0.11035 0,0.16113 -1.15186,-0.04 -2.18262,-0.0659 -3.22315,-0.32324 -0.33838,-0.12158 -0.67187,-0.23779 -1.01025,-0.3584 -0.79834,-0.0562 -1.59131,-0.11133 -2.38965,-0.17187 -0.55029,-0.0713 -0.96973,-0.60156 -1.45947,-0.60156 -0.25781,0.48486 -0.68213,1.11132 -1.34912,0.87402 -0.22266,-0.0811 -0.30811,-0.22705 -0.59131,-0.22705 -0.61084,0.84814 -1.99463,0.96972 -3.07129,0.96972 -0.36865,1.02051 -0.9043,0.4292 -1.6416,0.34864 -0.34864,-0.0405 -1.42969,0.27783 -1.42969,-0.18701 -0.3335,-0.38379 -0.54541,-0.64649 -1.13135,-0.64649 -0.0703,-0.48486 -0.1416,-0.96973 -0.21728,-1.45996 0.0708,-0.37402 0.14697,-0.74756 0.21728,-1.12646 -0.61084,-0.54053 -0.64648,-0.94971 -0.64648,-1.77784 -0.49512,-0.53076 -0.43994,-1.208 -0.53028,-1.93505 -0.061,-0.44971 -0.32861,-1.13184 -0.005,-1.53614 0.24805,-0.31787 0.62647,-0.35351 1.00537,-0.44922 0.59082,-0.0249 1.18165,-0.0454 1.77295,-0.0708 1.15674,-0.18164 2.35401,-0.53564 3.57666,-0.53564 0.88868,-0.33838 6.40528,-0.77295 7.12256,-0.34815 0.18213,0.10596 0.4751,0.0703 0.4751,0.34815 0.94434,-0.12647 6.62793,-0.51514 6.62793,0.64697 0.16064,0 0.32275,0 0.48437,0 0.93458,-1.31836 1.30811,0 2.26319,0 0.75244,-1.1875 1.82373,-0.84375 3.04101,-1.22266 0.17676,-0.0605 0.1919,-0.005 0.1919,-0.23242 0.0557,0 0.11133,0 0.16162,0 -0.17188,-0.57617 -0.63672,-0.96972 -0.81787,-1.51562 -0.0508,-0.50977 -0.10108,-1.01514 -0.15186,-1.52539 -0.3789,-0.72754 -0.75244,-1.45508 -1.13134,-2.18262 -0.94483,-1.29785 -5.01172,-5.51074 -5.01172,-6.73828 0.2124,-0.13184 0.4248,-0.48535 0.64697,-0.48535 -0.0557,-0.26758 -0.10596,-0.53516 -0.16162,-0.80811 -0.16162,0 -0.32324,0 -0.48535,0 -0.12061,0.2832 -0.24756,0.64649 -0.64649,0.64649 -0.47998,-0.81788 -1.14697,-1.45996 -1.52051,-2.31348 -0.24707,-0.87402 -0.49462,-1.74805 -0.74218,-2.62647 -0.36866,-0.81347 -1.26319,-1.09179 -1.42969,-2.02099 -0.0352,-0.18701 0.0151,-0.15186 -0.18701,-0.15186 0,-0.0552 0,-0.10595 0,-0.16162 -0.32324,0.0557 -0.64649,0.11182 -0.96973,0.16162 0,-0.0552 0,-0.10595 0,-0.16162 -0.0557,0 -0.10596,0 -0.16162,0 0,-0.16162 0,-0.32275 0,-0.48486 1.7124,-1.09082 3.27344,-2.05567 5.15771,-2.7832 0.61084,-0.24268 1.0503,-0.61133 1.79297,-0.61133 0.39942,-0.26807 2.31397,-1.29297 2.74805,-1.29297 0,0.0552 0,0.11035 0,0.16113 0.0557,0 0.11133,0 0.16162,0 0,0.26758 -0.12109,0.96973 0.16211,0.96973 0,0.0562 0,0.11133 0,0.16211 0.16162,0 0.32275,0 0.48438,0 0.0913,-0.59571 0.16211,-1.12207 0.16211,-1.77832 0.0557,0 0.11084,0 0.16113,0 0,-0.0557 0,-0.10645 0,-0.16162 0.56152,-0.0908 1.08105,-0.48487 1.61719,-0.48487 0.0552,0.37891 0.11035,0.75782 0.16113,1.13184 0.16162,0 0.32324,0 0.48486,0 0.55615,-2.10156 5.17285,-3.81445 5.17285,-0.48535 -0.77246,-0.26758 -1.34863,-0.80811 -2.26318,-0.80811 -0.0552,0.81299 -0.0605,1.61621 -0.15674,2.4043 -0.16113,0.45019 -0.32324,0.9043 -0.48437,1.354 -0.1167,0.47998 0.13672,0.84864 0.21191,1.26807 0.0405,0.34863 0.0859,0.69726 0.12647,1.04053 0.24755,0.67724 1.63671,0.78808 2.27294,0.81347 0.80811,0.0249 0.39942,-1.22265 1.10157,-1.22265 0.32324,1.63183 1.93945,0.66162 1.93945,2.74804 -0.16113,0 -0.32324,0 -0.48486,0 -0.55567,-0.40918 -1.3794,-0.04 -1.22266,0.74268 0.24805,1.24267 1.86963,1.68213 3.00098,1.68213 0.16162,-0.0557 0.32275,-0.10596 0.48486,-0.16113 0,0.42871 0,0.86328 0,1.29296 -0.25781,0 -0.8081,-0.11621 -0.8081,0.16163 -0.46973,0.60107 -1.24756,2.26318 0.04,2.56591 0.60108,0.1416 1.10645,-0.31836 1.67725,-0.0303 0.74805,0.37402 1.83887,2.56103 1.83887,3.44531 -0.48535,-0.0557 -0.96973,-0.10644 -1.45508,-0.16211 0.11621,0.92481 -0.16162,1.46045 -0.16162,2.4253 0.16162,0 0.32373,0 0.48486,0 0.16699,-0.31299 1.61719,-1.38428 1.61719,-0.64698 0.0547,0.37891 0.11035,0.7583 0.16113,1.13184 0.32324,0 0.64649,0 0.97022,0 0.11621,-0.52539 0.3081,-1.13184 0.96972,-1.13184 0.28809,2.97559 3.15186,1.85938 3.6875,3.61231 0.01,0.57519 0.0205,1.15185 0.0308,1.72265 0.2168,0 0.4336,0 0.646,0 0.26807,-0.31347 0.52539,-0.48486 0.97022,-0.48486 -0.0757,-0.91455 -0.15186,-1.8291 -0.22705,-2.74365 0.0449,-0.93945 0.54003,-1.62598 0.76806,-2.45996 0.10547,-0.48535 0.21143,-0.96973 0.31738,-1.45508 0.13135,-0.22217 0.49512,-0.29297 0.75782,-0.29297 0.0156,-0.29297 0.0205,-1.40381 0.13134,-1.55566 0.25245,-0.36866 0.76319,-0.10059 0.9751,-0.53516 0.20703,-0.43945 -0.13623,-0.88428 -0.13623,-1.30322 0.51514,-0.16211 1.13135,-0.4751 1.13135,-1.13184 -0.42969,0 -0.85889,0 -1.29297,0 0,-0.26758 0,-0.53564 0,-0.8081 0.62647,-0.19727 0.87402,-0.56104 1.11133,-1.14161 0.29736,-0.74316 -0.13623,-1.54589 0.0303,-2.25293 0.12647,-0.38427 0.25244,-0.76318 0.37891,-1.14697 0.0205,-0.47021 0.0449,-0.93408 0.0659,-1.40478 0.23144,-1.06055 0.83838,-2.08594 0.83838,-3.26807 0.42919,-0.0557 0.86376,-0.10596 1.29296,-0.16162 0.0508,-1.65674 0.91455,-2.18213 1.14698,-3.58203 0.20654,-1.29248 -0.93994,-1.41895 -0.0357,-2.7832 0.11621,-0.18653 0.2627,-0.2627 0.50488,-0.2627 0.0962,0.50049 0.32862,1.13184 0.97022,1.13184 0.44922,-0.64649 0.48486,-1.03077 0.48486,-1.93995 -1.86914,-0.23779 -1.45508,-0.62646 -1.45508,-2.26318 0.27295,-0.20215 0.42432,-0.96973 0.64698,-0.96973 0,-0.0557 0,-0.10644 0,-0.16211 0.53564,0 2.90918,0.14161 2.90918,0 0.0562,0 0.11181,0 0.16211,0 0,-0.0552 0,-0.10546 0,-0.16113 z"
         style="fill:#ffffff;fill-opacity:1;fill-rule:nonzero;stroke:none"
         id="path4147"
         inkscape:connector-curvature="0" /><path
         d="m 215.62158,-733.14746 c 0.0552,0.16162 0.11035,0.32324 0.16113,0.48535 -0.21679,-0.0562 -0.42968,-0.10644 -0.64648,-0.16211 0.16211,-0.10644 0.32324,-0.2124 0.48535,-0.32324 z"
         style="fill:#ffffff;fill-opacity:1;fill-rule:nonzero;stroke:none"
         id="path4149"
         inkscape:connector-curvature="0" /><path
         d="m 179.41162,-725.87305 c 0.43457,0.38379 0.97022,1.1416 0.97022,1.77784 -0.21729,0 -0.42969,0 -0.64698,0 -0.28759,-0.5503 -0.65185,-1.13135 -0.32324,-1.77784 z"
         style="fill:#ffffff;fill-opacity:1;fill-rule:nonzero;stroke:none"
         id="path4151"
         inkscape:connector-curvature="0" /><path
         d="m 215.62158,-725.38867 c 0.0654,0.19726 0.13086,0.48535 -0.16211,0.48535 0,-0.22754 -0.10644,-0.32324 0.16211,-0.32324 0,-0.0557 0,-0.10596 0,-0.16211 z"
         style="fill:#ffffff;fill-opacity:1;fill-rule:nonzero;stroke:none"
         id="path4153"
         inkscape:connector-curvature="0" /><path
         d="m 212.22705,-721.66992 c 0.11035,0.15137 0.30762,0.48437 0,0.48437 0,0.0562 0,0.11133 0,0.16162 -0.10644,0 -0.2124,0 -0.32373,0 0.0557,-0.22705 0.0356,-0.48486 0.32373,-0.48486 0,-0.0557 0,-0.10547 0,-0.16113 z"
         style="fill:#ffffff;fill-opacity:1;fill-rule:nonzero;stroke:none"
         id="path4155"
         inkscape:connector-curvature="0" /><path
         d="m 214.49023,-721.66992 c 0.0703,0.17627 0.13623,0.48437 -0.1621,0.48437 0,-0.22754 -0.10645,-0.32324 0.1621,-0.32324 0,-0.0557 0,-0.10547 0,-0.16113 z"
         style="fill:#ffffff;fill-opacity:1;fill-rule:nonzero;stroke:none"
         id="path4157"
         inkscape:connector-curvature="0" /><path
         d="m 209.80225,-720.21533 c 0.1914,0.17676 0.32275,0.35888 0.32275,0.64648 -0.22705,0 -0.32275,0.10108 -0.32275,-0.16162 -0.10645,0 -0.21241,0 -0.32373,0 0.0811,-0.18701 0.0762,-0.32324 0.32373,-0.32324 0,-0.0557 0,-0.10645 0,-0.16162 z"
         style="fill:#ffffff;fill-opacity:1;fill-rule:nonzero;stroke:none"
         id="path4159"
         inkscape:connector-curvature="0" /><path
         d="m 213.3584,-719.56885 c 0.25244,0.1416 0.48486,0.28809 0.48486,0.64697 -0.28857,0.11084 -0.4751,0.32325 -0.8081,0.32325 0,-0.10645 0,-0.21241 0,-0.32325 0.0552,0 0.11084,0 0.16113,0 0.0557,-0.21777 0.11133,-0.42968 0.16211,-0.64697 z"
         style="fill:#ffffff;fill-opacity:1;fill-rule:nonzero;stroke:none"
         id="path4161"
         inkscape:connector-curvature="0" /><path
         d="m 208.83154,-713.91113 c 0.38428,0.12109 0.97071,0.29297 0.97071,0.80859 -0.0562,0 -0.10645,0 -0.16162,0 -0.56104,-0.11621 -0.93506,0.32324 -1.45508,0.32324 0,-0.16211 0,-0.32324 0,-0.48535 0.21679,-0.2168 0.43457,-0.4292 0.64599,-0.64648 z"
         style="fill:#ffffff;fill-opacity:1;fill-rule:nonzero;stroke:none"
         id="path4163"
         inkscape:connector-curvature="0" /><path
         d="m 206.24512,-711.48633 c 0.25342,0.1416 0.48535,0.28809 0.48535,0.64649 -0.10596,0 -0.2124,0 -0.32324,0 -0.0557,-0.2168 -0.10596,-0.4292 -0.16211,-0.64649 z"
         style="fill:#ffffff;fill-opacity:1;fill-rule:nonzero;stroke:none"
         id="path4165"
         inkscape:connector-curvature="0" /><path
         d="m 209.15527,-710.83984 c 0.27295,0.0757 0.52051,0.32373 0.80811,0.32373 0.11133,0.11572 0.16162,0.1206 0.16162,0.32275 -0.22705,0 -0.48437,0.10645 -0.48437,-0.16162 -0.23243,-0.13574 -0.35401,-0.26709 -0.48536,-0.48486 z"
         style="fill:#ffffff;fill-opacity:1;fill-rule:nonzero;stroke:none"
         id="path4167"
         inkscape:connector-curvature="0" /><path
         d="m 208.50879,-710.35498 c 0.29297,0.3335 0.32275,0.95996 0.32275,1.45508 -0.0552,0 -0.10595,0 -0.16113,0 -0.0557,-0.48487 -0.10596,-0.97022 -0.16162,-1.45508 z"
         style="fill:#ffffff;fill-opacity:1;fill-rule:nonzero;stroke:none"
         id="path4169"
         inkscape:connector-curvature="0" /><path
         d="m 207.53857,-709.06152 c 0.20704,0.0557 0.48487,0.0605 0.48487,0.32324 0.0557,0 0.11181,0 0.16211,0 0,0.0557 0,0.11133 0,0.16211 -0.21729,0 -0.4292,0 -0.64698,0 0,-0.16211 0,-0.32373 0,-0.48535 z"
         style="fill:#ffffff;fill-opacity:1;fill-rule:nonzero;stroke:none"
         id="path4171"
         inkscape:connector-curvature="0" /><path
         d="m 205.4375,-707.93018 c 0.14111,0.13184 0.46436,0.48536 0.16162,0.48536 0,0.0552 0,0.11132 0,0.16162 -0.0557,0 -0.10644,0 -0.16162,0 0,-0.21778 0,-0.42969 0,-0.64698 z"
         style="fill:#ffffff;fill-opacity:1;fill-rule:nonzero;stroke:none"
         id="path4173"
         inkscape:connector-curvature="0" /><path
         d="m 230.16992,-705.18164 c 0.0557,0 0.11084,0 0.16162,0 0.0757,0.32324 0.22168,0.71191 0.15186,1.09082 -0.041,0.20215 -0.47559,1.07617 -0.47559,0.68701 -0.21191,-0.22705 -0.60107,-1.29297 -0.32324,-1.29297 0.16211,-0.16162 0.32324,-0.32324 0.48535,-0.48486 z"
         style="fill:#ffffff;fill-opacity:1;fill-rule:nonzero;stroke:none"
         id="path4175"
         inkscape:connector-curvature="0" /><path
         d="m 207.53857,-685.78418 c 0.3794,0.10645 0.75831,0.21777 1.13184,0.32422 0,0.16113 0,0.32275 0,0.48486 -0.354,0.12647 -0.54053,0.32276 -0.97021,0.32276 -0.0552,-0.37891 -0.10547,-0.75293 -0.16163,-1.13184 z"
         style="fill:#ffffff;fill-opacity:1;fill-rule:nonzero;stroke:none"
         id="path4177"
         inkscape:connector-curvature="0" /><path
         d="m 207.53857,-681.74219 c 0.28809,0.16162 0.64698,0.41406 0.64698,0.80811 -0.10645,0 -0.21241,0 -0.32373,0 0,0.0552 0,0.11133 0,0.16162 -0.10547,0 -0.21192,0 -0.32325,0 0,-0.32324 0,-0.64649 0,-0.96973 z"
         style="fill:#ffffff;fill-opacity:1;fill-rule:nonzero;stroke:none"
         id="path4179"
         inkscape:connector-curvature="0" /><path
         d="m 210.44873,-681.41895 c 0.1919,0.18165 0.32324,0.36377 0.32324,0.64649 -0.10644,0 -0.2124,0 -0.32324,0 0,-0.2168 0,-0.4292 0,-0.64649 z"
         style="fill:#ffffff;fill-opacity:1;fill-rule:nonzero;stroke:none"
         id="path4181"
         inkscape:connector-curvature="0" /><path
         d="m 245.0415,-679.31738 c 0.20752,0.0703 0.27246,0.48486 0,0.48486 0,-0.16162 0,-0.32275 0,-0.48486 z"
         style="fill:#ffffff;fill-opacity:1;fill-rule:nonzero;stroke:none"
         id="path4183"
         inkscape:connector-curvature="0" /><path
         d="m 245.0415,-678.6709 c 0.28321,0.15137 0.85889,0.8086 1.13184,0.8086 0,0.0547 0,0.11084 0,0.16113 -0.0557,0 -0.10645,0 -0.16211,0 0,0.0557 0,0.11133 0,0.16211 -0.3125,-0.12647 -1.45508,-0.33887 -1.45508,-0.64698 0.22266,-0.13623 0.33399,-0.27294 0.48535,-0.48486 z"
         style="fill:#ffffff;fill-opacity:1;fill-rule:nonzero;stroke:none"
         id="path4185"
         inkscape:connector-curvature="0" /><path
         d="m 209.80225,-677.37793 c 0.25732,0.29785 0.32275,0.70215 0.32275,1.13184 -0.21729,0 -0.4292,0 -0.64648,0 0,-0.10645 0,-0.21241 0,-0.32325 0.0557,0 0.11132,0 0.16211,0 0.0552,-0.26806 0.11083,-0.53515 0.16162,-0.80859 z"
         style="fill:#ffffff;fill-opacity:1;fill-rule:nonzero;stroke:none"
         id="path4187"
         inkscape:connector-curvature="0" /><path
         d="m 214.97412,-674.95313 c 0.15674,0.12647 0.7334,0.8086 0.32422,0.8086 0,0.0557 0,0.11084 0,0.16162 -0.10645,0 -0.2124,0 -0.32422,0 0,-0.32324 0,-0.64648 0,-0.97022 z"
         style="fill:#ffffff;fill-opacity:1;fill-rule:nonzero;stroke:none"
         id="path4189"
         inkscape:connector-curvature="0" /><path
         d="m 219.17773,-673.1748 c 0.32325,0 0.646,0 0.96973,0 -0.0557,0.3789 -0.10596,0.75781 -0.16162,1.13183 0.24707,0.31787 0.31299,1.29297 -0.32275,1.29297 -0.0308,-0.95996 -0.16211,-1.64697 -0.48536,-2.4248 z"
         style="fill:#ffffff;fill-opacity:1;fill-rule:nonzero;stroke:none"
         id="path4191"
         inkscape:connector-curvature="0" /><path
         d="m 217.72266,-672.04297 c 0.48974,0.76758 -0.35303,0.96924 -0.96973,0.96924 0,-0.0552 0,-0.10547 0,-0.16162 0.42871,-0.20166 0.63623,-0.45899 0.96973,-0.80762 z"
         style="fill:#ffffff;fill-opacity:1;fill-rule:nonzero;stroke:none"
         id="path4193"
         inkscape:connector-curvature="0" /><path
         d="m 199.45654,-665.41553 c 0.76221,0.48487 0.32325,1.20215 0.32325,1.93994 -0.10645,0 -0.21241,0 -0.32325,0 0.0352,-0.61621 -0.10107,-1.35888 0,-1.93994 z"
         style="fill:#ffffff;fill-opacity:1;fill-rule:nonzero;stroke:none"
         id="path4195"
         inkscape:connector-curvature="0" /><path
         d="m 223.54199,-662.8291 c 0.16211,0 0.32324,0 0.48535,0 -0.16211,0 -0.32324,0 -0.48535,0 z"
         style="fill:#ffffff;fill-opacity:1;fill-rule:nonzero;stroke:none"
         id="path4197"
         inkscape:connector-curvature="0" /><path
         d="m 230.16992,-658.1416 c 0.25244,0.041 0.64649,0.0156 0.64649,0.32422 -0.0557,0 -0.10645,0 -0.16162,0 -0.16163,-0.10645 -0.32325,-0.21289 -0.48487,-0.32422 z"
         style="fill:#ffffff;fill-opacity:1;fill-rule:nonzero;stroke:none"
         id="path4199"
         inkscape:connector-curvature="0" /><path
         d="m 230.65479,-656.52441 c 0.16162,0 0.32324,0 0.48486,0 -0.16162,0 -0.32324,0 -0.48486,0 z"
         style="fill:#ffffff;fill-opacity:1;fill-rule:nonzero;stroke:none"
         id="path4201"
         inkscape:connector-curvature="0" /></g></g></svg>