<?xml version="1.0" encoding="UTF-8" standalone="no"?>
<!-- Created with Inkscape (http://www.inkscape.org/) -->

<svg
   xmlns:dc="http://purl.org/dc/elements/1.1/"
   xmlns:cc="http://creativecommons.org/ns#"
   xmlns:rdf="http://www.w3.org/1999/02/22-rdf-syntax-ns#"
   xmlns:svg="http://www.w3.org/2000/svg"
   xmlns="http://www.w3.org/2000/svg"
   xmlns:sodipodi="http://sodipodi.sourceforge.net/DTD/sodipodi-0.dtd"
   xmlns:inkscape="http://www.inkscape.org/namespaces/inkscape"
   id="svg4203"
   version="1.1"
   inkscape:version="0.48.4 r9939"
   width="1750"
   height="500"
   xml:space="preserve"
   sodipodi:docname="logo-RA-blanc-fond-fonce-ai.svg"><metadata
     id="metadata4209"><rdf:RDF><cc:Work
         rdf:about=""><dc:format>image/svg+xml</dc:format><dc:type
           rdf:resource="http://purl.org/dc/dcmitype/StillImage" /><dc:title /></cc:Work></rdf:RDF></metadata><defs
     id="defs4207"><clipPath
       clipPathUnits="userSpaceOnUse"
       id="clipPath4219"><path
         d="m 0,595.28 841.89,0 L 841.89,0 0,0 0,595.28 z"
         id="path4221"
         inkscape:connector-curvature="0" /></clipPath></defs><sodipodi:namedview
     pagecolor="#ffffff"
     bordercolor="#666666"
     borderopacity="1"
     objecttolerance="10"
     gridtolerance="10"
     guidetolerance="10"
     inkscape:pageopacity="0"
     inkscape:pageshadow="2"
     inkscape:window-width="1316"
     inkscape:window-height="480"
     id="namedview4205"
     showgrid="false"
     inkscape:zoom="0.31716168"
     inkscape:cx="526.18127"
     inkscape:cy="280.00057"
     inkscape:window-x="0"
     inkscape:window-y="24"
     inkscape:window-maximized="0"
     inkscape:current-layer="g4211" /><g
     id="g4211"
     inkscape:groupmode="layer"
     inkscape:label="logo-RA-blanc-fond-fonce-ai"
     transform="matrix(1.25,0,0,-1.25,0,500.00002)"><path
       d="m 627.1178,155.35469 23.89734,0 0,141.07259 -23.89734,0 0,-141.07259 z"
       style="fill:#ffffff;fill-opacity:1;fill-rule:nonzero;stroke:none"
       id="path4213"
       inkscape:connector-curvature="0" /><g
       id="g4215"
       transform="matrix(2.1562158,0,0,2.1562158,-219.54838,-439.93984)"><g
         id="g4217"
         clip-path="url(#clipPath4219)"><g
           id="g4223"
           transform="translate(513.1484,285.4756)"><path
             d="m 0,0 -2.582,-7.842 c 7.003,-2.697 14.188,-3.215 20.337,-2.176 l 2.548,8.36 C 14.392,-4.023 2.481,-2.066 0,0"
             style="fill:#ffffff;fill-opacity:1;fill-rule:nonzero;stroke:none"
             id="path4225"
             inkscape:connector-curvature="0" /></g><g
           id="g4227"
           transform="translate(528.4736,319.9033)"><path
             d="m 0,0 c -7.705,0 -16.661,-3.381 -16.661,-12.955 0,-7.369 6.227,-10.127 11.673,-12.15 4.16,-1.528 9.578,-2.094 12.006,-4.151 l 2.697,8.828 c -1.838,0.807 -3.738,1.422 -5.444,1.955 -3.957,1.202 -10.671,2.52 -10.671,6.268 0,3.976 2.127,5.455 6.865,5.455 3.547,0 9.439,-1.82 12.377,-3.268 l 2.218,7.368 c -1.367,0.423 -3.039,0.959 -3.039,0.959 C 9.088,-0.904 5.794,0 0,0"
             style="fill:#ffffff;fill-opacity:1;fill-rule:nonzero;stroke:none"
             id="path4229"
             inkscape:connector-curvature="0" /></g><g
           id="g4231"
           transform="translate(494.6572,301.126)"><path
             d="m 0,0 -19.076,0 0.06,0.518 c 0.586,7.14 4.297,11.832 10.055,11.832 6.996,0 8.633,-6.153 8.961,-11.832 L 0,0 z m -9.859,18.621 c -12.075,0 -19.873,-8.898 -19.873,-22.674 0,-14.148 8.157,-22.281 22.409,-22.281 5.776,0 10.436,1.074 14.629,3.357 l 0.928,8.26 c -3.658,-1.988 -8.453,-4.129 -14.097,-4.129 -7.455,0 -12.662,4.381 -13.153,11.432 l -0.041,0.476 29.568,0 C 10.403,10.496 3.937,18.621 -9.859,18.621"
             style="fill:#ffffff;fill-opacity:1;fill-rule:nonzero;stroke:none"
             id="path4233"
             inkscape:connector-curvature="0" /></g><g
           id="g4235"
           transform="translate(435.7666,283.2764)"><path
             d="m 0,0 c -7.492,0 -10.141,7.816 -10.141,14.516 0,6.861 3.248,14.017 10.303,14.017 7.047,0 9.557,-7.14 9.557,-14.017 C 9.719,7.49 7.166,0 0,0 m 3.959,36.871 c -5.996,0 -11.251,-2.34 -14.03,-6.994 l -0.114,-0.215 -0.05,0 0,6.211 -10.987,0 0,-60.758 11.466,0 0,22.844 0.815,0 0.141,-0.117 c 4.239,-5.19 8.497,-5.905 12.474,-5.905 16.418,0 17.709,15.815 17.709,22.598 0,6.725 -1.268,22.336 -17.424,22.336"
             style="fill:#ffffff;fill-opacity:1;fill-rule:nonzero;stroke:none"
             id="path4237"
             inkscape:connector-curvature="0" /></g><g
           id="g4239"
           transform="translate(313.0186,297.0674)"><path
             d="m 0,0 c 0,-12.482 7.42,-22.049 20.023,-22.215 l 2.267,6.602 C 14.726,-15.02 11.34,-10 10.862,-3.705 l -0.03,0.457 14.934,0 2.204,7.303 -16.999,0 0.027,0.47 c 0.533,6.223 4.16,11.76 11.572,11.76 2.144,0 5.575,-1.31 7.898,-3.748 l 2.085,6.66 c -3.059,2.162 -7.73,3.477 -12.674,3.477 C 7.83,22.674 0,13.787 0,0"
             style="fill:#ffffff;fill-opacity:1;fill-rule:nonzero;stroke:none"
             id="path4241"
             inkscape:connector-curvature="0" /></g><g
           id="g4243"
           transform="translate(187.4189,319.9111)"><path
             d="m 0,0 c -5.596,0 -11.293,-2.484 -14.207,-6.793 l -0.133,-0.18 -0.01,0 0,28.524 -10.945,0 0,-65.489 10.945,0 0,20.997 c 0,7.222 2.749,15.281 10.427,15.281 7.827,0 6.954,-8.153 6.954,-13.317 l 0,-22.961 10.844,0 0,27.186 C 13.875,-6.105 9.188,0 0,0"
             style="fill:#ffffff;fill-opacity:1;fill-rule:nonzero;stroke:none"
             id="path4245"
             inkscape:connector-curvature="0" /></g><g
           id="g4247"
           transform="translate(135.8154,304.7236)"><path
             d="m 0,0 c 8.252,0.426 14.145,8.881 14.145,15.549 0,14.748 -12.369,18.342 -24.454,17.051 l -2.427,-8.059 c 5.861,1.246 15.422,1.65 15.422,-9.434 0,-6.234 -2.229,-10.628 -8.572,-10.628 l -4.65,0 0.934,4.957 -7.697,0 -11.531,-38.206 12.064,0 4.719,25.118 4.285,0 c 5.893,0 6.531,-3.274 8.348,-8.172 l 5.437,-16.926 12.774,0 -8.363,21.559 C 7.535,-0.537 2.93,-0.039 0,0"
             style="fill:#ffffff;fill-opacity:1;fill-rule:nonzero;stroke:none"
             id="path4249"
             inkscape:connector-curvature="0" /></g><g
           id="g4251"
           transform="translate(289.7021,319.9951)"><path
             d="m 0,0 c -6.271,0 -11.51,-2.168 -14.806,-6.785 l -0.133,-0.18 0,5.957 -10.51,0 0,-42.898 11.109,0 0,20.978 c 0,7.215 2.736,15.24 10.434,15.24 7.829,0 6.929,-8.115 6.929,-13.296 l 0,-22.922 11.032,0 0,27.168 C 14.055,-6.1 9.186,0 0,0"
             style="fill:#ffffff;fill-opacity:1;fill-rule:nonzero;stroke:none"
             id="path4253"
             inkscape:connector-curvature="0" /></g><g
           id="g4255"
           transform="translate(355.4277,341.4502)"><path
             d="m 0,0 -2.938,-9.869 11.443,-30.473 -14.363,0 -2.163,-7.285 19.265,0 6.71,-17.832 12.695,0 L 4.897,0 0,0 z"
             style="fill:#ffffff;fill-opacity:1;fill-rule:nonzero;stroke:none"
             id="path4257"
             inkscape:connector-curvature="0" /></g><g
           id="g4259"
           transform="translate(417.8018,338.8936)"><path
             d="m 0,0 0.902,0 c 1.543,0 3.184,-0.143 3.184,-1.887 0,-1.81 -1.589,-2.058 -3.184,-2.058 L 0,-3.945 0,0 z m 0,-6.572 0.893,0 c 1.255,0 1.632,-0.395 2.053,-1.522 l 1.875,-4.888 3.667,0 -2.518,6.173 c -0.302,0.62 -0.745,1.373 -1.485,1.575 1.811,0.369 3.033,1.754 3.033,3.593 0,1.287 -0.341,2.237 -1.036,2.926 -1.364,1.35 -3.872,1.35 -6.098,1.35 l -3.673,0 0,-15.617 3.289,0 0,6.41 z"
             style="fill:#ffffff;fill-opacity:1;fill-rule:nonzero;stroke:none"
             id="path4261"
             inkscape:connector-curvature="0" /></g><g
           id="g4263"
           transform="translate(436.9268,335.3955)"><path
             d="m 0,0 c 1.804,0 2.229,-1.51 2.294,-2.455 l -4.794,0 C -2.321,-0.924 -1.434,0 0,0 m 0.488,-9.742 c 1.557,0 2.805,0.301 3.962,0.914 l 0.038,0.051 0,2.617 -0.133,-0.082 C 3.402,-6.771 2.123,-7.393 0.619,-7.393 c -1.808,0 -2.94,1.008 -3.119,2.692 l 7.842,0 0,0.092 c 0,4.763 -1.742,6.966 -5.51,6.966 -3.292,0 -5.389,-2.394 -5.389,-6.099 0,-3.83 2.203,-6 6.045,-6"
             style="fill:#ffffff;fill-opacity:1;fill-rule:nonzero;stroke:none"
             id="path4265"
             inkscape:connector-curvature="0" /></g><g
           id="g4267"
           transform="translate(440.2695,342.251)"><path
             d="m 0,0 -0.235,0 -3.094,0 -1.936,-3.396 2.047,0 L 0,0 z"
             style="fill:#ffffff;fill-opacity:1;fill-rule:nonzero;stroke:none"
             id="path4269"
             inkscape:connector-curvature="0" /></g><g
           id="g4271"
           transform="translate(453.4561,328.4189)"><path
             d="m 0,0 c -1.581,0 -2.432,1.715 -2.432,3.354 0,0.794 0.17,3.486 2.547,3.486 C 1.602,6.84 2.504,5.564 2.504,3.4 2.504,2.393 2.246,0 0,0 m 2.625,7.646 c -0.768,1.151 -1.869,1.688 -3.434,1.688 -3.353,0 -4.929,-3.094 -4.929,-5.98 0,-3.676 1.789,-5.862 4.755,-5.862 1.638,0 2.895,0.83 3.487,1.674 -0.048,-2.104 -0.365,-4.068 -3.342,-4.068 -0.9,0 -2.365,0.494 -3.258,0.97 l -0.144,0.077 -0.26,-2.741 0.084,-0.021 c 1.24,-0.529 2.538,-0.793 3.967,-0.793 4.045,0 6.109,2.076 6.109,6.109 l 0,10.367 -3.035,0 0,-1.42 z"
             style="fill:#ffffff;fill-opacity:1;fill-rule:nonzero;stroke:none"
             id="path4273"
             inkscape:connector-curvature="0" /></g><g
           id="g4275"
           transform="translate(469.2725,342.3916)"><path
             d="m 0,0 -0.105,0 -3.059,0 0,-3.027 3.164,0 L 0,0 z"
             style="fill:#ffffff;fill-opacity:1;fill-rule:nonzero;stroke:none"
             id="path4277"
             inkscape:connector-curvature="0" /></g><g
           id="g4279"
           transform="translate(469.2725,337.4912)"><path
             d="m 0,0 -0.105,0 -3.059,0 0,-11.58 3.164,0 L 0,0 z"
             style="fill:#ffffff;fill-opacity:1;fill-rule:nonzero;stroke:none"
             id="path4281"
             inkscape:connector-curvature="0" /></g><g
           id="g4283"
           transform="translate(481.5713,335.2705)"><path
             d="m 0,0 c 1.922,0 2.789,-1.658 2.789,-3.295 0,-1.416 -0.363,-3.822 -2.789,-3.822 -2.4,0 -2.735,2.406 -2.735,3.822 C -2.735,-1.701 -1.875,0 0,0 m 0,-9.617 c 3.654,0 6.07,2.394 6.07,5.984 0,3.656 -2.416,6.121 -6.07,6.121 -3.602,0 -6.045,-2.465 -6.045,-6.121 0,-3.59 2.443,-5.984 6.045,-5.984"
             style="fill:#ffffff;fill-opacity:1;fill-rule:nonzero;stroke:none"
             id="path4285"
             inkscape:connector-curvature="0" /></g><g
           id="g4287"
           transform="translate(496.999,331.5869)"><path
             d="m 0,0 c 0,0.859 0.197,3.684 2.524,3.684 1.817,0 1.817,-1.84 1.817,-3.161 l 0,-6.199 3.156,0 0,7.278 c 0,2.921 -1.44,4.564 -3.966,4.564 -1.6,0 -2.801,-0.562 -3.682,-1.705 l 0,1.437 -3.007,0 0,-11.574 3.158,0 L 0,0 z"
             style="fill:#ffffff;fill-opacity:1;fill-rule:nonzero;stroke:none"
             id="path4289"
             inkscape:connector-curvature="0" /></g><g
           id="g4291"
           transform="translate(233.3564,336.6025)"><path
             d="m 0,0 4.158,-8.6 7.467,0 -5.256,12.395 -12.435,0 -5.676,-12.395 7.193,0 L 0,0 z"
             style="fill:#ffffff;fill-opacity:1;fill-rule:nonzero;stroke:none"
             id="path4293"
             inkscape:connector-curvature="0" /></g><g
           id="g4295"
           transform="translate(233.1592,281.9521)"><path
             d="m 0,0 c -9.38,0 -10.813,10.686 -10.813,17.059 0,7.087 3.411,14.74 10.813,14.74 7.548,0 10.916,-7.401 10.916,-14.74 C 10.916,10.686 9.504,0 0,0 m 0,38.385 c -13.398,0 -22.411,-9.16 -22.411,-22.787 0,-13.262 9.013,-22.17 22.411,-22.17 13.477,0 22.521,8.908 22.521,22.17 0,13.627 -9.044,22.787 -22.521,22.787"
             style="fill:#ffffff;fill-opacity:1;fill-rule:nonzero;stroke:none"
             id="path4297"
             inkscape:connector-curvature="0" /></g><g
           id="g4299"
           transform="translate(704.0293,245.9424)"><path
             d="m 0,0 -34.815,88.605 -7.055,0 -4.381,-14.248 16.688,-44.195 -20.718,0 -3.296,-10.599 28.056,0 9.607,-25.872 9.037,0 c -12.759,-10.345 -28.991,-16.548 -46.65,-16.548 -40.951,0 -74.219,33.306 -74.219,74.209 0,25.949 13.341,48.783 33.536,62.068 l -1.816,-6.065 c 8.534,1.797 22.325,2.319 22.325,-13.619 0,-9.191 -3.148,-15.58 -12.433,-15.58 l -6.719,0 1.274,7.174 -11.1,0 -16.663,-55.168 17.493,0 6.868,36.221 6.216,0 c 8.459,0 9.366,-4.588 12.166,-11.893 l 7.776,-24.328 18.542,0 -12.12,31.285 c -4.289,9.518 -10.969,10.235 -15.264,10.254 11.961,0.588 20.66,12.863 20.66,22.67 0,17.537 -12.244,24.188 -26.362,24.934 9.126,4.041 19.224,6.281 29.84,6.281 40.919,0 74.22,-33.285 74.22,-74.234 C 20.693,31.465 12.815,13.357 0,0 m -53.527,136.152 c -46.783,0 -84.802,-38.013 -84.802,-84.8 0,-46.713 38.019,-84.776 84.802,-84.776 46.739,0 84.777,38.063 84.777,84.776 0,46.787 -38.038,84.8 -84.777,84.8"
             style="fill:#ffffff;fill-opacity:1;fill-rule:nonzero;stroke:none"
             id="path4301"
             inkscape:connector-curvature="0" /></g></g></g></g></svg>