<?xml version="1.0" encoding="UTF-8" standalone="no"?>
<!-- Created with Inkscape (http://www.inkscape.org/) -->

<svg
   xmlns:dc="http://purl.org/dc/elements/1.1/"
   xmlns:cc="http://creativecommons.org/ns#"
   xmlns:rdf="http://www.w3.org/1999/02/22-rdf-syntax-ns#"
   xmlns:svg="http://www.w3.org/2000/svg"
   xmlns="http://www.w3.org/2000/svg"
   xmlns:sodipodi="http://sodipodi.sourceforge.net/DTD/sodipodi-0.dtd"
   xmlns:inkscape="http://www.inkscape.org/namespaces/inkscape"
   id="svg3307"
   version="1.1"
   inkscape:version="0.48.4 r9939"
   width="1052.3625"
   height="744.1"
   xml:space="preserve"
   sodipodi:docname="LOGO BOUTIERES.ai"><metadata
     id="metadata3313"><rdf:RDF><cc:Work
         rdf:about=""><dc:format>image/svg+xml</dc:format><dc:type
           rdf:resource="http://purl.org/dc/dcmitype/StillImage" /><dc:title></dc:title></cc:Work></rdf:RDF></metadata><defs
     id="defs3311"><clipPath
       clipPathUnits="userSpaceOnUse"
       id="clipPath3321"><path
         d="m 154.598,400.066 c 50.661,-35.229 88.313,-128.68 54.594,-160.815 l 0,0 c 84.002,65.822 -26.338,196.099 -59.866,223.197 l 0,0 c 0,0 0.496,-1.56 5.272,-62.382"
         id="path3323" /></clipPath><linearGradient
       x1="0"
       y1="0"
       x2="1"
       y2="0"
       gradientUnits="userSpaceOnUse"
       gradientTransform="matrix(-39.776905,-246.05017,-246.05017,39.776905,204.22363,437.56934)"
       spreadMethod="pad"
       id="linearGradient3329"><stop
         style="stop-opacity:1;stop-color:#f39415"
         offset="0"
         id="stop3331" /><stop
         style="stop-opacity:1;stop-color:#ffef1e"
         offset="1"
         id="stop3333" /></linearGradient><clipPath
       clipPathUnits="userSpaceOnUse"
       id="clipPath3341"><path
         d="m 0,595.28 841.89,0 L 841.89,0 0,0 0,595.28 z"
         id="path3343" /></clipPath><clipPath
       clipPathUnits="userSpaceOnUse"
       id="clipPath3349"><path
         d="m 172.899,438.31 60.726,0 0,-184.563 -60.726,0 0,184.563 z"
         id="path3351" /></clipPath><clipPath
       clipPathUnits="userSpaceOnUse"
       id="clipPath3353"><path
         d="m 172.899,438.31 3.643,-45.535 c 25.196,-19.123 72.853,-75.888 42.802,-139.028 36.426,28.533 -3.341,146.011 -46.445,184.563"
         id="path3355" /></clipPath><linearGradient
       x1="0"
       y1="0"
       x2="1"
       y2="0"
       gradientUnits="userSpaceOnUse"
       gradientTransform="matrix(60.725586,0,0,-60.725586,172.89893,346.02832)"
       spreadMethod="pad"
       id="linearGradient3357"><stop
         style="stop-opacity:1;stop-color:#b3b4b3"
         offset="0"
         id="stop3359" /><stop
         style="stop-opacity:1;stop-color:#7f7e7f"
         offset="1"
         id="stop3361" /></linearGradient><clipPath
       clipPathUnits="userSpaceOnUse"
       id="clipPath3381"><path
         d="m 184.701,397.34 c 62.484,-64.329 53.252,-136.381 15.414,-163.536 l 0,0 c 92.299,53.561 17.448,194.569 -12.002,226.044 l 0,0 c 0,0 0.276,-1.614 -3.412,-62.508"
         id="path3383" /></clipPath><linearGradient
       x1="0"
       y1="0"
       x2="1"
       y2="0"
       gradientUnits="userSpaceOnUse"
       gradientTransform="matrix(-74.035515,-240.08658,-240.08658,74.035515,232.05518,429.6333)"
       spreadMethod="pad"
       id="linearGradient3389"><stop
         style="stop-opacity:1;stop-color:#38b9c6"
         offset="0"
         id="stop3391" /><stop
         style="stop-opacity:1;stop-color:#2c9393"
         offset="1"
         id="stop3393" /></linearGradient><clipPath
       clipPathUnits="userSpaceOnUse"
       id="clipPath3401"><path
         d="m 0,595.28 841.89,0 L 841.89,0 0,0 0,595.28 z"
         id="path3403" /></clipPath><clipPath
       clipPathUnits="userSpaceOnUse"
       id="clipPath3409"><path
         d="m 200.825,435.882 44.131,0 0,-197.921 -44.131,0 0,197.921 z"
         id="path3411" /></clipPath><clipPath
       clipPathUnits="userSpaceOnUse"
       id="clipPath3413"><path
         d="m 205.377,435.882 c 21.252,-30.967 75.284,-151.171 3.646,-197.921 16.995,19.429 68.301,76.496 -8.198,156.939 3.035,34.302 4.552,40.982 4.552,40.982"
         id="path3415" /></clipPath><linearGradient
       x1="0"
       y1="0"
       x2="1"
       y2="0"
       gradientUnits="userSpaceOnUse"
       gradientTransform="matrix(44.130859,0,0,-44.130859,200.8252,336.92187)"
       spreadMethod="pad"
       id="linearGradient3417"><stop
         style="stop-opacity:1;stop-color:#b3b4b3"
         offset="0"
         id="stop3419" /><stop
         style="stop-opacity:1;stop-color:#7f7e7f"
         offset="1"
         id="stop3421" /></linearGradient><clipPath
       clipPathUnits="userSpaceOnUse"
       id="clipPath3441"><path
         d="m 212.763,401.143 c 49.916,-73.258 28.391,-145.862 -12.614,-167.096 l 0,0 c 103.342,52.481 50.215,192.184 26.716,228.087 l 0,0 c 0,0 0,-1.639 -14.102,-60.991 M 198.697,233.32 c 0.486,0.235 0.971,0.478 1.452,0.727 l 0,0 c -0.481,-0.244 -0.964,-0.486 -1.452,-0.727"
         id="path3443" /></clipPath><linearGradient
       x1="0"
       y1="0"
       x2="1"
       y2="0"
       gradientUnits="userSpaceOnUse"
       gradientTransform="matrix(-116.41226,-228.16664,-228.16664,116.41226,264.73242,424.58643)"
       spreadMethod="pad"
       id="linearGradient3449"><stop
         style="stop-opacity:1;stop-color:#ea5786"
         offset="0"
         id="stop3451" /><stop
         style="stop-opacity:1;stop-color:#c22229"
         offset="0.994382"
         id="stop3453" /><stop
         style="stop-opacity:1;stop-color:#c22229"
         offset="1"
         id="stop3455" /></linearGradient><clipPath
       clipPathUnits="userSpaceOnUse"
       id="clipPath3463"><path
         d="m 0,595.28 841.89,0 L 841.89,0 0,0 0,595.28 z"
         id="path3465" /></clipPath><clipPath
       clipPathUnits="userSpaceOnUse"
       id="clipPath3471"><path
         d="m 198.697,439.819 66.28,0 0,-206.499 -66.28,0 0,206.499 z"
         id="path3473" /></clipPath><clipPath
       clipPathUnits="userSpaceOnUse"
       id="clipPath3475"><path
         d="m 248.222,415.532 c -3.921,10.843 -9.689,25.374 -9.689,24.223 C 234.383,410.689 230,398.927 230,398.927 244.531,379.779 288.267,282.021 198.697,233.32 c 34.993,17.742 95.891,52.812 49.525,182.212"
         id="path3477" /></clipPath><linearGradient
       x1="0"
       y1="0"
       x2="1"
       y2="0"
       gradientUnits="userSpaceOnUse"
       gradientTransform="matrix(66.279785,0,0,-66.279785,198.69678,336.56982)"
       spreadMethod="pad"
       id="linearGradient3479"><stop
         style="stop-opacity:1;stop-color:#b3b4b3"
         offset="0"
         id="stop3481" /><stop
         style="stop-opacity:1;stop-color:#7f7e7f"
         offset="1"
         id="stop3483" /></linearGradient><clipPath
       clipPathUnits="userSpaceOnUse"
       id="clipPath3503"><path
         d="m 106.503,214.155 c 0,-8.679 36.112,-15.714 80.647,-15.714 l 0,0 c 44.54,0 80.645,7.035 80.645,15.714 l 0,0 c 0,8.676 -36.105,15.71 -80.645,15.71 l 0,0 c -44.535,0 -80.647,-7.034 -80.647,-15.71"
         id="path3505" /></clipPath><radialGradient
       fx="0"
       fy="0"
       cx="0"
       cy="0"
       r="1"
       gradientUnits="userSpaceOnUse"
       gradientTransform="matrix(80.646225,0,0,-15.709884,187.14941,214.24121)"
       spreadMethod="pad"
       id="radialGradient3511"><stop
         style="stop-opacity:1;stop-color:#a5a5b4"
         offset="0"
         id="stop3513" /><stop
         style="stop-opacity:1;stop-color:#ffffff"
         offset="1"
         id="stop3515" /></radialGradient><clipPath
       clipPathUnits="userSpaceOnUse"
       id="clipPath3523"><path
         d="M 242.04,402.642 C 279.285,305.793 240.773,253.789 198.697,233.32 l 0,0 c 102.937,31.074 91.788,188.808 67.369,227.163 l 0,0 c 0,0 -16.862,-42.461 -24.026,-57.841"
         id="path3525" /></clipPath><linearGradient
       x1="0"
       y1="0"
       x2="1"
       y2="0"
       gradientUnits="userSpaceOnUse"
       gradientTransform="matrix(-125.1964,-245.38342,-245.38342,125.1964,291.76074,427.77148)"
       spreadMethod="pad"
       id="linearGradient3531"><stop
         style="stop-opacity:1;stop-color:#96c22c"
         offset="0"
         id="stop3533" /><stop
         style="stop-opacity:1;stop-color:#007443"
         offset="1"
         id="stop3535" /></linearGradient><clipPath
       clipPathUnits="userSpaceOnUse"
       id="clipPath3543"><path
         d="m 0,595.28 841.89,0 L 841.89,0 0,0 0,595.28 z"
         id="path3545" /></clipPath><clipPath
       clipPathUnits="userSpaceOnUse"
       id="clipPath3555"><path
         d="m 170.227,253.311 c 0,-10.711 8.675,-19.392 19.386,-19.392 l 0,0 c 10.705,0 19.386,8.681 19.386,19.392 l 0,0 c 0,10.705 -8.681,19.384 -19.386,19.384 l 0,0 c -10.711,0 -19.386,-8.679 -19.386,-19.384"
         id="path3557" /></clipPath><linearGradient
       x1="0"
       y1="0"
       x2="1"
       y2="0"
       gradientUnits="userSpaceOnUse"
       gradientTransform="matrix(-272.93951,-112.2368,-112.2368,272.93951,258.60547,281.67871)"
       spreadMethod="pad"
       id="linearGradient3563"><stop
         style="stop-opacity:1;stop-color:#5c5c5b"
         offset="0"
         id="stop3565" /><stop
         style="stop-opacity:1;stop-color:#1d1e1e"
         offset="1"
         id="stop3567" /></linearGradient><clipPath
       clipPathUnits="userSpaceOnUse"
       id="clipPath3575"><path
         d="m 0,595.28 841.89,0 L 841.89,0 0,0 0,595.28 z"
         id="path3577" /></clipPath><clipPath
       clipPathUnits="userSpaceOnUse"
       id="clipPath3735"><path
         d="m 114.991,190.21 0,-1.571 -0.084,0 0,-28.692 c 0,-8.095 2.034,-28.331 26.317,-28.331 l 0,0 117.629,0 c 17.811,0 21.01,12.138 21.01,23.474 l 0,0 c 0,11.333 1.133,14.57 1.133,14.57 l 0,0 c 0,10.402 6.709,16.019 15.899,18.123 l 0,0 440.923,0 0,2.427 -622.827,0 z"
         id="path3737" /></clipPath><linearGradient
       x1="0"
       y1="0"
       x2="1"
       y2="0"
       gradientUnits="userSpaceOnUse"
       gradientTransform="matrix(513.5788,0,0,-513.5788,151.37012,160.91309)"
       spreadMethod="pad"
       id="linearGradient3743"><stop
         style="stop-opacity:1;stop-color:#38b9c6"
         offset="0"
         id="stop3745" /><stop
         style="stop-opacity:1;stop-color:#2c9393"
         offset="1"
         id="stop3747" /></linearGradient><clipPath
       clipPathUnits="userSpaceOnUse"
       id="clipPath3755"><path
         d="m 0,595.28 841.89,0 L 841.89,0 0,0 0,595.28 z"
         id="path3757" /></clipPath></defs><sodipodi:namedview
     pagecolor="#ffffff"
     bordercolor="#666666"
     borderopacity="1"
     objecttolerance="10"
     gridtolerance="10"
     guidetolerance="10"
     inkscape:pageopacity="0"
     inkscape:pageshadow="2"
     inkscape:window-width="640"
     inkscape:window-height="480"
     id="namedview3309"
     showgrid="false"
     inkscape:zoom="0.31716168"
     inkscape:cx="526.18127"
     inkscape:cy="372.04999"
     inkscape:window-x="0"
     inkscape:window-y="24"
     inkscape:window-maximized="0"
     inkscape:current-layer="g3315" /><g
     id="g3315"
     inkscape:groupmode="layer"
     inkscape:label="LOGO BOUTIERES"
     transform="matrix(1.25,0,0,-1.25,0,744.1)"><g
       id="g3317"><g
         id="g3319"
         clip-path="url(#clipPath3321)"><g
           id="g3325"><g
             id="g3327"><path
               d="m 154.598,400.066 c 50.661,-35.229 88.313,-128.68 54.594,-160.815 l 0,0 c 84.002,65.822 -26.338,196.099 -59.866,223.197 l 0,0 c 0,0 0.496,-1.56 5.272,-62.382"
               style="fill:url(#linearGradient3329);stroke:none"
               id="path3335" /></g></g></g></g><g
       id="g3337"><g
         id="g3339"
         clip-path="url(#clipPath3341)"><g
           id="g3345"><g
             id="g3347" /><g
             id="g3363"><g
               clip-path="url(#clipPath3349)"
               opacity="0.300003"
               id="g3365"><g
                 id="g3367"><g
                   clip-path="url(#clipPath3353)"
                   id="g3369"><g
                     id="g3371"><g
                       id="g3373"><path
                         d="m 172.899,438.31 3.643,-45.535 c 25.196,-19.123 72.853,-75.888 42.802,-139.028 36.426,28.533 -3.341,146.011 -46.445,184.563"
                         style="fill:url(#linearGradient3357);stroke:none"
                         id="path3375" /></g></g></g></g></g></g></g></g></g><g
       id="g3377"><g
         id="g3379"
         clip-path="url(#clipPath3381)"><g
           id="g3385"><g
             id="g3387"><path
               d="m 184.701,397.34 c 62.484,-64.329 53.252,-136.381 15.414,-163.536 l 0,0 c 92.299,53.561 17.448,194.569 -12.002,226.044 l 0,0 c 0,0 0.276,-1.614 -3.412,-62.508"
               style="fill:url(#linearGradient3389);stroke:none"
               id="path3395" /></g></g></g></g><g
       id="g3397"><g
         id="g3399"
         clip-path="url(#clipPath3401)"><g
           id="g3405"><g
             id="g3407" /><g
             id="g3423"><g
               clip-path="url(#clipPath3409)"
               opacity="0.300003"
               id="g3425"><g
                 id="g3427"><g
                   clip-path="url(#clipPath3413)"
                   id="g3429"><g
                     id="g3431"><g
                       id="g3433"><path
                         d="m 205.377,435.882 c 21.252,-30.967 75.284,-151.171 3.646,-197.921 16.995,19.429 68.301,76.496 -8.198,156.939 3.035,34.302 4.552,40.982 4.552,40.982"
                         style="fill:url(#linearGradient3417);stroke:none"
                         id="path3435" /></g></g></g></g></g></g></g></g></g><g
       id="g3437"><g
         id="g3439"
         clip-path="url(#clipPath3441)"><g
           id="g3445"><g
             id="g3447"><path
               d="m 212.763,401.143 c 49.916,-73.258 28.391,-145.862 -12.614,-167.096 l 0,0 c 103.342,52.481 50.215,192.184 26.716,228.087 l 0,0 c 0,0 0,-1.639 -14.102,-60.991 M 198.697,233.32 c 0.486,0.235 0.971,0.478 1.452,0.727 l 0,0 c -0.481,-0.244 -0.964,-0.486 -1.452,-0.727"
               style="fill:url(#linearGradient3449);stroke:none"
               id="path3457" /></g></g></g></g><g
       id="g3459"><g
         id="g3461"
         clip-path="url(#clipPath3463)"><g
           id="g3467"><g
             id="g3469" /><g
             id="g3485"><g
               clip-path="url(#clipPath3471)"
               opacity="0.300003"
               id="g3487"><g
                 id="g3489"><g
                   clip-path="url(#clipPath3475)"
                   id="g3491"><g
                     id="g3493"><g
                       id="g3495"><path
                         d="m 248.222,415.532 c -3.921,10.843 -9.689,25.374 -9.689,24.223 C 234.383,410.689 230,398.927 230,398.927 244.531,379.779 288.267,282.021 198.697,233.32 c 34.993,17.742 95.891,52.812 49.525,182.212"
                         style="fill:url(#linearGradient3479);stroke:none"
                         id="path3497" /></g></g></g></g></g></g></g></g></g><g
       id="g3499"><g
         id="g3501"
         clip-path="url(#clipPath3503)"><g
           id="g3507"><g
             id="g3509"><path
               d="m 106.503,214.155 c 0,-8.679 36.112,-15.714 80.647,-15.714 l 0,0 c 44.54,0 80.645,7.035 80.645,15.714 l 0,0 c 0,8.676 -36.105,15.71 -80.645,15.71 l 0,0 c -44.535,0 -80.647,-7.034 -80.647,-15.71"
               style="fill:url(#radialGradient3511);stroke:none"
               id="path3517" /></g></g></g></g><g
       id="g3519"><g
         id="g3521"
         clip-path="url(#clipPath3523)"><g
           id="g3527"><g
             id="g3529"><path
               d="M 242.04,402.642 C 279.285,305.793 240.773,253.789 198.697,233.32 l 0,0 c 102.937,31.074 91.788,188.808 67.369,227.163 l 0,0 c 0,0 -16.862,-42.461 -24.026,-57.841"
               style="fill:url(#linearGradient3531);stroke:none"
               id="path3537" /></g></g></g></g><g
       id="g3539"><g
         id="g3541"
         clip-path="url(#clipPath3543)"><g
           id="g3547"
           transform="translate(195.1509,231.7158)"><path
             d="m 0,0 c -39.09,-4.169 -91.211,53.158 -47.427,105.28 -21.372,39.606 -23.458,39.606 -23.458,39.606 C -112.055,85.474 -78.176,-6.252 0,0"
             style="fill:#dbdbdb;fill-opacity:1;fill-rule:nonzero;stroke:none"
             id="path3549" /></g></g></g><g
       id="g3551"><g
         id="g3553"
         clip-path="url(#clipPath3555)"><g
           id="g3559"><g
             id="g3561"><path
               d="m 170.227,253.311 c 0,-10.711 8.675,-19.392 19.386,-19.392 l 0,0 c 10.705,0 19.386,8.681 19.386,19.392 l 0,0 c 0,10.705 -8.681,19.384 -19.386,19.384 l 0,0 c -10.711,0 -19.386,-8.679 -19.386,-19.384"
               style="fill:url(#linearGradient3563);stroke:none"
               id="path3569" /></g></g></g></g><g
       id="g3571"><g
         id="g3573"
         clip-path="url(#clipPath3575)"><g
           id="g3579"
           transform="translate(304.4956,335.1787)"><path
             d="m 0,0 c -4.44,3.752 -6.66,8.765 -6.66,15.039 l 9.496,0 c 0,-3.581 1.375,-6.346 4.125,-8.293 2.234,-1.547 4.74,-2.321 7.519,-2.321 3.466,0 6.395,0.874 8.787,2.621 2.391,1.747 3.588,4.268 3.588,7.563 0,2.176 -0.73,3.881 -2.191,5.113 -2.006,2.09 -5.586,3.423 -10.743,3.996 -7.218,0.859 -12.733,3.38 -16.542,7.562 -3.179,3.466 -4.769,7.491 -4.769,12.074 0,5.356 1.604,10.111 4.812,14.265 3.981,5.07 9.539,7.605 16.671,7.605 6.56,0 11.96,-2.12 16.199,-6.359 4.268,-4.24 6.402,-9.925 6.402,-17.058 l -9.452,0 c 0,4.067 -0.974,7.29 -2.922,9.668 -2.349,2.864 -5.758,4.296 -10.227,4.296 -4.955,0 -8.436,-2.048 -10.441,-6.144 -1.031,-2.12 -1.547,-4.21 -1.547,-6.273 0,-1.805 0.616,-3.509 1.848,-5.113 2.149,-2.808 5.844,-4.498 11.086,-5.07 7.963,-0.918 13.707,-3.509 17.23,-7.777 2.721,-3.238 4.082,-7.32 4.082,-12.246 0,-5.013 -2.063,-9.303 -6.188,-12.869 C 26.039,-3.287 20.811,-5.07 14.48,-5.07 8.923,-5.07 4.096,-3.38 0,0"
             style="fill:#737372;fill-opacity:1;fill-rule:nonzero;stroke:none"
             id="path3581" /></g><path
           d="m 355.928,330.108 -9.582,0 0,70.294 9.582,0 0,-70.294 z"
           style="fill:#737372;fill-opacity:1;fill-rule:nonzero;stroke:none"
           id="path3583" /><g
           id="g3585"
           transform="translate(405.0825,390.7783)"><path
             d="m 0,0 -17.187,0 0,-60.67 -9.71,0 0,60.67 -17.187,0 0,9.625 L 0,9.625 0,0 z"
             style="fill:#737372;fill-opacity:1;fill-rule:nonzero;stroke:none"
             id="path3587" /></g><g
           id="g3589"
           transform="translate(419.7773,390.8213)"><path
             d="m 0,0 0,-32.655 23.934,0 0,-9.625 -23.934,0 0,-8.808 31.023,0 0,-9.625 -40.648,0 0,70.295 40.648,0 L 31.023,0 0,0 z"
             style="fill:#737372;fill-opacity:1;fill-rule:nonzero;stroke:none"
             id="path3591" /></g><g
           id="g3593"
           transform="translate(487.4941,339.8618)"><path
             d="m 0,0 6.272,0 c 3.438,0 6.732,0.659 9.883,1.977 3.036,1.289 5.729,3.107 8.078,5.457 2.349,2.348 4.182,5.041 5.5,8.077 1.317,3.151 1.977,6.46 1.977,9.926 0,3.438 -0.66,6.731 -1.977,9.882 -1.318,3.036 -3.151,5.715 -5.5,8.035 -2.349,2.349 -5.042,4.168 -8.078,5.457 -3.151,1.346 -6.445,2.02 -9.883,2.02 L 0,50.831 0,0 z m -9.711,-9.753 0,70.294 15.983,0 c 4.785,0 9.339,-0.917 13.665,-2.749 4.21,-1.777 7.949,-4.297 11.214,-7.563 3.207,-3.208 5.7,-6.933 7.476,-11.171 1.862,-4.326 2.793,-8.867 2.793,-13.621 0,-4.812 -0.931,-9.382 -2.793,-13.707 C 36.851,7.52 34.358,3.795 31.151,0.559 27.886,-2.679 24.147,-5.185 19.937,-6.96 15.611,-8.823 11.057,-9.753 6.272,-9.753 l -15.983,0 z"
             style="fill:#737372;fill-opacity:1;fill-rule:nonzero;stroke:none"
             id="path3595" /></g><g
           id="g3597"
           transform="translate(543.6953,390.8213)"><path
             d="m 0,0 0,-32.655 23.933,0 0,-9.625 -23.933,0 0,-8.808 31.022,0 0,-9.625 -40.647,0 0,70.295 40.647,0 L 31.022,0 0,0 z"
             style="fill:#737372;fill-opacity:1;fill-rule:nonzero;stroke:none"
             id="path3599" /></g><g
           id="g3601"
           transform="translate(307.0308,270.0127)"><path
             d="m 0,0 7.047,0 c 4.812,0 8.908,1.69 12.288,5.07 3.409,3.409 5.114,7.52 5.114,12.332 0,4.784 -1.705,8.866 -5.114,12.245 -3.38,3.409 -7.476,5.114 -12.288,5.114 L 0,34.761 0,0 z m 0,-25.608 -9.925,0 0,70.294 16.972,0 c 7.533,0 13.964,-2.664 19.292,-7.992 5.328,-5.328 7.992,-11.758 7.992,-19.292 C 34.331,9.84 31.667,3.395 26.339,-1.934 21.011,-7.262 14.58,-9.926 7.047,-9.926 l -7.047,0 0,-15.682 z"
             style="fill:#737372;fill-opacity:1;fill-rule:nonzero;stroke:none"
             id="path3603" /></g><g
           id="g3605"
           transform="translate(364.6074,270.0127)"><path
             d="m 0,0 c 4.783,0 8.879,1.704 12.289,5.113 3.408,3.38 5.113,7.477 5.113,12.289 0,4.812 -1.705,8.909 -5.113,12.288 C 8.879,33.099 4.783,34.804 0,34.804 l -7.477,0 L -7.477,0 0,0 z m 15.382,-25.608 -12.461,15.682 -10.398,0 0,-15.682 -9.925,0 0,70.294 17.402,0 c 7.533,0 13.964,-2.664 19.292,-7.992 5.328,-5.328 7.992,-11.758 7.992,-19.292 0,-7.562 -2.664,-14.007 -7.992,-19.336 -1.862,-1.833 -3.925,-3.394 -6.187,-4.683 l 14.91,-18.991 -12.633,0 z"
             style="fill:#737372;fill-opacity:1;fill-rule:nonzero;stroke:none"
             id="path3607" /></g><g
           id="g3609"
           transform="translate(414.1914,297.8989)"><path
             d="m 0,0 c -5.042,-5.071 -7.562,-11.171 -7.562,-18.304 0,-7.161 2.52,-13.278 7.562,-18.348 5.07,-5.042 11.186,-7.561 18.348,-7.561 7.132,0 13.232,2.519 18.302,7.561 5.071,5.07 7.606,11.187 7.606,18.348 0,7.133 -2.535,13.233 -7.606,18.304 C 31.58,5.07 25.48,7.605 18.348,7.605 11.186,7.605 5.07,5.07 0,0 m -6.531,-43.182 c -6.875,6.874 -10.312,15.167 -10.312,24.878 0,9.652 3.437,17.931 10.312,24.835 C 0.344,13.377 8.637,16.8 18.348,16.8 28,16.8 36.279,13.377 43.182,6.531 c 6.845,-6.904 10.269,-15.183 10.269,-24.835 0,-9.711 -3.424,-18.004 -10.269,-24.878 C 36.279,-50.057 28,-53.495 18.348,-53.495 c -9.711,0 -18.004,3.438 -24.879,10.313"
             style="fill:#737372;fill-opacity:1;fill-rule:nonzero;stroke:none"
             id="path3611" /></g><g
           id="g3613"
           transform="translate(519.9775,244.4043)"><path
             d="M 0,0 -11.473,0 -28.874,26.425 -46.232,0 l -11.516,0 23.116,35.19 -23.116,35.104 11.516,0 17.358,-26.381 17.401,26.381 L 0,70.294 -23.116,35.19 0,0 z"
             style="fill:#737372;fill-opacity:1;fill-rule:nonzero;stroke:none"
             id="path3615" /></g><path
           d="m 534.716,244.404 -9.582,0 0,70.294 9.582,0 0,-70.294 z"
           style="fill:#737372;fill-opacity:1;fill-rule:nonzero;stroke:none"
           id="path3617" /><g
           id="g3619"
           transform="translate(572.9131,244.4043)"><path
             d="m 0,0 -23.589,36.565 0,-36.565 -9.453,0 0,70.294 L 0,19.722 32.999,70.294 32.999,0 l -9.453,0 0,36.565 L 0,0 z"
             style="fill:#737372;fill-opacity:1;fill-rule:nonzero;stroke:none"
             id="path3621" /></g><path
           d="m 620.65,244.404 -9.582,0 0,70.294 9.582,0 0,-70.294 z"
           style="fill:#737372;fill-opacity:1;fill-rule:nonzero;stroke:none"
           id="path3623" /><g
           id="g3625"
           transform="translate(669.8037,305.0742)"><path
             d="m 0,0 -17.187,0 0,-60.67 -9.71,0 0,60.67 -17.187,0 0,9.625 L 0,9.625 0,0 z"
             style="fill:#737372;fill-opacity:1;fill-rule:nonzero;stroke:none"
             id="path3627" /></g><g
           id="g3629"
           transform="translate(704.5225,325.0112)"><path
             d="M 0,0 -14.996,-8.293 -18.948,0.215 -3.953,8.507 0,0 z m -20.022,-19.894 0,-32.655 23.932,0 0,-9.625 -23.932,0 0,-8.808 31.022,0 0,-9.625 -40.647,0 0,70.294 40.647,0 0,-9.581 -31.022,0 z"
             style="fill:#737372;fill-opacity:1;fill-rule:nonzero;stroke:none"
             id="path3631" /></g><g
           id="g3633"
           transform="translate(297.4863,223.625)"><path
             d="m 0,0 0,-10.924 8.006,0 0,-3.22 -8.006,0 0,-2.946 10.377,0 0,-3.22 -13.597,0 0,23.515 13.597,0 L 10.377,0 0,0 z"
             style="fill:#737372;fill-opacity:1;fill-rule:nonzero;stroke:none"
             id="path3635" /></g><g
           id="g3637"
           transform="translate(320.6416,203.3154)"><path
             d="m 0,0 -7.891,12.231 0,-12.231 -3.162,0 0,23.515 L 0,6.598 11.039,23.515 11.039,0 7.876,0 7.876,12.231 0,0 z"
             style="fill:#737372;fill-opacity:1;fill-rule:nonzero;stroke:none"
             id="path3639" /></g><g
           id="g3641"
           transform="translate(336.7251,211.8818)"><path
             d="m 0,0 2.357,0 c 1.61,0 2.98,0.565 4.111,1.696 1.14,1.14 1.71,2.516 1.71,4.125 0,1.601 -0.57,2.966 -1.71,4.097 -1.131,1.14 -2.501,1.71 -4.111,1.71 L 0,11.628 0,0 z m 0,-8.566 -3.32,0 0,23.514 5.677,0 c 2.52,0 4.671,-0.891 6.454,-2.674 1.782,-1.782 2.673,-3.933 2.673,-6.453 0,-2.529 -0.891,-4.685 -2.673,-6.467 C 7.028,-2.429 4.877,-3.32 2.357,-3.32 L 0,-3.32 0,-8.566 z"
             style="fill:#737372;fill-opacity:1;fill-rule:nonzero;stroke:none"
             id="path3643" /></g><g
           id="g3645"
           transform="translate(363.6748,203.3154)"><path
             d="m 0,0 -13.654,0 0,23.515 3.205,0 0,-20.295 L 0,3.22 0,0 z"
             style="fill:#737372;fill-opacity:1;fill-rule:nonzero;stroke:none"
             id="path3647" /></g><g
           id="g3649"
           transform="translate(368.7778,221.21)"><path
             d="m 0,0 c -1.687,-1.696 -2.53,-3.737 -2.53,-6.123 0,-2.396 0.843,-4.441 2.53,-6.137 1.696,-1.687 3.742,-2.53 6.138,-2.53 2.385,0 4.426,0.843 6.123,2.53 1.696,1.696 2.544,3.741 2.544,6.137 0,2.386 -0.848,4.427 -2.544,6.123 C 10.564,1.696 8.523,2.544 6.138,2.544 3.742,2.544 1.696,1.696 0,0 m -2.185,-14.445 c -2.299,2.299 -3.449,5.074 -3.449,8.322 0,3.229 1.15,5.999 3.449,8.308 2.3,2.29 5.074,3.435 8.323,3.435 3.229,0 5.998,-1.145 8.307,-3.435 2.29,-2.309 3.435,-5.079 3.435,-8.308 0,-3.248 -1.145,-6.023 -3.435,-8.322 -2.309,-2.3 -5.078,-3.45 -8.307,-3.45 -3.249,0 -6.023,1.15 -8.323,3.45"
             style="fill:#737372;fill-opacity:1;fill-rule:nonzero;stroke:none"
             id="path3651" /></g><path
           d="m 391.588,203.315 -3.206,0 0,23.515 3.206,0 0,-23.515 z"
           style="fill:#737372;fill-opacity:1;fill-rule:nonzero;stroke:none"
           id="path3653" /><g
           id="g3655"
           transform="translate(403.834,223.625)"><path
             d="m 0,0 0,-10.924 8.006,0 0,-3.22 -8.006,0 0,-2.946 10.377,0 0,-3.22 -13.597,0 0,23.515 13.597,0 L 10.377,0 0,0 z"
             style="fill:#737372;fill-opacity:1;fill-rule:nonzero;stroke:none"
             id="path3657" /></g><g
           id="g3659"
           transform="translate(430.6553,223.6104)"><path
             d="m 0,0 -5.75,0 0,-20.295 -3.248,0 0,20.295 -5.75,0 0,3.22 L 0,3.22 0,0 z"
             style="fill:#737372;fill-opacity:1;fill-rule:nonzero;stroke:none"
             id="path3661" /></g><g
           id="g3663"
           transform="translate(457.3174,221.4834)"><path
             d="m 0,0 c -0.738,0.689 -1.576,1.236 -2.516,1.639 -1.083,0.45 -2.213,0.674 -3.391,0.674 -1.179,0 -2.31,-0.224 -3.393,-0.674 -1.044,-0.452 -1.969,-1.078 -2.774,-1.883 -0.805,-0.806 -1.428,-1.726 -1.868,-2.76 -0.451,-1.093 -0.676,-2.224 -0.676,-3.392 0,-1.189 0.225,-2.324 0.676,-3.407 0.44,-1.045 1.063,-1.965 1.868,-2.76 0.805,-0.814 1.73,-1.442 2.774,-1.882 1.083,-0.451 2.214,-0.676 3.393,-0.676 1.178,0 2.308,0.225 3.391,0.676 0.93,0.402 1.768,0.943 2.516,1.624 l 2.156,-2.157 c -1.035,-0.958 -2.199,-1.714 -3.493,-2.27 -1.457,-0.613 -2.98,-0.92 -4.57,-0.92 -1.591,0 -3.119,0.307 -4.586,0.92 -1.399,0.594 -2.645,1.433 -3.736,2.516 -1.084,1.091 -1.922,2.342 -2.516,3.751 -0.613,1.456 -0.92,2.984 -0.92,4.585 0,1.59 0.307,3.114 0.92,4.571 0.594,1.408 1.432,2.653 2.516,3.736 1.091,1.083 2.337,1.922 3.736,2.516 1.467,0.613 2.995,0.92 4.586,0.92 1.59,0 3.113,-0.307 4.57,-0.92 C -0.034,3.881 1.13,3.124 2.156,2.156 L 0,0 z"
             style="fill:#737372;fill-opacity:1;fill-rule:nonzero;stroke:none"
             id="path3665" /></g><g
           id="g3667"
           transform="translate(467.248,211.8818)"><path
             d="m 0,0 c 1.601,0 2.971,0.57 4.111,1.711 1.14,1.13 1.71,2.501 1.71,4.11 0,1.61 -0.57,2.98 -1.71,4.111 -1.14,1.14 -2.51,1.711 -4.111,1.711 l -2.501,0 L -2.501,0 0,0 z m 5.146,-8.566 -4.168,5.246 -3.479,0 0,-5.246 -3.319,0 0,23.514 5.82,0 c 2.521,0 4.672,-0.891 6.454,-2.674 C 8.236,10.492 9.128,8.341 9.128,5.821 9.128,3.292 8.236,1.136 6.454,-0.646 5.831,-1.26 5.142,-1.782 4.385,-2.214 l 4.987,-6.352 -4.226,0 z"
             style="fill:#737372;fill-opacity:1;fill-rule:nonzero;stroke:none"
             id="path3669" /></g><g
           id="g3671"
           transform="translate(488.1191,230.2793)"><path
             d="M 0,0 -5.017,-2.773 -6.339,0.072 -1.322,2.847 0,0 z m -6.698,-6.654 0,-10.924 8.006,0 0,-3.22 -8.006,0 0,-2.946 10.378,0 0,-3.22 -13.598,0 0,23.515 13.598,0 0,-3.205 -10.378,0 z"
             style="fill:#737372;fill-opacity:1;fill-rule:nonzero;stroke:none"
             id="path3673" /></g><g
           id="g3675"
           transform="translate(506.043,209.4814)"><path
             d="M 0,0 -3.464,8.639 -6.899,0 0,0 z m 1.308,-3.248 -9.515,0 -1.165,-2.918 -3.507,0 9.415,23.558 9.429,-23.558 -3.493,0 -1.164,2.918 z"
             style="fill:#737372;fill-opacity:1;fill-rule:nonzero;stroke:none"
             id="path3677" /></g><g
           id="g3679"
           transform="translate(523.1904,223.6104)"><path
             d="m 0,0 -5.75,0 0,-20.295 -3.248,0 0,20.295 -5.749,0 0,3.22 L 0,3.22 0,0 z"
             style="fill:#737372;fill-opacity:1;fill-rule:nonzero;stroke:none"
             id="path3681" /></g><path
           d="m 528.091,203.315 -3.205,0 0,23.515 3.205,0 0,-23.515 z"
           style="fill:#737372;fill-opacity:1;fill-rule:nonzero;stroke:none"
           id="path3683" /><g
           id="g3685"
           transform="translate(535.4502,221.21)"><path
             d="m 0,0 c -1.687,-1.696 -2.53,-3.737 -2.53,-6.123 0,-2.396 0.843,-4.441 2.53,-6.137 1.695,-1.687 3.741,-2.53 6.137,-2.53 2.386,0 4.427,0.843 6.123,2.53 1.696,1.696 2.544,3.741 2.544,6.137 0,2.386 -0.848,4.427 -2.544,6.123 C 10.564,1.696 8.523,2.544 6.137,2.544 3.741,2.544 1.695,1.696 0,0 m -2.186,-14.445 c -2.298,2.299 -3.449,5.074 -3.449,8.322 0,3.229 1.151,5.999 3.449,8.308 2.3,2.29 5.075,3.435 8.323,3.435 3.229,0 5.999,-1.145 8.307,-3.435 2.29,-2.309 3.436,-5.079 3.436,-8.308 0,-3.248 -1.146,-6.023 -3.436,-8.322 -2.308,-2.3 -5.078,-3.45 -8.307,-3.45 -3.248,0 -6.023,1.15 -8.323,3.45"
             style="fill:#737372;fill-opacity:1;fill-rule:nonzero;stroke:none"
             id="path3687" /></g><g
           id="g3689"
           transform="translate(572.1455,203.3154)"><path
             d="m 0,0 -13.913,15.38 0,-15.38 -3.177,0 0,23.515 13.928,-15.135 0,15.135 3.162,0 L 0,0 z"
             style="fill:#737372;fill-opacity:1;fill-rule:nonzero;stroke:none"
             id="path3691" /></g><g
           id="g3693"
           transform="translate(584.4189,206.5781)"><path
             d="m 0,0 2.099,0 c 1.15,0 2.252,0.221 3.305,0.661 1.016,0.432 1.917,1.04 2.702,1.825 0.787,0.786 1.4,1.687 1.84,2.702 0.442,1.055 0.661,2.162 0.661,3.321 0,1.15 -0.219,2.252 -0.661,3.305 -0.44,1.016 -1.053,1.913 -1.84,2.689 -0.785,0.785 -1.686,1.393 -2.702,1.825 -1.053,0.45 -2.155,0.676 -3.305,0.676 L 0,17.004 0,0 z m -3.248,-3.263 0,23.515 5.347,0 c 1.6,0 3.124,-0.307 4.571,-0.92 1.408,-0.594 2.659,-1.437 3.751,-2.529 1.073,-1.074 1.907,-2.32 2.501,-3.738 0.623,-1.447 0.934,-2.965 0.934,-4.556 0,-1.61 -0.311,-3.138 -0.934,-4.585 C 12.328,2.516 11.494,1.27 10.421,0.187 9.329,-0.896 8.078,-1.734 6.67,-2.328 5.223,-2.951 3.699,-3.263 2.099,-3.263 l -5.347,0 z"
             style="fill:#3d9b9c;fill-opacity:1;fill-rule:nonzero;stroke:none"
             id="path3695" /></g><path
           d="m 603.134,223.035 -3.134,0 0,3.81 3.134,0 0,-3.81 z"
           style="fill:#3d9b9c;fill-opacity:1;fill-rule:nonzero;stroke:none"
           id="path3697" /><g
           id="g3699"
           transform="translate(617.3779,209.4814)"><path
             d="M 0,0 -3.464,8.639 -6.899,0 0,0 z m 1.308,-3.248 -9.515,0 -1.165,-2.918 -3.507,0 9.415,23.558 9.429,-23.558 -3.493,0 -1.164,2.918 z"
             style="fill:#3d9b9c;fill-opacity:1;fill-rule:nonzero;stroke:none"
             id="path3701" /></g><g
           id="g3703"
           transform="translate(639.5557,221.4834)"><path
             d="m 0,0 c -0.738,0.689 -1.576,1.236 -2.516,1.639 -1.083,0.45 -2.213,0.674 -3.391,0.674 -1.179,0 -2.31,-0.224 -3.393,-0.674 -1.044,-0.452 -1.969,-1.078 -2.774,-1.883 -0.805,-0.806 -1.428,-1.726 -1.868,-2.76 -0.451,-1.093 -0.676,-2.224 -0.676,-3.392 0,-1.189 0.225,-2.324 0.676,-3.407 0.44,-1.045 1.063,-1.965 1.868,-2.76 0.805,-0.814 1.73,-1.442 2.774,-1.882 1.083,-0.451 2.214,-0.676 3.393,-0.676 1.178,0 2.308,0.225 3.391,0.676 0.93,0.402 1.768,0.943 2.516,1.624 l 2.156,-2.157 c -1.035,-0.958 -2.199,-1.714 -3.493,-2.27 -1.457,-0.613 -2.98,-0.92 -4.57,-0.92 -1.591,0 -3.119,0.307 -4.586,0.92 -1.399,0.594 -2.645,1.433 -3.736,2.516 -1.084,1.091 -1.922,2.342 -2.516,3.751 -0.613,1.456 -0.92,2.984 -0.92,4.585 0,1.59 0.307,3.114 0.92,4.571 0.594,1.408 1.432,2.653 2.516,3.736 1.091,1.083 2.337,1.922 3.736,2.516 1.467,0.613 2.995,0.92 4.586,0.92 1.59,0 3.113,-0.307 4.57,-0.92 C -0.034,3.881 1.13,3.124 2.156,2.156 L 0,0 z"
             style="fill:#3d9b9c;fill-opacity:1;fill-rule:nonzero;stroke:none"
             id="path3705" /></g><g
           id="g3707"
           transform="translate(658.1553,223.6104)"><path
             d="m 0,0 -5.75,0 0,-20.295 -3.248,0 0,20.295 -5.749,0 0,3.22 L 0,3.22 0,0 z"
             style="fill:#3d9b9c;fill-opacity:1;fill-rule:nonzero;stroke:none"
             id="path3709" /></g><path
           d="m 663.056,203.315 -3.205,0 0,23.515 3.205,0 0,-23.515 z"
           style="fill:#3d9b9c;fill-opacity:1;fill-rule:nonzero;stroke:none"
           id="path3711" /><g
           id="g3713"
           transform="translate(664.7803,226.8301)"><path
             d="M 0,0 3.464,0 9.4,-14.862 15.351,0 18.814,0 9.4,-23.515 0,0 z"
             style="fill:#3d9b9c;fill-opacity:1;fill-rule:nonzero;stroke:none"
             id="path3715" /></g><path
           d="m 688.525,203.315 -3.205,0 0,23.515 3.205,0 0,-23.515 z"
           style="fill:#3d9b9c;fill-opacity:1;fill-rule:nonzero;stroke:none"
           id="path3717" /><g
           id="g3719"
           transform="translate(704.9687,223.6104)"><path
             d="m 0,0 -5.75,0 0,-20.295 -3.248,0 0,20.295 -5.749,0 0,3.22 L 0,3.22 0,0 z"
             style="fill:#3d9b9c;fill-opacity:1;fill-rule:nonzero;stroke:none"
             id="path3721" /></g><g
           id="g3723"
           transform="translate(716.582,230.2793)"><path
             d="M 0,0 -5.017,-2.773 -6.339,0.072 -1.322,2.847 0,0 z m -6.698,-6.654 0,-10.924 8.006,0 0,-3.22 -8.006,0 0,-2.946 10.378,0 0,-3.22 -13.598,0 0,23.515 13.598,0 0,-3.205 -10.378,0 z"
             style="fill:#3d9b9c;fill-opacity:1;fill-rule:nonzero;stroke:none"
             id="path3725" /></g><g
           id="g3727"
           transform="translate(724.459,205.0117)"><path
             d="m 0,0 c -1.485,1.255 -2.229,2.932 -2.229,5.03 l 3.177,0 c 0,-1.198 0.46,-2.122 1.38,-2.773 C 3.075,1.739 3.914,1.48 4.844,1.48 c 1.159,0 2.138,0.292 2.939,0.877 0.8,0.584 1.2,1.427 1.2,2.53 0,0.728 -0.245,1.298 -0.733,1.71 -0.671,0.7 -1.868,1.145 -3.594,1.337 -2.414,0.288 -4.259,1.13 -5.533,2.53 -1.063,1.159 -1.596,2.505 -1.596,4.038 0,1.792 0.536,3.383 1.611,4.772 1.331,1.697 3.19,2.544 5.576,2.544 2.194,0 4.001,-0.709 5.419,-2.127 1.428,-1.419 2.141,-3.32 2.141,-5.706 l -3.162,0 c 0,1.361 -0.326,2.439 -0.977,3.234 -0.786,0.958 -1.926,1.437 -3.421,1.437 -1.657,0 -2.822,-0.685 -3.492,-2.055 -0.346,-0.709 -0.518,-1.409 -0.518,-2.099 0,-0.604 0.206,-1.174 0.618,-1.71 C 2.041,11.853 3.276,11.287 5.03,11.096 7.694,10.789 9.615,9.922 10.794,8.494 11.704,7.411 12.159,6.046 12.159,4.398 12.159,2.721 11.47,1.286 10.09,0.093 8.71,-1.1 6.961,-1.696 4.844,-1.696 2.984,-1.696 1.37,-1.131 0,0"
             style="fill:#3d9b9c;fill-opacity:1;fill-rule:nonzero;stroke:none"
             id="path3729" /></g></g></g><g
       id="g3731"><g
         id="g3733"
         clip-path="url(#clipPath3735)"><g
           id="g3739"><g
             id="g3741"><path
               d="m 114.991,190.21 0,-1.571 -0.084,0 0,-28.692 c 0,-8.095 2.034,-28.331 26.317,-28.331 l 0,0 117.629,0 c 17.811,0 21.01,12.138 21.01,23.474 l 0,0 c 0,11.333 1.133,14.57 1.133,14.57 l 0,0 c 0,10.402 6.709,16.019 15.899,18.123 l 0,0 440.923,0 0,2.427 -622.827,0 z"
               style="fill:url(#linearGradient3743);stroke:none"
               id="path3749" /></g></g></g></g><g
       id="g3751"><g
         id="g3753"
         clip-path="url(#clipPath3755)"><g
           id="g3759"
           transform="translate(135.8945,151.5381)"><path
             d="m 0,0 2.153,0 c 2.41,0 4.948,0.589 4.948,3.537 0,2.999 -2.872,3.436 -5.23,3.436 L 0,6.973 0,0 z m 0,8.818 0.82,0 c 2.436,0 4.512,0.282 4.512,3.282 0,2.921 -1.846,3.229 -4.486,3.229 L 0,15.329 0,8.818 z m -2.153,8.51 3.178,0 c 3.512,0 6.46,-1.281 6.46,-5.228 C 7.485,10.535 6.896,9.202 5.588,8.331 7.896,7.767 9.254,5.69 9.254,3.383 9.254,-0.462 6.152,-2 2.333,-2 l -4.486,0 0,19.328 z"
             style="fill:#ffffff;fill-opacity:1;fill-rule:nonzero;stroke:none"
             id="path3761" /></g><g
           id="g3763"
           transform="translate(149.4844,159.2021)"><path
             d="m 0,0 c 0,-4.357 3.538,-7.998 7.921,-7.998 4.384,0 7.921,3.641 7.921,7.998 0,4.384 -3.486,7.998 -7.921,7.998 C 3.486,7.998 0,4.384 0,0 m 17.996,-0.025 c 0,-5.563 -4.563,-9.972 -10.075,-9.972 -5.511,0 -10.074,4.409 -10.074,9.972 0,5.537 4.563,10.023 10.074,10.023 5.512,0 10.075,-4.486 10.075,-10.023"
             style="fill:#ffffff;fill-opacity:1;fill-rule:nonzero;stroke:none"
             id="path3765" /></g><g
           id="g3767"
           transform="translate(172.5098,157.3564)"><path
             d="m 0,0 c 0,-1.436 -0.051,-3.076 0.846,-4.307 0.846,-1.178 2.487,-1.845 3.896,-1.845 1.385,0 2.897,0.64 3.794,1.717 1.026,1.231 0.949,2.923 0.949,4.435 l 0,11.51 2.153,0 0,-12.1 c 0,-2.101 -0.154,-3.767 -1.692,-5.357 -1.333,-1.436 -3.256,-2.204 -5.204,-2.204 -1.82,0 -3.691,0.692 -4.998,1.973 -1.692,1.616 -1.897,3.384 -1.897,5.588 l 0,12.1 L 0,11.51 0,0 z"
             style="fill:#ffffff;fill-opacity:1;fill-rule:nonzero;stroke:none"
             id="path3769" /></g><g
           id="g3771"
           transform="translate(193.0991,149.5381)"><path
             d="m 0,0 -2.153,0 0,17.329 -4.666,0 0,1.999 11.536,0 0,-1.999 L 0,17.329 0,0 z"
             style="fill:#ffffff;fill-opacity:1;fill-rule:nonzero;stroke:none"
             id="path3773" /></g><path
           d="m 202.228,149.538 -2.153,0 0,19.328 2.153,0 0,-19.328 z"
           style="fill:#ffffff;fill-opacity:1;fill-rule:nonzero;stroke:none"
           id="path3775" /><g
           id="g3777"
           transform="translate(209.9707,175.25)"><path
             d="M 0,0 3.051,-4.204 1.769,-4.922 -2.153,-0.975 0,0 z m -3.819,-6.384 10.023,0 0,-1.999 -7.87,0 0,-5.742 7.639,0 0,-1.999 -7.639,0 0,-7.588 7.87,0 0,-2 -10.023,0 0,19.328 z"
             style="fill:#ffffff;fill-opacity:1;fill-rule:nonzero;stroke:none"
             id="path3779" /></g><g
           id="g3781"
           transform="translate(221.9971,159.9199)"><path
             d="M 0,0 0.667,0 C 3.102,0 5.562,0.462 5.562,3.461 5.562,6.64 3.23,6.947 0.641,6.947 L 0,6.947 0,0 z m 0,-10.382 -2.153,0 0,19.328 2.794,0 c 3.666,0 7.075,-0.973 7.075,-5.332 0,-2.972 -1.871,-5.075 -4.845,-5.332 l 6.152,-8.664 -2.64,0 -5.845,8.486 -0.538,0 0,-8.486 z"
             style="fill:#ffffff;fill-opacity:1;fill-rule:nonzero;stroke:none"
             id="path3783" /></g><g
           id="g3785"
           transform="translate(233.7407,168.8662)"><path
             d="m 0,0 10.023,0 0,-1.999 -7.87,0 0,-5.742 7.639,0 0,-1.999 -7.639,0 0,-7.588 7.87,0 0,-2 L 0,-19.328 0,0 z"
             style="fill:#ffffff;fill-opacity:1;fill-rule:nonzero;stroke:none"
             id="path3787" /></g><g
           id="g3789"
           transform="translate(256.2002,165.0986)"><path
             d="m 0,0 c -0.769,1.333 -1.692,2.102 -3.333,2.102 -1.717,0 -3.204,-1.231 -3.204,-2.999 0,-1.666 1.718,-2.436 3.025,-3.025 l 1.282,-0.564 c 2.512,-1.103 4.64,-2.359 4.64,-5.435 0,-3.384 -2.718,-5.973 -6.076,-5.973 -3.102,0 -5.409,1.999 -6.024,4.999 l 2.102,0.589 c 0.282,-1.973 1.795,-3.589 3.871,-3.589 2.076,0 3.973,1.59 3.973,3.769 0,2.256 -1.769,3.024 -3.563,3.845 l -1.179,0.513 c -2.256,1.026 -4.204,2.179 -4.204,4.948 0,2.999 2.538,4.922 5.409,4.922 2.153,0 3.973,-1.103 4.999,-3 L 0,0 z"
             style="fill:#ffffff;fill-opacity:1;fill-rule:nonzero;stroke:none"
             id="path3791" /></g></g></g></g></svg>