<?xml version="1.0" encoding="UTF-8" standalone="no"?>
<!-- Created with Inkscape (http://www.inkscape.org/) -->

<svg
   xmlns:dc="http://purl.org/dc/elements/1.1/"
   xmlns:cc="http://creativecommons.org/ns#"
   xmlns:rdf="http://www.w3.org/1999/02/22-rdf-syntax-ns#"
   xmlns:svg="http://www.w3.org/2000/svg"
   xmlns="http://www.w3.org/2000/svg"
   xmlns:sodipodi="http://sodipodi.sourceforge.net/DTD/sodipodi-0.dtd"
   xmlns:inkscape="http://www.inkscape.org/namespaces/inkscape"
   id="svg2"
   version="1.1"
   inkscape:version="0.48.4 r9939"
   width="750"
   height="500"
   xml:space="preserve"
   sodipodi:docname="LogoUE_CMJN.svg"><metadata
     id="metadata8"><rdf:RDF><cc:Work
         rdf:about=""><dc:format>image/svg+xml</dc:format><dc:type
           rdf:resource="http://purl.org/dc/dcmitype/StillImage" /><dc:title /></cc:Work></rdf:RDF></metadata><defs
     id="defs6"><clipPath
       clipPathUnits="userSpaceOnUse"
       id="clipPath16"><path
         d="m 0,189.071 283.465,0 L 283.465,0 0,0 0,189.071 z"
         id="path18"
         inkscape:connector-curvature="0" /></clipPath></defs><sodipodi:namedview
     pagecolor="#ffffff"
     bordercolor="#666666"
     borderopacity="1"
     objecttolerance="10"
     gridtolerance="10"
     guidetolerance="10"
     inkscape:pageopacity="0"
     inkscape:pageshadow="2"
     inkscape:window-width="1365"
     inkscape:window-height="739"
     id="namedview4"
     showgrid="false"
     inkscape:zoom="0.49928335"
     inkscape:cx="177.16562"
     inkscape:cy="158.22678"
     inkscape:window-x="0"
     inkscape:window-y="24"
     inkscape:window-maximized="0"
     inkscape:current-layer="g10" /><g
     id="g10"
     inkscape:groupmode="layer"
     inkscape:label="LogoUE_CMJN"
     transform="matrix(1.25,0,0,-1.25,0,500)"><g
       id="g12"
       transform="matrix(2.1107111,0,0,2.1107111,0,-0.00111071)"><g
         id="g14"
         clip-path="url(#clipPath16)"><path
           d="m 0,189.072 283.465,0 0,-189.071 L 0,0.001 0,189.072 z"
           style="fill:#254aa5;fill-opacity:1;fill-rule:nonzero;stroke:none"
           id="path20"
           inkscape:connector-curvature="0" /><path
           d="m 135.758,147.876 5.984,4.368 5.985,-4.368 -2.278,7.063 6.078,4.367 -7.492,0 -2.293,7.149 -2.293,-7.157 -7.488,0.008 6.074,-4.367 -2.277,-7.063 z"
           style="fill:#fff200;fill-opacity:1;fill-rule:nonzero;stroke:none"
           id="path22"
           inkscape:connector-curvature="0" /><path
           d="m 104.789,139.556 5.984,4.367 5.981,-4.367 -2.274,7.063 6.075,4.367 -7.492,0 -2.293,7.156 -2.293,-7.164 -7.489,0.008 6.075,-4.367 -2.274,-7.063 z"
           style="fill:#fff200;fill-opacity:1;fill-rule:nonzero;stroke:none"
           id="path24"
           inkscape:connector-curvature="0" /><path
           d="m 88.113,135.431 -2.293,-7.164 -7.488,0.008 6.074,-4.367 -2.277,-7.063 5.984,4.367 5.985,-4.367 -2.278,7.063 6.075,4.367 -7.489,0 -2.293,7.156 z"
           style="fill:#fff200;fill-opacity:1;fill-rule:nonzero;stroke:none"
           id="path26"
           inkscape:connector-curvature="0" /><path
           d="m 79.801,90.282 5.98,-4.367 -2.273,7.063 6.074,4.367 -7.488,0 -2.293,7.156 -2.293,-7.171 -7.492,0.015 6.078,-4.367 -2.278,-7.063 5.985,4.367 z"
           style="fill:#fff200;fill-opacity:1;fill-rule:nonzero;stroke:none"
           id="path28"
           inkscape:connector-curvature="0" /><path
           d="m 90.406,66.321 -2.293,7.157 -2.293,-7.165 -7.488,0.008 6.074,-4.367 -2.277,-7.062 5.984,4.375 5.985,-4.375 -2.278,7.062 6.075,4.367 -7.489,0 z"
           style="fill:#fff200;fill-opacity:1;fill-rule:nonzero;stroke:none"
           id="path30"
           inkscape:connector-curvature="0" /><path
           d="m 113.109,43.618 -2.293,7.149 -2.289,-7.157 -7.492,0.008 6.074,-4.367 -2.273,-7.063 5.984,4.368 5.981,-4.368 -2.274,7.063 6.075,4.367 -7.493,0 z"
           style="fill:#fff200;fill-opacity:1;fill-rule:nonzero;stroke:none"
           id="path32"
           inkscape:connector-curvature="0" /><path
           d="m 144.039,35.392 -2.293,7.156 -2.289,-7.164 -7.492,0.008 6.074,-4.368 -2.273,-7.062 5.984,4.367 5.98,-4.367 -2.277,7.062 6.078,4.368 -7.492,0 z"
           style="fill:#fff200;fill-opacity:1;fill-rule:nonzero;stroke:none"
           id="path34"
           inkscape:connector-curvature="0" /><path
           d="m 174.969,43.618 -2.289,7.149 -2.297,-7.157 -7.485,0.008 6.071,-4.367 -2.274,-7.063 5.985,4.368 5.984,-4.368 -2.281,7.063 6.078,4.367 -7.492,0 z"
           style="fill:#fff200;fill-opacity:1;fill-rule:nonzero;stroke:none"
           id="path36"
           inkscape:connector-curvature="0" /><path
           d="m 197.68,66.321 -2.297,7.157 -2.297,-7.165 -7.484,0.008 6.078,-4.367 -2.282,-7.062 5.985,4.375 5.984,-4.375 -2.281,7.062 6.078,4.367 -7.484,0 z"
           style="fill:#fff200;fill-opacity:1;fill-rule:nonzero;stroke:none"
           id="path38"
           inkscape:connector-curvature="0" /><path
           d="m 213.391,97.431 -7.493,0 -2.296,7.156 -2.289,-7.164 -7.493,0.008 6.078,-4.368 -2.273,-7.062 5.977,4.375 5.984,-4.375 -2.273,7.062 6.078,4.368 z"
           style="fill:#fff200;fill-opacity:1;fill-rule:nonzero;stroke:none"
           id="path40"
           inkscape:connector-curvature="0" /><path
           d="m 189.398,116.939 5.985,4.367 5.984,-4.367 -2.281,7.062 6.078,4.36 -7.484,0 -2.297,7.156 -2.297,-7.164 -7.484,0.008 6.078,-4.36 -2.282,-7.062 z"
           style="fill:#fff200;fill-opacity:1;fill-rule:nonzero;stroke:none"
           id="path42"
           inkscape:connector-curvature="0" /><path
           d="m 172.766,158.134 -2.289,-7.164 -7.493,0.016 6.071,-4.375 -2.274,-7.063 5.992,4.375 5.977,-4.375 -2.273,7.063 6.078,4.375 -7.5,0 -2.289,7.148 z"
           style="fill:#fff200;fill-opacity:1;fill-rule:nonzero;stroke:none"
           id="path44"
           inkscape:connector-curvature="0" /></g></g></g></svg>