<?xml version="1.0" encoding="UTF-8" standalone="no"?>
<!-- Created with Inkscape (http://www.inkscape.org/) -->

<svg
   xmlns:dc="http://purl.org/dc/elements/1.1/"
   xmlns:cc="http://creativecommons.org/ns#"
   xmlns:rdf="http://www.w3.org/1999/02/22-rdf-syntax-ns#"
   xmlns:svg="http://www.w3.org/2000/svg"
   xmlns="http://www.w3.org/2000/svg"
   xmlns:sodipodi="http://sodipodi.sourceforge.net/DTD/sodipodi-0.dtd"
   xmlns:inkscape="http://www.inkscape.org/namespaces/inkscape"
   id="svg3793"
   version="1.1"
   inkscape:version="0.48.4 r9939"
   width="743.75"
   height="1052.5"
   xml:space="preserve"
   sodipodi:docname="logo_leader_cle42ac7c.ai"><metadata
     id="metadata3799"><rdf:RDF><cc:Work
         rdf:about=""><dc:format>image/svg+xml</dc:format><dc:type
           rdf:resource="http://purl.org/dc/dcmitype/StillImage" /><dc:title></dc:title></cc:Work></rdf:RDF></metadata><defs
     id="defs3797"><clipPath
       clipPathUnits="userSpaceOnUse"
       id="clipPath3807"><path
         d="M 0,842 595,842 595,0 0,0 0,842 z"
         id="path3809" /></clipPath></defs><sodipodi:namedview
     pagecolor="#ffffff"
     bordercolor="#666666"
     borderopacity="1"
     objecttolerance="10"
     gridtolerance="10"
     guidetolerance="10"
     inkscape:pageopacity="0"
     inkscape:pageshadow="2"
     inkscape:window-width="640"
     inkscape:window-height="480"
     id="namedview3795"
     showgrid="false"
     inkscape:zoom="0.22422803"
     inkscape:cx="371.875"
     inkscape:cy="526.25"
     inkscape:window-x="0"
     inkscape:window-y="24"
     inkscape:window-maximized="0"
     inkscape:current-layer="g3801" /><g
     id="g3801"
     inkscape:groupmode="layer"
     inkscape:label="logo_leader_cle42ac7c"
     transform="matrix(1.25,0,0,-1.25,0,1052.5)"><g
       id="g3803"><g
         id="g3805"
         clip-path="url(#clipPath3807)"><g
           id="g3811"
           transform="translate(186.0498,656.5283)"><path
             d="m 0,0 4.827,0 0,0.001 C 3.533,0.313 1.807,0.194 0,0"
             style="fill:#006260;fill-opacity:1;fill-rule:nonzero;stroke:none"
             id="path3813" /></g><g
           id="g3815"
           transform="translate(178.4937,626.2578)"><path
             d="m 0,0 0,-0.07 7.372,-2.825 0,5.686 L 0,0 z"
             style="fill:#006260;fill-opacity:1;fill-rule:nonzero;stroke:none"
             id="path3817" /></g><g
           id="g3819"
           transform="translate(182.1563,718.9492)"><path
             d="m 0,0 c 0,1.214 -0.127,2.508 -0.701,3.438 -0.48,0.781 -1.273,1.306 -2.578,1.306 -2.86,0 -3.279,-2.512 -3.279,-4.744 l 0,-0.663 6.558,0 0,0.357 L 0,0 z"
             style="fill:#006260;fill-opacity:1;fill-rule:nonzero;stroke:none"
             id="path3821" /></g><g
           id="g3823"
           transform="translate(190.877,656.5298)"><path
             d="m 0,0 0,1.534 c 0,0.931 -0.123,1.828 -0.363,2.663 -0.79,2.744 -2.921,4.778 -6.672,4.892 -0.11,0.003 -0.213,0.014 -0.325,0.014 -0.718,0 -1.382,-0.08 -2.002,-0.218 C -12.81,8.119 -14.72,5.329 -14.72,1.603 l 0,-1.604 2.088,0 7.805,0 C -3.021,0.192 -1.294,0.312 0,0"
             style="fill:#006260;fill-opacity:1;fill-rule:nonzero;stroke:none"
             id="path3825" /></g><g
           id="g3827"
           transform="translate(357.2422,736.0029)"><path
             d="M 0,0 C 0.025,0.088 0.056,0.171 0.099,0.241 0.058,0.169 0.022,0.091 0,0"
             style="fill:#006260;fill-opacity:1;fill-rule:nonzero;stroke:none"
             id="path3829" /></g><g
           id="g3831"
           transform="translate(367.2773,728.7959)"><path
             d="M 0,0 C 0.031,0.284 0.08,0.56 0.146,0.828 0.109,0.687 0.07,0.547 0.044,0.401 0.021,0.271 0.012,0.135 0,0"
             style="fill:#006260;fill-opacity:1;fill-rule:nonzero;stroke:none"
             id="path3833" /></g><g
           id="g3835"
           transform="translate(368.0586,737.5532)"><path
             d="M 0,0 C -0.453,0.364 -1.035,0.564 -1.703,0.655 -1.34,0.594 -0.997,0.507 -0.689,0.384 -0.441,0.285 -0.213,0.152 0,0"
             style="fill:#006260;fill-opacity:1;fill-rule:nonzero;stroke:none"
             id="path3837" /></g><g
           id="g3839"
           transform="translate(357.874,736.7954)"><path
             d="m 0,0 c -0.188,-0.164 -0.38,-0.309 -0.511,-0.514 0.058,0.085 0.123,0.161 0.196,0.231 C -0.216,-0.187 -0.106,-0.097 0,0"
             style="fill:#006260;fill-opacity:1;fill-rule:nonzero;stroke:none"
             id="path3841" /></g><g
           id="g3843"
           transform="translate(355.8623,724.4092)"><path
             d="M 0,0 C 0.892,0.246 1.754,0.497 2.61,0.74 2.067,0.604 1.522,0.473 0.976,0.316 0.655,0.224 0.329,0.111 0,0"
             style="fill:#006260;fill-opacity:1;fill-rule:nonzero;stroke:none"
             id="path3845" /></g><g
           id="g3847"
           transform="translate(366.0576,738.25)"><path
             d="M 0,0 C 0.009,-0.001 0.018,-0.001 0.026,-0.002 0.018,-0.002 0.009,-0.001 0,0"
             style="fill:#006260;fill-opacity:1;fill-rule:nonzero;stroke:none"
             id="path3849" /></g><g
           id="g3851"
           transform="translate(368.8799,733.9453)"><path
             d="M 0,0 C -0.043,-0.229 -0.101,-0.45 -0.159,-0.669 -0.097,-0.452 -0.044,-0.229 0,0"
             style="fill:#006260;fill-opacity:1;fill-rule:nonzero;stroke:none"
             id="path3853" /></g><g
           id="g3855"
           transform="translate(367.4902,729.8862)"><path
             d="M 0,0 C -0.006,-0.023 -0.014,-0.046 -0.021,-0.069 -0.014,-0.046 -0.006,-0.023 0,0"
             style="fill:#006260;fill-opacity:1;fill-rule:nonzero;stroke:none"
             id="path3857" /></g><g
           id="g3859"
           transform="translate(358.6895,703.9141)"><path
             d="M 0,0 C 0,-0.005 0.001,-0.009 0.002,-0.015 0.001,-0.01 0,-0.005 0,0"
             style="fill:#006260;fill-opacity:1;fill-rule:nonzero;stroke:none"
             id="path3861" /></g><g
           id="g3863"
           transform="translate(358.6113,704.2427)"><path
             d="M 0,0 C 0.005,-0.015 0.008,-0.029 0.012,-0.044 0.008,-0.029 0.005,-0.015 0,0"
             style="fill:#006260;fill-opacity:1;fill-rule:nonzero;stroke:none"
             id="path3865" /></g><g
           id="g3867"
           transform="translate(356.9473,710.6992)"><path
             d="M 0,0 C -0.043,0.04 -0.086,0.078 -0.127,0.12 -0.086,0.079 -0.043,0.039 0,0"
             style="fill:#006260;fill-opacity:1;fill-rule:nonzero;stroke:none"
             id="path3869" /></g><g
           id="g3871"
           transform="translate(339.7363,697.147)"><path
             d="M 0,0 C 0.017,-0.007 0.032,-0.013 0.049,-0.02 0.033,-0.013 0.016,-0.007 0,0"
             style="fill:#006260;fill-opacity:1;fill-rule:nonzero;stroke:none"
             id="path3873" /></g><g
           id="g3875"
           transform="translate(330.0234,698.1284)"><path
             d="M 0,0 C 0.06,0.18 0.141,0.331 0.238,0.461 0.141,0.328 0.054,0.18 -0.006,0 0.619,-1.147 1.216,-2.444 1.868,-3.726 1.633,-3.201 1.41,-2.672 1.162,-2.166 0.789,-1.405 0.375,-0.688 0,0"
             style="fill:#006260;fill-opacity:1;fill-rule:nonzero;stroke:none"
             id="path3877" /></g><g
           id="g3879"
           transform="translate(342.9678,689.9917)"><path
             d="m 0,0 c -0.099,-0.933 -0.495,-1.489 -1.79,-1.201 -1.44,-0.361 -0.35,-1.792 -2.15,-1.071 -0.329,0.047 -0.647,0.103 -0.956,0.174 0.303,-0.088 0.616,-0.158 0.946,-0.205 1.8,-0.721 0.721,0.719 2.16,1.079 1.908,-0.424 1.942,1.027 1.796,2.731 C 0.036,0.962 0.046,0.44 0,0"
             style="fill:#006260;fill-opacity:1;fill-rule:nonzero;stroke:none"
             id="path3881" /></g><g
           id="g3883"
           transform="translate(342.9736,691.4985)"><path
             d="M 0,0 C -0.019,0.336 -0.044,0.678 -0.073,1.021 -0.104,1.376 -0.135,1.723 -0.15,2.056 -0.142,1.397 -0.058,0.681 0,0"
             style="fill:#006260;fill-opacity:1;fill-rule:nonzero;stroke:none"
             id="path3885" /></g><g
           id="g3887"
           transform="translate(331.8916,694.4028)"><path
             d="m 0,0 c 0.118,-0.262 0.23,-0.526 0.366,-0.779 0.408,-0.766 0.842,-1.52 1.324,-2.215 0.44,-0.631 0.949,-1.197 1.479,-1.713 0.59,-0.573 1.23,-1.095 1.972,-1.452 0.323,-0.156 0.674,-0.265 1.04,-0.35 C 3.192,-5.639 1.454,-2.858 0,0"
             style="fill:#006260;fill-opacity:1;fill-rule:nonzero;stroke:none"
             id="path3889" /></g><g
           id="g3891"
           transform="translate(330.2617,698.5894)"><path
             d="M 0,0 C 0.008,0.009 0.016,0.018 0.022,0.027 0.016,0.018 0.008,0.009 0,0"
             style="fill:#006260;fill-opacity:1;fill-rule:nonzero;stroke:none"
             id="path3893" /></g><g
           id="g3895"
           transform="translate(339.4424,697.2534)"><path
             d="M 0,0 C 0.097,-0.036 0.202,-0.071 0.294,-0.106 0.2,-0.071 0.099,-0.036 0,0"
             style="fill:#006260;fill-opacity:1;fill-rule:nonzero;stroke:none"
             id="path3897" /></g><g
           id="g3899"
           transform="translate(341.1777,688.7905)"><path
             d="M 0,0 C 1.295,-0.288 1.691,0.268 1.79,1.201 1.836,1.641 1.826,2.163 1.796,2.708 1.738,3.389 1.654,4.105 1.646,4.764 1.623,5.25 0.609,7.146 0.297,7.436 c -0.57,0.489 -0.687,0.501 -1.69,0.901 -0.016,0.006 -0.032,0.013 -0.048,0.019 -0.092,0.036 -0.198,0.071 -0.294,0.107 -0.142,0.05 -0.036,0.141 -0.191,0.192 -0.143,0.358 -0.472,0.475 -0.789,0.502 -0.412,0.031 -0.814,0.227 -1.219,0.43 -0.074,0.075 -0.48,0.305 -0.573,0.358 -0.367,0.197 -1.366,0.711 -2.222,0.789 -0.877,0.079 -2.111,-0.153 -2.838,-0.261 -0.557,-0.082 -1.021,-0.261 -1.327,-0.647 -0.006,-0.009 -0.014,-0.018 -0.022,-0.027 -0.098,-0.13 -0.179,-0.281 -0.238,-0.461 0.375,-0.689 0.789,-1.405 1.162,-2.166 0.248,-0.506 0.471,-1.035 0.706,-1.56 1.454,-2.858 3.192,-5.639 6.181,-6.508 0.308,-0.072 0.626,-0.128 0.955,-0.175 C -0.35,-1.792 -1.44,-0.36 0,0"
             style="fill:#006260;fill-opacity:1;fill-rule:nonzero;stroke:none"
             id="path3901" /></g><g
           id="g3903"
           transform="translate(356.8203,710.8188)"><path
             d="M 0,0 C -0.061,0.061 -0.117,0.128 -0.174,0.193 -0.117,0.127 -0.061,0.062 0,0"
             style="fill:#006260;fill-opacity:1;fill-rule:nonzero;stroke:none"
             id="path3905" /></g><g
           id="g3907"
           transform="translate(354.8008,712.959)"><path
             d="m 0,0 c -0.54,0.181 -1.17,0.198 -2.092,-0.079 -0.722,-0.425 -1.027,-0.937 -2.012,-0.999 -0.408,-0.025 -0.942,-0.399 -1.375,-0.357 -1.404,0.046 -2.782,0.101 -3.132,-1.128 -0.655,-1.741 -1.081,-5.759 1.439,-6.48 0.415,-0.038 0.812,-0.082 1.204,-0.128 0.526,-0.044 1.038,-0.093 1.526,-0.173 0.455,-0.075 0.891,-0.179 1.317,-0.292 0.612,-0.135 1.303,-0.515 2.462,-0.905 0.796,-0.268 2.038,-0.586 2.725,-0.646 1.691,-0.145 2.6,0.743 2.519,1.436 -0.001,0.005 -0.001,0.01 -0.001,0.015 -0.012,0.088 -0.074,0.313 -0.078,0.328 -0.039,0.114 -0.224,0.361 -0.238,0.388 -0.338,0.63 -0.715,1.103 -0.769,1.132 -0.03,0.017 -0.38,1.046 -0.241,2.497 0.009,0.118 0.015,0.232 0.024,0.35 0.05,0.604 0.016,0.705 -0.069,1.239 -0.002,0.007 -0.071,0.423 -0.072,0.43 C 2.979,-3.277 2.971,-3.074 2.838,-2.951 2.795,-2.912 2.752,-2.873 2.711,-2.832 2.65,-2.77 2.593,-2.705 2.536,-2.639 2.199,-2.256 1.91,-1.815 1.614,-1.386 1.191,-0.773 0.729,-0.245 0,0"
             style="fill:#006260;fill-opacity:1;fill-rule:nonzero;stroke:none"
             id="path3909" /></g><g
           id="g3911"
           transform="translate(368.1846,731.6714)"><path
             d="M 0,0 C 0.21,0.516 0.386,1.052 0.536,1.604 0.196,0.424 -0.366,-0.626 -0.694,-1.785 -0.507,-1.171 -0.241,-0.592 0,0"
             style="fill:#006260;fill-opacity:1;fill-rule:nonzero;stroke:none"
             id="path3913" /></g><g
           id="g3915"
           transform="translate(357.3408,736.2441)"><path
             d="M 0,0 C 0.007,0.013 0.015,0.025 0.022,0.038 0.015,0.025 0.008,0.012 0,0"
             style="fill:#006260;fill-opacity:1;fill-rule:nonzero;stroke:none"
             id="path3917" /></g><g
           id="g3919"
           transform="translate(366.084,738.2476)"><path
             d="M 0,0 C 0.094,-0.009 0.18,-0.027 0.271,-0.039 0.182,-0.024 0.092,-0.012 0,0"
             style="fill:#006260;fill-opacity:1;fill-rule:nonzero;stroke:none"
             id="path3921" /></g><g
           id="g3923"
           transform="translate(368.8984,736.2881)"><path
             d="m 0,0 c 0.158,-0.871 0.119,-1.634 -0.019,-2.343 0.015,0.075 0.04,0.143 0.052,0.218 0.104,0.646 0.18,1.362 0.039,2.143 C -0.1,0.59 -0.434,0.978 -0.84,1.265 -0.465,0.966 -0.17,0.565 0,0"
             style="fill:#006260;fill-opacity:1;fill-rule:nonzero;stroke:none"
             id="path3925" /></g><g
           id="g3927"
           transform="translate(366.0576,738.25)"><path
             d="M 0,0 C -0.359,0.043 -0.735,0.065 -1.132,0.055 -1.433,0.047 -1.745,0.013 -2.059,-0.021 -1.333,0.031 -0.634,0.056 0,0"
             style="fill:#006260;fill-opacity:1;fill-rule:nonzero;stroke:none"
             id="path3929" /></g><g
           id="g3931"
           transform="translate(367.4697,729.8169)"><path
             d="M 0,0 C -0.017,-0.063 -0.03,-0.129 -0.046,-0.193 -0.03,-0.129 -0.019,-0.063 0,0"
             style="fill:#006260;fill-opacity:1;fill-rule:nonzero;stroke:none"
             id="path3933" /></g><g
           id="g3935"
           transform="translate(354.498,724.0469)"><path
             d="m 0,0 c 0.525,-0.362 0.701,0.18 1.364,0.362 0.329,0.112 0.656,0.224 0.976,0.316 0.547,0.157 1.092,0.288 1.635,0.424 1.48,0.42 1.076,-0.079 2.716,0.185 0.09,0.017 1.559,0.488 1.65,0.502 0.054,0.008 1.45,0.566 1.505,0.573 0.567,0.082 1.975,0.448 2.724,0.932 0.84,0.543 0.169,1.098 0.209,1.455 0.012,0.135 0.022,0.272 0.044,0.401 0.027,0.146 0.066,0.286 0.103,0.427 0.015,0.064 0.029,0.13 0.046,0.193 0.007,0.023 0.014,0.046 0.02,0.069 0.328,1.16 0.891,2.21 1.231,3.39 0.058,0.22 0.116,0.44 0.159,0.669 0.138,0.709 0.177,1.472 0.018,2.343 -0.17,0.565 -0.464,0.966 -0.839,1.265 -0.213,0.153 -0.442,0.286 -0.69,0.384 -0.308,0.123 -0.65,0.21 -1.014,0.272 -0.091,0.012 -0.177,0.03 -0.271,0.039 -0.009,10e-4 -0.018,10e-4 -0.026,0.002 -0.634,0.056 -1.333,0.031 -2.059,-0.021 C 9.059,14.133 8.609,14.076 8.154,14.033 7.369,13.959 7.018,14.134 6.262,14.121 5.871,14.113 5.047,13.893 4.676,13.941 3.824,13.833 3.674,13.007 3.376,12.749 3.27,12.651 3.16,12.562 3.061,12.466 2.988,12.396 2.923,12.32 2.865,12.235 2.857,12.223 2.85,12.21 2.843,12.197 2.8,12.127 2.77,12.044 2.744,11.956 2.679,11.692 2.605,10.822 2.396,10.381 2.162,10.199 1.387,9.962 1.458,9.317 0.952,8.573 0.741,7.668 0.383,6.879 -0.247,3.448 -1.313,1.643 0,0"
             style="fill:#006260;fill-opacity:1;fill-rule:nonzero;stroke:none"
             id="path3937" /></g><g
           id="g3939"
           transform="translate(335.2656,732.2461)"><path
             d="M 0,0 C -0.193,0.578 -0.894,0.629 -1.677,0.618 -2.014,0.612 -2.889,0.961 -3.757,0.544 -4.641,0.121 -5.518,-1.071 -5.864,-1.465 -6.05,-1.676 -7.197,-3.758 -7.342,-4.833 -7.51,-6.099 -7.68,-7.458 -7.693,-7.635 c -0.033,-0.461 0.015,-0.834 0.275,-0.994 0.287,-0.149 0.975,-0.309 1.726,-0.434 0.358,-0.554 0.721,-0.793 0.721,-1.355 0.278,-0.832 0.772,-1.264 1.479,-1.513 0.664,-0.234 1.46,-0.267 2.328,-0.268 0.282,0 1.299,-0.167 1.996,0.053 0.809,0.255 1.307,0.919 1.635,1.185 0.121,0.099 0.233,0.216 0.328,0.351 0.228,0.355 0.311,0.854 0.092,1.621 -0.526,1.837 0.717,4.293 1.027,5.733 0.116,0.534 -0.427,1.217 -0.473,1.262 -0.418,0.39 -0.83,0.728 -1.347,1.049 C 1.561,-0.615 0.908,-0.304 0,0"
             style="fill:#006260;fill-opacity:1;fill-rule:nonzero;stroke:none"
             id="path3941" /></g><g
           id="g3943"
           transform="translate(309.043,720.2896)"><path
             d="m 0,0 c -0.239,-0.887 -0.126,-1.896 0.143,-2.249 0.296,-0.388 0.671,-0.733 1.068,-1.065 0.435,-0.346 1.393,-1.806 2.947,-2.708 1.99,-1.156 4.145,-1.675 4.875,-2.582 0.116,-0.124 0.973,-1.015 1.506,-1.218 0.756,-0.287 1.777,0.003 1.963,0.391 0.207,0.436 0.269,1.042 0.256,1.731 -0.02,0.454 -0.067,0.943 -0.122,1.447 -0.088,0.632 -0.202,1.279 -0.24,1.905 -0.027,0.447 0.014,0.499 0.079,0.907 0.016,0.185 0.279,1.051 0.144,1.433 -0.135,0.383 -0.681,0.666 -0.847,0.779 -0.482,0.293 -0.991,0.548 -1.352,0.898 -0.272,0.264 0.142,1.791 -0.239,2.769 C 9.801,3.415 8.626,3.84 8.267,3.99 7.857,4.161 7.426,4.259 6.98,4.292 5.611,4.361 4.113,3.802 2.778,3.008 2.688,2.956 2.599,2.904 2.51,2.849 2.306,2.72 2.104,2.588 1.91,2.451 1.892,2.438 1.874,2.425 1.855,2.412 1.566,2.206 1.297,1.992 1.037,1.776 0.792,1.563 0.227,0.841 0,0"
             style="fill:#006260;fill-opacity:1;fill-rule:nonzero;stroke:none"
             id="path3945" /></g><g
           id="g3947"
           transform="translate(407.5313,553.7817)"><path
             d="m 0,0 -102.66,0 0,22.849 c 42.535,0.444 78.301,29.125 89.421,68.198 l -12.992,3.626 C -35.771,61.277 -66.308,36.753 -102.66,36.31 l 0,95.706 0,3.04 c 0.283,0.343 0.642,0.868 1.192,1.199 0.571,0.344 1.114,0.953 1.836,1.387 0.708,0.424 1.546,0.746 2.312,1.204 0.699,0.418 1.389,0.867 2.069,1.27 0.835,0.496 1.864,0.57 2.562,0.979 1.155,0.677 1.898,1.42 2.232,1.588 0.543,0.271 1.189,0.73 1.85,1.064 1.08,0.546 1.125,0.338 2.093,0.96 0.498,0.448 0.935,0.955 1.457,1.32 0.614,0.429 1.371,0.603 2.006,0.957 0.717,0.4 1.462,0.712 2.188,1.075 0.658,0.329 1.109,1.053 1.761,1.401 0.725,0.386 1.622,0.481 2.323,0.951 0.627,0.421 3.152,1.782 3.734,2.058 0.678,0.323 1.14,0.993 1.738,1.369 0.684,0.43 1.27,0.933 1.88,1.432 0.618,0.505 1.236,0.99 1.81,1.566 0.516,0.52 0.942,0.969 1.447,1.546 0.902,1.054 2.121,1.197 3.199,2.043 0.508,0.127 1.442,0.54 2.148,0.803 0.659,0.245 0.927,0.469 1.497,0.911 0.555,0.432 1.02,0.955 1.251,1.647 0.335,1.027 0.914,2.439 0.693,3.25 -0.215,0.788 -1.003,1.577 -1.541,1.53 -0.836,-0.065 -1.381,-0.223 -2.092,-0.528 -0.755,-0.325 -1.436,-0.677 -2.079,-1.193 -0.707,-0.568 -1.236,-1.293 -1.844,-1.985 -0.608,-0.693 -1.414,-1.272 -2.158,-1.767 -1.614,-1.075 -2.498,-1.782 -2.976,-2.008 -1.217,-0.574 -2.074,-1.113 -2.58,-1.721 -0.486,-0.581 -0.534,-0.536 -1.067,-1.065 -0.293,-0.291 -1.357,-0.501 -2.232,-0.942 -0.733,-0.37 -1.291,-0.986 -1.563,-1.133 -0.651,-0.353 -1.542,-0.233 -2.299,-0.472 -0.74,-0.233 -1.146,-0.699 -1.873,-0.976 -0.723,-0.275 -1.769,-1.041 -2.366,-1.506 -0.59,-0.459 -2.838,-2.038 -3.489,-2.491 -0.736,-0.512 -1.574,-0.895 -2.295,-1.471 -0.709,-0.567 -1.377,-1.348 -2.365,-1.594 -0.862,-0.267 -0.469,-0.245 -1.422,-0.96 -0.333,-0.249 -1,-0.352 -1.52,-0.647 -0.966,-0.548 -1.001,-0.501 -2.009,-0.983 -0.869,-0.416 -0.856,-0.445 -1.728,-0.853 -0.913,-0.426 -0.708,-0.599 -1.589,-1.087 -0.752,-0.417 -0.865,-0.37 -1.58,-0.846 -0.356,-0.238 -0.292,-0.191 -0.549,-0.534 -0.021,-0.028 -0.041,-0.047 -0.062,-0.072 l 0,53.473 c -0.106,0.003 -0.21,0.007 -0.317,0.007 -36.792,0 -67.801,-24.682 -77.427,-58.384 l -12.992,3.626 c 11.207,39.38 47.445,68.219 90.419,68.219 0.106,0 0.211,-0.002 0.317,-0.004 l 0,20.651 L 0,229.32 0,0 z m -235.993,235.994 0,-62.767 c 1.24,2.327 3.492,3.801 6.92,3.801 3.628,0 6.768,-2.024 7.43,-5.756 l 10.779,8.267 0,-8.511 -10.116,-6.453 0,-0.071 10.116,0 0,-6.837 -25.129,0 0,-13.888 4.618,0 0,-8.128 4.396,0 0,7.71 5.79,0 0,-7.71 4.535,0 0,8.128 5.79,0 0,-14.965 -25.129,0 0,-17.692 c 2.042,4.606 6.566,7.845 11.979,7.845 7.394,0 13.15,-6.07 13.15,-13.36 l 0,-9.697 -25.129,0 0,-19.223 23.129,9.428 2.801,-7.29 -5.371,-1.709 0,-9.419 5.371,-1.814 -2.801,-7.255 -23.129,9.628 0,-20.145 4.618,0 0,-8.128 4.396,0 0,7.709 5.79,0 0,-7.709 4.535,0 0,8.128 5.79,0 0,-14.965 -25.129,0 0,-20.1 19.339,0 0,8.198 5.79,0 0,-15.035 -25.129,0 0,-12.882 242.667,0 0,242.667 -242.667,0 z"
             style="fill:#006260;fill-opacity:1;fill-rule:nonzero;stroke:none"
             id="path3949" /></g><g
           id="g3951"
           transform="translate(274.2065,644.2715)"><path
             d="m 0,0 c 0,-0.509 0.236,-0.913 0.376,-1.314 0.14,-0.401 0.396,-0.723 0.597,-1.084 0.205,-0.371 0.336,-0.79 0.521,-1.169 0.186,-0.379 0.534,-0.581 0.82,-0.888 0.288,-0.308 0.599,-0.576 0.893,-0.869 0.293,-0.293 0.441,-0.749 0.676,-1.086 0.192,-0.274 0.422,-0.636 0.488,-1.004 0.067,-0.367 0.936,-1.53 1.358,-1.815 0.42,-0.285 0.653,-0.722 0.731,-1.176 0.071,-0.408 0.123,-0.865 0.04,-1.318 -0.082,-0.453 -0.376,-0.905 -0.336,-1.325 0.028,-0.293 0.385,-0.599 0.723,-1.03 0.338,-0.429 0.607,-1.08 1.069,-1.803 0.273,-0.428 0.579,-1.023 0.841,-1.619 0.263,-0.596 0.561,-1.194 0.826,-1.418 0.412,-0.349 0.659,-0.669 0.713,-1.109 0.055,-0.439 0.042,-0.903 0.223,-1.263 -0.463,-0.216 -0.803,-0.665 -1.172,-0.84 -0.369,-0.175 -0.8,-0.19 -1.057,-0.189 -0.473,10e-4 -0.892,0.304 -1.16,0.628 -0.269,0.324 -0.217,0.864 -0.362,1.239 -0.138,0.356 -0.436,0.791 -0.717,1.191 -0.28,0.399 -0.729,0.682 -0.982,0.974 -0.185,0.213 -0.703,0.71 -1.202,1.266 -0.499,0.557 -1.116,1.1 -1.321,1.461 -0.204,0.363 -0.451,0.603 -0.706,0.89 -0.255,0.285 -0.56,0.499 -0.858,0.785 -0.297,0.285 -0.456,0.675 -0.743,0.933 -0.288,0.258 -0.439,0.722 -0.809,0.911 -0.32,0.164 -0.758,-0.065 -1.121,-0.027 -0.364,0.039 -0.527,0.55 -0.889,0.63 -0.397,0.198 -0.625,0.481 -0.833,1 -0.209,0.519 -0.412,1.006 -0.577,1.44 -0.161,0.426 -0.673,0.689 -0.84,1.052 -0.166,0.363 -0.282,0.55 -0.611,0.727 -0.249,0.134 -1.052,0.48 -1.847,0.908 -0.795,0.428 -1.613,1.012 -1.912,1.326 -0.326,0.342 -0.747,0.501 -1.187,0.729 -0.44,0.229 -0.824,0.615 -1.07,0.978 -0.231,0.342 -0.197,0.827 -0.119,1.294 0.079,0.467 -0.023,0.951 -0.044,1.451 -0.014,0.334 0.201,0.644 0.169,0.974 -0.032,0.33 -0.207,0.886 -0.077,1.341 0.468,0.134 1.116,0.148 1.452,0.499 0.336,0.352 0.352,1.001 0.661,1.402 0.276,0.358 0.822,0.446 1.13,0.721 0.308,0.274 0.656,0.454 1.015,0.675 0.319,0.196 0.484,0.642 0.82,0.749 0.335,0.107 0.876,0.123 1.409,-0.036 0.127,-0.448 0.266,-0.927 0.584,-1.237 0.317,-0.31 0.888,-0.378 1.229,-0.701 0.309,-0.292 0.467,-0.826 0.686,-1.229 0.219,-0.404 0.36,-0.819 0.68,-1.097 C -1.501,1.25 -1.053,1.162 -0.68,0.956 -0.308,0.75 -0.174,0.348 0,0 m -31.974,3.187 c 0.558,-0.625 1.122,-1.182 1.52,-1.934 0.171,-0.323 0.719,-1.196 1.414,-1.691 0.855,-0.608 1.892,-0.838 2.223,-1.131 0.64,-0.568 1.544,-0.963 2.149,-1.632 0.303,-0.336 2.13,-0.658 3.461,-1.404 1.143,-0.641 1.814,-1.713 2.05,-2.001 0.503,-0.614 1.279,-1.025 1.786,-1.647 0.501,-0.614 1.235,-0.947 1.847,-1.429 0.591,-0.466 1.164,-0.746 1.955,-0.962 0.631,-0.171 1.99,-1.964 2.055,-2.714 0.049,-0.566 0.121,-0.958 0.74,-1.268 0.92,0.131 1.313,-0.605 1.842,-1.187 0.51,-0.562 1.362,-0.754 2.019,-1.179 0.528,-0.341 0.92,-0.965 1.836,-0.76 0.371,-0.742 0.348,-1.645 0.697,-2.514 0.173,-0.431 0.858,-1.334 1.591,-2.187 0.732,-0.853 1.514,-1.657 1.884,-1.89 0.667,-0.42 1.209,-1.079 2.208,-1.079 0.198,-0.794 0.424,-1.482 0.86,-2.196 0.39,-0.639 1.141,-1.073 1.585,-1.695 0.446,-0.626 1.018,-1.181 1.386,-1.833 0.341,-0.603 0.543,-1.289 0.708,-1.95 0.263,-0.791 0.676,-1.764 1.173,-2.677 0.49,-0.899 0.712,-1.715 0.58,-2.597 -0.101,-0.669 -0.785,-3.233 -1.176,-3.435 -0.445,-0.231 -1.063,-0.089 -1.932,0.055 -0.731,0.12 -2.875,0.203 -3.86,0.312 -0.873,0.097 -2.289,0.474 -3.27,0.433 -0.909,-0.037 -1.726,0.497 -2.524,0.67 -0.77,0.167 -1.324,0.291 -1.813,0.942 -0.562,0.421 -1.739,0.036 -2.701,0.233 -0.754,0.154 -1.32,1.132 -2.04,1.382 -0.717,0.249 -1.356,0.37 -1.795,0.918 -0.525,0.131 -1.299,0.304 -2.026,0.618 -0.614,0.266 -1.423,0.189 -2.065,0.447 -0.677,0.272 -1.196,1.043 -1.782,1.16 -0.809,0.081 -1.547,0.164 -2.247,0.326 -0.822,0.19 -1.722,-0.003 -2.394,0.324 -0.692,0.336 -1.379,0.769 -1.911,1.277 -0.468,0.448 -0.85,0.756 -1.195,1.358 -0.948,-0.118 -1.643,0.241 -2.12,0.621 -0.558,0.444 -0.695,1.372 -1.297,1.656 -0.445,0.21 -2.136,1.65 -2.544,2.373 -0.409,0.725 -1.436,0.94 -2.031,1.512 -0.593,0.569 -0.897,1.482 -1.637,1.863 -0.641,0.329 -1.278,0.566 -2.004,0.727 -0.272,1.088 -0.88,1.865 -1.697,2.3 -0.725,0.385 -1.638,0.657 -2.532,0.933 -0.764,0.236 -1.406,0.539 -2.128,0.952 -0.646,0.582 -1.308,0.993 -1.808,1.646 -0.502,0.656 -0.683,1.491 -1.117,2.176 -0.432,0.682 -1.408,1.009 -1.852,1.68 -0.439,0.662 -0.519,1.603 -1.046,2.214 -0.461,0.536 -0.918,1.19 -1.501,1.658 -0.489,0.393 -1.577,0.197 -2.185,0.524 -0.361,0.843 -0.255,2 -0.616,2.842 -0.361,0.842 -0.702,1.694 -1.063,2.536 -0.358,0.835 -1.166,1.503 -1.524,2.338 -0.162,0.754 -0.353,1.602 -0.443,2.442 -0.081,0.747 0.036,1.55 -0.002,2.349 -0.039,0.789 0.08,1.607 0.07,2.431 -0.011,0.819 0.309,1.651 0.312,2.491 0.004,0.754 -0.186,1.515 -0.181,2.276 0.005,0.764 0.012,1.529 0.009,2.288 -10e-4,0.537 0.088,1.074 0.135,1.606 0.021,0.227 0.036,0.454 0.029,0.678 -0.008,0.319 -0.175,1.741 0.202,2.133 0.378,0.391 1.3,-0.249 1.67,-0.245 0.815,0.008 1.657,0.149 1.846,-0.417 0.521,-0.074 0.918,-0.265 1.253,-0.506 0.501,-0.363 0.857,-0.841 1.244,-1.235 0.604,-0.615 1.204,-1.204 2.074,-1.725 0.687,-0.393 1.552,-0.425 2.285,-0.779 0.722,-0.348 1.118,-1.422 1.87,-1.761 0.669,-0.3 1.634,0.032 2.316,-0.282 0.632,-0.29 1.224,-0.872 1.859,-1.19 -0.126,-1.268 0.363,-1.939 1.219,-2.224 0.775,-0.258 1.852,-0.007 2.598,-0.293 0.4,-0.153 0.808,-1.181 1.6,-1.676 l 3.899,-2.375 z M -45.54,23.062 c 0.394,0.014 0.919,-0.136 1.319,-0.059 0.399,0.078 0.853,-0.104 1.254,-0.09 0.411,0.015 0.791,0.31 1.206,0.394 0.415,0.084 0.883,0.143 1.27,0.112 0.403,-0.033 0.743,-0.501 1.138,-0.629 0.396,-0.129 0.896,0.054 1.239,-0.079 0.152,-0.059 0.147,-0.395 0.262,-0.523 0.117,-0.128 0.539,-0.065 0.637,-0.225 0.092,-0.151 0.339,-0.672 0.449,-0.782 0.382,-0.16 0.627,-0.614 1.02,-0.809 0.392,-0.196 2.019,-0.771 2.473,-0.744 0.453,0.029 0.736,-0.082 1.114,-0.246 0.522,-0.39 4.393,-1.002 4.812,-1.088 0.403,-0.083 3.144,-0.877 3.538,-0.789 0.395,0.088 0.821,0.076 1.239,0.112 0.328,0.029 0.665,-0.031 1.012,-0.052 0.347,-0.021 1,-0.74 1.351,-0.67 0.208,-0.348 0.59,-0.431 0.834,-0.833 0.244,-0.402 1.386,-0.604 1.666,-1 0.246,-0.346 4.301,-0.952 4.688,-1.102 0.388,-0.149 1.097,-0.657 1.146,-1.065 0.038,-0.314 0.243,-1.09 0.166,-1.5 -0.076,-0.409 -1.285,-1.732 -1.328,-2.123 -0.043,-0.391 -0.643,-1.594 -1.103,-1.831 -0.461,-0.236 -0.988,-0.313 -1.29,-0.728 -0.249,-0.344 -0.542,-0.708 -0.692,-1.13 -0.149,-0.423 -0.302,-0.806 -0.527,-1.148 -0.291,-0.443 -0.237,-1.135 -0.518,-1.518 -0.28,-0.383 -0.757,-0.609 -1.116,-0.719 -0.3,-0.091 -0.625,0.188 -0.992,0.466 -0.368,0.277 -0.707,0.981 -1.223,1.229 -1.044,0.502 -1.596,0.749 -1.596,1.108 -0.082,0.219 -0.319,0.749 -0.613,1.225 -0.294,0.474 -0.706,0.999 -1.056,1.299 -0.35,0.301 -0.809,0.234 -1.111,0.284 -0.302,0.05 -0.582,0.028 -0.781,0.105 -0.4,0.153 -0.782,0.391 -1.16,0.61 -0.378,0.219 -0.784,0.26 -1.206,0.361 -0.427,0.103 -0.834,0.604 -1.287,0.613 -0.454,0.009 -1.894,0.405 -2.146,0.766 -0.253,0.359 -0.642,0.613 -0.917,0.903 -0.226,0.237 -0.368,0.603 -0.533,0.935 -0.165,0.333 -1.276,0.989 -1.66,1.087 -0.382,0.098 -0.529,0.673 -0.819,0.871 -0.325,0.221 -0.83,0.192 -1.077,0.474 -0.247,0.283 -0.566,0.506 -0.819,0.799 -0.247,0.284 -0.352,0.771 -0.723,0.914 -0.372,0.143 -0.654,0.322 -0.95,0.547 -0.276,0.21 -0.707,0.112 -0.991,0.232 -0.284,0.12 -0.595,0.163 -1.01,0.214 -0.277,0.034 -0.621,0.076 -0.892,0.218 -0.27,0.143 -0.385,0.556 -0.76,0.481 0,0.361 -0.212,0.896 -0.581,1.233 -0.368,0.337 -0.966,0.302 -1.127,0.309 -0.412,0.019 -0.644,0.381 -0.915,0.611 -0.27,0.229 -0.649,0.356 -0.826,0.612 -0.21,0.303 -0.522,0.867 -0.948,1.244 -0.426,0.377 -0.064,0.949 0.361,0.909 0.426,-0.039 0.661,0.189 1.099,0.205 m 76.18,28.08 C 30.536,51.09 29.827,50.46 29.625,50.417 29.35,50.335 29.385,50.202 29.118,50.098 28.858,49.963 28.576,49.269 28.393,48.904 27.846,48.447 27.461,48.508 27.059,48.392 26.18,48.138 26.036,48.113 25.088,47.562 24.25,47.074 23.519,46.285 23.277,46.059 22.686,45.507 22.273,44.845 21.632,44.35 21.159,43.984 20.442,43.858 19.797,43.467 19.56,43.143 19.437,42.62 19.096,42.454 18.893,42.354 18.478,42.333 18.135,42.062 17.792,41.79 17.521,41.267 17.201,40.889 16.782,40.396 16.318,39.969 16.217,39.792 16.181,39.728 16.207,39.628 16.16,39.572 16.088,39.486 15.961,39.458 15.87,39.386 15.681,39.235 15.722,38.87 15.501,38.744 15.088,38.128 14.5,37.699 14.033,37.15 13.899,36.705 13.48,36.499 13.189,36.187 12.906,35.883 12.723,35.464 12.301,35.287 11.852,34.832 11.392,34.59 10.923,34.124 10.748,33.758 10.491,33.272 10.215,32.992 9.754,32.521 9.488,32.269 8.847,31.996 7.754,31.531 7.101,31.055 6.616,30.543 6.171,30.073 5.734,29.35 5.163,28.779 4.646,28.262 3.734,27.455 3.255,27.423 2.746,27.205 2.452,26.607 1.991,26.322 1.638,25.869 1.398,25.245 0.968,24.898 0.574,24.58 -0.06,24.524 -0.556,24.321 -1.153,23.75 -1.826,23.295 -2.384,22.673 -2.831,22.174 -3.52,21.845 -3.96,21.34 c -0.094,-0.248 0.197,-0.796 0.034,-0.981 -0.505,-0.57 -0.909,-1.267 -1.437,-1.798 -0.242,-0.244 -0.583,-0.437 -0.963,-0.463 -0.252,-0.233 -0.54,-0.502 -0.804,-0.718 -0.694,0 -1.456,0.276 -2.474,0.276 -0.038,-10e-4 -0.229,0.268 -0.269,0.268 -0.36,0.361 -0.392,0.392 -1.079,0.784 -0.801,0.459 -1.512,-0.019 -2.342,0.364 -0.756,0.348 -1.306,1.181 -2.035,1.582 -0.345,0.19 -0.627,0.46 -0.86,0.843 -0.747,0.434 -1.458,0.992 -2.193,1.448 -0.381,0.016 -0.834,-0.265 -1.14,-0.073 -0.856,-0.096 -1.485,0.66 -2.207,0.904 -0.778,0.264 -1.822,0.012 -2.604,0.398 -0.306,0.151 -0.265,0.936 -0.529,1.239 -0.328,0.14 -0.819,0.116 -1.176,0.226 -0.614,0.19 -1.302,0.481 -2.044,0.513 -0.129,-0.014 -0.363,-0.328 -0.491,-0.328 -0.098,0.442 -0.21,0.833 -0.443,1.142 -0.54,0.589 -1.319,1.014 -2.252,1.201 -0.734,0.148 -1.569,0.027 -2.321,0.18 -0.727,0.147 -1.325,0.559 -1.889,0.916 -0.307,0.195 -0.647,0.325 -0.864,0.63 -0.504,0.151 -1.056,0.272 -1.637,0.359 -0.521,0.078 -1.042,-0.149 -1.609,-0.108 -0.464,-0.154 -0.974,-0.158 -1.448,-0.143 -0.802,0.024 -1.616,0.184 -2.458,0.18 -0.645,-0.003 -1.278,0.526 -1.931,0.604 -0.407,-0.004 -0.832,-0.311 -1.237,-0.311 -0.559,-0.07 -1.122,-0.393 -1.669,-0.381 -0.705,0.015 -1.197,0.146 -1.867,0.198 -0.175,-0.349 -0.684,-0.272 -1.005,-0.435 -0.412,-0.524 -0.791,-1.022 -1.348,-1.344 -0.55,-0.319 -1.072,-0.732 -1.73,-0.836 -0.544,-0.085 -1.103,0.189 -1.699,0.262 -0.047,0.001 -0.235,0.018 -0.283,0.024 -0.779,-0.389 -1.052,-1.509 -1.704,-2.146 -0.323,-0.315 -0.75,-0.564 -1.17,-0.812 -0.422,-0.554 -0.949,-1.038 -1.246,-1.68 -0.007,-0.433 0.363,-0.881 0.241,-1.309 0.192,-0.479 -1.15,-0.515 -1.443,-0.722 -0.013,-0.009 -0.444,-0.217 -1.449,-0.743 -0.767,-0.402 -1.452,-1.968 -1.574,-2.271 -0.213,-0.522 -0.447,-0.93 -0.421,-1.557 0.009,-0.207 -0.474,-1.424 -0.545,-1.6 -0.399,-1.337 -0.353,-1.354 -0.721,-2.7 -0.376,-1.376 -0.058,-1.605 -0.064,-2.861 -0.006,-1.123 -0.035,-1.973 0.027,-2.267 0.157,-0.752 0.353,-1.558 0.385,-2.414 0.012,-0.322 -0.071,-0.632 -0.172,-0.963 0.003,-0.575 0.291,-1.177 0.279,-1.763 -0.011,-0.53 -0.063,-1.047 -0.071,-1.572 0.063,-0.251 -0.145,-0.51 -0.145,-0.755 -0.001,-0.827 0.404,-1.589 0.481,-2.341 0.032,-0.303 0.082,-0.643 0.001,-0.966 0.078,-0.421 -0.103,-0.84 0.032,-1.211 0.383,-0.96 0.911,-1.505 1.404,-2.069 0.432,-0.493 0.766,-1.053 1.437,-1.556 0,-0.72 0.236,-1.247 0.405,-1.765 0.065,-0.163 -0.078,-0.405 -0.013,-0.562 0.072,-0.174 0.071,-0.38 0.142,-0.549 0.313,-0.654 1.047,-1.101 1.269,-1.865 0.258,-0.395 0.315,-0.918 0.315,-1.547 0.718,-0.43 1.141,-1.167 1.534,-1.89 0.735,-0.994 1.425,-1.774 2.29,-1.989 0.352,-0.353 0.651,-0.945 1.106,-1.258 0.285,-0.154 0.513,-0.383 0.778,-0.578 0.209,-0.154 0.551,-0.139 0.717,-0.329 0.231,-0.205 0.302,-1.099 0.64,-1.928 0.199,-0.486 0.544,-0.934 0.836,-1.344 0.306,-0.428 1.01,-0.858 1.896,-1.165 0.553,-0.192 1.147,-0.365 1.698,-0.623 0.647,-0.302 0.99,-0.745 1.329,-1.15 0.413,-0.494 0.7,-1.018 0.937,-1.257 0.464,-0.22 2.472,-0.784 2.812,-1.13 0.419,-0.428 -0.287,-0.466 0.024,-0.995 0.654,-0.677 1.532,-1.163 2.154,-1.831 0.299,-0.321 0.995,-1.402 2.173,-2.075 0.64,-0.367 1.535,-0.37 2.211,-0.661 0.849,-0.367 1.676,-0.559 2.122,-0.768 0.101,-0.039 0.197,-0.103 0.294,-0.15 0.778,-0.379 1.488,-0.924 2.171,-1.412 0.693,-0.493 1.529,-0.905 2.074,-1.529 0.374,-0.428 1.406,-2.456 1.673,-2.566 0.603,-0.151 1.176,-0.226 1.684,-0.49 0.339,-0.176 0.796,-0.161 1.081,-0.443 0.658,-0.345 1.24,-0.814 1.971,-1.088 0.619,-0.232 1.276,-0.496 2.022,-0.617 0.56,-0.09 1.156,-0.193 1.822,-0.193 0.362,-0.181 1.161,-0.268 1.943,-0.617 0.535,-0.239 1.039,-0.613 1.548,-0.768 1.251,-0.379 2.166,-0.41 2.294,-0.436 0.382,0.095 0.838,0.22 1.29,0.037 0.625,-0.03 1.677,-1.822 2.343,-1.989 0.587,-0.257 1.219,-0.785 1.973,-0.872 0.685,-0.079 1.402,0.238 2.02,0.232 0.639,-0.005 1.157,-0.096 1.512,-0.093 0.488,0.196 2.35,0.04 2.779,-0.182 0.854,-0.02 1.695,-0.125 2.523,-0.21 0.721,-0.075 1.401,-0.297 2.094,-0.438 0.244,-0.024 0.471,0.08 0.706,0.021 0.907,-0.635 1.624,-0.221 2.309,-0.127 0.408,0.056 0.819,0.024 1.244,0.083 0.237,0.115 1.077,0.217 2.097,0.367 0.609,0.089 1.285,0.143 1.953,0.3 0.52,0.121 0.956,0.409 1.424,0.594 0.587,0.232 1.142,0.334 1.532,0.667 0.678,0.579 1.168,0.861 1.337,0.871 0.245,0.088 0.45,0.22 0.717,0.239 0.857,0.06 1.415,0.363 1.735,0.942 0.224,0.405 0.139,0.917 -0.209,1.89 0.146,0.727 0.118,1.422 -0.107,1.948 -0.331,0.775 -0.98,1.251 -0.917,1.543 -0.011,0.672 0.198,1.324 0.331,1.926 -0.022,0.527 -0.154,0.902 0.172,1.229 0.697,0.244 1.402,0.318 1.937,0.521 0.668,0.501 1.109,1.237 1.334,1.901 0.22,0.645 0.419,1.432 0.353,2.192 -0.057,0.655 -0.553,1.303 -0.733,2.016 -0.173,0.694 -0.461,1.385 -0.673,2.112 -0.188,0.641 0.016,1.393 -0.145,2.042 -0.138,0.554 -0.71,0.964 -0.794,1.513 -0.292,0.387 -0.57,0.843 -0.588,1.254 -0.031,0.713 0.513,1.454 0.681,2.129 0,0.402 -0.227,0.844 -0.072,1.227 -0.04,0.757 -0.195,1.415 -0.306,2.111 -0.115,0.713 0.189,1.488 0.006,2.146 -0.208,0.752 -0.819,1.346 -1.107,2.039 -0.257,0.623 -0.232,1.37 -0.545,1.956 -0.299,0.56 -0.908,0.932 -1.25,1.467 -0.397,0.602 -0.967,1.067 -1.402,1.655 -0.224,0.303 -0.364,0.689 -0.452,1.103 -0.633,0.811 -1.39,1.618 -2.08,2.434 0.225,0.823 0.344,1.55 0.14,2.149 -0.208,0.608 -0.685,1.028 -1.127,1.518 C 8.851,-0.938 8.333,-0.508 7.874,-0.027 7.415,0.452 7.35,1.193 7.068,1.78 6.846,2.243 6.473,2.643 6.473,3.234 6.126,3.465 5.82,3.71 5.51,3.971 5.116,4.088 4.863,4.349 4.631,4.581 4.041,5.167 3.649,5.937 3.138,6.588 2.678,7.174 2.104,7.673 1.653,8.269 1.399,8.604 1.332,9.081 1.107,9.439 c -0.621,0.772 -1.212,1.551 -1.975,2.218 -0.619,1.393 -0.579,2.054 -0.063,2.586 0.554,0.568 1.368,0.845 1.19,1.85 -0.122,0.258 1.363,1.355 2.083,1.715 0.068,0.335 0.059,0.627 0.251,0.801 0.411,0.783 1.241,1.085 1.861,1.475 0.294,0.186 1.089,0.67 1.643,1.275 0.607,0.663 0.968,1.448 1.107,1.61 0.199,0.233 0.577,0.478 0.917,0.777 0.339,0.299 0.642,0.651 0.934,0.83 0.665,0.408 1.054,0.701 1.681,1.143 0.285,0.202 0.477,0.412 0.758,0.621 0.339,0.253 1.464,1.449 1.62,1.798 0.155,0.349 0.289,0.709 0.458,1.043 0.144,0.287 0.703,0.772 1.242,1.31 0.312,0.311 1.013,1.153 1.297,1.349 0.551,0.38 1.314,0.711 1.798,1.169 0.376,0.354 0.427,0.996 0.78,1.374 0.16,0.418 0.582,0.635 0.859,0.94 0.509,0.564 0.9,1.255 1.431,1.782 0.469,0.465 0.889,0.467 1.411,0.858 0.358,0.12 0.735,0.711 1.141,0.778 0.329,0.174 0.596,0.276 0.882,0.415 0.314,0.153 0.646,0.566 0.882,0.779 0.185,0.164 0.457,0.31 0.618,0.473 0.226,0.231 0.435,0.496 0.638,0.897 0.109,0.329 0.996,0.676 1.104,0.999 0.064,0.13 0.486,0.329 0.678,0.423 0.137,0.066 0.34,0.436 0.515,0.492 0.537,0.23 0.738,0.4 1.221,0.762 0.208,0.156 0.558,0.303 0.567,0.712 0.004,0.171 0.052,6.474 0.004,6.449"
             style="fill:#fde258;fill-opacity:1;fill-rule:nonzero;stroke:none"
             id="path3953" /></g><g
           id="g3955"
           transform="translate(186.0498,344.5439)"><path
             d="m 0,0 4.827,0 0,0.001 C 3.533,0.313 1.807,0.194 0,0"
             style="fill:#231f20;fill-opacity:1;fill-rule:nonzero;stroke:none"
             id="path3957" /></g><g
           id="g3959"
           transform="translate(178.4937,314.2734)"><path
             d="m 0,0 0,-0.07 7.372,-2.825 0,5.686 L 0,0 z"
             style="fill:#231f20;fill-opacity:1;fill-rule:nonzero;stroke:none"
             id="path3961" /></g><g
           id="g3963"
           transform="translate(182.1563,406.9648)"><path
             d="m 0,0 c 0,1.215 -0.127,2.508 -0.701,3.438 -0.48,0.781 -1.273,1.306 -2.578,1.306 -2.86,0 -3.279,-2.512 -3.279,-4.744 l 0,-0.663 6.558,0 0,0.357 L 0,0 z"
             style="fill:#231f20;fill-opacity:1;fill-rule:nonzero;stroke:none"
             id="path3965" /></g><g
           id="g3967"
           transform="translate(190.877,344.5449)"><path
             d="M 0,0 0,1.534 C 0,2.465 -0.123,3.362 -0.363,4.197 -1.153,6.941 -3.284,8.976 -7.035,9.09 -7.145,9.093 -7.248,9.104 -7.36,9.104 -8.078,9.104 -8.742,9.023 -9.362,8.885 -12.81,8.119 -14.72,5.329 -14.72,1.604 l 0,-1.605 2.088,0 7.805,0 C -3.021,0.193 -1.294,0.313 0,0"
             style="fill:#231f20;fill-opacity:1;fill-rule:nonzero;stroke:none"
             id="path3969" /></g><g
           id="g3971"
           transform="translate(367.2773,416.8115)"><path
             d="M 0,0 C 0.031,0.284 0.08,0.56 0.146,0.827 0.109,0.687 0.07,0.548 0.044,0.401 0.021,0.271 0.012,0.136 0,0"
             style="fill:#231f20;fill-opacity:1;fill-rule:nonzero;stroke:none"
             id="path3973" /></g><g
           id="g3975"
           transform="translate(368.0586,425.5688)"><path
             d="M 0,0 C -0.453,0.364 -1.035,0.564 -1.703,0.655 -1.34,0.594 -0.997,0.507 -0.689,0.384 -0.441,0.285 -0.213,0.152 0,0"
             style="fill:#231f20;fill-opacity:1;fill-rule:nonzero;stroke:none"
             id="path3977" /></g><g
           id="g3979"
           transform="translate(357.5713,424.54)"><path
             d="M 0,0 C 0.097,0.091 0.2,0.178 0.303,0.271 0.198,0.18 0.095,0.092 0,0"
             style="fill:#231f20;fill-opacity:1;fill-rule:nonzero;stroke:none"
             id="path3981" /></g><g
           id="g3983"
           transform="translate(355.8623,412.4248)"><path
             d="M 0,0 C 0.892,0.246 1.754,0.497 2.61,0.739 2.067,0.604 1.522,0.473 0.976,0.315 0.655,0.224 0.329,0.111 0,0"
             style="fill:#231f20;fill-opacity:1;fill-rule:nonzero;stroke:none"
             id="path3985" /></g><g
           id="g3987"
           transform="translate(330.0234,386.1445)"><path
             d="M 0,0 C 0.06,0.18 0.141,0.33 0.238,0.461 0.141,0.327 0.054,0.18 -0.006,-0.001 0.619,-1.147 1.216,-2.444 1.868,-3.727 1.633,-3.201 1.41,-2.672 1.162,-2.166 0.789,-1.405 0.375,-0.689 0,0"
             style="fill:#231f20;fill-opacity:1;fill-rule:nonzero;stroke:none"
             id="path3989" /></g><g
           id="g3991"
           transform="translate(342.9678,378.0078)"><path
             d="m 0,0 c -0.099,-0.934 -0.495,-1.49 -1.79,-1.201 -1.44,-0.362 -0.35,-1.792 -2.15,-1.071 -0.329,0.046 -0.647,0.102 -0.956,0.174 0.303,-0.088 0.616,-0.159 0.946,-0.206 1.8,-0.72 0.721,0.719 2.16,1.079 1.908,-0.423 1.942,1.028 1.796,2.731 C 0.036,0.961 0.046,0.439 0,0"
             style="fill:#231f20;fill-opacity:1;fill-rule:nonzero;stroke:none"
             id="path3993" /></g><g
           id="g3995"
           transform="translate(342.9004,380.5352)"><path
             d="M 0,0 C -0.031,0.355 -0.062,0.701 -0.077,1.035 -0.068,0.376 0.016,-0.34 0.073,-1.021 0.055,-0.686 0.029,-0.344 0,0"
             style="fill:#231f20;fill-opacity:1;fill-rule:nonzero;stroke:none"
             id="path3997" /></g><g
           id="g3999"
           transform="translate(331.8916,382.418)"><path
             d="m 0,0 c 0.118,-0.262 0.23,-0.525 0.366,-0.779 0.408,-0.766 0.842,-1.52 1.324,-2.214 0.44,-0.632 0.949,-1.198 1.479,-1.713 0.59,-0.573 1.23,-1.096 1.972,-1.452 0.323,-0.156 0.674,-0.266 1.04,-0.35 C 3.192,-5.639 1.454,-2.857 0,0"
             style="fill:#231f20;fill-opacity:1;fill-rule:nonzero;stroke:none"
             id="path4001" /></g><g
           id="g4003"
           transform="translate(341.1777,376.8066)"><path
             d="M 0,0 C 1.295,-0.289 1.691,0.268 1.79,1.201 1.836,1.641 1.826,2.162 1.796,2.707 1.738,3.389 1.654,4.104 1.646,4.764 1.623,5.25 0.609,7.145 0.297,7.436 c -0.57,0.489 -0.687,0.501 -1.69,0.9 -0.016,0.007 -0.032,0.014 -0.048,0.019 -0.092,0.037 -0.198,0.072 -0.294,0.108 -0.142,0.049 -0.036,0.141 -0.191,0.191 -0.143,0.359 -0.472,0.475 -0.789,0.502 -0.412,0.032 -0.814,0.228 -1.219,0.43 -0.074,0.075 -0.48,0.306 -0.573,0.359 -0.367,0.197 -1.366,0.71 -2.222,0.788 -0.877,0.08 -2.111,-0.153 -2.838,-0.26 -0.557,-0.082 -1.021,-0.261 -1.327,-0.647 -0.006,-0.01 -0.014,-0.018 -0.022,-0.027 -0.098,-0.131 -0.179,-0.281 -0.238,-0.461 0.375,-0.69 0.789,-1.405 1.162,-2.166 0.248,-0.506 0.471,-1.035 0.706,-1.561 1.454,-2.857 3.192,-5.638 6.181,-6.507 0.308,-0.073 0.626,-0.128 0.955,-0.175 1.8,-0.721 0.71,0.71 2.15,1.071"
             style="fill:#231f20;fill-opacity:1;fill-rule:nonzero;stroke:none"
             id="path4005" /></g><g
           id="g4007"
           transform="translate(356.8203,398.834)"><path
             d="M 0,0 C 0.041,-0.041 0.084,-0.08 0.127,-0.119 0.084,-0.08 0.041,-0.041 0,0 -0.061,0.062 -0.117,0.129 -0.174,0.193 -0.117,0.129 -0.061,0.062 0,0 m 1.803,-6.619 c -0.004,0.015 -0.007,0.028 -0.012,0.043 0.005,-0.015 0.008,-0.028 0.012,-0.043 m 0.068,-0.3 c -10e-4,0.005 -0.002,0.01 -0.002,0.015 0,-0.005 0.001,-0.01 0.002,-0.015 m -12.502,6.497 c -0.654,-1.741 -1.081,-5.76 1.44,-6.48 0.415,-0.037 0.811,-0.082 1.204,-0.129 0.525,-0.043 1.038,-0.092 1.525,-0.172 0.455,-0.076 0.892,-0.18 1.317,-0.293 0.613,-0.135 1.303,-0.515 2.462,-0.904 0.796,-0.268 2.038,-0.586 2.725,-0.646 1.691,-0.145 2.601,0.742 2.52,1.436 -10e-4,0.005 -10e-4,0.009 -10e-4,0.014 -0.012,0.088 -0.075,0.314 -0.079,0.328 -0.039,0.114 -0.223,0.362 -0.238,0.389 -0.338,0.629 -0.715,1.102 -0.768,1.131 -0.031,0.018 -0.38,1.047 -0.242,2.498 0.009,0.117 0.015,0.232 0.025,0.35 0.05,0.603 0.015,0.705 -0.07,1.239 -0.001,0.007 -0.071,0.423 -0.072,0.431 -0.157,0.093 -0.166,0.296 -0.299,0.419 -0.043,0.04 -0.086,0.079 -0.127,0.12 -0.06,0.062 -0.118,0.127 -0.174,0.193 C 0.18,-0.115 -0.109,0.325 -0.405,0.754 -0.828,1.367 -1.29,1.896 -2.02,2.141 -2.56,2.322 -3.189,2.339 -4.111,2.063 -4.834,1.637 -5.139,1.125 -6.124,1.063 -6.531,1.037 -7.065,0.664 -7.498,0.706 -8.902,0.752 -10.28,0.807 -10.631,-0.422"
             style="fill:#231f20;fill-opacity:1;fill-rule:nonzero;stroke:none"
             id="path4009" /></g><g
           id="g4011"
           transform="translate(368.1846,419.6875)"><path
             d="M 0,0 C 0.21,0.515 0.386,1.051 0.536,1.604 0.196,0.424 -0.366,-0.627 -0.694,-1.785 -0.507,-1.172 -0.241,-0.593 0,0"
             style="fill:#231f20;fill-opacity:1;fill-rule:nonzero;stroke:none"
             id="path4013" /></g><g
           id="g4015"
           transform="translate(368.8984,424.3037)"><path
             d="m 0,0 c 0.158,-0.871 0.119,-1.634 -0.019,-2.343 0.015,0.075 0.04,0.143 0.052,0.218 0.104,0.646 0.18,1.362 0.039,2.143 C -0.1,0.59 -0.434,0.978 -0.84,1.265 -0.465,0.966 -0.17,0.565 0,0"
             style="fill:#231f20;fill-opacity:1;fill-rule:nonzero;stroke:none"
             id="path4017" /></g><g
           id="g4019"
           transform="translate(366.0576,426.2656)"><path
             d="M 0,0 C -0.359,0.043 -0.735,0.065 -1.132,0.055 -1.433,0.047 -1.745,0.013 -2.059,-0.021 -1.333,0.031 -0.634,0.056 0,0"
             style="fill:#231f20;fill-opacity:1;fill-rule:nonzero;stroke:none"
             id="path4021" /></g><g
           id="g4023"
           transform="translate(355.8623,412.4248)"><path
             d="M 0,0 C 0.329,0.111 0.655,0.224 0.976,0.315 1.522,0.473 2.067,0.604 2.61,0.739 4.091,1.16 3.687,0.661 5.327,0.925 5.417,0.941 6.886,1.413 6.977,1.427 7.03,1.435 8.427,1.993 8.481,2 c 0.568,0.081 1.976,0.448 2.725,0.933 0.84,0.542 0.169,1.096 0.209,1.454 0.012,0.135 0.022,0.271 0.044,0.401 0.026,0.147 0.065,0.285 0.103,0.426 0.015,0.064 0.029,0.131 0.045,0.193 0.007,0.024 0.015,0.047 0.021,0.071 0.328,1.158 0.891,2.209 1.23,3.389 0.059,0.219 0.117,0.44 0.16,0.669 0.137,0.709 0.176,1.472 0.018,2.343 -0.17,0.565 -0.465,0.966 -0.84,1.265 -0.213,0.152 -0.441,0.285 -0.689,0.384 -0.308,0.123 -0.651,0.21 -1.014,0.271 -0.092,0.013 -0.178,0.031 -0.271,0.039 -0.009,0.001 -0.018,0.002 -0.027,0.003 C 9.562,13.896 8.862,13.872 8.137,13.819 7.694,13.771 7.245,13.714 6.79,13.671 6.005,13.597 5.653,13.772 4.897,13.758 4.507,13.751 3.683,13.531 3.312,13.579 2.46,13.471 2.31,12.645 2.012,12.386 1.909,12.293 1.806,12.207 1.709,12.115 1.632,12.041 1.56,11.964 1.501,11.873 1.493,11.86 1.485,11.848 1.479,11.835 1.436,11.765 1.405,11.682 1.38,11.594 1.314,11.33 1.241,10.46 1.031,10.019 0.798,9.836 0.022,9.6 0.094,8.955 -0.412,8.211 -0.623,7.306 -0.981,6.517 -1.611,3.086 -2.678,1.28 -1.364,-0.362 -0.839,-0.724 -0.663,-0.183 0,0"
             style="fill:#231f20;fill-opacity:1;fill-rule:nonzero;stroke:none"
             id="path4025" /></g><g
           id="g4027"
           transform="translate(357.5586,424.5283)"><path
             d="m 0,0 c -0.072,-0.07 -0.138,-0.146 -0.195,-0.231 0.058,0.091 0.131,0.168 0.208,0.243 C 0.009,0.008 0.004,0.004 0,0"
             style="fill:#231f20;fill-opacity:1;fill-rule:nonzero;stroke:none"
             id="path4029" /></g><g
           id="g4031"
           transform="translate(329.5732,411.1992)"><path
             d="m 0,0 c 0.358,-0.555 0.722,-0.794 0.722,-1.355 0.277,-0.833 0.771,-1.264 1.478,-1.514 0.664,-0.234 1.46,-0.266 2.328,-0.268 0.283,0 1.299,-0.167 1.996,0.053 0.809,0.256 1.307,0.92 1.635,1.186 0.121,0.099 0.234,0.215 0.328,0.351 0.229,0.355 0.312,0.854 0.092,1.62 C 8.054,1.91 9.296,4.367 9.606,5.807 9.723,6.34 9.18,7.023 9.134,7.068 8.716,7.459 8.304,7.797 7.786,8.117 7.253,8.447 6.601,8.759 5.692,9.063 5.499,9.641 4.799,9.692 4.016,9.68 3.679,9.675 2.804,10.023 1.936,9.606 1.052,9.183 0.175,7.991 -0.172,7.598 -0.357,7.387 -1.505,5.305 -1.649,4.229 -1.817,2.963 -1.987,1.605 -2.001,1.428 -2.033,0.967 -1.985,0.594 -1.726,0.434 -1.438,0.285 -0.751,0.124 0,0"
             style="fill:#231f20;fill-opacity:1;fill-rule:nonzero;stroke:none"
             id="path4033" /></g><g
           id="g4035"
           transform="translate(310.2539,404.9902)"><path
             d="m 0,0 c 0.436,-0.346 1.394,-1.805 2.947,-2.707 1.991,-1.156 4.145,-1.676 4.875,-2.582 0.116,-0.124 0.973,-1.016 1.506,-1.219 0.756,-0.287 1.777,0.004 1.963,0.392 0.207,0.436 0.27,1.042 0.256,1.731 -0.02,0.454 -0.067,0.944 -0.122,1.447 -0.088,0.632 -0.202,1.279 -0.239,1.905 -0.028,0.447 0.013,0.5 0.078,0.906 0.016,0.186 0.279,1.052 0.144,1.434 -0.135,0.382 -0.68,0.666 -0.846,0.779 C 10.079,2.379 9.57,2.634 9.209,2.984 8.938,3.248 9.351,4.775 8.97,5.752 8.59,6.729 7.415,7.155 7.056,7.305 6.646,7.476 6.215,7.574 5.77,7.607 4.4,7.676 2.902,7.117 1.567,6.323 1.478,6.271 1.388,6.219 1.299,6.164 1.095,6.035 0.894,5.902 0.699,5.766 0.681,5.753 0.663,5.74 0.645,5.727 0.355,5.521 0.086,5.307 -0.174,5.091 -0.419,4.879 -0.984,4.156 -1.211,3.314 -1.45,2.428 -1.337,1.419 -1.068,1.066 -0.771,0.678 -0.396,0.332 0,0"
             style="fill:#231f20;fill-opacity:1;fill-rule:nonzero;stroke:none"
             id="path4037" /></g><g
           id="g4039"
           transform="translate(280.0483,299.1914)"><path
             d="m 0,0 c -0.165,0.661 -0.367,1.348 -0.708,1.95 -0.368,0.652 -0.94,1.206 -1.386,1.833 -0.444,0.621 -1.195,1.055 -1.585,1.696 -0.436,0.712 -0.661,1.401 -0.86,2.195 -0.999,0 -1.541,0.658 -2.208,1.079 -0.37,0.233 -1.151,1.036 -1.884,1.89 -0.733,0.853 -1.417,1.755 -1.591,2.187 -0.349,0.869 -0.326,1.772 -0.696,2.514 -0.917,-0.205 -1.309,0.418 -1.837,0.76 -0.657,0.425 -1.509,0.617 -2.019,1.178 -0.529,0.582 -0.921,1.319 -1.842,1.187 -0.619,0.31 -0.691,0.703 -0.74,1.269 -0.065,0.75 -1.424,2.542 -2.055,2.714 -0.791,0.216 -1.363,0.495 -1.955,0.962 -0.612,0.482 -1.345,0.815 -1.846,1.428 -0.508,0.623 -1.284,1.033 -1.787,1.648 -0.235,0.287 -0.907,1.36 -2.049,2 -1.331,0.746 -3.159,1.069 -3.462,1.405 -0.605,0.669 -1.509,1.064 -2.149,1.632 -0.331,0.293 -1.368,0.523 -2.223,1.131 -0.695,0.494 -1.243,1.367 -1.414,1.692 -0.397,0.752 -0.961,1.307 -1.52,1.933 l -3.899,2.375 c -0.792,0.494 -1.2,1.523 -1.599,1.676 -0.747,0.285 -1.824,0.035 -2.599,0.293 -0.856,0.285 -1.345,0.956 -1.218,2.224 -0.636,0.318 -1.228,0.899 -1.86,1.19 -0.682,0.313 -1.647,-0.019 -2.316,0.281 -0.752,0.34 -1.148,1.414 -1.87,1.762 -0.733,0.354 -1.598,0.386 -2.284,0.778 -0.871,0.522 -1.471,1.111 -2.075,1.726 -0.387,0.393 -0.743,0.872 -1.244,1.234 -0.335,0.241 -0.732,0.432 -1.253,0.506 -0.189,0.567 -1.03,0.426 -1.846,0.418 -0.37,-0.004 -1.292,0.636 -1.669,0.244 -0.378,-0.39 -0.211,-1.813 -0.202,-2.133 0.006,-0.224 -0.009,-0.451 -0.029,-0.677 -0.048,-0.532 -0.137,-1.07 -0.136,-1.606 0.003,-0.76 -0.004,-1.525 -0.009,-2.289 -0.005,-0.76 0.185,-1.521 0.181,-2.275 -0.003,-0.84 -0.323,-1.672 -0.312,-2.49 0.011,-0.826 -0.109,-1.643 -0.07,-2.432 0.039,-0.799 -0.079,-1.603 0.002,-2.35 0.09,-0.84 0.282,-1.687 0.443,-2.441 0.358,-0.835 1.166,-1.503 1.524,-2.338 0.361,-0.843 0.702,-1.693 1.063,-2.536 0.361,-0.843 0.255,-1.999 0.616,-2.842 0.608,-0.327 1.696,-0.132 2.185,-0.524 0.584,-0.468 1.04,-1.122 1.501,-1.659 0.527,-0.61 0.607,-1.551 1.046,-2.212 0.444,-0.672 1.42,-0.998 1.852,-1.681 0.435,-0.686 0.616,-1.521 1.117,-2.176 0.5,-0.653 1.162,-1.063 1.808,-1.645 0.722,-0.414 1.364,-0.717 2.128,-0.954 0.895,-0.275 1.807,-0.546 2.532,-0.933 0.817,-0.435 1.425,-1.211 1.698,-2.299 0.725,-0.161 1.362,-0.398 2.003,-0.727 0.74,-0.38 1.044,-1.294 1.637,-1.864 0.595,-0.571 1.622,-0.786 2.032,-1.511 0.407,-0.723 2.099,-2.164 2.543,-2.374 0.603,-0.284 0.739,-1.211 1.297,-1.656 0.477,-0.38 1.172,-0.738 2.12,-0.62 0.345,-0.602 0.727,-0.91 1.195,-1.357 0.533,-0.51 1.22,-0.943 1.911,-1.279 0.672,-0.327 1.572,-0.133 2.394,-0.323 0.701,-0.162 1.438,-0.246 2.248,-0.326 0.585,-0.117 1.105,-0.889 1.781,-1.16 0.642,-0.258 1.451,-0.181 2.066,-0.447 0.726,-0.315 1.5,-0.487 2.026,-0.619 0.438,-0.548 1.078,-0.669 1.794,-0.917 0.72,-0.251 1.286,-1.228 2.04,-1.382 0.962,-0.198 2.14,0.188 2.701,-0.233 0.489,-0.652 1.043,-0.775 1.813,-0.943 0.798,-0.172 1.615,-0.707 2.525,-0.669 0.981,0.041 2.397,-0.337 3.269,-0.433 0.985,-0.109 3.13,-0.193 3.86,-0.312 0.87,-0.145 1.487,-0.286 1.933,-0.055 0.39,0.202 1.074,2.766 1.175,3.436 0.132,0.88 -0.09,1.697 -0.58,2.595 C 0.676,-1.765 0.264,-0.791 0,0"
             style="fill:#231f20;fill-opacity:1;fill-rule:nonzero;stroke:none"
             id="path4041" /></g><g
           id="g4043"
           transform="translate(228.1548,352.9902)"><path
             d="m 0,0 c 0.176,-0.255 0.556,-0.382 0.826,-0.611 0.271,-0.23 0.503,-0.592 0.915,-0.612 0.161,-0.006 0.759,0.029 1.127,-0.308 0.368,-0.337 0.581,-0.872 0.581,-1.233 0.375,0.075 0.489,-0.339 0.76,-0.481 0.27,-0.142 0.615,-0.184 0.892,-0.218 0.415,-0.051 0.726,-0.095 1.01,-0.215 0.284,-0.119 0.715,-0.021 0.991,-0.231 0.295,-0.225 0.578,-0.404 0.949,-0.547 0.371,-0.144 0.477,-0.63 0.723,-0.914 0.254,-0.293 0.573,-0.517 0.82,-0.799 0.247,-0.282 0.752,-0.253 1.076,-0.475 0.291,-0.198 0.437,-0.772 0.82,-0.87 0.384,-0.097 1.494,-0.755 1.659,-1.088 0.165,-0.332 0.308,-0.697 0.534,-0.935 0.275,-0.289 0.664,-0.543 0.917,-0.902 0.252,-0.361 1.692,-0.757 2.146,-0.766 0.453,-0.01 0.859,-0.51 1.287,-0.613 0.422,-0.102 0.827,-0.142 1.206,-0.361 0.378,-0.219 0.76,-0.457 1.16,-0.61 0.199,-0.077 0.479,-0.055 0.781,-0.106 0.302,-0.048 0.76,0.018 1.111,-0.283 0.35,-0.301 0.762,-0.825 1.056,-1.3 0.294,-0.475 0.53,-1.005 0.613,-1.224 0,-0.36 0.552,-0.607 1.596,-1.109 0.516,-0.248 0.855,-0.951 1.222,-1.228 0.368,-0.278 0.693,-0.557 0.993,-0.466 0.359,0.109 0.835,0.336 1.116,0.719 0.281,0.383 0.226,1.075 0.518,1.518 0.225,0.342 0.378,0.725 0.527,1.147 0.15,0.424 0.443,0.787 0.692,1.131 0.301,0.415 0.829,0.492 1.29,0.728 0.46,0.237 1.06,1.44 1.103,1.83 0.043,0.392 1.252,1.715 1.328,2.123 0.076,0.411 -0.128,1.187 -0.166,1.5 -0.05,0.409 -0.758,0.916 -1.146,1.067 -0.387,0.148 -4.443,0.756 -4.688,1.101 -0.281,0.397 -1.423,0.598 -1.666,1 -0.244,0.403 -0.626,0.485 -0.834,0.832 -0.351,-0.07 -1.005,0.65 -1.351,0.67 -0.347,0.022 -0.684,0.081 -1.013,0.053 -0.418,-0.037 -0.843,-0.023 -1.238,-0.112 -0.394,-0.088 -3.135,0.706 -3.538,0.79 -0.419,0.086 -4.29,0.697 -4.812,1.088 -0.378,0.163 -0.661,0.273 -1.115,0.246 -0.453,-0.028 -2.08,0.547 -2.472,0.742 -0.393,0.196 -0.639,0.65 -1.02,0.81 C 9.175,0.588 8.929,1.109 8.836,1.26 8.738,1.42 8.316,1.357 8.2,1.485 8.084,1.613 8.09,1.949 7.938,2.008 7.595,2.141 7.095,1.957 6.699,2.086 6.304,2.215 5.964,2.683 5.561,2.716 5.173,2.747 4.706,2.688 4.291,2.604 3.875,2.52 3.496,2.225 3.085,2.21 2.684,2.195 2.23,2.377 1.831,2.301 1.431,2.223 0.906,2.373 0.512,2.359 0.074,2.343 -0.161,2.115 -0.587,2.154 -1.012,2.194 -1.375,1.621 -0.948,1.244 -0.522,0.867 -0.21,0.305 0,0"
             style="fill:#231f20;fill-opacity:1;fill-rule:nonzero;stroke:none"
             id="path4045" /></g><g
           id="g4047"
           transform="translate(407.5313,241.7969)"><path
             d="m 0,0 -102.66,0 0,22.85 c 42.535,0.444 78.301,29.125 89.421,68.198 l -12.992,3.626 c -9.54,-33.397 -40.077,-57.92 -76.429,-58.363 l 0,95.706 0,3.04 c 0.283,0.342 0.642,0.867 1.192,1.199 0.571,0.344 1.114,0.953 1.836,1.387 0.708,0.423 1.546,0.746 2.312,1.204 0.699,0.418 1.389,0.866 2.069,1.27 0.835,0.496 1.864,0.57 2.562,0.979 1.155,0.677 1.898,1.42 2.232,1.588 0.543,0.27 1.189,0.729 1.85,1.063 1.08,0.546 1.125,0.339 2.093,0.96 0.498,0.448 0.935,0.955 1.457,1.32 0.614,0.43 1.371,0.604 2.006,0.957 0.717,0.401 1.462,0.712 2.188,1.075 0.658,0.33 1.109,1.054 1.761,1.402 0.725,0.386 1.622,0.48 2.323,0.951 0.627,0.42 3.152,1.781 3.734,2.058 0.678,0.323 1.14,0.993 1.738,1.369 0.684,0.429 1.27,0.932 1.88,1.431 0.618,0.505 1.236,0.99 1.81,1.567 0.516,0.519 0.942,0.968 1.447,1.546 0.902,1.054 2.121,1.197 3.199,2.043 0.508,0.127 1.442,0.54 2.148,0.803 0.659,0.244 0.927,0.468 1.497,0.911 0.555,0.431 1.02,0.955 1.251,1.646 0.335,1.027 0.914,2.44 0.693,3.25 -0.215,0.788 -1.003,1.577 -1.541,1.53 -0.836,-0.064 -1.381,-0.222 -2.092,-0.527 -0.755,-0.325 -1.436,-0.678 -2.079,-1.193 -0.707,-0.569 -1.236,-1.293 -1.844,-1.986 -0.608,-0.692 -1.414,-1.271 -2.158,-1.766 -1.614,-1.076 -2.498,-1.783 -2.976,-2.008 -1.217,-0.574 -2.074,-1.113 -2.58,-1.721 -0.486,-0.582 -0.534,-0.537 -1.067,-1.066 -0.293,-0.29 -1.357,-0.5 -2.232,-0.942 -0.733,-0.369 -1.291,-0.986 -1.563,-1.132 -0.651,-0.354 -1.542,-0.233 -2.299,-0.473 -0.74,-0.232 -1.146,-0.698 -1.873,-0.976 -0.723,-0.274 -1.769,-1.04 -2.366,-1.505 -0.59,-0.46 -2.838,-2.039 -3.489,-2.492 -0.736,-0.511 -1.574,-0.894 -2.295,-1.47 -0.709,-0.568 -1.377,-1.348 -2.365,-1.594 -0.862,-0.268 -0.469,-0.246 -1.422,-0.96 -0.333,-0.249 -1,-0.353 -1.52,-0.648 -0.966,-0.548 -1.001,-0.5 -2.009,-0.983 -0.869,-0.416 -0.856,-0.444 -1.728,-0.853 -0.913,-0.425 -0.708,-0.599 -1.589,-1.087 -0.752,-0.416 -0.865,-0.37 -1.58,-0.846 -0.356,-0.238 -0.292,-0.19 -0.549,-0.533 -0.021,-0.029 -0.041,-0.047 -0.062,-0.073 l 0,53.473 c -0.106,0.003 -0.21,0.008 -0.317,0.008 -36.792,0 -67.801,-24.682 -77.427,-58.385 l -12.992,3.626 c 11.207,39.38 47.445,68.22 90.419,68.22 0.106,0 0.211,-0.003 0.317,-0.004 l 0,20.651 102.66,0 L 0,0 z m -102.688,135.184 c -0.009,-0.411 -0.36,-0.557 -0.568,-0.712 -0.482,-0.363 -0.683,-0.533 -1.221,-0.763 -0.174,-0.057 -0.377,-0.426 -0.515,-0.492 -0.192,-0.094 -0.613,-0.293 -0.678,-0.423 -0.107,-0.323 -0.995,-0.67 -1.103,-0.999 -0.204,-0.4 -0.413,-0.666 -0.639,-0.897 -0.16,-0.163 -0.433,-0.308 -0.617,-0.473 -0.237,-0.212 -0.569,-0.626 -0.883,-0.779 -0.285,-0.138 -0.553,-0.241 -0.881,-0.415 -0.406,-0.067 -0.784,-0.659 -1.142,-0.778 -0.522,-0.39 -0.942,-0.392 -1.41,-0.857 -0.532,-0.528 -0.923,-1.219 -1.432,-1.783 -0.277,-0.305 -0.699,-0.522 -0.858,-0.94 -0.353,-0.378 -0.405,-1.019 -0.781,-1.374 -0.483,-0.458 -1.247,-0.788 -1.797,-1.169 -0.285,-0.195 -0.986,-1.037 -1.297,-1.349 -0.54,-0.538 -1.098,-1.022 -1.243,-1.309 -0.168,-0.335 -0.303,-0.695 -0.458,-1.043 -0.155,-0.35 -1.28,-1.546 -1.62,-1.799 -0.28,-0.209 -0.472,-0.418 -0.758,-0.621 -0.626,-0.441 -1.016,-0.734 -1.681,-1.143 -0.292,-0.178 -0.594,-0.531 -0.934,-0.83 -0.34,-0.298 -0.717,-0.544 -0.917,-0.777 -0.139,-0.162 -0.5,-0.947 -1.107,-1.609 -0.554,-0.606 -1.349,-1.09 -1.643,-1.276 -0.619,-0.39 -1.45,-0.692 -1.86,-1.474 -0.193,-0.174 -0.184,-0.467 -0.251,-0.802 -0.721,-0.36 -2.206,-1.457 -2.084,-1.715 0.178,-1.005 -0.636,-1.282 -1.189,-1.851 -0.517,-0.531 -0.557,-1.191 0.063,-2.585 0.762,-0.667 1.353,-1.446 1.974,-2.217 0.225,-0.36 0.293,-0.836 0.546,-1.17 0.451,-0.596 1.025,-1.096 1.485,-1.682 0.512,-0.651 0.903,-1.42 1.493,-2.008 0.233,-0.23 0.485,-0.492 0.88,-0.609 0.309,-0.261 0.616,-0.506 0.962,-0.736 0,-0.592 0.373,-0.993 0.596,-1.455 0.281,-0.586 0.346,-1.328 0.805,-1.807 0.46,-0.481 0.977,-0.91 1.412,-1.394 0.442,-0.49 0.919,-0.91 1.127,-1.518 0.204,-0.598 0.085,-1.325 -0.14,-2.149 0.691,-0.816 1.447,-1.623 2.08,-2.433 0.089,-0.414 0.228,-0.801 0.452,-1.104 0.435,-0.588 1.005,-1.052 1.402,-1.654 0.342,-0.535 0.951,-0.908 1.25,-1.467 0.313,-0.587 0.288,-1.334 0.546,-1.957 0.287,-0.693 0.898,-1.287 1.107,-2.039 0.182,-0.658 -0.122,-1.434 -0.007,-2.145 0.112,-0.697 0.266,-1.355 0.306,-2.112 -0.154,-0.383 0.073,-0.825 0.073,-1.227 -0.169,-0.674 -0.713,-1.415 -0.682,-2.129 0.018,-0.41 0.296,-0.867 0.588,-1.254 0.084,-0.549 0.656,-0.959 0.794,-1.512 0.161,-0.65 -0.043,-1.402 0.145,-2.043 0.212,-0.726 0.5,-1.418 0.674,-2.111 0.179,-0.713 0.676,-1.361 0.732,-2.016 0.067,-0.761 -0.133,-1.548 -0.352,-2.193 -0.226,-0.664 -0.667,-1.401 -1.334,-1.901 -0.536,-0.203 -1.241,-0.277 -1.937,-0.521 -0.327,-0.326 -0.195,-0.701 -0.173,-1.229 -0.133,-0.601 -0.342,-1.253 -0.331,-1.925 -0.063,-0.292 0.587,-0.769 0.918,-1.544 0.224,-0.526 0.252,-1.221 0.107,-1.948 0.347,-0.973 0.432,-1.485 0.208,-1.889 -0.32,-0.58 -0.877,-0.883 -1.735,-0.944 -0.266,-0.017 -0.472,-0.15 -0.717,-0.238 -0.168,-0.01 -0.659,-0.292 -1.337,-0.871 -0.39,-0.333 -0.944,-0.435 -1.532,-0.667 -0.468,-0.184 -0.904,-0.473 -1.424,-0.595 -0.668,-0.156 -1.344,-0.21 -1.953,-0.298 -1.02,-0.151 -1.86,-0.252 -2.097,-0.368 -0.425,-0.059 -0.835,-0.027 -1.244,-0.083 -0.684,-0.094 -1.402,-0.507 -2.308,0.127 -0.235,0.059 -0.463,-0.046 -0.707,-0.021 -0.693,0.141 -1.373,0.364 -2.094,0.438 -0.827,0.084 -1.668,0.19 -2.523,0.209 -0.428,0.223 -2.29,0.379 -2.779,0.183 -0.355,-0.003 -0.873,0.088 -1.511,0.094 -0.619,0.005 -1.335,-0.312 -2.021,-0.233 -0.754,0.087 -1.386,0.614 -1.972,0.872 -0.667,0.166 -1.719,1.959 -2.344,1.99 -0.451,0.182 -0.908,0.057 -1.289,-0.038 -0.129,0.027 -1.043,0.057 -2.295,0.437 -0.508,0.154 -1.013,0.528 -1.548,0.768 -0.782,0.348 -1.581,0.435 -1.942,0.617 -0.666,0 -1.263,0.101 -1.823,0.193 -0.745,0.12 -1.402,0.385 -2.022,0.616 -0.731,0.275 -1.313,0.743 -1.971,1.089 -0.285,0.281 -0.742,0.266 -1.081,0.443 -0.508,0.264 -1.08,0.338 -1.684,0.489 -0.267,0.111 -1.298,2.138 -1.673,2.566 -0.544,0.623 -1.381,1.036 -2.074,1.53 -0.683,0.487 -1.393,1.032 -2.17,1.412 -0.098,0.047 -0.194,0.11 -0.294,0.15 -0.447,0.208 -1.273,0.4 -2.123,0.768 -0.676,0.291 -1.57,0.293 -2.211,0.66 -1.178,0.674 -1.873,1.754 -2.173,2.076 -0.621,0.667 -1.5,1.152 -2.154,1.83 -0.311,0.529 0.395,0.567 -0.024,0.995 -0.34,0.346 -2.348,0.91 -2.812,1.13 -0.236,0.239 -0.524,0.764 -0.936,1.257 -0.34,0.405 -0.683,0.848 -1.33,1.151 -0.551,0.258 -1.145,0.43 -1.698,0.622 -0.886,0.308 -1.59,0.738 -1.895,1.165 -0.292,0.41 -0.638,0.859 -0.836,1.344 -0.339,0.829 -0.41,1.724 -0.64,1.928 -0.166,0.191 -0.509,0.176 -0.718,0.33 -0.264,0.195 -0.493,0.424 -0.778,0.577 -0.455,0.314 -0.753,0.905 -1.105,1.258 -0.865,0.216 -1.556,0.995 -2.291,1.989 -0.393,0.723 -0.816,1.46 -1.534,1.891 0,0.629 -0.057,1.152 -0.315,1.547 -0.222,0.763 -0.955,1.211 -1.269,1.864 -0.071,0.169 -0.07,0.376 -0.142,0.55 -0.065,0.156 0.078,0.398 0.013,0.561 -0.169,0.518 -0.404,1.045 -0.404,1.765 -0.672,0.504 -1.006,1.062 -1.437,1.556 -0.494,0.565 -1.021,1.109 -1.405,2.069 -0.135,0.371 0.047,0.79 -0.032,1.211 0.082,0.323 0.031,0.663 0,0.967 -0.078,0.752 -0.483,1.513 -0.482,2.339 0.001,0.247 0.209,0.505 0.145,0.756 0.008,0.526 0.06,1.042 0.071,1.573 0.013,0.585 -0.275,1.187 -0.278,1.763 0.1,0.33 0.183,0.641 0.171,0.963 -0.032,0.856 -0.228,1.662 -0.385,2.414 -0.061,0.293 -0.033,1.144 -0.027,2.266 0.006,1.256 -0.312,1.485 0.064,2.861 0.368,1.346 0.322,1.363 0.722,2.7 0.07,0.176 0.553,1.393 0.544,1.601 -0.025,0.626 0.208,1.034 0.421,1.557 0.122,0.302 0.808,1.869 1.575,2.27 1.004,0.526 1.436,0.734 1.448,0.743 0.294,0.207 1.635,0.243 1.443,0.723 0.123,0.428 -0.248,0.875 -0.241,1.308 0.297,0.642 0.824,1.125 1.247,1.68 0.419,0.248 0.846,0.497 1.169,0.813 0.652,0.636 0.926,1.756 1.705,2.146 0.047,-0.008 0.235,-0.023 0.282,-0.025 0.597,-0.073 1.155,-0.347 1.699,-0.262 0.658,0.104 1.18,0.518 1.731,0.836 0.556,0.322 0.935,0.82 1.347,1.345 0.321,0.162 0.831,0.085 1.005,0.434 0.67,-0.052 1.163,-0.182 1.868,-0.198 0.547,-0.013 1.109,0.312 1.668,0.381 0.405,0.001 0.831,0.307 1.237,0.311 0.653,-0.078 1.286,-0.607 1.931,-0.604 0.842,0.004 1.656,-0.155 2.458,-0.18 0.475,-0.014 0.985,-0.011 1.448,0.143 0.567,-0.041 1.088,0.186 1.609,0.108 0.581,-0.087 1.133,-0.208 1.637,-0.359 0.218,-0.305 0.558,-0.435 0.865,-0.629 0.563,-0.358 1.161,-0.77 1.888,-0.917 0.752,-0.152 1.587,-0.032 2.321,-0.179 0.933,-0.187 1.713,-0.613 2.253,-1.201 0.233,-0.311 0.344,-0.701 0.443,-1.143 0.127,0 0.361,0.314 0.491,0.329 0.741,-0.034 1.429,-0.325 2.043,-0.514 0.357,-0.109 0.848,-0.086 1.176,-0.226 0.264,-0.303 0.223,-1.088 0.53,-1.239 0.782,-0.386 1.825,-0.134 2.604,-0.397 0.721,-0.245 1.35,-1 2.206,-0.906 0.306,-0.191 0.759,0.09 1.14,0.075 0.735,-0.457 1.447,-1.015 2.193,-1.449 0.233,-0.383 0.515,-0.653 0.86,-0.842 0.729,-0.401 1.279,-1.235 2.035,-1.582 0.83,-0.383 1.541,0.093 2.343,-0.364 0.686,-0.392 0.718,-0.424 1.078,-0.785 0.04,0 0.231,-0.269 0.27,-0.268 1.017,0 1.779,-0.275 2.473,-0.275 0.264,0.215 0.552,0.484 0.805,0.717 0.379,0.025 0.72,0.22 0.962,0.463 0.528,0.531 0.932,1.228 1.437,1.799 0.164,0.185 -0.127,0.732 -0.034,0.98 0.441,0.506 1.129,0.834 1.577,1.334 0.557,0.621 1.23,1.076 1.827,1.648 0.497,0.202 1.131,0.258 1.525,0.577 0.43,0.345 0.669,0.97 1.023,1.424 0.46,0.285 0.754,0.882 1.264,1.1 0.479,0.032 1.39,0.839 1.907,1.357 0.571,0.57 1.008,1.293 1.454,1.763 0.484,0.512 1.137,0.988 2.23,1.453 0.641,0.274 0.907,0.526 1.369,0.996 0.276,0.28 0.532,0.766 0.707,1.131 0.469,0.467 0.929,0.709 1.379,1.164 0.421,0.178 0.605,0.596 0.888,0.9 0.291,0.311 0.709,0.518 0.843,0.964 0.468,0.548 1.056,0.978 1.469,1.593 0.22,0.126 0.179,0.491 0.368,0.643 0.091,0.072 0.218,0.1 0.29,0.186 0.047,0.055 0.021,0.156 0.057,0.218 0.101,0.178 0.566,0.606 0.984,1.098 0.321,0.378 0.592,0.9 0.935,1.173 0.342,0.272 0.757,0.293 0.96,0.391 0.341,0.166 0.464,0.69 0.701,1.014 0.646,0.391 1.362,0.518 1.835,0.883 0.642,0.496 1.054,1.157 1.645,1.709 0.242,0.226 0.974,1.015 1.812,1.503 0.947,0.552 1.091,0.577 1.97,0.831 0.403,0.115 0.787,0.055 1.334,0.512 0.183,0.365 0.465,1.058 0.725,1.193 0.268,0.103 0.232,0.238 0.508,0.318 0.201,0.045 0.91,0.674 1.014,0.727 0.048,0.023 0,-6.279 -0.003,-6.449 m -133.305,100.81 0,-62.766 c 1.24,2.327 3.492,3.8 6.92,3.8 3.628,0 6.768,-2.023 7.43,-5.756 l 10.779,8.268 0,-8.512 -10.116,-6.453 0,-0.07 10.116,0 0,-6.837 -25.129,0 0,-13.889 4.618,0 0,-8.127 4.396,0 0,7.709 5.79,0 0,-7.709 4.535,0 0,8.127 5.79,0 0,-14.965 -25.129,0 0,-17.692 c 2.042,4.607 6.566,7.846 11.979,7.846 7.394,0 13.15,-6.07 13.15,-13.361 l 0,-9.697 -25.129,0 0,-19.222 23.129,9.427 2.801,-7.29 -5.371,-1.709 0,-9.419 5.371,-1.813 -2.801,-7.255 -23.129,9.627 0,-20.145 4.618,0 0,-8.127 4.396,0 0,7.709 5.79,0 0,-7.709 4.535,0 0,8.127 5.79,0 0,-14.965 -25.129,0 0,-20.099 19.339,0 0,8.197 5.79,0 0,-15.034 -25.129,0 0,-12.882 242.667,0 0,242.666 -242.667,0 z"
             style="fill:#231f20;fill-opacity:1;fill-rule:nonzero;stroke:none"
             id="path4049" /></g><g
           id="g4051"
           transform="translate(271.7046,334.9121)"><path
             d="M 0,0 C -0.219,0.402 -0.377,0.937 -0.686,1.229 -1.027,1.552 -1.598,1.619 -1.916,1.93 -2.233,2.24 -2.372,2.719 -2.5,3.166 -3.032,3.326 -3.573,3.311 -3.908,3.203 -4.244,3.096 -4.409,2.65 -4.728,2.454 -5.087,2.233 -5.435,2.053 -5.743,1.779 -6.051,1.504 -6.597,1.416 -6.873,1.058 -7.182,0.657 -7.198,0.008 -7.534,-0.344 c -0.336,-0.351 -0.984,-0.365 -1.452,-0.5 -0.13,-0.454 0.045,-1.01 0.077,-1.34 0.032,-0.33 -0.183,-0.64 -0.169,-0.974 0.021,-0.5 0.123,-0.985 0.044,-1.451 -0.078,-0.467 -0.112,-0.952 0.119,-1.293 0.246,-0.364 0.63,-0.75 1.07,-0.979 0.44,-0.228 0.861,-0.387 1.187,-0.729 0.299,-0.314 1.116,-0.898 1.912,-1.326 0.795,-0.428 1.598,-0.774 1.847,-0.908 0.329,-0.177 0.445,-0.364 0.611,-0.727 0.167,-0.363 0.679,-0.626 0.84,-1.052 0.165,-0.434 0.368,-0.921 0.577,-1.44 0.208,-0.519 0.436,-0.802 0.833,-1 0.362,-0.08 0.525,-0.591 0.889,-0.63 0.363,-0.038 0.801,0.191 1.121,0.027 0.37,-0.189 0.521,-0.653 0.809,-0.911 0.287,-0.258 0.446,-0.648 0.743,-0.933 0.298,-0.286 0.602,-0.5 0.858,-0.785 0.255,-0.287 0.502,-0.527 0.706,-0.891 0.204,-0.361 0.822,-0.904 1.321,-1.46 0.499,-0.555 1.017,-1.053 1.202,-1.266 0.253,-0.292 0.702,-0.574 0.982,-0.975 0.281,-0.398 0.579,-0.834 0.717,-1.189 0.145,-0.376 0.093,-0.916 0.362,-1.24 0.268,-0.324 0.687,-0.627 1.16,-0.628 0.257,-0.001 0.688,0.014 1.057,0.189 0.369,0.175 0.709,0.624 1.172,0.84 -0.181,0.36 -0.168,0.823 -0.223,1.263 -0.054,0.44 -0.301,0.76 -0.713,1.109 -0.265,0.224 -0.563,0.822 -0.826,1.418 -0.262,0.596 -0.568,1.191 -0.841,1.619 -0.462,0.723 -0.731,1.373 -1.069,1.803 -0.338,0.431 -0.695,0.736 -0.723,1.029 -0.041,0.421 0.254,0.873 0.336,1.326 0.083,0.453 0.031,0.91 -0.04,1.318 -0.078,0.454 -0.311,0.891 -0.732,1.176 -0.421,0.286 -1.291,1.448 -1.357,1.815 -0.066,0.367 -0.296,0.73 -0.488,1.004 C 6.15,-8.698 6.002,-8.242 5.708,-7.949 5.415,-7.656 5.104,-7.388 4.816,-7.08 4.53,-6.773 4.182,-6.571 3.996,-6.192 3.811,-5.813 3.68,-5.395 3.475,-5.023 3.274,-4.662 3.018,-4.34 2.878,-3.939 2.738,-3.537 2.502,-3.134 2.502,-2.625 2.328,-2.277 2.194,-1.875 1.822,-1.669 1.449,-1.463 1,-1.375 0.68,-1.098 0.36,-0.819 0.219,-0.404 0,0"
             style="fill:#231f20;fill-opacity:1;fill-rule:nonzero;stroke:none"
             id="path4053" /></g><g
           id="g4055"
           transform="translate(273.5264,333.2432)"><path
             d="m 0,0 c 0.372,-0.206 0.506,-0.608 0.68,-0.956 0,-0.509 0.236,-0.912 0.376,-1.315 0.14,-0.4 0.396,-0.722 0.597,-1.083 0.205,-0.372 0.336,-0.79 0.521,-1.169 0.186,-0.379 0.534,-0.581 0.821,-0.888 0.287,-0.308 0.598,-0.576 0.892,-0.869 0.294,-0.293 0.441,-0.749 0.676,-1.086 0.192,-0.274 0.422,-0.637 0.488,-1.004 0.067,-0.367 0.936,-1.529 1.358,-1.815 0.421,-0.285 0.654,-0.722 0.732,-1.176 0.07,-0.409 0.123,-0.865 0.04,-1.318 -0.083,-0.453 -0.377,-0.905 -0.337,-1.326 0.028,-0.293 0.385,-0.599 0.723,-1.029 0.338,-0.43 0.607,-1.08 1.069,-1.803 0.273,-0.428 0.579,-1.023 0.842,-1.619 0.262,-0.596 0.56,-1.194 0.825,-1.418 0.412,-0.349 0.659,-0.669 0.714,-1.109 0.054,-0.44 0.042,-0.903 0.222,-1.263 -0.463,-0.216 -0.802,-0.665 -1.172,-0.84 -0.369,-0.175 -0.799,-0.19 -1.057,-0.189 -0.472,10e-4 -0.892,0.304 -1.16,0.628 -0.268,0.324 -0.217,0.864 -0.362,1.24 -0.137,0.355 -0.436,0.791 -0.717,1.189 -0.28,0.401 -0.729,0.683 -0.982,0.975 -0.185,0.213 -0.703,0.711 -1.202,1.266 -0.499,0.556 -1.116,1.099 -1.32,1.46 -0.204,0.364 -0.452,0.604 -0.707,0.891 -0.255,0.285 -0.56,0.499 -0.858,0.785 -0.297,0.285 -0.455,0.675 -0.743,0.933 -0.288,0.258 -0.438,0.721 -0.809,0.911 -0.319,0.164 -0.757,-0.066 -1.121,-0.027 -0.364,0.039 -0.527,0.55 -0.889,0.63 -0.396,0.198 -0.624,0.481 -0.833,1 -0.209,0.519 -0.411,1.006 -0.577,1.44 -0.161,0.426 -0.672,0.689 -0.839,1.052 -0.167,0.363 -0.283,0.549 -0.612,0.727 -0.249,0.134 -1.051,0.48 -1.847,0.908 -0.795,0.428 -1.613,1.012 -1.912,1.326 -0.326,0.342 -0.747,0.501 -1.187,0.729 -0.439,0.229 -0.824,0.615 -1.07,0.979 -0.231,0.341 -0.197,0.826 -0.118,1.293 0.079,0.466 -0.023,0.951 -0.044,1.451 -0.015,0.334 0.2,0.644 0.168,0.974 -0.032,0.33 -0.207,0.886 -0.077,1.34 0.469,0.135 1.116,0.149 1.452,0.5 0.336,0.352 0.352,1.001 0.661,1.402 0.276,0.358 0.822,0.446 1.131,0.721 0.308,0.274 0.655,0.454 1.014,0.675 0.319,0.196 0.485,0.642 0.82,0.749 0.335,0.107 0.876,0.123 1.409,-0.037 C -4.193,4.388 -4.055,3.909 -3.737,3.599 -3.42,3.288 -2.849,3.221 -2.508,2.897 -2.199,2.605 -2.041,2.071 -1.822,1.669 -1.603,1.265 -1.461,0.85 -1.142,0.571 -0.821,0.294 -0.373,0.206 0,0 m 8.275,-39.325 c -0.101,-0.67 -0.785,-3.234 -1.175,-3.436 -0.446,-0.231 -1.063,-0.09 -1.933,0.055 -0.73,0.119 -2.875,0.203 -3.86,0.312 -0.872,0.096 -2.288,0.474 -3.269,0.433 -0.91,-0.038 -1.727,0.497 -2.525,0.669 -0.77,0.168 -1.324,0.291 -1.813,0.943 -0.561,0.421 -1.739,0.036 -2.701,0.233 -0.754,0.154 -1.32,1.132 -2.04,1.383 -0.716,0.248 -1.356,0.369 -1.794,0.917 -0.526,0.131 -1.3,0.303 -2.026,0.618 -0.615,0.266 -1.424,0.189 -2.066,0.447 -0.677,0.272 -1.196,1.043 -1.781,1.16 -0.81,0.08 -1.547,0.164 -2.248,0.326 -0.822,0.19 -1.722,-0.004 -2.394,0.324 -0.692,0.336 -1.379,0.768 -1.911,1.278 -0.468,0.447 -0.85,0.755 -1.195,1.357 -0.948,-0.118 -1.643,0.241 -2.12,0.62 -0.558,0.445 -0.695,1.373 -1.297,1.657 -0.444,0.21 -2.136,1.65 -2.544,2.373 -0.409,0.725 -1.436,0.94 -2.031,1.511 -0.593,0.57 -0.897,1.484 -1.637,1.864 -0.641,0.329 -1.278,0.566 -2.003,0.727 -0.273,1.088 -0.881,1.865 -1.698,2.299 -0.725,0.387 -1.637,0.658 -2.532,0.934 -0.764,0.236 -1.406,0.539 -2.128,0.953 -0.646,0.582 -1.308,0.992 -1.808,1.645 -0.501,0.656 -0.683,1.491 -1.117,2.176 -0.432,0.683 -1.408,1.009 -1.852,1.681 -0.439,0.661 -0.519,1.602 -1.046,2.213 -0.461,0.536 -0.918,1.19 -1.501,1.658 -0.489,0.392 -1.577,0.197 -2.185,0.524 -0.361,0.843 -0.255,1.999 -0.616,2.842 -0.361,0.843 -0.702,1.693 -1.063,2.536 -0.358,0.835 -1.166,1.503 -1.524,2.338 -0.161,0.754 -0.353,1.602 -0.443,2.442 -0.081,0.747 0.037,1.55 -0.002,2.349 -0.039,0.789 0.081,1.607 0.07,2.432 -0.011,0.818 0.309,1.65 0.312,2.49 0.004,0.754 -0.186,1.516 -0.181,2.275 0.005,0.764 0.012,1.53 0.009,2.289 -10e-4,0.537 0.088,1.075 0.136,1.606 0.02,0.226 0.035,0.453 0.028,0.678 -0.008,0.319 -0.175,1.742 0.203,2.132 0.377,0.392 1.299,-0.248 1.669,-0.244 0.815,0.008 1.657,0.149 1.846,-0.418 0.521,-0.074 0.918,-0.264 1.253,-0.505 0.501,-0.363 0.857,-0.841 1.244,-1.235 0.604,-0.615 1.204,-1.204 2.075,-1.725 0.686,-0.393 1.551,-0.425 2.284,-0.779 0.722,-0.347 1.118,-1.422 1.87,-1.761 0.669,-0.3 1.634,0.032 2.316,-0.282 0.632,-0.291 1.224,-0.872 1.86,-1.19 -0.127,-1.268 0.362,-1.939 1.218,-2.224 0.775,-0.258 1.852,-0.008 2.599,-0.293 0.399,-0.153 0.807,-1.181 1.599,-1.676 l 3.899,-2.375 c 0.559,-0.626 1.123,-1.181 1.52,-1.933 0.171,-0.324 0.719,-1.197 1.414,-1.692 0.855,-0.608 1.892,-0.837 2.223,-1.13 0.64,-0.569 1.544,-0.963 2.149,-1.633 0.303,-0.336 2.131,-0.658 3.462,-1.405 1.142,-0.64 1.814,-1.712 2.049,-2 0.503,-0.615 1.279,-1.025 1.787,-1.648 0.501,-0.613 1.234,-0.945 1.846,-1.428 0.592,-0.466 1.164,-0.746 1.955,-0.962 0.631,-0.171 1.99,-1.963 2.055,-2.713 0.049,-0.567 0.121,-0.959 0.74,-1.27 0.921,0.132 1.313,-0.605 1.842,-1.187 0.51,-0.561 1.362,-0.752 2.019,-1.178 0.528,-0.342 0.92,-0.965 1.837,-0.76 0.37,-0.742 0.347,-1.645 0.696,-2.514 0.174,-0.431 0.858,-1.334 1.591,-2.187 0.733,-0.854 1.514,-1.656 1.884,-1.89 0.667,-0.421 1.209,-1.079 2.208,-1.079 0.199,-0.794 0.424,-1.482 0.86,-2.195 0.39,-0.641 1.141,-1.074 1.585,-1.696 0.446,-0.627 1.018,-1.181 1.386,-1.833 0.341,-0.602 0.543,-1.289 0.708,-1.95 0.264,-0.791 0.676,-1.764 1.173,-2.677 0.49,-0.899 0.712,-1.715 0.58,-2.596 m -54.233,61.226 c 0.425,-0.039 0.661,0.189 1.098,0.205 0.395,0.014 0.919,-0.136 1.319,-0.058 0.399,0.076 0.853,-0.106 1.254,-0.091 0.412,0.015 0.791,0.31 1.206,0.394 0.415,0.084 0.883,0.143 1.27,0.112 0.403,-0.033 0.744,-0.501 1.139,-0.63 0.395,-0.129 0.895,0.055 1.238,-0.078 0.152,-0.059 0.147,-0.395 0.263,-0.523 0.116,-0.128 0.538,-0.065 0.636,-0.225 0.093,-0.151 0.339,-0.672 0.449,-0.782 0.382,-0.16 0.628,-0.614 1.02,-0.81 0.393,-0.195 2.02,-0.769 2.473,-0.742 0.453,0.027 0.736,-0.083 1.114,-0.246 0.522,-0.391 4.394,-1.002 4.812,-1.088 0.403,-0.084 3.144,-0.878 3.539,-0.79 0.394,0.089 0.82,0.075 1.238,0.112 0.328,0.028 0.665,-0.031 1.012,-0.053 0.347,-0.02 1,-0.74 1.352,-0.67 0.208,-0.347 0.589,-0.429 0.833,-0.832 0.244,-0.402 1.386,-0.603 1.667,-1 0.245,-0.345 4.3,-0.953 4.688,-1.101 0.387,-0.151 1.096,-0.658 1.145,-1.067 0.038,-0.313 0.243,-1.089 0.167,-1.5 -0.077,-0.408 -1.286,-1.731 -1.329,-2.123 -0.043,-0.39 -0.643,-1.593 -1.103,-1.83 -0.461,-0.236 -0.988,-0.313 -1.29,-0.728 -0.249,-0.344 -0.542,-0.707 -0.691,-1.131 -0.15,-0.422 -0.303,-0.805 -0.528,-1.147 -0.291,-0.443 -0.237,-1.135 -0.517,-1.518 -0.281,-0.383 -0.758,-0.609 -1.117,-0.719 -0.3,-0.091 -0.625,0.188 -0.992,0.466 -0.368,0.277 -0.707,0.98 -1.223,1.229 -1.044,0.501 -1.596,0.749 -1.596,1.108 -0.082,0.219 -0.319,0.749 -0.613,1.225 -0.294,0.474 -0.706,0.999 -1.056,1.299 -0.35,0.301 -0.809,0.235 -1.111,0.284 -0.302,0.05 -0.581,0.028 -0.781,0.105 -0.4,0.153 -0.781,0.391 -1.159,0.61 -0.379,0.219 -0.785,0.259 -1.206,0.361 -0.428,0.103 -0.834,0.603 -1.288,0.613 -0.454,0.009 -1.894,0.405 -2.146,0.766 -0.252,0.359 -0.642,0.613 -0.916,0.902 -0.227,0.238 -0.369,0.603 -0.534,0.936 -0.165,0.333 -1.276,0.99 -1.659,1.087 -0.383,0.098 -0.53,0.672 -0.82,0.871 -0.325,0.221 -0.83,0.192 -1.077,0.474 -0.246,0.282 -0.566,0.506 -0.819,0.799 -0.247,0.284 -0.352,0.77 -0.723,0.914 -0.371,0.144 -0.654,0.322 -0.95,0.547 -0.276,0.21 -0.707,0.112 -0.991,0.231 -0.283,0.12 -0.594,0.164 -1.01,0.215 -0.277,0.034 -0.621,0.076 -0.892,0.218 -0.27,0.143 -0.385,0.556 -0.759,0.481 0,0.361 -0.213,0.896 -0.581,1.233 -0.369,0.337 -0.967,0.302 -1.128,0.308 -0.411,0.02 -0.644,0.382 -0.914,0.612 -0.271,0.229 -0.65,0.356 -0.827,0.611 -0.21,0.305 -0.522,0.867 -0.948,1.244 -0.426,0.377 -0.064,0.95 0.362,0.91"
             style="fill:#231f20;fill-opacity:1;fill-rule:nonzero;stroke:none"
             id="path4057" /></g></g></g></g></svg>