<?xml version="1.0" encoding="UTF-8" standalone="no"?>
<!-- Created with Inkscape (http://www.inkscape.org/) -->

<svg
   xmlns:dc="http://purl.org/dc/elements/1.1/"
   xmlns:cc="http://creativecommons.org/ns#"
   xmlns:rdf="http://www.w3.org/1999/02/22-rdf-syntax-ns#"
   xmlns:svg="http://www.w3.org/2000/svg"
   xmlns="http://www.w3.org/2000/svg"
   xmlns:sodipodi="http://sodipodi.sourceforge.net/DTD/sodipodi-0.dtd"
   xmlns:inkscape="http://www.inkscape.org/namespaces/inkscape"
   id="svg2"
   version="1.1"
   inkscape:version="0.48.4 r9939"
   width="214.22875"
   height="1052.3625"
   xml:space="preserve"
   sodipodi:docname="RhoneAlpes_cle04781e.ai"><metadata
     id="metadata8"><rdf:RDF><cc:Work
         rdf:about=""><dc:format>image/svg+xml</dc:format><dc:type
           rdf:resource="http://purl.org/dc/dcmitype/StillImage" /><dc:title></dc:title></cc:Work></rdf:RDF></metadata><defs
     id="defs6"><clipPath
       clipPathUnits="userSpaceOnUse"
       id="clipPath16"><path
         d="m 0,841.89 171.383,0 L 171.383,0 0,0 0,841.89 z"
         id="path18" /></clipPath></defs><sodipodi:namedview
     pagecolor="#ffffff"
     bordercolor="#666666"
     borderopacity="1"
     objecttolerance="10"
     gridtolerance="10"
     guidetolerance="10"
     inkscape:pageopacity="0"
     inkscape:pageshadow="2"
     inkscape:window-width="892"
     inkscape:window-height="609"
     id="namedview4"
     showgrid="false"
     inkscape:zoom="0.89702926"
     inkscape:cx="107.11437"
     inkscape:cy="882.91434"
     inkscape:window-x="0"
     inkscape:window-y="24"
     inkscape:window-maximized="0"
     inkscape:current-layer="g10" /><g
     id="g10"
     inkscape:groupmode="layer"
     inkscape:label="RhoneAlpes_cle04781e"
     transform="matrix(1.25,0,0,-1.25,0,1052.3625)"><g
       id="g12"><g
         id="g14"
         clip-path="url(#clipPath16)"><path
           d="m 1.439,732.934 -0.102,0.434 0.719,0.287 0,-0.576 -0.617,-0.145 z"
           style="fill:#254aa5;fill-opacity:1;fill-rule:nonzero;stroke:none"
           id="path20" /><path
           d="m 1.542,655.573 -0.411,0.144 0.925,1.008 0,-0.576 -0.514,-0.576 z"
           style="fill:#254aa5;fill-opacity:1;fill-rule:nonzero;stroke:none"
           id="path22" /><path
           d="m 0,670.411 14.178,0 0,86.583 -14.178,0 0,-86.583 z"
           style="fill:#f68712;fill-opacity:1;fill-rule:nonzero;stroke:none"
           id="path24" /><path
           d="m 0,653.7 14.178,0 0,19.881 -14.178,0 0,-19.881 z"
           style="fill:#912223;fill-opacity:1;fill-rule:nonzero;stroke:none"
           id="path26" /><path
           d="m 0,646.354 14.178,0 0,9.363 -14.178,0 0,-9.363 z"
           style="fill:#ec008c;fill-opacity:1;fill-rule:nonzero;stroke:none"
           id="path28" /><path
           d="m 0,630.186 14.178,0 0,18.428 -14.178,0 0,-18.428 z"
           style="fill:#8c2b99;fill-opacity:1;fill-rule:nonzero;stroke:none"
           id="path30" /><path
           d="m 89.66,756.764 c -3.629,-8.321 -12.253,-14.12 -22.366,-14.12 -9.219,0 -19.391,4.874 -23.434,14.205 l -29.682,0 0,-672.85 157.15,0 0,672.765 -81.668,0"
           style="fill:#254aa5;fill-opacity:1;fill-rule:nonzero;stroke:none"
           id="path32" /><path
           d="m 47.963,750.628 c -0.119,0.083 -0.177,0.168 -0.238,0.252 l 41.697,5.632 0,-0.085 -1.072,-0.335 -40.387,-5.464"
           style="fill:#1d3c85;fill-opacity:1;fill-rule:nonzero;stroke:none"
           id="path34" /><path
           d="m 14.297,746.088 -0.058,0.255 33.486,4.537 c 0.061,-0.084 0.119,-0.169 0.238,-0.252 l -33.666,-4.54"
           style="fill:#232b78;fill-opacity:1;fill-rule:nonzero;stroke:none"
           id="path36" /><path
           d="m 54.922,745.501 c -0.119,0.083 -0.238,0.168 -0.297,0.168 l 33.725,10.423 1.072,0.335 0.058,0 -0.951,-0.504 -33.607,-10.422"
           style="fill:#1d3c85;fill-opacity:1;fill-rule:nonzero;stroke:none"
           id="path38" /><path
           d="m 14.297,732.978 -0.058,0.251 40.386,12.44 c 0.059,0 0.178,-0.085 0.297,-0.168 L 14.297,732.978"
           style="fill:#232b78;fill-opacity:1;fill-rule:nonzero;stroke:none"
           id="path40" /><path
           d="m 64.024,742.811 c -0.179,0 -0.298,0 -0.476,0.085 l 24.981,13.027 0.951,0.504 c 0,-0.083 -0.058,-0.083 -0.058,-0.167 l -0.834,-0.589 -24.564,-12.86"
           style="fill:#1d3c85;fill-opacity:1;fill-rule:nonzero;stroke:none"
           id="path42" /><path
           d="m 14.358,716.839 -0.119,0.252 49.309,25.805 c 0.178,-0.085 0.297,-0.085 0.476,-0.085 L 14.358,716.839 m 75.064,39.421 c 0,0.084 0.058,0.084 0.058,0.167 l 0,-0.083 -0.058,-0.084"
           style="fill:#232b78;fill-opacity:1;fill-rule:nonzero;stroke:none"
           id="path44" /><path
           d="m 71.874,742.979 16.714,12.692 0.834,0.589 c -0.061,-0.084 -0.061,-0.168 -0.119,-0.251 l -0.477,-0.506 -16.415,-12.356 c -0.18,-0.083 -0.357,-0.083 -0.537,-0.168"
           style="fill:#1d3c85;fill-opacity:1;fill-rule:nonzero;stroke:none"
           id="path46" /><path
           d="m 14.358,699.188 -0.18,0.252 57.696,43.539 c 0.18,0.085 0.357,0.085 0.537,0.168 L 14.358,699.188 m 74.945,56.821 c 0.058,0.083 0.058,0.167 0.119,0.251 l 0.058,0.084 0.061,-0.084 -0.238,-0.251"
           style="fill:#232b78;fill-opacity:1;fill-rule:nonzero;stroke:none"
           id="path48" /><path
           d="m 14.178,674.645 0,0 m 65.966,71.443 8.682,9.415 0.477,0.506 c -0.121,-0.253 -0.299,-0.506 -0.416,-0.842 l -7.972,-8.573 c -0.236,-0.168 -0.535,-0.337 -0.771,-0.506"
           style="fill:#1d3c85;fill-opacity:1;fill-rule:nonzero;stroke:none"
           id="path50" /><path
           d="m 14.358,674.476 -0.18,0.169 65.966,71.443 c 0.236,0.169 0.535,0.338 0.771,0.506 L 14.358,674.476 m 74.529,80.691 c 0.117,0.336 0.295,0.589 0.416,0.842 l 0.238,0.251 0,0.084 0.059,-0.084 -0.596,-0.926 -0.117,-0.167"
           style="fill:#232b78;fill-opacity:1;fill-rule:nonzero;stroke:none"
           id="path52" /><path
           d="m 14.178,638.753 0,0.084 0,-0.084 m 72.982,113.64 1.488,2.438 C 88.23,753.99 87.695,753.15 87.16,752.393"
           style="fill:#1d3c85;fill-opacity:1;fill-rule:nonzero;stroke:none"
           id="path54" /><path
           d="m 14.358,638.669 -0.18,0.084 0,0.084 72.982,113.556 c 0.535,0.757 1.07,1.597 1.488,2.438 l 0.356,0.503 0.596,0.926 0.06,0 -0.478,-1.093 -74.824,-116.498"
           style="fill:#232b78;fill-opacity:1;fill-rule:nonzero;stroke:none"
           id="path56" /><path
           d="m 14.178,577.646 -0.058,0.084 0.058,0.085 0,-0.169 z"
           style="fill:#1d3c85;fill-opacity:1;fill-rule:nonzero;stroke:none"
           id="path58" /><path
           d="m 14.358,577.646 -0.18,0 0,0.169 75.004,177.352 0.478,1.093 0.059,-0.084 -0.239,-1.009 -75.122,-177.521 z"
           style="fill:#232b78;fill-opacity:1;fill-rule:nonzero;stroke:none"
           id="path60" /><path
           d="m 14.178,421.222 -0.058,0 0.058,0.169 0,-0.169 z"
           style="fill:#1d3c85;fill-opacity:1;fill-rule:nonzero;stroke:none"
           id="path62" /><path
           d="m 14.416,421.14 -0.238,0.082 0,0.169 75.302,333.776 0.239,1.009 0,0.084 0.06,-0.084 -0.06,-1.009 L 14.416,421.14 z"
           style="fill:#232b78;fill-opacity:1;fill-rule:nonzero;stroke:none"
           id="path64" /><path
           d="m 58.551,99.802 -0.238,0.086 31.406,655.279 0.06,1.093 0.059,0 0.119,-1.093 L 58.551,99.802 z"
           style="fill:#232b78;fill-opacity:1;fill-rule:nonzero;stroke:none"
           id="path66" /><path
           d="m 170.611,125.86 -80.654,629.307 -0.119,1.093 0.058,0 0.358,-1.093 80.594,-629.307 -0.237,0 z"
           style="fill:#232b78;fill-opacity:1;fill-rule:nonzero;stroke:none"
           id="path68" /><path
           d="m 171.385,493.172 -81.131,261.995 -0.358,1.093 0.061,0 0.475,-0.926 80.953,-261.237 0,-0.925 z"
           style="fill:#232b78;fill-opacity:1;fill-rule:nonzero;stroke:none"
           id="path70" /><path
           d="m 171.385,598.829 -80.953,156.505 -0.475,0.926 0.059,0 0.654,-0.841 80.715,-156.002 0,-0.588 z"
           style="fill:#232b78;fill-opacity:1;fill-rule:nonzero;stroke:none"
           id="path72" /><path
           d="m 171.385,649.68 -80.715,105.739 -0.654,0.841 0,0.084 0.06,0 0.772,-0.673 80.537,-105.57 0,-0.421 z"
           style="fill:#232b78;fill-opacity:1;fill-rule:nonzero;stroke:none"
           id="path74" /><path
           d="m 171.385,682.376 -80.537,73.295 -0.772,0.673 0,0.083 1.01,-0.671 80.299,-73.042 0,-0.338 z"
           style="fill:#232b78;fill-opacity:1;fill-rule:nonzero;stroke:none"
           id="path76" /><path
           d="m 171.207,704.232 -80.121,51.524 -1.01,0.671 0.059,0 1.011,-0.418 80.18,-51.526 -0.119,-0.251 z"
           style="fill:#232b78;fill-opacity:1;fill-rule:nonzero;stroke:none"
           id="path78" /><path
           d="m 171.207,722.385 -80.061,33.624 -1.011,0.418 0.058,0.253 81.133,-34.041 -0.119,-0.254 z"
           style="fill:#232b78;fill-opacity:1;fill-rule:nonzero;stroke:none"
           id="path80" /><path
           d="m 66.997,791.226 c -14.037,0 -25.457,-10.842 -25.457,-24.29 0,-13.45 11.42,-24.377 25.457,-24.377 14.037,0 24.862,10.927 24.862,24.377 0,13.448 -10.825,24.29 -24.862,24.29"
           style="fill:#ffffff;fill-opacity:1;fill-rule:nonzero;stroke:none"
           id="path82" /><path
           d="m 116.188,798.624 c 0.238,-1.01 -0.536,-2.103 -1.844,-2.775 -0.119,0 -0.178,0.083 -0.119,0.168 0.595,0.421 1.011,1.261 0.834,1.682 -0.061,0.335 -0.061,0.252 -0.358,0.335 -0.238,0.084 -0.476,0.337 -0.476,0.59 -0.12,0.419 0.119,0.923 0.595,1.008 0.475,0.084 1.129,-0.169 1.368,-1.008"
           style="fill:#254aa5;fill-opacity:1;fill-rule:nonzero;stroke:none"
           id="path84" /><path
           d="m 112.143,783.494 c -1.129,0 -1.666,0.756 -1.666,1.765 l 0,12.607 1.488,0 0,-11.935 c 0,-0.925 0.238,-1.093 0.771,-1.093 l 0.535,0 0.18,-1.007 c -0.476,-0.254 -0.832,-0.337 -1.308,-0.337"
           style="fill:#254aa5;fill-opacity:1;fill-rule:nonzero;stroke:none"
           id="path86" /><path
           d="m 118.508,783.662 0,13.279 6.482,0 -0.535,-1.427 -4.461,0 0,-4.371 4.401,0 0,-1.346 -4.401,0 0,-4.707 5.057,0 0,-1.428 -6.543,0 z"
           style="fill:#254aa5;fill-opacity:1;fill-rule:nonzero;stroke:none"
           id="path88" /><path
           d="m 133.854,783.662 -0.416,1.007 c -0.713,-0.586 -1.784,-1.175 -3.094,-1.175 -1.248,0 -2.856,0.672 -2.856,3.361 l 0,6.304 1.489,0 0,-6.219 c 0,-1.598 0.652,-2.185 1.841,-2.185 1.19,0 2.082,0.755 2.5,1.26 l 0,7.144 1.487,0 0,-5.464 c 0,-3.026 0.058,-3.612 0.177,-4.033 l -1.128,0"
           style="fill:#254aa5;fill-opacity:1;fill-rule:nonzero;stroke:none"
           id="path90" /><path
           d="m 142.061,791.731 c -0.237,0.084 -0.536,0.167 -0.893,0.167 -0.594,0 -1.486,-0.504 -2.082,-1.176 l 0,-7.06 -1.486,0 0,9.497 1.191,0 0.238,-1.092 c 1.248,1.176 2.02,1.344 2.676,1.344 0.416,0 0.772,-0.168 0.951,-0.252 l -0.595,-1.428"
           style="fill:#254aa5;fill-opacity:1;fill-rule:nonzero;stroke:none"
           id="path92" /><path
           d="m 147.473,792.15 c -1.784,0 -2.793,-1.428 -2.793,-3.697 0,-2.185 1.068,-3.698 2.793,-3.698 1.785,0 2.857,1.513 2.857,3.698 0,2.269 -1.012,3.697 -2.857,3.697 m 2.976,-7.481 c -0.715,-0.755 -1.785,-1.175 -2.976,-1.175 -1.19,0 -2.26,0.42 -2.973,1.175 -0.893,0.841 -1.309,2.186 -1.309,3.784 0,1.512 0.475,2.856 1.309,3.782 0.773,0.756 1.783,1.176 2.973,1.176 1.191,0 2.261,-0.42 2.976,-1.176 0.891,-0.926 1.367,-2.27 1.367,-3.782 0,-1.598 -0.476,-2.943 -1.367,-3.784"
           style="fill:#254aa5;fill-opacity:1;fill-rule:nonzero;stroke:none"
           id="path94" /><path
           d="m 156.99,792.067 c -0.654,0 -1.189,-0.084 -1.605,-0.252 l 0,-6.725 c 0.535,-0.169 0.892,-0.335 1.486,-0.335 2.024,0 3.332,1.428 3.332,3.782 0,2.437 -1.488,3.53 -3.213,3.53 m -0.058,-8.573 c -0.655,0 -1.131,0.168 -1.547,0.251 l 0,-4.791 -1.489,0 0,13.785 c 0.657,0.252 1.786,0.672 3.094,0.672 2.916,0 4.699,-1.848 4.699,-4.874 0,-3.278 -2.378,-5.043 -4.757,-5.043"
           style="fill:#254aa5;fill-opacity:1;fill-rule:nonzero;stroke:none"
           id="path96" /><path
           d="m 167.221,792.15 c -1.428,0 -2.319,-1.26 -2.319,-2.689 l 4.461,0 c 0,1.261 -0.713,2.689 -2.142,2.689 m -2.319,-3.95 c 0,-1.848 1.01,-3.445 3.153,-3.445 0.771,0 1.666,0.335 2.201,0.672 l 0.473,-1.009 c -0.713,-0.504 -1.903,-0.924 -2.973,-0.924 -2.975,0 -4.459,2.437 -4.459,5.126 0,2.774 1.605,4.791 3.865,4.791 2.44,0 3.807,-1.933 3.807,-4.874 l 0,-0.337 -6.067,0"
           style="fill:#254aa5;fill-opacity:1;fill-rule:nonzero;stroke:none"
           id="path98" /><path
           d="m 111.607,772.903 c -2.498,0 -4.222,-1.681 -4.222,-4.287 0,-2.607 1.724,-4.455 4.222,-4.455 2.44,0 4.284,1.596 4.284,4.371 0,2.604 -1.844,4.371 -4.284,4.371 m -2.794,-16.559 c -1.071,-0.588 -2.678,-1.681 -2.678,-3.447 0,-1.932 2.32,-3.445 5.949,-3.445 3.627,0 5.828,1.344 5.828,3.361 0,3.279 -6.721,2.858 -9.099,3.531 m 3.091,-9.246 c -5.65,0 -8.742,2.438 -8.742,5.464 0,2.017 1.367,3.53 3.508,4.623 -1.012,0.588 -1.309,1.428 -1.309,2.269 0,0.925 0.655,2.27 2.141,3.529 -1.902,1.094 -3.092,3.279 -3.092,5.633 0,3.867 3.153,6.724 6.899,6.724 1.369,0 2.38,-0.168 3.271,-0.589 0.24,-0.168 0.359,-0.083 0.479,0 0.951,0.842 2.853,1.682 5.173,1.262 l -0.834,-2.522 c -0.951,0.167 -1.902,0.253 -2.675,-0.084 1.367,-1.261 2.14,-2.858 2.14,-4.875 0,-4.036 -2.972,-6.808 -7.314,-6.808 -0.834,0 -1.608,0.167 -2.32,0.42 -0.596,-0.589 -0.952,-1.177 -0.952,-2.186 0,-2.69 12.787,0.084 12.787,-6.892 0,-3.11 -2.736,-5.968 -9.16,-5.968"
           style="fill:#254aa5;fill-opacity:1;fill-rule:nonzero;stroke:none"
           id="path100" /><path
           d="m 132.188,765.254 -3.69,-0.169 c -3.33,-0.083 -4.639,-1.261 -4.639,-3.278 0,-1.849 1.131,-3.362 3.571,-3.362 2.437,0 3.865,1.177 4.758,2.101 l 0,4.708 z m 0.89,-8.91 -0.771,1.765 c -1.131,-1.093 -2.914,-2.186 -5.651,-2.186 -3.033,0 -5.711,2.186 -5.711,5.716 0,3.615 2.559,5.884 7.494,6.052 l 3.749,0.083 0,0.842 c 0,3.194 -1.667,4.287 -3.985,4.287 -2.439,0 -3.928,-1.009 -4.879,-1.767 l -1.187,2.103 c 2.258,1.597 4.222,2.101 6.541,2.101 3.568,0 6.365,-1.513 6.365,-6.304 l 0,-5.632 c 0,-5.21 0.178,-6.472 0.416,-7.06 l -2.381,0"
           style="fill:#254aa5;fill-opacity:1;fill-rule:nonzero;stroke:none"
           id="path102" /><path
           d="m 145.393,772.903 c -2.498,0 -4.225,-1.681 -4.225,-4.287 0,-2.607 1.727,-4.455 4.225,-4.455 2.439,0 4.281,1.596 4.281,4.371 0,2.604 -1.842,4.371 -4.281,4.371 m -2.797,-16.559 c -1.071,-0.588 -2.676,-1.681 -2.676,-3.447 0,-1.932 2.32,-3.444 5.947,-3.444 3.629,0 5.83,1.343 5.83,3.36 0,3.279 -6.72,2.858 -9.101,3.531 m 3.093,-9.246 c -5.652,0 -8.742,2.438 -8.742,5.464 0,2.017 1.367,3.53 3.508,4.623 -1.01,0.588 -1.307,1.428 -1.307,2.269 0,0.925 0.653,2.27 2.139,3.529 -1.902,1.094 -3.092,3.279 -3.092,5.633 0,3.867 3.153,6.724 6.901,6.724 1.367,0 2.377,-0.168 3.271,-0.589 0.237,-0.168 0.356,-0.083 0.475,0 0.951,0.842 2.855,1.682 5.174,1.262 l -0.832,-2.522 c -0.952,0.167 -1.903,0.253 -2.676,-0.084 1.367,-1.261 2.14,-2.858 2.14,-4.875 0,-4.036 -2.974,-6.808 -7.316,-6.808 -0.832,0 -1.603,0.167 -2.318,0.42 -0.596,-0.589 -0.953,-1.177 -0.953,-2.186 0,-2.69 12.789,0.084 12.789,-6.892 0,-3.11 -2.737,-5.968 -9.161,-5.968"
           style="fill:#254aa5;fill-opacity:1;fill-rule:nonzero;stroke:none"
           id="path104" /><path
           d="m 163.414,772.903 c -2.736,0 -4.461,-2.438 -4.461,-5.38 l 8.744,0 c 0,2.606 -1.486,5.38 -4.283,5.38 m -4.519,-7.818 c 0,-3.53 2.021,-6.64 6.185,-6.64 1.547,0 3.272,0.673 4.342,1.345 l 0.892,-1.933 c -1.369,-1.093 -3.687,-1.934 -5.83,-1.934 -5.828,0 -8.623,4.791 -8.623,10.086 0,5.381 3.034,9.331 7.494,9.331 4.817,0 7.436,-3.781 7.436,-9.583 l 0,-0.672 -11.896,0"
           style="fill:#254aa5;fill-opacity:1;fill-rule:nonzero;stroke:none"
           id="path106" /><path
           d="m 98.521,756.512 0,11.431 c 0,2.269 -0.416,4.875 -3.212,4.875 -2.319,0 -4.34,-1.596 -5.768,-2.858 l 0,-13.196 -2.855,0 0,18.324 2.318,0 0.418,-2.185 c 2.199,1.597 4.043,2.604 6.601,2.604 2.676,0 5.354,-1.932 5.354,-6.555 l 0,-12.44 -2.856,0"
           style="fill:#254aa5;fill-opacity:1;fill-rule:nonzero;stroke:none"
           id="path108" /><path
           d="m 48.261,781.223 c 0.477,-2.016 -1.071,-4.202 -3.747,-5.547 -0.238,0 -0.357,0.168 -0.299,0.421 1.25,0.757 2.024,2.436 1.785,3.445 -0.118,0.504 -0.178,0.421 -0.713,0.588 -0.536,0.169 -0.953,0.758 -1.072,1.178 -0.177,0.84 0.299,1.848 1.25,2.017 0.952,0.252 2.379,-0.252 2.796,-2.102"
           style="fill:#254aa5;fill-opacity:1;fill-rule:nonzero;stroke:none"
           id="path110" /><path
           d="m 36.366,756.092 c -2.678,0 -4.283,0.672 -5.473,1.428 l 1.07,2.185 c 0.893,-0.503 2.499,-1.344 4.521,-1.344 2.261,0 3.925,1.093 3.925,2.774 0,4.539 -8.446,2.942 -8.446,9.414 0,2.69 1.903,4.958 6.186,4.958 1.963,0 3.449,-0.419 4.641,-1.007 l 0,-2.522 c -1.311,0.588 -2.618,1.092 -4.521,1.092 -1.903,0 -3.45,-0.673 -3.45,-2.353 0,-4.118 8.564,-3.111 8.564,-9.162 0,-3.866 -3.211,-5.463 -7.017,-5.463"
           style="fill:#254aa5;fill-opacity:1;fill-rule:nonzero;stroke:none"
           id="path112" /><path
           d="m 78.001,784.921 -0.119,0.085 c -0.178,0.084 -0.358,0.169 -0.475,0.253 -0.179,0.083 -0.299,0.168 -0.418,0.168 -4.519,2.1 -9.754,2.521 -14.928,1.093 -9.339,-2.606 -15.525,-10.927 -15.882,-20.09 l -0.059,-0.083 0,-0.338 0,-0.083 0,-0.757 0,-0.504 c 0.059,-0.504 0.059,-1.008 0.119,-1.513 l 0.059,-0.169 0,-0.252 c 0.119,-1.092 0.357,-2.1 0.595,-3.109 l 0.059,-0.168 c 0.298,-1.177 0.715,-2.186 1.19,-3.194 l 0,-0.084 c 0.535,-1.093 1.13,-2.186 1.784,-3.194 l 0.119,-0.085 0,-0.084 c 0.476,-0.587 0.952,-1.176 1.428,-1.764 5.412,-6.219 14.096,-9.163 22.544,-6.809 4.996,1.344 11.359,4.96 15.524,12.609 l -2.855,0 c -2.439,-5.128 -7.494,-8.742 -13.146,-10.002 -6.721,-1.514 -14.334,3.194 -18.32,9.329 -0.059,0.168 0.06,0 0.06,0 0,0 9.815,3.194 14.573,5.8 5.412,2.941 14.156,12.02 13.501,18.828 l 0,0.167 c -0.119,0.085 -0.236,0.252 -0.296,0.337 -0.358,0.251 -0.655,0.589 -1.012,0.84 -0.951,0.925 -2.022,1.683 -3.211,2.353 -0.119,0.085 -0.238,0.168 -0.359,0.168 -0.178,0.086 -0.297,0.169 -0.475,0.252"
           style="fill:#254aa5;fill-opacity:1;fill-rule:nonzero;stroke:none"
           id="path114" /><path
           d="m 47.547,742.139 3.272,-2.353 -1.249,3.865 3.33,2.354 -4.104,0 -1.249,3.868 -1.249,-3.868 -4.044,0 3.272,-2.354 -1.25,-3.865 3.271,2.353 z"
           style="fill:#3555ae;fill-opacity:1;fill-rule:nonzero;stroke:none"
           id="path116" /><path
           d="m 53.317,729.111 -1.25,3.867 -1.248,-3.867 -4.046,0 3.272,-2.355 -1.249,-3.865 3.271,2.354 3.271,-2.354 -1.248,3.865 3.33,2.355 -4.103,0 z"
           style="fill:#3555ae;fill-opacity:1;fill-rule:nonzero;stroke:none"
           id="path118" /><path
           d="m 65.688,716.755 -1.248,3.865 -1.248,-3.865 -4.047,0 3.272,-2.354 -1.249,-3.865 3.272,2.352 3.27,-2.352 -1.248,3.865 3.33,2.354 -4.104,0 z"
           style="fill:#3555ae;fill-opacity:1;fill-rule:nonzero;stroke:none"
           id="path120" /><path
           d="m 82.522,712.299 -1.25,3.868 -1.248,-3.868 -4.045,0 3.27,-2.437 -1.189,-3.782 3.212,2.354 3.272,-2.354 -1.248,3.782 3.329,2.437 -4.103,0 z"
           style="fill:#3555ae;fill-opacity:1;fill-rule:nonzero;stroke:none"
           id="path122" /><path
           d="m 99.354,716.755 -1.249,3.865 -1.248,-3.865 -4.046,0 3.332,-2.354 -1.25,-3.865 3.212,2.352 3.272,-2.352 -1.25,3.865 3.332,2.354 -4.105,0 z"
           style="fill:#3555ae;fill-opacity:1;fill-rule:nonzero;stroke:none"
           id="path124" /><path
           d="m 108.813,756.344 c 2.378,-0.673 9.099,-0.252 9.099,-3.531 0,-2.017 -2.201,-3.361 -5.828,-3.361 -3.629,0 -5.949,1.513 -5.949,3.445 0,1.766 1.607,2.859 2.678,3.447 m -5.651,-3.782 c 0,-3.026 3.092,-5.464 8.742,-5.464 6.424,0 9.16,2.858 9.16,5.968 0,1.765 -0.832,2.943 -2.14,3.698 l -12.967,0 c -1.725,-1.008 -2.795,-2.354 -2.795,-4.202"
           style="fill:#ffffff;fill-opacity:1;fill-rule:nonzero;stroke:none"
           id="path126" /><path
           d="m 142.596,756.344 c 2.381,-0.673 9.101,-0.252 9.101,-3.531 0,-2.017 -2.201,-3.36 -5.83,-3.36 -3.627,0 -5.947,1.512 -5.947,3.444 0,1.766 1.605,2.859 2.676,3.447 m -5.649,-3.782 c 0,-3.026 3.09,-5.464 8.742,-5.464 6.424,0 9.161,2.858 9.161,5.968 0,1.765 -0.834,2.943 -2.141,3.698 l -12.967,0 c -1.724,-1.008 -2.795,-2.354 -2.795,-4.202"
           style="fill:#ffffff;fill-opacity:1;fill-rule:nonzero;stroke:none"
           id="path128" /><path
           d="m 74.669,774.668 3.271,2.353 3.213,-2.353 -1.189,3.865 3.271,2.355 -4.043,0 -1.252,3.867 -1.248,-3.867 -4.103,0 3.332,-2.355 -1.252,-3.865 z"
           style="fill:#fff200;fill-opacity:1;fill-rule:nonzero;stroke:none"
           id="path130" /><path
           d="m 48.619,756.176 3.211,2.353 3.271,-2.353 -1.25,3.782 3.333,2.438 -4.104,0 -1.25,3.866 -1.249,-3.866 -4.045,0 3.271,-2.438 -1.188,-3.782 z"
           style="fill:#fff200;fill-opacity:1;fill-rule:nonzero;stroke:none"
           id="path132" /><path
           d="m 55.101,763.235 7.257,5.297 7.256,-5.297 -2.736,8.575 7.375,5.295 -9.1,0 -2.795,8.742 -2.796,-8.742 -9.101,0 7.376,-5.295 -2.736,-8.575 z"
           style="fill:#fff200;fill-opacity:1;fill-rule:nonzero;stroke:none"
           id="path134" /><path
           d="m 65.859,733.079 c -0.981,0 -1.597,-0.868 -1.597,-1.918 l 3.122,0 c 0,0.924 -0.517,1.918 -1.525,1.918 m -1.61,-2.786 c 0,-1.26 0.727,-2.38 2.198,-2.38 0.559,0 1.176,0.224 1.567,0.476 l 0.309,-0.7 c -0.477,-0.392 -1.317,-0.672 -2.086,-0.672 -2.072,0 -3.08,1.694 -3.08,3.584 0,1.918 1.092,3.346 2.687,3.346 1.708,0 2.647,-1.358 2.647,-3.416 l 0,-0.238 -4.242,0 z"
           style="fill:#ffffff;fill-opacity:1;fill-rule:nonzero;stroke:none"
           id="path136" /><path
           d="m 73.643,727.157 0,4.074 c 0,0.826 -0.141,1.749 -1.148,1.749 -0.812,0 -1.54,-0.573 -2.058,-1.035 l 0,-4.788 -1.022,0 0,6.622 0.839,0 0.141,-0.784 c 0.784,0.574 1.441,0.952 2.365,0.952 0.952,0 1.905,-0.686 1.905,-2.338 l 0,-4.452 -1.022,0 z"
           style="fill:#ffffff;fill-opacity:1;fill-rule:nonzero;stroke:none"
           id="path138" /><path
           d="m 83.655,738.977 -1.261,0 0,-4.92 1.34,0 c 1.54,0 2.7,1.18 2.7,2.56 0,1.26 -0.68,2.36 -2.779,2.36 m 4.099,-11.82 c -2.12,3.36 -3.36,5.48 -3.94,5.6 l -1.42,0 0,-5.6 -1.46,0 0,13.18 2.721,0 c 3.099,0 4.359,-1.58 4.359,-3.56 0,-1.88 -1.2,-3.06 -2.58,-3.56 l 0,-0.02 c 0.42,-0.2 1.92,-2.66 4.06,-6.04 l -1.74,0 z"
           style="fill:#ffffff;fill-opacity:1;fill-rule:nonzero;stroke:none"
           id="path140" /><path
           d="m 96.354,727.157 0,5.88 c 0,1.18 -0.221,2.44 -1.7,2.44 -1.14,0 -2.121,-0.8 -2.881,-1.48 l 0,-6.84 -1.459,0 0,14.16 1.459,0 0,-5.82 c 1.041,0.8 1.981,1.36 3.301,1.36 1.34,0 2.74,-0.88 2.74,-3.46 l 0,-6.24 -1.46,0 z"
           style="fill:#ffffff;fill-opacity:1;fill-rule:nonzero;stroke:none"
           id="path142" /><path
           d="m 104.834,737.777 -1.34,1.96 -1.301,-1.96 -1.459,0 2.08,2.94 1.379,0 2.121,-2.94 -1.48,0 z m -1.42,-2.16 c -1.779,0 -2.801,-1.44 -2.801,-3.68 0,-2.24 1.061,-3.72 2.821,-3.72 1.759,0 2.82,1.48 2.82,3.72 0,2.24 -1.02,3.68 -2.84,3.68 m 2.981,-7.48 c -0.741,-0.76 -1.782,-1.18 -3,-1.18 -1.18,0 -2.202,0.4 -2.942,1.16 -0.859,0.88 -1.318,2.22 -1.318,3.78 0,1.56 0.478,2.86 1.318,3.74 0.762,0.78 1.781,1.22 2.961,1.22 1.221,0 2.24,-0.44 3,-1.22 0.84,-0.88 1.32,-2.18 1.32,-3.74 0,-1.56 -0.48,-2.88 -1.339,-3.76"
           style="fill:#ffffff;fill-opacity:1;fill-rule:nonzero;stroke:none"
           id="path144" /><path
           d="m 115.094,727.157 0,5.82 c 0,1.18 -0.199,2.5 -1.641,2.5 -1.16,0 -2.199,-0.82 -2.939,-1.48 l 0,-6.84 -1.459,0 0,9.46 1.199,0 0.199,-1.12 c 1.121,0.82 2.061,1.36 3.381,1.36 1.359,0 2.721,-0.98 2.721,-3.34 l 0,-6.36 -1.461,0 z"
           style="fill:#ffffff;fill-opacity:1;fill-rule:nonzero;stroke:none"
           id="path146" /><path
           d="m 121.732,735.617 c -1.398,0 -2.279,-1.24 -2.279,-2.74 l 4.461,0 c 0,1.32 -0.74,2.74 -2.182,2.74 m -2.298,-3.98 c 0,-1.8 1.039,-3.4 3.138,-3.4 0.801,0 1.682,0.32 2.241,0.68 l 0.441,-1 c -0.682,-0.56 -1.881,-0.96 -2.981,-0.96 -2.96,0 -4.4,2.42 -4.4,5.12 0,2.74 1.561,4.78 3.84,4.78 2.439,0 3.781,-1.94 3.781,-4.88 l 0,-0.34 -6.06,0 z"
           style="fill:#ffffff;fill-opacity:1;fill-rule:nonzero;stroke:none"
           id="path148" /><path
           d="m 126.512,732.757 5.262,0 0,-1.32 -5.262,0 0,1.32 z"
           style="fill:#ffffff;fill-opacity:1;fill-rule:nonzero;stroke:none"
           id="path150" /><path
           d="m 138.293,736.437 c -0.24,0.68 -0.4,1.2 -0.5,1.64 l -0.02,0 c -0.121,-0.48 -0.281,-0.96 -0.519,-1.62 l -1.641,-4.48 4.241,0 -1.561,4.46 z m 3.439,-9.28 -1.359,3.52 -5.301,0 -1.259,-3.52 -1.459,0 5.039,13.22 0.82,0 5.06,-13.22 -1.541,0 z"
           style="fill:#ffffff;fill-opacity:1;fill-rule:nonzero;stroke:none"
           id="path152" /><path
           d="m 145.773,726.957 c -1.16,0 -1.66,0.74 -1.66,1.74 l 0,12.62 1.459,0 0,-11.96 c 0,-0.9 0.221,-1.08 0.78,-1.08 0.101,0 0.261,0 0.5,0.06 l 0.181,-1.06 c -0.441,-0.22 -0.781,-0.32 -1.26,-0.32"
           style="fill:#ffffff;fill-opacity:1;fill-rule:nonzero;stroke:none"
           id="path154" /><path
           d="m 150.932,735.537 c -0.68,0 -1.18,-0.1 -1.619,-0.24 l 0,-6.7 c 0.519,-0.24 0.898,-0.38 1.519,-0.38 1.981,0 3.32,1.42 3.32,3.76 0,2.48 -1.5,3.56 -3.22,3.56 m -0.039,-8.58 c -0.702,0 -1.182,0.14 -1.58,0.3 l 0,-4.84 -1.461,0 0,13.8 c 0.64,0.22 1.74,0.64 3.099,0.64 2.862,0 4.68,-1.84 4.68,-4.86 0,-3.3 -2.379,-5.04 -4.738,-5.04"
           style="fill:#ffffff;fill-opacity:1;fill-rule:nonzero;stroke:none"
           id="path156" /><path
           d="m 160.313,735.617 c -1.401,0 -2.28,-1.24 -2.28,-2.74 l 4.459,0 c 0,1.32 -0.74,2.74 -2.179,2.74 m -2.301,-3.98 c 0,-1.8 1.041,-3.4 3.14,-3.4 0.801,0 1.68,0.32 2.241,0.68 l 0.439,-1 c -0.68,-0.56 -1.879,-0.96 -2.98,-0.96 -2.959,0 -4.399,2.42 -4.399,5.12 0,2.74 1.559,4.78 3.84,4.78 2.439,0 3.779,-1.94 3.779,-4.88 l 0,-0.34 -6.06,0 z"
           style="fill:#ffffff;fill-opacity:1;fill-rule:nonzero;stroke:none"
           id="path158" /><path
           d="m 167.271,726.957 c -1.359,0 -2.179,0.36 -2.798,0.72 l 0.558,1.14 c 0.442,-0.28 1.26,-0.68 2.301,-0.68 1.16,0 2,0.52 2,1.4 0,2.32 -4.301,1.5 -4.301,4.82 0,1.36 0.981,2.5 3.141,2.5 1,0 1.76,-0.22 2.381,-0.5 l 0,-1.28 c -0.66,0.28 -1.342,0.56 -2.321,0.56 -0.961,0 -1.759,-0.34 -1.759,-1.2 0,-2.12 4.379,-1.58 4.379,-4.68 0,-1.98 -1.641,-2.8 -3.581,-2.8"
           style="fill:#ffffff;fill-opacity:1;fill-rule:nonzero;stroke:none"
           id="path160" /></g></g></g></svg>