<?xml version="1.0" encoding="UTF-8" standalone="no"?>
<!-- Created with Inkscape (http://www.inkscape.org/) -->

<svg
   xmlns:dc="http://purl.org/dc/elements/1.1/"
   xmlns:cc="http://creativecommons.org/ns#"
   xmlns:rdf="http://www.w3.org/1999/02/22-rdf-syntax-ns#"
   xmlns:svg="http://www.w3.org/2000/svg"
   xmlns="http://www.w3.org/2000/svg"
   xmlns:sodipodi="http://sodipodi.sourceforge.net/DTD/sodipodi-0.dtd"
   xmlns:inkscape="http://www.inkscape.org/namespaces/inkscape"
   id="svg4649"
   version="1.1"
   inkscape:version="0.48.4 r9939"
   width="890"
   height="500"
   xml:space="preserve"
   sodipodi:docname="sengage.svg"><metadata
     id="metadata4655"><rdf:RDF><cc:Work
         rdf:about=""><dc:format>image/svg+xml</dc:format><dc:type
           rdf:resource="http://purl.org/dc/dcmitype/StillImage" /><dc:title /></cc:Work></rdf:RDF></metadata><defs
     id="defs4653" /><sodipodi:namedview
     pagecolor="#ffffff"
     bordercolor="#666666"
     borderopacity="1"
     objecttolerance="10"
     gridtolerance="10"
     guidetolerance="10"
     inkscape:pageopacity="0"
     inkscape:pageshadow="2"
     inkscape:window-width="1449"
     inkscape:window-height="654"
     id="namedview4651"
     showgrid="false"
     inkscape:zoom="0.31714785"
     inkscape:cx="372.04724"
     inkscape:cy="526.18109"
     inkscape:window-x="0"
     inkscape:window-y="24"
     inkscape:window-maximized="0"
     inkscape:current-layer="g4657" /><g
     id="g4657"
     inkscape:groupmode="layer"
     inkscape:label="sengage"
     transform="matrix(1.25,0,0,-1.25,0,500.00002)"><g
       id="g4659"
       transform="matrix(3.7936195,0,0,-3.7936195,-773.96651,-1564.7328)"><path
         d="m 281.83545,-461.29688 c 0,0 0,-17.02539 0,-17.02539 1.87646,-1.6748 4.51514,-3.75586 7.45703,-3.75586 3.65479,0 4.16309,3.3501 4.16309,6.34424 0,0 0,14.41846 0,14.41846 0,0 -11.61133,0 -11.61133,0 -0.002,0.006 -0.006,0.0122 -0.009,0.0186 z m 55.31494,-1.76513 c 0,0 0.71973,1.74658 0.71973,1.74658 0,0 -3.20313,0 -3.20313,0 1.00977,-0.50391 1.83594,-1.12109 2.4834,-1.74658 z m -4.97559,-9.03711 c 0,0 4.77442,-0.15137 4.77442,-0.15137 0,0 0,6.0918 0,6.0918 -1.11817,1.16797 -2.99609,2.74121 -6.14258,2.74121 -3.14746,0 -4.66992,-1.97998 -4.66992,-4.41602 0,-2.64062 1.72363,-4.11279 6.03808,-4.26562 z m -27.35937,-4.5166 c 0,-3.3501 2.2334,-5.53272 5.48145,-5.53272 3.19726,0 5.53417,2.2334 5.53417,5.5835 0,3.65381 -2.38671,5.68555 -5.53417,5.68555 -3.24805,0 -5.48145,-2.38624 -5.48145,-5.73633 z m 43.7666,0 c 0,-3.3501 2.2334,-5.53272 5.48145,-5.53272 3.19726,0 5.53125,2.2334 5.53125,5.5835 0,3.65381 -2.38672,5.68555 -5.53125,5.68555 -3.24805,0 -5.48145,-2.38624 -5.48145,-5.73633 z m 28.82031,-5.58301 c 3.65723,0 5.53125,3.604 5.53125,6.95459 0,0 -11.31543,0 -11.31543,0 0,-3.80762 2.2334,-6.95459 5.78418,-6.95459 z m 6.63672,20.8833 c 0.88574,-0.37695 1.67871,-0.83057 2.29785,-1.33984 0,0 -1.11718,-2.5376 -1.11718,-2.5376 -1.4209,0.91308 -3.65723,1.72558 -5.68555,1.72558 -5.32813,0 -7.96777,-4.06201 -7.96777,-8.63183 0,0 15.3789,0 15.3789,0 0,-0.3042 0,-0.60938 0,-0.86035 0,-7.46143 -3.40234,-12.38623 -9.59179,-12.38623 -5.78711,0 -9.74707,5.17675 -9.74707,12.13037 0,5.11816 2.04199,9.83691 6.20214,11.8999 0,0 -10.24316,0 -10.24316,0 -4.72363,-2.83643 -13.81836,-1.53857 -13.81836,-4.13232 0,-1.21827 0.45996,-1.9795 1.21973,-2.792 0.91113,0.3545 1.92968,0.50586 3.04199,0.50586 5.58594,0 9.44629,-3.60254 9.44629,-8.83105 0,-2.5376 -1.01856,-4.61768 -2.79395,-6.24317 1.01563,-0.50781 2.23242,-0.40527 3.50489,-0.10253 0,0 1.0625,-3.34864 1.0625,-3.34864 -2.99317,-0.50732 -5.48243,0.5586 -6.69922,1.67627 -0.1543,0.15235 -0.30567,0.2002 -0.61133,0.0488 -1.16699,-0.60937 -2.43652,-0.81152 -4.21484,-0.81152 -4.87012,0 -8.92872,3.70459 -8.92872,8.72998 0,2.99463 1.47266,5.83691 3.95899,7.25976 -1.92969,1.62207 -2.74219,3.40186 -2.74219,4.56836 0,1.11572 0.35547,2.23438 1.67383,2.94531 -0.32422,0.16797 -0.63281,0.34424 -0.92969,0.52686 0,0 -5.74414,0 -5.74414,0 -0.20801,-1.02051 -0.33887,-3.14404 -0.33887,-8.60107 0,0 0,-7.30713 0,-7.30713 0,-6.14258 -3.65332,-8.12207 -8.22168,-8.12207 -3.04785,0 -5.583,0.65869 -8.47753,2.73925 0,0 1.52343,2.69141 1.52343,2.69141 1.26563,-0.96338 3.19922,-2.2334 6.29395,-2.2334 3.04492,0 5.17871,1.36963 5.17871,5.48096 0,0.20459 0,0.76221 0,1.11865 0,0 -4.87598,0.15137 -4.87598,0.15137 -6.34375,0.20361 -9.63965,3.09668 -9.63965,7.81738 0,2.8794 1.37012,5.05078 3.36133,6.26465 0,0 -5.99316,0 -5.99316,0 -4.72559,-2.83643 -13.82129,-1.53857 -13.82129,-4.13232 0,-1.21827 0.45996,-1.9795 1.21973,-2.792 0.91406,0.3545 1.92968,0.50586 3.04492,0.50586 5.58593,0 9.44043,-3.60254 9.44043,-8.83105 0,-2.5376 -1.01563,-4.61768 -2.792,-6.24317 1.01661,-0.50781 2.2334,-0.40527 3.50586,-0.10253 0,0 1.0625,-3.34864 1.0625,-3.34864 -2.99316,-0.50732 -5.47949,0.5586 -6.69628,1.67627 -0.1543,0.15235 -0.30567,0.2002 -0.61133,0.0488 -1.167,-0.60937 -2.43653,-0.81152 -4.21192,-0.81152 -4.87402,0 -8.93457,3.70459 -8.93457,8.72998 0,2.99463 1.47266,5.83691 3.95899,7.25976 -1.92969,1.62207 -2.73926,3.40186 -2.73926,4.56836 0,1.11572 0.35547,2.23438 1.67383,2.94531 -0.32422,0.16797 -0.63379,0.34424 -0.93067,0.52686 0,0 -5.80957,0 -5.80957,0 0,0 0,-15.79004 0,-15.79004 0,-5.98828 -3.45263,-8.47607 -6.90381,-8.47607 -3.34912,0 -5.73339,1.37207 -8.57617,3.45361 0,0 -0.50781,-2.84521 -0.50781,-2.84521 0,0 -3.04688,0 -3.04688,0 0,0 0,23.67089 0,23.67089 -3.23876,6.55909 -9.84619,11.23438 -17.14111,12.84766 -8.73926,1.93213 -18.55566,-4.08496 -23.71728,-12.08057 -0.11475,-0.17822 0.022,0.0181 0.022,0.0181 0,0 12.74658,-4.05811 18.90088,-7.46777 8.10596,-4.49366 18.7539,-16.24317 17.48877,-24.67578 -2.24317,-2.11133 -3.56592,-3.49219 -8.22852,-5.76954 -5.08691,-2.48584 -12.64013,-3.24951 -19.31982,-1.37695 -12.0874,3.38672 -20.11475,14.12647 -20.63037,26.01514 -9.8e-4,0.0283 -9.8e-4,0.0562 -0.004,0.0864 -0.007,0.15235 -0.007,0.30518 -0.009,0.45801 -0.001,0.0249 -0.001,0.0479 -0.001,0.0747 -0.009,0.33056 -0.009,0.6626 -0.004,0.99463 0.001,0.20947 0.004,0.41748 0.0103,0.62646 0,0.0274 0.003,0.0576 0.004,0.0864 0.0186,0.64111 0.0713,1.28564 0.13672,1.92822 0.007,0.0771 0.0186,0.15332 0.0259,0.23047 0.0146,0.11377 0.0308,0.22217 0.0425,0.33398 0.16162,1.33545 0.41504,2.67774 0.77881,4.01612 0.019,0.0723 0.0332,0.14502 0.0537,0.21777 0.40625,1.4502 0.92431,2.83887 1.53564,4.16846 0.007,0.0156 0.0132,0.0322 0.022,0.0488 0.6665,1.44677 1.44677,2.81884 2.32568,4.10791 0.0395,0.0566 0.0786,0.11767 0.1167,0.17578 0,0 0.0322,0.0469 0.0322,0.0469 0.57178,0.81934 1.18604,1.60254 1.83106,2.35156 6.99121,8.07178 18.25879,11.87842 29.20166,8.81055 6.44238,-1.80713 14.70068,-6.44433 20.21582,-16.25683 0,0 0.0147,0 0.0147,0 -4.66748,10.7583 -15.8584,18.35791 -28.89697,18.35791 -11.98096,0 -22.39551,-6.41163 -27.62989,-15.79444 0,0 0,43.98682 0,43.98682 0,0 163.70948,0 163.70948,0 0,0 0,-46.58008 0,-46.58008 0,0 -4.97364,0 -4.97364,0 z"
         style="fill:#254aa5;fill-opacity:1;fill-rule:nonzero;stroke:none"
         id="path4661"
         inkscape:connector-curvature="0" /><path
         d="m 228.23193,-492.80615 c 0.64063,2.65332 -1.39453,5.43213 -4.8164,7.19385 -0.32032,0.008 -0.51123,-0.24512 -0.41211,-0.55518 1.62012,-0.90967 2.64795,-3.10449 2.33349,-4.41455 -0.17334,-0.72217 -0.24316,-0.55615 -0.98144,-0.77979 -0.67969,-0.20752 -1.21533,-0.94873 -1.35352,-1.57275 -0.2417,-1.08447 0.41358,-2.31738 1.62598,-2.60986 1.21094,-0.29102 3.03613,0.37695 3.604,2.73828 z"
         style="fill:#254aa5;fill-opacity:1;fill-rule:nonzero;stroke:none"
         id="path4663"
         inkscape:connector-curvature="0" /><path
         d="m 212.82031,-460.21924 c -3.45117,0 -5.53271,-0.91504 -7.10498,-1.82812 0,0 1.4209,-2.8916 1.4209,-2.8916 1.11621,0.70947 3.19922,1.7246 5.83838,1.7246 2.94287,0 5.07715,-1.31933 5.07715,-3.55273 0,-5.88818 -10.91553,-3.80859 -10.91553,-12.23389 0,-3.45263 2.48877,-6.34472 7.96924,-6.34472 2.53711,0 4.46875,0.55908 6.04053,1.26709 0,0 0,3.25097 0,3.25097 -1.67676,-0.71045 -3.39893,-1.42285 -5.8877,-1.42285 -2.43799,0 -4.46728,0.86377 -4.46728,3.0459 0,5.38037 11.11621,4.01074 11.11621,11.87842 0,5.02685 -4.16016,7.10693 -9.08692,7.10693 z"
         style="fill:#254aa5;fill-opacity:1;fill-rule:nonzero;stroke:none"
         id="path4665"
         inkscape:connector-curvature="0" /><path
         d="m 316.16992,-515.45459 c 0.31738,1.30713 -0.6875,2.67773 -2.37597,3.54639 -0.15723,0.004 -0.24707,-0.12061 -0.20118,-0.27198 0.79786,-0.4497 1.30469,-1.53369 1.14746,-2.18066 -0.0811,-0.35205 -0.11621,-0.27002 -0.47753,-0.38184 -0.3379,-0.0996 -0.60254,-0.46728 -0.66993,-0.77441 -0.12207,-0.53564 0.20118,-1.14355 0.80078,-1.2876 0.59668,-0.14258 1.49708,0.18701 1.77637,1.3501 z"
         style="fill:#254aa5;fill-opacity:1;fill-rule:nonzero;stroke:none"
         id="path4667"
         inkscape:connector-curvature="0" /><path
         d="m 310.95898,-495.89209 c -1.51074,0 -2.15722,-0.9624 -2.15722,-2.2627 0,0 0,-16.40185 0,-16.40185 0,0 1.89453,0 1.89453,0 0,0 0,15.54346 0,15.54346 0,1.17041 0.28516,1.40429 1.01367,1.40429 0.12793,0 0.33789,0 0.64942,-0.0781 0,0 0.23535,1.37793 0.23535,1.37793 -0.57325,0.28515 -1.0127,0.41699 -1.63575,0.41699 z"
         style="fill:#254aa5;fill-opacity:1;fill-rule:nonzero;stroke:none"
         id="path4669"
         inkscape:connector-curvature="0" /><path
         d="m 319.20898,-496.1543 c 0,0 0,-17.13086 0,-17.13086 0,0 8.39551,0 8.39551,0 0,0 -0.72461,1.76709 -0.72461,1.76709 0,0 -5.76953,0 -5.76953,0 0,0 0,5.71973 0,5.71973 0,0 5.7168,0 5.7168,0 0,0 0,1.74316 0,1.74316 0,0 -5.7168,0 -5.7168,0 0,0 0,6.13477 0,6.13477 0,0 6.57324,0 6.57324,0 0,0 0,1.76611 0,1.76611 0,0 -8.47461,0 -8.47461,0 z"
         style="fill:#254aa5;fill-opacity:1;fill-rule:nonzero;stroke:none"
         id="path4671"
         inkscape:connector-curvature="0" /><path
         d="m 339.0166,-496.1543 c 0,0 -0.49219,-1.27197 -0.49219,-1.27197 -0.91113,0.77881 -2.34082,1.53418 -3.97949,1.53418 -1.66211,0 -3.74121,-0.8584 -3.74121,-4.31787 0,0 0,-8.23975 0,-8.23975 0,0 1.89551,0 1.89551,0 0,0 0,8.05957 0,8.05957 0,2.05274 0.85937,2.85889 2.39355,2.85889 1.55664,0 2.75098,-0.98682 3.27735,-1.63818 0,0 0,-9.28028 0,-9.28028 0,0 1.89551,0 1.89551,0 0,0 0,7.14942 0,7.14942 0,3.87402 0.0752,4.62695 0.25878,5.14599 0,0 -1.50781,0 -1.50781,0 z"
         style="fill:#254aa5;fill-opacity:1;fill-rule:nonzero;stroke:none"
         id="path4673"
         inkscape:connector-curvature="0" /><path
         d="m 349.6748,-506.55078 c -0.25976,-0.10547 -0.64941,-0.20752 -1.17089,-0.20752 -0.72754,0 -1.9209,0.62305 -2.70411,1.48047 0,0 0,9.12353 0,9.12353 0,0 -1.8955,0 -1.8955,0 0,0 0,-12.29541 0,-12.29541 0,0 1.56054,0 1.56054,0 0,0 0.25586,1.40479 0.25586,1.40479 1.69434,-1.53418 2.62891,-1.7168 3.51368,-1.7168 0.54492,0 1.01074,0.20801 1.24609,0.36621 0,0 -0.80567,1.84473 -0.80567,1.84473 z"
         style="fill:#254aa5;fill-opacity:1;fill-rule:nonzero;stroke:none"
         id="path4675"
         inkscape:connector-curvature="0" /><path
         d="m 356.69336,-507.14844 c -2.31152,0 -3.63867,1.87061 -3.63867,4.78174 0,2.91113 1.37695,4.83545 3.66504,4.83545 2.28515,0 3.66504,-1.92432 3.66504,-4.83545 0,-2.91113 -1.32715,-4.78174 -3.69141,-4.78174 z m 3.87207,9.72217 c -0.96094,0.98731 -2.31445,1.53418 -3.89551,1.53418 -1.53711,0 -2.86133,-0.521 -3.82519,-1.50879 -1.11817,-1.14355 -1.71485,-2.88623 -1.71485,-4.91406 0,-2.02783 0.62305,-3.7168 1.71485,-4.86084 0.9873,-1.01318 2.31738,-1.58594 3.84863,-1.58594 1.58398,0 2.91113,0.57276 3.89844,1.58594 1.09082,1.14404 1.71386,2.83301 1.71386,4.86084 0,2.02783 -0.62304,3.74365 -1.74023,4.88867 z"
         style="fill:#254aa5;fill-opacity:1;fill-rule:nonzero;stroke:none"
         id="path4677"
         inkscape:connector-curvature="0" /><path
         d="m 369.04004,-507.04492 c -0.88281,0 -1.53516,0.13037 -2.10547,0.31006 0,0 0,8.70947 0,8.70947 0.67578,0.3125 1.16797,0.49414 1.97363,0.49414 2.57422,0 4.31739,-1.84717 4.31739,-4.88623 0,-3.22412 -1.9502,-4.62744 -4.18555,-4.62744 z m -0.0527,11.15283 c -0.9082,0 -1.53125,-0.18359 -2.05273,-0.39014 0,0 0,6.29004 0,6.29004 0,0 -1.89746,0 -1.89746,0 0,0 0,-17.9375 0,-17.9375 0.83203,-0.28564 2.26172,-0.83203 4.02832,-0.83203 3.7207,0 6.08496,2.39307 6.08496,6.31641 0,4.29052 -3.09473,6.55322 -6.16309,6.55322 z"
         style="fill:#254aa5;fill-opacity:1;fill-rule:nonzero;stroke:none"
         id="path4679"
         inkscape:connector-curvature="0" /><path
         d="m 382.24512,-507.14844 c -1.82032,0 -2.96387,1.61133 -2.96387,3.56153 0,0 5.79883,0 5.79883,0 0,-1.71729 -0.96387,-3.56153 -2.83496,-3.56153 z m -2.99024,5.17188 c 0,2.33984 1.35352,4.41992 4.08399,4.41992 1.04004,0 2.18066,-0.4165 2.9082,-0.88428 0,0 0.57715,1.29932 0.57715,1.29932 -0.88574,0.72851 -2.44531,1.24951 -3.87793,1.24951 -3.8457,0 -5.71777,-3.14648 -5.71777,-6.65527 0,-3.56104 2.02636,-6.21436 4.99023,-6.21436 3.16992,0 4.91406,2.52197 4.91406,6.34424 0,0.12891 0,0.28516 0,0.44092 0,0 -7.87793,0 -7.87793,0 z"
         style="fill:#254aa5;fill-opacity:1;fill-rule:nonzero;stroke:none"
         id="path4681"
         inkscape:connector-curvature="0" /><path
         d="m 306.64063,-460.73047 c 3.14746,0.86182 11.82812,0.30469 11.82812,4.61817 0,2.58886 -2.84375,4.31445 -7.56348,4.31445 -4.66601,0 -7.71386,-1.98047 -7.71386,-4.46582 0,-2.28467 2.13086,-3.65576 3.44922,-4.4668 z m -7.30762,4.87207 c 0,3.9585 4.05859,7.15625 11.31933,7.15625 8.37598,0 11.92969,-3.80566 11.92969,-7.76562 0,-2.35547 -1.12305,-3.85254 -2.77344,-4.84766 0,0 -16.84765,0 -16.84765,0 -2.20899,1.36084 -3.62793,3.13379 -3.62793,5.45703 z"
         style="fill:#ffffff;fill-opacity:1;fill-rule:nonzero;stroke:none"
         id="path4683"
         inkscape:connector-curvature="0" /><path
         d="m 350.40723,-460.73047 c 3.14746,0.86182 11.82812,0.30469 11.82812,4.61817 0,2.58886 -2.84375,4.31445 -7.56347,4.31445 -4.67188,0 -7.7168,-1.98047 -7.7168,-4.46582 0,-2.28467 2.13379,-3.65576 3.45215,-4.4668 z m -7.30664,4.87207 c 0,3.9585 4.06054,7.15625 11.31543,7.15625 8.37597,0 11.92968,-3.80566 11.92968,-7.76562 0,-2.35547 -1.12011,-3.85254 -2.7705,-4.84766 0,0 -16.84766,0 -16.84766,0 -2.20899,1.36084 -3.62695,3.13379 -3.62695,5.45703 z"
         style="fill:#ffffff;fill-opacity:1;fill-rule:nonzero;stroke:none"
         id="path4685"
         inkscape:connector-curvature="0" /><path
         d="m 262.44971,-484.45215 c 0,0 4.21533,-3.07715 4.21533,-3.07715 0,0 4.21582,3.07715 4.21582,3.07715 0,0 -1.60303,-4.97656 -1.60303,-4.97656 0,0 4.28272,-3.07861 4.28272,-3.07861 0,0 -5.28125,0 -5.28125,0 0,0 -1.61719,-5.04493 -1.61719,-5.04493 0,0 -1.61523,5.0503 -1.61523,5.0503 0,0 -5.27979,-0.005 -5.27979,-0.005 0,0 4.28125,3.07861 4.28125,3.07861 0,0 -1.59863,4.97656 -1.59863,4.97656 z"
         style="fill:#fff200;fill-opacity:1;fill-rule:nonzero;stroke:none"
         id="path4687"
         inkscape:connector-curvature="0" /><path
         d="m 228.66699,-460.48193 c 0,0 4.22266,-3.07959 4.22266,-3.07959 0,0 4.2124,3.07959 4.2124,3.07959 0,0 -1.60254,-4.97803 -1.60254,-4.97803 0,0 4.28272,-3.07861 4.28272,-3.07861 0,0 -5.28272,0 -5.28272,0 0,0 -1.61279,-5.0459 -1.61279,-5.0459 0,0 -1.61865,5.05078 -1.61865,5.05078 0,0 -5.2793,-0.005 -5.2793,-0.005 0,0 4.28076,3.07861 4.28076,3.07861 0,0 -1.60254,4.97803 -1.60254,4.97803 z"
         style="fill:#fff200;fill-opacity:1;fill-rule:nonzero;stroke:none"
         id="path4689"
         inkscape:connector-curvature="0" /><path
         d="m 237.0791,-469.65576 c 0,0 9.40723,-6.87403 9.40723,-6.87403 0,0 9.43066,6.87403 9.43066,6.87403 0,0 -3.57763,-11.11817 -3.57763,-11.11817 0,0 9.56201,-6.8789 9.56201,-6.8789 0,0 -11.79639,0 -11.79639,0 0,0 -3.62158,-11.27149 -3.62158,-11.27149 0,0 -3.60108,11.28516 -3.60108,11.28516 0,0 -11.78711,-0.0137 -11.78711,-0.0137 0,0 9.56153,6.8789 9.56153,6.8789 0,0 -3.57764,11.11817 -3.57764,11.11817 z"
         style="fill:#fff200;fill-opacity:1;fill-rule:nonzero;stroke:none"
         id="path4691"
         inkscape:connector-curvature="0" /><path
         d="m 306.52246,-433.46143 c -1.80371,0 -2.9375,1.59668 -2.9375,3.53125 0,0 5.74609,0 5.74609,0 0,-1.70117 -0.95312,-3.53125 -2.80859,-3.53125 z m -2.96387,5.12793 c 0,2.31934 1.34082,4.38135 4.0459,4.38135 1.03028,0 2.16602,-0.41211 2.8877,-0.87598 0,0 0.56738,1.28858 0.56738,1.28858 -0.87891,0.72021 -2.4248,1.23779 -3.8418,1.23779 -3.81445,0 -5.66894,-3.11865 -5.66894,-6.59814 0,-3.53125 2.00976,-6.15821 4.94824,-6.15821 3.14453,0 4.87109,2.5 4.87109,6.28809 0,0.12793 0,0.28272 0,0.43652 0,0 -7.80957,0 -7.80957,0 z"
         style="fill:#ffffff;fill-opacity:1;fill-rule:nonzero;stroke:none"
         id="path4693"
         inkscape:connector-curvature="0" /><path
         d="m 320.17676,-422.56152 c 0,0 0,-7.49854 0,-7.49854 0,-1.51953 -0.25977,-3.22168 -2.11426,-3.22168 -1.49512,0 -2.83496,1.05664 -3.78809,1.90869 0,0 0,8.81153 0,8.81153 0,0 -1.88086,0 -1.88086,0 0,0 0,-12.18653 0,-12.18653 0,0 1.54493,0 1.54493,0 0,0 0.25781,1.44092 0.25781,1.44092 1.44336,-1.05664 2.65527,-1.75098 4.35547,-1.75098 1.7539,0 3.50488,1.26221 3.50488,4.30323 0,0 0,8.19336 0,8.19336 0,0 -1.87988,0 -1.87988,0 z"
         style="fill:#ffffff;fill-opacity:1;fill-rule:nonzero;stroke:none"
         id="path4695"
         inkscape:connector-curvature="0" /><path
         d="m 337.44629,-437.78955 c 0,0 -5.7207,0 -5.7207,0 0,0 0,5.74658 0,5.74658 0,0 5.66796,0 5.66796,0 0,0 0,1.72461 0,1.72461 0,0 -5.66796,0 -5.66796,0 0,0 0,7.75684 0,7.75684 0,0 -1.88184,0 -1.88184,0 0,0 0,-16.98194 0,-16.98194 0,0 8.32422,0 8.32422,0 0,0 -0.72168,1.75391 -0.72168,1.75391 z"
         style="fill:#ffffff;fill-opacity:1;fill-rule:nonzero;stroke:none"
         id="path4697"
         inkscape:connector-curvature="0" /><path
         d="m 344.6543,-432.86914 c -0.25782,-0.10254 -0.64453,-0.2041 -1.16114,-0.2041 -0.7207,0 -1.90625,0.6167 -2.67773,1.46826 0,0 0,9.04346 0,9.04346 0,0 -1.88281,0 -1.88281,0 0,0 0,-12.18653 0,-12.18653 0,0 1.5459,0 1.5459,0 0,0 0.25683,1.39063 0.25683,1.39063 1.67676,-1.52197 2.60449,-1.70069 3.48047,-1.70069 0.54199,0 1.00488,0.20459 1.23633,0.36036 0,0 -0.79785,1.82861 -0.79785,1.82861 z"
         style="fill:#ffffff;fill-opacity:1;fill-rule:nonzero;stroke:none"
         id="path4699"
         inkscape:connector-curvature="0" /><path
         d="m 352.64844,-428.40967 c 0,0 -2.42383,0.0762 -2.42383,0.0762 -2.18848,0.0781 -3.06445,0.82471 -3.06445,2.16455 0,1.23829 0.77246,2.24122 2.37011,2.24122 1.59864,0 2.55176,-0.79688 3.11817,-1.38916 0,0 0,-3.09278 0,-3.09278 z m 0.59277,5.84815 c 0,0 -0.48926,-1.18457 -0.48926,-1.18457 -0.74609,0.72119 -1.93457,1.44433 -3.7373,1.44433 -1.9834,0 -3.73535,-1.41797 -3.73535,-3.7373 0,-2.39649 1.67285,-3.86719 4.8955,-3.96924 0,0 2.47364,-0.0767 2.47364,-0.0767 0,-0.18018 0,-0.46533 0,-0.56787 0,-2.08789 -1.08301,-2.78272 -2.62793,-2.78272 -1.57227,0 -2.55274,0.64453 -3.19629,1.13428 0,0 -0.77344,-1.36621 -0.77344,-1.36621 1.46973,-1.05615 2.75781,-1.39063 4.30469,-1.39063 2.31933,0 4.17383,1.00391 4.17383,4.12207 0,0 0,3.71094 0,3.71094 0,3.45362 0.10449,4.27735 0.25976,4.66358 0,0 -1.54785,0 -1.54785,0 z"
         style="fill:#ffffff;fill-opacity:1;fill-rule:nonzero;stroke:none"
         id="path4701"
         inkscape:connector-curvature="0" /><path
         d="m 364.43652,-422.56152 c 0,0 0,-7.49854 0,-7.49854 0,-1.51953 -0.25683,-3.22168 -2.1123,-3.22168 -1.49414,0 -2.83399,1.05664 -3.78711,1.90869 0,0 0,8.81153 0,8.81153 0,0 -1.88086,0 -1.88086,0 0,0 0,-12.18653 0,-12.18653 0,0 1.5459,0 1.5459,0 0,0 0.25683,1.44092 0.25683,1.44092 1.44336,-1.05664 2.65528,-1.75098 4.35547,-1.75098 1.75293,0 3.50489,1.26221 3.50489,4.30323 0,0 0,8.19336 0,8.19336 0,0 -1.88282,0 -1.88282,0 z"
         style="fill:#ffffff;fill-opacity:1;fill-rule:nonzero;stroke:none"
         id="path4703"
         inkscape:connector-curvature="0" /><path
         d="m 373.0127,-422.30176 c -3.73731,0 -5.66895,-2.91455 -5.66895,-6.2124 0,-3.37695 1.95801,-6.54395 6.0293,-6.54395 1.10644,0 2.2666,0.31006 3.09179,0.77198 0,0 0,1.77832 0,1.77832 -0.77246,-0.48975 -1.83007,-0.90137 -3.16894,-0.90137 -2.55078,0 -4.0459,2.03613 -4.0459,4.79346 0,2.70654 1.49512,4.68799 3.99512,4.68799 1.34082,0 2.29297,-0.43653 3.04004,-0.9004 0,0 0.59179,1.33887 0.59179,1.33887 -0.90136,0.59375 -2.29101,1.1875 -3.86425,1.1875 z"
         style="fill:#ffffff;fill-opacity:1;fill-rule:nonzero;stroke:none"
         id="path4705"
         inkscape:connector-curvature="0" /><path
         d="m 382.60449,-433.46143 c -1.80469,0 -2.9375,1.59668 -2.9375,3.53125 0,0 5.74805,0 5.74805,0 0,-1.70117 -0.9541,-3.53125 -2.81055,-3.53125 z m -2.96289,5.12793 c 0,2.31934 1.34082,4.38135 4.0459,4.38135 1.03027,0 2.16504,-0.41211 2.88477,-0.87598 0,0 0.56933,1.28858 0.56933,1.28858 -0.87597,0.72021 -2.42383,1.23779 -3.8418,1.23779 -3.8125,0 -5.66894,-3.11865 -5.66894,-6.59814 0,-3.53125 2.01074,-6.15821 4.94824,-6.15821 3.14453,0 4.8711,2.5 4.8711,6.28809 0,0.12793 0,0.28272 0,0.43652 0,0 -7.8086,0 -7.8086,0 z"
         style="fill:#ffffff;fill-opacity:1;fill-rule:nonzero;stroke:none"
         id="path4707"
         inkscape:connector-curvature="0" /></g></g></svg>