<?xml version="1.0" encoding="UTF-8" standalone="no"?>
<!-- Created with Inkscape (http://www.inkscape.org/) -->

<svg
   xmlns:dc="http://purl.org/dc/elements/1.1/"
   xmlns:cc="http://creativecommons.org/ns#"
   xmlns:rdf="http://www.w3.org/1999/02/22-rdf-syntax-ns#"
   xmlns:svg="http://www.w3.org/2000/svg"
   xmlns="http://www.w3.org/2000/svg"
   xmlns:sodipodi="http://sodipodi.sourceforge.net/DTD/sodipodi-0.dtd"
   xmlns:inkscape="http://www.inkscape.org/namespaces/inkscape"
   width="744"
   height="744"
   id="svg2"
   version="1.1"
   inkscape:version="0.48.4 r9939"
   sodipodi:docname="maud2.2.svg">
  <defs
     id="defs4" />
  <sodipodi:namedview
     id="base"
     pagecolor="#ffffff"
     bordercolor="#666666"
     borderopacity="1.0"
     inkscape:pageopacity="0.0"
     inkscape:pageshadow="2"
     inkscape:zoom="0.45254834"
     inkscape:cx="411.21441"
     inkscape:cy="405.61238"
     inkscape:document-units="px"
     inkscape:current-layer="layer1"
     showgrid="false"
     showguides="true"
     inkscape:guide-bbox="true"
     inkscape:window-width="1508"
     inkscape:window-height="794"
     inkscape:window-x="0"
     inkscape:window-y="24"
     inkscape:window-maximized="0">
    <sodipodi:guide
       orientation="1,0"
       position="-1795,-2815"
       id="guide3855" />
    <sodipodi:guide
       orientation="1,0"
       position="-1986.4286,-2900"
       id="guide3857" />
  </sodipodi:namedview>
  <metadata
     id="metadata7">
    <rdf:RDF>
      <cc:Work
         rdf:about="">
        <dc:format>image/svg+xml</dc:format>
        <dc:type
           rdf:resource="http://purl.org/dc/dcmitype/StillImage" />
        <dc:title></dc:title>
      </cc:Work>
    </rdf:RDF>
  </metadata>
  <g
     inkscape:label="Calque 1"
     inkscape:groupmode="layer"
     id="layer1"
     transform="translate(0,-308.36217)">
    <path
       style="fill:none;stroke:#000000;stroke-width:1px;stroke-linecap:butt;stroke-linejoin:miter;stroke-opacity:1"
       d="m -1794.9692,3816.1185 -167.2183,113.1371 0,214.1523 348.2194,0 0,-184.4605 z"
       id="path3847"
       inkscape:connector-curvature="0"
       sodipodi:nodetypes="cccccc" />
    <path
       style="fill:none;stroke:#000000;stroke-width:1px;stroke-linecap:butt;stroke-linejoin:miter;stroke-opacity:1"
       d="m -1596.174,3858.4337 0,-179.2364 130.8575,-122.6433 0,133.2567 z"
       id="path3849"
       inkscape:connector-curvature="0"
       transform="translate(0,282.36217)"
       sodipodi:nodetypes="ccccc" />
    <path
       style="fill:none;stroke:#000000;stroke-width:1px;stroke-linecap:butt;stroke-linejoin:miter;stroke-opacity:1"
       d="m -1988.2857,3651.4286 193.6428,-132.8572 194.6429,148.5715 144.2857,-128.5715 -104.2857,-102.8571 -234.6429,67.1428 c 0.6938,-0.09 -193.6428,148.5715 -193.6428,148.5715 z"
       id="path3851"
       inkscape:connector-curvature="0"
       transform="translate(0,282.36217)"
       sodipodi:nodetypes="ccccccc" />
    <rect
       style="fill:none;stroke:#000000;stroke-opacity:1"
       id="rect3871"
       width="74.751289"
       height="66.670067"
       x="-1913.2289"
       y="3975.7434" />
    <rect
       y="3975.7434"
       x="-1735.442"
       height="66.670067"
       width="74.751289"
       id="rect3873"
       style="fill:none;stroke:#000000;stroke-opacity:1" />
    <path
       sodipodi:type="arc"
       style="fill:#25b5c2;fill-opacity:1;stroke:none"
       id="path3987"
       sodipodi:cx="-761.42859"
       sodipodi:cy="419.50504"
       sodipodi:rx="281.42856"
       sodipodi:ry="281.42856"
       d="m -480.00003,419.50504 a 281.42856,281.42856 0 1 1 -562.85707,0 281.42856,281.42856 0 1 1 562.85707,0 z"
       transform="matrix(1.2994924,0,0,1.2994924,1360.3854,134.76033)" />
    <path
       style="fill:#dbdbdb;fill-opacity:1;stroke:none"
       d="m 97.72487,865.31403 0,-226.62851 c 0,0 -12.423904,0 -23.990946,0 -15.389284,0 -13.709096,-19.92105 0,-25.91879 13.709096,-5.99767 299.886466,-160.01081 299.886466,-160.01081 0,0 282.75014,153.15627 299.88655,160.01081 17.1364,6.85455 12.48775,26.04891 0,25.91879 -12.39325,-0.12916 -22.27734,0 -22.27734,0 l 0,226.62851 -81.82613,0 c 0,0 0.62066,-84.3859 0,-100.67616 -2.31957,-60.87719 -80.51054,-57.58952 -81.8262,0 -0.58712,25.69782 0,100.67616 0,100.67616 l -59.12049,0 0,-140.94663 c -1.97768,-72.1701 -110.52958,-69.40235 -110.52958,0 0,36.84317 0,140.94663 0,140.94663 l -58.69206,0 c 0,0 0.33593,-75.81593 0,-100.67616 -0.85682,-63.40462 -83.11137,-54.83637 -83.96825,0 -0.68386,43.76793 0,100.67616 0,100.67616 z"
       id="path2987"
       inkscape:connector-curvature="0"
       sodipodi:nodetypes="ccsscsscccsscccsccsscc" />
    <path
       sodipodi:type="arc"
       style="fill:#ea807e;fill-opacity:1;stroke:none"
       id="path3010"
       sodipodi:cx="570.13391"
       sodipodi:cy="249.90666"
       sodipodi:rx="89.525162"
       sodipodi:ry="89.525162"
       d="m 659.65907,249.90666 a 89.525162,89.525162 0 1 1 -179.05032,0 89.525162,89.525162 0 1 1 179.05032,0 z"
       transform="matrix(0.62937817,0,0,0.62937817,14.545914,414.71437)" />
  </g>
</svg>
