<?xml version="1.0" encoding="UTF-8" standalone="no"?>
<!-- Created with Inkscape (http://www.inkscape.org/) -->

<svg
   xmlns:dc="http://purl.org/dc/elements/1.1/"
   xmlns:cc="http://creativecommons.org/ns#"
   xmlns:rdf="http://www.w3.org/1999/02/22-rdf-syntax-ns#"
   xmlns:svg="http://www.w3.org/2000/svg"
   xmlns="http://www.w3.org/2000/svg"
   xmlns:sodipodi="http://sodipodi.sourceforge.net/DTD/sodipodi-0.dtd"
   xmlns:inkscape="http://www.inkscape.org/namespaces/inkscape"
   width="744"
   height="744"
   id="svg3067"
   version="1.1"
   inkscape:version="0.48.4 r9939"
   sodipodi:docname="territoirergrisplein.svg">
  <defs
     id="defs3069" />
  <sodipodi:namedview
     id="base"
     pagecolor="#ffffff"
     bordercolor="#666666"
     borderopacity="1.0"
     inkscape:pageopacity="0.0"
     inkscape:pageshadow="2"
     inkscape:zoom="0.7"
     inkscape:cx="452.3619"
     inkscape:cy="375.28962"
     inkscape:document-units="px"
     inkscape:current-layer="layer1"
     showgrid="false"
     inkscape:window-width="1600"
     inkscape:window-height="876"
     inkscape:window-x="0"
     inkscape:window-y="24"
     inkscape:window-maximized="1" />
  <metadata
     id="metadata3072">
    <rdf:RDF>
      <cc:Work
         rdf:about="">
        <dc:format>image/svg+xml</dc:format>
        <dc:type
           rdf:resource="http://purl.org/dc/dcmitype/StillImage" />
        <dc:title></dc:title>
      </cc:Work>
    </rdf:RDF>
  </metadata>
  <g
     inkscape:label="cercle"
     inkscape:groupmode="layer"
     id="layer1"
     transform="translate(0,-308.36218)">
    <path
       sodipodi:type="arc"
       style="fill:#25b5c2;fill-opacity:1;stroke:#dbdbdb;stroke-opacity:1"
       id="path3987"
       sodipodi:cx="-761.42859"
       sodipodi:cy="419.50504"
       sodipodi:rx="281.42856"
       sodipodi:ry="281.42856"
       d="m -480.00003,419.50504 a 281.42856,281.42856 0 1 1 -562.85707,0 281.42856,281.42856 0 1 1 562.85707,0 z"
       transform="matrix(1.2994924,0,0,1.2994924,1361.2068,138.00783)" />
  </g>
  <g
     inkscape:groupmode="layer"
     id="layer3"
     inkscape:label="blanc">
    <path
       style="fill:#25b5c2;stroke:#ffffff;stroke-width:5;stroke-linecap:butt;stroke-linejoin:miter;stroke-miterlimit:4;stroke-opacity:1;stroke-dasharray:none;display:inline;fill-opacity:1"
       d="m 355.61545,54.337413 c 3.17839,-0.529745 13.77301,0.529717 13.77301,0.529717 l 9.53513,5.82703 9.53516,-2.118915 11.65405,0.529755 6.88651,5.827021 6.35676,-1.059472 1.05947,6.886483 7.41622,5.297332 -3.70811,10.064868 -1.58919,8.47568 13.77299,14.832438 5.2973,-4.76756 -6.88649,-7.416218 0.52972,-5.29731 2.11892,-3.70812 20.12976,8.47569 9.00542,21.718948 16.42164,6.88648 3.70811,-23.83784 3.17837,2.1189 0.52975,-4.767558 4.23783,10.594588 7.41622,-7.94593 16.42166,4.76757 -1.05947,4.76757 10.5946,3.17838 -1.05945,10.59462 -3.17841,5.29728 -0.52971,8.47569 -9.53513,7.94597 0,5.82703 -7.41624,6.88649 -6.35678,0 -1.05945,5.29731 5.82705,3.70811 -0.52973,6.35675 4.23782,6.35677 -2.64866,6.35675 5.82706,4.23787 1.05946,7.41622 -2.64867,3.17835 -6.35675,4.76759 1.05947,4.23783 -14.83247,1.05949 -1.58918,5.2973 3.17838,4.23785 -5.82702,6.35674 -0.52975,7.94596 -1.05947,3.70811 -6.88648,6.8865 -8.47569,-1.58919 -9.00542,-11.65407 -5.2973,0 4.76757,10.5946 -1.05946,8.47568 -5.2973,4.76757 3.86046,5.83644 -6.74235,0.74917 -7.11696,23.2237 11.23728,-1.49831 6.74235,1.87288 0,2.99661 -3.37116,2.62204 -12.73558,10.48811 -10.86272,5.99323 -6.36778,0.74914 7.49149,12.73558 -5.24403,4.86949 -3.74575,8.98982 8.98978,6.36778 7.49156,10.86273 5.61863,10.11354 17.97965,7.11698 5.24405,-6.36782 6.74236,13.48468 17.97966,1.87298 12.73558,14.60836 -0.37458,7.11697 4.86948,7.86614 19.47794,-0.37465 3.37119,2.24753 7.8661,-4.12041 20.60169,-1.87286 2.24746,5.6186 -2.62205,5.61876 1.49832,2.99657 -0.37458,13.85933 -10.11356,-2.99659 -5.24407,4.86945 -4.12035,0.37451 -0.37457,6.3678 -10.11353,8.98984 4.49491,7.49151 0.74914,3.37123 4.49489,0.37453 1.49833,5.99326 -2.24748,4.12029 5.99323,5.61861 -0.37457,7.11698 -2.9966,0.74918 -7.11694,-3.37122 -5.24406,2.99669 -7.49155,-4.49492 -4.12032,5.61862 -5.99319,-4.49493 -5.24408,1.12371 -1.87286,1.87287 -5.2441,0.37465 -3.37115,-4.49492 -2.62205,5.61862 -5.99319,0.74916 0.37455,5.244 -3.37117,0.37463 -4.8695,7.11686 -3.37119,-1.49823 2.99661,11.61191 -3.74576,8.24053 -6.36777,1.87302 -1.12374,5.99313 5.61863,0.74918 6.36779,-0.37465 1.8729,5.61873 8.61524,9.73891 0,13.85929 4.86948,1.49836 2.99661,4.49492 -1.87287,2.24739 1.49829,3.37124 -1.49829,3.37122 2.99658,5.99314 8.61526,-0.74916 7.49152,-3.37112 8.61524,-1.12381 3.74579,0.37465 4.49488,0.37451 2.62205,2.99658 -2.62205,4.86957 -1.4983,6.36782 -1.87288,3.37108 1.87288,1.87289 -3.37119,4.12039 0.74917,4.12027 2.62202,4.86957 4.49491,3.37113 -3.37118,2.24751 -5.24407,0 -7.11693,2.62205 -3.74576,1.12369 -1.49829,1.1237 -4.86949,-0.37452 -3.74577,1.1237 -6.36781,-2.24753 -3.37115,-4.12027 -4.86949,1.49835 -5.24407,3.37108 -5.61864,6.74245 4.86949,4.86947 3.37117,-1.12371 4.86949,5.99316 4.12034,4.86957 2.99661,0 5.99321,6.36764 -0.37456,7.11705 1.87286,1.12369 4.12035,-1.49832 3.74575,8.98998 -3.74575,1.49812 -0.74916,4.86952 -8.24067,-0.74913 -2.24745,2.99659 -9.3644,-1.49825 -2.99662,-1.87284 0.37459,-4.86951 -4.12033,-0.7492 -2.62204,-1.49831 -2.24747,2.622 -0.37457,1.87282 -1.87287,2.6222 -4.12035,-2.2475 -17.97965,6.74239 -7.86608,-3.37126 0.74914,-3.74583 -2.24743,-0.74899 -3.74577,-5.61866 -5.99322,0.74919 0,-11.61191 -6.74239,-0.74914 -3.37115,4.12026 -3.37118,-1.49824 -5.24406,-1.1237 -2.24746,2.24739 -2.24748,-1.87283 -1.87285,-0.74918 -2.62206,1.87287 -3.37117,-1.49825 -2.24744,0.37456 -2.99662,1.49833 -2.99662,-1.49833 -8.24067,0.37451 -8.24064,-1.12369 4.49489,-5.24413 4.12034,-1.4982 0.74914,-7.117 7.86611,0 0.74915,-5.24406 2.24745,-2.24743 1.12376,-3.37123 2.24741,-1.87285 2.24746,-1.12371 1.12373,-5.24411 -3.74574,-3.37109 0.37455,-2.99671 0.74916,-5.99315 -2.62201,-2.24751 1.12371,-2.24738 2.62202,-2.99659 -4.86947,-0.74919 0,-1.87286 0.74918,-2.9967 -2.62205,-0.37452 -2.62205,-1.12371 0.37457,-3.37121 -2.62202,-1.49825 -6.3678,-0.37464 -1.87287,2.24751 -2.62204,-3.3712 -4.86947,-0.37455 -1.12373,-2.99668 -2.99661,-1.87289 1.49832,-7.49151 -2.24748,-2.24738 -4.49491,-1.49835 -5.24407,2.99657 -11.23727,-8.98984 -7.49153,0 -1.12373,4.86958 3.3712,3.74573 -0.37458,6.74234 -9.36439,6.36779 -7.86609,-0.74916 -4.12034,-3.74577 0,-4.86943 -12.36101,-2.24752 -10.11355,-7.11687 -3.37118,1.87289 -4.49494,7.11686 -1.12374,4.86956 -9.73896,6.74232 -8.98982,7.86616 -6.74236,2.24738 -5.9932,-2.99657 0.74914,7.11699 -2.99661,3.74575 -2.24744,3.74574 -4.49491,-4.49493 -16.48135,1.87288 -7.86609,-5.24411 -6.74238,1.87288 -5.61864,-3.74574 -6.36779,-0.37454 -6.74236,0.74919 -3.74577,-2.9967 -1.87287,-4.86946 -6.74238,0.74918 -5.61864,-4.49494 -1.87289,-6.74232 -0.74914,-9.36449 -2.622,-3.37109 0,-9.73903 -10.48813,0.37465 -5.61865,-4.49493 -5.24406,-1.49835 -4.12034,0 -1.12372,-5.24407 0,-4.49493 -5.24406,-2.62195 -0.37458,-5.24408 -3.74577,-1.12369 -1.87289,-12.36107 -2.62203,-5.61862 -6.74234,-3.37124 2.62203,-5.24397 0,-7.49151 -16.10679,-14.60846 4.12034,-6.74244 1.87289,-11.61178 0,-14.98313 12.36099,-8.61519 15.73221,-28.09326 13.48474,-6.3678 -1.12375,-10.11354 11.2373,-15.35753 -4.49492,-14.23396 10.86267,-18.3542 14.23391,0.37466 11.61186,10.86258 25.09658,-10.86258 32.96267,-2.24754 12.73559,-15.73217 -4.12035,-6.74237 0,-8.24068 -9.73895,-4.86948 -10.48815,-9.36439 1.87291,-20.60167 4.86948,-5.61865 -0.37457,-11.98643 5.24404,-0.37457 -3.37117,-12.361 8.61524,4.49489 0,-5.9932 -1.49829,-5.24406 3.74574,-4.12034 6.74237,4.12034 14.60848,0 15.73219,7.11694 7.49151,-5.24406 8.61526,-0.37457 8.24067,-10.86271 13.11015,-2.9966 9.36441,2.24744 7.11694,-3.3712 0.74914,-14.60844 -7.49151,-15.73217 -7.49151,0 -12.36102,5.61862 -8.98983,-12.361 -7.11693,-1.87287 -2.99662,-4.49492 -4.49491,-1.49832 5.9932,-12.36098 -2.24744,-5.61864 7.49153,0 4.86949,-5.61864 -0.37457,-12.73556 13.48471,-1.12375 0.37459,-3.37119 -10.11355,-12.361 0.74914,-3.37118 9.36441,0 1.12372,-5.99322 9.3644,-3.37118 13.11017,7.49152 2.99659,-0.74915 -0.37458,-5.99323 9.73898,1.12374 3.37119,-4.8695 0.37457,-13.110148 -6.36779,0.37459 -4.86948,-2.62204 0,-5.24407 -9.73898,0 -7.49151,-6.74236 -8.98983,-4.494907 4.12035,-10.862708 4.12032,-1.872898 z"
       id="path3006-2-6"
       inkscape:connector-curvature="0" />
  </g>
  <g
     inkscape:groupmode="layer"
     id="layer2"
     inkscape:label="rouge"
     transform="translate(0,-308.36218)"
     style="display:inline">
    <g
       id="g3151"
       transform="matrix(0.95108631,0,0,0.95108631,1255.0562,-244.01792)"
       style="fill:#25b5c2;fill-opacity:1;stroke:#ffffff;stroke-opacity:1;stroke-width:5.25714642999999970;stroke-miterlimit:4;stroke-dasharray:none">
      <g
         transform="matrix(0.67034451,0,0,0.67034451,-1207.0528,609.48529)"
         style="fill:#25b5c2;fill-opacity:1;stroke:#ffffff;stroke-opacity:1;stroke-width:7.84245467000000041;stroke-miterlimit:4;stroke-dasharray:none"
         id="g3036">
        <path
           style="fill:#25b5c2;fill-opacity:1;stroke:#ffffff;stroke-width:7.84245467000000041;stroke-linecap:butt;stroke-linejoin:miter;stroke-opacity:1;display:inline;stroke-miterlimit:4;stroke-dasharray:none"
           d="m 48.666749,644.80224 24.510876,-43.2056 22.018253,-9.55511 -0.830903,-4.56981 13.709515,-11.21686 17.44838,-1.24631 4.1544,4.1544 10.80142,1.24631 9.13965,9.55511 13.29402,0 7.06246,-3.32353 14.95579,-5.40071 0.83087,7.4779 4.98528,4.1544 0.41543,6.23158 -3.73896,4.98525 -2.90806,5.81615 -0.41544,8.7242 2.49263,1.66175 0.41543,6.64703 -4.98524,4.1544 -3.32353,0.41543 -0.41543,7.47787 -17.03298,14.12492 -9.97052,-0.41544 -4.56981,2.49265 -12.4632,-1.66175 -2.90806,3.3235 -16.2021,-4.56981 -12.46315,-2.07721 -8.724204,-4.56984 -8.308799,0 -4.154371,4.56984 -6.647022,-0.83087 0,-2.90809 -12.878608,2.07718 z"
           id="path3833"
           inkscape:connector-curvature="0" />
        <path
           style="fill:#25b5c2;fill-opacity:1;stroke:#ffffff;stroke-width:7.84245467000000041;stroke-linecap:butt;stroke-linejoin:miter;stroke-opacity:1;display:inline;stroke-miterlimit:4;stroke-dasharray:none"
           d="m 53.651995,766.94121 9.97052,-7.06246 1.246311,-4.98528 11.216859,-11.21683 0.415437,-9.13964 6.647023,6.64702 12.047733,3.73893 12.047702,-2.49262 15.37123,-4.56983 8.30877,-10.38596 2.49263,-14.12492 8.72423,-0.83087 3.3235,-2.07722 8.30877,1.66178 2.07719,-5.81612 3.73896,-4.9853 -3.32353,-2.49263 3.73897,-4.98527 2.49262,-4.56981 19.52563,-2.07718 9.55508,-0.41544 6.64702,8.30877 2.07719,5.81615 4.98525,-0.8309 2.07721,-4.56981 7.89333,9.13961 5.81612,2.90809 11.21689,-2.90809 2.49259,7.47793 7.06246,4.15437 13.29404,1.24634 3.73896,4.56981 -0.8309,13.29401 0.41543,16.20214 0.41547,6.64702 -3.73896,4.98527 -0.41544,10.38596 -18.27928,7.06243 -5.81615,-4.15437 -15.78666,8.3088 -2.49263,12.04762 -17.86388,10.38593 -9.97052,10.80148 0,10.38595 -1.24631,9.97063 -10.38596,6.23156 -11.63229,-1.66186 -7.06246,4.98539 -2.90806,8.72409 -4.98528,10.38596 -3.73896,10.80145 -9.97052,0.41552 -9.97052,-8.30877 -2.90806,-11.21697 0,-11.6323 -5.40071,-7.47773 0,-14.54052 -14.955791,1.24637 -9.970519,-7.47793 -7.893334,-2.49251 -6.231585,0.83085 -2.492623,-10.80145 1.246311,-4.1544 -10.385984,-5.40074 1.246311,-8.30871 -7.062431,-1.66175 z"
           id="path3835"
           inkscape:connector-curvature="0" />
        <path
           style="fill:#25b5c2;fill-opacity:1;stroke:#ffffff;stroke-width:7.84245467000000041;stroke-linecap:butt;stroke-linejoin:miter;stroke-opacity:1;display:inline;stroke-miterlimit:4;stroke-dasharray:none"
           d="m 191.99307,891.57277 -0.83088,-6.64708 12.46315,-10.38593 0.8309,-8.72409 1.24631,-7.47793 10.80139,-7.89341 2.49263,-8.30877 5.81617,-3.73886 7.06243,0.41533 9.13965,-7.0624 10.80138,-2.90804 12.04774,-3.32355 9.55511,-0.41552 9.13964,2.49271 7.89333,-4.15437 0,-3.73888 2.07719,-2.49268 -0.41546,-9.13962 8.30882,-0.83104 3.73894,4.98541 6.64702,3.73888 -1.24631,9.55511 3.73896,7.0624 1.24631,10.80145 -7.06246,-4.56986 -5.40071,3.32353 -6.23161,9.55511 -2.49263,7.89344 -17.44841,12.46314 -9.97052,9.13959 -13.29405,4.98522 -9.13963,-5.81606 -0.8309,12.46314 -6.23156,11.63229 -7.06246,-6.64707 -27.41896,1.66186 z"
           id="path3837"
           inkscape:connector-curvature="0" />
        <path
           style="fill:#25b5c2;fill-opacity:1;stroke:#ffffff;stroke-width:7.84245467000000041;stroke-linecap:butt;stroke-linejoin:miter;stroke-opacity:1;display:inline;stroke-miterlimit:4;stroke-dasharray:none"
           d="m 255.13973,498.9833 0.41543,7.47787 -4.98527,7.89336 3.73899,0.83087 -0.83093,8.30877 9.13965,5.81615 -6.64697,1.24628 0.41541,7.47793 3.73896,5.40068 1.24631,6.23159 -4.98527,4.98527 0.41544,13.29405 5.40071,2.07715 1.66175,4.56984 6.23158,0.8309 5.81615,-5.40074 7.06243,0 9.55511,-6.23155 2.07719,3.32349 4.9853,-5.81615 4.15437,4.1544 5.40071,-4.56983 8.72421,0 4.98527,-8.30877 2.07719,-8.72421 8.72421,-9.97049 -9.97052,-1.24634 -2.49263,-5.40071 -8.72423,-0.83088 -2.07716,-4.98524 1.24628,-9.13968 -3.73896,-8.30877 -1.66175,-8.72421 -2.49262,-2.90806 -27.41896,-0.83087 -9.97052,2.49262 z"
           id="path3839"
           inkscape:connector-curvature="0" />
        <path
           style="fill:#25b5c2;fill-opacity:1;stroke:#ffffff;stroke-width:7.84245467000000041;stroke-linecap:butt;stroke-linejoin:miter;stroke-opacity:1;display:inline;stroke-miterlimit:4;stroke-dasharray:none"
           d="m 185.76148,580.40926 4.56984,-1.24631 1.24631,-4.56984 5.81612,-2.49262 7.4779,4.15437 8.72423,1.24634 4.56981,3.73893 17.86386,0 4.98527,-2.90806 -7.89333,-13.70948 0,-3.32353 6.23158,-1.24631 7.89332,1.66178 9.13965,-7.06246 0.41544,13.70948 6.64702,2.07719 2.49265,5.81612 4.15437,-0.41541 5.40068,-4.98527 8.3088,-0.41544 8.30875,-7.06246 2.49265,4.56984 6.23161,-6.64706 2.90806,4.1544 5.81615,-3.73893 7.47789,-0.8309 6.64703,-10.38596 0.41543,-5.40071 10.8014,-10.38596 8.72421,-1.24631 2.90808,-4.98527 7.4779,3.73899 5.40068,12.46314 -2.07718,9.97052 -4.56984,10.38599 -7.89331,5.40068 -4.15442,-2.49262 -1.66175,-8.3088 -7.47787,0.8309 -0.41544,9.97052 -2.49265,6.23158 -5.81612,0 0.83088,7.06243 -6.64703,2.90809 -6.64699,0.41544 -10.38599,9.55508 -9.55511,12.87861 -6.64702,6.64699 0,4.1544 -7.47789,6.23159 -3.32353,6.64702 0,5.81612 -5.81615,2.49268 2.49265,4.56981 -0.83087,4.15437 -6.23161,3.32352 -7.89331,0.41544 -4.56984,-3.32352 -5.81611,-1.66175 -7.06245,2.90809 -2.90809,-3.73899 -2.07716,-9.97052 4.56981,-7.89331 -1.66175,-4.56984 -7.89336,-0.8309 -5.81612,1.24634 -7.06246,6.64702 -4.56984,-4.1544 -8.72418,0.41544 -6.64705,-8.72421 -8.30877,0.41547 -3.3235,-2.90809 0,-7.06246 8.72421,-12.46317 -1.24631,-5.81615 -4.56984,-4.15434 z"
           id="path3841"
           inkscape:connector-curvature="0" />
        <path
           style="fill:#25b5c2;fill-opacity:1;stroke:#ffffff;stroke-width:7.84245467000000041;stroke-linecap:butt;stroke-linejoin:miter;stroke-opacity:1;display:inline;stroke-miterlimit:4;stroke-dasharray:none"
           d="m 228.13624,624.44576 -1.24634,7.4779 -2.49262,2.90806 -2.07719,3.3235 -4.98527,3.32355 4.98527,4.56981 -0.83087,3.7389 -5.81615,5.40074 2.49262,2.07719 0.41544,7.4779 0.83087,7.47789 4.1544,2.07722 2.49265,5.40068 0,6.64702 -7.47792,0 -2.49262,5.40068 -9.13965,3.32353 7.89334,9.13964 5.40071,3.73897 12.04773,-2.90809 2.90806,7.4779 5.81612,4.1544 11.63228,-0.41547 6.64703,4.56984 -0.83091,14.12492 0.83091,20.3565 13.29401,-0.41547 3.73897,3.73897 14.54032,-7.4779 0.41547,-4.56984 -5.81615,-7.47787 -0.41544,-10.80142 -7.89333,0 -2.07721,-15.78666 9.97054,-7.89337 27.8344,-1.24628 19.52566,-24.51088 -2.07721,-13.70948 20.35647,-22.43369 -2.07718,-14.54035 -7.4779,-5.81612 -1.24631,-9.97055 -2.07721,-4.15437 -6.647,5.40071 -7.89336,-2.90809 -9.13964,0 -2.07716,4.56981 -4.9853,0.83087 -3.73894,-3.32349 -2.49262,3.32349 -4.1544,-1.66174 -0.8309,-4.98525 -5.40069,-1.24631 -7.06248,8.72418 0.8309,2.90809 -7.89333,5.81614 -3.73897,6.647 0,7.06246 -5.40071,2.07724 2.90809,6.64697 -2.49262,2.90808 -5.81615,2.07719 -6.64702,1.66178 -5.81615,-4.1544 -3.73892,-1.66175 -8.30877,2.07718 -4.98525,-3.32349 -0.41547,-9.55511 4.56984,-8.72421 -1.66178,-4.15437 z"
           id="path3843"
           inkscape:connector-curvature="0" />
        <path
           style="fill:#25b5c2;fill-opacity:1;stroke:#ffffff;stroke-width:7.84245467000000041;stroke-linecap:butt;stroke-linejoin:miter;stroke-opacity:1;display:inline;stroke-miterlimit:4;stroke-dasharray:none"
           d="m 309.14678,764.03315 -1.24634,3.32349 -7.89331,0 -3.32352,4.98528 3.32352,3.3235 4.56984,2.90808 2.07716,3.3235 -4.15437,0.41544 -8.72427,-0.83088 -1.66174,7.06244 0.8309,5.40068 5.81617,1.24637 3.3235,1.66166 0,5.40074 -2.07719,4.98519 3.73894,4.15459 6.64705,4.5697 -0.41547,9.97063 3.73897,7.4779 0.83087,11.2168 9.55508,5.40055 18.69476,2.90822 0.41544,6.23156 7.47786,7.47792 9.55509,0.41533 16.61757,-11.2168 -0.41547,-8.72427 -5.81612,-6.23155 2.49262,-7.89325 12.04774,0 2.49262,-7.06241 1.66175,-6.64708 14.12492,-7.47792 14.12492,-19.5256 -3.73897,-17.86386 14.1249,-11.63226 0,-13.29405 -15.37121,2.07719 -6.23155,-2.07719 -6.64705,0 -2.07716,-6.64702 -6.64705,0 0,5.81612 -6.64702,0 -4.98525,1.66178 -4.15437,-1.66178 -0.83088,8.3088 -3.32352,1.24631 -4.1544,2.49262 -9.13965,-1.66177 -3.73893,-4.56981 -3.73896,-1.66175 -5.40069,3.3235 -4.98527,0 -2.90806,-3.3235 -4.1544,0 -8.72421,6.23156 c 0,0 -13.82389,5.07767 -14.95579,4.9853 z"
           id="path3845"
           inkscape:connector-curvature="0"
           sodipodi:nodetypes="cccccccccccccccccccccccccccccccccccccccccccccccccccccccccc" />
        <path
           style="fill:#25b5c2;fill-opacity:1;stroke:#ffffff;stroke-width:7.84245467000000041;stroke-linecap:butt;stroke-linejoin:miter;stroke-opacity:1;display:inline;stroke-miterlimit:4;stroke-dasharray:none"
           d="m 290.72443,746.38762 -5.28769,-7.34398 -0.88125,-11.16286 -7.34401,0.88125 -2.35007,-15.56923 10.28161,-8.81279 27.31962,-1.17504 20.56318,-24.6758 -2.9376,-13.80668 20.2694,-22.03196 12.04417,-1.46879 13.51292,-1.46881 3.5251,6.46273 5.87519,0.29375 4.11263,10.28157 10.28158,7.34398 5.87519,-0.29375 4.70016,8.51901 3.52513,4.11266 -1.46881,9.40029 4.99391,10.28158 -2.64385,7.34397 -4.11263,0.29378 0,4.70014 -7.34397,0 -5.8752,5.28769 -8.51901,0.88128 4.70013,4.70016 1.17504,4.1126 -1.17504,4.40641 -1.76253,2.9376 4.70016,4.11263 -4.70016,3.81885 0,3.52513 -1.46879,0.88128 0.29376,5.28766 -6.16895,-0.88128 -5.87522,2.93762 -3.81885,-2.05634 -0.58753,8.22529 -7.0502,4.70013 -9.10657,-1.76256 -3.5251,-4.99389 -4.70016,-1.76256 -4.40641,2.9376 -5.28766,0.29375 -3.5251,-3.23135 -3.23138,0 -9.98782,7.0502 -14.39421,4.70016 -4.40638,-5.28766 -1.46878,-8.22526 -4.99394,-1.76254 -1.46881,-5.87522 z"
           id="path3847"
           inkscape:connector-curvature="0" />
        <path
           style="fill:#25b5c2;fill-opacity:1;stroke:#ffffff;stroke-width:7.84245467000000041;stroke-linecap:butt;stroke-linejoin:miter;stroke-opacity:1;display:inline;stroke-miterlimit:4;stroke-dasharray:none"
           d="m 271.34183,472.81064 -5.81615,-11.63229 -2.07718,-12.04771 -0.41544,-20.35647 4.56984,-10.38599 10.38595,-2.49262 14.9558,-12.04771 9.13967,1.24629 -0.41544,4.1544 5.81615,5.40071 -0.8309,4.56981 -2.90806,4.1544 0.8309,9.13964 13.29402,3.3235 12.87861,-10.38596 9.97049,0.41547 9.55511,22.43369 6.64702,-1.24634 12.04771,-9.13965 10.38598,-1.66175 4.15437,5.81612 24.09547,0 1.66175,6.23162 -16.61757,14.54033 -0.83085,4.15437 -4.98527,5.40071 -12.46315,-0.83088 -4.56983,2.90806 -10.8014,0 -7.06246,3.73897 -7.47789,0 -5.81615,4.98524 -7.89333,0.41547 -5.40072,-5.81612 -7.06245,0 -9.55509,-9.55511 -7.47789,0 -2.07719,3.32349 -4.15443,-2.49262 -6.64699,4.56981 -4.9853,-3.3235 0.8309,-2.90806 -9.55511,-1.66177 z"
           id="path3849"
           inkscape:connector-curvature="0" />
        <path
           style="fill:#25b5c2;fill-opacity:1;stroke:#ffffff;stroke-width:7.84245467000000041;stroke-linecap:butt;stroke-linejoin:miter;stroke-opacity:1;display:inline;stroke-miterlimit:4;stroke-dasharray:none"
           d="m 345.28992,530.5566 -5.40068,-4.15437 11.63227,-9.55508 4.98527,-0.41544 3.3235,-12.46317 5.81615,-7.47789 5.40071,-6.647 4.56984,2.90806 4.98524,4.56981 0,7.06249 7.89336,1.24631 0.83085,4.98525 -4.98527,4.15439 5.40071,0.41544 5.40071,-3.3235 14.95579,0.83085 2.49262,2.49265 7.89334,0.83088 7.89336,9.97052 3.3235,7.06245 -4.98528,4.56981 -1.66177,11.6323 7.47789,3.3235 29.49615,14.12494 -6.23156,8.72421 -4.15439,3.73894 -7.06244,-0.83088 -5.40071,4.98525 -10.80139,0.83087 -21.18738,6.64702 -12.04773,26.17263 2.07718,9.55511 -21.60278,14.12492 -23.68001,1.66175 -3.73896,-14.54036 -6.64699,-5.81615 -2.07724,-8.30874 -1.66175,-6.23159 -6.23156,5.40069 -7.89333,-0.41544 -8.30877,-2.07719 -4.1544,4.56984 -4.1544,1.24628 -3.73894,-3.32349 -4.15437,3.32349 -2.90812,-2.49259 0,-4.1544 -5.81612,-0.83087 6.64703,-10.38599 14.54035,-11.63227 5.40071,0.83088 7.89334,-4.1544 -2.49263,-6.85473 5.19298,0.20759 4.1544,-7.06246 -0.41546,-9.76281 8.10104,-0.41544 1.24631,8.30877 4.36213,2.70036 7.47792,-5.60842 4.56981,-10.59369 2.07716,-9.34735 -4.98522,-13.08636 -8.10106,-3.11577 z"
           id="path3851"
           inkscape:connector-curvature="0" />
        <path
           style="fill:#25b5c2;fill-opacity:1;stroke:#ffffff;stroke-width:7.84245467000000041;stroke-linecap:butt;stroke-linejoin:miter;stroke-opacity:1;display:inline;stroke-miterlimit:4;stroke-dasharray:none"
           d="m 437.51731,583.73275 2.07721,9.13968 -2.49262,6.23158 5.81612,12.04771 1.66177,5.40071 1.66175,5.81615 5.81615,-1.24631 4.15437,1.66174 0.41544,6.647 -4.98527,2.07721 -1.66175,5.40071 -9.13965,0.41541 -5.40071,-3.73893 -3.3235,5.40068 -7.47789,-2.90806 -2.90809,3.73896 -12.46314,-4.1544 -12.87861,-8.7242 -2.07719,-9.13965 12.46317,-27.00353 22.43367,-7.89333 z"
           id="path3853"
           inkscape:connector-curvature="0" />
        <path
           style="fill:#25b5c2;fill-opacity:1;stroke:#ffffff;stroke-width:7.84245467000000041;stroke-linecap:butt;stroke-linejoin:miter;stroke-opacity:1;display:inline;stroke-miterlimit:4;stroke-dasharray:none"
           d="m 421.73064,640.23243 5.40071,6.64699 0.41544,10.80143 3.32349,7.89333 6.23162,6.64702 0.83084,8.72418 2.07722,5.81618 0.41543,6.64699 17.03296,8.30877 6.23161,7.89337 2.49262,5.81612 -2.07718,7.06246 0.83087,6.64702 8.30877,-12.46314 0.41544,-7.4779 7.47787,-2.49262 7.06248,-7.4779 10.8014,-14.95579 11.63227,-7.06246 c 0,0 4.56983,-7.4779 6.23161,-7.89337 1.66175,-0.41543 -2.49265,-11.21683 -2.49265,-11.21683 l 0,-8.3088 4.56983,-5.40065 -5.40071,-4.56984 0,-5.81614 8.72421,0.41543 4.56984,-0.83087 -2.90809,-10.38599 -4.98525,-1.24631 -0.41543,-5.40068 -4.56984,-0.41547 -2.49262,-2.49259 0.83087,-6.64705 -2.90806,-4.15437 -7.06246,-0.41544 -6.64702,-3.73893 -4.1544,-4.56984 -9.97052,0.41544 0.83088,9.55508 -6.23159,6.23158 -9.55508,-7.89333 4.15437,-6.64702 -5.40068,-4.56981 -17.03301,11.21683 0.41544,5.40071 -6.23156,2.90806 4.15437,11.6323 5.40074,-1.66175 3.73893,2.07718 1.66173,7.4779 -4.98522,1.24631 -1.66175,5.40071 -9.55511,0.83085 -7.06246,-4.15437 -2.07719,5.40068 -7.89333,-2.90806 z"
           id="path3855"
           inkscape:connector-curvature="0" />
        <path
           style="fill:#25b5c2;fill-opacity:1;stroke:#ffffff;stroke-width:7.84245467000000041;stroke-linecap:butt;stroke-linejoin:miter;stroke-opacity:1;display:inline;stroke-miterlimit:4;stroke-dasharray:none"
           d="m 428.37769,749.07735 20.35645,-6.64702 9.55511,-9.13964 5.81615,-2.07722 9.55508,-13.70945 0,-8.30877 7.89333,-3.32353 0,4.56981 4.56984,0 2.49262,-3.3235 2.49262,1.24634 1.24632,3.73894 14.12494,-1.24631 9.55508,0 8.72418,-0.83088 3.32353,3.73894 5.81612,0.41543 2.07721,-3.32349 12.46317,0.41543 3.3235,6.23159 6.64702,2.49262 1.66178,9.13965 -1.24634,3.73896 -12.04773,7.89333 1.24634,2.90806 7.47789,1.24631 7.4779,-1.24631 13.70945,3.3235 5.81615,14.54038 -2.07718,6.23156 -6.64703,-0.83087 -5.81614,3.73893 -7.06246,2.90809 -1.66175,6.23156 -4.98528,2.90809 -6.23155,0 -4.56984,6.64702 -6.23159,-1.24631 -2.90808,-6.64703 -12.04771,-0.41546 -6.23156,4.56984 -7.89333,0 -3.32352,-2.90806 -5.40069,0.41546 -1.66175,-2.49268 -8.72423,0.41544 -6.64702,-8.72418 -9.97052,-0.83088 -8.30877,-6.64705 -21.18738,0 -4.98528,-5.81614 -10.38595,1.66177 z"
           id="path3857"
           inkscape:connector-curvature="0" />
        <path
           style="fill:#25b5c2;fill-opacity:1;stroke:#ffffff;stroke-width:7.84245467000000041;stroke-linecap:butt;stroke-linejoin:miter;stroke-opacity:1;display:inline;stroke-miterlimit:4;stroke-dasharray:none"
           d="m 406.77487,844.62826 2.49263,-5.40071 7.47789,-8.30877 7.06246,8.72426 2.90806,7.89325 8.72421,2.07719 4.98527,6.64708 6.23156,2.07718 7.47793,0.83085 7.06246,8.72429 17.03295,-2.90825 5.40074,6.23158 9.97051,-0.83084 -1.24633,-12.04763 5.81614,0.83085 4.1544,3.73888 9.97052,-5.40055 7.06246,7.06241 -2.49262,9.55511 1.24628,13.70948 -0.83084,13.70948 6.23155,2.49254 2.49265,5.40071 1.24634,5.81607 4.56981,0 0.41541,4.15456 -4.15437,4.15437 -6.23159,0.41533 -2.07718,7.0624 -9.55508,2.49271 -12.87861,6.23159 -10.38599,-1.24637 -7.8933,1.66186 -4.56984,-4.98541 -12.46317,-2.49252 7.06246,-5.81623 1.66175,-6.64691 -5.81612,-5.81623 2.07719,-12.46314 -4.56981,-4.5697 5.81614,-8.72426 -8.30879,0 0.8309,-8.72429 -7.06246,-2.90804 0.83085,-4.15437 -4.56981,-2.4927 -10.38596,-1.24634 -2.07721,4.15437 -4.56981,-5.81604 -7.89336,0.41552 -1.24629,-4.98541 -4.98527,-2.49251 2.07721,-12.46317 -4.56986,-4.5699 -4.56981,-1.24633 z"
           id="path3859"
           inkscape:connector-curvature="0" />
        <path
           style="fill:#25b5c2;fill-opacity:1;stroke:#ffffff;stroke-width:7.84245467000000041;stroke-linecap:butt;stroke-linejoin:miter;stroke-opacity:1;display:inline;stroke-miterlimit:4;stroke-dasharray:none"
           d="m 533.06821,920.2381 -0.8309,-5.81623 -5.40068,0.83085 -2.90809,-12.04762 -6.23156,-2.07719 0.41541,-15.37118 -1.24628,-11.21697 2.07718,-10.38595 7.89334,-1.24634 6.23158,-0.83085 -6.64702,-9.13959 10.38596,-2.07721 3.73896,-4.56987 6.23156,-12.46314 6.23158,11.6323 8.3088,-3.32355 4.15437,-6.23156 -3.32352,-8.72427 -3.3235,-11.2168 15.78667,-4.5697 -0.41544,-9.55511 c 0,0 -1.24631,-3.73904 -3.3235,-3.73904 -2.07721,0 3.73894,-7.06243 3.73894,-7.06243 l 0.83087,-2.49265 9.55511,-1.24632 1.24631,8.72421 14.54033,16.61752 -0.83087,21.60289 7.89333,2.49252 4.15437,6.64707 -1.66175,4.1544 2.90809,5.81626 -3.73896,4.56967 4.56984,9.55514 13.29401,-2.07721 13.29405,-6.23156 11.63227,-1.24637 14.54035,2.49274 2.90809,4.15437 -2.90809,7.0624 -2.07718,7.06241 -3.73894,7.89344 2.49263,4.15434 -4.98525,6.23162 2.07718,8.30871 3.73894,5.40077 6.23158,4.98519 -5.40071,4.98522 -8.30877,-1.24615 -17.44841,5.81607 -2.49263,3.32352 -6.64702,-1.66186 -7.06246,1.66186 -9.13964,-4.15437 -4.98528,-5.81623 -7.47789,1.66183 -9.55509,5.40074 -6.64702,11.6321 -2.07716,2.07722 -15.37125,0 -2.49263,-4.98525 -13.70948,-0.4153 -5.81615,4.15437 -4.15437,0 -0.41544,-4.98538 -6.23158,-2.90806 z"
           id="path3861"
           inkscape:connector-curvature="0" />
        <path
           style="fill:#25b5c2;fill-opacity:1;stroke:#ffffff;stroke-width:7.84245467000000041;stroke-linecap:butt;stroke-linejoin:miter;stroke-opacity:1;display:inline;stroke-miterlimit:4;stroke-dasharray:none"
           d="m 523.5131,634.41628 3.73899,-0.41543 -2.90808,-11.21684 -6.23162,-0.8309 0,-5.40068 -4.15437,-0.8309 -3.32352,-2.49263 1.24634,-6.23158 -2.90809,-4.56981 -8.30875,-1.24634 -9.13967,-6.64699 1.66178,-7.89334 7.06243,-0.8309 6.23161,-9.13962 7.89331,3.3235 2.90809,-4.98527 10.80139,-4.56981 5.81612,2.49262 5.81618,3.3235 18.69472,2.07721 3.73894,5.40068 0,4.98528 0.41546,6.23158 -4.1544,9.55509 -1.24631,6.23158 4.98525,2.90809 -4.56984,8.72421 2.49268,5.40068 -1.66178,7.4779 -3.32352,9.97052 -13.70946,0.41543 -8.30877,-7.89333 -9.13967,0.8309 z"
           id="path3863"
           inkscape:connector-curvature="0" />
        <path
           style="fill:#25b5c2;fill-opacity:1;stroke:#ffffff;stroke-width:7.84245467000000041;stroke-linecap:butt;stroke-linejoin:miter;stroke-opacity:1;display:inline;stroke-miterlimit:4;stroke-dasharray:none"
           d="m 535.97627,710.857 3.73897,-5.81615 12.87858,-20.35648 10.38598,2.49263 11.21683,-3.73897 12.87858,3.32353 6.23159,5.40068 9.97054,-2.07718 8.30877,9.55508 16.61755,-2.07716 8.7242,2.90806 2.07719,6.64699 1.24631,8.72421 1.24631,8.3088 -8.72421,-6.64702 -7.47786,2.49262 -2.49268,2.49263 -7.89331,0.83087 -6.23158,-5.40068 -3.3235,6.23158 -9.97052,2.90806 0.41544,6.23159 -4.56981,2.49262 -7.89334,9.55508 -5.81617,-2.49262 -1.24631,4.56981 -11.21686,-3.73894 -9.97052,1.24631 -7.06243,-1.24631 -1.66178,-3.32349 12.04773,-8.30877 1.24634,-3.73897 -2.07724,-7.89333 -4.98524,-2.90806 -4.98528,-5.81615 z"
           id="path3865"
           inkscape:connector-curvature="0" />
        <path
           style="fill:#25b5c2;fill-opacity:1;stroke:#ffffff;stroke-width:7.84245467000000041;stroke-linecap:butt;stroke-linejoin:miter;stroke-opacity:1;display:inline;stroke-miterlimit:4;stroke-dasharray:none"
           d="m 602.031,690.91593 -1.66175,-6.23156 -2.90806,-5.81615 -4.15439,-4.15439 -5.40069,-0.41541 -1.66175,-9.13968 -1.66177,-4.56983 4.56983,-5.81612 2.90806,-5.81615 3.32353,-2.07722 0.83085,-7.89333 7.47792,-7.47787 7.89333,0.41544 10.38596,-12.04773 3.32353,-13.70949 3.73893,-3.32349 29.49615,0.83087 6.23156,4.1544 10.80139,-6.64705 31.9888,-2.90806 4.56984,7.89333 -5.40071,8.72424 3.32349,5.81615 -0.83087,19.5256 -15.78667,-3.3235 -8.72423,8.30875 -6.23156,0.41543 -0.41544,7.89336 -14.95579,15.78664 7.06246,13.70949 0,4.98527 7.89333,-0.41544 2.49265,7.89334 -3.32355,7.89333 8.72423,9.13965 -0.41543,10.80139 -5.40071,1.24631 -10.38596,-5.81612 -8.72421,4.98525 -11.21683,-7.06243 -7.89336,8.30874 -1.66175,-13.70946 -2.49262,-10.80139 -9.55508,-3.32352 -17.03298,2.49262 z"
           id="path3867"
           inkscape:connector-curvature="0" />
        <path
           style="fill:#25b5c2;fill-opacity:1;stroke:#ffffff;stroke-width:7.84245467000000041;stroke-linecap:butt;stroke-linejoin:miter;stroke-opacity:1;display:inline;stroke-miterlimit:4;stroke-dasharray:none"
           d="m 555.08644,644.38683 8.30877,9.13964 4.98527,2.07719 6.64703,4.98525 c 0,0 7.89333,0.41543 9.55508,0.41543 1.66177,0 5.81612,-7.06243 5.81612,-7.06243 l -0.41541,-4.56983 5.40071,-2.07719 0.41544,-7.89336 7.47789,-8.72421 8.30877,1.24634 10.8014,-13.70948 2.90809,-12.04774 2.07715,-2.07718 -7.47789,-11.6323 0,-11.63227 -19.52561,-24.51087 -26.58806,-0.83088 -11.63229,-22.43369 -8.30875,10.38596 -27.8344,-10.38596 -9.97052,-14.54035 -3.73896,4.56984 4.56984,4.15437 -1.66178,7.89336 6.64702,6.23156 9.13965,7.47789 7.4779,1.24631 0.8309,7.06246 5.40068,3.32353 -0.41544,9.55505 -2.07718,7.06249 15.78667,0.41544 3.73893,7.06243 0.8309,7.89333 -0.8309,2.90806 -4.1544,14.95582 4.1544,3.32353 -3.73893,8.72421 1.24631,6.23155 z"
           id="path3869"
           inkscape:connector-curvature="0" />
        <path
           style="fill:#25b5c2;fill-opacity:1;stroke:#ffffff;stroke-width:7.84245467000000041;stroke-linecap:butt;stroke-linejoin:miter;stroke-opacity:1;display:inline;stroke-miterlimit:4;stroke-dasharray:none"
           d="m 371.04714,490.25909 3.32352,-3.32353 6.647,0 4.56983,2.49265 4.15438,-1.66177 -0.83088,-11.21683 -1.66175,-1.24634 0,-3.73894 4.98525,-5.81614 -0.83085,-3.3235 18.69473,-14.54036 2.90806,6.23159 9.55511,0.83084 4.98525,9.55511 7.89333,0.41544 8.72421,-2.07718 6.23158,2.90806 3.32353,4.98527 7.06246,1.24631 5.81612,-1.24631 10.38598,0 1.66175,-3.3235 6.23159,-0.41546 0.41543,5.40071 11.63227,-7.4779 6.23156,0 2.49265,4.1544 -8.30877,5.81615 -5.81615,14.54035 14.12492,10.8014 10.80139,17.44841 -4.15437,5.40072 4.98528,4.5698 -2.07722,7.47793 16.20211,13.70945 7.06246,1.24631 1.0386,7.06246 5.19298,4.36211 -0.20759,7.89333 -1.45405,7.27019 -15.16349,-5.81614 -10.59369,3.94666 -2.70036,5.40071 -7.89333,-3.53123 -6.43932,9.34735 -7.27016,0.62317 -1.24632,7.27017 -10.38598,0.62317 1.03861,10.17822 -6.647,5.60844 -8.72423,-7.6856 3.32349,-7.06248 -5.19297,-4.15438 -17.03298,11.21686 0.41543,4.77754 -5.60841,2.49263 -6.23159,-10.38599 3.11582,-6.85472 -2.49267,-8.72421 7.06248,-5.81615 6.85473,1.45404 4.98527,-5.19298 5.40071,-7.89333 -36.3509,-17.44842 1.45404,-11.63229 4.77754,-4.77754 -3.32349,-6.64702 -7.89334,-9.97052 -7.89336,-1.03861 -2.07716,-2.07719 -15.16352,-0.83087 -6.02385,3.11579 -4.98528,-0.62317 4.1544,-4.3621 0,-4.77754 -7.68563,-1.45405 -0.20759,-7.06246 z"
           id="path3871"
           inkscape:connector-curvature="0" />
        <path
           style="fill:#25b5c2;fill-opacity:1;stroke:#ffffff;stroke-width:7.84245467000000041;stroke-linecap:butt;stroke-linejoin:miter;stroke-opacity:1;display:inline;stroke-miterlimit:4;stroke-dasharray:none"
           d="m 345.95124,337.76819 2.64385,7.63775 9.10651,-0.29378 5.28769,-2.05631 2.9376,7.93151 1.76256,8.51901 4.11263,2.93762 0.88126,9.10654 2.64384,8.81277 -1.76253,10.57535 -8.22529,-1.46878 0.58753,4.40638 3.81888,2.9376 0.5875,4.40638 -3.81888,0.88128 -3.81888,6.46269 -11.45661,0.29378 -4.11263,2.05629 1.76257,2.93763 4.70016,3.81887 2.05631,3.23135 0,6.46273 -0.88128,4.99388 1.17503,7.93151 -2.64381,7.63773 4.40635,-1.17503 11.45664,-9.10655 9.98782,-1.17503 4.40638,5.28769 23.79453,0 3.23134,7.34398 3.81888,5.28766 8.51901,0.58751 4.99392,9.69407 8.81279,-0.58751 8.51904,-1.17503 4.99391,2.93757 4.40638,5.28769 6.75647,0.88128 5.58142,-1.76253 9.98785,0.29375 2.64382,-3.81888 4.99391,0.5875 0.29378,5.58145 11.75036,-8.51902 5.58144,0.88126 -9.98782,-17.91933 10.86907,-0.29376 17.62561,-10.57535 24.96953,-19.97562 0,-4.40641 -10.28157,-2.93759 -17.62558,1.76253 10.8691,-36.42617 9.69405,-0.88125 -4.70013,-8.51901 7.63773,-8.22529 1.46884,-12.63164 -6.75651,-17.03808 -12.63164,3.81888 -7.93151,1.76259 -19.38811,-9.98785 -14.98177,-1.46878 -14.98173,-12.04417 -15.56924,-2.9376 -18.50686,2.64385 0.88131,15.56926 -4.99394,-0.58753 -3.81888,-3.23134 -14.68796,0.58753 -5.87516,-6.46273 -7.93154,4.70016 -14.98174,-2.64382 -20.26939,4.70014 z"
           id="path3873"
           inkscape:connector-curvature="0" />
        <path
           style="fill:#25b5c2;fill-opacity:1;stroke:#ffffff;stroke-width:7.84245467000000041;stroke-linecap:butt;stroke-linejoin:miter;stroke-opacity:1;display:inline;stroke-miterlimit:4;stroke-dasharray:none"
           d="m 531.60723,242.88386 -1.46878,9.10654 4.99391,3.81891 -1.46881,6.75645 -13.21918,11.75038 -4.70016,13.80671 -7.63773,0 -8.81279,16.45052 -1.17506,19.09433 17.62558,9.1066 19.6819,-5.58147 8.81279,0.29378 13.80667,18.80061 13.80671,1.17504 11.16285,-11.75039 2.05632,-16.74427 9.10657,-10.2816 -5.58147,-6.16895 2.35009,-8.22529 23.50078,-2.05628 -1.76257,-6.16895 13.51293,-12.33789 -0.88126,-12.04414 -8.81279,-7.344 3.23135,-9.10654 -4.70016,-1.17504 -6.4627,5.28767 -1.76256,3.23134 -4.99391,-4.40638 -5.8752,3.23135 -8.22526,-3.23135 -3.81887,-4.40638 -7.05023,-0.58753 -3.81888,3.23135 -6.16895,-0.29375 -10.28157,-2.9376 -4.70016,0 -4.11263,-4.11263 -5.28766,0 -3.52513,-1.76256 z"
           id="path3875"
           inkscape:connector-curvature="0" />
        <path
           style="fill:#25b5c2;fill-opacity:1;stroke:#ffffff;stroke-width:7.84245467000000041;stroke-linecap:butt;stroke-linejoin:miter;stroke-opacity:1;display:inline;stroke-miterlimit:4;stroke-dasharray:none"
           d="m 409.99081,151.81847 5.87517,7.93148 9.10657,6.16895 0.58753,6.46272 -2.05634,6.46273 -5.8752,5.28766 0.88131,4.70016 2.05629,5.28766 4.11263,2.93757 3.23135,-4.40635 8.51904,2.05628 1.46878,3.5251 0,3.23138 5.87519,2.35009 9.10655,-4.70018 1.46881,-4.11261 -0.58753,-9.69407 -2.64385,-7.93151 3.52513,-6.16894 12.04414,0.29378 9.10654,-5.8752 10.57535,-13.2192 13.21918,-5.87519 12.92539,-5.58141 9.40035,-4.40641 7.34397,6.16897 10.57533,3.52507 9.69407,4.40644 7.34398,-2.05634 -2.9376,-2.64382 -13.51292,-32.90107 -31.43228,-13.512951 -3.23132,5.875221 -0.58756,8.81276 9.40032,10.57536 -7.93151,7.93148 -21.15068,-22.61947 2.35007,-13.219168 5.58144,-15.863017 -11.45664,-8.812791 -2.05631,-10.281575 -10.28158,1.762564 -9.40029,-9.694072 -18.50683,-1.175034 -15.56927,4.11263 -13.8067,-9.106541 -22.61947,-1.468785 1.76254,19.094338 -7.34398,3.818906 -6.16894,17.625553 13.8067,6.462696 12.63164,11.162856 13.21917,0 1.76257,7.63776 7.05022,4.11263 9.10654,0 1.17504,19.97565 -6.16895,7.63773 -15.56924,-2.05629 0.58751,9.69404 z"
           id="path3877"
           inkscape:connector-curvature="0" />
        <path
           style="fill:#25b5c2;fill-opacity:1;stroke:#ffffff;stroke-width:7.84245467000000041;stroke-linecap:butt;stroke-linejoin:miter;stroke-opacity:1;display:inline;stroke-miterlimit:4;stroke-dasharray:none"
           d="m 441.12932,202.93259 -3.81888,7.93154 0,13.8067 2.35006,6.46267 7.05023,0 6.75648,9.4003 1.17503,4.11263 10.28157,1.76256 6.16898,-3.81888 5.28769,0.29375 9.98779,4.70016 8.22526,0.88128 3.5251,2.05632 11.45664,0 4.40638,-3.81885 13.2192,-4.99394 4.70013,1.76256 7.05023,-5.87519 8.81279,1.17503 4.40638,4.99394 4.70016,-1.17506 7.63776,2.35009 3.23135,1.46879 5.28766,-0.29375 3.5251,-2.64385 7.34401,0.58753 5.28766,4.11263 7.63776,3.52513 4.40638,-3.52513 5.58144,4.11263 2.64382,-2.93759 5.28766,-4.99389 5.28769,1.76254 -6.75647,-11.16286 0.58753,-9.40029 -7.63776,-6.16895 0.88125,-8.81279 8.22532,0 13.51292,-10.28157 0,-8.22529 c 0,0 16.15677,-13.80667 16.45052,-15.56924 0.29378,-1.76256 -1.46881,-10.86908 -1.46881,-10.86908 l 6.16894,-8.22528 0.29378,-16.45052 -15.86301,-6.4627 1.76256,-6.7565 -25.55709,-7.34398 -12.04414,12.04414 -6.46269,-14.39424 -0.88129,5.2877 -5.58144,-2.9376 -5.87514,36.42619 -20.85693,-8.51904 -9.40032,2.3501 -20.56315,-8.22529 -7.05022,-5.87519 -35.83867,15.56926 -9.98785,13.51295 -9.98782,6.4627 -12.33789,-1.46881 -2.35007,7.344 2.35007,7.0502 1.17506,10.28161 -1.76257,4.40638 -9.10654,4.40638 z"
           id="path3879"
           inkscape:connector-curvature="0" />
        <path
           style="fill:#25b5c2;fill-opacity:1;stroke:#ffffff;stroke-width:7.84245467000000041;stroke-linecap:butt;stroke-linejoin:miter;stroke-opacity:1;display:inline;stroke-miterlimit:4;stroke-dasharray:none"
           d="m 384.72747,833.04668 3.08448,-7.34401 1.46884,-6.46278 14.54108,-7.78455 13.21914,-19.09433 -3.37819,-18.21311 13.95355,-11.60352 0.29375,-1.90941 10.2816,-1.61569 5.14079,5.72832 21.15068,-0.14685 7.93151,7.0502 10.13469,0.58753 6.75645,8.95967 8.51904,-0.88128 1.76257,2.9376 5.28766,-0.44066 3.23137,2.79075 8.22524,0.14685 5.87519,-4.55329 12.48479,0.44063 2.64385,6.75647 5.87516,0.88129 4.99392,-6.75648 5.87522,0.29378 5.14076,-2.9376 1.32191,-6.31584 7.19713,-3.08448 6.16894,-3.67197 6.31582,0.73438 -2.93759,7.49088 -10.1347,2.79069 -1.76254,9.84098 9.40029,1.61566 -4.40641,7.93148 2.79075,2.20327 1.17504,3.37817 0,8.07847 -15.42237,5.14067 6.3158,19.97568 -4.11263,6.16889 -8.22526,2.79075 -6.31582,-10.72215 -5.87523,12.04406 -3.67197,4.4064 -10.42845,2.35013 6.6096,9.25336 -13.95361,2.0564 -6.90332,-6.90335 -10.28157,5.43456 -3.67201,-3.96581 -6.31582,-0.44057 1.61569,11.60349 -10.42851,1.46881 -4.99388,-6.60969 -17.33183,2.9376 -6.75645,-8.51904 -7.49088,-1.02802 -6.31582,-2.2033 -4.84704,-6.46261 -9.25341,-2.497 -2.49695,-7.78474 -7.05025,-8.372 -7.49085,8.07827 -2.9376,6.02204 -3.672,1.76271 z"
           id="path3881"
           inkscape:connector-curvature="0" />
        <path
           style="fill:#25b5c2;fill-opacity:1;stroke:#ffffff;stroke-width:7.84245467000000041;stroke-linecap:butt;stroke-linejoin:miter;stroke-opacity:1;display:inline;stroke-miterlimit:4;stroke-dasharray:none"
           d="m 192.02127,891.79859 -11.30976,2.79075 -8.22526,-5.8752 -10.42845,-1.32191 -10.72223,1.61564 -6.4627,-4.70011 -2.35007,-7.05022 3.67198,-10.5755 5.14079,-9.84078 2.93759,-8.9598 7.0502,-4.84696 11.16289,1.46879 10.72223,-6.60966 1.61569,-9.69393 -0.14685,-10.42859 9.69404,-10.28158 18.06621,-10.72211 2.49694,-12.0442 15.56927,-8.07838 6.02207,3.96575 18.21307,-7.1971 0.58753,-10.1347 3.67197,-5.28766 -0.14684,-2.64385 13.8067,-0.58753 3.81888,4.11266 14.2473,-7.63776 0.73443,-5.58141 5.14079,-2.05635 1.76256,6.02207 4.40644,1.17506 1.76254,8.66589 4.84703,4.99391 -1.76256,2.9376 -8.07841,-0.14685 -2.64382,4.99391 3.81885,3.96576 4.40641,2.49697 1.32194,2.64382 -3.96576,1.02815 -8.66591,-0.7344 -1.46884,6.6096 0.58753,6.02201 5.72834,1.17509 3.81888,1.32194 -0.14685,5.28755 -2.64384,4.99402 -7.19713,1.17503 0.14685,8.51907 -2.35007,3.08445 0,3.81874 -7.78463,3.81893 -8.81279,-2.20308 -9.4003,0.2937 -23.0601,6.16891 -9.69408,7.05026 -6.6096,-0.58748 -5.87519,4.11249 -2.64382,8.07847 -11.01598,7.78455 -1.90944,16.59751 -12.04414,10.57527 z"
           id="path3883"
           inkscape:connector-curvature="0" />
        <path
           style="fill:#25b5c2;fill-opacity:1;stroke:#ffffff;stroke-width:7.84245467000000041;stroke-linecap:butt;stroke-linejoin:miter;stroke-opacity:1;display:inline;stroke-miterlimit:4;stroke-dasharray:none"
           d="m 54.067432,766.31807 -2.492623,-6.64705 -10.593661,-6.02383 3.531202,-8.93197 0.415437,-11.42453 -24.926313,-22.64143 5.816148,-9.76278 3.115765,-19.1102 -0.207593,-23.05683 19.941067,-13.91721 13.086312,3.94667 13.086312,-2.07719 0.207593,3.11576 6.231585,0.41547 3.946639,-4.77754 8.724236,0.41544 9.555082,4.5698 12.25544,2.07722 15.1635,4.15437 3.53123,-2.90806 12.25546,1.66178 4.77752,-2.90809 10.17825,0.41544 16.40983,-13.70949 0.62315,-7.47789 3.32352,-0.41544 4.77751,-4.56984 -0.20759,-6.02382 7.89334,0 7.27019,8.30874 7.6856,-0.62317 4.56983,3.94667 7.06244,-6.43926 6.64705,-0.62317 -0.62317,6.64702 -2.28489,2.07719 -2.70039,3.94666 -4.98524,3.94667 5.40071,4.1544 -0.83088,4.15437 -5.81617,4.77754 2.07721,2.28492 1.66175,15.37123 4.3621,2.28492 2.07722,4.1544 0.20759,7.8933 -7.4779,0 -3.11579,5.19298 -7.89333,3.53126 -1.66175,4.56981 -5.81615,0.83087 -1.66175,-6.02388 -6.85472,-8.30874 -29.08074,2.49262 -3.11577,5.81612 -3.5312,3.73896 3.5312,2.70036 -3.32352,4.36208 -2.28492,6.43931 -8.72418,-1.66175 -3.53126,2.07719 -8.72421,1.03861 -1.66175,13.50175 -8.30877,10.17825 -14.95576,4.98527 -13.086343,2.49262 -11.424563,-3.73893 -7.270164,-6.43932 -0.415465,9.13968 -11.216831,11.42456 -1.038607,4.56981 z"
           id="path3885"
           inkscape:connector-curvature="0" />
        <path
           style="fill:#25b5c2;fill-opacity:1;stroke:#ffffff;stroke-width:7.84245467000000041;stroke-linecap:butt;stroke-linejoin:miter;stroke-opacity:1;display:inline;stroke-miterlimit:4;stroke-dasharray:none"
           d="m 255.34746,498.98327 -3.53126,-2.70033 -51.51436,4.1544 -39.67437,16.20211 -17.86389,-15.9944 -21.60281,-0.62317 -18.69473,28.87298 8.10104,22.01825 -18.6947,24.51087 2.908061,12.25547 13.294049,-11.00913 17.65612,-1.86948 5.40071,5.19298 9.76278,0.62317 9.13968,9.76279 13.29401,-0.2076 22.01826,-8.5165 4.98527,-2.28492 1.24631,-4.77754 6.43929,-2.70035 7.68563,4.77756 8.30877,0.83088 4.15437,3.73893 18.07159,-0.20759 4.98524,-3.11576 -7.8933,-13.50178 -0.41544,-2.49262 6.23156,-1.86946 7.89332,1.66175 8.72424,-6.43929 5.60841,-5.40074 -1.86948,-6.23156 -3.73893,-5.81614 0.41541,-7.06246 6.64702,-1.24631 -9.34738,-6.02386 0.6232,-8.51647 -3.53126,-0.2076 5.19301,-8.30879 z"
           id="path3887"
           inkscape:connector-curvature="0" />
        <path
           style="fill:#25b5c2;fill-opacity:1;stroke:#ffffff;stroke-width:7.84245467000000041;stroke-linecap:butt;stroke-linejoin:miter;stroke-opacity:1;display:inline;stroke-miterlimit:4;stroke-dasharray:none"
           d="m 270.92639,472.60294 -18.90246,23.68 3.53123,2.49262 10.59369,-4.77754 10.17826,-2.49262 27.41896,0.83087 2.49262,2.90806 1.86948,9.76282 4.1544,7.06246 -1.66175,9.97052 2.28489,4.3621 8.72421,1.24631 2.07722,4.77755 10.17825,2.28491 9.76279,-1.24631 1.45404,-3.11579 -4.77754,-4.15437 11.00912,-9.97055 5.19298,0.20759 3.3235,-11.63229 11.21686,-14.54033 3.53123,-3.32353 6.23158,-0.20787 4.36211,2.70039 4.56981,-1.45408 -0.83088,-11.21683 -2.07718,-1.45404 0,-3.3235 -12.46315,-0.83087 -5.193,3.94664 -10.59369,-0.62315 -6.85473,3.73897 -7.4779,-0.41541 -5.193,4.98522 -8.30874,0.41543 -5.60845,-5.40065 -6.85472,-0.2076 -9.55509,-9.34735 -8.10104,0 -1.24631,3.3235 -4.56986,-2.28492 -6.64702,4.98528 -4.77757,-3.94667 1.0386,-2.90806 -9.76281,-1.66178 z"
           id="path3889"
           inkscape:connector-curvature="0" />
        <path
           style="fill:#25b5c2;fill-opacity:1;stroke:#ffffff;stroke-width:7.84245467000000041;stroke-linecap:butt;stroke-linejoin:miter;stroke-opacity:1;display:inline;stroke-miterlimit:4;stroke-dasharray:none"
           d="m 345.65749,337.76819 -12.92542,0.29375 -11.75039,8.51904 -24.38205,-11.16286 -23.207,0.5875 -9.98785,-6.75645 -5.28766,7.34398 1.76256,7.34398 -0.88126,8.51904 -11.16288,-4.40641 3.23138,18.21311 -5.87519,0.29373 -1.17503,18.80064 -7.05023,7.93151 -3.52512,33.19479 17.91932,15.27551 11.45661,6.4627 -0.29376,-19.68187 5.58142,-9.98785 8.81279,-2.35007 15.86299,-12.63167 9.10662,1.17506 0.29376,4.70014 5.87516,6.16894 -1.17503,4.11266 -3.23135,4.40638 1.46878,8.81276 12.63167,2.93763 12.04411,-10.2816 11.16289,0.29377 9.40029,22.91325 3.23138,-0.88131 2.64382,-7.93148 -2.35007,-8.22529 1.76256,-11.16283 -3.23135,-3.23137 -3.81887,-3.23133 -2.35007,-4.11265 6.16894,-1.46882 9.98783,-0.29375 3.5251,-6.16894 4.11263,-0.5875 -0.29375,-4.70016 -3.81888,-2.9376 0,-4.40638 7.34398,0.5875 2.05631,-9.98782 -2.35007,-8.22526 -1.17503,-9.10655 -3.81888,-3.52512 -1.46881,-7.93148 -4.70013,-8.22529 c 0,0 -2.64385,1.76256 -4.11266,2.05631 -1.46878,0.29378 -9.9878,-0.29375 -9.9878,-0.29375 z"
           id="path3891"
           inkscape:connector-curvature="0" />
        <path
           style="fill:#25b5c2;fill-opacity:1;stroke:#ffffff;stroke-width:7.84245467000000041;stroke-linecap:butt;stroke-linejoin:miter;stroke-opacity:1;display:inline;stroke-miterlimit:4;stroke-dasharray:none"
           d="m 404.40937,315.73622 3.23138,-24.38203 -11.75039,-23.79452 -11.45661,-0.29375 -20.85693,9.10654 -12.63167,-19.09439 -11.45661,-4.40636 -3.23137,-6.46272 -9.10654,-2.64382 9.98782,-19.38812 -2.93757,-8.22528 10.28155,-0.88126 8.51904,-8.22529 0.58753,-19.38808 19.68187,-2.05635 0.5875,-4.99391 -15.27549,-19.68187 0.88131,-3.81888 12.92542,-2.05634 2.93757,-8.81279 14.68798,-3.81885 20.2694,9.40032 6.4627,8.51901 7.93151,4.70016 0.88131,6.75648 -1.17506,6.75645 -6.4627,5.58144 2.35007,10.28157 4.40638,3.23135 3.52513,-4.99388 8.22526,2.35006 1.76256,4.11261 0.29375,2.35009 3.81888,1.76256 -4.40641,6.75645 -0.88125,14.10048 3.23134,7.0502 7.05023,-0.5875 6.16895,9.40026 1.46881,4.99394 10.86908,1.17504 4.99391,-3.23138 5.28766,0 10.86911,4.70016 7.93153,-0.5875 3.5251,3.81888 11.75036,-0.29378 3.81888,-3.5251 13.51295,-5.58144 4.11263,2.64384 -1.46878,6.75648 4.99391,5.28763 -1.17506,7.05026 -12.63164,11.16285 -5.8752,13.80671 -7.34398,0.58753 -8.81279,16.15674 -1.17506,19.09436 -17.03805,-2.93759 -14.3942,-11.16286 -15.27549,-3.23135 -19.09436,2.93763 0.29375,15.27546 -4.99391,-0.88129 -3.23135,-3.23134 -14.68799,0 z"
           id="path3893"
           inkscape:connector-curvature="0" />
        <path
           style="fill:#25b5c2;fill-opacity:1;stroke:#ffffff;stroke-width:7.84245467000000041;stroke-linecap:butt;stroke-linejoin:miter;stroke-opacity:1;display:inline;stroke-miterlimit:4;stroke-dasharray:none"
           d="m 583.3363,938.93283 2.07716,-1.86954 6.85476,7.47793 5.19297,-1.45402 14.33263,16.82516 4.98527,0 8.72424,10.5938 -0.62317,10.38604 3.53123,1.86946 5.60839,-1.86946 6.43931,13.70951 -6.02385,2.70039 -1.24634,6.6469 -12.67087,-0.6234 -3.53123,4.7778 -14.54033,-2.4926 -5.60844,-3.1158 1.24631,-7.27023 -6.23156,-0.83093 -5.19298,-2.07732 -2.90809,3.32372 -0.41541,3.53103 -3.53125,2.70043 -6.23159,-2.07709 -28.0421,9.97059 -12.25544,-5.8162 1.03858,-4.56986 -3.73891,-2.70038 -5.81618,-8.51661 -8.93191,1.24639 -0.41544,-17.44836 -10.17822,-1.45402 -5.60847,6.23159 -4.77751,-2.28486 -9.13968,-1.66186 -3.11576,2.90803 -3.32353,-2.49251 -3.5312,-0.83102 -3.53123,2.28503 -5.193,-2.07718 -3.53121,1.24634 -4.98527,1.86934 -4.77754,-2.28484 -12.67088,0.4155 -11.84002,-1.86954 5.60841,-7.89342 6.23161,-2.90803 2.28489,-10.80145 11.84,0 1.03861,-8.72409 3.94667,-3.32356 1.24631,-5.40071 13.29404,2.49271 4.98525,4.98522 7.27016,-1.6617 10.17828,1.24617 13.29402,-6.85472 9.34738,-2.70019 2.07718,-6.85476 5.81615,0.2076 4.98525,-5.40074 2.70038,11.83997 5.81615,3.11588 0.41541,5.19289 4.3621,-0.41532 5.60845,-4.36225 14.33262,0.83105 2.70033,4.98521 z"
           id="path3895"
           inkscape:connector-curvature="0" />
        <path
           style="fill:#25b5c2;fill-opacity:1;stroke:#ffffff;stroke-width:7.84245467000000041;stroke-linecap:butt;stroke-linejoin:miter;stroke-opacity:1;display:inline;stroke-miterlimit:4;stroke-dasharray:none"
           d="m 555.40176,644.89372 -13.80671,0.73438 -9.25344,-7.93148 -8.37214,1.17506 -0.5875,-4.99394 -9.69407,0.44063 -0.14685,5.28769 5.28766,5.28766 -3.96575,4.55328 -0.29375,8.51902 2.9376,11.16285 -2.35007,1.46881 -4.55329,6.60958 -12.04413,7.19713 -9.69408,14.54108 -7.49085,7.344 0,4.40636 4.55328,-0.44063 2.2032,-2.79069 2.93756,1.17503 1.46882,3.672 14.39423,-1.76259 8.95964,0.44066 8.66591,-1.32194 3.96576,4.40641 5.28766,0 2.79072,-3.52513 16.30364,-25.70394 10.1347,1.90944 11.01599,-3.23135 13.65982,3.67198 5.43454,5.43457 9.10654,-2.35007 -1.32191,-5.58144 -3.672,-6.16897 -3.96575,-3.67201 -5.58142,-0.5875 -1.61569,-9.10654 -1.76256,-4.70016 -9.54717,0 -6.31582,-4.84701 -5.14081,-2.05632 z"
           id="path3897"
           inkscape:connector-curvature="0" />
        <path
           style="fill:#25b5c2;fill-opacity:1;stroke:#ffffff;stroke-width:7.84245467000000041;stroke-linecap:butt;stroke-linejoin:miter;stroke-opacity:1;display:inline;stroke-miterlimit:4;stroke-dasharray:none"
           d="m 376.44782,640.44014 20.1488,-13.70949 13.08631,8.93194 12.04771,3.94667 6.02388,7.4779 0.20759,10.80139 3.32353,8.5165 6.43929,5.81615 0.41543,8.51651 2.28492,6.23155 0.2076,6.64703 16.40983,8.10103 6.43932,7.47793 2.28489,6.64699 -1.86948,6.85476 0.62317,8.30877 -6.23159,2.49262 -9.13964,8.93194 -21.18738,7.27017 -15.57896,2.28491 -6.23156,-2.90806 -6.64699,0.41541 -2.49265,-6.8547 -4.98528,-0.20759 -0.41544,-3.53123 4.36214,-3.94667 -4.1544,-4.15439 2.07715,-3.53123 0.62317,-3.73894 -1.24631,-3.73896 -4.77751,-5.40068 8.51648,-0.83091 6.43929,-4.77754 6.43931,-0.41541 0.41544,-4.56983 4.98525,-0.2076 2.07721,-7.06246 -5.60844,-10.17822 1.45404,-9.55508 -3.94667,-4.77757 -3.53123,-8.10104 -6.64702,0.41544 -9.76281,-7.27017 -4.56981,-10.59371 -5.81615,-0.41541 z"
           id="path3899"
           inkscape:connector-curvature="0" />
      </g>
    </g>
  </g>
</svg>
