<?xml version="1.0" encoding="UTF-8" standalone="no"?>
<!-- Created with Inkscape (http://www.inkscape.org/) -->

<svg
   xmlns:dc="http://purl.org/dc/elements/1.1/"
   xmlns:cc="http://creativecommons.org/ns#"
   xmlns:rdf="http://www.w3.org/1999/02/22-rdf-syntax-ns#"
   xmlns:svg="http://www.w3.org/2000/svg"
   xmlns="http://www.w3.org/2000/svg"
   xmlns:sodipodi="http://sodipodi.sourceforge.net/DTD/sodipodi-0.dtd"
   xmlns:inkscape="http://www.inkscape.org/namespaces/inkscape"
   id="svg2"
   version="1.1"
   inkscape:version="0.48.4 r9939"
   width="1560"
   height="500"
   xml:space="preserve"
   sodipodi:docname="L-VAL EYRIEUX cartouche-RVB.svg"><metadata
     id="metadata8"><rdf:RDF><cc:Work
         rdf:about=""><dc:format>image/svg+xml</dc:format><dc:type
           rdf:resource="http://purl.org/dc/dcmitype/StillImage" /><dc:title /></cc:Work></rdf:RDF></metadata><defs
     id="defs6"><clipPath
       clipPathUnits="userSpaceOnUse"
       id="clipPath36"><path
         d="m 0,82.774 258.838,0 L 258.838,0 0,0 0,82.774 z"
         id="path38"
         inkscape:connector-curvature="0" /></clipPath></defs><sodipodi:namedview
     pagecolor="#ffffff"
     bordercolor="#666666"
     borderopacity="1"
     objecttolerance="10"
     gridtolerance="10"
     guidetolerance="10"
     inkscape:pageopacity="0"
     inkscape:pageshadow="2"
     inkscape:window-width="1419"
     inkscape:window-height="645"
     id="namedview4"
     showgrid="false"
     inkscape:zoom="0.24094925"
     inkscape:cx="161.77374"
     inkscape:cy="198.46724"
     inkscape:window-x="0"
     inkscape:window-y="24"
     inkscape:window-maximized="0"
     inkscape:current-layer="g10" /><g
     id="g10"
     inkscape:groupmode="layer"
     inkscape:label="L-VAL EYRIEUX cartouche-RVB"
     transform="matrix(1.25,0,0,-1.25,0,500)"><path
       d="m 1218.5942,3.911 -1201.9222,0 0,383.22272 1201.9222,0 0,-383.22272 z"
       style="fill:#ffffff;fill-opacity:1;fill-rule:nonzero;stroke:none"
       id="path12"
       inkscape:connector-curvature="0" /><g
       id="g14"
       transform="matrix(5.3233511,0,0,5.3233511,310.97134,259.10713)"><path
         d="m 0,0 3.119,0 0,-18.3 12.768,0 0,-2.706 L 0,-21.006 0,0 z"
         style="fill:#648c1a;fill-opacity:1;fill-rule:nonzero;stroke:none"
         id="path16"
         inkscape:connector-curvature="0" /></g><g
       id="g18"
       transform="matrix(5.3233511,0,0,5.3233511,422.73562,259.10713)"><path
         d="m 0,0 16.888,0 0,-2.707 -13.769,0 0,-6.09 13.357,0 0,-2.707 -13.357,0 0,-6.796 14.062,0 0,-2.706 L 0,-21.006 0,0 z"
         style="fill:#276092;fill-opacity:1;fill-rule:nonzero;stroke:none"
         id="path20"
         inkscape:connector-curvature="0" /></g><g
       id="g22"
       transform="matrix(5.3233511,0,0,5.3233511,614.7638,259.10713)"><path
         d="m 0,0 3.795,0 -9.267,-12.209 0,-8.797 -3.118,0 0,8.649 L -17.799,0 -13.827,0 -6.972,-9.562 0,0 z"
         style="fill:#276092;fill-opacity:1;fill-rule:nonzero;stroke:none"
         id="path24"
         inkscape:connector-curvature="0" /></g><path
       d="m 766.40212,259.10713 16.59821,0 0,-111.82231 -16.59821,0 0,111.82231 z"
       style="fill:#276092;fill-opacity:1;fill-rule:nonzero;stroke:none"
       id="path26"
       inkscape:connector-curvature="0" /><g
       id="g28"
       transform="matrix(5.3233511,0,0,5.3233511,808.54124,259.10713)"><path
         d="m 0,0 16.887,0 0,-2.707 -13.769,0 0,-6.09 13.357,0 0,-2.707 -13.357,0 0,-6.796 14.063,0 0,-2.706 L 0,-21.006 0,0 z"
         style="fill:#276092;fill-opacity:1;fill-rule:nonzero;stroke:none"
         id="path30"
         inkscape:connector-curvature="0" /></g><g
       id="g32"
       transform="matrix(5.3233511,0,0,5.3233511,-72.07891,-16.908626)"><g
         id="g34"
         clip-path="url(#clipPath36)"><g
           id="g40"
           transform="translate(186.082,51.85)"><path
             d="m 0,0 3.118,0 0,-13.445 c 0,-3.796 2.531,-5.384 6.385,-5.384 3.854,0 6.385,1.588 6.385,5.384 l 0,13.445 3.118,0 0,-13.063 c 0,-5.619 -3.118,-8.473 -9.503,-8.473 -6.385,0 -9.503,2.854 -9.503,8.473 L 0,0 z"
             style="fill:#276092;fill-opacity:1;fill-rule:nonzero;stroke:none"
             id="path42"
             inkscape:connector-curvature="0" /></g><g
           id="g44"
           transform="translate(223.8908,51.85)"><path
             d="m 0,0 3.854,0 -8.09,-10.238 8.326,-10.768 -4.09,0 -6.355,8.502 -6.325,-8.502 -3.883,0 8.296,10.768 L -16.152,0 -12.18,0 -6.178,-8.091 0,0 z"
             style="fill:#276092;fill-opacity:1;fill-rule:nonzero;stroke:none"
             id="path46"
             inkscape:connector-curvature="0" /></g><g
           id="g48"
           transform="translate(50.0022,53.0366)"><path
             d="m 0,0 -8.212,-18.58 -7.402,17.393 -3.531,0 9.347,-20.984 3.139,-0.008 9.289,21.017 c 0,0 3.732,9.84 9.645,9.84 C 2.974,8.678 0,0 0,0"
             style="fill:#648c1a;fill-opacity:1;fill-rule:nonzero;stroke:none"
             id="path50"
             inkscape:connector-curvature="0" /></g><g
           id="g52"
           transform="translate(69.6559,30.8078)"><path
             d="m 0,0 -9.346,20.985 -3.14,0.008 -9.288,-21.017 c 0,0 -3.733,-9.841 -9.645,-9.841 9.3,0 12.274,8.678 12.274,8.678 l 8.212,18.581 3.617,-8.5 -5.838,0 -1.229,-2.724 8.226,0 L -3.531,0 0,0 z"
             style="fill:#648c1a;fill-opacity:1;fill-rule:nonzero;stroke:none"
             id="path54"
             inkscape:connector-curvature="0" /></g><g
           id="g56"
           transform="translate(138.1201,49.1979)"><path
             d="m 0,0 8.096,0 c 2.394,0 3.576,-1.389 3.576,-3.398 0,-2.128 -1.035,-3.812 -4.137,-3.812 L 0,-7.21 0,0 z m 15.681,-18.354 -6.57,8.498 c 3.688,0.428 5.694,2.92 5.694,6.517 0,3.93 -2.424,6.058 -7.064,6.058 l -10.874,0 0,-21.099 3.133,0 0,8.451 5.342,0 6.249,-8.425 4.09,0 z"
             style="fill:#276092;fill-opacity:1;fill-rule:nonzero;stroke:none"
             id="path58"
             inkscape:connector-curvature="0" /></g><g
           id="g60"
           transform="translate(97.9248,21.8641)"><path
             d="m 0,0 c -0.378,-1.414 -1.233,-1.891 -2.458,-1.891 -1.873,0 -2.565,1.27 -2.565,2.494 0,1.395 0.855,2.547 2.556,2.547 1.26,0 2.26,-0.566 2.449,-1.737 l -0.954,0 c -0.109,0.612 -0.594,0.982 -1.432,0.982 -1.152,0 -1.665,-0.756 -1.665,-1.765 0,-1.008 0.513,-1.765 1.665,-1.765 0.81,0 1.252,0.352 1.449,1.135 L 0,0 z"
             style="fill:#648c1a;fill-opacity:1;fill-rule:nonzero;stroke:none"
             id="path62"
             inkscape:connector-curvature="0" /></g><g
           id="g64"
           transform="translate(101.3799,24.2587)"><path
             d="m 0,0 c -1.306,0 -1.783,-0.909 -1.783,-1.765 0,-0.855 0.477,-1.764 1.783,-1.764 1.305,0 1.782,0.909 1.782,1.764 C 1.782,-0.909 1.305,0 0,0 m 0,0.756 c 1.836,0 2.737,-1.161 2.737,-2.521 0,-1.359 -0.901,-2.52 -2.737,-2.52 -1.837,0 -2.737,1.161 -2.737,2.52 0,1.36 0.9,2.521 2.737,2.521"
             style="fill:#648c1a;fill-opacity:1;fill-rule:nonzero;stroke:none"
             id="path66"
             inkscape:connector-curvature="0" /></g><g
           id="g68"
           transform="translate(112.2441,23.1337)"><path
             d="m 0,0 c 0,0.864 -0.549,1.125 -1.134,1.125 -0.82,0 -1.549,-0.387 -1.549,-1.27 l 0,-2.853 -0.9,0 0,2.998 c 0,0.864 -0.549,1.125 -1.134,1.125 -0.82,0 -1.549,-0.478 -1.549,-1.404 l 0,-2.719 -0.9,0 0,4.717 0.9,0 0,-0.711 0.018,0 c 0.423,0.657 1.17,0.873 1.846,0.873 0.612,0 1.224,-0.252 1.602,-0.873 0.432,0.54 1.008,0.873 1.909,0.873 0.477,0 1.791,-0.225 1.791,-1.665 l 0,-3.214 -0.9,0 L 0,0 z"
             style="fill:#648c1a;fill-opacity:1;fill-rule:nonzero;stroke:none"
             id="path70"
             inkscape:connector-curvature="0" /></g><g
           id="g72"
           transform="translate(121.478,23.1337)"><path
             d="m 0,0 c 0,0.864 -0.549,1.125 -1.134,1.125 -0.82,0 -1.549,-0.387 -1.549,-1.27 l 0,-2.853 -0.9,0 0,2.998 c 0,0.864 -0.549,1.125 -1.134,1.125 -0.82,0 -1.549,-0.478 -1.549,-1.404 l 0,-2.719 -0.9,0 0,4.717 0.9,0 0,-0.711 0.018,0 c 0.423,0.657 1.17,0.873 1.846,0.873 0.612,0 1.224,-0.252 1.602,-0.873 0.432,0.54 1.008,0.873 1.909,0.873 0.477,0 1.791,-0.225 1.791,-1.665 l 0,-3.214 -0.9,0 L 0,0 z"
             style="fill:#648c1a;fill-opacity:1;fill-rule:nonzero;stroke:none"
             id="path74"
             inkscape:connector-curvature="0" /></g><g
           id="g76"
           transform="translate(128.29,20.1356)"><path
             d="m 0,0 -0.9,0 0,0.711 -0.018,0 c -0.423,-0.657 -1.17,-0.873 -1.846,-0.873 -1.134,0 -1.98,0.486 -1.98,1.665 l 0,3.214 0.9,0 0,-3.033 c 0,-0.694 0.432,-1.09 1.395,-1.09 0.82,0 1.549,0.477 1.549,1.404 l 0,2.719 0.9,0 L 0,0 z"
             style="fill:#648c1a;fill-opacity:1;fill-rule:nonzero;stroke:none"
             id="path78"
             inkscape:connector-curvature="0" /></g><g
           id="g80"
           transform="translate(129.459,24.8524)"><path
             d="m 0,0 0.9,0 0,-0.711 0.018,0 c 0.423,0.657 1.17,0.873 1.846,0.873 1.133,0 1.98,-0.486 1.98,-1.665 l 0,-3.214 -0.9,0 0,3.033 c 0,0.694 -0.432,1.09 -1.395,1.09 -0.82,0 -1.549,-0.477 -1.549,-1.404 l 0,-2.719 -0.9,0 L 0,0 z"
             style="fill:#648c1a;fill-opacity:1;fill-rule:nonzero;stroke:none"
             id="path82"
             inkscape:connector-curvature="0" /></g><g
           id="g84"
           transform="translate(139.0264,22.6024)"><path
             d="m 0,0 c -0.135,-0.153 -0.378,-0.217 -0.883,-0.279 l -1.016,-0.126 c -0.703,-0.09 -1.072,-0.28 -1.072,-0.775 0,-0.441 0.441,-0.747 1.098,-0.747 1.018,0 1.873,0.54 1.873,1.323 L 0,0 z m -3.664,0.773 c 0.117,1.18 0.927,1.639 2.341,1.639 0.963,0 2.169,-0.243 2.169,-1.341 l 0,-2.539 c 0,-0.279 0.127,-0.405 0.405,-0.405 0.1,0 0.226,0.019 0.315,0.036 l 0,-0.63 C 1.351,-2.503 1.08,-2.521 0.864,-2.521 c -0.45,0 -0.747,0.125 -0.81,0.657 -0.361,-0.486 -1.242,-0.765 -2.008,-0.765 -1.567,0 -1.917,0.81 -1.917,1.422 0,0.864 0.513,1.306 2.025,1.468 l 1.027,0.108 C -0.315,0.423 0,0.513 0,0.936 0,1.584 -0.63,1.71 -1.359,1.71 -2.134,1.71 -2.791,1.503 -2.818,0.773 l -0.846,0 z"
             style="fill:#648c1a;fill-opacity:1;fill-rule:nonzero;stroke:none"
             id="path86"
             inkscape:connector-curvature="0" /></g><g
           id="g88"
           transform="translate(146.0195,20.1356)"><path
             d="m 0,0 -0.9,0 0,0.711 -0.018,0 c -0.423,-0.657 -1.17,-0.873 -1.846,-0.873 -1.133,0 -1.98,0.486 -1.98,1.665 l 0,3.214 0.9,0 0,-3.033 c 0,-0.694 0.432,-1.09 1.396,-1.09 0.819,0 1.548,0.477 1.548,1.404 l 0,2.719 0.9,0 L 0,0 z"
             style="fill:#648c1a;fill-opacity:1;fill-rule:nonzero;stroke:none"
             id="path90"
             inkscape:connector-curvature="0" /></g><g
           id="g92"
           transform="translate(147.584,26.3026)"><path
             d="m 0,0 0.9,0 0,-1.45 1.351,0 0,-0.702 -1.351,0 0,-2.908 c 0,-0.378 0.271,-0.513 0.73,-0.513 0.207,0 0.414,0.027 0.621,0.063 l 0,-0.757 C 1.944,-6.32 1.611,-6.329 1.242,-6.329 0.36,-6.329 0,-5.897 0,-5.213 l 0,3.061 -0.972,0 0,0.702 L 0,-1.45 0,0 z"
             style="fill:#648c1a;fill-opacity:1;fill-rule:nonzero;stroke:none"
             id="path94"
             inkscape:connector-curvature="0" /></g><g
           id="g96"
           transform="translate(153.2822,26.7167)"><path
             d="m 0,0 1.125,0 -1.179,-1.261 -0.72,0 L 0,0 z m 1.44,-3.79 c -0.134,0.854 -0.8,1.332 -1.647,1.332 -0.828,0 -1.575,-0.486 -1.711,-1.332 l 3.358,0 z m -3.384,-0.703 c 0.071,-0.972 0.935,-1.494 1.737,-1.494 0.513,0 1.215,0.171 1.521,0.838 l 0.955,0 c -0.451,-1.135 -1.503,-1.594 -2.431,-1.594 -1.837,0 -2.736,1.161 -2.736,2.52 0,1.36 0.899,2.521 2.736,2.521 1.242,0 2.557,-0.72 2.557,-2.674 l 0,-0.117 -4.339,0 z"
             style="fill:#648c1a;fill-opacity:1;fill-rule:nonzero;stroke:none"
             id="path98"
             inkscape:connector-curvature="0" /></g><g
           id="g100"
           transform="translate(162.2187,20.7294)"><path
             d="M 0,0 C 1.225,0 1.747,0.847 1.747,1.737 1.747,2.818 1.054,3.476 0,3.476 -1.044,3.476 -1.729,2.818 -1.729,1.737 -1.729,0.847 -1.215,0 0,0 m 1.692,0.009 -0.017,0 c -0.352,-0.495 -1.099,-0.765 -1.792,-0.765 -1.422,0 -2.566,0.909 -2.566,2.493 0,1.585 1.144,2.494 2.566,2.494 0.702,0 1.431,-0.252 1.792,-0.765 l 0.017,0 0,2.422 0.901,0 0,-6.482 -0.901,0 0,0.603 z"
             style="fill:#648c1a;fill-opacity:1;fill-rule:nonzero;stroke:none"
             id="path102"
             inkscape:connector-curvature="0" /></g><g
           id="g104"
           transform="translate(170.1123,22.9266)"><path
             d="M 0,0 C -0.135,0.854 -0.801,1.332 -1.647,1.332 -2.476,1.332 -3.223,0.846 -3.358,0 L 0,0 z m -3.385,-0.703 c 0.072,-0.972 0.936,-1.494 1.738,-1.494 0.512,0 1.214,0.171 1.521,0.838 l 0.954,0 c -0.45,-1.135 -1.503,-1.594 -2.431,-1.594 -1.836,0 -2.736,1.161 -2.736,2.52 0,1.36 0.9,2.521 2.736,2.521 1.243,0 2.557,-0.72 2.557,-2.674 l 0,-0.117 -4.339,0 z"
             style="fill:#648c1a;fill-opacity:1;fill-rule:nonzero;stroke:none"
             id="path106"
             inkscape:connector-curvature="0" /></g><g
           id="g108"
           transform="translate(179.9492,21.8641)"><path
             d="m 0,0 c -0.378,-1.414 -1.233,-1.891 -2.458,-1.891 -1.872,0 -2.565,1.27 -2.565,2.494 0,1.395 0.855,2.547 2.556,2.547 1.261,0 2.26,-0.566 2.449,-1.737 l -0.955,0 c -0.107,0.612 -0.593,0.982 -1.43,0.982 -1.153,0 -1.666,-0.756 -1.666,-1.765 0,-1.008 0.513,-1.765 1.666,-1.765 0.809,0 1.251,0.352 1.449,1.135 L 0,0 z"
             style="fill:#648c1a;fill-opacity:1;fill-rule:nonzero;stroke:none"
             id="path110"
             inkscape:connector-curvature="0" /></g><g
           id="g112"
           transform="translate(183.4053,24.2587)"><path
             d="m 0,0 c -1.306,0 -1.783,-0.909 -1.783,-1.765 0,-0.855 0.477,-1.764 1.783,-1.764 1.305,0 1.782,0.909 1.782,1.764 C 1.782,-0.909 1.305,0 0,0 m 0,0.756 c 1.836,0 2.736,-1.161 2.736,-2.521 0,-1.359 -0.9,-2.52 -2.736,-2.52 -1.837,0 -2.737,1.161 -2.737,2.52 0,1.36 0.9,2.521 2.737,2.521"
             style="fill:#648c1a;fill-opacity:1;fill-rule:nonzero;stroke:none"
             id="path114"
             inkscape:connector-curvature="0" /></g><g
           id="g116"
           transform="translate(194.2685,23.1337)"><path
             d="m 0,0 c 0,0.864 -0.549,1.125 -1.134,1.125 -0.819,0 -1.549,-0.387 -1.549,-1.27 l 0,-2.853 -0.9,0 0,2.998 c 0,0.864 -0.549,1.125 -1.134,1.125 -0.819,0 -1.549,-0.478 -1.549,-1.404 l 0,-2.719 -0.9,0 0,4.717 0.9,0 0,-0.711 0.018,0 c 0.424,0.657 1.171,0.873 1.846,0.873 0.612,0 1.224,-0.252 1.602,-0.873 0.433,0.54 1.009,0.873 1.909,0.873 0.477,0 1.791,-0.225 1.791,-1.665 l 0,-3.214 -0.9,0 L 0,0 z"
             style="fill:#648c1a;fill-opacity:1;fill-rule:nonzero;stroke:none"
             id="path118"
             inkscape:connector-curvature="0" /></g><g
           id="g120"
           transform="translate(203.5029,23.1337)"><path
             d="m 0,0 c 0,0.864 -0.55,1.125 -1.135,1.125 -0.819,0 -1.548,-0.387 -1.548,-1.27 l 0,-2.853 -0.9,0 0,2.998 c 0,0.864 -0.55,1.125 -1.135,1.125 -0.819,0 -1.549,-0.478 -1.549,-1.404 l 0,-2.719 -0.899,0 0,4.717 0.899,0 0,-0.711 0.019,0 c 0.423,0.657 1.17,0.873 1.846,0.873 0.612,0 1.223,-0.252 1.602,-0.873 0.432,0.54 1.008,0.873 1.908,0.873 0.478,0 1.792,-0.225 1.792,-1.665 l 0,-3.214 -0.9,0 L 0,0 z"
             style="fill:#648c1a;fill-opacity:1;fill-rule:nonzero;stroke:none"
             id="path122"
             inkscape:connector-curvature="0" /></g><g
           id="g124"
           transform="translate(210.3154,20.1356)"><path
             d="m 0,0 -0.9,0 0,0.711 -0.018,0 c -0.424,-0.657 -1.171,-0.873 -1.846,-0.873 -1.134,0 -1.98,0.486 -1.98,1.665 l 0,3.214 0.899,0 0,-3.033 c 0,-0.694 0.433,-1.09 1.396,-1.09 0.819,0 1.549,0.477 1.549,1.404 l 0,2.719 0.9,0 L 0,0 z"
             style="fill:#648c1a;fill-opacity:1;fill-rule:nonzero;stroke:none"
             id="path126"
             inkscape:connector-curvature="0" /></g><g
           id="g128"
           transform="translate(211.4834,24.8524)"><path
             d="m 0,0 0.9,0 0,-0.711 0.018,0 c 0.424,0.657 1.171,0.873 1.846,0.873 1.134,0 1.98,-0.486 1.98,-1.665 l 0,-3.214 -0.9,0 0,3.033 c 0,0.694 -0.432,1.09 -1.395,1.09 C 1.63,-0.594 0.9,-1.071 0.9,-1.998 l 0,-2.719 -0.9,0 L 0,0 z"
             style="fill:#648c1a;fill-opacity:1;fill-rule:nonzero;stroke:none"
             id="path130"
             inkscape:connector-curvature="0" /></g><g
           id="g132"
           transform="translate(221.5283,22.9266)"><path
             d="M 0,0 C -0.135,0.854 -0.801,1.332 -1.647,1.332 -2.476,1.332 -3.223,0.846 -3.357,0 L 0,0 z m -3.385,-0.703 c 0.072,-0.972 0.937,-1.494 1.738,-1.494 0.513,0 1.215,0.171 1.521,0.838 l 0.955,0 c -0.45,-1.135 -1.504,-1.594 -2.431,-1.594 -1.836,0 -2.737,1.161 -2.737,2.52 0,1.36 0.901,2.521 2.737,2.521 1.243,0 2.557,-0.72 2.557,-2.674 l 0,-0.117 -4.34,0 z"
             style="fill:#648c1a;fill-opacity:1;fill-rule:nonzero;stroke:none"
             id="path134"
             inkscape:connector-curvature="0" /></g><g
           id="g136"
           transform="translate(224.1015,21.621)"><path
             d="m 0,0 c 0,-0.423 0.342,-0.945 1.485,-0.945 1.161,0 1.441,0.405 1.441,0.738 0,0.333 -0.171,0.531 -0.892,0.63 L 0.549,0.621 c -0.675,0.09 -1.278,0.523 -1.278,1.251 0,0.955 0.828,1.522 2.151,1.522 1.549,0 2.224,-0.666 2.305,-1.584 l -0.9,0 C 2.8,2.286 2.35,2.691 1.413,2.691 0.837,2.691 0.171,2.529 0.171,1.972 0.171,1.656 0.315,1.477 0.954,1.387 L 2.232,1.215 C 3.421,1.053 3.88,0.63 3.88,-0.036 3.88,-1.135 2.953,-1.647 1.513,-1.647 0.432,-1.647 -0.802,-1.368 -0.9,0 L 0,0 z"
             style="fill:#648c1a;fill-opacity:1;fill-rule:nonzero;stroke:none"
             id="path138"
             inkscape:connector-curvature="0" /></g><g
           id="g140"
           transform="translate(84.7141,51.8573)"><path
             d="m 0,0 -0.002,-7.917 3.143,0 L 3.143,0 0,0 z"
             style="fill:#f5c400;fill-opacity:1;fill-rule:nonzero;stroke:none"
             id="path142"
             inkscape:connector-curvature="0" /></g></g></g></g></svg>